%TF.GenerationSoftware,KiCad,Pcbnew,7.0.7*%
%TF.CreationDate,2024-03-01T11:29:19-05:00*%
%TF.ProjectId,Sh_mas,5368e96d-6173-42e6-9b69-6361645f7063,1.0*%
%TF.SameCoordinates,Original*%
%TF.FileFunction,Copper,L4,Bot*%
%TF.FilePolarity,Positive*%
%FSLAX46Y46*%
G04 Gerber Fmt 4.6, Leading zero omitted, Abs format (unit mm)*
G04 Created by KiCad (PCBNEW 7.0.7) date 2024-03-01 11:29:19*
%MOMM*%
%LPD*%
G01*
G04 APERTURE LIST*
G04 Aperture macros list*
%AMRoundRect*
0 Rectangle with rounded corners*
0 $1 Rounding radius*
0 $2 $3 $4 $5 $6 $7 $8 $9 X,Y pos of 4 corners*
0 Add a 4 corners polygon primitive as box body*
4,1,4,$2,$3,$4,$5,$6,$7,$8,$9,$2,$3,0*
0 Add four circle primitives for the rounded corners*
1,1,$1+$1,$2,$3*
1,1,$1+$1,$4,$5*
1,1,$1+$1,$6,$7*
1,1,$1+$1,$8,$9*
0 Add four rect primitives between the rounded corners*
20,1,$1+$1,$2,$3,$4,$5,0*
20,1,$1+$1,$4,$5,$6,$7,0*
20,1,$1+$1,$6,$7,$8,$9,0*
20,1,$1+$1,$8,$9,$2,$3,0*%
G04 Aperture macros list end*
%TA.AperFunction,ComponentPad*%
%ADD10R,1.700000X1.700000*%
%TD*%
%TA.AperFunction,ComponentPad*%
%ADD11O,1.700000X1.700000*%
%TD*%
%TA.AperFunction,SMDPad,CuDef*%
%ADD12RoundRect,0.250000X0.337500X0.475000X-0.337500X0.475000X-0.337500X-0.475000X0.337500X-0.475000X0*%
%TD*%
%TA.AperFunction,SMDPad,CuDef*%
%ADD13RoundRect,0.225000X-0.225000X-0.250000X0.225000X-0.250000X0.225000X0.250000X-0.225000X0.250000X0*%
%TD*%
%TA.AperFunction,SMDPad,CuDef*%
%ADD14RoundRect,0.250000X0.475000X-0.337500X0.475000X0.337500X-0.475000X0.337500X-0.475000X-0.337500X0*%
%TD*%
%TA.AperFunction,SMDPad,CuDef*%
%ADD15RoundRect,0.150000X-0.825000X-0.150000X0.825000X-0.150000X0.825000X0.150000X-0.825000X0.150000X0*%
%TD*%
%TA.AperFunction,SMDPad,CuDef*%
%ADD16RoundRect,0.250000X-0.337500X-0.475000X0.337500X-0.475000X0.337500X0.475000X-0.337500X0.475000X0*%
%TD*%
%TA.AperFunction,SMDPad,CuDef*%
%ADD17RoundRect,0.407500X0.592500X-0.407500X0.592500X0.407500X-0.592500X0.407500X-0.592500X-0.407500X0*%
%TD*%
%TA.AperFunction,SMDPad,CuDef*%
%ADD18RoundRect,0.407500X-0.592500X0.407500X-0.592500X-0.407500X0.592500X-0.407500X0.592500X0.407500X0*%
%TD*%
%TA.AperFunction,SMDPad,CuDef*%
%ADD19RoundRect,0.150000X-0.150000X0.825000X-0.150000X-0.825000X0.150000X-0.825000X0.150000X0.825000X0*%
%TD*%
%TA.AperFunction,SMDPad,CuDef*%
%ADD20RoundRect,0.150000X-0.512500X-0.150000X0.512500X-0.150000X0.512500X0.150000X-0.512500X0.150000X0*%
%TD*%
%TA.AperFunction,SMDPad,CuDef*%
%ADD21RoundRect,0.250000X-0.475000X0.337500X-0.475000X-0.337500X0.475000X-0.337500X0.475000X0.337500X0*%
%TD*%
%TA.AperFunction,ViaPad*%
%ADD22C,0.800000*%
%TD*%
%TA.AperFunction,Conductor*%
%ADD23C,0.250000*%
%TD*%
%TA.AperFunction,Conductor*%
%ADD24C,0.600000*%
%TD*%
G04 APERTURE END LIST*
D10*
%TO.P,J1,1,Pin_1*%
%TO.N,+12V*%
X98500000Y-64960000D03*
D11*
%TO.P,J1,2,Pin_2*%
%TO.N,Net-(J1-Pin_2)*%
X98500000Y-67500000D03*
%TO.P,J1,3,Pin_3*%
%TO.N,Net-(J1-Pin_3)*%
X98500000Y-70040000D03*
%TO.P,J1,4,Pin_4*%
%TO.N,GND*%
X98500000Y-72580000D03*
%TD*%
D10*
%TO.P,J3,1,Pin_1*%
%TO.N,+12V*%
X151600000Y-71400000D03*
D11*
%TO.P,J3,2,Pin_2*%
%TO.N,Net-(J1-Pin_2)*%
X151600000Y-73940000D03*
%TO.P,J3,3,Pin_3*%
%TO.N,Net-(J1-Pin_3)*%
X151600000Y-76480000D03*
%TO.P,J3,4,Pin_4*%
%TO.N,GND*%
X151600000Y-79020000D03*
%TD*%
D10*
%TO.P,J4,1,Pin_1*%
%TO.N,+5V*%
X97325000Y-77375000D03*
D11*
%TO.P,J4,2,Pin_2*%
%TO.N,Net-(J4-Pin_2)*%
X97325000Y-79915000D03*
%TO.P,J4,3,Pin_3*%
%TO.N,GND*%
X97325000Y-82455000D03*
%TD*%
D12*
%TO.P,R7,1*%
%TO.N,/EN*%
X109437500Y-74100000D03*
%TO.P,R7,2*%
%TO.N,GND*%
X107362500Y-74100000D03*
%TD*%
D13*
%TO.P,FB1,1*%
%TO.N,+5V*%
X101525000Y-84400000D03*
%TO.P,FB1,2*%
%TO.N,+5VA*%
X103075000Y-84400000D03*
%TD*%
D12*
%TO.P,C9,1*%
%TO.N,+5V*%
X105337500Y-72300000D03*
%TO.P,C9,2*%
%TO.N,GND*%
X103262500Y-72300000D03*
%TD*%
D14*
%TO.P,R5,1*%
%TO.N,/SDAA*%
X109200000Y-85637500D03*
%TO.P,R5,2*%
%TO.N,+5VA*%
X109200000Y-83562500D03*
%TD*%
D15*
%TO.P,U6,1,TXD*%
%TO.N,/TXD*%
X104700000Y-70255000D03*
%TO.P,U6,2,GND*%
%TO.N,GND*%
X104700000Y-68985000D03*
%TO.P,U6,3,VCC*%
%TO.N,+5V*%
X104700000Y-67715000D03*
%TO.P,U6,4,RXD*%
%TO.N,/RXD*%
X104700000Y-66445000D03*
%TO.P,U6,5,nc*%
%TO.N,unconnected-(U6-nc-Pad5)*%
X109650000Y-66445000D03*
%TO.P,U6,6,CANL*%
%TO.N,Net-(U6-CANL)*%
X109650000Y-67715000D03*
%TO.P,U6,7,CANH*%
%TO.N,Net-(U6-CANH)*%
X109650000Y-68985000D03*
%TO.P,U6,8,S*%
%TO.N,/EN*%
X109650000Y-70255000D03*
%TD*%
D16*
%TO.P,R3,1*%
%TO.N,Net-(J4-Pin_2)*%
X99937500Y-75800000D03*
%TO.P,R3,2*%
%TO.N,Net-(U1-AIN)*%
X102012500Y-75800000D03*
%TD*%
D12*
%TO.P,C7,1*%
%TO.N,+5VA*%
X101937500Y-82550000D03*
%TO.P,C7,2*%
%TO.N,GND*%
X99862500Y-82550000D03*
%TD*%
D14*
%TO.P,C1,1*%
%TO.N,Net-(D1-K)*%
X139500000Y-71637500D03*
%TO.P,C1,2*%
%TO.N,Net-(U7-CB)*%
X139500000Y-69562500D03*
%TD*%
D12*
%TO.P,C11,1*%
%TO.N,GND*%
X133612500Y-69950000D03*
%TO.P,C11,2*%
%TO.N,+3.3V*%
X131537500Y-69950000D03*
%TD*%
%TO.P,C5,1*%
%TO.N,Net-(U1-AIN)*%
X102037500Y-78000000D03*
%TO.P,C5,2*%
%TO.N,GND*%
X99962500Y-78000000D03*
%TD*%
D17*
%TO.P,U3,1,GPIO2_A0_D0*%
%TO.N,/EN*%
X112775000Y-79950000D03*
D18*
%TO.P,U3,2,GPIO3_A1_D1*%
%TO.N,unconnected-(U3-GPIO3_A1_D1-Pad2)*%
X112775000Y-77410000D03*
%TO.P,U3,3,GPIO4_A2_D2*%
%TO.N,unconnected-(U3-GPIO4_A2_D2-Pad3)*%
X112775000Y-74870000D03*
%TO.P,U3,4,GPIO5_A3_D3*%
%TO.N,unconnected-(U3-GPIO5_A3_D3-Pad4)*%
X112775000Y-72330000D03*
%TO.P,U3,5,GPIO6_SDA_D4*%
%TO.N,/SDAB*%
X112775000Y-69790000D03*
%TO.P,U3,6,GPIO7_SCL_D5*%
%TO.N,/SCLB*%
X112775000Y-67250000D03*
%TO.P,U3,7,GPIO21_TX_D6*%
%TO.N,Net-(U3-GPIO21_TX_D6)*%
X112775000Y-64710000D03*
%TO.P,U3,8,5V*%
%TO.N,unconnected-(U3-5V-Pad8)*%
X128675000Y-64710000D03*
%TO.P,U3,9,GND*%
%TO.N,GND*%
X128675000Y-67250000D03*
%TO.P,U3,10,3.3V*%
%TO.N,+3.3V*%
X128675000Y-69790000D03*
%TO.P,U3,11,D10_MOSI_D10*%
%TO.N,unconnected-(U3-D10_MOSI_D10-Pad11)*%
X128675000Y-72330000D03*
%TO.P,U3,12,D9_MISO_GPIO9*%
%TO.N,unconnected-(U3-D9_MISO_GPIO9-Pad12)*%
X128675000Y-74870000D03*
%TO.P,U3,13,D8_SCK_GPIO8*%
%TO.N,unconnected-(U3-D8_SCK_GPIO8-Pad13)*%
X128640232Y-77410000D03*
%TO.P,U3,14,D7_RX_GPIO20*%
%TO.N,/RXD*%
X128675000Y-79950000D03*
%TD*%
D19*
%TO.P,U7,1,CB*%
%TO.N,Net-(U7-CB)*%
X142795000Y-70325000D03*
%TO.P,U7,2,NC*%
%TO.N,unconnected-(U7-NC-Pad2)*%
X144065000Y-70325000D03*
%TO.P,U7,3,NC*%
%TO.N,unconnected-(U7-NC-Pad3)*%
X145335000Y-70325000D03*
%TO.P,U7,4,FB*%
%TO.N,+5V*%
X146605000Y-70325000D03*
%TO.P,U7,5,ON/~{OFF}*%
%TO.N,unconnected-(U7-ON{slash}~{OFF}-Pad5)*%
X146605000Y-75275000D03*
%TO.P,U7,6,GND*%
%TO.N,GND*%
X145335000Y-75275000D03*
%TO.P,U7,7,VIN*%
%TO.N,+12V*%
X144065000Y-75275000D03*
%TO.P,U7,8,VSW*%
%TO.N,Net-(D1-K)*%
X142795000Y-75275000D03*
%TD*%
D12*
%TO.P,C6,1*%
%TO.N,GND*%
X106537500Y-82600000D03*
%TO.P,C6,2*%
%TO.N,+5VA*%
X104462500Y-82600000D03*
%TD*%
D16*
%TO.P,C15,1*%
%TO.N,+5V*%
X104462500Y-86200000D03*
%TO.P,C15,2*%
%TO.N,GND*%
X106537500Y-86200000D03*
%TD*%
D20*
%TO.P,U1,1,VDD*%
%TO.N,+5VA*%
X103962500Y-79550000D03*
%TO.P,U1,2,VSS*%
%TO.N,GND*%
X103962500Y-78600000D03*
%TO.P,U1,3,AIN*%
%TO.N,Net-(U1-AIN)*%
X103962500Y-77650000D03*
%TO.P,U1,4,SCL*%
%TO.N,/SCLA*%
X106237500Y-77650000D03*
%TO.P,U1,5,SDA*%
%TO.N,/SDAA*%
X106237500Y-79550000D03*
%TD*%
D16*
%TO.P,R6,1*%
%TO.N,/TXD*%
X107937500Y-62950000D03*
%TO.P,R6,2*%
%TO.N,Net-(U3-GPIO21_TX_D6)*%
X110012500Y-62950000D03*
%TD*%
D21*
%TO.P,R4,1*%
%TO.N,/SCLA*%
X108300000Y-77362500D03*
%TO.P,R4,2*%
%TO.N,+5VA*%
X108300000Y-79437500D03*
%TD*%
D22*
%TO.N,Net-(D1-K)*%
X139300000Y-73700000D03*
%TO.N,+5V*%
X115560099Y-82537005D03*
X147800000Y-70300000D03*
X131300000Y-67500000D03*
X140400000Y-81100000D03*
X139800000Y-67100000D03*
X134400000Y-84000000D03*
X137500000Y-70000000D03*
X114253009Y-79062995D03*
X137400000Y-78500000D03*
X140200000Y-84000000D03*
X98700000Y-84800000D03*
X135500000Y-67100000D03*
X95600000Y-85200000D03*
X137400000Y-84000000D03*
X109600000Y-72000000D03*
X137500000Y-64300000D03*
X131100000Y-83200000D03*
X115600000Y-76900000D03*
X133100000Y-66100000D03*
X108500000Y-64500000D03*
%TO.N,GND*%
X147000000Y-72200000D03*
X104000000Y-73700000D03*
X130700000Y-74600000D03*
X122100000Y-76500000D03*
X130700000Y-80900000D03*
X135000004Y-70000000D03*
X121600000Y-64000000D03*
X132900000Y-77700000D03*
X114600000Y-75000000D03*
X105500000Y-84400000D03*
X133900000Y-72100000D03*
X110506385Y-84906387D03*
X136399660Y-71826139D03*
X118800000Y-75300000D03*
X100036951Y-84075000D03*
X104000000Y-76500000D03*
X144400000Y-68600000D03*
X98300000Y-75600000D03*
X126800000Y-68425500D03*
X100100000Y-73700000D03*
X126318719Y-77381281D03*
X106048390Y-68502508D03*
X106000000Y-74100000D03*
X114300000Y-84400000D03*
X146300000Y-77100000D03*
X141300000Y-72300000D03*
X106500000Y-64200000D03*
%TO.N,+3.3V*%
X125400000Y-83000000D03*
X118950000Y-77950000D03*
X123800000Y-78200000D03*
X131125500Y-71800000D03*
X127075500Y-75150528D03*
X121400000Y-80500000D03*
X133000006Y-74000000D03*
X127200000Y-71200000D03*
X125485133Y-69074444D03*
%TO.N,+12V*%
X142700000Y-77000000D03*
%TO.N,/SCLA*%
X111077051Y-81312561D03*
%TO.N,/SDAA*%
X112700000Y-83200000D03*
%TO.N,/SCLB*%
X118191691Y-72066385D03*
%TO.N,/SDAB*%
X118300000Y-81444500D03*
%TO.N,Net-(U6-CANH)*%
X107200000Y-71300000D03*
%TO.N,Net-(U6-CANL)*%
X108300000Y-67300000D03*
%TD*%
D23*
%TO.N,/SDAA*%
X112700000Y-81910911D02*
X112700000Y-83200000D01*
X111450000Y-80660911D02*
X112700000Y-81910911D01*
X111450000Y-78757307D02*
X111450000Y-80660911D01*
X111000000Y-78307307D02*
X111450000Y-78757307D01*
X111000000Y-77400000D02*
X111000000Y-78307307D01*
X109900000Y-76300000D02*
X111000000Y-77400000D01*
X105948896Y-76300000D02*
X109900000Y-76300000D01*
X105250000Y-76998896D02*
X105948896Y-76300000D01*
X105250000Y-78562500D02*
X105250000Y-76998896D01*
X111188173Y-83200000D02*
X112700000Y-83200000D01*
X109200000Y-85188173D02*
X111188173Y-83200000D01*
X109200000Y-85637500D02*
X109200000Y-85188173D01*
X106237500Y-79550000D02*
X105250000Y-78562500D01*
%TO.N,GND*%
X106887500Y-86550000D02*
X106537500Y-86200000D01*
X109913173Y-86550000D02*
X106887500Y-86550000D01*
X110506385Y-85956788D02*
X109913173Y-86550000D01*
X110506385Y-84906387D02*
X110506385Y-85956788D01*
X103778249Y-76500000D02*
X104000000Y-76500000D01*
X102975000Y-78075000D02*
X102975000Y-77303249D01*
X103500000Y-78600000D02*
X102975000Y-78075000D01*
X103962500Y-78600000D02*
X103500000Y-78600000D01*
X102975000Y-77303249D02*
X103778249Y-76500000D01*
%TO.N,Net-(D1-K)*%
X139500000Y-71980000D02*
X139500000Y-71637500D01*
X139300000Y-73700000D02*
X139300000Y-71837500D01*
X139300000Y-71837500D02*
X139500000Y-71637500D01*
X142795000Y-75275000D02*
X139500000Y-71980000D01*
%TO.N,Net-(U7-CB)*%
X142032500Y-69562500D02*
X142795000Y-70325000D01*
X139500000Y-69562500D02*
X142032500Y-69562500D01*
%TO.N,+5V*%
X147775000Y-70325000D02*
X147800000Y-70300000D01*
X104700000Y-67715000D02*
X105076751Y-67715000D01*
X98700000Y-84800000D02*
X101125000Y-84800000D01*
X107861701Y-64500000D02*
X108500000Y-64500000D01*
X106586701Y-65775000D02*
X107861701Y-64500000D01*
X105076751Y-67715000D02*
X106586701Y-66205050D01*
X104462500Y-86200000D02*
X96600000Y-86200000D01*
X101125000Y-84800000D02*
X101525000Y-84400000D01*
X109300000Y-72300000D02*
X109600000Y-72000000D01*
X146605000Y-70325000D02*
X147775000Y-70325000D01*
X105337500Y-72300000D02*
X109300000Y-72300000D01*
X106586701Y-66205050D02*
X106586701Y-65775000D01*
X96600000Y-86200000D02*
X95600000Y-85200000D01*
X97175000Y-77525000D02*
X97200000Y-77500000D01*
%TO.N,GND*%
X98300000Y-76100000D02*
X98300000Y-75600000D01*
X99975000Y-82550000D02*
X99975000Y-84013049D01*
X103262500Y-72300000D02*
X101500000Y-72300000D01*
X106537500Y-82600000D02*
X106900000Y-82600000D01*
X133612500Y-69950000D02*
X134950004Y-69950000D01*
X99975000Y-84013049D02*
X100036951Y-84075000D01*
X103962500Y-78600000D02*
X103578249Y-78600000D01*
X99962500Y-78000000D02*
X99962500Y-77762500D01*
X107362500Y-74100000D02*
X106000000Y-74100000D01*
X145335000Y-76135000D02*
X146300000Y-77100000D01*
X99962500Y-77762500D02*
X98300000Y-76100000D01*
X145335000Y-75275000D02*
X145335000Y-76135000D01*
X101500000Y-72300000D02*
X100100000Y-73700000D01*
X106537500Y-82600000D02*
X105500000Y-83637500D01*
X134950004Y-69950000D02*
X135000004Y-70000000D01*
X105500000Y-83637500D02*
X105500000Y-84400000D01*
X104700000Y-68985000D02*
X105565898Y-68985000D01*
X105565898Y-68985000D02*
X106048390Y-68502508D01*
%TO.N,+3.3V*%
X128675000Y-69790000D02*
X126200689Y-69790000D01*
X131537500Y-72537494D02*
X133000006Y-74000000D01*
X126200689Y-69790000D02*
X125485133Y-69074444D01*
X131537500Y-69950000D02*
X131537500Y-72537494D01*
%TO.N,Net-(U1-AIN)*%
X102012500Y-75800000D02*
X102012500Y-77975000D01*
X103262500Y-74550000D02*
X102012500Y-75800000D01*
X102012500Y-77975000D02*
X102037500Y-78000000D01*
X103962500Y-77650000D02*
X105200000Y-76412500D01*
X105200000Y-76412500D02*
X105200000Y-75163604D01*
X105200000Y-75163604D02*
X104586396Y-74550000D01*
X104586396Y-74550000D02*
X103262500Y-74550000D01*
D24*
%TO.N,+12V*%
X144065000Y-75651751D02*
X144065000Y-77000000D01*
X144065000Y-77000000D02*
X142716751Y-77000000D01*
D23*
X142716751Y-77000000D02*
X142700000Y-77000000D01*
X144065000Y-75275000D02*
X144065000Y-75651751D01*
%TO.N,/SCLA*%
X106237500Y-77650000D02*
X108012500Y-77650000D01*
X108012500Y-77650000D02*
X108300000Y-77362500D01*
X111077051Y-81312561D02*
X111000000Y-81235510D01*
X110550000Y-78493703D02*
X110550000Y-78450000D01*
X111000000Y-78943703D02*
X110550000Y-78493703D01*
X110550000Y-78450000D02*
X109462500Y-77362500D01*
X111000000Y-81235510D02*
X111000000Y-78943703D01*
X109462500Y-77362500D02*
X108300000Y-77362500D01*
%TO.N,/RXD*%
X107378249Y-69610000D02*
X108628249Y-68360000D01*
X127862133Y-79950000D02*
X128675000Y-79950000D01*
X113700001Y-68600000D02*
X120800001Y-75700000D01*
X108628249Y-68360000D02*
X110671751Y-68360000D01*
X104700000Y-66445000D02*
X104323249Y-66445000D01*
X123612133Y-75700000D02*
X127862133Y-79950000D01*
X110911751Y-68600000D02*
X113700001Y-68600000D01*
X103678249Y-69610000D02*
X107378249Y-69610000D01*
X120800001Y-75700000D02*
X123612133Y-75700000D01*
X103400000Y-69331751D02*
X103678249Y-69610000D01*
X110671751Y-68360000D02*
X110911751Y-68600000D01*
X103400000Y-67368249D02*
X103400000Y-69331751D01*
X104700000Y-66445000D02*
X105280305Y-66445000D01*
X104323249Y-66445000D02*
X103400000Y-67368249D01*
%TO.N,Net-(U3-GPIO21_TX_D6)*%
X110012500Y-62950000D02*
X111015000Y-62950000D01*
X111015000Y-62950000D02*
X112775000Y-64710000D01*
%TO.N,/EN*%
X110325000Y-73212500D02*
X110325000Y-70930000D01*
X111450000Y-78120911D02*
X111450000Y-76112500D01*
X110325000Y-70930000D02*
X109650000Y-70255000D01*
X112775000Y-79950000D02*
X112775000Y-79533458D01*
X111900000Y-78550000D02*
X111879089Y-78550000D01*
X111450000Y-76112500D02*
X109437500Y-74100000D01*
X111879089Y-78550000D02*
X111450000Y-78120911D01*
X112775000Y-79533458D02*
X111900000Y-78658458D01*
X109437500Y-74100000D02*
X110325000Y-73212500D01*
X111900000Y-78658458D02*
X111900000Y-78550000D01*
%TO.N,/SCLB*%
X113375306Y-67250000D02*
X118191691Y-72066385D01*
X112775000Y-67250000D02*
X113375306Y-67250000D01*
%TO.N,/SDAB*%
X112775000Y-69790000D02*
X113315000Y-69250000D01*
X118300000Y-81444500D02*
X117575000Y-80719500D01*
X117575000Y-80719500D02*
X117575000Y-74590000D01*
X117575000Y-74590000D02*
X112775000Y-69790000D01*
%TO.N,Net-(U6-CANH)*%
X109273249Y-68985000D02*
X107200000Y-71058249D01*
X109650000Y-68985000D02*
X109273249Y-68985000D01*
X107200000Y-71058249D02*
X107200000Y-71300000D01*
%TO.N,Net-(U6-CANL)*%
X108715000Y-67715000D02*
X108300000Y-67300000D01*
X109650000Y-67715000D02*
X108715000Y-67715000D01*
%TO.N,/TXD*%
X107937500Y-62950000D02*
X106548249Y-62950000D01*
X103686853Y-70255000D02*
X104700000Y-70255000D01*
X106548249Y-62950000D02*
X102950000Y-66548249D01*
X102950000Y-66548249D02*
X102950000Y-69518147D01*
X102950000Y-69518147D02*
X103686853Y-70255000D01*
%TO.N,Net-(J4-Pin_2)*%
X100875000Y-76737500D02*
X100875000Y-78725000D01*
X100875000Y-78725000D02*
X99685000Y-79915000D01*
X99685000Y-79915000D02*
X97325000Y-79915000D01*
X99937500Y-75800000D02*
X100875000Y-76737500D01*
%TD*%
%TA.AperFunction,Conductor*%
%TO.N,+5VA*%
G36*
X109419220Y-78219659D02*
G01*
X109463569Y-78248160D01*
X109969306Y-78753896D01*
X109993504Y-78790732D01*
X109993754Y-78790596D01*
X109995493Y-78793760D01*
X109996915Y-78795924D01*
X109997511Y-78797430D01*
X109997513Y-78797433D01*
X109997514Y-78797435D01*
X110024898Y-78835126D01*
X110028106Y-78840010D01*
X110051827Y-78880119D01*
X110051833Y-78880127D01*
X110065990Y-78894283D01*
X110078628Y-78909079D01*
X110090405Y-78925289D01*
X110090406Y-78925290D01*
X110126309Y-78954991D01*
X110130620Y-78958913D01*
X110215229Y-79043522D01*
X110263681Y-79091974D01*
X110297166Y-79153297D01*
X110300000Y-79179655D01*
X110300000Y-80824226D01*
X110283387Y-80886226D01*
X110249872Y-80944275D01*
X110191378Y-81124301D01*
X110191377Y-81124305D01*
X110171591Y-81312561D01*
X110191377Y-81500817D01*
X110191378Y-81500820D01*
X110249869Y-81680838D01*
X110249871Y-81680842D01*
X110249872Y-81680845D01*
X110271094Y-81717602D01*
X110283387Y-81738895D01*
X110299999Y-81800894D01*
X110300000Y-82507134D01*
X110280316Y-82574173D01*
X110227512Y-82619928D01*
X110158353Y-82629872D01*
X110110904Y-82612673D01*
X109994128Y-82540645D01*
X109994119Y-82540641D01*
X109827697Y-82485494D01*
X109827690Y-82485493D01*
X109724986Y-82475000D01*
X109450000Y-82475000D01*
X109450000Y-83688500D01*
X109430315Y-83755539D01*
X109377511Y-83801294D01*
X109326000Y-83812500D01*
X107975001Y-83812500D01*
X107975001Y-83949986D01*
X107985494Y-84052697D01*
X108040641Y-84219119D01*
X108040643Y-84219124D01*
X108132684Y-84368345D01*
X108256655Y-84492316D01*
X108256659Y-84492319D01*
X108259656Y-84494168D01*
X108261279Y-84495972D01*
X108262323Y-84496798D01*
X108262181Y-84496976D01*
X108306381Y-84546116D01*
X108317602Y-84615079D01*
X108289759Y-84679161D01*
X108259661Y-84705241D01*
X108256349Y-84707283D01*
X108256343Y-84707288D01*
X108132289Y-84831342D01*
X108040187Y-84980663D01*
X108040185Y-84980668D01*
X108020463Y-85040185D01*
X107985001Y-85147203D01*
X107985001Y-85147204D01*
X107985000Y-85147204D01*
X107974500Y-85249983D01*
X107974500Y-85249991D01*
X107974500Y-85574500D01*
X107974501Y-85800500D01*
X107954817Y-85867539D01*
X107902013Y-85913294D01*
X107850501Y-85924500D01*
X107749499Y-85924500D01*
X107682460Y-85904815D01*
X107636705Y-85852011D01*
X107625499Y-85800500D01*
X107625499Y-85674998D01*
X107625498Y-85674981D01*
X107614999Y-85572203D01*
X107614998Y-85572200D01*
X107593014Y-85505858D01*
X107559814Y-85405666D01*
X107467712Y-85256344D01*
X107343656Y-85132288D01*
X107194334Y-85040186D01*
X107027797Y-84985001D01*
X107027795Y-84985000D01*
X106925016Y-84974500D01*
X106925009Y-84974500D01*
X106422894Y-84974500D01*
X106355855Y-84954815D01*
X106310100Y-84902011D01*
X106300156Y-84832853D01*
X106315507Y-84788500D01*
X106327179Y-84768284D01*
X106385674Y-84588256D01*
X106405460Y-84400000D01*
X106385674Y-84211744D01*
X106327179Y-84031716D01*
X106315506Y-84011497D01*
X106299035Y-83943597D01*
X106321888Y-83877570D01*
X106376810Y-83834381D01*
X106422894Y-83825499D01*
X106925002Y-83825499D01*
X106925008Y-83825499D01*
X107027797Y-83814999D01*
X107194334Y-83759814D01*
X107343656Y-83667712D01*
X107467712Y-83543656D01*
X107559814Y-83394334D01*
X107586931Y-83312500D01*
X107975000Y-83312500D01*
X108950000Y-83312500D01*
X108950000Y-82475000D01*
X108675029Y-82475000D01*
X108675012Y-82475001D01*
X108572302Y-82485494D01*
X108405880Y-82540641D01*
X108405875Y-82540643D01*
X108256654Y-82632684D01*
X108132684Y-82756654D01*
X108040643Y-82905875D01*
X108040641Y-82905880D01*
X107985494Y-83072302D01*
X107985493Y-83072309D01*
X107975000Y-83175013D01*
X107975000Y-83312500D01*
X107586931Y-83312500D01*
X107614999Y-83227797D01*
X107625500Y-83125009D01*
X107625499Y-82074992D01*
X107614999Y-81972203D01*
X107559814Y-81805666D01*
X107467712Y-81656344D01*
X107343656Y-81532288D01*
X107235688Y-81465693D01*
X107194336Y-81440187D01*
X107194331Y-81440185D01*
X107192862Y-81439698D01*
X107027797Y-81385001D01*
X107027795Y-81385000D01*
X106925010Y-81374500D01*
X106149998Y-81374500D01*
X106149980Y-81374501D01*
X106047203Y-81385000D01*
X106047200Y-81385001D01*
X105880668Y-81440185D01*
X105880663Y-81440187D01*
X105731342Y-81532289D01*
X105607288Y-81656343D01*
X105607283Y-81656349D01*
X105605241Y-81659661D01*
X105603247Y-81661453D01*
X105602807Y-81662011D01*
X105602711Y-81661935D01*
X105553291Y-81706383D01*
X105484328Y-81717602D01*
X105420247Y-81689755D01*
X105394168Y-81659656D01*
X105392319Y-81656659D01*
X105392316Y-81656655D01*
X105268345Y-81532684D01*
X105119124Y-81440643D01*
X105119119Y-81440641D01*
X104952697Y-81385494D01*
X104952690Y-81385493D01*
X104849986Y-81375000D01*
X104712500Y-81375000D01*
X104712500Y-83838942D01*
X104729213Y-83869550D01*
X104724229Y-83939242D01*
X104715434Y-83957908D01*
X104672821Y-84031715D01*
X104672818Y-84031722D01*
X104614327Y-84211740D01*
X104614326Y-84211744D01*
X104594540Y-84400000D01*
X104614326Y-84588256D01*
X104614327Y-84588259D01*
X104672818Y-84768277D01*
X104672821Y-84768284D01*
X104684493Y-84788500D01*
X104700966Y-84856400D01*
X104678113Y-84922427D01*
X104623192Y-84965618D01*
X104577106Y-84974500D01*
X104127959Y-84974500D01*
X104060920Y-84954815D01*
X104015165Y-84902011D01*
X104005221Y-84832853D01*
X104010254Y-84811493D01*
X104014856Y-84797606D01*
X104024999Y-84698322D01*
X104025000Y-84698309D01*
X104025000Y-84650000D01*
X102949000Y-84650000D01*
X102881961Y-84630315D01*
X102836206Y-84577511D01*
X102825000Y-84526000D01*
X102825000Y-84150000D01*
X103325000Y-84150000D01*
X104024999Y-84150000D01*
X104024999Y-84101692D01*
X104024998Y-84101677D01*
X104014855Y-84002393D01*
X104010088Y-83988006D01*
X104007685Y-83918178D01*
X104043415Y-83858135D01*
X104105934Y-83826941D01*
X104127793Y-83824999D01*
X104212499Y-83824999D01*
X104212500Y-83824998D01*
X104212500Y-82850000D01*
X103375001Y-82850000D01*
X103375001Y-83124986D01*
X103385493Y-83227695D01*
X103396860Y-83261995D01*
X103399262Y-83331823D01*
X103363531Y-83391866D01*
X103352760Y-83397239D01*
X103325000Y-83424999D01*
X103325000Y-84150000D01*
X102825000Y-84150000D01*
X102825000Y-83509000D01*
X102844685Y-83441961D01*
X102897489Y-83396206D01*
X102924655Y-83390296D01*
X102934144Y-83384999D01*
X102959353Y-83344130D01*
X102959358Y-83344119D01*
X103014505Y-83177697D01*
X103014506Y-83177690D01*
X103024999Y-83074986D01*
X103025000Y-83074973D01*
X103025000Y-82800000D01*
X101811500Y-82800000D01*
X101744461Y-82780315D01*
X101698706Y-82727511D01*
X101687500Y-82676000D01*
X101687500Y-82350000D01*
X103375000Y-82350000D01*
X104212500Y-82350000D01*
X104212500Y-81375000D01*
X104075027Y-81375000D01*
X104075012Y-81375001D01*
X103972302Y-81385494D01*
X103805880Y-81440641D01*
X103805875Y-81440643D01*
X103656654Y-81532684D01*
X103532684Y-81656654D01*
X103440643Y-81805875D01*
X103440641Y-81805880D01*
X103385494Y-81972302D01*
X103385493Y-81972309D01*
X103375000Y-82075013D01*
X103375000Y-82350000D01*
X101687500Y-82350000D01*
X101687500Y-81325000D01*
X102187500Y-81325000D01*
X102187500Y-82300000D01*
X103024999Y-82300000D01*
X103024999Y-82025028D01*
X103024998Y-82025013D01*
X103014505Y-81922302D01*
X102959358Y-81755880D01*
X102959356Y-81755875D01*
X102867315Y-81606654D01*
X102743345Y-81482684D01*
X102594124Y-81390643D01*
X102594119Y-81390641D01*
X102427697Y-81335494D01*
X102427690Y-81335493D01*
X102324986Y-81325000D01*
X102187500Y-81325000D01*
X101687500Y-81325000D01*
X101550027Y-81325000D01*
X101550012Y-81325001D01*
X101447302Y-81335494D01*
X101280880Y-81390641D01*
X101280871Y-81390645D01*
X101189096Y-81447253D01*
X101121704Y-81465693D01*
X101055040Y-81444770D01*
X101010271Y-81391128D01*
X101000000Y-81341714D01*
X101000000Y-79800001D01*
X102802704Y-79800001D01*
X102802899Y-79802486D01*
X102848718Y-79960198D01*
X102932314Y-80101552D01*
X102932321Y-80101561D01*
X103048438Y-80217678D01*
X103048447Y-80217685D01*
X103189803Y-80301282D01*
X103189806Y-80301283D01*
X103347504Y-80347099D01*
X103347510Y-80347100D01*
X103384356Y-80350000D01*
X103712500Y-80350000D01*
X103712500Y-79800000D01*
X102802705Y-79800000D01*
X102802704Y-79800001D01*
X101000000Y-79800001D01*
X101000000Y-79535952D01*
X101019685Y-79468913D01*
X101036319Y-79448271D01*
X101132846Y-79351744D01*
X101258788Y-79225801D01*
X101271042Y-79215986D01*
X101270859Y-79215764D01*
X101276870Y-79210790D01*
X101276877Y-79210786D01*
X101283798Y-79203415D01*
X101344033Y-79168021D01*
X101413191Y-79170591D01*
X101547203Y-79214999D01*
X101649991Y-79225500D01*
X102425008Y-79225499D01*
X102425016Y-79225498D01*
X102425019Y-79225498D01*
X102502207Y-79217613D01*
X102527797Y-79214999D01*
X102639664Y-79177929D01*
X102709487Y-79175528D01*
X102769529Y-79211259D01*
X102800722Y-79273779D01*
X102801978Y-79299213D01*
X102802705Y-79300000D01*
X103068185Y-79300000D01*
X103131306Y-79317268D01*
X103189602Y-79351744D01*
X103231224Y-79363836D01*
X103347426Y-79397597D01*
X103347429Y-79397597D01*
X103347431Y-79397598D01*
X103359722Y-79398565D01*
X103384304Y-79400500D01*
X104088500Y-79400500D01*
X104155539Y-79420185D01*
X104201294Y-79472989D01*
X104212500Y-79524500D01*
X104212500Y-80350000D01*
X104540644Y-80350000D01*
X104577489Y-80347100D01*
X104577495Y-80347099D01*
X104735193Y-80301283D01*
X104735196Y-80301282D01*
X104876552Y-80217685D01*
X104876561Y-80217678D01*
X104992678Y-80101561D01*
X104992680Y-80101558D01*
X104992972Y-80101066D01*
X104993301Y-80100758D01*
X104997463Y-80095393D01*
X104998328Y-80096064D01*
X105044038Y-80053379D01*
X105112778Y-80040870D01*
X105177370Y-80067510D01*
X105201936Y-80095858D01*
X105202139Y-80095702D01*
X105205022Y-80099420D01*
X105206438Y-80101053D01*
X105206914Y-80101859D01*
X105206923Y-80101870D01*
X105323129Y-80218076D01*
X105323133Y-80218079D01*
X105323135Y-80218081D01*
X105464602Y-80301744D01*
X105506224Y-80313836D01*
X105622426Y-80347597D01*
X105622429Y-80347597D01*
X105622431Y-80347598D01*
X105634722Y-80348565D01*
X105659304Y-80350500D01*
X105659306Y-80350500D01*
X106815696Y-80350500D01*
X106834131Y-80349049D01*
X106852569Y-80347598D01*
X106852571Y-80347597D01*
X106852573Y-80347597D01*
X106894191Y-80335505D01*
X107010398Y-80301744D01*
X107103985Y-80246396D01*
X107171709Y-80229214D01*
X107237972Y-80251374D01*
X107254787Y-80265448D01*
X107356654Y-80367315D01*
X107505875Y-80459356D01*
X107505880Y-80459358D01*
X107672302Y-80514505D01*
X107672309Y-80514506D01*
X107775019Y-80524999D01*
X108049999Y-80524999D01*
X108049999Y-80524998D01*
X108050000Y-79687500D01*
X108550000Y-79687500D01*
X108550000Y-80524999D01*
X108824972Y-80524999D01*
X108824986Y-80524998D01*
X108927697Y-80514505D01*
X109094119Y-80459358D01*
X109094124Y-80459356D01*
X109243345Y-80367315D01*
X109367315Y-80243345D01*
X109459356Y-80094124D01*
X109459358Y-80094119D01*
X109514505Y-79927697D01*
X109514506Y-79927690D01*
X109524999Y-79824986D01*
X109525000Y-79824973D01*
X109525000Y-79687500D01*
X108550000Y-79687500D01*
X108050000Y-79687500D01*
X108050000Y-79311500D01*
X108069685Y-79244461D01*
X108122489Y-79198706D01*
X108174000Y-79187500D01*
X109524999Y-79187500D01*
X109524999Y-79050028D01*
X109524998Y-79050013D01*
X109514505Y-78947302D01*
X109459358Y-78780880D01*
X109459356Y-78780875D01*
X109367315Y-78631654D01*
X109243344Y-78507683D01*
X109243341Y-78507681D01*
X109240339Y-78505829D01*
X109238713Y-78504021D01*
X109237677Y-78503202D01*
X109237817Y-78503024D01*
X109193617Y-78453880D01*
X109182397Y-78384917D01*
X109210243Y-78320836D01*
X109240344Y-78294754D01*
X109243656Y-78292712D01*
X109288208Y-78248159D01*
X109349529Y-78214675D01*
X109419220Y-78219659D01*
G37*
%TD.AperFunction*%
%TD*%
%TA.AperFunction,Conductor*%
%TO.N,GND*%
G36*
X156400455Y-61357182D02*
G01*
X156432254Y-61362817D01*
X156556749Y-61386363D01*
X156574612Y-61391146D01*
X156638478Y-61413476D01*
X156732896Y-61450191D01*
X156739985Y-61453478D01*
X156807461Y-61490103D01*
X156810525Y-61491882D01*
X156891236Y-61541903D01*
X156896493Y-61545550D01*
X156917631Y-61561897D01*
X156958497Y-61593500D01*
X156962320Y-61596710D01*
X157031721Y-61659922D01*
X157035271Y-61663426D01*
X157088674Y-61720568D01*
X157092808Y-61725478D01*
X157150388Y-61801522D01*
X157152456Y-61804423D01*
X157194895Y-61867721D01*
X157198843Y-61874499D01*
X157244720Y-61966137D01*
X157272377Y-62026495D01*
X157278811Y-62043856D01*
X157315135Y-62170080D01*
X157320927Y-62191116D01*
X157325377Y-62224064D01*
X157319722Y-86403835D01*
X157317820Y-86425444D01*
X157312188Y-86457223D01*
X157288637Y-86581740D01*
X157283850Y-86599618D01*
X157261525Y-86663476D01*
X157255580Y-86678765D01*
X157224814Y-86757879D01*
X157221517Y-86764992D01*
X157184901Y-86832450D01*
X157183110Y-86835534D01*
X157133100Y-86916228D01*
X157129443Y-86921499D01*
X157081498Y-86983497D01*
X157078288Y-86987320D01*
X157015076Y-87056721D01*
X157011572Y-87060271D01*
X156954430Y-87113674D01*
X156949520Y-87117808D01*
X156873476Y-87175388D01*
X156870576Y-87177456D01*
X156807278Y-87219895D01*
X156800500Y-87223843D01*
X156708863Y-87269720D01*
X156667382Y-87288728D01*
X156615725Y-87300000D01*
X110424000Y-87300000D01*
X110356961Y-87280315D01*
X110311206Y-87227511D01*
X110300000Y-87176000D01*
X110300000Y-86426474D01*
X110318460Y-86361379D01*
X110359814Y-86294334D01*
X110414999Y-86127797D01*
X110425500Y-86025009D01*
X110425499Y-85249992D01*
X110414999Y-85147203D01*
X110367016Y-85002403D01*
X110364615Y-84932576D01*
X110397040Y-84875721D01*
X111410944Y-83861819D01*
X111472268Y-83828334D01*
X111498626Y-83825500D01*
X111996252Y-83825500D01*
X112063291Y-83845185D01*
X112088400Y-83866526D01*
X112094126Y-83872885D01*
X112094130Y-83872889D01*
X112247265Y-83984148D01*
X112247270Y-83984151D01*
X112420192Y-84061142D01*
X112420197Y-84061144D01*
X112605354Y-84100500D01*
X112605355Y-84100500D01*
X112794644Y-84100500D01*
X112794646Y-84100500D01*
X112979803Y-84061144D01*
X113152730Y-83984151D01*
X113305871Y-83872888D01*
X113432533Y-83732216D01*
X113527179Y-83568284D01*
X113585674Y-83388256D01*
X113605460Y-83200000D01*
X113585674Y-83011744D01*
X113527179Y-82831716D01*
X113432533Y-82667784D01*
X113400063Y-82631722D01*
X113357350Y-82584284D01*
X113334661Y-82537005D01*
X114654639Y-82537005D01*
X114674425Y-82725261D01*
X114674426Y-82725264D01*
X114732917Y-82905282D01*
X114732920Y-82905289D01*
X114827566Y-83069221D01*
X114890265Y-83138855D01*
X114954228Y-83209893D01*
X115107364Y-83321153D01*
X115107369Y-83321156D01*
X115280291Y-83398147D01*
X115280296Y-83398149D01*
X115465453Y-83437505D01*
X115465454Y-83437505D01*
X115654743Y-83437505D01*
X115654745Y-83437505D01*
X115839902Y-83398149D01*
X116012829Y-83321156D01*
X116165970Y-83209893D01*
X116292632Y-83069221D01*
X116332597Y-83000000D01*
X124494540Y-83000000D01*
X124514326Y-83188256D01*
X124514327Y-83188259D01*
X124572818Y-83368277D01*
X124572821Y-83368284D01*
X124667467Y-83532216D01*
X124794128Y-83672887D01*
X124794129Y-83672888D01*
X124947265Y-83784148D01*
X124947270Y-83784151D01*
X125120192Y-83861142D01*
X125120197Y-83861144D01*
X125305354Y-83900500D01*
X125305355Y-83900500D01*
X125494644Y-83900500D01*
X125494646Y-83900500D01*
X125679803Y-83861144D01*
X125852730Y-83784151D01*
X126005871Y-83672888D01*
X126132533Y-83532216D01*
X126227179Y-83368284D01*
X126281858Y-83200000D01*
X130194540Y-83200000D01*
X130214326Y-83388256D01*
X130214327Y-83388259D01*
X130272818Y-83568277D01*
X130272821Y-83568284D01*
X130367467Y-83732216D01*
X130465690Y-83841303D01*
X130494129Y-83872888D01*
X130647265Y-83984148D01*
X130647270Y-83984151D01*
X130820192Y-84061142D01*
X130820197Y-84061144D01*
X131005354Y-84100500D01*
X131005355Y-84100500D01*
X131194644Y-84100500D01*
X131194646Y-84100500D01*
X131379803Y-84061144D01*
X131517133Y-84000000D01*
X133494540Y-84000000D01*
X133514326Y-84188256D01*
X133514327Y-84188259D01*
X133572818Y-84368277D01*
X133572821Y-84368284D01*
X133667467Y-84532216D01*
X133739071Y-84611740D01*
X133794129Y-84672888D01*
X133947265Y-84784148D01*
X133947270Y-84784151D01*
X134120192Y-84861142D01*
X134120197Y-84861144D01*
X134305354Y-84900500D01*
X134305355Y-84900500D01*
X134494644Y-84900500D01*
X134494646Y-84900500D01*
X134679803Y-84861144D01*
X134852730Y-84784151D01*
X135005871Y-84672888D01*
X135132533Y-84532216D01*
X135227179Y-84368284D01*
X135285674Y-84188256D01*
X135305460Y-84000000D01*
X136494540Y-84000000D01*
X136514326Y-84188256D01*
X136514327Y-84188259D01*
X136572818Y-84368277D01*
X136572821Y-84368284D01*
X136667467Y-84532216D01*
X136739071Y-84611740D01*
X136794129Y-84672888D01*
X136947265Y-84784148D01*
X136947270Y-84784151D01*
X137120192Y-84861142D01*
X137120197Y-84861144D01*
X137305354Y-84900500D01*
X137305355Y-84900500D01*
X137494644Y-84900500D01*
X137494646Y-84900500D01*
X137679803Y-84861144D01*
X137852730Y-84784151D01*
X138005871Y-84672888D01*
X138132533Y-84532216D01*
X138227179Y-84368284D01*
X138285674Y-84188256D01*
X138305460Y-84000000D01*
X139294540Y-84000000D01*
X139314326Y-84188256D01*
X139314327Y-84188259D01*
X139372818Y-84368277D01*
X139372821Y-84368284D01*
X139467467Y-84532216D01*
X139539071Y-84611740D01*
X139594129Y-84672888D01*
X139747265Y-84784148D01*
X139747270Y-84784151D01*
X139920192Y-84861142D01*
X139920197Y-84861144D01*
X140105354Y-84900500D01*
X140105355Y-84900500D01*
X140294644Y-84900500D01*
X140294646Y-84900500D01*
X140479803Y-84861144D01*
X140652730Y-84784151D01*
X140805871Y-84672888D01*
X140932533Y-84532216D01*
X141027179Y-84368284D01*
X141085674Y-84188256D01*
X141105460Y-84000000D01*
X141085674Y-83811744D01*
X141027179Y-83631716D01*
X140932533Y-83467784D01*
X140805871Y-83327112D01*
X140805870Y-83327111D01*
X140652734Y-83215851D01*
X140652729Y-83215848D01*
X140479807Y-83138857D01*
X140479802Y-83138855D01*
X140334001Y-83107865D01*
X140294646Y-83099500D01*
X140105354Y-83099500D01*
X140072897Y-83106398D01*
X139920197Y-83138855D01*
X139920192Y-83138857D01*
X139747270Y-83215848D01*
X139747265Y-83215851D01*
X139594129Y-83327111D01*
X139467466Y-83467785D01*
X139372821Y-83631715D01*
X139372818Y-83631722D01*
X139314327Y-83811740D01*
X139314326Y-83811744D01*
X139294540Y-84000000D01*
X138305460Y-84000000D01*
X138285674Y-83811744D01*
X138227179Y-83631716D01*
X138132533Y-83467784D01*
X138005871Y-83327112D01*
X138005870Y-83327111D01*
X137852734Y-83215851D01*
X137852729Y-83215848D01*
X137679807Y-83138857D01*
X137679802Y-83138855D01*
X137534000Y-83107865D01*
X137494646Y-83099500D01*
X137305354Y-83099500D01*
X137272897Y-83106398D01*
X137120197Y-83138855D01*
X137120192Y-83138857D01*
X136947270Y-83215848D01*
X136947265Y-83215851D01*
X136794129Y-83327111D01*
X136667466Y-83467785D01*
X136572821Y-83631715D01*
X136572818Y-83631722D01*
X136514327Y-83811740D01*
X136514326Y-83811744D01*
X136494540Y-84000000D01*
X135305460Y-84000000D01*
X135285674Y-83811744D01*
X135227179Y-83631716D01*
X135132533Y-83467784D01*
X135005871Y-83327112D01*
X135005870Y-83327111D01*
X134852734Y-83215851D01*
X134852729Y-83215848D01*
X134679807Y-83138857D01*
X134679802Y-83138855D01*
X134534001Y-83107865D01*
X134494646Y-83099500D01*
X134305354Y-83099500D01*
X134272897Y-83106398D01*
X134120197Y-83138855D01*
X134120192Y-83138857D01*
X133947270Y-83215848D01*
X133947265Y-83215851D01*
X133794129Y-83327111D01*
X133667466Y-83467785D01*
X133572821Y-83631715D01*
X133572818Y-83631722D01*
X133514327Y-83811740D01*
X133514326Y-83811744D01*
X133494540Y-84000000D01*
X131517133Y-84000000D01*
X131552730Y-83984151D01*
X131705871Y-83872888D01*
X131832533Y-83732216D01*
X131927179Y-83568284D01*
X131985674Y-83388256D01*
X132005460Y-83200000D01*
X131985674Y-83011744D01*
X131927179Y-82831716D01*
X131832533Y-82667784D01*
X131705871Y-82527112D01*
X131699694Y-82522624D01*
X131552734Y-82415851D01*
X131552729Y-82415848D01*
X131379807Y-82338857D01*
X131379802Y-82338855D01*
X131197012Y-82300003D01*
X131194646Y-82299500D01*
X131005354Y-82299500D01*
X131002988Y-82300003D01*
X130820197Y-82338855D01*
X130820192Y-82338857D01*
X130647270Y-82415848D01*
X130647265Y-82415851D01*
X130494129Y-82527111D01*
X130367466Y-82667785D01*
X130272821Y-82831715D01*
X130272818Y-82831722D01*
X130214327Y-83011740D01*
X130214326Y-83011744D01*
X130194540Y-83200000D01*
X126281858Y-83200000D01*
X126285674Y-83188256D01*
X126305460Y-83000000D01*
X126285674Y-82811744D01*
X126227179Y-82631716D01*
X126132533Y-82467784D01*
X126005871Y-82327112D01*
X125976323Y-82305644D01*
X125852734Y-82215851D01*
X125852729Y-82215848D01*
X125679807Y-82138857D01*
X125679802Y-82138855D01*
X125534000Y-82107865D01*
X125494646Y-82099500D01*
X125305354Y-82099500D01*
X125272897Y-82106398D01*
X125120197Y-82138855D01*
X125120192Y-82138857D01*
X124947270Y-82215848D01*
X124947265Y-82215851D01*
X124794129Y-82327111D01*
X124667466Y-82467785D01*
X124572821Y-82631715D01*
X124572818Y-82631722D01*
X124515260Y-82808869D01*
X124514326Y-82811744D01*
X124503289Y-82916754D01*
X124495129Y-82994400D01*
X124494540Y-83000000D01*
X116332597Y-83000000D01*
X116387278Y-82905289D01*
X116445773Y-82725261D01*
X116465559Y-82537005D01*
X116445773Y-82348749D01*
X116387278Y-82168721D01*
X116292632Y-82004789D01*
X116165970Y-81864117D01*
X116165969Y-81864116D01*
X116012833Y-81752856D01*
X116012828Y-81752853D01*
X115839906Y-81675862D01*
X115839901Y-81675860D01*
X115694099Y-81644870D01*
X115654745Y-81636505D01*
X115465453Y-81636505D01*
X115433569Y-81643282D01*
X115280296Y-81675860D01*
X115280291Y-81675862D01*
X115107369Y-81752853D01*
X115107364Y-81752856D01*
X114954228Y-81864116D01*
X114827565Y-82004790D01*
X114732920Y-82168720D01*
X114732917Y-82168727D01*
X114677639Y-82338856D01*
X114674425Y-82348749D01*
X114654639Y-82537005D01*
X113334661Y-82537005D01*
X113327120Y-82521292D01*
X113325500Y-82501312D01*
X113325500Y-81993653D01*
X113327224Y-81978033D01*
X113326939Y-81978007D01*
X113327671Y-81970251D01*
X113327673Y-81970244D01*
X113325500Y-81901096D01*
X113325500Y-81871561D01*
X113324631Y-81864683D01*
X113324172Y-81858854D01*
X113322709Y-81812283D01*
X113317122Y-81793055D01*
X113313174Y-81773995D01*
X113311767Y-81762852D01*
X113310664Y-81754119D01*
X113310663Y-81754117D01*
X113310663Y-81754115D01*
X113293512Y-81710798D01*
X113291619Y-81705269D01*
X113278618Y-81660520D01*
X113278616Y-81660517D01*
X113268423Y-81643282D01*
X113259861Y-81625805D01*
X113252487Y-81607181D01*
X113252486Y-81607179D01*
X113225079Y-81569456D01*
X113221888Y-81564597D01*
X113198172Y-81524494D01*
X113198165Y-81524485D01*
X113184006Y-81510326D01*
X113171368Y-81495530D01*
X113170256Y-81494000D01*
X113159594Y-81479324D01*
X113159592Y-81479321D01*
X113154957Y-81474386D01*
X113123413Y-81412043D01*
X113130582Y-81342542D01*
X113174188Y-81287950D01*
X113240387Y-81265599D01*
X113245347Y-81265500D01*
X113431057Y-81265500D01*
X113470689Y-81262380D01*
X113510325Y-81259261D01*
X113694691Y-81209861D01*
X113864757Y-81123208D01*
X114013090Y-81003090D01*
X114133208Y-80854757D01*
X114219861Y-80684691D01*
X114269261Y-80500325D01*
X114275500Y-80421054D01*
X114275500Y-80079243D01*
X114295185Y-80012205D01*
X114347989Y-79966450D01*
X114373705Y-79957957D01*
X114532812Y-79924139D01*
X114532816Y-79924137D01*
X114532817Y-79924137D01*
X114607058Y-79891082D01*
X114705739Y-79847146D01*
X114858880Y-79735883D01*
X114985542Y-79595211D01*
X115080188Y-79431279D01*
X115138683Y-79251251D01*
X115158469Y-79062995D01*
X115138683Y-78874739D01*
X115080188Y-78694711D01*
X114985542Y-78530779D01*
X114858880Y-78390107D01*
X114858879Y-78390106D01*
X114705743Y-78278846D01*
X114705738Y-78278843D01*
X114532816Y-78201852D01*
X114532811Y-78201850D01*
X114350046Y-78163003D01*
X114288564Y-78129811D01*
X114254788Y-78068648D01*
X114256051Y-78009622D01*
X114269261Y-77960325D01*
X114275500Y-77881054D01*
X114275500Y-76938946D01*
X114275408Y-76937781D01*
X114272435Y-76900000D01*
X114694540Y-76900000D01*
X114714326Y-77088256D01*
X114714327Y-77088259D01*
X114772818Y-77268277D01*
X114772821Y-77268284D01*
X114867467Y-77432216D01*
X114945153Y-77518495D01*
X114994129Y-77572888D01*
X115147265Y-77684148D01*
X115147270Y-77684151D01*
X115320192Y-77761142D01*
X115320197Y-77761144D01*
X115505354Y-77800500D01*
X115505355Y-77800500D01*
X115694644Y-77800500D01*
X115694646Y-77800500D01*
X115879803Y-77761144D01*
X116052730Y-77684151D01*
X116205871Y-77572888D01*
X116332533Y-77432216D01*
X116427179Y-77268284D01*
X116485674Y-77088256D01*
X116505460Y-76900000D01*
X116485674Y-76711744D01*
X116427179Y-76531716D01*
X116332533Y-76367784D01*
X116205871Y-76227112D01*
X116202158Y-76224414D01*
X116052734Y-76115851D01*
X116052729Y-76115848D01*
X115879807Y-76038857D01*
X115879802Y-76038855D01*
X115718748Y-76004623D01*
X115694646Y-75999500D01*
X115505354Y-75999500D01*
X115481252Y-76004623D01*
X115320197Y-76038855D01*
X115320192Y-76038857D01*
X115147270Y-76115848D01*
X115147265Y-76115851D01*
X114994129Y-76227111D01*
X114867466Y-76367785D01*
X114772821Y-76531715D01*
X114772818Y-76531722D01*
X114717575Y-76701744D01*
X114714326Y-76711744D01*
X114694540Y-76900000D01*
X114272435Y-76900000D01*
X114269948Y-76868399D01*
X114269261Y-76859675D01*
X114219861Y-76675309D01*
X114133208Y-76505243D01*
X114013090Y-76356910D01*
X113864757Y-76236792D01*
X113864754Y-76236790D01*
X113864230Y-76236366D01*
X113824519Y-76178879D01*
X113822191Y-76109048D01*
X113857986Y-76049044D01*
X113864230Y-76043634D01*
X113864754Y-76043209D01*
X113864757Y-76043208D01*
X114013090Y-75923090D01*
X114133208Y-75774757D01*
X114219861Y-75604691D01*
X114269261Y-75420325D01*
X114275500Y-75341054D01*
X114275500Y-74398946D01*
X114269261Y-74319675D01*
X114219861Y-74135309D01*
X114133208Y-73965243D01*
X114013090Y-73816910D01*
X113864757Y-73696792D01*
X113864754Y-73696790D01*
X113864230Y-73696366D01*
X113824519Y-73638879D01*
X113822191Y-73569048D01*
X113857986Y-73509044D01*
X113864230Y-73503634D01*
X113864754Y-73503209D01*
X113864757Y-73503208D01*
X114013090Y-73383090D01*
X114133208Y-73234757D01*
X114219861Y-73064691D01*
X114269261Y-72880325D01*
X114273615Y-72825008D01*
X114275500Y-72801057D01*
X114275500Y-72474452D01*
X114295185Y-72407413D01*
X114347989Y-72361658D01*
X114417147Y-72351714D01*
X114480703Y-72380739D01*
X114487181Y-72386771D01*
X116913181Y-74812771D01*
X116946666Y-74874094D01*
X116949500Y-74900452D01*
X116949500Y-80636755D01*
X116947775Y-80652372D01*
X116948061Y-80652399D01*
X116947326Y-80660165D01*
X116949500Y-80729314D01*
X116949500Y-80758843D01*
X116949501Y-80758860D01*
X116950368Y-80765731D01*
X116950826Y-80771550D01*
X116952290Y-80818124D01*
X116952291Y-80818127D01*
X116957880Y-80837367D01*
X116961824Y-80856411D01*
X116964336Y-80876292D01*
X116978372Y-80911744D01*
X116981490Y-80919619D01*
X116983382Y-80925147D01*
X116996381Y-80969888D01*
X117006580Y-80987134D01*
X117015138Y-81004603D01*
X117022514Y-81023232D01*
X117049898Y-81060923D01*
X117053106Y-81065807D01*
X117076827Y-81105916D01*
X117076833Y-81105924D01*
X117090990Y-81120080D01*
X117103628Y-81134876D01*
X117115405Y-81151086D01*
X117115406Y-81151087D01*
X117151309Y-81180788D01*
X117155632Y-81184722D01*
X117361038Y-81390129D01*
X117394523Y-81451452D01*
X117396678Y-81464848D01*
X117402947Y-81524491D01*
X117414326Y-81632756D01*
X117415544Y-81636505D01*
X117472818Y-81812777D01*
X117472821Y-81812784D01*
X117567467Y-81976716D01*
X117675512Y-82096712D01*
X117694129Y-82117388D01*
X117847265Y-82228648D01*
X117847270Y-82228651D01*
X118020192Y-82305642D01*
X118020197Y-82305644D01*
X118205354Y-82345000D01*
X118205355Y-82345000D01*
X118394644Y-82345000D01*
X118394646Y-82345000D01*
X118579803Y-82305644D01*
X118752730Y-82228651D01*
X118905871Y-82117388D01*
X119032533Y-81976716D01*
X119127179Y-81812784D01*
X119185674Y-81632756D01*
X119205460Y-81444500D01*
X119185674Y-81256244D01*
X119127179Y-81076216D01*
X119032533Y-80912284D01*
X118905871Y-80771612D01*
X118901767Y-80768630D01*
X118752734Y-80660351D01*
X118752729Y-80660348D01*
X118579807Y-80583357D01*
X118579802Y-80583355D01*
X118421707Y-80549752D01*
X118394646Y-80544000D01*
X118394645Y-80544000D01*
X118335453Y-80544000D01*
X118268414Y-80524315D01*
X118247772Y-80507681D01*
X118240091Y-80500000D01*
X120494540Y-80500000D01*
X120514326Y-80688256D01*
X120514327Y-80688259D01*
X120572818Y-80868277D01*
X120572821Y-80868284D01*
X120667467Y-81032216D01*
X120749396Y-81123207D01*
X120794129Y-81172888D01*
X120947265Y-81284148D01*
X120947270Y-81284151D01*
X121120192Y-81361142D01*
X121120197Y-81361144D01*
X121305354Y-81400500D01*
X121305355Y-81400500D01*
X121494644Y-81400500D01*
X121494646Y-81400500D01*
X121679803Y-81361144D01*
X121852730Y-81284151D01*
X122005871Y-81172888D01*
X122132533Y-81032216D01*
X122227179Y-80868284D01*
X122285674Y-80688256D01*
X122305460Y-80500000D01*
X122285674Y-80311744D01*
X122227179Y-80131716D01*
X122132533Y-79967784D01*
X122005871Y-79827112D01*
X121977062Y-79806181D01*
X121852734Y-79715851D01*
X121852729Y-79715848D01*
X121679807Y-79638857D01*
X121679802Y-79638855D01*
X121497012Y-79600003D01*
X121494646Y-79599500D01*
X121305354Y-79599500D01*
X121302988Y-79600003D01*
X121120197Y-79638855D01*
X121120192Y-79638857D01*
X120947270Y-79715848D01*
X120947265Y-79715851D01*
X120794129Y-79827111D01*
X120667466Y-79967785D01*
X120572821Y-80131715D01*
X120572818Y-80131722D01*
X120514327Y-80311740D01*
X120514326Y-80311744D01*
X120494540Y-80500000D01*
X118240091Y-80500000D01*
X118236819Y-80496728D01*
X118203334Y-80435405D01*
X118200500Y-80409047D01*
X118200500Y-78761898D01*
X118220185Y-78694859D01*
X118272989Y-78649104D01*
X118342147Y-78639160D01*
X118397381Y-78661578D01*
X118485363Y-78725500D01*
X118497270Y-78734151D01*
X118670192Y-78811142D01*
X118670197Y-78811144D01*
X118855354Y-78850500D01*
X118855355Y-78850500D01*
X119044644Y-78850500D01*
X119044646Y-78850500D01*
X119229803Y-78811144D01*
X119402730Y-78734151D01*
X119555871Y-78622888D01*
X119682533Y-78482216D01*
X119777179Y-78318284D01*
X119835674Y-78138256D01*
X119855460Y-77950000D01*
X119835674Y-77761744D01*
X119777179Y-77581716D01*
X119682533Y-77417784D01*
X119555871Y-77277112D01*
X119555176Y-77276607D01*
X119402734Y-77165851D01*
X119402729Y-77165848D01*
X119229807Y-77088857D01*
X119229802Y-77088855D01*
X119073377Y-77055607D01*
X119044646Y-77049500D01*
X118855354Y-77049500D01*
X118826623Y-77055607D01*
X118670197Y-77088855D01*
X118670192Y-77088857D01*
X118497270Y-77165848D01*
X118497265Y-77165851D01*
X118397385Y-77238419D01*
X118331579Y-77261899D01*
X118263525Y-77246073D01*
X118214830Y-77195968D01*
X118200500Y-77138101D01*
X118200500Y-74672738D01*
X118202224Y-74657124D01*
X118201938Y-74657097D01*
X118202672Y-74649334D01*
X118200500Y-74580203D01*
X118200500Y-74550651D01*
X118200500Y-74550650D01*
X118199629Y-74543759D01*
X118199172Y-74537945D01*
X118197709Y-74491372D01*
X118192122Y-74472144D01*
X118188174Y-74453084D01*
X118185663Y-74433204D01*
X118168512Y-74389887D01*
X118166619Y-74384358D01*
X118153618Y-74339609D01*
X118153616Y-74339606D01*
X118143423Y-74322371D01*
X118134861Y-74304894D01*
X118127487Y-74286269D01*
X118121772Y-74278404D01*
X118100085Y-74248554D01*
X118096901Y-74243708D01*
X118073170Y-74203580D01*
X118073168Y-74203578D01*
X118072292Y-74202096D01*
X118055112Y-74134371D01*
X118077273Y-74068109D01*
X118131740Y-74024347D01*
X118201220Y-74016979D01*
X118263654Y-74048345D01*
X118266687Y-74051276D01*
X119285250Y-75069840D01*
X120299198Y-76083788D01*
X120309023Y-76096051D01*
X120309244Y-76095869D01*
X120314215Y-76101878D01*
X120330906Y-76117551D01*
X120364636Y-76149226D01*
X120385530Y-76170120D01*
X120391012Y-76174373D01*
X120395444Y-76178157D01*
X120429419Y-76210062D01*
X120446977Y-76219714D01*
X120463236Y-76230395D01*
X120479065Y-76242673D01*
X120521839Y-76261182D01*
X120527057Y-76263738D01*
X120567909Y-76286197D01*
X120587317Y-76291180D01*
X120605718Y-76297480D01*
X120624105Y-76305437D01*
X120667489Y-76312308D01*
X120670120Y-76312725D01*
X120675840Y-76313909D01*
X120720982Y-76325500D01*
X120741017Y-76325500D01*
X120760415Y-76327026D01*
X120780195Y-76330159D01*
X120780196Y-76330160D01*
X120780196Y-76330159D01*
X120780197Y-76330160D01*
X120826584Y-76325775D01*
X120832423Y-76325500D01*
X123301681Y-76325500D01*
X123368720Y-76345185D01*
X123389362Y-76361819D01*
X124147754Y-77120211D01*
X124181239Y-77181534D01*
X124176255Y-77251226D01*
X124134383Y-77307159D01*
X124068919Y-77331576D01*
X124034293Y-77329182D01*
X123894647Y-77299500D01*
X123894646Y-77299500D01*
X123705354Y-77299500D01*
X123672897Y-77306398D01*
X123520197Y-77338855D01*
X123520192Y-77338857D01*
X123347270Y-77415848D01*
X123347265Y-77415851D01*
X123194129Y-77527111D01*
X123067466Y-77667785D01*
X122972821Y-77831715D01*
X122972818Y-77831722D01*
X122915016Y-78009619D01*
X122914326Y-78011744D01*
X122901029Y-78138259D01*
X122894560Y-78199814D01*
X122894540Y-78200000D01*
X122914326Y-78388256D01*
X122914327Y-78388259D01*
X122972818Y-78568277D01*
X122972821Y-78568284D01*
X123067467Y-78732216D01*
X123148130Y-78821801D01*
X123194129Y-78872888D01*
X123347265Y-78984148D01*
X123347270Y-78984151D01*
X123520192Y-79061142D01*
X123520197Y-79061144D01*
X123705354Y-79100500D01*
X123705355Y-79100500D01*
X123894644Y-79100500D01*
X123894646Y-79100500D01*
X124079803Y-79061144D01*
X124252730Y-78984151D01*
X124405871Y-78872888D01*
X124532533Y-78732216D01*
X124627179Y-78568284D01*
X124685674Y-78388256D01*
X124705460Y-78200000D01*
X124685674Y-78011744D01*
X124675083Y-77979151D01*
X124673089Y-77909312D01*
X124709169Y-77849479D01*
X124771870Y-77818650D01*
X124841284Y-77826614D01*
X124880696Y-77853153D01*
X127138181Y-80110638D01*
X127171666Y-80171961D01*
X127174500Y-80198319D01*
X127174500Y-80421057D01*
X127180738Y-80500322D01*
X127180738Y-80500323D01*
X127223617Y-80660351D01*
X127230139Y-80684691D01*
X127316792Y-80854757D01*
X127436910Y-81003090D01*
X127585243Y-81123208D01*
X127755309Y-81209861D01*
X127939675Y-81259261D01*
X127971383Y-81261756D01*
X128018943Y-81265500D01*
X128018946Y-81265500D01*
X129331057Y-81265500D01*
X129370689Y-81262380D01*
X129410325Y-81259261D01*
X129594691Y-81209861D01*
X129764757Y-81123208D01*
X129793416Y-81100000D01*
X139494540Y-81100000D01*
X139514326Y-81288256D01*
X139514327Y-81288259D01*
X139572818Y-81468277D01*
X139572821Y-81468284D01*
X139667467Y-81632216D01*
X139745850Y-81719269D01*
X139794129Y-81772888D01*
X139947265Y-81884148D01*
X139947270Y-81884151D01*
X140120192Y-81961142D01*
X140120197Y-81961144D01*
X140305354Y-82000500D01*
X140305355Y-82000500D01*
X140494644Y-82000500D01*
X140494646Y-82000500D01*
X140679803Y-81961144D01*
X140852730Y-81884151D01*
X141005871Y-81772888D01*
X141132533Y-81632216D01*
X141227179Y-81468284D01*
X141285674Y-81288256D01*
X141305460Y-81100000D01*
X141285674Y-80911744D01*
X141227179Y-80731716D01*
X141132533Y-80567784D01*
X141005871Y-80427112D01*
X140997533Y-80421054D01*
X140852734Y-80315851D01*
X140852729Y-80315848D01*
X140679807Y-80238857D01*
X140679802Y-80238855D01*
X140534001Y-80207865D01*
X140494646Y-80199500D01*
X140305354Y-80199500D01*
X140272897Y-80206398D01*
X140120197Y-80238855D01*
X140120192Y-80238857D01*
X139947270Y-80315848D01*
X139947265Y-80315851D01*
X139794129Y-80427111D01*
X139667466Y-80567785D01*
X139572821Y-80731715D01*
X139572818Y-80731722D01*
X139528449Y-80868277D01*
X139514326Y-80911744D01*
X139494540Y-81100000D01*
X129793416Y-81100000D01*
X129913090Y-81003090D01*
X130033208Y-80854757D01*
X130119861Y-80684691D01*
X130169261Y-80500325D01*
X130175500Y-80421054D01*
X130175500Y-79478946D01*
X130175322Y-79476689D01*
X130169261Y-79399677D01*
X130169261Y-79399676D01*
X130169261Y-79399675D01*
X130119861Y-79215309D01*
X130033208Y-79045243D01*
X129913090Y-78896910D01*
X129773213Y-78783640D01*
X129764762Y-78776796D01*
X129764761Y-78776795D01*
X129764757Y-78776792D01*
X129764751Y-78776789D01*
X129759310Y-78773256D01*
X129760317Y-78771703D01*
X129716021Y-78729868D01*
X129699225Y-78662048D01*
X129721762Y-78595912D01*
X129745072Y-78570993D01*
X129832742Y-78500000D01*
X136494540Y-78500000D01*
X136514326Y-78688256D01*
X136514327Y-78688259D01*
X136571494Y-78864202D01*
X136572821Y-78868284D01*
X136667467Y-79032216D01*
X136784521Y-79162217D01*
X136794129Y-79172888D01*
X136947265Y-79284148D01*
X136947270Y-79284151D01*
X137120192Y-79361142D01*
X137120197Y-79361144D01*
X137305354Y-79400500D01*
X137305355Y-79400500D01*
X137494644Y-79400500D01*
X137494646Y-79400500D01*
X137679803Y-79361144D01*
X137852730Y-79284151D01*
X138005871Y-79172888D01*
X138132533Y-79032216D01*
X138227179Y-78868284D01*
X138228506Y-78864202D01*
X138249273Y-78800286D01*
X138285674Y-78688256D01*
X138305460Y-78500000D01*
X138285674Y-78311744D01*
X138227179Y-78131716D01*
X138132533Y-77967784D01*
X138005871Y-77827112D01*
X137983999Y-77811221D01*
X137852734Y-77715851D01*
X137852729Y-77715848D01*
X137679807Y-77638857D01*
X137679802Y-77638855D01*
X137534000Y-77607865D01*
X137494646Y-77599500D01*
X137305354Y-77599500D01*
X137272897Y-77606398D01*
X137120197Y-77638855D01*
X137120192Y-77638857D01*
X136947270Y-77715848D01*
X136947265Y-77715851D01*
X136794129Y-77827111D01*
X136667466Y-77967785D01*
X136572821Y-78131715D01*
X136572818Y-78131722D01*
X136525015Y-78278846D01*
X136514326Y-78311744D01*
X136494540Y-78500000D01*
X129832742Y-78500000D01*
X129878322Y-78463090D01*
X129998440Y-78314757D01*
X130085093Y-78144691D01*
X130134493Y-77960325D01*
X130140732Y-77881054D01*
X130140732Y-76938946D01*
X130140640Y-76937781D01*
X130135180Y-76868399D01*
X130134493Y-76859675D01*
X130085093Y-76675309D01*
X129998440Y-76505243D01*
X129878322Y-76356910D01*
X129771074Y-76270062D01*
X129745075Y-76249008D01*
X129705364Y-76191520D01*
X129703036Y-76121689D01*
X129738832Y-76061686D01*
X129759602Y-76047194D01*
X129759310Y-76046744D01*
X129764744Y-76043214D01*
X129764757Y-76043208D01*
X129913090Y-75923090D01*
X130033208Y-75774757D01*
X130119861Y-75604691D01*
X130169261Y-75420325D01*
X130175500Y-75341054D01*
X130175500Y-74398946D01*
X130169261Y-74319675D01*
X130119861Y-74135309D01*
X130033208Y-73965243D01*
X129913090Y-73816910D01*
X129764757Y-73696792D01*
X129764754Y-73696790D01*
X129764230Y-73696366D01*
X129724519Y-73638879D01*
X129722191Y-73569048D01*
X129757986Y-73509044D01*
X129764230Y-73503634D01*
X129764754Y-73503209D01*
X129764757Y-73503208D01*
X129913090Y-73383090D01*
X130033208Y-73234757D01*
X130119861Y-73064691D01*
X130169261Y-72880325D01*
X130173615Y-72825008D01*
X130175500Y-72801057D01*
X130175500Y-72413725D01*
X130195185Y-72346686D01*
X130247989Y-72300931D01*
X130317147Y-72290987D01*
X130380703Y-72320012D01*
X130391650Y-72330753D01*
X130392966Y-72332215D01*
X130392967Y-72332216D01*
X130438400Y-72382674D01*
X130519629Y-72472888D01*
X130672765Y-72584148D01*
X130672770Y-72584151D01*
X130845691Y-72661142D01*
X130845694Y-72661142D01*
X130845697Y-72661144D01*
X130851310Y-72662337D01*
X130854494Y-72663014D01*
X130915976Y-72696206D01*
X130947790Y-72749708D01*
X130953768Y-72770285D01*
X130958882Y-72787884D01*
X130966670Y-72801054D01*
X130969080Y-72805128D01*
X130977636Y-72822594D01*
X130980069Y-72828738D01*
X130985014Y-72841226D01*
X131012398Y-72878917D01*
X131015606Y-72883801D01*
X131039327Y-72923910D01*
X131039333Y-72923918D01*
X131053490Y-72938074D01*
X131066127Y-72952869D01*
X131077906Y-72969081D01*
X131099872Y-72987253D01*
X131113809Y-72998782D01*
X131118120Y-73002704D01*
X131828722Y-73713307D01*
X132061044Y-73945629D01*
X132094529Y-74006952D01*
X132096684Y-74020348D01*
X132102942Y-74079883D01*
X132114332Y-74188256D01*
X132114333Y-74188259D01*
X132172824Y-74368277D01*
X132172827Y-74368284D01*
X132267473Y-74532216D01*
X132351004Y-74624986D01*
X132394135Y-74672888D01*
X132547271Y-74784148D01*
X132547276Y-74784151D01*
X132720198Y-74861142D01*
X132720203Y-74861144D01*
X132905360Y-74900500D01*
X132905361Y-74900500D01*
X133094650Y-74900500D01*
X133094652Y-74900500D01*
X133279809Y-74861144D01*
X133452736Y-74784151D01*
X133605877Y-74672888D01*
X133732539Y-74532216D01*
X133827185Y-74368284D01*
X133885680Y-74188256D01*
X133905466Y-74000000D01*
X133885680Y-73811744D01*
X133827185Y-73631716D01*
X133732539Y-73467784D01*
X133605877Y-73327112D01*
X133605876Y-73327111D01*
X133452740Y-73215851D01*
X133452735Y-73215848D01*
X133279813Y-73138857D01*
X133279808Y-73138855D01*
X133134006Y-73107865D01*
X133094652Y-73099500D01*
X133094651Y-73099500D01*
X133035458Y-73099500D01*
X132968419Y-73079815D01*
X132947777Y-73063181D01*
X132199318Y-72314721D01*
X132165833Y-72253398D01*
X132162999Y-72227048D01*
X132162999Y-71198347D01*
X132182684Y-71131309D01*
X132221901Y-71092810D01*
X132343656Y-71017712D01*
X132467712Y-70893656D01*
X132469752Y-70890347D01*
X132471745Y-70888555D01*
X132472193Y-70887989D01*
X132472289Y-70888065D01*
X132521694Y-70843623D01*
X132590656Y-70832395D01*
X132654740Y-70860234D01*
X132680829Y-70890339D01*
X132682681Y-70893341D01*
X132682683Y-70893344D01*
X132806654Y-71017315D01*
X132955875Y-71109356D01*
X132955880Y-71109358D01*
X133122302Y-71164505D01*
X133122309Y-71164506D01*
X133225019Y-71174999D01*
X133362499Y-71174999D01*
X133362500Y-71174998D01*
X133362500Y-70200000D01*
X133862500Y-70200000D01*
X133862500Y-71174999D01*
X133999972Y-71174999D01*
X133999986Y-71174998D01*
X134102697Y-71164505D01*
X134269119Y-71109358D01*
X134269124Y-71109356D01*
X134418345Y-71017315D01*
X134542315Y-70893345D01*
X134634356Y-70744124D01*
X134634358Y-70744119D01*
X134689505Y-70577697D01*
X134689506Y-70577690D01*
X134699999Y-70474986D01*
X134700000Y-70474973D01*
X134700000Y-70200000D01*
X133862500Y-70200000D01*
X133362500Y-70200000D01*
X133362500Y-70000000D01*
X136594540Y-70000000D01*
X136614326Y-70188256D01*
X136614327Y-70188259D01*
X136672818Y-70368277D01*
X136672821Y-70368284D01*
X136767467Y-70532216D01*
X136886308Y-70664202D01*
X136894129Y-70672888D01*
X137047265Y-70784148D01*
X137047270Y-70784151D01*
X137220192Y-70861142D01*
X137220197Y-70861144D01*
X137405354Y-70900500D01*
X137405355Y-70900500D01*
X137594644Y-70900500D01*
X137594646Y-70900500D01*
X137779803Y-70861144D01*
X137952730Y-70784151D01*
X138105871Y-70672888D01*
X138232533Y-70532216D01*
X138246764Y-70507567D01*
X138284716Y-70441833D01*
X138335283Y-70393617D01*
X138403890Y-70380394D01*
X138468755Y-70406362D01*
X138479784Y-70416152D01*
X138556346Y-70492714D01*
X138559182Y-70494463D01*
X138560717Y-70496170D01*
X138562011Y-70497193D01*
X138561836Y-70497414D01*
X138605905Y-70546411D01*
X138617126Y-70615374D01*
X138589282Y-70679456D01*
X138559182Y-70705537D01*
X138556346Y-70707285D01*
X138432289Y-70831342D01*
X138340187Y-70980663D01*
X138340185Y-70980668D01*
X138324154Y-71029048D01*
X138285001Y-71147203D01*
X138285001Y-71147204D01*
X138285000Y-71147204D01*
X138274500Y-71249983D01*
X138274500Y-72025001D01*
X138274501Y-72025019D01*
X138285000Y-72127796D01*
X138285001Y-72127799D01*
X138340185Y-72294331D01*
X138340187Y-72294336D01*
X138345246Y-72302538D01*
X138432288Y-72443656D01*
X138556344Y-72567712D01*
X138615596Y-72604258D01*
X138662321Y-72656204D01*
X138674500Y-72709797D01*
X138674500Y-73001312D01*
X138654815Y-73068351D01*
X138642650Y-73084284D01*
X138567466Y-73167784D01*
X138472821Y-73331715D01*
X138472818Y-73331722D01*
X138416961Y-73503634D01*
X138414326Y-73511744D01*
X138394540Y-73700000D01*
X138414326Y-73888256D01*
X138414327Y-73888259D01*
X138472818Y-74068277D01*
X138472821Y-74068284D01*
X138567467Y-74232216D01*
X138688266Y-74366376D01*
X138694129Y-74372888D01*
X138847265Y-74484148D01*
X138847270Y-74484151D01*
X139020192Y-74561142D01*
X139020197Y-74561144D01*
X139205354Y-74600500D01*
X139205355Y-74600500D01*
X139394644Y-74600500D01*
X139394646Y-74600500D01*
X139579803Y-74561144D01*
X139752730Y-74484151D01*
X139905871Y-74372888D01*
X140032533Y-74232216D01*
X140127179Y-74068284D01*
X140185674Y-73888256D01*
X140190645Y-73840953D01*
X140217228Y-73776342D01*
X140274524Y-73736357D01*
X140344343Y-73733696D01*
X140401646Y-73766236D01*
X141958181Y-75322770D01*
X141991666Y-75384093D01*
X141994500Y-75410451D01*
X141994500Y-76165696D01*
X141997401Y-76202567D01*
X141997402Y-76202573D01*
X142029099Y-76311671D01*
X142028900Y-76381540D01*
X142002174Y-76429237D01*
X141967466Y-76467785D01*
X141872821Y-76631715D01*
X141872818Y-76631722D01*
X141821928Y-76788347D01*
X141814326Y-76811744D01*
X141794540Y-77000000D01*
X141814326Y-77188256D01*
X141814327Y-77188259D01*
X141872818Y-77368277D01*
X141872821Y-77368284D01*
X141967467Y-77532216D01*
X142087431Y-77665449D01*
X142094129Y-77672888D01*
X142247265Y-77784148D01*
X142247270Y-77784151D01*
X142420192Y-77861142D01*
X142420197Y-77861144D01*
X142605354Y-77900500D01*
X142605355Y-77900500D01*
X142794644Y-77900500D01*
X142794646Y-77900500D01*
X142979803Y-77861144D01*
X143056239Y-77827112D01*
X143091931Y-77811221D01*
X143142367Y-77800500D01*
X144016564Y-77800500D01*
X144023502Y-77800889D01*
X144052400Y-77804145D01*
X144064998Y-77805565D01*
X144065000Y-77805565D01*
X144065004Y-77805565D01*
X144244249Y-77785369D01*
X144244252Y-77785368D01*
X144244255Y-77785368D01*
X144414522Y-77725789D01*
X144567262Y-77629816D01*
X144694816Y-77502262D01*
X144790789Y-77349522D01*
X144850368Y-77179255D01*
X144851538Y-77168878D01*
X144865498Y-77044973D01*
X144865498Y-77044969D01*
X144865500Y-77044954D01*
X144865500Y-77044953D01*
X144870565Y-77000000D01*
X144870564Y-76999995D01*
X144868278Y-76979705D01*
X144865889Y-76958502D01*
X144865500Y-76951564D01*
X144865500Y-76849205D01*
X144885185Y-76782166D01*
X144937989Y-76736411D01*
X145007147Y-76726467D01*
X145024095Y-76730129D01*
X145082505Y-76747099D01*
X145082511Y-76747100D01*
X145084998Y-76747295D01*
X145085000Y-76747295D01*
X145585000Y-76747295D01*
X145585001Y-76747295D01*
X145587486Y-76747100D01*
X145745198Y-76701281D01*
X145886550Y-76617686D01*
X145892717Y-76612903D01*
X145894630Y-76615369D01*
X145943222Y-76588802D01*
X146012917Y-76593749D01*
X146045762Y-76614853D01*
X146046969Y-76613298D01*
X146053132Y-76618078D01*
X146053135Y-76618081D01*
X146194602Y-76701744D01*
X146219126Y-76708869D01*
X146352426Y-76747597D01*
X146352429Y-76747597D01*
X146352431Y-76747598D01*
X146361224Y-76748290D01*
X146389304Y-76750500D01*
X146389306Y-76750500D01*
X146820696Y-76750500D01*
X146839131Y-76749049D01*
X146857569Y-76747598D01*
X146857571Y-76747597D01*
X146857573Y-76747597D01*
X146917697Y-76730129D01*
X147015398Y-76701744D01*
X147156865Y-76618081D01*
X147273081Y-76501865D01*
X147286012Y-76480000D01*
X150244341Y-76480000D01*
X150264936Y-76715403D01*
X150264938Y-76715413D01*
X150326094Y-76943655D01*
X150326096Y-76943659D01*
X150326097Y-76943663D01*
X150393802Y-77088856D01*
X150425965Y-77157830D01*
X150425967Y-77157834D01*
X150521508Y-77294280D01*
X150560189Y-77349522D01*
X150561501Y-77351395D01*
X150561506Y-77351402D01*
X150728597Y-77518493D01*
X150728603Y-77518498D01*
X150783400Y-77556867D01*
X150895319Y-77635234D01*
X150914594Y-77648730D01*
X150958219Y-77703307D01*
X150965413Y-77772805D01*
X150933890Y-77835160D01*
X150914595Y-77851880D01*
X150728922Y-77981890D01*
X150728920Y-77981891D01*
X150561891Y-78148920D01*
X150561886Y-78148926D01*
X150426400Y-78342420D01*
X150426399Y-78342422D01*
X150326570Y-78556507D01*
X150326567Y-78556513D01*
X150269364Y-78769999D01*
X150269364Y-78770000D01*
X150986653Y-78770000D01*
X151053692Y-78789685D01*
X151099447Y-78842489D01*
X151109391Y-78911647D01*
X151105631Y-78928933D01*
X151104849Y-78931596D01*
X151100000Y-78948111D01*
X151100000Y-79091889D01*
X151103856Y-79105022D01*
X151105631Y-79111067D01*
X151105630Y-79180936D01*
X151067855Y-79239714D01*
X151004299Y-79268738D01*
X150986653Y-79270000D01*
X150269364Y-79270000D01*
X150326567Y-79483486D01*
X150326570Y-79483492D01*
X150426399Y-79697578D01*
X150561894Y-79891082D01*
X150728917Y-80058105D01*
X150922421Y-80193600D01*
X151136507Y-80293429D01*
X151136516Y-80293433D01*
X151350000Y-80350634D01*
X151350000Y-79632301D01*
X151369685Y-79565262D01*
X151422489Y-79519507D01*
X151491647Y-79509563D01*
X151564237Y-79520000D01*
X151564238Y-79520000D01*
X151635762Y-79520000D01*
X151635763Y-79520000D01*
X151708353Y-79509563D01*
X151777512Y-79519507D01*
X151830315Y-79565262D01*
X151850000Y-79632301D01*
X151850000Y-80350633D01*
X152063483Y-80293433D01*
X152063492Y-80293429D01*
X152277578Y-80193600D01*
X152471082Y-80058105D01*
X152638105Y-79891082D01*
X152773600Y-79697578D01*
X152873429Y-79483492D01*
X152873432Y-79483486D01*
X152930636Y-79270000D01*
X152213347Y-79270000D01*
X152146308Y-79250315D01*
X152100553Y-79197511D01*
X152090609Y-79128353D01*
X152094369Y-79111067D01*
X152096143Y-79105022D01*
X152097618Y-79100000D01*
X154494355Y-79100000D01*
X154498693Y-79135727D01*
X154495387Y-79155609D01*
X154498949Y-79170062D01*
X154502552Y-79199735D01*
X154502552Y-79207815D01*
X154510521Y-79233142D01*
X154514859Y-79268870D01*
X154514861Y-79268878D01*
X154527623Y-79302528D01*
X154529171Y-79322624D01*
X154536082Y-79335792D01*
X154546682Y-79363742D01*
X154548613Y-79371579D01*
X154562417Y-79394271D01*
X154564467Y-79399676D01*
X154575182Y-79427931D01*
X154575184Y-79427934D01*
X154595628Y-79457553D01*
X154601938Y-79476689D01*
X154611808Y-79487830D01*
X154628789Y-79512431D01*
X154632543Y-79519584D01*
X154651367Y-79538304D01*
X154671813Y-79567925D01*
X154671814Y-79567926D01*
X154698757Y-79591796D01*
X154709466Y-79608869D01*
X154721713Y-79617323D01*
X154744088Y-79637147D01*
X154749438Y-79643186D01*
X154772204Y-79656864D01*
X154799145Y-79680732D01*
X154799151Y-79680736D01*
X154831011Y-79697457D01*
X154845499Y-79711475D01*
X154859418Y-79716754D01*
X154885888Y-79730647D01*
X154892533Y-79735234D01*
X154917906Y-79743063D01*
X154949775Y-79759790D01*
X154984714Y-79768401D01*
X155002128Y-79778540D01*
X155016911Y-79780336D01*
X155045932Y-79787490D01*
X155053496Y-79790358D01*
X155080003Y-79791887D01*
X155114941Y-79800499D01*
X155114942Y-79800500D01*
X155150937Y-79800500D01*
X155170285Y-79806181D01*
X155185049Y-79804388D01*
X155214954Y-79804388D01*
X155222950Y-79805359D01*
X155249063Y-79800500D01*
X155285058Y-79800500D01*
X155285060Y-79800499D01*
X155319994Y-79791889D01*
X155340131Y-79792774D01*
X155354064Y-79787490D01*
X155383088Y-79780335D01*
X155391113Y-79779360D01*
X155415280Y-79768403D01*
X155450225Y-79759790D01*
X155482089Y-79743065D01*
X155501855Y-79739105D01*
X155514112Y-79730645D01*
X155540582Y-79716753D01*
X155548133Y-79713888D01*
X155568985Y-79697459D01*
X155600852Y-79680734D01*
X155627792Y-79656866D01*
X155646037Y-79648290D01*
X155655907Y-79637150D01*
X155678285Y-79617324D01*
X155684928Y-79612738D01*
X155701243Y-79591795D01*
X155728183Y-79567929D01*
X155748629Y-79538306D01*
X155764290Y-79525614D01*
X155771209Y-79512432D01*
X155788192Y-79487827D01*
X155793546Y-79481783D01*
X155804372Y-79457549D01*
X155824818Y-79427930D01*
X155837580Y-79394278D01*
X155849751Y-79378203D01*
X155853314Y-79363747D01*
X155863916Y-79335791D01*
X155867664Y-79328649D01*
X155872378Y-79302522D01*
X155885140Y-79268872D01*
X155892886Y-79205072D01*
X155894229Y-79197743D01*
X155897448Y-79184686D01*
X155897448Y-79184679D01*
X155898012Y-79182392D01*
X155898020Y-79182353D01*
X155902982Y-79162217D01*
X155901307Y-79135724D01*
X155905645Y-79100000D01*
X155901307Y-79064271D01*
X155904612Y-79044391D01*
X155898005Y-79017584D01*
X155897999Y-79017551D01*
X155897448Y-79015314D01*
X155894232Y-79002266D01*
X155892885Y-78994915D01*
X155885140Y-78931128D01*
X155872376Y-78897474D01*
X155870828Y-78877376D01*
X155863916Y-78864207D01*
X155853314Y-78836252D01*
X155851382Y-78828415D01*
X155837580Y-78805722D01*
X155824818Y-78772070D01*
X155824260Y-78771262D01*
X155804372Y-78742449D01*
X155798059Y-78723308D01*
X155788190Y-78712168D01*
X155771209Y-78687565D01*
X155767458Y-78680418D01*
X155748631Y-78661694D01*
X155728182Y-78632070D01*
X155701241Y-78608202D01*
X155690529Y-78591126D01*
X155678285Y-78582674D01*
X155655909Y-78562850D01*
X155650563Y-78556816D01*
X155627794Y-78543134D01*
X155600856Y-78519269D01*
X155600851Y-78519265D01*
X155568981Y-78502538D01*
X155554496Y-78488522D01*
X155540579Y-78483244D01*
X155514109Y-78469351D01*
X155507471Y-78464769D01*
X155482095Y-78456937D01*
X155450225Y-78440210D01*
X155450224Y-78440209D01*
X155450223Y-78440209D01*
X155415277Y-78431596D01*
X155397850Y-78421449D01*
X155383074Y-78419655D01*
X155354050Y-78412502D01*
X155346511Y-78409643D01*
X155320002Y-78408112D01*
X155285061Y-78399500D01*
X155285056Y-78399500D01*
X155249072Y-78399500D01*
X155229734Y-78393821D01*
X155214945Y-78395617D01*
X155185060Y-78395617D01*
X155177028Y-78394642D01*
X155150929Y-78399500D01*
X155114944Y-78399500D01*
X155079995Y-78408113D01*
X155059858Y-78407226D01*
X155045952Y-78412501D01*
X155016924Y-78419655D01*
X155008918Y-78420626D01*
X154984722Y-78431595D01*
X154949781Y-78440207D01*
X154949774Y-78440210D01*
X154917901Y-78456938D01*
X154898133Y-78460897D01*
X154885884Y-78469353D01*
X154859420Y-78483243D01*
X154851874Y-78486104D01*
X154831019Y-78502537D01*
X154799152Y-78519263D01*
X154799148Y-78519266D01*
X154772200Y-78543139D01*
X154753954Y-78551714D01*
X154744087Y-78562852D01*
X154721713Y-78582674D01*
X154715078Y-78587253D01*
X154698761Y-78608199D01*
X154671817Y-78632070D01*
X154651366Y-78661698D01*
X154635704Y-78674389D01*
X154628788Y-78687567D01*
X154611809Y-78712166D01*
X154606458Y-78718205D01*
X154595630Y-78742444D01*
X154575184Y-78772065D01*
X154575182Y-78772069D01*
X154562416Y-78805729D01*
X154550245Y-78821801D01*
X154546683Y-78836254D01*
X154536084Y-78864202D01*
X154532338Y-78871339D01*
X154527624Y-78897470D01*
X154514860Y-78931126D01*
X154510521Y-78966858D01*
X154502552Y-78985372D01*
X154502552Y-79000263D01*
X154498949Y-79029936D01*
X154497016Y-79037778D01*
X154498693Y-79064271D01*
X154494355Y-79099999D01*
X154494355Y-79100000D01*
X152097618Y-79100000D01*
X152100000Y-79091889D01*
X152100000Y-78948111D01*
X152095151Y-78931596D01*
X152094369Y-78928933D01*
X152094370Y-78859064D01*
X152132145Y-78800286D01*
X152195701Y-78771262D01*
X152213347Y-78770000D01*
X152930636Y-78770000D01*
X152930635Y-78769999D01*
X152873432Y-78556513D01*
X152873429Y-78556507D01*
X152773600Y-78342422D01*
X152773599Y-78342420D01*
X152638113Y-78148926D01*
X152638108Y-78148920D01*
X152471078Y-77981890D01*
X152285405Y-77851879D01*
X152241780Y-77797302D01*
X152234588Y-77727804D01*
X152266110Y-77665449D01*
X152285406Y-77648730D01*
X152299506Y-77638857D01*
X152471401Y-77518495D01*
X152638495Y-77351401D01*
X152774035Y-77157830D01*
X152873903Y-76943663D01*
X152935063Y-76715408D01*
X152955659Y-76480000D01*
X152935063Y-76244592D01*
X152923115Y-76200000D01*
X154494355Y-76200000D01*
X154498693Y-76235727D01*
X154495387Y-76255609D01*
X154498949Y-76270062D01*
X154502552Y-76299735D01*
X154502552Y-76307815D01*
X154510521Y-76333142D01*
X154514859Y-76368870D01*
X154514861Y-76368878D01*
X154527623Y-76402528D01*
X154529171Y-76422624D01*
X154536082Y-76435792D01*
X154546682Y-76463742D01*
X154548613Y-76471579D01*
X154562417Y-76494271D01*
X154565296Y-76501862D01*
X154575182Y-76527931D01*
X154575184Y-76527934D01*
X154595628Y-76557553D01*
X154601938Y-76576689D01*
X154611808Y-76587830D01*
X154628789Y-76612431D01*
X154632543Y-76619584D01*
X154651367Y-76638304D01*
X154671813Y-76667925D01*
X154671814Y-76667926D01*
X154698757Y-76691796D01*
X154709466Y-76708869D01*
X154721713Y-76717323D01*
X154744088Y-76737147D01*
X154749438Y-76743186D01*
X154772204Y-76756864D01*
X154799145Y-76780732D01*
X154799151Y-76780736D01*
X154831011Y-76797457D01*
X154845499Y-76811475D01*
X154859418Y-76816754D01*
X154885888Y-76830647D01*
X154892533Y-76835234D01*
X154917906Y-76843063D01*
X154949775Y-76859790D01*
X154984714Y-76868401D01*
X155002128Y-76878540D01*
X155016911Y-76880336D01*
X155045932Y-76887490D01*
X155053496Y-76890358D01*
X155080003Y-76891887D01*
X155114941Y-76900499D01*
X155114942Y-76900500D01*
X155150937Y-76900500D01*
X155170285Y-76906181D01*
X155185049Y-76904388D01*
X155214954Y-76904388D01*
X155222950Y-76905359D01*
X155249063Y-76900500D01*
X155285058Y-76900500D01*
X155285060Y-76900499D01*
X155319994Y-76891889D01*
X155340131Y-76892774D01*
X155354064Y-76887490D01*
X155383088Y-76880335D01*
X155391113Y-76879360D01*
X155415280Y-76868403D01*
X155450225Y-76859790D01*
X155482089Y-76843065D01*
X155501855Y-76839105D01*
X155514112Y-76830645D01*
X155540582Y-76816753D01*
X155548133Y-76813888D01*
X155568985Y-76797459D01*
X155600852Y-76780734D01*
X155627792Y-76756866D01*
X155646037Y-76748290D01*
X155655907Y-76737150D01*
X155678285Y-76717324D01*
X155684928Y-76712738D01*
X155701243Y-76691795D01*
X155728183Y-76667929D01*
X155748629Y-76638306D01*
X155764290Y-76625614D01*
X155771209Y-76612432D01*
X155788192Y-76587827D01*
X155793546Y-76581783D01*
X155804372Y-76557549D01*
X155824818Y-76527930D01*
X155837580Y-76494278D01*
X155849751Y-76478203D01*
X155853314Y-76463747D01*
X155863916Y-76435791D01*
X155867664Y-76428649D01*
X155872378Y-76402522D01*
X155885140Y-76368872D01*
X155892886Y-76305072D01*
X155894229Y-76297743D01*
X155897448Y-76284686D01*
X155897448Y-76284679D01*
X155898012Y-76282392D01*
X155898020Y-76282353D01*
X155902982Y-76262217D01*
X155901307Y-76235724D01*
X155905645Y-76200000D01*
X155901307Y-76164271D01*
X155904612Y-76144391D01*
X155898005Y-76117584D01*
X155897999Y-76117551D01*
X155897448Y-76115314D01*
X155894232Y-76102266D01*
X155892885Y-76094915D01*
X155885140Y-76031128D01*
X155872376Y-75997474D01*
X155870828Y-75977376D01*
X155863916Y-75964207D01*
X155853314Y-75936252D01*
X155851382Y-75928415D01*
X155837580Y-75905722D01*
X155824818Y-75872070D01*
X155804372Y-75842449D01*
X155798059Y-75823308D01*
X155788190Y-75812168D01*
X155771209Y-75787565D01*
X155767458Y-75780418D01*
X155748631Y-75761694D01*
X155728182Y-75732070D01*
X155701241Y-75708202D01*
X155690529Y-75691126D01*
X155678285Y-75682674D01*
X155655909Y-75662850D01*
X155650563Y-75656816D01*
X155627794Y-75643134D01*
X155600856Y-75619269D01*
X155600851Y-75619265D01*
X155568981Y-75602538D01*
X155554496Y-75588522D01*
X155540579Y-75583244D01*
X155514109Y-75569351D01*
X155507471Y-75564769D01*
X155482095Y-75556937D01*
X155450225Y-75540210D01*
X155450224Y-75540209D01*
X155450223Y-75540209D01*
X155415277Y-75531596D01*
X155397850Y-75521449D01*
X155383074Y-75519655D01*
X155354050Y-75512502D01*
X155346511Y-75509643D01*
X155320002Y-75508112D01*
X155285061Y-75499500D01*
X155285056Y-75499500D01*
X155249072Y-75499500D01*
X155229734Y-75493821D01*
X155214945Y-75495617D01*
X155185060Y-75495617D01*
X155177028Y-75494642D01*
X155150929Y-75499500D01*
X155114944Y-75499500D01*
X155079995Y-75508113D01*
X155059858Y-75507226D01*
X155045952Y-75512501D01*
X155016924Y-75519655D01*
X155008918Y-75520626D01*
X154984722Y-75531595D01*
X154949781Y-75540207D01*
X154949774Y-75540210D01*
X154917901Y-75556938D01*
X154898133Y-75560897D01*
X154885884Y-75569353D01*
X154859420Y-75583243D01*
X154851874Y-75586104D01*
X154831019Y-75602537D01*
X154799152Y-75619263D01*
X154799148Y-75619266D01*
X154772200Y-75643139D01*
X154753954Y-75651714D01*
X154744087Y-75662852D01*
X154721713Y-75682674D01*
X154715078Y-75687253D01*
X154698761Y-75708199D01*
X154671817Y-75732070D01*
X154651366Y-75761698D01*
X154635704Y-75774389D01*
X154628788Y-75787567D01*
X154611809Y-75812166D01*
X154606458Y-75818205D01*
X154595630Y-75842444D01*
X154575184Y-75872065D01*
X154575182Y-75872069D01*
X154562416Y-75905729D01*
X154550245Y-75921801D01*
X154546683Y-75936254D01*
X154536084Y-75964202D01*
X154532338Y-75971339D01*
X154527624Y-75997470D01*
X154514860Y-76031126D01*
X154510521Y-76066858D01*
X154502552Y-76085372D01*
X154502552Y-76100263D01*
X154498949Y-76129936D01*
X154497016Y-76137778D01*
X154498693Y-76164271D01*
X154494355Y-76199999D01*
X154494355Y-76200000D01*
X152923115Y-76200000D01*
X152877866Y-76031126D01*
X152873905Y-76016344D01*
X152873904Y-76016343D01*
X152873903Y-76016337D01*
X152774035Y-75802171D01*
X152763810Y-75787567D01*
X152638494Y-75608597D01*
X152471402Y-75441506D01*
X152471396Y-75441501D01*
X152285842Y-75311575D01*
X152242217Y-75256998D01*
X152235023Y-75187500D01*
X152266546Y-75125145D01*
X152285842Y-75108425D01*
X152334292Y-75074500D01*
X152471401Y-74978495D01*
X152638495Y-74811401D01*
X152774035Y-74617830D01*
X152873903Y-74403663D01*
X152935063Y-74175408D01*
X152955659Y-73940000D01*
X152955370Y-73936702D01*
X152947903Y-73851353D01*
X152935063Y-73704592D01*
X152887076Y-73525499D01*
X152880244Y-73500000D01*
X154494355Y-73500000D01*
X154498693Y-73535727D01*
X154495387Y-73555609D01*
X154498949Y-73570062D01*
X154502552Y-73599735D01*
X154502552Y-73607815D01*
X154510521Y-73633142D01*
X154514859Y-73668870D01*
X154514861Y-73668878D01*
X154527623Y-73702528D01*
X154529171Y-73722624D01*
X154536082Y-73735792D01*
X154546682Y-73763742D01*
X154548613Y-73771579D01*
X154562417Y-73794271D01*
X154567601Y-73807940D01*
X154575182Y-73827931D01*
X154575184Y-73827934D01*
X154595628Y-73857553D01*
X154601938Y-73876689D01*
X154611808Y-73887830D01*
X154628789Y-73912431D01*
X154632543Y-73919584D01*
X154651367Y-73938304D01*
X154671813Y-73967925D01*
X154671814Y-73967926D01*
X154671816Y-73967928D01*
X154671817Y-73967929D01*
X154675714Y-73971381D01*
X154698757Y-73991796D01*
X154709466Y-74008869D01*
X154721713Y-74017323D01*
X154744088Y-74037147D01*
X154749438Y-74043186D01*
X154772204Y-74056864D01*
X154799145Y-74080732D01*
X154799151Y-74080736D01*
X154831011Y-74097457D01*
X154845499Y-74111475D01*
X154859418Y-74116754D01*
X154885888Y-74130647D01*
X154892533Y-74135234D01*
X154917906Y-74143063D01*
X154949775Y-74159790D01*
X154984714Y-74168401D01*
X155002128Y-74178540D01*
X155016911Y-74180336D01*
X155045932Y-74187490D01*
X155053496Y-74190358D01*
X155080003Y-74191887D01*
X155114941Y-74200499D01*
X155114942Y-74200500D01*
X155150937Y-74200500D01*
X155170285Y-74206181D01*
X155185049Y-74204388D01*
X155214954Y-74204388D01*
X155222950Y-74205359D01*
X155249063Y-74200500D01*
X155285058Y-74200500D01*
X155285060Y-74200499D01*
X155319994Y-74191889D01*
X155340131Y-74192774D01*
X155354064Y-74187490D01*
X155383088Y-74180335D01*
X155391113Y-74179360D01*
X155415280Y-74168403D01*
X155450225Y-74159790D01*
X155482089Y-74143065D01*
X155501855Y-74139105D01*
X155514112Y-74130645D01*
X155540582Y-74116753D01*
X155548133Y-74113888D01*
X155568985Y-74097459D01*
X155600852Y-74080734D01*
X155627792Y-74056866D01*
X155646037Y-74048290D01*
X155655907Y-74037150D01*
X155678285Y-74017324D01*
X155684928Y-74012738D01*
X155701243Y-73991795D01*
X155728183Y-73967929D01*
X155748629Y-73938306D01*
X155764290Y-73925614D01*
X155771209Y-73912432D01*
X155788192Y-73887827D01*
X155793546Y-73881783D01*
X155804372Y-73857549D01*
X155824818Y-73827930D01*
X155837580Y-73794278D01*
X155849751Y-73778203D01*
X155853314Y-73763747D01*
X155863916Y-73735791D01*
X155867664Y-73728649D01*
X155872378Y-73702522D01*
X155885140Y-73668872D01*
X155892886Y-73605072D01*
X155894229Y-73597743D01*
X155897448Y-73584686D01*
X155897448Y-73584679D01*
X155898012Y-73582392D01*
X155898020Y-73582353D01*
X155902982Y-73562217D01*
X155901307Y-73535724D01*
X155905645Y-73500000D01*
X155901307Y-73464271D01*
X155904612Y-73444391D01*
X155898005Y-73417584D01*
X155897999Y-73417551D01*
X155895859Y-73408869D01*
X155894232Y-73402266D01*
X155892885Y-73394915D01*
X155885212Y-73331722D01*
X155885140Y-73331127D01*
X155885139Y-73331126D01*
X155883617Y-73327112D01*
X155872376Y-73297474D01*
X155870828Y-73277376D01*
X155863916Y-73264207D01*
X155853314Y-73236252D01*
X155851382Y-73228415D01*
X155837580Y-73205722D01*
X155824818Y-73172070D01*
X155804372Y-73142449D01*
X155798059Y-73123308D01*
X155788190Y-73112168D01*
X155771209Y-73087565D01*
X155767458Y-73080418D01*
X155748631Y-73061694D01*
X155728922Y-73033142D01*
X155728183Y-73032071D01*
X155728182Y-73032070D01*
X155701241Y-73008202D01*
X155690529Y-72991126D01*
X155678285Y-72982674D01*
X155655909Y-72962850D01*
X155650563Y-72956816D01*
X155627794Y-72943134D01*
X155600856Y-72919269D01*
X155600851Y-72919265D01*
X155568981Y-72902538D01*
X155554496Y-72888522D01*
X155540579Y-72883244D01*
X155514109Y-72869351D01*
X155507471Y-72864769D01*
X155482095Y-72856937D01*
X155450225Y-72840210D01*
X155450224Y-72840209D01*
X155450223Y-72840209D01*
X155415277Y-72831596D01*
X155397850Y-72821449D01*
X155383074Y-72819655D01*
X155354050Y-72812502D01*
X155346511Y-72809643D01*
X155320002Y-72808112D01*
X155285061Y-72799500D01*
X155285056Y-72799500D01*
X155249072Y-72799500D01*
X155229734Y-72793821D01*
X155214945Y-72795617D01*
X155185060Y-72795617D01*
X155177028Y-72794642D01*
X155150929Y-72799500D01*
X155114944Y-72799500D01*
X155079995Y-72808113D01*
X155059858Y-72807226D01*
X155045952Y-72812501D01*
X155016924Y-72819655D01*
X155008918Y-72820626D01*
X154984722Y-72831595D01*
X154949781Y-72840207D01*
X154949774Y-72840210D01*
X154917901Y-72856938D01*
X154898133Y-72860897D01*
X154885884Y-72869353D01*
X154859420Y-72883243D01*
X154851874Y-72886104D01*
X154831019Y-72902537D01*
X154799152Y-72919263D01*
X154799148Y-72919266D01*
X154772200Y-72943139D01*
X154753954Y-72951714D01*
X154744087Y-72962852D01*
X154721713Y-72982674D01*
X154715078Y-72987253D01*
X154698761Y-73008199D01*
X154671817Y-73032070D01*
X154651366Y-73061698D01*
X154635704Y-73074389D01*
X154628788Y-73087567D01*
X154611809Y-73112166D01*
X154606458Y-73118205D01*
X154595630Y-73142444D01*
X154575184Y-73172065D01*
X154575182Y-73172069D01*
X154562416Y-73205729D01*
X154550245Y-73221801D01*
X154546683Y-73236254D01*
X154536084Y-73264202D01*
X154532338Y-73271339D01*
X154527624Y-73297470D01*
X154514860Y-73331126D01*
X154510521Y-73366858D01*
X154502552Y-73385372D01*
X154502552Y-73400263D01*
X154498949Y-73429936D01*
X154497016Y-73437778D01*
X154498693Y-73464271D01*
X154494355Y-73499999D01*
X154494355Y-73500000D01*
X152880244Y-73500000D01*
X152873905Y-73476344D01*
X152873904Y-73476343D01*
X152873903Y-73476337D01*
X152774035Y-73262171D01*
X152773723Y-73261726D01*
X152638496Y-73068600D01*
X152577711Y-73007815D01*
X152516567Y-72946671D01*
X152483084Y-72885351D01*
X152488068Y-72815659D01*
X152529939Y-72759725D01*
X152560915Y-72742810D01*
X152692331Y-72693796D01*
X152807546Y-72607546D01*
X152893796Y-72492331D01*
X152944091Y-72357483D01*
X152950500Y-72297873D01*
X152950499Y-70900000D01*
X154494355Y-70900000D01*
X154498693Y-70935727D01*
X154495387Y-70955609D01*
X154498949Y-70970062D01*
X154502552Y-70999735D01*
X154502552Y-71007815D01*
X154510521Y-71033142D01*
X154514859Y-71068870D01*
X154514861Y-71068878D01*
X154527623Y-71102528D01*
X154529171Y-71122624D01*
X154536082Y-71135792D01*
X154546682Y-71163742D01*
X154548613Y-71171579D01*
X154562417Y-71194271D01*
X154562574Y-71194685D01*
X154575182Y-71227931D01*
X154575184Y-71227934D01*
X154595628Y-71257553D01*
X154601938Y-71276689D01*
X154611808Y-71287830D01*
X154628789Y-71312431D01*
X154632543Y-71319584D01*
X154651367Y-71338304D01*
X154671813Y-71367925D01*
X154671814Y-71367926D01*
X154698757Y-71391796D01*
X154709466Y-71408869D01*
X154721713Y-71417323D01*
X154744088Y-71437147D01*
X154749438Y-71443186D01*
X154772204Y-71456864D01*
X154799145Y-71480732D01*
X154799151Y-71480736D01*
X154831011Y-71497457D01*
X154845499Y-71511475D01*
X154859418Y-71516754D01*
X154885888Y-71530647D01*
X154892533Y-71535234D01*
X154917906Y-71543063D01*
X154949775Y-71559790D01*
X154984714Y-71568401D01*
X155002128Y-71578540D01*
X155016911Y-71580336D01*
X155045932Y-71587490D01*
X155053496Y-71590358D01*
X155080003Y-71591887D01*
X155114941Y-71600499D01*
X155114942Y-71600500D01*
X155150937Y-71600500D01*
X155170285Y-71606181D01*
X155185049Y-71604388D01*
X155214954Y-71604388D01*
X155222950Y-71605359D01*
X155249063Y-71600500D01*
X155285058Y-71600500D01*
X155285060Y-71600499D01*
X155319994Y-71591889D01*
X155340131Y-71592774D01*
X155354064Y-71587490D01*
X155383088Y-71580335D01*
X155391113Y-71579360D01*
X155415280Y-71568403D01*
X155450225Y-71559790D01*
X155482089Y-71543065D01*
X155501855Y-71539105D01*
X155514112Y-71530645D01*
X155540582Y-71516753D01*
X155548133Y-71513888D01*
X155568985Y-71497459D01*
X155600852Y-71480734D01*
X155627792Y-71456866D01*
X155646037Y-71448290D01*
X155655907Y-71437150D01*
X155678285Y-71417324D01*
X155684928Y-71412738D01*
X155701243Y-71391795D01*
X155728183Y-71367929D01*
X155748629Y-71338306D01*
X155764290Y-71325614D01*
X155771209Y-71312432D01*
X155788192Y-71287827D01*
X155793546Y-71281783D01*
X155804372Y-71257549D01*
X155824818Y-71227930D01*
X155837580Y-71194278D01*
X155849751Y-71178203D01*
X155853314Y-71163747D01*
X155863916Y-71135791D01*
X155867664Y-71128649D01*
X155872378Y-71102522D01*
X155879023Y-71085001D01*
X155885140Y-71068872D01*
X155892886Y-71005072D01*
X155894229Y-70997743D01*
X155897448Y-70984686D01*
X155897448Y-70984679D01*
X155898012Y-70982392D01*
X155898020Y-70982353D01*
X155902982Y-70962217D01*
X155901307Y-70935724D01*
X155905645Y-70900000D01*
X155901307Y-70864271D01*
X155904612Y-70844391D01*
X155898005Y-70817584D01*
X155897999Y-70817551D01*
X155896907Y-70813119D01*
X155894232Y-70802266D01*
X155892885Y-70794915D01*
X155885140Y-70731128D01*
X155872376Y-70697474D01*
X155870828Y-70677376D01*
X155863916Y-70664207D01*
X155853314Y-70636252D01*
X155851382Y-70628415D01*
X155837580Y-70605722D01*
X155824818Y-70572070D01*
X155814517Y-70557147D01*
X155804372Y-70542449D01*
X155798059Y-70523308D01*
X155788190Y-70512168D01*
X155771209Y-70487565D01*
X155767458Y-70480418D01*
X155748631Y-70461694D01*
X155732866Y-70438856D01*
X155728183Y-70432071D01*
X155720895Y-70425614D01*
X155701241Y-70408202D01*
X155690529Y-70391126D01*
X155678285Y-70382674D01*
X155655909Y-70362850D01*
X155650563Y-70356816D01*
X155627794Y-70343134D01*
X155600856Y-70319269D01*
X155600851Y-70319265D01*
X155568981Y-70302538D01*
X155554496Y-70288522D01*
X155540579Y-70283244D01*
X155514109Y-70269351D01*
X155507471Y-70264769D01*
X155482095Y-70256937D01*
X155450225Y-70240210D01*
X155450224Y-70240209D01*
X155450223Y-70240209D01*
X155415277Y-70231596D01*
X155397850Y-70221449D01*
X155383074Y-70219655D01*
X155354050Y-70212502D01*
X155346511Y-70209643D01*
X155320002Y-70208112D01*
X155285061Y-70199500D01*
X155285056Y-70199500D01*
X155249072Y-70199500D01*
X155229734Y-70193821D01*
X155214945Y-70195617D01*
X155185060Y-70195617D01*
X155177028Y-70194642D01*
X155150929Y-70199500D01*
X155114944Y-70199500D01*
X155079995Y-70208113D01*
X155059858Y-70207226D01*
X155045952Y-70212501D01*
X155016924Y-70219655D01*
X155008918Y-70220626D01*
X154984722Y-70231595D01*
X154949781Y-70240207D01*
X154949774Y-70240210D01*
X154917901Y-70256938D01*
X154898133Y-70260897D01*
X154885884Y-70269353D01*
X154859420Y-70283243D01*
X154851874Y-70286104D01*
X154831019Y-70302537D01*
X154799152Y-70319263D01*
X154799148Y-70319266D01*
X154772200Y-70343139D01*
X154753954Y-70351714D01*
X154744087Y-70362852D01*
X154721713Y-70382674D01*
X154715078Y-70387253D01*
X154698761Y-70408199D01*
X154671817Y-70432070D01*
X154651366Y-70461698D01*
X154635704Y-70474389D01*
X154628788Y-70487567D01*
X154611809Y-70512166D01*
X154606458Y-70518205D01*
X154595630Y-70542444D01*
X154575184Y-70572065D01*
X154575182Y-70572069D01*
X154562416Y-70605729D01*
X154550245Y-70621801D01*
X154546683Y-70636254D01*
X154536084Y-70664202D01*
X154532338Y-70671339D01*
X154527624Y-70697470D01*
X154514860Y-70731126D01*
X154510521Y-70766858D01*
X154502552Y-70785372D01*
X154502552Y-70800263D01*
X154498949Y-70829936D01*
X154497016Y-70837778D01*
X154498693Y-70864271D01*
X154494355Y-70899999D01*
X154494355Y-70900000D01*
X152950499Y-70900000D01*
X152950499Y-70502128D01*
X152944091Y-70442517D01*
X152943414Y-70440703D01*
X152893797Y-70307671D01*
X152893793Y-70307664D01*
X152807547Y-70192455D01*
X152807544Y-70192452D01*
X152692335Y-70106206D01*
X152692328Y-70106202D01*
X152557482Y-70055908D01*
X152557483Y-70055908D01*
X152497883Y-70049501D01*
X152497881Y-70049500D01*
X152497873Y-70049500D01*
X152497864Y-70049500D01*
X150702129Y-70049500D01*
X150702123Y-70049501D01*
X150642516Y-70055908D01*
X150507671Y-70106202D01*
X150507664Y-70106206D01*
X150392455Y-70192452D01*
X150392452Y-70192455D01*
X150306206Y-70307664D01*
X150306202Y-70307671D01*
X150255908Y-70442517D01*
X150249501Y-70502116D01*
X150249501Y-70502123D01*
X150249500Y-70502135D01*
X150249500Y-72297870D01*
X150249501Y-72297876D01*
X150255908Y-72357483D01*
X150306202Y-72492328D01*
X150306206Y-72492335D01*
X150392452Y-72607544D01*
X150392455Y-72607547D01*
X150507664Y-72693793D01*
X150507671Y-72693797D01*
X150639081Y-72742810D01*
X150695015Y-72784681D01*
X150719432Y-72850145D01*
X150704580Y-72918418D01*
X150683430Y-72946673D01*
X150561503Y-73068600D01*
X150425965Y-73262169D01*
X150425964Y-73262171D01*
X150326098Y-73476335D01*
X150326094Y-73476344D01*
X150264938Y-73704586D01*
X150264936Y-73704596D01*
X150244341Y-73939999D01*
X150244341Y-73940000D01*
X150264936Y-74175403D01*
X150264938Y-74175413D01*
X150326094Y-74403655D01*
X150326096Y-74403659D01*
X150326097Y-74403663D01*
X150394639Y-74550651D01*
X150425965Y-74617830D01*
X150425967Y-74617834D01*
X150561501Y-74811395D01*
X150561506Y-74811402D01*
X150728597Y-74978493D01*
X150728603Y-74978498D01*
X150914158Y-75108425D01*
X150957783Y-75163002D01*
X150964977Y-75232500D01*
X150933454Y-75294855D01*
X150914158Y-75311575D01*
X150728597Y-75441505D01*
X150561505Y-75608597D01*
X150425965Y-75802169D01*
X150425964Y-75802171D01*
X150326098Y-76016335D01*
X150326094Y-76016344D01*
X150264938Y-76244586D01*
X150264936Y-76244596D01*
X150244341Y-76479999D01*
X150244341Y-76480000D01*
X147286012Y-76480000D01*
X147356744Y-76360398D01*
X147402598Y-76202569D01*
X147405233Y-76169085D01*
X147405500Y-76165696D01*
X147405500Y-74384304D01*
X147402598Y-74347432D01*
X147402597Y-74347426D01*
X147358138Y-74194400D01*
X147356744Y-74189602D01*
X147273081Y-74048135D01*
X147273079Y-74048133D01*
X147273076Y-74048129D01*
X147156870Y-73931923D01*
X147156862Y-73931917D01*
X147063476Y-73876689D01*
X147015398Y-73848256D01*
X147015397Y-73848255D01*
X147015396Y-73848255D01*
X147015393Y-73848254D01*
X146857573Y-73802402D01*
X146857567Y-73802401D01*
X146820696Y-73799500D01*
X146820694Y-73799500D01*
X146389306Y-73799500D01*
X146389304Y-73799500D01*
X146352432Y-73802401D01*
X146352426Y-73802402D01*
X146194606Y-73848254D01*
X146194603Y-73848255D01*
X146053140Y-73931915D01*
X146046974Y-73936699D01*
X146045174Y-73934379D01*
X145995913Y-73961230D01*
X145926225Y-73956193D01*
X145893992Y-73935461D01*
X145892722Y-73937100D01*
X145886552Y-73932314D01*
X145745196Y-73848717D01*
X145745193Y-73848716D01*
X145587494Y-73802900D01*
X145587497Y-73802900D01*
X145585000Y-73802703D01*
X145585000Y-76747295D01*
X145085000Y-76747295D01*
X145085000Y-73802703D01*
X145082503Y-73802900D01*
X144924806Y-73848716D01*
X144924803Y-73848717D01*
X144783449Y-73932313D01*
X144777283Y-73937097D01*
X144775389Y-73934655D01*
X144726580Y-73961239D01*
X144656894Y-73956179D01*
X144624227Y-73935159D01*
X144623031Y-73936702D01*
X144616862Y-73931917D01*
X144523476Y-73876689D01*
X144475398Y-73848256D01*
X144475397Y-73848255D01*
X144475396Y-73848255D01*
X144475393Y-73848254D01*
X144317573Y-73802402D01*
X144317567Y-73802401D01*
X144280696Y-73799500D01*
X144280694Y-73799500D01*
X143849306Y-73799500D01*
X143849304Y-73799500D01*
X143812432Y-73802401D01*
X143812426Y-73802402D01*
X143654606Y-73848254D01*
X143654603Y-73848255D01*
X143513137Y-73931917D01*
X143506969Y-73936702D01*
X143505072Y-73934256D01*
X143456358Y-73960857D01*
X143386666Y-73955873D01*
X143354296Y-73935069D01*
X143353031Y-73936702D01*
X143346862Y-73931917D01*
X143253476Y-73876689D01*
X143205398Y-73848256D01*
X143205397Y-73848255D01*
X143205396Y-73848255D01*
X143205393Y-73848254D01*
X143047573Y-73802402D01*
X143047567Y-73802401D01*
X143010696Y-73799500D01*
X143010694Y-73799500D01*
X142579306Y-73799500D01*
X142579304Y-73799500D01*
X142542432Y-73802401D01*
X142542426Y-73802402D01*
X142384606Y-73848254D01*
X142384591Y-73848260D01*
X142384579Y-73848268D01*
X142384567Y-73848270D01*
X142377446Y-73851353D01*
X142376948Y-73850202D01*
X142316852Y-73865439D01*
X142250594Y-73843268D01*
X142233796Y-73829206D01*
X141485008Y-73080418D01*
X140723631Y-72319040D01*
X140690146Y-72257717D01*
X140693606Y-72192355D01*
X140714999Y-72127797D01*
X140725500Y-72025009D01*
X140725499Y-71249992D01*
X140723245Y-71227931D01*
X140714999Y-71147203D01*
X140714998Y-71147200D01*
X140696977Y-71092817D01*
X140659814Y-70980666D01*
X140567712Y-70831344D01*
X140443656Y-70707288D01*
X140440819Y-70705538D01*
X140439283Y-70703830D01*
X140437989Y-70702807D01*
X140438163Y-70702585D01*
X140394096Y-70653594D01*
X140382872Y-70584632D01*
X140410713Y-70520549D01*
X140440817Y-70494462D01*
X140443656Y-70492712D01*
X140567712Y-70368656D01*
X140642809Y-70246902D01*
X140694757Y-70200179D01*
X140748348Y-70188000D01*
X141722048Y-70188000D01*
X141789087Y-70207685D01*
X141809729Y-70224319D01*
X141958181Y-70372771D01*
X141991666Y-70434094D01*
X141994500Y-70460452D01*
X141994500Y-71215696D01*
X141997401Y-71252567D01*
X141997402Y-71252573D01*
X142043254Y-71410393D01*
X142043255Y-71410396D01*
X142043256Y-71410398D01*
X142049139Y-71420346D01*
X142126917Y-71551862D01*
X142126923Y-71551870D01*
X142243129Y-71668076D01*
X142243133Y-71668079D01*
X142243135Y-71668081D01*
X142384602Y-71751744D01*
X142426224Y-71763836D01*
X142542426Y-71797597D01*
X142542429Y-71797597D01*
X142542431Y-71797598D01*
X142554722Y-71798565D01*
X142579304Y-71800500D01*
X142579306Y-71800500D01*
X143010696Y-71800500D01*
X143029131Y-71799049D01*
X143047569Y-71797598D01*
X143047571Y-71797597D01*
X143047573Y-71797597D01*
X143125382Y-71774991D01*
X143205398Y-71751744D01*
X143346865Y-71668081D01*
X143346870Y-71668076D01*
X143353026Y-71663301D01*
X143354927Y-71665752D01*
X143403579Y-71639154D01*
X143473274Y-71644103D01*
X143505700Y-71664942D01*
X143506974Y-71663301D01*
X143513139Y-71668084D01*
X143563896Y-71698101D01*
X143654602Y-71751744D01*
X143696224Y-71763836D01*
X143812426Y-71797597D01*
X143812429Y-71797597D01*
X143812431Y-71797598D01*
X143824722Y-71798565D01*
X143849304Y-71800500D01*
X143849306Y-71800500D01*
X144280696Y-71800500D01*
X144299131Y-71799049D01*
X144317569Y-71797598D01*
X144317571Y-71797597D01*
X144317573Y-71797597D01*
X144395382Y-71774991D01*
X144475398Y-71751744D01*
X144616865Y-71668081D01*
X144616870Y-71668076D01*
X144623026Y-71663301D01*
X144624927Y-71665752D01*
X144673579Y-71639154D01*
X144743274Y-71644103D01*
X144775700Y-71664942D01*
X144776974Y-71663301D01*
X144783139Y-71668084D01*
X144833896Y-71698101D01*
X144924602Y-71751744D01*
X144966224Y-71763836D01*
X145082426Y-71797597D01*
X145082429Y-71797597D01*
X145082431Y-71797598D01*
X145094722Y-71798565D01*
X145119304Y-71800500D01*
X145119306Y-71800500D01*
X145550696Y-71800500D01*
X145569131Y-71799049D01*
X145587569Y-71797598D01*
X145587571Y-71797597D01*
X145587573Y-71797597D01*
X145665382Y-71774991D01*
X145745398Y-71751744D01*
X145886865Y-71668081D01*
X145886870Y-71668076D01*
X145893026Y-71663301D01*
X145894927Y-71665752D01*
X145943579Y-71639154D01*
X146013274Y-71644103D01*
X146045700Y-71664942D01*
X146046974Y-71663301D01*
X146053139Y-71668084D01*
X146103896Y-71698101D01*
X146194602Y-71751744D01*
X146236224Y-71763836D01*
X146352426Y-71797597D01*
X146352429Y-71797597D01*
X146352431Y-71797598D01*
X146364722Y-71798565D01*
X146389304Y-71800500D01*
X146389306Y-71800500D01*
X146820696Y-71800500D01*
X146839131Y-71799049D01*
X146857569Y-71797598D01*
X146857571Y-71797597D01*
X146857573Y-71797597D01*
X146935382Y-71774991D01*
X147015398Y-71751744D01*
X147156865Y-71668081D01*
X147273081Y-71551865D01*
X147356744Y-71410398D01*
X147402306Y-71253571D01*
X147439913Y-71194685D01*
X147503385Y-71165479D01*
X147547164Y-71166876D01*
X147705354Y-71200500D01*
X147705355Y-71200500D01*
X147894644Y-71200500D01*
X147894646Y-71200500D01*
X148079803Y-71161144D01*
X148252730Y-71084151D01*
X148405871Y-70972888D01*
X148532533Y-70832216D01*
X148627179Y-70668284D01*
X148685674Y-70488256D01*
X148705460Y-70300000D01*
X148685674Y-70111744D01*
X148627179Y-69931716D01*
X148532533Y-69767784D01*
X148405871Y-69627112D01*
X148405870Y-69627111D01*
X148252734Y-69515851D01*
X148252729Y-69515848D01*
X148079807Y-69438857D01*
X148079802Y-69438855D01*
X147913342Y-69403474D01*
X147894646Y-69399500D01*
X147705354Y-69399500D01*
X147590555Y-69423900D01*
X147533481Y-69436032D01*
X147463814Y-69430715D01*
X147408081Y-69388577D01*
X147388625Y-69349336D01*
X147366535Y-69273303D01*
X147356744Y-69239602D01*
X147273081Y-69098135D01*
X147273079Y-69098133D01*
X147273076Y-69098129D01*
X147156870Y-68981923D01*
X147156862Y-68981917D01*
X147047625Y-68917315D01*
X147015398Y-68898256D01*
X147015397Y-68898255D01*
X147015396Y-68898255D01*
X147015393Y-68898254D01*
X146857573Y-68852402D01*
X146857567Y-68852401D01*
X146820696Y-68849500D01*
X146820694Y-68849500D01*
X146389306Y-68849500D01*
X146389304Y-68849500D01*
X146352432Y-68852401D01*
X146352426Y-68852402D01*
X146194606Y-68898254D01*
X146194603Y-68898255D01*
X146053137Y-68981917D01*
X146046969Y-68986702D01*
X146045072Y-68984256D01*
X145996358Y-69010857D01*
X145926666Y-69005873D01*
X145894296Y-68985069D01*
X145893031Y-68986702D01*
X145886862Y-68981917D01*
X145777625Y-68917315D01*
X145745398Y-68898256D01*
X145745397Y-68898255D01*
X145745396Y-68898255D01*
X145745393Y-68898254D01*
X145587573Y-68852402D01*
X145587567Y-68852401D01*
X145550696Y-68849500D01*
X145550694Y-68849500D01*
X145119306Y-68849500D01*
X145119304Y-68849500D01*
X145082432Y-68852401D01*
X145082426Y-68852402D01*
X144924606Y-68898254D01*
X144924603Y-68898255D01*
X144783137Y-68981917D01*
X144776969Y-68986702D01*
X144775072Y-68984256D01*
X144726358Y-69010857D01*
X144656666Y-69005873D01*
X144624296Y-68985069D01*
X144623031Y-68986702D01*
X144616862Y-68981917D01*
X144507625Y-68917315D01*
X144475398Y-68898256D01*
X144475397Y-68898255D01*
X144475396Y-68898255D01*
X144475393Y-68898254D01*
X144317573Y-68852402D01*
X144317567Y-68852401D01*
X144280696Y-68849500D01*
X144280694Y-68849500D01*
X143849306Y-68849500D01*
X143849304Y-68849500D01*
X143812432Y-68852401D01*
X143812426Y-68852402D01*
X143654606Y-68898254D01*
X143654603Y-68898255D01*
X143513137Y-68981917D01*
X143506969Y-68986702D01*
X143505072Y-68984256D01*
X143456358Y-69010857D01*
X143386666Y-69005873D01*
X143354296Y-68985069D01*
X143353031Y-68986702D01*
X143346862Y-68981917D01*
X143237625Y-68917315D01*
X143205398Y-68898256D01*
X143205397Y-68898255D01*
X143205396Y-68898255D01*
X143205393Y-68898254D01*
X143047573Y-68852402D01*
X143047567Y-68852401D01*
X143010696Y-68849500D01*
X143010694Y-68849500D01*
X142579306Y-68849500D01*
X142579304Y-68849500D01*
X142542432Y-68852401D01*
X142542426Y-68852402D01*
X142384606Y-68898254D01*
X142384605Y-68898254D01*
X142306062Y-68944704D01*
X142238338Y-68961886D01*
X142210405Y-68957379D01*
X142162374Y-68949772D01*
X142156652Y-68948587D01*
X142111521Y-68937000D01*
X142111519Y-68937000D01*
X142091484Y-68937000D01*
X142072086Y-68935473D01*
X142064662Y-68934297D01*
X142052305Y-68932340D01*
X142052304Y-68932340D01*
X142005916Y-68936725D01*
X142000078Y-68937000D01*
X140748348Y-68937000D01*
X140681309Y-68917315D01*
X140642809Y-68878097D01*
X140567712Y-68756344D01*
X140443656Y-68632288D01*
X140311268Y-68550631D01*
X140294336Y-68540187D01*
X140294331Y-68540185D01*
X140264014Y-68530139D01*
X140127797Y-68485001D01*
X140127795Y-68485000D01*
X140025010Y-68474500D01*
X138974998Y-68474500D01*
X138974980Y-68474501D01*
X138872203Y-68485000D01*
X138872200Y-68485001D01*
X138705668Y-68540185D01*
X138705663Y-68540187D01*
X138556342Y-68632289D01*
X138432289Y-68756342D01*
X138340187Y-68905663D01*
X138340185Y-68905668D01*
X138320586Y-68964815D01*
X138285001Y-69072203D01*
X138285001Y-69072204D01*
X138285000Y-69072204D01*
X138274500Y-69174983D01*
X138274500Y-69206264D01*
X138254815Y-69273303D01*
X138202011Y-69319058D01*
X138132853Y-69329002D01*
X138077615Y-69306582D01*
X137952734Y-69215851D01*
X137952729Y-69215848D01*
X137779807Y-69138857D01*
X137779802Y-69138855D01*
X137634001Y-69107865D01*
X137594646Y-69099500D01*
X137405354Y-69099500D01*
X137372897Y-69106398D01*
X137220197Y-69138855D01*
X137220192Y-69138857D01*
X137047270Y-69215848D01*
X137047265Y-69215851D01*
X136894129Y-69327111D01*
X136767466Y-69467785D01*
X136672821Y-69631715D01*
X136672818Y-69631722D01*
X136614327Y-69811740D01*
X136614326Y-69811744D01*
X136594540Y-70000000D01*
X133362500Y-70000000D01*
X133362500Y-68725000D01*
X133862500Y-68725000D01*
X133862500Y-69700000D01*
X134699999Y-69700000D01*
X134699999Y-69425028D01*
X134699998Y-69425013D01*
X134689505Y-69322302D01*
X134634358Y-69155880D01*
X134634356Y-69155875D01*
X134542315Y-69006654D01*
X134418345Y-68882684D01*
X134269124Y-68790643D01*
X134269119Y-68790641D01*
X134102697Y-68735494D01*
X134102690Y-68735493D01*
X133999986Y-68725000D01*
X133862500Y-68725000D01*
X133362500Y-68725000D01*
X133225027Y-68725000D01*
X133225012Y-68725001D01*
X133122302Y-68735494D01*
X132955880Y-68790641D01*
X132955875Y-68790643D01*
X132806654Y-68882684D01*
X132682683Y-69006655D01*
X132682679Y-69006660D01*
X132680826Y-69009665D01*
X132679018Y-69011290D01*
X132678202Y-69012323D01*
X132678025Y-69012183D01*
X132628874Y-69056385D01*
X132559911Y-69067601D01*
X132495831Y-69039752D01*
X132469753Y-69009653D01*
X132469737Y-69009628D01*
X132467712Y-69006344D01*
X132343656Y-68882288D01*
X132250888Y-68825068D01*
X132194336Y-68790187D01*
X132194331Y-68790185D01*
X132192862Y-68789698D01*
X132027797Y-68735001D01*
X132027795Y-68735000D01*
X131925010Y-68724500D01*
X131149998Y-68724500D01*
X131149980Y-68724501D01*
X131047203Y-68735000D01*
X131047200Y-68735001D01*
X130880668Y-68790185D01*
X130880663Y-68790187D01*
X130731342Y-68882289D01*
X130607289Y-69006342D01*
X130515187Y-69155663D01*
X130515185Y-69155668D01*
X130510901Y-69168597D01*
X130460001Y-69322203D01*
X130460001Y-69322204D01*
X130460000Y-69322204D01*
X130449500Y-69424983D01*
X130449500Y-70475001D01*
X130449501Y-70475019D01*
X130460000Y-70577796D01*
X130460001Y-70577799D01*
X130498639Y-70694400D01*
X130515186Y-70744334D01*
X130607288Y-70893656D01*
X130607289Y-70893657D01*
X130607290Y-70893658D01*
X130611766Y-70899319D01*
X130609424Y-70901170D01*
X130636439Y-70950645D01*
X130631455Y-71020337D01*
X130589583Y-71076270D01*
X130588160Y-71077320D01*
X130519628Y-71127112D01*
X130392966Y-71267785D01*
X130298321Y-71431715D01*
X130298319Y-71431719D01*
X130288882Y-71460765D01*
X130249444Y-71518440D01*
X130185085Y-71545638D01*
X130116238Y-71533723D01*
X130064763Y-71486478D01*
X130060473Y-71478754D01*
X130033208Y-71425243D01*
X129913090Y-71276910D01*
X129764757Y-71156792D01*
X129764754Y-71156790D01*
X129764230Y-71156366D01*
X129724519Y-71098879D01*
X129722191Y-71029048D01*
X129757986Y-70969044D01*
X129764230Y-70963634D01*
X129764754Y-70963209D01*
X129764757Y-70963208D01*
X129913090Y-70843090D01*
X130033208Y-70694757D01*
X130119861Y-70524691D01*
X130169261Y-70340325D01*
X130173338Y-70288522D01*
X130175500Y-70261057D01*
X130175500Y-69318943D01*
X130169261Y-69239677D01*
X130169261Y-69239676D01*
X130169261Y-69239675D01*
X130119861Y-69055309D01*
X130033208Y-68885243D01*
X129913090Y-68736910D01*
X129764757Y-68616792D01*
X129764756Y-68616791D01*
X129763833Y-68616044D01*
X129724122Y-68558557D01*
X129721794Y-68488726D01*
X129757590Y-68428722D01*
X129763833Y-68423312D01*
X129912733Y-68302733D01*
X130032786Y-68154483D01*
X130032787Y-68154481D01*
X130119390Y-67984509D01*
X130168765Y-67800242D01*
X130174830Y-67723168D01*
X130199713Y-67657879D01*
X130255943Y-67616407D01*
X130325669Y-67611920D01*
X130386752Y-67645841D01*
X130416379Y-67694576D01*
X130472819Y-67868280D01*
X130472821Y-67868284D01*
X130567467Y-68032216D01*
X130614230Y-68084151D01*
X130694129Y-68172888D01*
X130847265Y-68284148D01*
X130847270Y-68284151D01*
X131020192Y-68361142D01*
X131020197Y-68361144D01*
X131205354Y-68400500D01*
X131205355Y-68400500D01*
X131394644Y-68400500D01*
X131394646Y-68400500D01*
X131579803Y-68361144D01*
X131752730Y-68284151D01*
X131905871Y-68172888D01*
X132032533Y-68032216D01*
X132127179Y-67868284D01*
X132185674Y-67688256D01*
X132205460Y-67500000D01*
X132185674Y-67311744D01*
X132127179Y-67131716D01*
X132108868Y-67100000D01*
X134594540Y-67100000D01*
X134614326Y-67288256D01*
X134614327Y-67288259D01*
X134672818Y-67468277D01*
X134672821Y-67468284D01*
X134767467Y-67632216D01*
X134862995Y-67738310D01*
X134894129Y-67772888D01*
X135047265Y-67884148D01*
X135047270Y-67884151D01*
X135220192Y-67961142D01*
X135220197Y-67961144D01*
X135405354Y-68000500D01*
X135405355Y-68000500D01*
X135594644Y-68000500D01*
X135594646Y-68000500D01*
X135779803Y-67961144D01*
X135952730Y-67884151D01*
X136105871Y-67772888D01*
X136232533Y-67632216D01*
X136327179Y-67468284D01*
X136385674Y-67288256D01*
X136405460Y-67100000D01*
X138894540Y-67100000D01*
X138914326Y-67288256D01*
X138914327Y-67288259D01*
X138972818Y-67468277D01*
X138972821Y-67468284D01*
X139067467Y-67632216D01*
X139162995Y-67738310D01*
X139194129Y-67772888D01*
X139347265Y-67884148D01*
X139347270Y-67884151D01*
X139520192Y-67961142D01*
X139520197Y-67961144D01*
X139705354Y-68000500D01*
X139705355Y-68000500D01*
X139894644Y-68000500D01*
X139894646Y-68000500D01*
X140079803Y-67961144D01*
X140252730Y-67884151D01*
X140405871Y-67772888D01*
X140532533Y-67632216D01*
X140627179Y-67468284D01*
X140685674Y-67288256D01*
X140705460Y-67100000D01*
X140685674Y-66911744D01*
X140627179Y-66731716D01*
X140532533Y-66567784D01*
X140405871Y-66427112D01*
X140405626Y-66426934D01*
X140252734Y-66315851D01*
X140252729Y-66315848D01*
X140079807Y-66238857D01*
X140079802Y-66238855D01*
X139934000Y-66207865D01*
X139894646Y-66199500D01*
X139705354Y-66199500D01*
X139672897Y-66206398D01*
X139520197Y-66238855D01*
X139520192Y-66238857D01*
X139347270Y-66315848D01*
X139347265Y-66315851D01*
X139194129Y-66427111D01*
X139067466Y-66567785D01*
X138972821Y-66731715D01*
X138972818Y-66731722D01*
X138914516Y-66911158D01*
X138914326Y-66911744D01*
X138894540Y-67100000D01*
X136405460Y-67100000D01*
X136385674Y-66911744D01*
X136327179Y-66731716D01*
X136232533Y-66567784D01*
X136105871Y-66427112D01*
X136105626Y-66426934D01*
X135952734Y-66315851D01*
X135952729Y-66315848D01*
X135779807Y-66238857D01*
X135779802Y-66238855D01*
X135634001Y-66207865D01*
X135594646Y-66199500D01*
X135405354Y-66199500D01*
X135372897Y-66206398D01*
X135220197Y-66238855D01*
X135220192Y-66238857D01*
X135047270Y-66315848D01*
X135047265Y-66315851D01*
X134894129Y-66427111D01*
X134767466Y-66567785D01*
X134672821Y-66731715D01*
X134672818Y-66731722D01*
X134614516Y-66911158D01*
X134614326Y-66911744D01*
X134594540Y-67100000D01*
X132108868Y-67100000D01*
X132032533Y-66967784D01*
X131905871Y-66827112D01*
X131905870Y-66827111D01*
X131752734Y-66715851D01*
X131752729Y-66715848D01*
X131579807Y-66638857D01*
X131579802Y-66638855D01*
X131423344Y-66605600D01*
X131394646Y-66599500D01*
X131205354Y-66599500D01*
X131176656Y-66605600D01*
X131020197Y-66638855D01*
X131020192Y-66638857D01*
X130847270Y-66715848D01*
X130847265Y-66715851D01*
X130694129Y-66827111D01*
X130567466Y-66967785D01*
X130472821Y-67131715D01*
X130472818Y-67131722D01*
X130415393Y-67308459D01*
X130414326Y-67311744D01*
X130406660Y-67384686D01*
X130400834Y-67440113D01*
X130374249Y-67504728D01*
X130316951Y-67544712D01*
X130247132Y-67547372D01*
X130189832Y-67514832D01*
X130175000Y-67500000D01*
X127175000Y-67500000D01*
X127175000Y-67721022D01*
X127181234Y-67800242D01*
X127230609Y-67984509D01*
X127317212Y-68154481D01*
X127317213Y-68154483D01*
X127437266Y-68302733D01*
X127586166Y-68423312D01*
X127625878Y-68480800D01*
X127628205Y-68550631D01*
X127592409Y-68610634D01*
X127586166Y-68616044D01*
X127436910Y-68736910D01*
X127316796Y-68885237D01*
X127316793Y-68885240D01*
X127316792Y-68885243D01*
X127238066Y-69039752D01*
X127230138Y-69055311D01*
X127225508Y-69072593D01*
X127189143Y-69132253D01*
X127126297Y-69162783D01*
X127105733Y-69164500D01*
X126511708Y-69164500D01*
X126444669Y-69144815D01*
X126398914Y-69092011D01*
X126388388Y-69053464D01*
X126370807Y-68886188D01*
X126312312Y-68706160D01*
X126217666Y-68542228D01*
X126091004Y-68401556D01*
X126089551Y-68400500D01*
X125937867Y-68290295D01*
X125937862Y-68290292D01*
X125764940Y-68213301D01*
X125764935Y-68213299D01*
X125598061Y-68177830D01*
X125579779Y-68173944D01*
X125390487Y-68173944D01*
X125372205Y-68177830D01*
X125205330Y-68213299D01*
X125205325Y-68213301D01*
X125032403Y-68290292D01*
X125032398Y-68290295D01*
X124879262Y-68401555D01*
X124752599Y-68542229D01*
X124657954Y-68706159D01*
X124657951Y-68706166D01*
X124599460Y-68886184D01*
X124599459Y-68886188D01*
X124586356Y-69010857D01*
X124579868Y-69072593D01*
X124579673Y-69074444D01*
X124599459Y-69262700D01*
X124599460Y-69262703D01*
X124657951Y-69442721D01*
X124657954Y-69442728D01*
X124752600Y-69606660D01*
X124869287Y-69736254D01*
X124879262Y-69747332D01*
X125032398Y-69858592D01*
X125032403Y-69858595D01*
X125205325Y-69935586D01*
X125205330Y-69935588D01*
X125390487Y-69974944D01*
X125449680Y-69974944D01*
X125516719Y-69994629D01*
X125537361Y-70011263D01*
X125699886Y-70173788D01*
X125709711Y-70186051D01*
X125709932Y-70185869D01*
X125714903Y-70191878D01*
X125736865Y-70212501D01*
X125765324Y-70239226D01*
X125786218Y-70260120D01*
X125791700Y-70264373D01*
X125796132Y-70268157D01*
X125830107Y-70300062D01*
X125847665Y-70309714D01*
X125863922Y-70320393D01*
X125879753Y-70332673D01*
X125897429Y-70340322D01*
X125922522Y-70351182D01*
X125927766Y-70353750D01*
X125968597Y-70376197D01*
X125981212Y-70379435D01*
X125987994Y-70381177D01*
X126006408Y-70387481D01*
X126024793Y-70395438D01*
X126070846Y-70402732D01*
X126076515Y-70403906D01*
X126121670Y-70415500D01*
X126141705Y-70415500D01*
X126161102Y-70417026D01*
X126180885Y-70420160D01*
X126227272Y-70415775D01*
X126233111Y-70415500D01*
X126416116Y-70415500D01*
X126483155Y-70435185D01*
X126528910Y-70487989D01*
X126538854Y-70557147D01*
X126509829Y-70620703D01*
X126508266Y-70622472D01*
X126467466Y-70667785D01*
X126372821Y-70831715D01*
X126372818Y-70831722D01*
X126314327Y-71011740D01*
X126314326Y-71011744D01*
X126294540Y-71200000D01*
X126314326Y-71388256D01*
X126314327Y-71388259D01*
X126372818Y-71568277D01*
X126372821Y-71568284D01*
X126467467Y-71732216D01*
X126581573Y-71858943D01*
X126594129Y-71872888D01*
X126747265Y-71984148D01*
X126747270Y-71984151D01*
X126920192Y-72061142D01*
X126920193Y-72061142D01*
X126920197Y-72061144D01*
X127076280Y-72094320D01*
X127137762Y-72127512D01*
X127171539Y-72188675D01*
X127174500Y-72215610D01*
X127174500Y-72801057D01*
X127180738Y-72880322D01*
X127180738Y-72880323D01*
X127224457Y-73043486D01*
X127230139Y-73064691D01*
X127316792Y-73234757D01*
X127316795Y-73234761D01*
X127316796Y-73234762D01*
X127323640Y-73243213D01*
X127436910Y-73383090D01*
X127563273Y-73485417D01*
X127585769Y-73503634D01*
X127625480Y-73561121D01*
X127627808Y-73630952D01*
X127592012Y-73690956D01*
X127585769Y-73696366D01*
X127436910Y-73816910D01*
X127316796Y-73965237D01*
X127316791Y-73965244D01*
X127230137Y-74135312D01*
X127224025Y-74158123D01*
X127187660Y-74217783D01*
X127124813Y-74248311D01*
X127104251Y-74250028D01*
X126980854Y-74250028D01*
X126948397Y-74256926D01*
X126795697Y-74289383D01*
X126795692Y-74289385D01*
X126622770Y-74366376D01*
X126622765Y-74366379D01*
X126469629Y-74477639D01*
X126342966Y-74618313D01*
X126248321Y-74782243D01*
X126248318Y-74782250D01*
X126191226Y-74957962D01*
X126189826Y-74962272D01*
X126170040Y-75150528D01*
X126189826Y-75338784D01*
X126189827Y-75338787D01*
X126248318Y-75518805D01*
X126248321Y-75518812D01*
X126342967Y-75682744D01*
X126450498Y-75802169D01*
X126469629Y-75823416D01*
X126622765Y-75934676D01*
X126622770Y-75934679D01*
X126795692Y-76011670D01*
X126795697Y-76011672D01*
X126980854Y-76051028D01*
X126980855Y-76051028D01*
X127170144Y-76051028D01*
X127170146Y-76051028D01*
X127355303Y-76011672D01*
X127409121Y-75987709D01*
X127478371Y-75978424D01*
X127537593Y-76004623D01*
X127570155Y-76030991D01*
X127609867Y-76088478D01*
X127612195Y-76158308D01*
X127576400Y-76218312D01*
X127555630Y-76232807D01*
X127555922Y-76233256D01*
X127550469Y-76236796D01*
X127402142Y-76356910D01*
X127282028Y-76505237D01*
X127282025Y-76505240D01*
X127282024Y-76505243D01*
X127221867Y-76623308D01*
X127195370Y-76675311D01*
X127145970Y-76859676D01*
X127145970Y-76859677D01*
X127139732Y-76938943D01*
X127139732Y-77881057D01*
X127145970Y-77960322D01*
X127145971Y-77960326D01*
X127168551Y-78044599D01*
X127166888Y-78114449D01*
X127127724Y-78172311D01*
X127063496Y-78199814D01*
X126994593Y-78188227D01*
X126961095Y-78164372D01*
X125832453Y-77035730D01*
X124112936Y-75316212D01*
X124103113Y-75303950D01*
X124102892Y-75304134D01*
X124097919Y-75298123D01*
X124073286Y-75274991D01*
X124047497Y-75250773D01*
X124037052Y-75240328D01*
X124026608Y-75229883D01*
X124021119Y-75225625D01*
X124016694Y-75221847D01*
X123982715Y-75189938D01*
X123982713Y-75189936D01*
X123982710Y-75189935D01*
X123965162Y-75180288D01*
X123948896Y-75169604D01*
X123946457Y-75167712D01*
X123933069Y-75157327D01*
X123933068Y-75157326D01*
X123933066Y-75157325D01*
X123890301Y-75138818D01*
X123885055Y-75136248D01*
X123844226Y-75113803D01*
X123844225Y-75113802D01*
X123824826Y-75108822D01*
X123806414Y-75102518D01*
X123788031Y-75094562D01*
X123788025Y-75094560D01*
X123742007Y-75087272D01*
X123736285Y-75086087D01*
X123691154Y-75074500D01*
X123691152Y-75074500D01*
X123671117Y-75074500D01*
X123651719Y-75072973D01*
X123644295Y-75071797D01*
X123631938Y-75069840D01*
X123631937Y-75069840D01*
X123585549Y-75074225D01*
X123579711Y-75074500D01*
X121110454Y-75074500D01*
X121043415Y-75054815D01*
X121022773Y-75038181D01*
X118845851Y-72861259D01*
X118812366Y-72799936D01*
X118817350Y-72730244D01*
X118841382Y-72690606D01*
X118843411Y-72688353D01*
X118924224Y-72598601D01*
X119018870Y-72434669D01*
X119077365Y-72254641D01*
X119097151Y-72066385D01*
X119077365Y-71878129D01*
X119018870Y-71698101D01*
X118924224Y-71534169D01*
X118797562Y-71393497D01*
X118795221Y-71391796D01*
X118644425Y-71282236D01*
X118644420Y-71282233D01*
X118471498Y-71205242D01*
X118471493Y-71205240D01*
X118313125Y-71171579D01*
X118286337Y-71165885D01*
X118286336Y-71165885D01*
X118227143Y-71165885D01*
X118160104Y-71146200D01*
X118139462Y-71129566D01*
X114311819Y-67301922D01*
X114278334Y-67240599D01*
X114275500Y-67214241D01*
X114275500Y-66778943D01*
X114270534Y-66715848D01*
X114269261Y-66699675D01*
X114219861Y-66515309D01*
X114133208Y-66345243D01*
X114013090Y-66196910D01*
X113864757Y-66076792D01*
X113864754Y-66076790D01*
X113864230Y-66076366D01*
X113824519Y-66018879D01*
X113822191Y-65949048D01*
X113857986Y-65889044D01*
X113864230Y-65883634D01*
X113864754Y-65883209D01*
X113864757Y-65883208D01*
X114013090Y-65763090D01*
X114133208Y-65614757D01*
X114219861Y-65444691D01*
X114269261Y-65260325D01*
X114275500Y-65181057D01*
X127174500Y-65181057D01*
X127180738Y-65260322D01*
X127180738Y-65260323D01*
X127230138Y-65444688D01*
X127230139Y-65444691D01*
X127316792Y-65614757D01*
X127436910Y-65763090D01*
X127585243Y-65883208D01*
X127585244Y-65883208D01*
X127586166Y-65883955D01*
X127625877Y-65941442D01*
X127628205Y-66011273D01*
X127592409Y-66071277D01*
X127586167Y-66076686D01*
X127437266Y-66197265D01*
X127317213Y-66345516D01*
X127317212Y-66345518D01*
X127230609Y-66515490D01*
X127181234Y-66699757D01*
X127175000Y-66778978D01*
X127175000Y-67000000D01*
X130175000Y-67000000D01*
X130175000Y-66778978D01*
X130168765Y-66699757D01*
X130119390Y-66515490D01*
X130032787Y-66345518D01*
X130032786Y-66345516D01*
X129912733Y-66197266D01*
X129792622Y-66100000D01*
X132194540Y-66100000D01*
X132214326Y-66288256D01*
X132214327Y-66288259D01*
X132272818Y-66468277D01*
X132272821Y-66468284D01*
X132367467Y-66632216D01*
X132457063Y-66731722D01*
X132494129Y-66772888D01*
X132647265Y-66884148D01*
X132647270Y-66884151D01*
X132820192Y-66961142D01*
X132820197Y-66961144D01*
X133005354Y-67000500D01*
X133005355Y-67000500D01*
X133194644Y-67000500D01*
X133194646Y-67000500D01*
X133379803Y-66961144D01*
X133552730Y-66884151D01*
X133705871Y-66772888D01*
X133832533Y-66632216D01*
X133927179Y-66468284D01*
X133985674Y-66288256D01*
X134005460Y-66100000D01*
X133985674Y-65911744D01*
X133927179Y-65731716D01*
X133832533Y-65567784D01*
X133705871Y-65427112D01*
X133677062Y-65406181D01*
X133552734Y-65315851D01*
X133552729Y-65315848D01*
X133379807Y-65238857D01*
X133379802Y-65238855D01*
X133234001Y-65207865D01*
X133194646Y-65199500D01*
X133005354Y-65199500D01*
X132972897Y-65206398D01*
X132820197Y-65238855D01*
X132820192Y-65238857D01*
X132647270Y-65315848D01*
X132647265Y-65315851D01*
X132494129Y-65427111D01*
X132367466Y-65567785D01*
X132272821Y-65731715D01*
X132272818Y-65731722D01*
X132214327Y-65911740D01*
X132214326Y-65911744D01*
X132194540Y-66100000D01*
X129792622Y-66100000D01*
X129763833Y-66076687D01*
X129724121Y-66019199D01*
X129721794Y-65949368D01*
X129757590Y-65889365D01*
X129763833Y-65883955D01*
X129764752Y-65883210D01*
X129764757Y-65883208D01*
X129913090Y-65763090D01*
X130033208Y-65614757D01*
X130119861Y-65444691D01*
X130169261Y-65260325D01*
X130175500Y-65181054D01*
X130175500Y-64300000D01*
X136594540Y-64300000D01*
X136614326Y-64488256D01*
X136614327Y-64488259D01*
X136672818Y-64668277D01*
X136672821Y-64668284D01*
X136767467Y-64832216D01*
X136848871Y-64922624D01*
X136894129Y-64972888D01*
X137047265Y-65084148D01*
X137047270Y-65084151D01*
X137220192Y-65161142D01*
X137220197Y-65161144D01*
X137405354Y-65200500D01*
X137405355Y-65200500D01*
X137594644Y-65200500D01*
X137594646Y-65200500D01*
X137779803Y-65161144D01*
X137952730Y-65084151D01*
X138105871Y-64972888D01*
X138232533Y-64832216D01*
X138327179Y-64668284D01*
X138385674Y-64488256D01*
X138405460Y-64300000D01*
X138385674Y-64111744D01*
X138327179Y-63931716D01*
X138232533Y-63767784D01*
X138105871Y-63627112D01*
X138105870Y-63627111D01*
X137952734Y-63515851D01*
X137952729Y-63515848D01*
X137779807Y-63438857D01*
X137779802Y-63438855D01*
X137634000Y-63407865D01*
X137594646Y-63399500D01*
X137405354Y-63399500D01*
X137372897Y-63406398D01*
X137220197Y-63438855D01*
X137220192Y-63438857D01*
X137047270Y-63515848D01*
X137047265Y-63515851D01*
X136894129Y-63627111D01*
X136767466Y-63767785D01*
X136672821Y-63931715D01*
X136672818Y-63931722D01*
X136614953Y-64109814D01*
X136614326Y-64111744D01*
X136594540Y-64300000D01*
X130175500Y-64300000D01*
X130175500Y-64238946D01*
X130169261Y-64159675D01*
X130119861Y-63975309D01*
X130033208Y-63805243D01*
X129913090Y-63656910D01*
X129764757Y-63536792D01*
X129594691Y-63450139D01*
X129594688Y-63450138D01*
X129410322Y-63400738D01*
X129331057Y-63394500D01*
X129331054Y-63394500D01*
X128018946Y-63394500D01*
X128018943Y-63394500D01*
X127939677Y-63400738D01*
X127939676Y-63400738D01*
X127755311Y-63450138D01*
X127755309Y-63450138D01*
X127755309Y-63450139D01*
X127585243Y-63536792D01*
X127585240Y-63536793D01*
X127585237Y-63536796D01*
X127436910Y-63656910D01*
X127316796Y-63805237D01*
X127316793Y-63805240D01*
X127316792Y-63805243D01*
X127271743Y-63893657D01*
X127230138Y-63975311D01*
X127180738Y-64159676D01*
X127180738Y-64159677D01*
X127174500Y-64238943D01*
X127174500Y-65181057D01*
X114275500Y-65181057D01*
X114275500Y-65181054D01*
X114275500Y-64238946D01*
X114269261Y-64159675D01*
X114219861Y-63975309D01*
X114133208Y-63805243D01*
X114013090Y-63656910D01*
X113864757Y-63536792D01*
X113694691Y-63450139D01*
X113694688Y-63450138D01*
X113510322Y-63400738D01*
X113431057Y-63394500D01*
X113431054Y-63394500D01*
X112395453Y-63394500D01*
X112328414Y-63374815D01*
X112307772Y-63358181D01*
X111515803Y-62566212D01*
X111505980Y-62553950D01*
X111505759Y-62554134D01*
X111500786Y-62548123D01*
X111482159Y-62530631D01*
X111450364Y-62500773D01*
X111439919Y-62490328D01*
X111429475Y-62479883D01*
X111423986Y-62475625D01*
X111419561Y-62471847D01*
X111385582Y-62439938D01*
X111385580Y-62439936D01*
X111385577Y-62439935D01*
X111368029Y-62430288D01*
X111351763Y-62419604D01*
X111335933Y-62407325D01*
X111293168Y-62388818D01*
X111287922Y-62386248D01*
X111247093Y-62363803D01*
X111247092Y-62363802D01*
X111227693Y-62358822D01*
X111209281Y-62352518D01*
X111190898Y-62344562D01*
X111190894Y-62344561D01*
X111166789Y-62340743D01*
X111103655Y-62310813D01*
X111068484Y-62257275D01*
X111034814Y-62155666D01*
X110942712Y-62006344D01*
X110818656Y-61882288D01*
X110669334Y-61790186D01*
X110502797Y-61735001D01*
X110502795Y-61735000D01*
X110400010Y-61724500D01*
X109624998Y-61724500D01*
X109624980Y-61724501D01*
X109522203Y-61735000D01*
X109522200Y-61735001D01*
X109355668Y-61790185D01*
X109355663Y-61790187D01*
X109206342Y-61882289D01*
X109082288Y-62006343D01*
X109082282Y-62006351D01*
X109080531Y-62009190D01*
X109078823Y-62010725D01*
X109077807Y-62012011D01*
X109077587Y-62011837D01*
X109028579Y-62055910D01*
X108959615Y-62067125D01*
X108895536Y-62039275D01*
X108869459Y-62009176D01*
X108867712Y-62006344D01*
X108743656Y-61882288D01*
X108594334Y-61790186D01*
X108427797Y-61735001D01*
X108427795Y-61735000D01*
X108325010Y-61724500D01*
X107549998Y-61724500D01*
X107549980Y-61724501D01*
X107447203Y-61735000D01*
X107447200Y-61735001D01*
X107280668Y-61790185D01*
X107280663Y-61790187D01*
X107131342Y-61882289D01*
X107007289Y-62006342D01*
X106915187Y-62155663D01*
X106915185Y-62155668D01*
X106887405Y-62239504D01*
X106847632Y-62296949D01*
X106783116Y-62323772D01*
X106769699Y-62324500D01*
X106630992Y-62324500D01*
X106615371Y-62322775D01*
X106615344Y-62323061D01*
X106607582Y-62322326D01*
X106538421Y-62324500D01*
X106508898Y-62324500D01*
X106502027Y-62325367D01*
X106496208Y-62325825D01*
X106449623Y-62327289D01*
X106449617Y-62327290D01*
X106430375Y-62332880D01*
X106411336Y-62336823D01*
X106391466Y-62339334D01*
X106391452Y-62339337D01*
X106348132Y-62356488D01*
X106342607Y-62358380D01*
X106297862Y-62371380D01*
X106297859Y-62371381D01*
X106280615Y-62381579D01*
X106263154Y-62390133D01*
X106244523Y-62397510D01*
X106244511Y-62397517D01*
X106206819Y-62424902D01*
X106201936Y-62428109D01*
X106161829Y-62451829D01*
X106147663Y-62465995D01*
X106132873Y-62478627D01*
X106116663Y-62490404D01*
X106116660Y-62490407D01*
X106086959Y-62526309D01*
X106083026Y-62530631D01*
X102566208Y-66047448D01*
X102553951Y-66057269D01*
X102554134Y-66057490D01*
X102548123Y-66062462D01*
X102500772Y-66112885D01*
X102479889Y-66133768D01*
X102479877Y-66133781D01*
X102475621Y-66139266D01*
X102471837Y-66143696D01*
X102439937Y-66177667D01*
X102439936Y-66177669D01*
X102430284Y-66195225D01*
X102419610Y-66211475D01*
X102407329Y-66227310D01*
X102407324Y-66227317D01*
X102388815Y-66270087D01*
X102386245Y-66275333D01*
X102363803Y-66316155D01*
X102358822Y-66335556D01*
X102352521Y-66353959D01*
X102344562Y-66372351D01*
X102344561Y-66372354D01*
X102337271Y-66418376D01*
X102336087Y-66424095D01*
X102324501Y-66469221D01*
X102324500Y-66469231D01*
X102324500Y-66489265D01*
X102322973Y-66508664D01*
X102319840Y-66528443D01*
X102319840Y-66528444D01*
X102324225Y-66574832D01*
X102324500Y-66580670D01*
X102324500Y-69435402D01*
X102322775Y-69451019D01*
X102323061Y-69451046D01*
X102322326Y-69458812D01*
X102324500Y-69527961D01*
X102324500Y-69557490D01*
X102324501Y-69557507D01*
X102325368Y-69564378D01*
X102325826Y-69570197D01*
X102327290Y-69616771D01*
X102327291Y-69616774D01*
X102332880Y-69636014D01*
X102336824Y-69655058D01*
X102338974Y-69672070D01*
X102339336Y-69674938D01*
X102356490Y-69718266D01*
X102358382Y-69723794D01*
X102371381Y-69768535D01*
X102381580Y-69785781D01*
X102390136Y-69803247D01*
X102397514Y-69821879D01*
X102405302Y-69832599D01*
X102424898Y-69859570D01*
X102428106Y-69864454D01*
X102451827Y-69904563D01*
X102451833Y-69904571D01*
X102465990Y-69918727D01*
X102478628Y-69933523D01*
X102490405Y-69949733D01*
X102490406Y-69949734D01*
X102526309Y-69979435D01*
X102530620Y-69983357D01*
X102861677Y-70314414D01*
X103186047Y-70638784D01*
X103195872Y-70651048D01*
X103196093Y-70650866D01*
X103201063Y-70656873D01*
X103201066Y-70656876D01*
X103201067Y-70656877D01*
X103251504Y-70704241D01*
X103265093Y-70717830D01*
X103272382Y-70725119D01*
X103277857Y-70729366D01*
X103282297Y-70733158D01*
X103316271Y-70765062D01*
X103316275Y-70765064D01*
X103322582Y-70769647D01*
X103320830Y-70772058D01*
X103351170Y-70801453D01*
X103352139Y-70800702D01*
X103356923Y-70806870D01*
X103478651Y-70928598D01*
X103476888Y-70930360D01*
X103510626Y-70977066D01*
X103514423Y-71046832D01*
X103512500Y-71050283D01*
X103512500Y-73524999D01*
X103649972Y-73524999D01*
X103649986Y-73524998D01*
X103752697Y-73514505D01*
X103919119Y-73459358D01*
X103919124Y-73459356D01*
X104068345Y-73367315D01*
X104192318Y-73243342D01*
X104194165Y-73240348D01*
X104195969Y-73238724D01*
X104196798Y-73237677D01*
X104196976Y-73237818D01*
X104246110Y-73193621D01*
X104315073Y-73182396D01*
X104379156Y-73210236D01*
X104405243Y-73240341D01*
X104407288Y-73243656D01*
X104531344Y-73367712D01*
X104680666Y-73459814D01*
X104847203Y-73514999D01*
X104949991Y-73525500D01*
X105725008Y-73525499D01*
X105725016Y-73525498D01*
X105725019Y-73525498D01*
X105803803Y-73517450D01*
X105827797Y-73514999D01*
X105994334Y-73459814D01*
X106092428Y-73399309D01*
X106159818Y-73380869D01*
X106226482Y-73401791D01*
X106271251Y-73455433D01*
X106280881Y-73517450D01*
X106275000Y-73575011D01*
X106275000Y-73850000D01*
X107488500Y-73850000D01*
X107555539Y-73869685D01*
X107601294Y-73922489D01*
X107612500Y-73974000D01*
X107612500Y-75324999D01*
X107749972Y-75324999D01*
X107749986Y-75324998D01*
X107852697Y-75314505D01*
X108019119Y-75259358D01*
X108019124Y-75259356D01*
X108168345Y-75167315D01*
X108292318Y-75043342D01*
X108294165Y-75040348D01*
X108295969Y-75038724D01*
X108296798Y-75037677D01*
X108296976Y-75037818D01*
X108346110Y-74993621D01*
X108415073Y-74982396D01*
X108479156Y-75010236D01*
X108505243Y-75040341D01*
X108507288Y-75043656D01*
X108631344Y-75167712D01*
X108780666Y-75259814D01*
X108947203Y-75314999D01*
X109049991Y-75325500D01*
X109727047Y-75325499D01*
X109794086Y-75345183D01*
X109814728Y-75361818D01*
X109915729Y-75462819D01*
X109949214Y-75524142D01*
X109944230Y-75593834D01*
X109902358Y-75649767D01*
X109836894Y-75674184D01*
X109828048Y-75674500D01*
X106031633Y-75674500D01*
X106016016Y-75672776D01*
X106015989Y-75673062D01*
X106008226Y-75672327D01*
X105953392Y-75674050D01*
X105885768Y-75656479D01*
X105838378Y-75605138D01*
X105825500Y-75550111D01*
X105825500Y-75246342D01*
X105827224Y-75230728D01*
X105826938Y-75230701D01*
X105827672Y-75222938D01*
X105825500Y-75153807D01*
X105825500Y-75124255D01*
X105825500Y-75124254D01*
X105824629Y-75117363D01*
X105824172Y-75111549D01*
X105824086Y-75108822D01*
X105822709Y-75064977D01*
X105819756Y-75054815D01*
X105817122Y-75045748D01*
X105813174Y-75026688D01*
X105810663Y-75006808D01*
X105793512Y-74963491D01*
X105791619Y-74957962D01*
X105778618Y-74913213D01*
X105778616Y-74913210D01*
X105768423Y-74895975D01*
X105759861Y-74878498D01*
X105752487Y-74859874D01*
X105752486Y-74859872D01*
X105725079Y-74822149D01*
X105721888Y-74817290D01*
X105718405Y-74811401D01*
X105702290Y-74784151D01*
X105698172Y-74777187D01*
X105698165Y-74777178D01*
X105684006Y-74763019D01*
X105671368Y-74748223D01*
X105659594Y-74732017D01*
X105623688Y-74702313D01*
X105619376Y-74698390D01*
X105270987Y-74350000D01*
X106275001Y-74350000D01*
X106275001Y-74624986D01*
X106285494Y-74727697D01*
X106340641Y-74894119D01*
X106340643Y-74894124D01*
X106432684Y-75043345D01*
X106556654Y-75167315D01*
X106705875Y-75259356D01*
X106705880Y-75259358D01*
X106872302Y-75314505D01*
X106872309Y-75314506D01*
X106975019Y-75324999D01*
X107112499Y-75324999D01*
X107112500Y-75324998D01*
X107112500Y-74350000D01*
X106275001Y-74350000D01*
X105270987Y-74350000D01*
X105087199Y-74166212D01*
X105077376Y-74153950D01*
X105077155Y-74154134D01*
X105072182Y-74148123D01*
X105058539Y-74135311D01*
X105021760Y-74100773D01*
X105011315Y-74090328D01*
X105000871Y-74079883D01*
X104995382Y-74075625D01*
X104990957Y-74071847D01*
X104956978Y-74039938D01*
X104956976Y-74039936D01*
X104956973Y-74039935D01*
X104939425Y-74030288D01*
X104923159Y-74019604D01*
X104920220Y-74017324D01*
X104907332Y-74007327D01*
X104907331Y-74007326D01*
X104907329Y-74007325D01*
X104864564Y-73988818D01*
X104859318Y-73986248D01*
X104818489Y-73963803D01*
X104818488Y-73963802D01*
X104799089Y-73958822D01*
X104780677Y-73952518D01*
X104762294Y-73944562D01*
X104762288Y-73944560D01*
X104716270Y-73937272D01*
X104710548Y-73936087D01*
X104665417Y-73924500D01*
X104665415Y-73924500D01*
X104645380Y-73924500D01*
X104625982Y-73922973D01*
X104618558Y-73921797D01*
X104606201Y-73919840D01*
X104606200Y-73919840D01*
X104559812Y-73924225D01*
X104553974Y-73924500D01*
X103345243Y-73924500D01*
X103329622Y-73922775D01*
X103329596Y-73923061D01*
X103321834Y-73922327D01*
X103321833Y-73922327D01*
X103252686Y-73924500D01*
X103223149Y-73924500D01*
X103216266Y-73925369D01*
X103210449Y-73925826D01*
X103163873Y-73927290D01*
X103144629Y-73932881D01*
X103125579Y-73936825D01*
X103105711Y-73939334D01*
X103062384Y-73956488D01*
X103056858Y-73958379D01*
X103012114Y-73971379D01*
X103012110Y-73971381D01*
X102994866Y-73981579D01*
X102977405Y-73990133D01*
X102958774Y-73997510D01*
X102958762Y-73997517D01*
X102921070Y-74024902D01*
X102916187Y-74028109D01*
X102876080Y-74051829D01*
X102861914Y-74065995D01*
X102847124Y-74078627D01*
X102830914Y-74090404D01*
X102830911Y-74090407D01*
X102801210Y-74126309D01*
X102797277Y-74130631D01*
X102389727Y-74538181D01*
X102328404Y-74571666D01*
X102302046Y-74574500D01*
X101624998Y-74574500D01*
X101624980Y-74574501D01*
X101522203Y-74585000D01*
X101522200Y-74585001D01*
X101355668Y-74640185D01*
X101355663Y-74640187D01*
X101206342Y-74732289D01*
X101082285Y-74856346D01*
X101080537Y-74859182D01*
X101078829Y-74860717D01*
X101077807Y-74862011D01*
X101077585Y-74861836D01*
X101028589Y-74905905D01*
X100959626Y-74917126D01*
X100895544Y-74889282D01*
X100869463Y-74859182D01*
X100867714Y-74856346D01*
X100743657Y-74732289D01*
X100743656Y-74732288D01*
X100621751Y-74657097D01*
X100594336Y-74640187D01*
X100594331Y-74640185D01*
X100592862Y-74639698D01*
X100427797Y-74585001D01*
X100427795Y-74585000D01*
X100325010Y-74574500D01*
X99549998Y-74574500D01*
X99549980Y-74574501D01*
X99447203Y-74585000D01*
X99447200Y-74585001D01*
X99280668Y-74640185D01*
X99280663Y-74640187D01*
X99131342Y-74732289D01*
X99007289Y-74856342D01*
X98915187Y-75005663D01*
X98915185Y-75005668D01*
X98895532Y-75064977D01*
X98860001Y-75172203D01*
X98860001Y-75172204D01*
X98860000Y-75172204D01*
X98849500Y-75274983D01*
X98849500Y-76219345D01*
X98829815Y-76286384D01*
X98777011Y-76332139D01*
X98707853Y-76342083D01*
X98644297Y-76313058D01*
X98624997Y-76289106D01*
X98624112Y-76289769D01*
X98532547Y-76167455D01*
X98532544Y-76167452D01*
X98417335Y-76081206D01*
X98417328Y-76081202D01*
X98282482Y-76030908D01*
X98282483Y-76030908D01*
X98222883Y-76024501D01*
X98222881Y-76024500D01*
X98222873Y-76024500D01*
X98222864Y-76024500D01*
X96427129Y-76024500D01*
X96427123Y-76024501D01*
X96367516Y-76030908D01*
X96232671Y-76081202D01*
X96232664Y-76081206D01*
X96117455Y-76167452D01*
X96117452Y-76167455D01*
X96031206Y-76282664D01*
X96031202Y-76282671D01*
X95980908Y-76417517D01*
X95974501Y-76477116D01*
X95974500Y-76477135D01*
X95974500Y-78272870D01*
X95974501Y-78272876D01*
X95980908Y-78332483D01*
X96031202Y-78467328D01*
X96031206Y-78467335D01*
X96117452Y-78582544D01*
X96117455Y-78582547D01*
X96232664Y-78668793D01*
X96232671Y-78668797D01*
X96364081Y-78717810D01*
X96420015Y-78759681D01*
X96444432Y-78825145D01*
X96429580Y-78893418D01*
X96408430Y-78921673D01*
X96286503Y-79043600D01*
X96150965Y-79237169D01*
X96150964Y-79237171D01*
X96051098Y-79451335D01*
X96051094Y-79451344D01*
X95989938Y-79679586D01*
X95989936Y-79679596D01*
X95969341Y-79914999D01*
X95969341Y-79915000D01*
X95989936Y-80150403D01*
X95989938Y-80150413D01*
X96051094Y-80378655D01*
X96051096Y-80378659D01*
X96051097Y-80378663D01*
X96097630Y-80478453D01*
X96150965Y-80592830D01*
X96150967Y-80592834D01*
X96217783Y-80688256D01*
X96286501Y-80786396D01*
X96286506Y-80786402D01*
X96453597Y-80953493D01*
X96453603Y-80953498D01*
X96639594Y-81083730D01*
X96683219Y-81138307D01*
X96690413Y-81207805D01*
X96658890Y-81270160D01*
X96639595Y-81286880D01*
X96453922Y-81416890D01*
X96453920Y-81416891D01*
X96286891Y-81583920D01*
X96286886Y-81583926D01*
X96151400Y-81777420D01*
X96151399Y-81777422D01*
X96051570Y-81991507D01*
X96051567Y-81991513D01*
X95994364Y-82204999D01*
X95994364Y-82205000D01*
X96711653Y-82205000D01*
X96778692Y-82224685D01*
X96824447Y-82277489D01*
X96834391Y-82346647D01*
X96830631Y-82363933D01*
X96825223Y-82382353D01*
X96825000Y-82383111D01*
X96825000Y-82526889D01*
X96825517Y-82528649D01*
X96830631Y-82546067D01*
X96830630Y-82615936D01*
X96792855Y-82674714D01*
X96729299Y-82703738D01*
X96711653Y-82705000D01*
X95994364Y-82705000D01*
X96051567Y-82918486D01*
X96051570Y-82918492D01*
X96151399Y-83132578D01*
X96286894Y-83326082D01*
X96453917Y-83493105D01*
X96647421Y-83628600D01*
X96861507Y-83728429D01*
X96861516Y-83728433D01*
X97075000Y-83785634D01*
X97075000Y-83067301D01*
X97094685Y-83000262D01*
X97147489Y-82954507D01*
X97216647Y-82944563D01*
X97289237Y-82955000D01*
X97289238Y-82955000D01*
X97360762Y-82955000D01*
X97360763Y-82955000D01*
X97433353Y-82944563D01*
X97502512Y-82954507D01*
X97555315Y-83000262D01*
X97575000Y-83067301D01*
X97575000Y-83785633D01*
X97788483Y-83728433D01*
X97788492Y-83728429D01*
X98002578Y-83628600D01*
X98196082Y-83493105D01*
X98363105Y-83326082D01*
X98498600Y-83132578D01*
X98540116Y-83043547D01*
X98586288Y-82991108D01*
X98653482Y-82971956D01*
X98720363Y-82992172D01*
X98765697Y-83045337D01*
X98775856Y-83083350D01*
X98785494Y-83177697D01*
X98840641Y-83344119D01*
X98840643Y-83344124D01*
X98932684Y-83493345D01*
X99056654Y-83617315D01*
X99205875Y-83709356D01*
X99205880Y-83709358D01*
X99372302Y-83764505D01*
X99372309Y-83764506D01*
X99475019Y-83774999D01*
X99612499Y-83774999D01*
X99612500Y-83774998D01*
X99612500Y-81325000D01*
X99475027Y-81325000D01*
X99475012Y-81325001D01*
X99372302Y-81335494D01*
X99205880Y-81390641D01*
X99205875Y-81390643D01*
X99056654Y-81482684D01*
X98932684Y-81606654D01*
X98840643Y-81755875D01*
X98840641Y-81755880D01*
X98792557Y-81900988D01*
X98752784Y-81958433D01*
X98688268Y-81985256D01*
X98619492Y-81972941D01*
X98568293Y-81925398D01*
X98562469Y-81914389D01*
X98498600Y-81777422D01*
X98498599Y-81777420D01*
X98363113Y-81583926D01*
X98363108Y-81583920D01*
X98196078Y-81416890D01*
X98010405Y-81286879D01*
X97966780Y-81232302D01*
X97959588Y-81162804D01*
X97991110Y-81100449D01*
X98010406Y-81083730D01*
X98021137Y-81076216D01*
X98196401Y-80953495D01*
X98363495Y-80786401D01*
X98498651Y-80593377D01*
X98553229Y-80549752D01*
X98600227Y-80540500D01*
X99602257Y-80540500D01*
X99617877Y-80542224D01*
X99617904Y-80541939D01*
X99625660Y-80542671D01*
X99625667Y-80542673D01*
X99694814Y-80540500D01*
X99724350Y-80540500D01*
X99731228Y-80539630D01*
X99737041Y-80539172D01*
X99783627Y-80537709D01*
X99802869Y-80532117D01*
X99821912Y-80528174D01*
X99841792Y-80525664D01*
X99885122Y-80508507D01*
X99890646Y-80506617D01*
X99894396Y-80505527D01*
X99935390Y-80493618D01*
X99952629Y-80483422D01*
X99970103Y-80474862D01*
X99988727Y-80467488D01*
X99988727Y-80467487D01*
X99988732Y-80467486D01*
X100026449Y-80440082D01*
X100031305Y-80436892D01*
X100071420Y-80413170D01*
X100085589Y-80398999D01*
X100100379Y-80386368D01*
X100116587Y-80374594D01*
X100146299Y-80338676D01*
X100150212Y-80334376D01*
X100282822Y-80201767D01*
X100344142Y-80168285D01*
X100413834Y-80173269D01*
X100469767Y-80215141D01*
X100494184Y-80280605D01*
X100494500Y-80289451D01*
X100494500Y-81212667D01*
X100474815Y-81279706D01*
X100422011Y-81325461D01*
X100357898Y-81336025D01*
X100249988Y-81325000D01*
X100112500Y-81325000D01*
X100112500Y-83774999D01*
X100249972Y-83774999D01*
X100249986Y-83774998D01*
X100352697Y-83764505D01*
X100467402Y-83726496D01*
X100537230Y-83724094D01*
X100597272Y-83759826D01*
X100628465Y-83822346D01*
X100624112Y-83883206D01*
X100584651Y-84002290D01*
X100578438Y-84063103D01*
X100552041Y-84127795D01*
X100494860Y-84167946D01*
X100455080Y-84174500D01*
X99403748Y-84174500D01*
X99336709Y-84154815D01*
X99311600Y-84133474D01*
X99305873Y-84127114D01*
X99305869Y-84127110D01*
X99152734Y-84015851D01*
X99152729Y-84015848D01*
X98979807Y-83938857D01*
X98979802Y-83938855D01*
X98823387Y-83905609D01*
X98794646Y-83899500D01*
X98605354Y-83899500D01*
X98576613Y-83905609D01*
X98420197Y-83938855D01*
X98420192Y-83938857D01*
X98247270Y-84015848D01*
X98247265Y-84015851D01*
X98094129Y-84127111D01*
X97967466Y-84267785D01*
X97872821Y-84431715D01*
X97872818Y-84431722D01*
X97840166Y-84532216D01*
X97814326Y-84611744D01*
X97794540Y-84800000D01*
X97814326Y-84988256D01*
X97814327Y-84988259D01*
X97872818Y-85168277D01*
X97872821Y-85168284D01*
X97967467Y-85332216D01*
X97990795Y-85358124D01*
X97999262Y-85367528D01*
X98029492Y-85430520D01*
X98020867Y-85499855D01*
X97976125Y-85553520D01*
X97909473Y-85574478D01*
X97907112Y-85574500D01*
X96910452Y-85574500D01*
X96843413Y-85554815D01*
X96822771Y-85538181D01*
X96538960Y-85254369D01*
X96505475Y-85193046D01*
X96503323Y-85179668D01*
X96485674Y-85011744D01*
X96427179Y-84831716D01*
X96332533Y-84667784D01*
X96205871Y-84527112D01*
X96144574Y-84482577D01*
X96052734Y-84415851D01*
X96052729Y-84415848D01*
X95879807Y-84338857D01*
X95879802Y-84338855D01*
X95734001Y-84307865D01*
X95694646Y-84299500D01*
X95505354Y-84299500D01*
X95472897Y-84306398D01*
X95320197Y-84338855D01*
X95320192Y-84338857D01*
X95147270Y-84415848D01*
X95147265Y-84415851D01*
X94994129Y-84527111D01*
X94867466Y-84667785D01*
X94772821Y-84831715D01*
X94772818Y-84831722D01*
X94714327Y-85011740D01*
X94714326Y-85011744D01*
X94694540Y-85200000D01*
X94714326Y-85388256D01*
X94714327Y-85388259D01*
X94772818Y-85568277D01*
X94772821Y-85568284D01*
X94867467Y-85732216D01*
X94928954Y-85800504D01*
X94994129Y-85872888D01*
X95147265Y-85984148D01*
X95147270Y-85984151D01*
X95320192Y-86061142D01*
X95320197Y-86061144D01*
X95505354Y-86100500D01*
X95564548Y-86100500D01*
X95631587Y-86120185D01*
X95652229Y-86136819D01*
X96099194Y-86583784D01*
X96109019Y-86596048D01*
X96109240Y-86595866D01*
X96114210Y-86601873D01*
X96114213Y-86601876D01*
X96114214Y-86601877D01*
X96164651Y-86649241D01*
X96185530Y-86670120D01*
X96191004Y-86674366D01*
X96195442Y-86678156D01*
X96229418Y-86710062D01*
X96229422Y-86710064D01*
X96246973Y-86719713D01*
X96263231Y-86730392D01*
X96279064Y-86742674D01*
X96301015Y-86752172D01*
X96321837Y-86761183D01*
X96327081Y-86763752D01*
X96367908Y-86786197D01*
X96387312Y-86791179D01*
X96405710Y-86797478D01*
X96424105Y-86805438D01*
X96470129Y-86812726D01*
X96475832Y-86813907D01*
X96520981Y-86825500D01*
X96541016Y-86825500D01*
X96560413Y-86827026D01*
X96580196Y-86830160D01*
X96626583Y-86825775D01*
X96632422Y-86825500D01*
X100370500Y-86825500D01*
X100437539Y-86845185D01*
X100483294Y-86897989D01*
X100494500Y-86949500D01*
X100494500Y-87176000D01*
X100474815Y-87243039D01*
X100422011Y-87288794D01*
X100370500Y-87300000D01*
X93071119Y-87300000D01*
X93030195Y-87293052D01*
X93011515Y-87286521D01*
X92917114Y-87249811D01*
X92910000Y-87246514D01*
X92842548Y-87209901D01*
X92839464Y-87208110D01*
X92758770Y-87158100D01*
X92753499Y-87154443D01*
X92691501Y-87106498D01*
X92687678Y-87103288D01*
X92618277Y-87040076D01*
X92614727Y-87036572D01*
X92603622Y-87024690D01*
X92561324Y-86979430D01*
X92557190Y-86974520D01*
X92499610Y-86898476D01*
X92497542Y-86895575D01*
X92455103Y-86832277D01*
X92451155Y-86825499D01*
X92409690Y-86742673D01*
X92405279Y-86733862D01*
X92391384Y-86703538D01*
X92377622Y-86673504D01*
X92371187Y-86656142D01*
X92369084Y-86648837D01*
X92334851Y-86529871D01*
X92329085Y-86508935D01*
X92324637Y-86475890D01*
X92327679Y-83631722D01*
X92329104Y-82300003D01*
X93394355Y-82300003D01*
X93398692Y-82335730D01*
X93395386Y-82355607D01*
X93398949Y-82370062D01*
X93402552Y-82399735D01*
X93402552Y-82407815D01*
X93410521Y-82433142D01*
X93414859Y-82468870D01*
X93414861Y-82468878D01*
X93427623Y-82502528D01*
X93429171Y-82522624D01*
X93436082Y-82535792D01*
X93446682Y-82563742D01*
X93448613Y-82571579D01*
X93462417Y-82594271D01*
X93467051Y-82606489D01*
X93475182Y-82627931D01*
X93475184Y-82627934D01*
X93495628Y-82657553D01*
X93501938Y-82676689D01*
X93511808Y-82687830D01*
X93528789Y-82712431D01*
X93532543Y-82719584D01*
X93551367Y-82738304D01*
X93571813Y-82767925D01*
X93571814Y-82767926D01*
X93598757Y-82791796D01*
X93609466Y-82808869D01*
X93621713Y-82817323D01*
X93644088Y-82837147D01*
X93649438Y-82843186D01*
X93672204Y-82856864D01*
X93699145Y-82880732D01*
X93699151Y-82880736D01*
X93731011Y-82897457D01*
X93745499Y-82911475D01*
X93759418Y-82916754D01*
X93785888Y-82930647D01*
X93792533Y-82935234D01*
X93817906Y-82943063D01*
X93849775Y-82959790D01*
X93884714Y-82968401D01*
X93902128Y-82978540D01*
X93916911Y-82980336D01*
X93945932Y-82987490D01*
X93953496Y-82990358D01*
X93980003Y-82991887D01*
X94014941Y-83000499D01*
X94014942Y-83000500D01*
X94050937Y-83000500D01*
X94070285Y-83006181D01*
X94085049Y-83004388D01*
X94114954Y-83004388D01*
X94122950Y-83005359D01*
X94149063Y-83000500D01*
X94185058Y-83000500D01*
X94185060Y-83000499D01*
X94219994Y-82991889D01*
X94240131Y-82992774D01*
X94254064Y-82987490D01*
X94283088Y-82980335D01*
X94291113Y-82979360D01*
X94315280Y-82968403D01*
X94350225Y-82959790D01*
X94382089Y-82943065D01*
X94401855Y-82939105D01*
X94414112Y-82930645D01*
X94440582Y-82916753D01*
X94448133Y-82913888D01*
X94468985Y-82897459D01*
X94500852Y-82880734D01*
X94527792Y-82856866D01*
X94546037Y-82848290D01*
X94555907Y-82837150D01*
X94578285Y-82817324D01*
X94584928Y-82812738D01*
X94601243Y-82791795D01*
X94628183Y-82767929D01*
X94648629Y-82738306D01*
X94664290Y-82725614D01*
X94671209Y-82712432D01*
X94688192Y-82687827D01*
X94693546Y-82681783D01*
X94704372Y-82657549D01*
X94724818Y-82627930D01*
X94737580Y-82594278D01*
X94749751Y-82578203D01*
X94753314Y-82563747D01*
X94763916Y-82535791D01*
X94767664Y-82528649D01*
X94772378Y-82502522D01*
X94775360Y-82494660D01*
X94785140Y-82468872D01*
X94792886Y-82405072D01*
X94794229Y-82397743D01*
X94797448Y-82384686D01*
X94797448Y-82384679D01*
X94798012Y-82382392D01*
X94798020Y-82382353D01*
X94802982Y-82362217D01*
X94801307Y-82335724D01*
X94805645Y-82300000D01*
X94801306Y-82264272D01*
X94804612Y-82244391D01*
X94798005Y-82217584D01*
X94797999Y-82217551D01*
X94797448Y-82215314D01*
X94794232Y-82202266D01*
X94792885Y-82194915D01*
X94785140Y-82131128D01*
X94772376Y-82097474D01*
X94770828Y-82077376D01*
X94763916Y-82064207D01*
X94753314Y-82036252D01*
X94751382Y-82028415D01*
X94737580Y-82005722D01*
X94724818Y-81972070D01*
X94724772Y-81972004D01*
X94704372Y-81942449D01*
X94698059Y-81923308D01*
X94688190Y-81912168D01*
X94671209Y-81887565D01*
X94667458Y-81880418D01*
X94648631Y-81861694D01*
X94628182Y-81832070D01*
X94601241Y-81808202D01*
X94590529Y-81791126D01*
X94578285Y-81782674D01*
X94555909Y-81762850D01*
X94550563Y-81756816D01*
X94527794Y-81743134D01*
X94500856Y-81719269D01*
X94500851Y-81719265D01*
X94468981Y-81702538D01*
X94454496Y-81688522D01*
X94440579Y-81683244D01*
X94414109Y-81669351D01*
X94407471Y-81664769D01*
X94382095Y-81656937D01*
X94350225Y-81640210D01*
X94350224Y-81640209D01*
X94350223Y-81640209D01*
X94315277Y-81631596D01*
X94297850Y-81621449D01*
X94283074Y-81619655D01*
X94254050Y-81612502D01*
X94246511Y-81609643D01*
X94220002Y-81608112D01*
X94185061Y-81599500D01*
X94185056Y-81599500D01*
X94149072Y-81599500D01*
X94129734Y-81593821D01*
X94114945Y-81595617D01*
X94085060Y-81595617D01*
X94077028Y-81594642D01*
X94050929Y-81599500D01*
X94014944Y-81599500D01*
X93979995Y-81608113D01*
X93959858Y-81607226D01*
X93945952Y-81612501D01*
X93916924Y-81619655D01*
X93908918Y-81620626D01*
X93884722Y-81631595D01*
X93849781Y-81640207D01*
X93849774Y-81640210D01*
X93817901Y-81656938D01*
X93798133Y-81660897D01*
X93785884Y-81669353D01*
X93759420Y-81683243D01*
X93751874Y-81686104D01*
X93731019Y-81702537D01*
X93699152Y-81719263D01*
X93699148Y-81719266D01*
X93672200Y-81743139D01*
X93653954Y-81751714D01*
X93644087Y-81762852D01*
X93621713Y-81782674D01*
X93615078Y-81787253D01*
X93598761Y-81808199D01*
X93571817Y-81832070D01*
X93551366Y-81861698D01*
X93535704Y-81874389D01*
X93528788Y-81887567D01*
X93511809Y-81912166D01*
X93506458Y-81918205D01*
X93495630Y-81942444D01*
X93475184Y-81972065D01*
X93475182Y-81972069D01*
X93462416Y-82005729D01*
X93450245Y-82021801D01*
X93446683Y-82036254D01*
X93436084Y-82064202D01*
X93432338Y-82071339D01*
X93427624Y-82097470D01*
X93414860Y-82131126D01*
X93410521Y-82166858D01*
X93402552Y-82185372D01*
X93402552Y-82200263D01*
X93398949Y-82229936D01*
X93397015Y-82237781D01*
X93398692Y-82264268D01*
X93394355Y-82299995D01*
X93394355Y-82300003D01*
X92329104Y-82300003D01*
X92331992Y-79600003D01*
X93394355Y-79600003D01*
X93398692Y-79635730D01*
X93395386Y-79655607D01*
X93398949Y-79670062D01*
X93402552Y-79699735D01*
X93402552Y-79707815D01*
X93410521Y-79733142D01*
X93414859Y-79768870D01*
X93414861Y-79768878D01*
X93427623Y-79802528D01*
X93429171Y-79822624D01*
X93436082Y-79835792D01*
X93446682Y-79863742D01*
X93448613Y-79871579D01*
X93462417Y-79894271D01*
X93467601Y-79907940D01*
X93475182Y-79927931D01*
X93475184Y-79927934D01*
X93495628Y-79957553D01*
X93501938Y-79976689D01*
X93511808Y-79987830D01*
X93528789Y-80012431D01*
X93532543Y-80019584D01*
X93551367Y-80038304D01*
X93571813Y-80067925D01*
X93571814Y-80067926D01*
X93598757Y-80091796D01*
X93609466Y-80108869D01*
X93621713Y-80117323D01*
X93644088Y-80137147D01*
X93649438Y-80143186D01*
X93672204Y-80156864D01*
X93699145Y-80180732D01*
X93699151Y-80180736D01*
X93731011Y-80197457D01*
X93745499Y-80211475D01*
X93759418Y-80216754D01*
X93785888Y-80230647D01*
X93792533Y-80235234D01*
X93817906Y-80243063D01*
X93849775Y-80259790D01*
X93884714Y-80268401D01*
X93902128Y-80278540D01*
X93916911Y-80280336D01*
X93945932Y-80287490D01*
X93953496Y-80290358D01*
X93980003Y-80291887D01*
X94014941Y-80300499D01*
X94014942Y-80300500D01*
X94050937Y-80300500D01*
X94070285Y-80306181D01*
X94085049Y-80304388D01*
X94114954Y-80304388D01*
X94122950Y-80305359D01*
X94149063Y-80300500D01*
X94185058Y-80300500D01*
X94185060Y-80300499D01*
X94219994Y-80291889D01*
X94240131Y-80292774D01*
X94254064Y-80287490D01*
X94283088Y-80280335D01*
X94291113Y-80279360D01*
X94315280Y-80268403D01*
X94350225Y-80259790D01*
X94382089Y-80243065D01*
X94401855Y-80239105D01*
X94414112Y-80230645D01*
X94440582Y-80216753D01*
X94448133Y-80213888D01*
X94468985Y-80197459D01*
X94500852Y-80180734D01*
X94527792Y-80156866D01*
X94546037Y-80148290D01*
X94555907Y-80137150D01*
X94578285Y-80117324D01*
X94584928Y-80112738D01*
X94601243Y-80091795D01*
X94628183Y-80067929D01*
X94648629Y-80038306D01*
X94664290Y-80025614D01*
X94671209Y-80012432D01*
X94688192Y-79987827D01*
X94693546Y-79981783D01*
X94704372Y-79957549D01*
X94724818Y-79927930D01*
X94737580Y-79894278D01*
X94749751Y-79878203D01*
X94753314Y-79863747D01*
X94763916Y-79835791D01*
X94767664Y-79828649D01*
X94772378Y-79802522D01*
X94773145Y-79800500D01*
X94785140Y-79768872D01*
X94792886Y-79705072D01*
X94794229Y-79697743D01*
X94797448Y-79684686D01*
X94797448Y-79684679D01*
X94798012Y-79682392D01*
X94798020Y-79682353D01*
X94802982Y-79662217D01*
X94801307Y-79635724D01*
X94805645Y-79600000D01*
X94801306Y-79564272D01*
X94804612Y-79544391D01*
X94798005Y-79517584D01*
X94797999Y-79517551D01*
X94797448Y-79515314D01*
X94794232Y-79502266D01*
X94792885Y-79494915D01*
X94785158Y-79431279D01*
X94785140Y-79431127D01*
X94785139Y-79431126D01*
X94772376Y-79397474D01*
X94770828Y-79377376D01*
X94763916Y-79364207D01*
X94753314Y-79336252D01*
X94751382Y-79328415D01*
X94737580Y-79305722D01*
X94724818Y-79272070D01*
X94723389Y-79270000D01*
X94704372Y-79242449D01*
X94698059Y-79223308D01*
X94688190Y-79212168D01*
X94671209Y-79187565D01*
X94667458Y-79180418D01*
X94648631Y-79161694D01*
X94630996Y-79136146D01*
X94628183Y-79132071D01*
X94620488Y-79125254D01*
X94601241Y-79108202D01*
X94590529Y-79091126D01*
X94578285Y-79082674D01*
X94555909Y-79062850D01*
X94550563Y-79056816D01*
X94527794Y-79043134D01*
X94500856Y-79019269D01*
X94500851Y-79019265D01*
X94468981Y-79002538D01*
X94454496Y-78988522D01*
X94440579Y-78983244D01*
X94414109Y-78969351D01*
X94407471Y-78964769D01*
X94382095Y-78956937D01*
X94350225Y-78940210D01*
X94350224Y-78940209D01*
X94350223Y-78940209D01*
X94315277Y-78931596D01*
X94297850Y-78921449D01*
X94283074Y-78919655D01*
X94254050Y-78912502D01*
X94246511Y-78909643D01*
X94220002Y-78908112D01*
X94185061Y-78899500D01*
X94185056Y-78899500D01*
X94149072Y-78899500D01*
X94129734Y-78893821D01*
X94114945Y-78895617D01*
X94085060Y-78895617D01*
X94077028Y-78894642D01*
X94050929Y-78899500D01*
X94014944Y-78899500D01*
X93979995Y-78908113D01*
X93959858Y-78907226D01*
X93945952Y-78912501D01*
X93916924Y-78919655D01*
X93908918Y-78920626D01*
X93884722Y-78931595D01*
X93849781Y-78940207D01*
X93849774Y-78940210D01*
X93817901Y-78956938D01*
X93798133Y-78960897D01*
X93785884Y-78969353D01*
X93759420Y-78983243D01*
X93751874Y-78986104D01*
X93731019Y-79002537D01*
X93699152Y-79019263D01*
X93699148Y-79019266D01*
X93672200Y-79043139D01*
X93653954Y-79051714D01*
X93644087Y-79062852D01*
X93621713Y-79082674D01*
X93615078Y-79087253D01*
X93598761Y-79108199D01*
X93571817Y-79132070D01*
X93551366Y-79161698D01*
X93535704Y-79174389D01*
X93528788Y-79187567D01*
X93511809Y-79212166D01*
X93506458Y-79218205D01*
X93495630Y-79242444D01*
X93475184Y-79272065D01*
X93475182Y-79272069D01*
X93462416Y-79305729D01*
X93450245Y-79321801D01*
X93446683Y-79336254D01*
X93436084Y-79364202D01*
X93432338Y-79371339D01*
X93427624Y-79397470D01*
X93414860Y-79431126D01*
X93410521Y-79466858D01*
X93402552Y-79485372D01*
X93402552Y-79500263D01*
X93398949Y-79529936D01*
X93397015Y-79537781D01*
X93398692Y-79564268D01*
X93394355Y-79599995D01*
X93394355Y-79600003D01*
X92331992Y-79600003D01*
X92334773Y-77000003D01*
X93394355Y-77000003D01*
X93398692Y-77035730D01*
X93395386Y-77055607D01*
X93398949Y-77070062D01*
X93402552Y-77099735D01*
X93402552Y-77107815D01*
X93410521Y-77133142D01*
X93414859Y-77168870D01*
X93414861Y-77168878D01*
X93427623Y-77202528D01*
X93429171Y-77222624D01*
X93436082Y-77235792D01*
X93446682Y-77263742D01*
X93448613Y-77271579D01*
X93462417Y-77294271D01*
X93464400Y-77299500D01*
X93475182Y-77327931D01*
X93475184Y-77327934D01*
X93495628Y-77357553D01*
X93501938Y-77376689D01*
X93511808Y-77387830D01*
X93528789Y-77412431D01*
X93532543Y-77419584D01*
X93551367Y-77438304D01*
X93571813Y-77467925D01*
X93571814Y-77467926D01*
X93598757Y-77491796D01*
X93609466Y-77508869D01*
X93621713Y-77517323D01*
X93644088Y-77537147D01*
X93649438Y-77543186D01*
X93672204Y-77556864D01*
X93699145Y-77580732D01*
X93699151Y-77580736D01*
X93731011Y-77597457D01*
X93745499Y-77611475D01*
X93759418Y-77616754D01*
X93785888Y-77630647D01*
X93792533Y-77635234D01*
X93817906Y-77643063D01*
X93849775Y-77659790D01*
X93884714Y-77668401D01*
X93902128Y-77678540D01*
X93916911Y-77680336D01*
X93945932Y-77687490D01*
X93953496Y-77690358D01*
X93980003Y-77691887D01*
X94014941Y-77700499D01*
X94014942Y-77700500D01*
X94050937Y-77700500D01*
X94070285Y-77706181D01*
X94085049Y-77704388D01*
X94114954Y-77704388D01*
X94122950Y-77705359D01*
X94149063Y-77700500D01*
X94185058Y-77700500D01*
X94185060Y-77700499D01*
X94219994Y-77691889D01*
X94240131Y-77692774D01*
X94254064Y-77687490D01*
X94283088Y-77680335D01*
X94291113Y-77679360D01*
X94315280Y-77668403D01*
X94350225Y-77659790D01*
X94382089Y-77643065D01*
X94401855Y-77639105D01*
X94414112Y-77630645D01*
X94440582Y-77616753D01*
X94448133Y-77613888D01*
X94468985Y-77597459D01*
X94500852Y-77580734D01*
X94527792Y-77556866D01*
X94546037Y-77548290D01*
X94555907Y-77537150D01*
X94578285Y-77517324D01*
X94584928Y-77512738D01*
X94601243Y-77491795D01*
X94628183Y-77467929D01*
X94648629Y-77438306D01*
X94664290Y-77425614D01*
X94671209Y-77412432D01*
X94688192Y-77387827D01*
X94693546Y-77381783D01*
X94704372Y-77357549D01*
X94724818Y-77327930D01*
X94737580Y-77294278D01*
X94749751Y-77278203D01*
X94753314Y-77263747D01*
X94763916Y-77235791D01*
X94767664Y-77228649D01*
X94772378Y-77202522D01*
X94774864Y-77195968D01*
X94785140Y-77168872D01*
X94792886Y-77105072D01*
X94794229Y-77097743D01*
X94797448Y-77084686D01*
X94797448Y-77084679D01*
X94798012Y-77082392D01*
X94798020Y-77082353D01*
X94802982Y-77062217D01*
X94801307Y-77035724D01*
X94805645Y-77000000D01*
X94801306Y-76964272D01*
X94804612Y-76944391D01*
X94798005Y-76917584D01*
X94797999Y-76917551D01*
X94797448Y-76915314D01*
X94794232Y-76902266D01*
X94792885Y-76894915D01*
X94785140Y-76831128D01*
X94772376Y-76797474D01*
X94770828Y-76777376D01*
X94763916Y-76764207D01*
X94753314Y-76736252D01*
X94751382Y-76728415D01*
X94737580Y-76705722D01*
X94724818Y-76672070D01*
X94704372Y-76642449D01*
X94698059Y-76623308D01*
X94688190Y-76612168D01*
X94671209Y-76587565D01*
X94667458Y-76580418D01*
X94648631Y-76561694D01*
X94628182Y-76532070D01*
X94601241Y-76508202D01*
X94590529Y-76491126D01*
X94578285Y-76482674D01*
X94555909Y-76462850D01*
X94550563Y-76456816D01*
X94527794Y-76443134D01*
X94500856Y-76419269D01*
X94500851Y-76419265D01*
X94468981Y-76402538D01*
X94454496Y-76388522D01*
X94440579Y-76383244D01*
X94414109Y-76369351D01*
X94407471Y-76364769D01*
X94382095Y-76356937D01*
X94350225Y-76340210D01*
X94350224Y-76340209D01*
X94350223Y-76340209D01*
X94315277Y-76331596D01*
X94297850Y-76321449D01*
X94283074Y-76319655D01*
X94254050Y-76312502D01*
X94246511Y-76309643D01*
X94220002Y-76308112D01*
X94185061Y-76299500D01*
X94185056Y-76299500D01*
X94149072Y-76299500D01*
X94129734Y-76293821D01*
X94114945Y-76295617D01*
X94085060Y-76295617D01*
X94077028Y-76294642D01*
X94050929Y-76299500D01*
X94014944Y-76299500D01*
X93979995Y-76308113D01*
X93959858Y-76307226D01*
X93945952Y-76312501D01*
X93916924Y-76319655D01*
X93908918Y-76320626D01*
X93884722Y-76331595D01*
X93849781Y-76340207D01*
X93849774Y-76340210D01*
X93817901Y-76356938D01*
X93798133Y-76360897D01*
X93785884Y-76369353D01*
X93759420Y-76383243D01*
X93751874Y-76386104D01*
X93731019Y-76402537D01*
X93699152Y-76419263D01*
X93699148Y-76419266D01*
X93672200Y-76443139D01*
X93653954Y-76451714D01*
X93644087Y-76462852D01*
X93621713Y-76482674D01*
X93615078Y-76487253D01*
X93598761Y-76508199D01*
X93571817Y-76532070D01*
X93551366Y-76561698D01*
X93535704Y-76574389D01*
X93528788Y-76587567D01*
X93511809Y-76612166D01*
X93506458Y-76618205D01*
X93495630Y-76642444D01*
X93475184Y-76672065D01*
X93475182Y-76672069D01*
X93462416Y-76705729D01*
X93450245Y-76721801D01*
X93446683Y-76736254D01*
X93436084Y-76764202D01*
X93432338Y-76771339D01*
X93427624Y-76797470D01*
X93414860Y-76831126D01*
X93410521Y-76866858D01*
X93402552Y-76885372D01*
X93402552Y-76900263D01*
X93398949Y-76929936D01*
X93397015Y-76937781D01*
X93398692Y-76964268D01*
X93394355Y-76999995D01*
X93394355Y-77000003D01*
X92334773Y-77000003D01*
X92339159Y-72900003D01*
X93994355Y-72900003D01*
X93998692Y-72935730D01*
X93995386Y-72955607D01*
X93998949Y-72970062D01*
X94002552Y-72999735D01*
X94002552Y-73007815D01*
X94010521Y-73033142D01*
X94014859Y-73068870D01*
X94014861Y-73068878D01*
X94027623Y-73102528D01*
X94029171Y-73122624D01*
X94036082Y-73135792D01*
X94046682Y-73163742D01*
X94048613Y-73171579D01*
X94062417Y-73194271D01*
X94066759Y-73205720D01*
X94075182Y-73227931D01*
X94075184Y-73227934D01*
X94095628Y-73257553D01*
X94101938Y-73276689D01*
X94111808Y-73287830D01*
X94128789Y-73312431D01*
X94132543Y-73319584D01*
X94151367Y-73338304D01*
X94171813Y-73367925D01*
X94171814Y-73367926D01*
X94198757Y-73391796D01*
X94209466Y-73408869D01*
X94221713Y-73417323D01*
X94244088Y-73437147D01*
X94249438Y-73443186D01*
X94272204Y-73456864D01*
X94299145Y-73480732D01*
X94299151Y-73480736D01*
X94331011Y-73497457D01*
X94345499Y-73511475D01*
X94359418Y-73516754D01*
X94385888Y-73530647D01*
X94392533Y-73535234D01*
X94417906Y-73543063D01*
X94449775Y-73559790D01*
X94484714Y-73568401D01*
X94502128Y-73578540D01*
X94516911Y-73580336D01*
X94545932Y-73587490D01*
X94553496Y-73590358D01*
X94580003Y-73591887D01*
X94614941Y-73600499D01*
X94614942Y-73600500D01*
X94650937Y-73600500D01*
X94670285Y-73606181D01*
X94685049Y-73604388D01*
X94714954Y-73604388D01*
X94722950Y-73605359D01*
X94749063Y-73600500D01*
X94785058Y-73600500D01*
X94785060Y-73600499D01*
X94819994Y-73591889D01*
X94840131Y-73592774D01*
X94854064Y-73587490D01*
X94883088Y-73580335D01*
X94891113Y-73579360D01*
X94915280Y-73568403D01*
X94950225Y-73559790D01*
X94982089Y-73543065D01*
X95001855Y-73539105D01*
X95014112Y-73530645D01*
X95040582Y-73516753D01*
X95048133Y-73513888D01*
X95068985Y-73497459D01*
X95100852Y-73480734D01*
X95127792Y-73456866D01*
X95146037Y-73448290D01*
X95155907Y-73437150D01*
X95178285Y-73417324D01*
X95184928Y-73412738D01*
X95201243Y-73391795D01*
X95228183Y-73367929D01*
X95248629Y-73338306D01*
X95264290Y-73325614D01*
X95271209Y-73312432D01*
X95288192Y-73287827D01*
X95293546Y-73281783D01*
X95304372Y-73257549D01*
X95324818Y-73227930D01*
X95337580Y-73194278D01*
X95349751Y-73178203D01*
X95353314Y-73163747D01*
X95363916Y-73135791D01*
X95367664Y-73128649D01*
X95372378Y-73102522D01*
X95373524Y-73099500D01*
X95385140Y-73068872D01*
X95392886Y-73005072D01*
X95394229Y-72997743D01*
X95397448Y-72984686D01*
X95397448Y-72984679D01*
X95398012Y-72982392D01*
X95398020Y-72982353D01*
X95402982Y-72962217D01*
X95401307Y-72935724D01*
X95405645Y-72900000D01*
X95401306Y-72864272D01*
X95404612Y-72844391D01*
X95398005Y-72817584D01*
X95397999Y-72817551D01*
X95397448Y-72815314D01*
X95394232Y-72802266D01*
X95392885Y-72794915D01*
X95385140Y-72731128D01*
X95372376Y-72697474D01*
X95370828Y-72677376D01*
X95363916Y-72664207D01*
X95353314Y-72636252D01*
X95351382Y-72628415D01*
X95337580Y-72605722D01*
X95324818Y-72572070D01*
X95321809Y-72567711D01*
X95304372Y-72542449D01*
X95298059Y-72523308D01*
X95288190Y-72512168D01*
X95271209Y-72487565D01*
X95267458Y-72480418D01*
X95248631Y-72461694D01*
X95228182Y-72432070D01*
X95201241Y-72408202D01*
X95190529Y-72391126D01*
X95178285Y-72382674D01*
X95155909Y-72362850D01*
X95150563Y-72356816D01*
X95127794Y-72343134D01*
X95100856Y-72319269D01*
X95100851Y-72319265D01*
X95068981Y-72302538D01*
X95054496Y-72288522D01*
X95040579Y-72283244D01*
X95014109Y-72269351D01*
X95007471Y-72264769D01*
X94982095Y-72256937D01*
X94950225Y-72240210D01*
X94950224Y-72240209D01*
X94950223Y-72240209D01*
X94915277Y-72231596D01*
X94897850Y-72221449D01*
X94883074Y-72219655D01*
X94854050Y-72212502D01*
X94846511Y-72209643D01*
X94820002Y-72208112D01*
X94785061Y-72199500D01*
X94785056Y-72199500D01*
X94749072Y-72199500D01*
X94729734Y-72193821D01*
X94714945Y-72195617D01*
X94685060Y-72195617D01*
X94677028Y-72194642D01*
X94650929Y-72199500D01*
X94614944Y-72199500D01*
X94579995Y-72208113D01*
X94559858Y-72207226D01*
X94545952Y-72212501D01*
X94516924Y-72219655D01*
X94508918Y-72220626D01*
X94484722Y-72231595D01*
X94449781Y-72240207D01*
X94449774Y-72240210D01*
X94417901Y-72256938D01*
X94398133Y-72260897D01*
X94385884Y-72269353D01*
X94359420Y-72283243D01*
X94351874Y-72286104D01*
X94331019Y-72302537D01*
X94299152Y-72319263D01*
X94299148Y-72319266D01*
X94272200Y-72343139D01*
X94253954Y-72351714D01*
X94244087Y-72362852D01*
X94221713Y-72382674D01*
X94215078Y-72387253D01*
X94198761Y-72408199D01*
X94171817Y-72432070D01*
X94151366Y-72461698D01*
X94135704Y-72474389D01*
X94128788Y-72487567D01*
X94111809Y-72512166D01*
X94106458Y-72518205D01*
X94095630Y-72542444D01*
X94075184Y-72572065D01*
X94075182Y-72572069D01*
X94062416Y-72605729D01*
X94050245Y-72621801D01*
X94046683Y-72636254D01*
X94036084Y-72664202D01*
X94032338Y-72671339D01*
X94027624Y-72697470D01*
X94014860Y-72731126D01*
X94010521Y-72766858D01*
X94002552Y-72785372D01*
X94002552Y-72800263D01*
X93998949Y-72829936D01*
X93997015Y-72837781D01*
X93998692Y-72864268D01*
X93994355Y-72899995D01*
X93994355Y-72900003D01*
X92339159Y-72900003D01*
X92342262Y-70000003D01*
X93994355Y-70000003D01*
X93998692Y-70035730D01*
X93995386Y-70055607D01*
X93998949Y-70070062D01*
X94002552Y-70099735D01*
X94002552Y-70107815D01*
X94010521Y-70133142D01*
X94014859Y-70168870D01*
X94014861Y-70168878D01*
X94027623Y-70202528D01*
X94029171Y-70222624D01*
X94036082Y-70235792D01*
X94046682Y-70263742D01*
X94048613Y-70271579D01*
X94062417Y-70294271D01*
X94064590Y-70300000D01*
X94075182Y-70327931D01*
X94075184Y-70327934D01*
X94095628Y-70357553D01*
X94101938Y-70376689D01*
X94111808Y-70387830D01*
X94128789Y-70412431D01*
X94132543Y-70419584D01*
X94151367Y-70438304D01*
X94171813Y-70467925D01*
X94171814Y-70467926D01*
X94171816Y-70467928D01*
X94171817Y-70467929D01*
X94176101Y-70471724D01*
X94198757Y-70491796D01*
X94209466Y-70508869D01*
X94221713Y-70517323D01*
X94244088Y-70537147D01*
X94249438Y-70543186D01*
X94272204Y-70556864D01*
X94299145Y-70580732D01*
X94299151Y-70580736D01*
X94331011Y-70597457D01*
X94345499Y-70611475D01*
X94359418Y-70616754D01*
X94385888Y-70630647D01*
X94392533Y-70635234D01*
X94417906Y-70643063D01*
X94449775Y-70659790D01*
X94484714Y-70668401D01*
X94502128Y-70678540D01*
X94516911Y-70680336D01*
X94545932Y-70687490D01*
X94553496Y-70690358D01*
X94580003Y-70691887D01*
X94614941Y-70700499D01*
X94614942Y-70700500D01*
X94650937Y-70700500D01*
X94670285Y-70706181D01*
X94685049Y-70704388D01*
X94714954Y-70704388D01*
X94722950Y-70705359D01*
X94749063Y-70700500D01*
X94785058Y-70700500D01*
X94785060Y-70700499D01*
X94819994Y-70691889D01*
X94840131Y-70692774D01*
X94854064Y-70687490D01*
X94883088Y-70680335D01*
X94891113Y-70679360D01*
X94915280Y-70668403D01*
X94950225Y-70659790D01*
X94982089Y-70643065D01*
X95001855Y-70639105D01*
X95014112Y-70630645D01*
X95040582Y-70616753D01*
X95048133Y-70613888D01*
X95068985Y-70597459D01*
X95100852Y-70580734D01*
X95127792Y-70556866D01*
X95146037Y-70548290D01*
X95155907Y-70537150D01*
X95178285Y-70517324D01*
X95184928Y-70512738D01*
X95201243Y-70491795D01*
X95228183Y-70467929D01*
X95248629Y-70438306D01*
X95264290Y-70425614D01*
X95271209Y-70412432D01*
X95288192Y-70387827D01*
X95293546Y-70381783D01*
X95304372Y-70357549D01*
X95324818Y-70327930D01*
X95337580Y-70294278D01*
X95349751Y-70278203D01*
X95353314Y-70263747D01*
X95363916Y-70235791D01*
X95367664Y-70228649D01*
X95372378Y-70202522D01*
X95373267Y-70200179D01*
X95385140Y-70168872D01*
X95392886Y-70105072D01*
X95394229Y-70097743D01*
X95397448Y-70084686D01*
X95397448Y-70084679D01*
X95398012Y-70082392D01*
X95398020Y-70082353D01*
X95402982Y-70062217D01*
X95401577Y-70040000D01*
X97144341Y-70040000D01*
X97164936Y-70275403D01*
X97164938Y-70275413D01*
X97226094Y-70503655D01*
X97226096Y-70503659D01*
X97226097Y-70503663D01*
X97314281Y-70692774D01*
X97325965Y-70717830D01*
X97325967Y-70717834D01*
X97461501Y-70911395D01*
X97461506Y-70911402D01*
X97628597Y-71078493D01*
X97628603Y-71078498D01*
X97689555Y-71121177D01*
X97809612Y-71205242D01*
X97814594Y-71208730D01*
X97858219Y-71263307D01*
X97865413Y-71332805D01*
X97833890Y-71395160D01*
X97814595Y-71411880D01*
X97628922Y-71541890D01*
X97628920Y-71541891D01*
X97461891Y-71708920D01*
X97461886Y-71708926D01*
X97326400Y-71902420D01*
X97326399Y-71902422D01*
X97226570Y-72116507D01*
X97226567Y-72116513D01*
X97169364Y-72329999D01*
X97169364Y-72330000D01*
X97886653Y-72330000D01*
X97953692Y-72349685D01*
X97999447Y-72402489D01*
X98009391Y-72471647D01*
X98005631Y-72488933D01*
X98000000Y-72508111D01*
X98000000Y-72651889D01*
X98003267Y-72663014D01*
X98005631Y-72671067D01*
X98005630Y-72740936D01*
X97967855Y-72799714D01*
X97904299Y-72828738D01*
X97886653Y-72830000D01*
X97169364Y-72830000D01*
X97226567Y-73043486D01*
X97226570Y-73043492D01*
X97326399Y-73257578D01*
X97461894Y-73451082D01*
X97628917Y-73618105D01*
X97822421Y-73753600D01*
X98036507Y-73853429D01*
X98036516Y-73853433D01*
X98250000Y-73910634D01*
X98250000Y-73192301D01*
X98269685Y-73125262D01*
X98322489Y-73079507D01*
X98391647Y-73069563D01*
X98464237Y-73080000D01*
X98464238Y-73080000D01*
X98535762Y-73080000D01*
X98535763Y-73080000D01*
X98608353Y-73069563D01*
X98677512Y-73079507D01*
X98730315Y-73125262D01*
X98750000Y-73192301D01*
X98750000Y-73910633D01*
X98963483Y-73853433D01*
X98963492Y-73853429D01*
X99177578Y-73753600D01*
X99371082Y-73618105D01*
X99538105Y-73451082D01*
X99673600Y-73257578D01*
X99773429Y-73043492D01*
X99773432Y-73043486D01*
X99830636Y-72830000D01*
X99113347Y-72830000D01*
X99046308Y-72810315D01*
X99000553Y-72757511D01*
X98990609Y-72688353D01*
X98994369Y-72671067D01*
X98996733Y-72663014D01*
X99000000Y-72651889D01*
X99000000Y-72550000D01*
X102175001Y-72550000D01*
X102175001Y-72824986D01*
X102185494Y-72927697D01*
X102240641Y-73094119D01*
X102240643Y-73094124D01*
X102332684Y-73243345D01*
X102456654Y-73367315D01*
X102605875Y-73459356D01*
X102605880Y-73459358D01*
X102772302Y-73514505D01*
X102772309Y-73514506D01*
X102875019Y-73524999D01*
X103012499Y-73524999D01*
X103012500Y-73524998D01*
X103012500Y-72550000D01*
X102175001Y-72550000D01*
X99000000Y-72550000D01*
X99000000Y-72508111D01*
X98994368Y-72488933D01*
X98994370Y-72419064D01*
X99032145Y-72360286D01*
X99095701Y-72331262D01*
X99113347Y-72330000D01*
X99830636Y-72330000D01*
X99830635Y-72329999D01*
X99773432Y-72116513D01*
X99773429Y-72116507D01*
X99742416Y-72050000D01*
X102175000Y-72050000D01*
X103012500Y-72050000D01*
X103012500Y-71075000D01*
X102875027Y-71075000D01*
X102875012Y-71075001D01*
X102772302Y-71085494D01*
X102605880Y-71140641D01*
X102605875Y-71140643D01*
X102456654Y-71232684D01*
X102332684Y-71356654D01*
X102240643Y-71505875D01*
X102240641Y-71505880D01*
X102185494Y-71672302D01*
X102185493Y-71672309D01*
X102175000Y-71775013D01*
X102175000Y-72050000D01*
X99742416Y-72050000D01*
X99673600Y-71902422D01*
X99673599Y-71902420D01*
X99538113Y-71708926D01*
X99538108Y-71708920D01*
X99371078Y-71541890D01*
X99185405Y-71411879D01*
X99141780Y-71357302D01*
X99134588Y-71287804D01*
X99166110Y-71225449D01*
X99185406Y-71208730D01*
X99189508Y-71205858D01*
X99371401Y-71078495D01*
X99538495Y-70911401D01*
X99674035Y-70717830D01*
X99773903Y-70503663D01*
X99835063Y-70275408D01*
X99855659Y-70040000D01*
X99835063Y-69804592D01*
X99776912Y-69587567D01*
X99773905Y-69576344D01*
X99773904Y-69576343D01*
X99773903Y-69576337D01*
X99674035Y-69362171D01*
X99670370Y-69356936D01*
X99538494Y-69168597D01*
X99371402Y-69001506D01*
X99371396Y-69001501D01*
X99185842Y-68871575D01*
X99142217Y-68816998D01*
X99135023Y-68747500D01*
X99166546Y-68685145D01*
X99185842Y-68668425D01*
X99259581Y-68616792D01*
X99371401Y-68538495D01*
X99538495Y-68371401D01*
X99674035Y-68177830D01*
X99773903Y-67963663D01*
X99835063Y-67735408D01*
X99855659Y-67500000D01*
X99835063Y-67264592D01*
X99773903Y-67036337D01*
X99674035Y-66822171D01*
X99652297Y-66791126D01*
X99538496Y-66628600D01*
X99477680Y-66567784D01*
X99416567Y-66506671D01*
X99383084Y-66445351D01*
X99388068Y-66375659D01*
X99429939Y-66319725D01*
X99460915Y-66302810D01*
X99592331Y-66253796D01*
X99707546Y-66167546D01*
X99793796Y-66052331D01*
X99844091Y-65917483D01*
X99850500Y-65857873D01*
X99850499Y-64062128D01*
X99844091Y-64002517D01*
X99841517Y-63995617D01*
X99793797Y-63867671D01*
X99793793Y-63867664D01*
X99707547Y-63752455D01*
X99707544Y-63752452D01*
X99592335Y-63666206D01*
X99592328Y-63666202D01*
X99457482Y-63615908D01*
X99457483Y-63615908D01*
X99397883Y-63609501D01*
X99397881Y-63609500D01*
X99397873Y-63609500D01*
X99397864Y-63609500D01*
X97602129Y-63609500D01*
X97602123Y-63609501D01*
X97542516Y-63615908D01*
X97407671Y-63666202D01*
X97407664Y-63666206D01*
X97292455Y-63752452D01*
X97292452Y-63752455D01*
X97206206Y-63867664D01*
X97206202Y-63867671D01*
X97155908Y-64002517D01*
X97150058Y-64056936D01*
X97149501Y-64062123D01*
X97149500Y-64062135D01*
X97149500Y-65857870D01*
X97149501Y-65857876D01*
X97155908Y-65917483D01*
X97206202Y-66052328D01*
X97206206Y-66052335D01*
X97292452Y-66167544D01*
X97292455Y-66167547D01*
X97407664Y-66253793D01*
X97407671Y-66253797D01*
X97539081Y-66302810D01*
X97595015Y-66344681D01*
X97619432Y-66410145D01*
X97604580Y-66478418D01*
X97583430Y-66506673D01*
X97461503Y-66628600D01*
X97325965Y-66822169D01*
X97325964Y-66822171D01*
X97226098Y-67036335D01*
X97226094Y-67036344D01*
X97164938Y-67264586D01*
X97164936Y-67264596D01*
X97144341Y-67499999D01*
X97144341Y-67500000D01*
X97164936Y-67735403D01*
X97164938Y-67735413D01*
X97226094Y-67963655D01*
X97226096Y-67963659D01*
X97226097Y-67963663D01*
X97315077Y-68154481D01*
X97325965Y-68177830D01*
X97325967Y-68177834D01*
X97461501Y-68371395D01*
X97461506Y-68371402D01*
X97628597Y-68538493D01*
X97628603Y-68538498D01*
X97814158Y-68668425D01*
X97857783Y-68723002D01*
X97864977Y-68792500D01*
X97833454Y-68854855D01*
X97814158Y-68871575D01*
X97628597Y-69001505D01*
X97461505Y-69168597D01*
X97325965Y-69362169D01*
X97325964Y-69362171D01*
X97226098Y-69576335D01*
X97226094Y-69576344D01*
X97164938Y-69804586D01*
X97164936Y-69804596D01*
X97144341Y-70039999D01*
X97144341Y-70040000D01*
X95401577Y-70040000D01*
X95401307Y-70035724D01*
X95405645Y-70000000D01*
X95401306Y-69964272D01*
X95404612Y-69944391D01*
X95398005Y-69917584D01*
X95397999Y-69917551D01*
X95397448Y-69915314D01*
X95394232Y-69902266D01*
X95392885Y-69894915D01*
X95385140Y-69831128D01*
X95372376Y-69797474D01*
X95370828Y-69777376D01*
X95363916Y-69764207D01*
X95353314Y-69736252D01*
X95351382Y-69728415D01*
X95337580Y-69705722D01*
X95324818Y-69672070D01*
X95304372Y-69642449D01*
X95298059Y-69623308D01*
X95288190Y-69612168D01*
X95271209Y-69587565D01*
X95267458Y-69580418D01*
X95248631Y-69561694D01*
X95235315Y-69542403D01*
X95228183Y-69532071D01*
X95223544Y-69527961D01*
X95201241Y-69508202D01*
X95190529Y-69491126D01*
X95178285Y-69482674D01*
X95155909Y-69462850D01*
X95150563Y-69456816D01*
X95127794Y-69443134D01*
X95100856Y-69419269D01*
X95100851Y-69419265D01*
X95068981Y-69402538D01*
X95054496Y-69388522D01*
X95040579Y-69383244D01*
X95014109Y-69369351D01*
X95007471Y-69364769D01*
X94982095Y-69356937D01*
X94950225Y-69340210D01*
X94950224Y-69340209D01*
X94950223Y-69340209D01*
X94915277Y-69331596D01*
X94897850Y-69321449D01*
X94883074Y-69319655D01*
X94854050Y-69312502D01*
X94846511Y-69309643D01*
X94820002Y-69308112D01*
X94785061Y-69299500D01*
X94785056Y-69299500D01*
X94749072Y-69299500D01*
X94729734Y-69293821D01*
X94714945Y-69295617D01*
X94685060Y-69295617D01*
X94677028Y-69294642D01*
X94650929Y-69299500D01*
X94614944Y-69299500D01*
X94579995Y-69308113D01*
X94559858Y-69307226D01*
X94545952Y-69312501D01*
X94516924Y-69319655D01*
X94508918Y-69320626D01*
X94484722Y-69331595D01*
X94449781Y-69340207D01*
X94449774Y-69340210D01*
X94417901Y-69356938D01*
X94398133Y-69360897D01*
X94385884Y-69369353D01*
X94359420Y-69383243D01*
X94351874Y-69386104D01*
X94331019Y-69402537D01*
X94299152Y-69419263D01*
X94299148Y-69419266D01*
X94272200Y-69443139D01*
X94253954Y-69451714D01*
X94244087Y-69462852D01*
X94221713Y-69482674D01*
X94215078Y-69487253D01*
X94198761Y-69508199D01*
X94171817Y-69532070D01*
X94151366Y-69561698D01*
X94135704Y-69574389D01*
X94128788Y-69587567D01*
X94111809Y-69612166D01*
X94106458Y-69618205D01*
X94095630Y-69642444D01*
X94075184Y-69672065D01*
X94075182Y-69672069D01*
X94062416Y-69705729D01*
X94050245Y-69721801D01*
X94046683Y-69736254D01*
X94036084Y-69764202D01*
X94032338Y-69771339D01*
X94027624Y-69797470D01*
X94014860Y-69831126D01*
X94010521Y-69866858D01*
X94002552Y-69885372D01*
X94002552Y-69900263D01*
X93998949Y-69929936D01*
X93997015Y-69937781D01*
X93998692Y-69964268D01*
X93994355Y-69999995D01*
X93994355Y-70000003D01*
X92342262Y-70000003D01*
X92345150Y-67300003D01*
X93994355Y-67300003D01*
X93998692Y-67335730D01*
X93995386Y-67355607D01*
X93998949Y-67370062D01*
X94002552Y-67399735D01*
X94002552Y-67407815D01*
X94010521Y-67433142D01*
X94014859Y-67468870D01*
X94014861Y-67468878D01*
X94027623Y-67502528D01*
X94029171Y-67522624D01*
X94036082Y-67535792D01*
X94046682Y-67563742D01*
X94048613Y-67571579D01*
X94062417Y-67594271D01*
X94067601Y-67607940D01*
X94075182Y-67627931D01*
X94075184Y-67627934D01*
X94095628Y-67657553D01*
X94101938Y-67676689D01*
X94111808Y-67687830D01*
X94128789Y-67712431D01*
X94132543Y-67719584D01*
X94151367Y-67738304D01*
X94171813Y-67767925D01*
X94171814Y-67767926D01*
X94198757Y-67791796D01*
X94209466Y-67808869D01*
X94221713Y-67817323D01*
X94244088Y-67837147D01*
X94249438Y-67843186D01*
X94272204Y-67856864D01*
X94299145Y-67880732D01*
X94299151Y-67880736D01*
X94331011Y-67897457D01*
X94345499Y-67911475D01*
X94359418Y-67916754D01*
X94385888Y-67930647D01*
X94392533Y-67935234D01*
X94417906Y-67943063D01*
X94449775Y-67959790D01*
X94484714Y-67968401D01*
X94502128Y-67978540D01*
X94516911Y-67980336D01*
X94545932Y-67987490D01*
X94553496Y-67990358D01*
X94580003Y-67991887D01*
X94614941Y-68000499D01*
X94614942Y-68000500D01*
X94650937Y-68000500D01*
X94670285Y-68006181D01*
X94685049Y-68004388D01*
X94714954Y-68004388D01*
X94722950Y-68005359D01*
X94749063Y-68000500D01*
X94785058Y-68000500D01*
X94785060Y-68000499D01*
X94819994Y-67991889D01*
X94840131Y-67992774D01*
X94854064Y-67987490D01*
X94883088Y-67980335D01*
X94891113Y-67979360D01*
X94915280Y-67968403D01*
X94950225Y-67959790D01*
X94982089Y-67943065D01*
X95001855Y-67939105D01*
X95014112Y-67930645D01*
X95040582Y-67916753D01*
X95048133Y-67913888D01*
X95068985Y-67897459D01*
X95100852Y-67880734D01*
X95127792Y-67856866D01*
X95146037Y-67848290D01*
X95155907Y-67837150D01*
X95178285Y-67817324D01*
X95184928Y-67812738D01*
X95201243Y-67791795D01*
X95228183Y-67767929D01*
X95248629Y-67738306D01*
X95264290Y-67725614D01*
X95271209Y-67712432D01*
X95288192Y-67687827D01*
X95293546Y-67681783D01*
X95304372Y-67657549D01*
X95324818Y-67627930D01*
X95337580Y-67594278D01*
X95349751Y-67578203D01*
X95353314Y-67563747D01*
X95363916Y-67535791D01*
X95367664Y-67528649D01*
X95372378Y-67502522D01*
X95373016Y-67500841D01*
X95385140Y-67468872D01*
X95392886Y-67405072D01*
X95394229Y-67397743D01*
X95397448Y-67384686D01*
X95397448Y-67384679D01*
X95398012Y-67382392D01*
X95398020Y-67382353D01*
X95402982Y-67362217D01*
X95401307Y-67335724D01*
X95405645Y-67300000D01*
X95401306Y-67264272D01*
X95404612Y-67244391D01*
X95398005Y-67217584D01*
X95397999Y-67217551D01*
X95397448Y-67215314D01*
X95394232Y-67202266D01*
X95392885Y-67194915D01*
X95385212Y-67131722D01*
X95385140Y-67131127D01*
X95385139Y-67131126D01*
X95372376Y-67097474D01*
X95370828Y-67077376D01*
X95363916Y-67064207D01*
X95353314Y-67036252D01*
X95351382Y-67028415D01*
X95337580Y-67005722D01*
X95324818Y-66972070D01*
X95321860Y-66967785D01*
X95304372Y-66942449D01*
X95298059Y-66923308D01*
X95288190Y-66912168D01*
X95271209Y-66887565D01*
X95267458Y-66880418D01*
X95248631Y-66861694D01*
X95228182Y-66832070D01*
X95201241Y-66808202D01*
X95190529Y-66791126D01*
X95178285Y-66782674D01*
X95155909Y-66762850D01*
X95150563Y-66756816D01*
X95127794Y-66743134D01*
X95100856Y-66719269D01*
X95100851Y-66719265D01*
X95068981Y-66702538D01*
X95054496Y-66688522D01*
X95040579Y-66683244D01*
X95014109Y-66669351D01*
X95007471Y-66664769D01*
X94982095Y-66656937D01*
X94950225Y-66640210D01*
X94950224Y-66640209D01*
X94950223Y-66640209D01*
X94915277Y-66631596D01*
X94897850Y-66621449D01*
X94883074Y-66619655D01*
X94854050Y-66612502D01*
X94846511Y-66609643D01*
X94820002Y-66608112D01*
X94785061Y-66599500D01*
X94785056Y-66599500D01*
X94749072Y-66599500D01*
X94729734Y-66593821D01*
X94714945Y-66595617D01*
X94685060Y-66595617D01*
X94677028Y-66594642D01*
X94650929Y-66599500D01*
X94614944Y-66599500D01*
X94579995Y-66608113D01*
X94559858Y-66607226D01*
X94545952Y-66612501D01*
X94516924Y-66619655D01*
X94508918Y-66620626D01*
X94484722Y-66631595D01*
X94449781Y-66640207D01*
X94449774Y-66640210D01*
X94417901Y-66656938D01*
X94398133Y-66660897D01*
X94385884Y-66669353D01*
X94359420Y-66683243D01*
X94351874Y-66686104D01*
X94331019Y-66702537D01*
X94299152Y-66719263D01*
X94299148Y-66719266D01*
X94272200Y-66743139D01*
X94253954Y-66751714D01*
X94244087Y-66762852D01*
X94221713Y-66782674D01*
X94215078Y-66787253D01*
X94198761Y-66808199D01*
X94171817Y-66832070D01*
X94151366Y-66861698D01*
X94135704Y-66874389D01*
X94128788Y-66887567D01*
X94111809Y-66912166D01*
X94106458Y-66918205D01*
X94095630Y-66942444D01*
X94075184Y-66972065D01*
X94075182Y-66972069D01*
X94062416Y-67005729D01*
X94050245Y-67021801D01*
X94046683Y-67036254D01*
X94036084Y-67064202D01*
X94032338Y-67071339D01*
X94027624Y-67097470D01*
X94014860Y-67131126D01*
X94010521Y-67166858D01*
X94002552Y-67185372D01*
X94002552Y-67200263D01*
X93998949Y-67229936D01*
X93997015Y-67237781D01*
X93998692Y-67264268D01*
X93994355Y-67299995D01*
X93994355Y-67300003D01*
X92345150Y-67300003D01*
X92347931Y-64700003D01*
X93994355Y-64700003D01*
X93998692Y-64735730D01*
X93995386Y-64755607D01*
X93998949Y-64770062D01*
X94002552Y-64799735D01*
X94002552Y-64807815D01*
X94010521Y-64833142D01*
X94014859Y-64868870D01*
X94014861Y-64868878D01*
X94027623Y-64902528D01*
X94029171Y-64922624D01*
X94036082Y-64935792D01*
X94046682Y-64963742D01*
X94048613Y-64971579D01*
X94062417Y-64994271D01*
X94067601Y-65007940D01*
X94075182Y-65027931D01*
X94075184Y-65027934D01*
X94095628Y-65057553D01*
X94101938Y-65076689D01*
X94111808Y-65087830D01*
X94128789Y-65112431D01*
X94132543Y-65119584D01*
X94151367Y-65138304D01*
X94171813Y-65167925D01*
X94171814Y-65167926D01*
X94198757Y-65191796D01*
X94209466Y-65208869D01*
X94221713Y-65217323D01*
X94244088Y-65237147D01*
X94249438Y-65243186D01*
X94272204Y-65256864D01*
X94299145Y-65280732D01*
X94299151Y-65280736D01*
X94331011Y-65297457D01*
X94345499Y-65311475D01*
X94359418Y-65316754D01*
X94385888Y-65330647D01*
X94392533Y-65335234D01*
X94417906Y-65343063D01*
X94449775Y-65359790D01*
X94484714Y-65368401D01*
X94502128Y-65378540D01*
X94516911Y-65380336D01*
X94545932Y-65387490D01*
X94553496Y-65390358D01*
X94580003Y-65391887D01*
X94614941Y-65400499D01*
X94614942Y-65400500D01*
X94650937Y-65400500D01*
X94670285Y-65406181D01*
X94685049Y-65404388D01*
X94714954Y-65404388D01*
X94722950Y-65405359D01*
X94749063Y-65400500D01*
X94785058Y-65400500D01*
X94785060Y-65400499D01*
X94819994Y-65391889D01*
X94840131Y-65392774D01*
X94854064Y-65387490D01*
X94883088Y-65380335D01*
X94891113Y-65379360D01*
X94915280Y-65368403D01*
X94950225Y-65359790D01*
X94982089Y-65343065D01*
X95001855Y-65339105D01*
X95014112Y-65330645D01*
X95040582Y-65316753D01*
X95048133Y-65313888D01*
X95068985Y-65297459D01*
X95100852Y-65280734D01*
X95127792Y-65256866D01*
X95146037Y-65248290D01*
X95155907Y-65237150D01*
X95178285Y-65217324D01*
X95184928Y-65212738D01*
X95201243Y-65191795D01*
X95228183Y-65167929D01*
X95248629Y-65138306D01*
X95264290Y-65125614D01*
X95271209Y-65112432D01*
X95288192Y-65087827D01*
X95293546Y-65081783D01*
X95304372Y-65057549D01*
X95324818Y-65027930D01*
X95337580Y-64994278D01*
X95349751Y-64978203D01*
X95353314Y-64963747D01*
X95363916Y-64935791D01*
X95367664Y-64928649D01*
X95372378Y-64902522D01*
X95385140Y-64868872D01*
X95392886Y-64805072D01*
X95394229Y-64797743D01*
X95397448Y-64784686D01*
X95397448Y-64784679D01*
X95398012Y-64782392D01*
X95398020Y-64782353D01*
X95402982Y-64762217D01*
X95401307Y-64735724D01*
X95405645Y-64700000D01*
X95401306Y-64664272D01*
X95404612Y-64644391D01*
X95398005Y-64617584D01*
X95397999Y-64617551D01*
X95397448Y-64615314D01*
X95394232Y-64602266D01*
X95392885Y-64594915D01*
X95385140Y-64531128D01*
X95372376Y-64497474D01*
X95370828Y-64477376D01*
X95363916Y-64464207D01*
X95353314Y-64436252D01*
X95351382Y-64428415D01*
X95337580Y-64405722D01*
X95324818Y-64372070D01*
X95304372Y-64342449D01*
X95298059Y-64323308D01*
X95288190Y-64312168D01*
X95271209Y-64287565D01*
X95267458Y-64280418D01*
X95248631Y-64261694D01*
X95235315Y-64242403D01*
X95228183Y-64232071D01*
X95228182Y-64232070D01*
X95201241Y-64208202D01*
X95190529Y-64191126D01*
X95178285Y-64182674D01*
X95155909Y-64162850D01*
X95150563Y-64156816D01*
X95127794Y-64143134D01*
X95100856Y-64119269D01*
X95100851Y-64119265D01*
X95068981Y-64102538D01*
X95054496Y-64088522D01*
X95040579Y-64083244D01*
X95014109Y-64069351D01*
X95007471Y-64064769D01*
X94982095Y-64056937D01*
X94950225Y-64040210D01*
X94950224Y-64040209D01*
X94950223Y-64040209D01*
X94915277Y-64031596D01*
X94897850Y-64021449D01*
X94883074Y-64019655D01*
X94854050Y-64012502D01*
X94846511Y-64009643D01*
X94820002Y-64008112D01*
X94785061Y-63999500D01*
X94785056Y-63999500D01*
X94749072Y-63999500D01*
X94729734Y-63993821D01*
X94714945Y-63995617D01*
X94685060Y-63995617D01*
X94677028Y-63994642D01*
X94650929Y-63999500D01*
X94614944Y-63999500D01*
X94579995Y-64008113D01*
X94559858Y-64007226D01*
X94545952Y-64012501D01*
X94516924Y-64019655D01*
X94508918Y-64020626D01*
X94484722Y-64031595D01*
X94449781Y-64040207D01*
X94449774Y-64040210D01*
X94417901Y-64056938D01*
X94398133Y-64060897D01*
X94385884Y-64069353D01*
X94359420Y-64083243D01*
X94351874Y-64086104D01*
X94331019Y-64102537D01*
X94299152Y-64119263D01*
X94299148Y-64119266D01*
X94272200Y-64143139D01*
X94253954Y-64151714D01*
X94244087Y-64162852D01*
X94221713Y-64182674D01*
X94215078Y-64187253D01*
X94198761Y-64208199D01*
X94171817Y-64232070D01*
X94151366Y-64261698D01*
X94135704Y-64274389D01*
X94128788Y-64287567D01*
X94111809Y-64312166D01*
X94106458Y-64318205D01*
X94095630Y-64342444D01*
X94075184Y-64372065D01*
X94075182Y-64372069D01*
X94062416Y-64405729D01*
X94050245Y-64421801D01*
X94046683Y-64436254D01*
X94036084Y-64464202D01*
X94032338Y-64471339D01*
X94027624Y-64497470D01*
X94014860Y-64531126D01*
X94010521Y-64566858D01*
X94002552Y-64585372D01*
X94002552Y-64600263D01*
X93998949Y-64629936D01*
X93997015Y-64637781D01*
X93998692Y-64664268D01*
X93994355Y-64699995D01*
X93994355Y-64700003D01*
X92347931Y-64700003D01*
X92350487Y-62310867D01*
X92352388Y-62289374D01*
X92358048Y-62257448D01*
X92367509Y-62207423D01*
X92381575Y-62133052D01*
X92386356Y-62115201D01*
X92408814Y-62050976D01*
X92445362Y-61956989D01*
X92448651Y-61949892D01*
X92485517Y-61881979D01*
X92487263Y-61878972D01*
X92536999Y-61798722D01*
X92540636Y-61793478D01*
X92588959Y-61730995D01*
X92592134Y-61727213D01*
X92654901Y-61658300D01*
X92658354Y-61654804D01*
X92716089Y-61600850D01*
X92720946Y-61596760D01*
X92796236Y-61539752D01*
X92799059Y-61537739D01*
X92863251Y-61494702D01*
X92870003Y-61490771D01*
X92960190Y-61445623D01*
X93022036Y-61417284D01*
X93039347Y-61410868D01*
X93160918Y-61375882D01*
X93186561Y-61368822D01*
X93219453Y-61364373D01*
X156378817Y-61355281D01*
X156400455Y-61357182D01*
G37*
%TD.AperFunction*%
%TA.AperFunction,Conductor*%
G36*
X98880702Y-76545716D02*
G01*
X98909568Y-76588988D01*
X98912136Y-76587791D01*
X98915187Y-76594336D01*
X98938243Y-76631715D01*
X99003273Y-76737147D01*
X99007289Y-76743657D01*
X99088804Y-76825172D01*
X99122289Y-76886495D01*
X99117305Y-76956187D01*
X99088805Y-77000534D01*
X99032682Y-77056657D01*
X98940643Y-77205875D01*
X98940642Y-77205878D01*
X98917205Y-77276607D01*
X98877432Y-77334051D01*
X98812916Y-77360874D01*
X98744140Y-77348559D01*
X98692940Y-77301015D01*
X98675499Y-77237602D01*
X98675499Y-76639429D01*
X98695184Y-76572390D01*
X98747988Y-76526635D01*
X98817146Y-76516691D01*
X98880702Y-76545716D01*
G37*
%TD.AperFunction*%
%TA.AperFunction,Conductor*%
G36*
X104342983Y-75195185D02*
G01*
X104363625Y-75211819D01*
X104538181Y-75386375D01*
X104571666Y-75447698D01*
X104574500Y-75474056D01*
X104574500Y-76102046D01*
X104554815Y-76169085D01*
X104538181Y-76189727D01*
X103914728Y-76813181D01*
X103853405Y-76846666D01*
X103827047Y-76849500D01*
X103384304Y-76849500D01*
X103347432Y-76852401D01*
X103347426Y-76852402D01*
X103189606Y-76898254D01*
X103189603Y-76898255D01*
X103051878Y-76979705D01*
X102984154Y-76996888D01*
X102917891Y-76974728D01*
X102874128Y-76920262D01*
X102866759Y-76850782D01*
X102898123Y-76788347D01*
X102901076Y-76785292D01*
X102915029Y-76771339D01*
X102942712Y-76743656D01*
X103034814Y-76594334D01*
X103089999Y-76427797D01*
X103100500Y-76325009D01*
X103100499Y-75647952D01*
X103120183Y-75580914D01*
X103136818Y-75560272D01*
X103485272Y-75211819D01*
X103546595Y-75178334D01*
X103572953Y-75175500D01*
X104275944Y-75175500D01*
X104342983Y-75195185D01*
G37*
%TD.AperFunction*%
%TA.AperFunction,Conductor*%
G36*
X111051721Y-63887159D02*
G01*
X111096067Y-63915657D01*
X111244647Y-64064237D01*
X111278131Y-64125558D01*
X111280583Y-64161645D01*
X111274500Y-64238942D01*
X111274500Y-65181057D01*
X111280738Y-65260322D01*
X111280738Y-65260323D01*
X111330138Y-65444688D01*
X111330139Y-65444691D01*
X111416792Y-65614757D01*
X111536910Y-65763090D01*
X111685243Y-65883208D01*
X111685246Y-65883209D01*
X111685769Y-65883633D01*
X111725480Y-65941120D01*
X111727808Y-66010951D01*
X111692013Y-66070955D01*
X111685769Y-66076365D01*
X111536910Y-66196910D01*
X111416796Y-66345237D01*
X111416793Y-66345240D01*
X111416792Y-66345243D01*
X111359983Y-66456735D01*
X111312010Y-66507530D01*
X111244189Y-66524325D01*
X111178054Y-66501787D01*
X111134603Y-66447072D01*
X111125500Y-66400439D01*
X111125500Y-66229304D01*
X111123154Y-66199500D01*
X111122598Y-66192431D01*
X111118309Y-66177669D01*
X111076745Y-66034606D01*
X111076744Y-66034603D01*
X111076744Y-66034602D01*
X110993081Y-65893135D01*
X110993079Y-65893133D01*
X110993076Y-65893129D01*
X110876870Y-65776923D01*
X110876862Y-65776917D01*
X110790381Y-65725773D01*
X110735398Y-65693256D01*
X110735397Y-65693255D01*
X110735396Y-65693255D01*
X110735393Y-65693254D01*
X110577573Y-65647402D01*
X110577567Y-65647401D01*
X110540696Y-65644500D01*
X110540694Y-65644500D01*
X108759306Y-65644500D01*
X108759304Y-65644500D01*
X108722432Y-65647401D01*
X108722426Y-65647402D01*
X108564606Y-65693254D01*
X108564603Y-65693255D01*
X108423137Y-65776917D01*
X108423129Y-65776923D01*
X108306923Y-65893129D01*
X108306917Y-65893137D01*
X108223255Y-66034603D01*
X108223254Y-66034606D01*
X108177402Y-66192426D01*
X108177401Y-66192432D01*
X108174500Y-66229304D01*
X108174499Y-66305646D01*
X108154814Y-66372685D01*
X108102009Y-66418439D01*
X108076282Y-66426934D01*
X108020194Y-66438856D01*
X108020192Y-66438857D01*
X107847270Y-66515848D01*
X107847265Y-66515851D01*
X107694129Y-66627111D01*
X107567466Y-66767785D01*
X107472821Y-66931715D01*
X107472818Y-66931722D01*
X107424640Y-67080000D01*
X107414326Y-67111744D01*
X107394540Y-67300000D01*
X107414326Y-67488256D01*
X107414327Y-67488259D01*
X107472818Y-67668277D01*
X107472821Y-67668284D01*
X107567467Y-67832216D01*
X107683553Y-67961142D01*
X107694129Y-67972888D01*
X107829570Y-68071292D01*
X107872236Y-68126622D01*
X107878215Y-68196235D01*
X107845609Y-68258030D01*
X107844366Y-68259291D01*
X107155477Y-68948181D01*
X107094154Y-68981666D01*
X107067796Y-68984500D01*
X106299000Y-68984500D01*
X106231961Y-68964815D01*
X106186206Y-68912011D01*
X106175000Y-68860500D01*
X106175000Y-68769356D01*
X106172100Y-68732510D01*
X106172099Y-68732504D01*
X106126283Y-68574806D01*
X106126282Y-68574803D01*
X106042685Y-68433447D01*
X106037900Y-68427278D01*
X106040366Y-68425364D01*
X106013802Y-68376776D01*
X106018749Y-68307082D01*
X106039856Y-68274232D01*
X106038301Y-68273026D01*
X106043077Y-68266868D01*
X106043081Y-68266865D01*
X106126744Y-68125398D01*
X106166810Y-67987490D01*
X106172597Y-67967573D01*
X106172598Y-67967567D01*
X106175500Y-67930696D01*
X106175500Y-67763854D01*
X106175500Y-67552198D01*
X106195183Y-67485163D01*
X106211809Y-67464531D01*
X106970487Y-66705852D01*
X106982749Y-66696030D01*
X106982566Y-66695809D01*
X106988568Y-66690842D01*
X106988578Y-66690836D01*
X107035942Y-66640398D01*
X107056821Y-66619520D01*
X107061074Y-66614036D01*
X107064851Y-66609613D01*
X107096763Y-66575632D01*
X107106415Y-66558073D01*
X107117090Y-66541822D01*
X107129375Y-66525986D01*
X107147887Y-66483202D01*
X107150443Y-66477985D01*
X107172898Y-66437142D01*
X107177881Y-66417730D01*
X107184178Y-66399341D01*
X107192139Y-66380945D01*
X107199430Y-66334903D01*
X107200609Y-66329212D01*
X107212201Y-66284069D01*
X107212201Y-66264033D01*
X107213728Y-66244632D01*
X107216472Y-66227313D01*
X107216861Y-66224854D01*
X107212473Y-66178444D01*
X107212200Y-66172648D01*
X107212200Y-66085449D01*
X107231885Y-66018412D01*
X107248514Y-65997775D01*
X107928106Y-65318184D01*
X107989427Y-65284701D01*
X108059119Y-65289685D01*
X108066192Y-65292575D01*
X108220197Y-65361144D01*
X108405354Y-65400500D01*
X108405355Y-65400500D01*
X108594644Y-65400500D01*
X108594646Y-65400500D01*
X108779803Y-65361144D01*
X108952730Y-65284151D01*
X109105871Y-65172888D01*
X109232533Y-65032216D01*
X109327179Y-64868284D01*
X109385674Y-64688256D01*
X109405460Y-64500000D01*
X109385674Y-64311744D01*
X109385672Y-64311740D01*
X109384994Y-64305281D01*
X109386809Y-64305090D01*
X109391448Y-64244254D01*
X109433582Y-64188518D01*
X109499161Y-64164410D01*
X109520028Y-64164776D01*
X109522199Y-64164997D01*
X109522203Y-64164999D01*
X109624991Y-64175500D01*
X110400008Y-64175499D01*
X110400016Y-64175498D01*
X110400019Y-64175498D01*
X110456302Y-64169748D01*
X110502797Y-64164999D01*
X110669334Y-64109814D01*
X110818656Y-64017712D01*
X110920710Y-63915657D01*
X110982029Y-63882175D01*
X111051721Y-63887159D01*
G37*
%TD.AperFunction*%
%TA.AperFunction,Conductor*%
G36*
X106835185Y-63650167D02*
G01*
X106891118Y-63692039D01*
X106909557Y-63727346D01*
X106915184Y-63744329D01*
X106915187Y-63744336D01*
X106950069Y-63800888D01*
X107007288Y-63893656D01*
X107131344Y-64017712D01*
X107194937Y-64056936D01*
X107200770Y-64060534D01*
X107247495Y-64112482D01*
X107258716Y-64181445D01*
X107230873Y-64245527D01*
X107223354Y-64253754D01*
X106202909Y-65274199D01*
X106190652Y-65284020D01*
X106190835Y-65284241D01*
X106184824Y-65289213D01*
X106137473Y-65339636D01*
X106116590Y-65360519D01*
X106116578Y-65360532D01*
X106112322Y-65366017D01*
X106108538Y-65370447D01*
X106076638Y-65404418D01*
X106076637Y-65404420D01*
X106066985Y-65421976D01*
X106056311Y-65438226D01*
X106044030Y-65454061D01*
X106044025Y-65454068D01*
X106025516Y-65496838D01*
X106022946Y-65502084D01*
X106000504Y-65542906D01*
X105995523Y-65562307D01*
X105989222Y-65580710D01*
X105981263Y-65599102D01*
X105981262Y-65599105D01*
X105979395Y-65610895D01*
X105949463Y-65674028D01*
X105890151Y-65710958D01*
X105820288Y-65709958D01*
X105793805Y-65698227D01*
X105785401Y-65693257D01*
X105785393Y-65693254D01*
X105627573Y-65647402D01*
X105627567Y-65647401D01*
X105590696Y-65644500D01*
X105590694Y-65644500D01*
X105037701Y-65644500D01*
X104970662Y-65624815D01*
X104924907Y-65572011D01*
X104914963Y-65502853D01*
X104943988Y-65439297D01*
X104950020Y-65432819D01*
X105815981Y-64566858D01*
X106704172Y-63678666D01*
X106765493Y-63645183D01*
X106835185Y-63650167D01*
G37*
%TD.AperFunction*%
%TD*%
M02*
