%TF.GenerationSoftware,KiCad,Pcbnew,7.0.7*%
%TF.CreationDate,2024-03-01T11:29:19-05:00*%
%TF.ProjectId,Sh_mas,5368e96d-6173-42e6-9b69-6361645f7063,1.0*%
%TF.SameCoordinates,Original*%
%TF.FileFunction,Copper,L1,Top*%
%TF.FilePolarity,Positive*%
%FSLAX46Y46*%
G04 Gerber Fmt 4.6, Leading zero omitted, Abs format (unit mm)*
G04 Created by KiCad (PCBNEW 7.0.7) date 2024-03-01 11:29:19*
%MOMM*%
%LPD*%
G01*
G04 APERTURE LIST*
G04 Aperture macros list*
%AMRoundRect*
0 Rectangle with rounded corners*
0 $1 Rounding radius*
0 $2 $3 $4 $5 $6 $7 $8 $9 X,Y pos of 4 corners*
0 Add a 4 corners polygon primitive as box body*
4,1,4,$2,$3,$4,$5,$6,$7,$8,$9,$2,$3,0*
0 Add four circle primitives for the rounded corners*
1,1,$1+$1,$2,$3*
1,1,$1+$1,$4,$5*
1,1,$1+$1,$6,$7*
1,1,$1+$1,$8,$9*
0 Add four rect primitives between the rounded corners*
20,1,$1+$1,$2,$3,$4,$5,0*
20,1,$1+$1,$4,$5,$6,$7,0*
20,1,$1+$1,$6,$7,$8,$9,0*
20,1,$1+$1,$8,$9,$2,$3,0*%
G04 Aperture macros list end*
%TA.AperFunction,SMDPad,CuDef*%
%ADD10RoundRect,0.250000X0.337500X0.475000X-0.337500X0.475000X-0.337500X-0.475000X0.337500X-0.475000X0*%
%TD*%
%TA.AperFunction,SMDPad,CuDef*%
%ADD11R,3.000000X2.800000*%
%TD*%
%TA.AperFunction,SMDPad,CuDef*%
%ADD12RoundRect,0.250000X0.700000X-1.825000X0.700000X1.825000X-0.700000X1.825000X-0.700000X-1.825000X0*%
%TD*%
%TA.AperFunction,SMDPad,CuDef*%
%ADD13R,2.000000X4.000000*%
%TD*%
%TA.AperFunction,SMDPad,CuDef*%
%ADD14RoundRect,0.250000X0.475000X-0.337500X0.475000X0.337500X-0.475000X0.337500X-0.475000X-0.337500X0*%
%TD*%
%TA.AperFunction,SMDPad,CuDef*%
%ADD15RoundRect,0.250000X0.300000X-0.300000X0.300000X0.300000X-0.300000X0.300000X-0.300000X-0.300000X0*%
%TD*%
%TA.AperFunction,ComponentPad*%
%ADD16R,1.700000X1.700000*%
%TD*%
%TA.AperFunction,ComponentPad*%
%ADD17O,1.700000X1.700000*%
%TD*%
%TA.AperFunction,SMDPad,CuDef*%
%ADD18RoundRect,0.250000X-0.475000X0.337500X-0.475000X-0.337500X0.475000X-0.337500X0.475000X0.337500X0*%
%TD*%
%TA.AperFunction,SMDPad,CuDef*%
%ADD19RoundRect,0.250000X-0.337500X-0.475000X0.337500X-0.475000X0.337500X0.475000X-0.337500X0.475000X0*%
%TD*%
%TA.AperFunction,SMDPad,CuDef*%
%ADD20R,2.000000X1.500000*%
%TD*%
%TA.AperFunction,SMDPad,CuDef*%
%ADD21R,2.000000X3.800000*%
%TD*%
%TA.AperFunction,SMDPad,CuDef*%
%ADD22RoundRect,0.150000X-0.825000X-0.150000X0.825000X-0.150000X0.825000X0.150000X-0.825000X0.150000X0*%
%TD*%
%TA.AperFunction,ViaPad*%
%ADD23C,0.800000*%
%TD*%
%TA.AperFunction,Conductor*%
%ADD24C,0.250000*%
%TD*%
G04 APERTURE END LIST*
D10*
%TO.P,C13,1*%
%TO.N,GND*%
X104337500Y-64500000D03*
%TO.P,C13,2*%
%TO.N,Net-(J1-Pin_2)*%
X102262500Y-64500000D03*
%TD*%
D11*
%TO.P,L1,1,1*%
%TO.N,Net-(D1-K)*%
X147725000Y-81050000D03*
%TO.P,L1,2,2*%
%TO.N,+5V*%
X137425000Y-81050000D03*
%TD*%
D12*
%TO.P,C14,1*%
%TO.N,+5V*%
X130675000Y-84625000D03*
%TO.P,C14,2*%
%TO.N,GND*%
X130675000Y-77675000D03*
%TD*%
D13*
%TO.P,C16,1*%
%TO.N,+12V*%
X144375000Y-65150000D03*
%TO.P,C16,2*%
%TO.N,GND*%
X144375000Y-72250000D03*
%TD*%
D10*
%TO.P,R8,1*%
%TO.N,/SCLB*%
X123612500Y-84150000D03*
%TO.P,R8,2*%
%TO.N,+3.3V*%
X121537500Y-84150000D03*
%TD*%
D14*
%TO.P,C12,1*%
%TO.N,GND*%
X101800000Y-73937500D03*
%TO.P,C12,2*%
%TO.N,Net-(J1-Pin_3)*%
X101800000Y-71862500D03*
%TD*%
D10*
%TO.P,R10,1*%
%TO.N,Net-(U6-CANH)*%
X103812500Y-67650000D03*
%TO.P,R10,2*%
%TO.N,Net-(J1-Pin_2)*%
X101737500Y-67650000D03*
%TD*%
D15*
%TO.P,D1,1,K*%
%TO.N,Net-(D1-K)*%
X137775000Y-74650000D03*
%TO.P,D1,2,A*%
%TO.N,GND*%
X137775000Y-71850000D03*
%TD*%
D16*
%TO.P,J1,1,Pin_1*%
%TO.N,+12V*%
X98500000Y-64960000D03*
D17*
%TO.P,J1,2,Pin_2*%
%TO.N,Net-(J1-Pin_2)*%
X98500000Y-67500000D03*
%TO.P,J1,3,Pin_3*%
%TO.N,Net-(J1-Pin_3)*%
X98500000Y-70040000D03*
%TO.P,J1,4,Pin_4*%
%TO.N,GND*%
X98500000Y-72580000D03*
%TD*%
D18*
%TO.P,C10,1*%
%TO.N,GND*%
X113875000Y-76612500D03*
%TO.P,C10,2*%
%TO.N,+5V*%
X113875000Y-78687500D03*
%TD*%
D16*
%TO.P,J3,1,Pin_1*%
%TO.N,+12V*%
X151600000Y-71400000D03*
D17*
%TO.P,J3,2,Pin_2*%
%TO.N,Net-(J1-Pin_2)*%
X151600000Y-73940000D03*
%TO.P,J3,3,Pin_3*%
%TO.N,Net-(J1-Pin_3)*%
X151600000Y-76480000D03*
%TO.P,J3,4,Pin_4*%
%TO.N,GND*%
X151600000Y-79020000D03*
%TD*%
D10*
%TO.P,R1,1*%
%TO.N,Net-(U5-ADJ)*%
X128712500Y-63550000D03*
%TO.P,R1,2*%
%TO.N,GND*%
X126637500Y-63550000D03*
%TD*%
%TO.P,R11,1*%
%TO.N,Net-(U6-CANL)*%
X103812500Y-69850000D03*
%TO.P,R11,2*%
%TO.N,Net-(J1-Pin_3)*%
X101737500Y-69850000D03*
%TD*%
D18*
%TO.P,R12,1*%
%TO.N,Net-(U6-CANL)*%
X107200000Y-67362500D03*
%TO.P,R12,2*%
%TO.N,Net-(U6-CANH)*%
X107200000Y-69437500D03*
%TD*%
%TO.P,C8,1*%
%TO.N,GND*%
X120275000Y-76512500D03*
%TO.P,C8,2*%
%TO.N,+3.3V*%
X120275000Y-78587500D03*
%TD*%
D19*
%TO.P,C4,1*%
%TO.N,+3.3V*%
X130237500Y-72050000D03*
%TO.P,C4,2*%
%TO.N,GND*%
X132312500Y-72050000D03*
%TD*%
D20*
%TO.P,U5,1,ADJ*%
%TO.N,Net-(U5-ADJ)*%
X131225000Y-64850000D03*
%TO.P,U5,2,VI*%
%TO.N,+5V*%
X131225000Y-67150000D03*
D21*
X137525000Y-67150000D03*
D20*
%TO.P,U5,3,VO*%
%TO.N,+3.3V*%
X131225000Y-69450000D03*
%TD*%
D16*
%TO.P,J4,1,Pin_1*%
%TO.N,+5V*%
X97325000Y-77375000D03*
D17*
%TO.P,J4,2,Pin_2*%
%TO.N,Net-(J4-Pin_2)*%
X97325000Y-79915000D03*
%TO.P,J4,3,Pin_3*%
%TO.N,GND*%
X97325000Y-82455000D03*
%TD*%
D10*
%TO.P,R2,1*%
%TO.N,+3.3V*%
X128912500Y-69750000D03*
%TO.P,R2,2*%
%TO.N,Net-(U5-ADJ)*%
X126837500Y-69750000D03*
%TD*%
%TO.P,R9,1*%
%TO.N,/SDAB*%
X123712500Y-80750000D03*
%TO.P,R9,2*%
%TO.N,+3.3V*%
X121637500Y-80750000D03*
%TD*%
%TO.P,C3,1*%
%TO.N,+5V*%
X128812500Y-66350000D03*
%TO.P,C3,2*%
%TO.N,GND*%
X126737500Y-66350000D03*
%TD*%
D22*
%TO.P,U2,1,VCCA*%
%TO.N,+5V*%
X114100000Y-80545000D03*
%TO.P,U2,2,SCLA*%
%TO.N,/SCLA*%
X114100000Y-81815000D03*
%TO.P,U2,3,SDAA*%
%TO.N,/SDAA*%
X114100000Y-83085000D03*
%TO.P,U2,4,GND*%
%TO.N,GND*%
X114100000Y-84355000D03*
%TO.P,U2,5,EN*%
%TO.N,+5V*%
X119050000Y-84355000D03*
%TO.P,U2,6,SCLB*%
%TO.N,/SCLB*%
X119050000Y-83085000D03*
%TO.P,U2,7,SDAB*%
%TO.N,/SDAB*%
X119050000Y-81815000D03*
%TO.P,U2,8,VCCB*%
%TO.N,+3.3V*%
X119050000Y-80545000D03*
%TD*%
D23*
%TO.N,Net-(D1-K)*%
X139300000Y-73700000D03*
%TO.N,+5V*%
X115560099Y-82537005D03*
X147800000Y-70300000D03*
X131300000Y-67500000D03*
X140400000Y-81100000D03*
X139800000Y-67100000D03*
X134400000Y-84000000D03*
X137500000Y-70000000D03*
X114253009Y-79062995D03*
X137400000Y-78500000D03*
X140200000Y-84000000D03*
X98700000Y-84800000D03*
X135500000Y-67100000D03*
X95600000Y-85200000D03*
X137400000Y-84000000D03*
X109600000Y-72000000D03*
X137500000Y-64300000D03*
X131100000Y-83200000D03*
X115600000Y-76900000D03*
X133100000Y-66100000D03*
X108500000Y-64500000D03*
%TO.N,GND*%
X147000000Y-72200000D03*
X104000000Y-73700000D03*
X130700000Y-74600000D03*
X122100000Y-76500000D03*
X130700000Y-80900000D03*
X135000004Y-70000000D03*
X121600000Y-64000000D03*
X132900000Y-77700000D03*
X114600000Y-75000000D03*
X105500000Y-84400000D03*
X133900000Y-72100000D03*
X110506385Y-84906387D03*
X136399660Y-71826139D03*
X118800000Y-75300000D03*
X100036951Y-84075000D03*
X104000000Y-76500000D03*
X144400000Y-68600000D03*
X98300000Y-75600000D03*
X126800000Y-68425500D03*
X100100000Y-73700000D03*
X126318719Y-77381281D03*
X106048390Y-68502508D03*
X106000000Y-74100000D03*
X114300000Y-84400000D03*
X146300000Y-77100000D03*
X141300000Y-72300000D03*
X106500000Y-64200000D03*
%TO.N,+3.3V*%
X125400000Y-83000000D03*
X118950000Y-77950000D03*
X123800000Y-78200000D03*
X131125500Y-71800000D03*
X127075500Y-75150528D03*
X121400000Y-80500000D03*
X133000006Y-74000000D03*
X127200000Y-71200000D03*
X125485133Y-69074444D03*
%TO.N,+12V*%
X142700000Y-77000000D03*
%TO.N,/SCLA*%
X111077051Y-81312561D03*
%TO.N,/SDAA*%
X112700000Y-83200000D03*
%TO.N,/SCLB*%
X118191691Y-72066385D03*
%TO.N,/SDAB*%
X118300000Y-81444500D03*
%TO.N,Net-(U6-CANH)*%
X107200000Y-71300000D03*
%TO.N,Net-(U6-CANL)*%
X108300000Y-67300000D03*
%TD*%
D24*
%TO.N,/SDAA*%
X114100000Y-83085000D02*
X112815000Y-83085000D01*
X112815000Y-83085000D02*
X112700000Y-83200000D01*
%TO.N,GND*%
X109999998Y-84400000D02*
X105500000Y-84400000D01*
X110506385Y-84906387D02*
X109999998Y-84400000D01*
X114255000Y-84355000D02*
X114300000Y-84400000D01*
X114100000Y-84355000D02*
X114255000Y-84355000D01*
%TO.N,+5V*%
X115560099Y-82537005D02*
X117378094Y-84355000D01*
X117378094Y-84355000D02*
X119050000Y-84355000D01*
%TO.N,Net-(D1-K)*%
X137775000Y-74650000D02*
X138350000Y-74650000D01*
X138350000Y-74650000D02*
X139300000Y-73700000D01*
X144175000Y-81050000D02*
X137775000Y-74650000D01*
X147725000Y-81050000D02*
X144175000Y-81050000D01*
%TO.N,+5V*%
X139750000Y-67150000D02*
X139800000Y-67100000D01*
X128812500Y-66350000D02*
X132850000Y-66350000D01*
X137425000Y-81050000D02*
X137425000Y-78525000D01*
X130675000Y-84625000D02*
X133775000Y-84625000D01*
X137425000Y-78525000D02*
X137400000Y-78500000D01*
X131850000Y-85800000D02*
X138600000Y-85800000D01*
X113875000Y-78687500D02*
X115600000Y-76962500D01*
X137525000Y-67150000D02*
X135550000Y-67150000D01*
X130675000Y-84625000D02*
X131850000Y-85800000D01*
X137525000Y-67150000D02*
X137525000Y-64325000D01*
X133775000Y-84625000D02*
X134400000Y-84000000D01*
X137525000Y-69975000D02*
X137500000Y-70000000D01*
X135550000Y-67150000D02*
X135500000Y-67100000D01*
X115600000Y-76962500D02*
X115600000Y-76900000D01*
X140200000Y-84200000D02*
X140200000Y-84000000D01*
X114253009Y-79062995D02*
X114253009Y-80391991D01*
X131100000Y-84200000D02*
X131100000Y-83200000D01*
X137525000Y-67150000D02*
X137525000Y-69975000D01*
X130675000Y-84625000D02*
X131100000Y-84200000D01*
X137525000Y-64325000D02*
X137500000Y-64300000D01*
X137425000Y-81050000D02*
X140350000Y-81050000D01*
X140350000Y-81050000D02*
X140400000Y-81100000D01*
X138600000Y-85800000D02*
X140200000Y-84200000D01*
X114253009Y-80391991D02*
X114100000Y-80545000D01*
X131225000Y-67425000D02*
X131300000Y-67500000D01*
X137525000Y-67150000D02*
X139750000Y-67150000D01*
X132850000Y-66350000D02*
X133100000Y-66100000D01*
X137425000Y-83975000D02*
X137400000Y-84000000D01*
X137425000Y-81050000D02*
X137425000Y-83975000D01*
X131225000Y-67150000D02*
X131225000Y-67425000D01*
%TO.N,GND*%
X103762500Y-73937500D02*
X104000000Y-73700000D01*
X126737500Y-68363000D02*
X126737500Y-66350000D01*
X113875000Y-76612500D02*
X113875000Y-75725000D01*
X130675000Y-77675000D02*
X132875000Y-77675000D01*
X144375000Y-72250000D02*
X146950000Y-72250000D01*
X130675000Y-77675000D02*
X126612438Y-77675000D01*
X106200000Y-64500000D02*
X106500000Y-64200000D01*
X130675000Y-77675000D02*
X130675000Y-74625000D01*
X126637500Y-63550000D02*
X122050000Y-63550000D01*
X141350000Y-72250000D02*
X141300000Y-72300000D01*
X146950000Y-72250000D02*
X147000000Y-72200000D01*
X130675000Y-74625000D02*
X130700000Y-74600000D01*
X133850000Y-72050000D02*
X133900000Y-72100000D01*
X126800000Y-68425500D02*
X126737500Y-68363000D01*
X137775000Y-71850000D02*
X136423521Y-71850000D01*
X113875000Y-75725000D02*
X114600000Y-75000000D01*
X119062500Y-75300000D02*
X118800000Y-75300000D01*
X122050000Y-63550000D02*
X121600000Y-64000000D01*
X122087500Y-76512500D02*
X122100000Y-76500000D01*
X132875000Y-77675000D02*
X132900000Y-77700000D01*
X130700000Y-77700000D02*
X130700000Y-80900000D01*
X144375000Y-72250000D02*
X141350000Y-72250000D01*
X126612438Y-77675000D02*
X126318719Y-77381281D01*
X136423521Y-71850000D02*
X136399660Y-71826139D01*
X120275000Y-76512500D02*
X122087500Y-76512500D01*
X130675000Y-77675000D02*
X130700000Y-77700000D01*
X144375000Y-72250000D02*
X144375000Y-68625000D01*
X120275000Y-76512500D02*
X119062500Y-75300000D01*
X101800000Y-73937500D02*
X103762500Y-73937500D01*
X104337500Y-64500000D02*
X106200000Y-64500000D01*
X132312500Y-72050000D02*
X133850000Y-72050000D01*
X144375000Y-68625000D02*
X144400000Y-68600000D01*
%TO.N,+3.3V*%
X130237500Y-72050000D02*
X130176028Y-72050000D01*
X130176028Y-72050000D02*
X127075500Y-75150528D01*
X119050000Y-80545000D02*
X119095000Y-80500000D01*
X121637500Y-80750000D02*
X123800000Y-78587500D01*
X121537500Y-84150000D02*
X122587500Y-85200000D01*
X121537500Y-84150000D02*
X121537500Y-84237500D01*
X131225000Y-71700500D02*
X131225000Y-69450000D01*
X128650000Y-69750000D02*
X127200000Y-71200000D01*
X131125500Y-71800000D02*
X131225000Y-71700500D01*
X119095000Y-80500000D02*
X121400000Y-80500000D01*
X120275000Y-78587500D02*
X119587500Y-78587500D01*
X125400000Y-84000000D02*
X125400000Y-83000000D01*
X128912500Y-69750000D02*
X128650000Y-69750000D01*
X122587500Y-85200000D02*
X124200000Y-85200000D01*
X123800000Y-78587500D02*
X123800000Y-78200000D01*
X124200000Y-85200000D02*
X125400000Y-84000000D01*
X119587500Y-78587500D02*
X118950000Y-77950000D01*
%TO.N,Net-(J1-Pin_3)*%
X101737500Y-69850000D02*
X101557500Y-70030000D01*
X101800000Y-69912500D02*
X101737500Y-69850000D01*
X101557500Y-70030000D02*
X98800000Y-70030000D01*
X101800000Y-71862500D02*
X101800000Y-69912500D01*
%TO.N,Net-(U5-ADJ)*%
X131225000Y-64850000D02*
X130012500Y-64850000D01*
X128625000Y-67799695D02*
X128625000Y-68400305D01*
X127275305Y-69750000D02*
X126837500Y-69750000D01*
X127900305Y-64362195D02*
X127900305Y-67075000D01*
X130012500Y-64850000D02*
X128712500Y-63550000D01*
X128625000Y-68400305D02*
X127275305Y-69750000D01*
X128712500Y-63550000D02*
X127900305Y-64362195D01*
X127900305Y-67075000D02*
X128625000Y-67799695D01*
%TO.N,/SCLA*%
X111077051Y-81312561D02*
X111579490Y-81815000D01*
X111579490Y-81815000D02*
X114100000Y-81815000D01*
%TO.N,/SCLB*%
X116850000Y-81261751D02*
X116850000Y-73408076D01*
X118673249Y-83085000D02*
X116850000Y-81261751D01*
X119050000Y-83085000D02*
X118673249Y-83085000D01*
X116850000Y-73408076D02*
X118191691Y-72066385D01*
X122547500Y-83085000D02*
X123612500Y-84150000D01*
X119050000Y-83085000D02*
X122547500Y-83085000D01*
%TO.N,/SDAB*%
X122647500Y-81815000D02*
X119050000Y-81815000D01*
X118302749Y-81444500D02*
X118673249Y-81815000D01*
X118673249Y-81815000D02*
X119050000Y-81815000D01*
X118300000Y-81444500D02*
X118302749Y-81444500D01*
X123712500Y-80750000D02*
X122647500Y-81815000D01*
%TO.N,Net-(U6-CANH)*%
X105600000Y-69437500D02*
X103812500Y-67650000D01*
X107200000Y-69437500D02*
X105600000Y-69437500D01*
X107200000Y-69437500D02*
X107200000Y-71300000D01*
%TO.N,Net-(U6-CANL)*%
X102800000Y-68837500D02*
X103812500Y-69850000D01*
X103304482Y-66532345D02*
X102800000Y-67036827D01*
X106176090Y-66532345D02*
X103304482Y-66532345D01*
X107200000Y-67362500D02*
X107006245Y-67362500D01*
X102800000Y-67036827D02*
X102800000Y-68837500D01*
X107200000Y-67362500D02*
X107262500Y-67300000D01*
X107006245Y-67362500D02*
X106176090Y-66532345D01*
X107262500Y-67300000D02*
X108300000Y-67300000D01*
%TO.N,Net-(J1-Pin_2)*%
X101737500Y-67650000D02*
X101577500Y-67490000D01*
X102262500Y-64500000D02*
X101737500Y-65025000D01*
X101737500Y-65025000D02*
X101737500Y-67650000D01*
X101900000Y-67487500D02*
X101737500Y-67650000D01*
X101577500Y-67490000D02*
X98800000Y-67490000D01*
%TD*%
%TA.AperFunction,Conductor*%
%TO.N,+12V*%
G36*
X156400455Y-61357182D02*
G01*
X156432254Y-61362817D01*
X156556749Y-61386363D01*
X156574612Y-61391146D01*
X156638478Y-61413476D01*
X156732896Y-61450191D01*
X156739985Y-61453478D01*
X156807461Y-61490103D01*
X156810525Y-61491882D01*
X156891236Y-61541903D01*
X156896493Y-61545550D01*
X156917631Y-61561897D01*
X156958497Y-61593500D01*
X156962320Y-61596710D01*
X157031721Y-61659922D01*
X157035271Y-61663426D01*
X157088674Y-61720568D01*
X157092808Y-61725478D01*
X157150388Y-61801522D01*
X157152456Y-61804423D01*
X157194895Y-61867721D01*
X157198843Y-61874499D01*
X157244720Y-61966137D01*
X157272377Y-62026495D01*
X157278811Y-62043856D01*
X157315135Y-62170080D01*
X157320927Y-62191116D01*
X157325377Y-62224064D01*
X157319722Y-86403835D01*
X157317820Y-86425444D01*
X157312188Y-86457223D01*
X157288637Y-86581740D01*
X157283850Y-86599618D01*
X157261522Y-86663485D01*
X157224814Y-86757879D01*
X157221517Y-86764992D01*
X157184901Y-86832450D01*
X157183110Y-86835534D01*
X157133100Y-86916228D01*
X157129443Y-86921499D01*
X157081498Y-86983497D01*
X157078289Y-86987319D01*
X157015083Y-87056715D01*
X157011578Y-87060266D01*
X156954425Y-87113679D01*
X156949515Y-87117813D01*
X156873469Y-87175393D01*
X156870569Y-87177460D01*
X156866220Y-87180377D01*
X156799576Y-87201362D01*
X156797544Y-87201384D01*
X131900394Y-87277639D01*
X131833294Y-87258160D01*
X131787378Y-87205497D01*
X131777223Y-87136369D01*
X131806053Y-87072725D01*
X131834917Y-87048101D01*
X131843656Y-87042712D01*
X131967712Y-86918656D01*
X132059814Y-86769334D01*
X132114999Y-86602797D01*
X132117707Y-86576288D01*
X132121732Y-86536897D01*
X132148129Y-86472205D01*
X132205310Y-86432054D01*
X132245090Y-86425500D01*
X138517257Y-86425500D01*
X138532877Y-86427224D01*
X138532904Y-86426939D01*
X138540660Y-86427671D01*
X138540667Y-86427673D01*
X138609814Y-86425500D01*
X138639350Y-86425500D01*
X138646228Y-86424630D01*
X138652041Y-86424172D01*
X138698627Y-86422709D01*
X138717869Y-86417117D01*
X138736912Y-86413174D01*
X138756792Y-86410664D01*
X138800122Y-86393507D01*
X138805646Y-86391617D01*
X138809396Y-86390527D01*
X138850390Y-86378618D01*
X138867629Y-86368422D01*
X138885103Y-86359862D01*
X138903727Y-86352488D01*
X138903727Y-86352487D01*
X138903732Y-86352486D01*
X138941449Y-86325082D01*
X138946305Y-86321892D01*
X138986420Y-86298170D01*
X139000589Y-86283999D01*
X139015379Y-86271368D01*
X139031587Y-86259594D01*
X139061299Y-86223676D01*
X139065212Y-86219376D01*
X140382261Y-84902327D01*
X140443582Y-84868844D01*
X140443939Y-84868766D01*
X140479803Y-84861144D01*
X140652730Y-84784151D01*
X140805871Y-84672888D01*
X140932533Y-84532216D01*
X141027179Y-84368284D01*
X141085674Y-84188256D01*
X141105460Y-84000000D01*
X141085674Y-83811744D01*
X141027179Y-83631716D01*
X140932533Y-83467784D01*
X140805871Y-83327112D01*
X140804894Y-83326402D01*
X140652734Y-83215851D01*
X140652729Y-83215848D01*
X140479807Y-83138857D01*
X140479802Y-83138855D01*
X140334001Y-83107865D01*
X140294646Y-83099500D01*
X140105354Y-83099500D01*
X140072897Y-83106398D01*
X139920197Y-83138855D01*
X139920192Y-83138857D01*
X139747270Y-83215848D01*
X139747265Y-83215851D01*
X139594129Y-83327111D01*
X139467466Y-83467785D01*
X139372821Y-83631715D01*
X139372818Y-83631722D01*
X139314327Y-83811740D01*
X139314326Y-83811744D01*
X139296206Y-83984148D01*
X139294540Y-84000000D01*
X139309363Y-84141043D01*
X139296793Y-84209772D01*
X139273723Y-84241684D01*
X138377228Y-85138181D01*
X138315905Y-85171666D01*
X138289547Y-85174500D01*
X134409453Y-85174500D01*
X134342414Y-85154815D01*
X134296659Y-85102011D01*
X134286715Y-85032853D01*
X134315740Y-84969297D01*
X134321772Y-84962819D01*
X134347772Y-84936819D01*
X134409095Y-84903334D01*
X134435453Y-84900500D01*
X134494644Y-84900500D01*
X134494646Y-84900500D01*
X134679803Y-84861144D01*
X134852730Y-84784151D01*
X135005871Y-84672888D01*
X135132533Y-84532216D01*
X135227179Y-84368284D01*
X135285674Y-84188256D01*
X135305460Y-84000000D01*
X135285674Y-83811744D01*
X135227179Y-83631716D01*
X135132533Y-83467784D01*
X135005871Y-83327112D01*
X135004894Y-83326402D01*
X134852734Y-83215851D01*
X134852729Y-83215848D01*
X134679807Y-83138857D01*
X134679802Y-83138855D01*
X134534001Y-83107865D01*
X134494646Y-83099500D01*
X134305354Y-83099500D01*
X134272897Y-83106398D01*
X134120197Y-83138855D01*
X134120192Y-83138857D01*
X133947270Y-83215848D01*
X133947265Y-83215851D01*
X133794129Y-83327111D01*
X133667466Y-83467785D01*
X133572821Y-83631715D01*
X133572818Y-83631722D01*
X133514325Y-83811745D01*
X133506263Y-83888461D01*
X133479679Y-83953075D01*
X133422382Y-83993061D01*
X133382942Y-83999500D01*
X132249499Y-83999500D01*
X132182460Y-83979815D01*
X132136705Y-83927011D01*
X132125499Y-83875500D01*
X132125499Y-82749998D01*
X132125498Y-82749981D01*
X132114999Y-82647203D01*
X132114998Y-82647200D01*
X132108613Y-82627931D01*
X132065515Y-82497870D01*
X135424500Y-82497870D01*
X135424501Y-82497876D01*
X135430908Y-82557483D01*
X135481202Y-82692328D01*
X135481206Y-82692335D01*
X135567452Y-82807544D01*
X135567455Y-82807547D01*
X135682664Y-82893793D01*
X135682671Y-82893797D01*
X135817517Y-82944091D01*
X135817516Y-82944091D01*
X135824444Y-82944835D01*
X135877127Y-82950500D01*
X136675500Y-82950499D01*
X136742539Y-82970183D01*
X136788294Y-83022987D01*
X136799500Y-83074499D01*
X136799500Y-83273547D01*
X136779815Y-83340586D01*
X136767650Y-83356519D01*
X136667466Y-83467785D01*
X136572821Y-83631715D01*
X136572818Y-83631722D01*
X136514327Y-83811740D01*
X136514326Y-83811744D01*
X136494540Y-84000000D01*
X136514326Y-84188256D01*
X136514327Y-84188259D01*
X136572818Y-84368277D01*
X136572821Y-84368284D01*
X136667467Y-84532216D01*
X136735319Y-84607573D01*
X136794129Y-84672888D01*
X136947265Y-84784148D01*
X136947270Y-84784151D01*
X137120192Y-84861142D01*
X137120197Y-84861144D01*
X137305354Y-84900500D01*
X137305355Y-84900500D01*
X137494644Y-84900500D01*
X137494646Y-84900500D01*
X137679803Y-84861144D01*
X137852730Y-84784151D01*
X138005871Y-84672888D01*
X138132533Y-84532216D01*
X138227179Y-84368284D01*
X138285674Y-84188256D01*
X138305460Y-84000000D01*
X138285674Y-83811744D01*
X138227179Y-83631716D01*
X138132533Y-83467784D01*
X138082350Y-83412050D01*
X138052120Y-83349058D01*
X138050500Y-83329078D01*
X138050500Y-83074499D01*
X138070185Y-83007460D01*
X138122989Y-82961705D01*
X138174500Y-82950499D01*
X138972871Y-82950499D01*
X138972872Y-82950499D01*
X139032483Y-82944091D01*
X139167331Y-82893796D01*
X139282546Y-82807546D01*
X139368796Y-82692331D01*
X139419091Y-82557483D01*
X139425500Y-82497873D01*
X139425500Y-81799500D01*
X139445185Y-81732461D01*
X139497989Y-81686706D01*
X139549500Y-81675500D01*
X139651232Y-81675500D01*
X139718271Y-81695185D01*
X139743381Y-81716527D01*
X139794129Y-81772888D01*
X139794135Y-81772893D01*
X139947265Y-81884148D01*
X139947270Y-81884151D01*
X140120192Y-81961142D01*
X140120197Y-81961144D01*
X140305354Y-82000500D01*
X140305355Y-82000500D01*
X140494644Y-82000500D01*
X140494646Y-82000500D01*
X140679803Y-81961144D01*
X140852730Y-81884151D01*
X141005871Y-81772888D01*
X141132533Y-81632216D01*
X141227179Y-81468284D01*
X141285674Y-81288256D01*
X141305460Y-81100000D01*
X141285674Y-80911744D01*
X141227179Y-80731716D01*
X141132533Y-80567784D01*
X141005871Y-80427112D01*
X140994491Y-80418844D01*
X140852734Y-80315851D01*
X140852729Y-80315848D01*
X140679807Y-80238857D01*
X140679802Y-80238855D01*
X140534001Y-80207865D01*
X140494646Y-80199500D01*
X140305354Y-80199500D01*
X140272897Y-80206398D01*
X140120197Y-80238855D01*
X140120192Y-80238857D01*
X139947270Y-80315848D01*
X139947265Y-80315851D01*
X139830319Y-80400818D01*
X139764513Y-80424298D01*
X139757434Y-80424500D01*
X139549499Y-80424500D01*
X139482460Y-80404815D01*
X139436705Y-80352011D01*
X139425499Y-80300500D01*
X139425499Y-79602129D01*
X139425498Y-79602123D01*
X139425497Y-79602116D01*
X139419896Y-79550003D01*
X139419091Y-79542516D01*
X139368797Y-79407671D01*
X139368793Y-79407664D01*
X139282547Y-79292455D01*
X139282544Y-79292452D01*
X139167335Y-79206206D01*
X139167328Y-79206202D01*
X139032482Y-79155908D01*
X139032483Y-79155908D01*
X138972883Y-79149501D01*
X138972881Y-79149500D01*
X138972873Y-79149500D01*
X138972865Y-79149500D01*
X138279593Y-79149500D01*
X138212554Y-79129815D01*
X138166799Y-79077011D01*
X138156855Y-79007853D01*
X138172206Y-78963500D01*
X138182335Y-78945956D01*
X138227179Y-78868284D01*
X138228506Y-78864202D01*
X138254374Y-78784586D01*
X138285674Y-78688256D01*
X138305460Y-78500000D01*
X138285674Y-78311744D01*
X138227179Y-78131716D01*
X138132533Y-77967784D01*
X138005871Y-77827112D01*
X138005870Y-77827111D01*
X137852734Y-77715851D01*
X137852729Y-77715848D01*
X137679807Y-77638857D01*
X137679802Y-77638855D01*
X137534000Y-77607865D01*
X137494646Y-77599500D01*
X137305354Y-77599500D01*
X137286093Y-77603594D01*
X137120197Y-77638855D01*
X137120192Y-77638857D01*
X136947270Y-77715848D01*
X136947265Y-77715851D01*
X136794129Y-77827111D01*
X136667466Y-77967785D01*
X136572821Y-78131715D01*
X136572818Y-78131722D01*
X136516465Y-78305160D01*
X136514326Y-78311744D01*
X136494540Y-78500000D01*
X136514326Y-78688256D01*
X136514327Y-78688259D01*
X136571494Y-78864202D01*
X136572821Y-78868284D01*
X136595304Y-78907226D01*
X136627794Y-78963501D01*
X136644265Y-79031401D01*
X136621413Y-79097428D01*
X136566491Y-79140618D01*
X136520406Y-79149500D01*
X135877129Y-79149500D01*
X135877123Y-79149501D01*
X135817516Y-79155908D01*
X135682671Y-79206202D01*
X135682664Y-79206206D01*
X135567455Y-79292452D01*
X135567452Y-79292455D01*
X135481206Y-79407664D01*
X135481202Y-79407671D01*
X135430908Y-79542517D01*
X135424728Y-79600003D01*
X135424501Y-79602123D01*
X135424500Y-79602135D01*
X135424500Y-82497870D01*
X132065515Y-82497870D01*
X132059814Y-82480666D01*
X131967712Y-82331344D01*
X131843656Y-82207288D01*
X131732711Y-82138857D01*
X131694336Y-82115187D01*
X131694331Y-82115185D01*
X131692862Y-82114698D01*
X131527797Y-82060001D01*
X131527795Y-82060000D01*
X131425010Y-82049500D01*
X129924998Y-82049500D01*
X129924981Y-82049501D01*
X129822203Y-82060000D01*
X129822200Y-82060001D01*
X129655668Y-82115185D01*
X129655663Y-82115187D01*
X129506342Y-82207289D01*
X129382289Y-82331342D01*
X129290187Y-82480663D01*
X129290185Y-82480668D01*
X129264732Y-82557482D01*
X129235001Y-82647203D01*
X129235001Y-82647204D01*
X129235000Y-82647204D01*
X129224500Y-82749983D01*
X129224500Y-86500001D01*
X129224501Y-86500018D01*
X129235000Y-86602796D01*
X129235001Y-86602799D01*
X129255111Y-86663485D01*
X129290186Y-86769334D01*
X129382288Y-86918656D01*
X129506344Y-87042712D01*
X129527186Y-87055567D01*
X129573911Y-87107513D01*
X129585134Y-87176476D01*
X129557291Y-87240558D01*
X129499223Y-87279415D01*
X129462470Y-87285105D01*
X109523144Y-87346176D01*
X93271176Y-87344720D01*
X93249553Y-87342818D01*
X93217789Y-87337190D01*
X93093258Y-87313637D01*
X93075379Y-87308850D01*
X93065620Y-87305438D01*
X93011521Y-87286523D01*
X92966913Y-87269177D01*
X92917120Y-87249814D01*
X92910006Y-87246517D01*
X92842548Y-87209901D01*
X92839464Y-87208110D01*
X92758770Y-87158100D01*
X92753499Y-87154443D01*
X92691501Y-87106498D01*
X92687678Y-87103288D01*
X92618277Y-87040076D01*
X92614727Y-87036572D01*
X92603622Y-87024690D01*
X92561324Y-86979430D01*
X92557190Y-86974520D01*
X92499610Y-86898476D01*
X92497542Y-86895575D01*
X92455103Y-86832277D01*
X92451155Y-86825499D01*
X92417303Y-86757879D01*
X92405279Y-86733862D01*
X92391384Y-86703538D01*
X92377622Y-86673504D01*
X92371187Y-86656142D01*
X92369084Y-86648837D01*
X92334851Y-86529871D01*
X92329085Y-86508935D01*
X92324637Y-86475890D01*
X92326002Y-85200000D01*
X94694540Y-85200000D01*
X94714326Y-85388256D01*
X94714327Y-85388259D01*
X94772818Y-85568277D01*
X94772821Y-85568284D01*
X94867467Y-85732216D01*
X94994128Y-85872887D01*
X94994129Y-85872888D01*
X95147265Y-85984148D01*
X95147270Y-85984151D01*
X95320192Y-86061142D01*
X95320197Y-86061144D01*
X95505354Y-86100500D01*
X95505355Y-86100500D01*
X95694644Y-86100500D01*
X95694646Y-86100500D01*
X95879803Y-86061144D01*
X96052730Y-85984151D01*
X96205871Y-85872888D01*
X96332533Y-85732216D01*
X96427179Y-85568284D01*
X96485674Y-85388256D01*
X96505460Y-85200000D01*
X96485674Y-85011744D01*
X96427179Y-84831716D01*
X96408868Y-84800000D01*
X97794540Y-84800000D01*
X97814326Y-84988256D01*
X97814327Y-84988259D01*
X97872818Y-85168277D01*
X97872821Y-85168284D01*
X97967467Y-85332216D01*
X98063257Y-85438601D01*
X98094129Y-85472888D01*
X98247265Y-85584148D01*
X98247270Y-85584151D01*
X98420192Y-85661142D01*
X98420197Y-85661144D01*
X98605354Y-85700500D01*
X98605355Y-85700500D01*
X98794644Y-85700500D01*
X98794646Y-85700500D01*
X98979803Y-85661144D01*
X99152730Y-85584151D01*
X99305871Y-85472888D01*
X99432533Y-85332216D01*
X99527179Y-85168284D01*
X99579581Y-85007006D01*
X99619017Y-84949334D01*
X99683376Y-84922135D01*
X99747947Y-84932048D01*
X99757143Y-84936142D01*
X99757148Y-84936144D01*
X99942305Y-84975500D01*
X99942306Y-84975500D01*
X100131595Y-84975500D01*
X100131597Y-84975500D01*
X100316754Y-84936144D01*
X100489681Y-84859151D01*
X100642822Y-84747888D01*
X100769484Y-84607216D01*
X100864130Y-84443284D01*
X100878194Y-84400000D01*
X104594540Y-84400000D01*
X104614326Y-84588256D01*
X104614327Y-84588259D01*
X104672818Y-84768277D01*
X104672821Y-84768284D01*
X104767467Y-84932216D01*
X104858081Y-85032853D01*
X104894129Y-85072888D01*
X105047265Y-85184148D01*
X105047270Y-85184151D01*
X105220192Y-85261142D01*
X105220197Y-85261144D01*
X105405354Y-85300500D01*
X105405355Y-85300500D01*
X105594644Y-85300500D01*
X105594646Y-85300500D01*
X105779803Y-85261144D01*
X105952730Y-85184151D01*
X106105871Y-85072888D01*
X106108788Y-85069647D01*
X106111600Y-85066526D01*
X106171087Y-85029879D01*
X106203748Y-85025500D01*
X109508154Y-85025500D01*
X109575193Y-85045185D01*
X109620948Y-85097989D01*
X109626085Y-85111182D01*
X109679203Y-85274665D01*
X109679206Y-85274671D01*
X109773852Y-85438603D01*
X109890611Y-85568277D01*
X109900514Y-85579275D01*
X110053650Y-85690535D01*
X110053655Y-85690538D01*
X110226577Y-85767529D01*
X110226582Y-85767531D01*
X110411739Y-85806887D01*
X110411740Y-85806887D01*
X110601029Y-85806887D01*
X110601031Y-85806887D01*
X110786188Y-85767531D01*
X110959115Y-85690538D01*
X111112256Y-85579275D01*
X111238918Y-85438603D01*
X111333564Y-85274671D01*
X111392059Y-85094643D01*
X111411845Y-84906387D01*
X111392059Y-84718131D01*
X111333564Y-84538103D01*
X111238918Y-84374171D01*
X111112256Y-84233499D01*
X111110324Y-84232095D01*
X110959119Y-84122238D01*
X110959114Y-84122235D01*
X110786192Y-84045244D01*
X110786187Y-84045242D01*
X110617836Y-84009459D01*
X110601031Y-84005887D01*
X110601030Y-84005887D01*
X110543147Y-84005887D01*
X110476108Y-83986202D01*
X110458263Y-83972279D01*
X110453256Y-83967577D01*
X110435362Y-83950773D01*
X110423444Y-83938855D01*
X110414473Y-83929883D01*
X110408984Y-83925625D01*
X110404559Y-83921847D01*
X110370580Y-83889938D01*
X110370578Y-83889936D01*
X110370575Y-83889935D01*
X110353027Y-83880288D01*
X110336761Y-83869604D01*
X110320934Y-83857327D01*
X110320933Y-83857326D01*
X110320931Y-83857325D01*
X110278166Y-83838818D01*
X110272920Y-83836248D01*
X110232091Y-83813803D01*
X110232090Y-83813802D01*
X110212691Y-83808822D01*
X110194279Y-83802518D01*
X110175896Y-83794562D01*
X110175890Y-83794560D01*
X110129872Y-83787272D01*
X110124150Y-83786087D01*
X110079019Y-83774500D01*
X110079017Y-83774500D01*
X110058982Y-83774500D01*
X110039584Y-83772973D01*
X110032160Y-83771797D01*
X110019803Y-83769840D01*
X110019802Y-83769840D01*
X109973414Y-83774225D01*
X109967576Y-83774500D01*
X106203748Y-83774500D01*
X106136709Y-83754815D01*
X106111600Y-83733474D01*
X106105873Y-83727114D01*
X106105869Y-83727110D01*
X105952734Y-83615851D01*
X105952729Y-83615848D01*
X105779807Y-83538857D01*
X105779802Y-83538855D01*
X105622747Y-83505473D01*
X105594646Y-83499500D01*
X105405354Y-83499500D01*
X105377253Y-83505473D01*
X105220197Y-83538855D01*
X105220192Y-83538857D01*
X105047270Y-83615848D01*
X105047265Y-83615851D01*
X104894129Y-83727111D01*
X104767466Y-83867785D01*
X104672821Y-84031715D01*
X104672818Y-84031722D01*
X104614327Y-84211740D01*
X104614326Y-84211744D01*
X104594540Y-84400000D01*
X100878194Y-84400000D01*
X100922625Y-84263256D01*
X100942411Y-84075000D01*
X100922625Y-83886744D01*
X100864130Y-83706716D01*
X100769484Y-83542784D01*
X100642822Y-83402112D01*
X100596262Y-83368284D01*
X100489685Y-83290851D01*
X100489680Y-83290848D01*
X100316758Y-83213857D01*
X100316753Y-83213855D01*
X100170952Y-83182865D01*
X100131597Y-83174500D01*
X99942305Y-83174500D01*
X99909848Y-83181398D01*
X99757148Y-83213855D01*
X99757143Y-83213857D01*
X99584221Y-83290848D01*
X99584216Y-83290851D01*
X99431080Y-83402111D01*
X99304417Y-83542785D01*
X99209772Y-83706715D01*
X99209769Y-83706722D01*
X99157370Y-83867990D01*
X99117932Y-83925666D01*
X99053574Y-83952864D01*
X98989006Y-83942953D01*
X98979802Y-83938855D01*
X98834001Y-83907865D01*
X98794646Y-83899500D01*
X98605354Y-83899500D01*
X98572897Y-83906398D01*
X98420197Y-83938855D01*
X98420192Y-83938857D01*
X98247270Y-84015848D01*
X98247265Y-84015851D01*
X98094129Y-84127111D01*
X97967466Y-84267785D01*
X97872821Y-84431715D01*
X97872818Y-84431722D01*
X97815681Y-84607573D01*
X97814326Y-84611744D01*
X97794540Y-84800000D01*
X96408868Y-84800000D01*
X96332533Y-84667784D01*
X96205871Y-84527112D01*
X96169664Y-84500806D01*
X96052734Y-84415851D01*
X96052729Y-84415848D01*
X95879807Y-84338857D01*
X95879802Y-84338855D01*
X95734001Y-84307865D01*
X95694646Y-84299500D01*
X95505354Y-84299500D01*
X95472897Y-84306398D01*
X95320197Y-84338855D01*
X95320192Y-84338857D01*
X95147270Y-84415848D01*
X95147265Y-84415851D01*
X94994129Y-84527111D01*
X94867466Y-84667785D01*
X94772821Y-84831715D01*
X94772818Y-84831722D01*
X94714327Y-85011740D01*
X94714326Y-85011744D01*
X94694540Y-85200000D01*
X92326002Y-85200000D01*
X92327679Y-83631722D01*
X92329104Y-82300003D01*
X93394355Y-82300003D01*
X93398692Y-82335730D01*
X93395386Y-82355607D01*
X93398949Y-82370062D01*
X93402552Y-82399735D01*
X93402552Y-82407815D01*
X93410521Y-82433142D01*
X93414859Y-82468870D01*
X93414861Y-82468878D01*
X93427623Y-82502528D01*
X93429171Y-82522624D01*
X93436082Y-82535792D01*
X93446682Y-82563742D01*
X93448613Y-82571579D01*
X93462417Y-82594271D01*
X93467180Y-82606829D01*
X93475182Y-82627931D01*
X93475184Y-82627934D01*
X93495628Y-82657553D01*
X93501938Y-82676689D01*
X93511808Y-82687830D01*
X93528789Y-82712431D01*
X93532543Y-82719584D01*
X93551367Y-82738304D01*
X93571813Y-82767925D01*
X93571814Y-82767926D01*
X93598757Y-82791796D01*
X93609466Y-82808869D01*
X93621713Y-82817323D01*
X93644088Y-82837147D01*
X93649438Y-82843186D01*
X93672204Y-82856864D01*
X93699145Y-82880732D01*
X93699151Y-82880736D01*
X93713337Y-82888181D01*
X93727939Y-82895845D01*
X93731011Y-82897457D01*
X93745499Y-82911475D01*
X93759418Y-82916754D01*
X93785888Y-82930647D01*
X93792533Y-82935234D01*
X93817906Y-82943063D01*
X93849775Y-82959790D01*
X93884714Y-82968401D01*
X93902128Y-82978540D01*
X93916911Y-82980336D01*
X93945932Y-82987490D01*
X93953496Y-82990358D01*
X93980003Y-82991887D01*
X94014941Y-83000499D01*
X94014942Y-83000500D01*
X94050937Y-83000500D01*
X94070285Y-83006181D01*
X94085049Y-83004388D01*
X94114954Y-83004388D01*
X94122950Y-83005359D01*
X94149063Y-83000500D01*
X94185058Y-83000500D01*
X94185060Y-83000499D01*
X94219994Y-82991889D01*
X94240131Y-82992774D01*
X94254064Y-82987490D01*
X94283088Y-82980335D01*
X94291113Y-82979360D01*
X94315280Y-82968403D01*
X94350225Y-82959790D01*
X94382089Y-82943065D01*
X94401855Y-82939105D01*
X94414112Y-82930645D01*
X94440582Y-82916753D01*
X94448133Y-82913888D01*
X94468985Y-82897459D01*
X94500852Y-82880734D01*
X94527792Y-82856866D01*
X94546037Y-82848290D01*
X94555907Y-82837150D01*
X94578285Y-82817324D01*
X94584928Y-82812738D01*
X94601243Y-82791795D01*
X94628183Y-82767929D01*
X94648629Y-82738306D01*
X94664290Y-82725614D01*
X94671209Y-82712432D01*
X94688192Y-82687827D01*
X94693546Y-82681783D01*
X94704372Y-82657549D01*
X94724818Y-82627930D01*
X94737580Y-82594278D01*
X94749751Y-82578203D01*
X94753314Y-82563747D01*
X94763916Y-82535791D01*
X94767664Y-82528649D01*
X94772378Y-82502522D01*
X94785140Y-82468872D01*
X94786824Y-82455000D01*
X95969341Y-82455000D01*
X95989936Y-82690403D01*
X95989938Y-82690413D01*
X96051094Y-82918655D01*
X96051096Y-82918659D01*
X96051097Y-82918663D01*
X96104139Y-83032411D01*
X96150965Y-83132830D01*
X96150967Y-83132834D01*
X96209097Y-83215851D01*
X96286505Y-83326401D01*
X96453599Y-83493495D01*
X96550384Y-83561264D01*
X96647165Y-83629032D01*
X96647167Y-83629033D01*
X96647170Y-83629035D01*
X96861337Y-83728903D01*
X96861343Y-83728904D01*
X96861344Y-83728905D01*
X96916285Y-83743626D01*
X97089592Y-83790063D01*
X97276263Y-83806395D01*
X97324999Y-83810659D01*
X97325000Y-83810659D01*
X97325001Y-83810659D01*
X97364234Y-83807226D01*
X97560408Y-83790063D01*
X97788663Y-83728903D01*
X98002830Y-83629035D01*
X98196401Y-83493495D01*
X98363495Y-83326401D01*
X98499035Y-83132830D01*
X98598903Y-82918663D01*
X98660063Y-82690408D01*
X98680659Y-82455000D01*
X98679414Y-82440775D01*
X98671363Y-82348745D01*
X98660063Y-82219592D01*
X98602508Y-82004790D01*
X98598905Y-81991344D01*
X98598904Y-81991343D01*
X98598903Y-81991337D01*
X98499035Y-81777171D01*
X98489008Y-81762850D01*
X98363494Y-81583597D01*
X98196402Y-81416506D01*
X98196396Y-81416501D01*
X98047954Y-81312561D01*
X110171591Y-81312561D01*
X110191377Y-81500817D01*
X110191378Y-81500820D01*
X110249869Y-81680838D01*
X110249872Y-81680845D01*
X110344518Y-81844777D01*
X110461705Y-81974926D01*
X110471180Y-81985449D01*
X110624316Y-82096709D01*
X110624321Y-82096712D01*
X110797243Y-82173703D01*
X110797248Y-82173705D01*
X110982405Y-82213061D01*
X111040545Y-82213061D01*
X111107584Y-82232746D01*
X111125427Y-82246667D01*
X111144125Y-82264226D01*
X111165019Y-82285120D01*
X111170501Y-82289373D01*
X111174933Y-82293157D01*
X111208908Y-82325062D01*
X111226466Y-82334714D01*
X111242723Y-82345393D01*
X111258554Y-82357673D01*
X111278227Y-82366186D01*
X111301323Y-82376182D01*
X111306567Y-82378750D01*
X111347398Y-82401197D01*
X111360013Y-82404435D01*
X111366795Y-82406177D01*
X111385209Y-82412481D01*
X111403594Y-82420438D01*
X111449647Y-82427732D01*
X111455316Y-82428906D01*
X111500471Y-82440500D01*
X111520506Y-82440500D01*
X111539903Y-82442026D01*
X111559686Y-82445160D01*
X111606073Y-82440775D01*
X111611912Y-82440500D01*
X111893606Y-82440500D01*
X111960645Y-82460185D01*
X112006400Y-82512989D01*
X112016344Y-82582147D01*
X111987319Y-82645703D01*
X111985756Y-82647472D01*
X111967466Y-82667785D01*
X111872821Y-82831715D01*
X111872818Y-82831722D01*
X111815718Y-83007460D01*
X111814326Y-83011744D01*
X111794540Y-83200000D01*
X111814326Y-83388256D01*
X111814327Y-83388259D01*
X111872818Y-83568277D01*
X111872821Y-83568284D01*
X111967467Y-83732216D01*
X112061138Y-83836248D01*
X112094129Y-83872888D01*
X112247265Y-83984148D01*
X112247270Y-83984151D01*
X112420191Y-84061142D01*
X112420193Y-84061142D01*
X112420197Y-84061144D01*
X112526284Y-84083693D01*
X112587762Y-84116884D01*
X112621539Y-84178046D01*
X112624500Y-84204982D01*
X112624500Y-84570696D01*
X112627401Y-84607567D01*
X112627402Y-84607573D01*
X112673254Y-84765393D01*
X112673255Y-84765396D01*
X112673256Y-84765398D01*
X112696219Y-84804226D01*
X112756917Y-84906862D01*
X112756923Y-84906870D01*
X112873129Y-85023076D01*
X112873133Y-85023079D01*
X112873135Y-85023081D01*
X113014602Y-85106744D01*
X113029878Y-85111182D01*
X113172426Y-85152597D01*
X113172429Y-85152597D01*
X113172431Y-85152598D01*
X113184722Y-85153565D01*
X113209304Y-85155500D01*
X113209306Y-85155500D01*
X113767545Y-85155500D01*
X113834584Y-85175185D01*
X113840430Y-85179182D01*
X113847265Y-85184148D01*
X113847270Y-85184151D01*
X114020192Y-85261142D01*
X114020197Y-85261144D01*
X114205354Y-85300500D01*
X114205355Y-85300500D01*
X114394644Y-85300500D01*
X114394646Y-85300500D01*
X114579803Y-85261144D01*
X114752730Y-85184151D01*
X114753787Y-85183383D01*
X114759570Y-85179182D01*
X114825376Y-85155702D01*
X114832455Y-85155500D01*
X114990696Y-85155500D01*
X115009131Y-85154049D01*
X115027569Y-85152598D01*
X115027571Y-85152597D01*
X115027573Y-85152597D01*
X115077192Y-85138181D01*
X115185398Y-85106744D01*
X115326865Y-85023081D01*
X115443081Y-84906865D01*
X115526744Y-84765398D01*
X115572598Y-84607569D01*
X115575500Y-84570694D01*
X115575500Y-84139306D01*
X115574758Y-84129883D01*
X115572598Y-84102432D01*
X115572597Y-84102426D01*
X115526745Y-83944606D01*
X115526744Y-83944603D01*
X115526744Y-83944602D01*
X115484333Y-83872888D01*
X115443084Y-83803139D01*
X115438301Y-83796974D01*
X115440745Y-83795077D01*
X115414142Y-83746358D01*
X115419126Y-83676666D01*
X115439932Y-83644291D01*
X115438301Y-83643026D01*
X115443072Y-83636873D01*
X115443081Y-83636865D01*
X115485190Y-83565661D01*
X115536259Y-83517977D01*
X115605001Y-83505473D01*
X115669591Y-83532118D01*
X115679603Y-83541099D01*
X116279546Y-84141043D01*
X116877291Y-84738788D01*
X116887116Y-84751051D01*
X116887337Y-84750869D01*
X116892308Y-84756878D01*
X116904455Y-84768284D01*
X116942729Y-84804226D01*
X116963623Y-84825120D01*
X116969105Y-84829373D01*
X116973537Y-84833157D01*
X117007512Y-84865062D01*
X117025070Y-84874714D01*
X117041329Y-84885395D01*
X117057158Y-84897673D01*
X117099932Y-84916182D01*
X117105150Y-84918738D01*
X117146002Y-84941197D01*
X117165410Y-84946180D01*
X117183811Y-84952480D01*
X117202198Y-84960437D01*
X117245582Y-84967308D01*
X117248213Y-84967725D01*
X117253933Y-84968909D01*
X117299075Y-84980500D01*
X117319110Y-84980500D01*
X117338508Y-84982026D01*
X117358288Y-84985159D01*
X117358289Y-84985160D01*
X117358289Y-84985159D01*
X117358290Y-84985160D01*
X117404677Y-84980775D01*
X117410516Y-84980500D01*
X117729191Y-84980500D01*
X117796230Y-85000185D01*
X117816872Y-85016819D01*
X117823129Y-85023076D01*
X117823133Y-85023079D01*
X117823135Y-85023081D01*
X117964602Y-85106744D01*
X117979878Y-85111182D01*
X118122426Y-85152597D01*
X118122429Y-85152597D01*
X118122431Y-85152598D01*
X118134722Y-85153565D01*
X118159304Y-85155500D01*
X118159306Y-85155500D01*
X119940696Y-85155500D01*
X119959131Y-85154049D01*
X119977569Y-85152598D01*
X119977571Y-85152597D01*
X119977573Y-85152597D01*
X120027192Y-85138181D01*
X120135398Y-85106744D01*
X120276865Y-85023081D01*
X120343419Y-84956526D01*
X120404740Y-84923043D01*
X120474432Y-84928027D01*
X120530366Y-84969898D01*
X120536638Y-84979113D01*
X120601698Y-85084594D01*
X120607288Y-85093656D01*
X120731344Y-85217712D01*
X120880666Y-85309814D01*
X121047203Y-85364999D01*
X121149991Y-85375500D01*
X121827046Y-85375499D01*
X121894085Y-85395183D01*
X121914727Y-85411818D01*
X122086697Y-85583788D01*
X122096522Y-85596051D01*
X122096743Y-85595869D01*
X122101714Y-85601878D01*
X122122543Y-85621437D01*
X122152135Y-85649226D01*
X122173029Y-85670120D01*
X122178511Y-85674373D01*
X122182943Y-85678157D01*
X122216918Y-85710062D01*
X122234476Y-85719714D01*
X122250735Y-85730395D01*
X122266564Y-85742673D01*
X122309338Y-85761182D01*
X122314556Y-85763738D01*
X122355408Y-85786197D01*
X122374816Y-85791180D01*
X122393217Y-85797480D01*
X122411604Y-85805437D01*
X122454988Y-85812308D01*
X122457619Y-85812725D01*
X122463339Y-85813909D01*
X122508481Y-85825500D01*
X122528516Y-85825500D01*
X122547914Y-85827026D01*
X122567694Y-85830159D01*
X122567695Y-85830160D01*
X122567695Y-85830159D01*
X122567696Y-85830160D01*
X122614083Y-85825775D01*
X122619922Y-85825500D01*
X124117257Y-85825500D01*
X124132877Y-85827224D01*
X124132904Y-85826939D01*
X124140660Y-85827671D01*
X124140667Y-85827673D01*
X124209814Y-85825500D01*
X124239350Y-85825500D01*
X124246228Y-85824630D01*
X124252041Y-85824172D01*
X124298627Y-85822709D01*
X124317869Y-85817117D01*
X124336912Y-85813174D01*
X124356792Y-85810664D01*
X124400122Y-85793507D01*
X124405646Y-85791617D01*
X124409396Y-85790527D01*
X124450390Y-85778618D01*
X124467629Y-85768422D01*
X124485103Y-85759862D01*
X124503727Y-85752488D01*
X124503727Y-85752487D01*
X124503732Y-85752486D01*
X124541449Y-85725082D01*
X124546305Y-85721892D01*
X124586420Y-85698170D01*
X124600589Y-85683999D01*
X124615379Y-85671368D01*
X124631587Y-85659594D01*
X124661299Y-85623676D01*
X124665212Y-85619376D01*
X125783787Y-84500802D01*
X125796042Y-84490986D01*
X125795859Y-84490764D01*
X125801866Y-84485792D01*
X125801877Y-84485786D01*
X125841789Y-84443284D01*
X125849227Y-84435364D01*
X125859671Y-84424918D01*
X125870120Y-84414471D01*
X125874379Y-84408978D01*
X125878152Y-84404561D01*
X125910062Y-84370582D01*
X125919713Y-84353024D01*
X125930396Y-84336761D01*
X125942673Y-84320936D01*
X125961185Y-84278153D01*
X125963738Y-84272941D01*
X125986197Y-84232092D01*
X125991180Y-84212680D01*
X125997481Y-84194280D01*
X126005437Y-84175896D01*
X126012729Y-84129852D01*
X126013906Y-84124171D01*
X126025500Y-84079019D01*
X126025500Y-84058982D01*
X126027027Y-84039582D01*
X126028273Y-84031715D01*
X126030160Y-84019804D01*
X126025775Y-83973415D01*
X126025500Y-83967577D01*
X126025500Y-83698687D01*
X126045185Y-83631648D01*
X126057350Y-83615715D01*
X126075891Y-83595122D01*
X126132533Y-83532216D01*
X126227179Y-83368284D01*
X126285674Y-83188256D01*
X126305460Y-83000000D01*
X126285674Y-82811744D01*
X126227179Y-82631716D01*
X126132533Y-82467784D01*
X126005871Y-82327112D01*
X126005870Y-82327111D01*
X125852734Y-82215851D01*
X125852729Y-82215848D01*
X125679807Y-82138857D01*
X125679802Y-82138855D01*
X125534000Y-82107865D01*
X125494646Y-82099500D01*
X125305354Y-82099500D01*
X125272897Y-82106398D01*
X125120197Y-82138855D01*
X125120192Y-82138857D01*
X124947270Y-82215848D01*
X124947265Y-82215851D01*
X124794129Y-82327111D01*
X124667466Y-82467785D01*
X124572821Y-82631715D01*
X124572818Y-82631722D01*
X124515260Y-82808869D01*
X124514326Y-82811744D01*
X124502407Y-82925152D01*
X124475822Y-82989766D01*
X124418525Y-83029751D01*
X124348706Y-83032411D01*
X124313991Y-83017730D01*
X124269338Y-82990188D01*
X124269335Y-82990186D01*
X124269334Y-82990186D01*
X124102797Y-82935001D01*
X124102795Y-82935000D01*
X124000016Y-82924500D01*
X124000009Y-82924500D01*
X123322953Y-82924500D01*
X123255914Y-82904815D01*
X123235272Y-82888181D01*
X123048303Y-82701212D01*
X123038480Y-82688950D01*
X123038259Y-82689134D01*
X123033286Y-82683123D01*
X123031859Y-82681783D01*
X122982864Y-82635773D01*
X122961971Y-82614880D01*
X122956474Y-82610615D01*
X122952050Y-82606836D01*
X122921559Y-82578203D01*
X122914951Y-82571997D01*
X122879558Y-82511755D01*
X122882352Y-82441942D01*
X122922447Y-82384721D01*
X122944705Y-82371816D01*
X122944392Y-82371247D01*
X122951226Y-82367489D01*
X122951227Y-82367487D01*
X122951232Y-82367486D01*
X122988949Y-82340082D01*
X122993805Y-82336892D01*
X123033920Y-82313170D01*
X123048089Y-82298999D01*
X123062879Y-82286368D01*
X123079087Y-82274594D01*
X123108799Y-82238676D01*
X123112712Y-82234376D01*
X123335270Y-82011818D01*
X123396594Y-81978333D01*
X123422952Y-81975499D01*
X124100002Y-81975499D01*
X124100008Y-81975499D01*
X124202797Y-81964999D01*
X124369334Y-81909814D01*
X124518656Y-81817712D01*
X124642712Y-81693656D01*
X124734814Y-81544334D01*
X124789999Y-81377797D01*
X124800500Y-81275009D01*
X124800499Y-80224992D01*
X124799657Y-80216754D01*
X124789999Y-80122203D01*
X124789998Y-80122200D01*
X124786863Y-80112738D01*
X124734814Y-79955666D01*
X124642712Y-79806344D01*
X124518656Y-79682288D01*
X124377481Y-79595211D01*
X124369336Y-79590187D01*
X124369331Y-79590185D01*
X124332948Y-79578129D01*
X124202797Y-79535001D01*
X124202795Y-79535000D01*
X124100016Y-79524500D01*
X124100009Y-79524500D01*
X124046952Y-79524500D01*
X123979913Y-79504815D01*
X123934158Y-79452011D01*
X123924214Y-79382853D01*
X123953239Y-79319297D01*
X123959271Y-79312819D01*
X124066997Y-79205093D01*
X124183788Y-79088301D01*
X124196042Y-79078486D01*
X124195859Y-79078264D01*
X124201866Y-79073292D01*
X124201877Y-79073286D01*
X124240444Y-79032216D01*
X124249227Y-79022864D01*
X124259671Y-79012418D01*
X124270120Y-79001971D01*
X124274379Y-78996478D01*
X124278152Y-78992061D01*
X124310062Y-78958082D01*
X124310970Y-78956428D01*
X124312636Y-78954538D01*
X124314647Y-78951772D01*
X124314908Y-78951961D01*
X124346751Y-78915840D01*
X124405871Y-78872888D01*
X124532533Y-78732216D01*
X124627179Y-78568284D01*
X124685674Y-78388256D01*
X124705460Y-78200000D01*
X124685674Y-78011744D01*
X124627179Y-77831716D01*
X124532533Y-77667784D01*
X124405871Y-77527112D01*
X124384719Y-77511744D01*
X124252734Y-77415851D01*
X124252729Y-77415848D01*
X124175091Y-77381281D01*
X125413259Y-77381281D01*
X125433045Y-77569537D01*
X125433046Y-77569540D01*
X125491537Y-77749558D01*
X125491540Y-77749565D01*
X125586186Y-77913497D01*
X125647421Y-77981505D01*
X125712848Y-78054169D01*
X125865984Y-78165429D01*
X125865989Y-78165432D01*
X126038911Y-78242423D01*
X126038916Y-78242425D01*
X126224073Y-78281781D01*
X126224074Y-78281781D01*
X126413364Y-78281781D01*
X126413365Y-78281781D01*
X126413365Y-78281780D01*
X126416149Y-78281488D01*
X126448518Y-78282333D01*
X126482564Y-78287726D01*
X126488273Y-78288908D01*
X126533419Y-78300500D01*
X126553454Y-78300500D01*
X126572852Y-78302026D01*
X126592632Y-78305159D01*
X126592633Y-78305160D01*
X126592633Y-78305159D01*
X126592634Y-78305160D01*
X126639021Y-78300775D01*
X126644860Y-78300500D01*
X129100501Y-78300500D01*
X129167540Y-78320185D01*
X129213295Y-78372989D01*
X129224501Y-78424500D01*
X129224501Y-79550018D01*
X129235000Y-79652796D01*
X129235001Y-79652799D01*
X129290185Y-79819331D01*
X129290187Y-79819336D01*
X129300337Y-79835791D01*
X129382288Y-79968656D01*
X129506344Y-80092712D01*
X129655666Y-80184814D01*
X129822203Y-80239999D01*
X129837624Y-80241574D01*
X129838481Y-80241662D01*
X129903173Y-80268058D01*
X129943324Y-80325239D01*
X129946188Y-80395050D01*
X129933267Y-80427019D01*
X129872820Y-80531718D01*
X129872818Y-80531722D01*
X129837743Y-80639673D01*
X129814326Y-80711744D01*
X129794540Y-80900000D01*
X129814326Y-81088256D01*
X129814327Y-81088259D01*
X129872818Y-81268277D01*
X129872821Y-81268284D01*
X129967467Y-81432216D01*
X130091268Y-81569711D01*
X130094129Y-81572888D01*
X130247265Y-81684148D01*
X130247270Y-81684151D01*
X130420192Y-81761142D01*
X130420197Y-81761144D01*
X130605354Y-81800500D01*
X130605355Y-81800500D01*
X130794644Y-81800500D01*
X130794646Y-81800500D01*
X130979803Y-81761144D01*
X131152730Y-81684151D01*
X131305871Y-81572888D01*
X131432533Y-81432216D01*
X131527179Y-81268284D01*
X131585674Y-81088256D01*
X131605460Y-80900000D01*
X131585674Y-80711744D01*
X131527179Y-80531716D01*
X131462011Y-80418842D01*
X131445539Y-80350944D01*
X131468392Y-80284917D01*
X131523313Y-80241726D01*
X131530395Y-80239138D01*
X131531249Y-80238855D01*
X131694334Y-80184814D01*
X131843656Y-80092712D01*
X131967712Y-79968656D01*
X132059814Y-79819334D01*
X132114999Y-79652797D01*
X132125500Y-79550009D01*
X132125500Y-78493735D01*
X132145185Y-78426697D01*
X132197989Y-78380942D01*
X132267147Y-78370998D01*
X132322385Y-78393418D01*
X132447265Y-78484148D01*
X132447270Y-78484151D01*
X132620192Y-78561142D01*
X132620197Y-78561144D01*
X132805354Y-78600500D01*
X132805355Y-78600500D01*
X132994644Y-78600500D01*
X132994646Y-78600500D01*
X133179803Y-78561144D01*
X133352730Y-78484151D01*
X133505871Y-78372888D01*
X133632533Y-78232216D01*
X133727179Y-78068284D01*
X133785674Y-77888256D01*
X133805460Y-77700000D01*
X133785674Y-77511744D01*
X133727179Y-77331716D01*
X133632533Y-77167784D01*
X133505871Y-77027112D01*
X133486452Y-77013003D01*
X133352734Y-76915851D01*
X133352729Y-76915848D01*
X133179807Y-76838857D01*
X133179802Y-76838855D01*
X133034001Y-76807865D01*
X132994646Y-76799500D01*
X132805354Y-76799500D01*
X132772897Y-76806398D01*
X132620197Y-76838855D01*
X132620192Y-76838857D01*
X132447270Y-76915848D01*
X132447265Y-76915851D01*
X132322384Y-77006583D01*
X132256578Y-77030063D01*
X132188524Y-77014237D01*
X132139829Y-76964132D01*
X132125499Y-76906265D01*
X132125499Y-75799998D01*
X132125498Y-75799981D01*
X132114999Y-75697203D01*
X132114998Y-75697200D01*
X132110207Y-75682742D01*
X132059814Y-75530666D01*
X131967712Y-75381344D01*
X131843656Y-75257288D01*
X131730511Y-75187500D01*
X131694336Y-75165187D01*
X131694331Y-75165185D01*
X131650096Y-75150527D01*
X131602235Y-75134667D01*
X131544791Y-75094895D01*
X131517968Y-75030379D01*
X131522726Y-75000001D01*
X136724500Y-75000001D01*
X136724501Y-75000019D01*
X136735000Y-75102796D01*
X136735001Y-75102799D01*
X136777980Y-75232500D01*
X136790186Y-75269334D01*
X136882288Y-75418656D01*
X137006344Y-75542712D01*
X137155666Y-75634814D01*
X137322203Y-75689999D01*
X137424991Y-75700500D01*
X137889547Y-75700499D01*
X137956586Y-75720183D01*
X137977228Y-75736818D01*
X143674194Y-81433784D01*
X143684019Y-81446048D01*
X143684240Y-81445866D01*
X143689210Y-81451873D01*
X143689213Y-81451876D01*
X143689214Y-81451877D01*
X143739651Y-81499241D01*
X143752549Y-81512139D01*
X143760529Y-81520119D01*
X143766004Y-81524366D01*
X143770446Y-81528160D01*
X143804415Y-81560060D01*
X143804417Y-81560061D01*
X143804418Y-81560062D01*
X143821976Y-81569714D01*
X143838235Y-81580395D01*
X143842366Y-81583599D01*
X143854064Y-81592673D01*
X143896823Y-81611176D01*
X143902073Y-81613748D01*
X143942904Y-81636195D01*
X143942908Y-81636197D01*
X143942912Y-81636198D01*
X143962311Y-81641179D01*
X143980722Y-81647483D01*
X143999097Y-81655435D01*
X143999100Y-81655435D01*
X143999105Y-81655438D01*
X144045149Y-81662729D01*
X144050832Y-81663906D01*
X144095981Y-81675500D01*
X144116016Y-81675500D01*
X144135413Y-81677026D01*
X144155196Y-81680160D01*
X144201583Y-81675775D01*
X144207422Y-81675500D01*
X145600501Y-81675500D01*
X145667540Y-81695185D01*
X145713295Y-81747989D01*
X145724501Y-81799500D01*
X145724500Y-82497870D01*
X145724501Y-82497876D01*
X145730908Y-82557483D01*
X145781202Y-82692328D01*
X145781206Y-82692335D01*
X145867452Y-82807544D01*
X145867455Y-82807547D01*
X145982664Y-82893793D01*
X145982671Y-82893797D01*
X146117517Y-82944091D01*
X146117516Y-82944091D01*
X146124444Y-82944835D01*
X146177127Y-82950500D01*
X149272872Y-82950499D01*
X149332483Y-82944091D01*
X149467331Y-82893796D01*
X149582546Y-82807546D01*
X149668796Y-82692331D01*
X149719091Y-82557483D01*
X149725500Y-82497873D01*
X149725499Y-79602128D01*
X149719896Y-79550003D01*
X149719091Y-79542516D01*
X149668797Y-79407671D01*
X149668793Y-79407664D01*
X149582547Y-79292455D01*
X149582544Y-79292452D01*
X149467335Y-79206206D01*
X149467328Y-79206202D01*
X149332482Y-79155908D01*
X149332483Y-79155908D01*
X149272883Y-79149501D01*
X149272881Y-79149500D01*
X149272873Y-79149500D01*
X149272864Y-79149500D01*
X146177129Y-79149500D01*
X146177123Y-79149501D01*
X146117516Y-79155908D01*
X145982671Y-79206202D01*
X145982664Y-79206206D01*
X145867455Y-79292452D01*
X145867452Y-79292455D01*
X145781206Y-79407664D01*
X145781202Y-79407671D01*
X145730908Y-79542517D01*
X145724728Y-79600003D01*
X145724501Y-79602123D01*
X145724500Y-79602135D01*
X145724500Y-80300500D01*
X145704815Y-80367539D01*
X145652011Y-80413294D01*
X145600500Y-80424500D01*
X144485452Y-80424500D01*
X144418413Y-80404815D01*
X144397771Y-80388181D01*
X143029590Y-79020000D01*
X150244341Y-79020000D01*
X150264936Y-79255403D01*
X150264938Y-79255413D01*
X150326094Y-79483655D01*
X150326096Y-79483659D01*
X150326097Y-79483663D01*
X150417462Y-79679596D01*
X150425965Y-79697830D01*
X150425967Y-79697834D01*
X150522566Y-79835791D01*
X150561505Y-79891401D01*
X150728599Y-80058495D01*
X150819579Y-80122200D01*
X150922165Y-80194032D01*
X150922167Y-80194033D01*
X150922170Y-80194035D01*
X151136337Y-80293903D01*
X151136343Y-80293904D01*
X151136344Y-80293905D01*
X151175468Y-80304388D01*
X151364592Y-80355063D01*
X151552918Y-80371539D01*
X151599999Y-80375659D01*
X151600000Y-80375659D01*
X151600001Y-80375659D01*
X151639234Y-80372226D01*
X151835408Y-80355063D01*
X152063663Y-80293903D01*
X152277830Y-80194035D01*
X152471401Y-80058495D01*
X152638495Y-79891401D01*
X152774035Y-79697830D01*
X152873903Y-79483663D01*
X152935063Y-79255408D01*
X152948660Y-79100000D01*
X154494355Y-79100000D01*
X154498693Y-79135727D01*
X154495387Y-79155609D01*
X154498949Y-79170062D01*
X154502552Y-79199735D01*
X154502552Y-79207815D01*
X154510521Y-79233142D01*
X154514859Y-79268870D01*
X154514861Y-79268878D01*
X154527623Y-79302528D01*
X154529171Y-79322624D01*
X154536082Y-79335792D01*
X154546682Y-79363742D01*
X154548613Y-79371579D01*
X154562417Y-79394271D01*
X154563630Y-79397470D01*
X154575182Y-79427931D01*
X154575184Y-79427934D01*
X154595628Y-79457553D01*
X154601938Y-79476689D01*
X154611808Y-79487830D01*
X154628789Y-79512431D01*
X154632543Y-79519584D01*
X154651367Y-79538304D01*
X154671813Y-79567925D01*
X154671814Y-79567926D01*
X154671816Y-79567928D01*
X154671817Y-79567929D01*
X154685489Y-79580041D01*
X154698757Y-79591796D01*
X154709466Y-79608869D01*
X154721713Y-79617323D01*
X154744088Y-79637147D01*
X154749438Y-79643186D01*
X154772204Y-79656864D01*
X154799145Y-79680732D01*
X154799151Y-79680736D01*
X154831011Y-79697457D01*
X154845499Y-79711475D01*
X154859418Y-79716754D01*
X154885888Y-79730647D01*
X154892533Y-79735234D01*
X154917906Y-79743063D01*
X154949775Y-79759790D01*
X154984714Y-79768401D01*
X155002128Y-79778540D01*
X155016911Y-79780336D01*
X155045932Y-79787490D01*
X155053496Y-79790358D01*
X155080003Y-79791887D01*
X155114941Y-79800499D01*
X155114942Y-79800500D01*
X155150937Y-79800500D01*
X155170285Y-79806181D01*
X155185049Y-79804388D01*
X155214954Y-79804388D01*
X155222950Y-79805359D01*
X155249063Y-79800500D01*
X155285058Y-79800500D01*
X155285060Y-79800499D01*
X155319994Y-79791889D01*
X155340131Y-79792774D01*
X155354064Y-79787490D01*
X155383088Y-79780335D01*
X155391113Y-79779360D01*
X155415280Y-79768403D01*
X155450225Y-79759790D01*
X155482089Y-79743065D01*
X155501855Y-79739105D01*
X155514112Y-79730645D01*
X155540582Y-79716753D01*
X155548133Y-79713888D01*
X155568985Y-79697459D01*
X155600852Y-79680734D01*
X155627792Y-79656866D01*
X155646037Y-79648290D01*
X155655907Y-79637150D01*
X155678285Y-79617324D01*
X155684928Y-79612738D01*
X155701243Y-79591795D01*
X155728183Y-79567929D01*
X155748629Y-79538306D01*
X155764290Y-79525614D01*
X155771209Y-79512432D01*
X155788192Y-79487827D01*
X155793546Y-79481783D01*
X155804372Y-79457549D01*
X155824818Y-79427930D01*
X155837580Y-79394278D01*
X155849751Y-79378203D01*
X155853314Y-79363747D01*
X155863916Y-79335791D01*
X155867664Y-79328649D01*
X155872378Y-79302522D01*
X155876196Y-79292455D01*
X155885140Y-79268872D01*
X155892886Y-79205072D01*
X155894229Y-79197743D01*
X155897448Y-79184686D01*
X155897448Y-79184679D01*
X155898012Y-79182392D01*
X155898020Y-79182353D01*
X155902982Y-79162217D01*
X155901307Y-79135724D01*
X155905645Y-79100000D01*
X155901307Y-79064271D01*
X155904612Y-79044391D01*
X155898005Y-79017584D01*
X155897999Y-79017551D01*
X155897448Y-79015314D01*
X155894232Y-79002266D01*
X155892885Y-78994915D01*
X155885140Y-78931128D01*
X155872376Y-78897474D01*
X155870828Y-78877376D01*
X155863916Y-78864207D01*
X155853314Y-78836252D01*
X155851382Y-78828415D01*
X155837580Y-78805722D01*
X155824818Y-78772070D01*
X155816266Y-78759681D01*
X155804372Y-78742449D01*
X155798059Y-78723308D01*
X155788190Y-78712168D01*
X155771209Y-78687565D01*
X155767458Y-78680418D01*
X155748631Y-78661694D01*
X155728182Y-78632070D01*
X155701241Y-78608202D01*
X155690529Y-78591126D01*
X155678285Y-78582674D01*
X155655909Y-78562850D01*
X155650563Y-78556816D01*
X155627794Y-78543134D01*
X155600856Y-78519269D01*
X155600851Y-78519265D01*
X155568981Y-78502538D01*
X155554496Y-78488522D01*
X155540579Y-78483244D01*
X155514109Y-78469351D01*
X155507471Y-78464769D01*
X155482095Y-78456937D01*
X155450225Y-78440210D01*
X155450224Y-78440209D01*
X155450223Y-78440209D01*
X155415277Y-78431596D01*
X155397850Y-78421449D01*
X155383074Y-78419655D01*
X155354050Y-78412502D01*
X155346511Y-78409643D01*
X155320002Y-78408112D01*
X155285061Y-78399500D01*
X155285056Y-78399500D01*
X155249072Y-78399500D01*
X155229734Y-78393821D01*
X155214945Y-78395617D01*
X155185060Y-78395617D01*
X155177028Y-78394642D01*
X155150929Y-78399500D01*
X155114944Y-78399500D01*
X155079995Y-78408113D01*
X155059858Y-78407226D01*
X155045952Y-78412501D01*
X155016924Y-78419655D01*
X155008918Y-78420626D01*
X154984722Y-78431595D01*
X154949781Y-78440207D01*
X154949774Y-78440210D01*
X154917901Y-78456938D01*
X154898133Y-78460897D01*
X154885884Y-78469353D01*
X154859420Y-78483243D01*
X154851874Y-78486104D01*
X154831019Y-78502537D01*
X154799152Y-78519263D01*
X154799148Y-78519266D01*
X154772200Y-78543139D01*
X154753954Y-78551714D01*
X154744087Y-78562852D01*
X154721713Y-78582674D01*
X154715078Y-78587253D01*
X154698761Y-78608199D01*
X154671817Y-78632070D01*
X154651366Y-78661698D01*
X154635704Y-78674389D01*
X154628788Y-78687567D01*
X154611809Y-78712166D01*
X154606458Y-78718205D01*
X154595630Y-78742444D01*
X154575184Y-78772065D01*
X154575182Y-78772069D01*
X154562416Y-78805729D01*
X154550245Y-78821801D01*
X154546683Y-78836254D01*
X154536084Y-78864202D01*
X154532338Y-78871339D01*
X154527624Y-78897470D01*
X154514860Y-78931126D01*
X154510521Y-78966858D01*
X154502552Y-78985372D01*
X154502552Y-79000263D01*
X154498949Y-79029936D01*
X154497016Y-79037778D01*
X154498693Y-79064271D01*
X154494355Y-79099999D01*
X154494355Y-79100000D01*
X152948660Y-79100000D01*
X152955659Y-79020000D01*
X152935063Y-78784592D01*
X152875191Y-78561144D01*
X152873905Y-78556344D01*
X152873904Y-78556343D01*
X152873903Y-78556337D01*
X152774035Y-78342171D01*
X152767252Y-78332483D01*
X152638494Y-78148597D01*
X152471402Y-77981506D01*
X152471401Y-77981505D01*
X152332361Y-77884148D01*
X152285841Y-77851574D01*
X152242216Y-77796997D01*
X152235024Y-77727498D01*
X152266546Y-77665144D01*
X152285836Y-77648428D01*
X152471401Y-77518495D01*
X152638495Y-77351401D01*
X152774035Y-77157830D01*
X152873903Y-76943663D01*
X152935063Y-76715408D01*
X152955659Y-76480000D01*
X152935063Y-76244592D01*
X152923115Y-76200000D01*
X154494355Y-76200000D01*
X154498693Y-76235727D01*
X154495387Y-76255609D01*
X154498949Y-76270062D01*
X154502552Y-76299735D01*
X154502552Y-76307815D01*
X154510521Y-76333142D01*
X154514859Y-76368870D01*
X154514861Y-76368878D01*
X154527623Y-76402528D01*
X154529171Y-76422624D01*
X154536082Y-76435792D01*
X154546682Y-76463742D01*
X154548613Y-76471579D01*
X154562417Y-76494271D01*
X154564234Y-76499062D01*
X154575182Y-76527931D01*
X154575184Y-76527934D01*
X154595628Y-76557553D01*
X154601938Y-76576689D01*
X154611808Y-76587830D01*
X154628789Y-76612431D01*
X154632543Y-76619584D01*
X154651367Y-76638304D01*
X154671813Y-76667925D01*
X154671814Y-76667926D01*
X154698757Y-76691796D01*
X154709466Y-76708869D01*
X154721713Y-76717323D01*
X154744088Y-76737147D01*
X154749438Y-76743186D01*
X154772204Y-76756864D01*
X154799145Y-76780732D01*
X154799151Y-76780736D01*
X154831011Y-76797457D01*
X154845499Y-76811475D01*
X154859418Y-76816754D01*
X154885888Y-76830647D01*
X154892533Y-76835234D01*
X154917906Y-76843063D01*
X154949775Y-76859790D01*
X154984714Y-76868401D01*
X155002128Y-76878540D01*
X155016911Y-76880336D01*
X155045932Y-76887490D01*
X155053496Y-76890358D01*
X155080003Y-76891887D01*
X155114941Y-76900499D01*
X155114942Y-76900500D01*
X155150937Y-76900500D01*
X155170285Y-76906181D01*
X155185049Y-76904388D01*
X155214954Y-76904388D01*
X155222950Y-76905359D01*
X155249063Y-76900500D01*
X155285058Y-76900500D01*
X155285060Y-76900499D01*
X155319994Y-76891889D01*
X155340131Y-76892774D01*
X155354064Y-76887490D01*
X155383088Y-76880335D01*
X155391113Y-76879360D01*
X155415280Y-76868403D01*
X155450225Y-76859790D01*
X155482089Y-76843065D01*
X155501855Y-76839105D01*
X155514112Y-76830645D01*
X155540582Y-76816753D01*
X155548133Y-76813888D01*
X155568985Y-76797459D01*
X155600852Y-76780734D01*
X155627792Y-76756866D01*
X155646037Y-76748290D01*
X155655907Y-76737150D01*
X155678285Y-76717324D01*
X155684928Y-76712738D01*
X155701243Y-76691795D01*
X155728183Y-76667929D01*
X155748629Y-76638306D01*
X155764290Y-76625614D01*
X155771209Y-76612432D01*
X155788192Y-76587827D01*
X155793546Y-76581783D01*
X155804372Y-76557549D01*
X155824818Y-76527930D01*
X155837580Y-76494278D01*
X155849751Y-76478203D01*
X155853314Y-76463747D01*
X155863916Y-76435791D01*
X155867664Y-76428649D01*
X155872378Y-76402522D01*
X155885140Y-76368872D01*
X155892886Y-76305072D01*
X155894229Y-76297743D01*
X155897448Y-76284686D01*
X155897448Y-76284679D01*
X155898012Y-76282392D01*
X155898020Y-76282353D01*
X155902982Y-76262217D01*
X155901307Y-76235724D01*
X155905645Y-76200000D01*
X155901307Y-76164271D01*
X155904612Y-76144391D01*
X155898005Y-76117584D01*
X155897999Y-76117551D01*
X155897287Y-76114662D01*
X155894232Y-76102266D01*
X155892885Y-76094915D01*
X155885140Y-76031128D01*
X155872376Y-75997474D01*
X155870828Y-75977376D01*
X155863916Y-75964207D01*
X155853314Y-75936252D01*
X155851382Y-75928415D01*
X155837580Y-75905722D01*
X155824818Y-75872070D01*
X155804372Y-75842449D01*
X155798059Y-75823308D01*
X155788190Y-75812168D01*
X155771209Y-75787565D01*
X155767458Y-75780418D01*
X155748631Y-75761694D01*
X155735315Y-75742403D01*
X155728183Y-75732071D01*
X155728182Y-75732070D01*
X155701241Y-75708202D01*
X155690529Y-75691126D01*
X155678285Y-75682674D01*
X155655909Y-75662850D01*
X155650563Y-75656816D01*
X155627794Y-75643134D01*
X155600856Y-75619269D01*
X155600851Y-75619265D01*
X155568981Y-75602538D01*
X155554496Y-75588522D01*
X155540579Y-75583244D01*
X155514109Y-75569351D01*
X155507471Y-75564769D01*
X155482095Y-75556937D01*
X155450225Y-75540210D01*
X155450224Y-75540209D01*
X155450223Y-75540209D01*
X155415277Y-75531596D01*
X155397850Y-75521449D01*
X155383074Y-75519655D01*
X155354050Y-75512502D01*
X155346511Y-75509643D01*
X155320002Y-75508112D01*
X155285061Y-75499500D01*
X155285056Y-75499500D01*
X155249072Y-75499500D01*
X155229734Y-75493821D01*
X155214945Y-75495617D01*
X155185060Y-75495617D01*
X155177028Y-75494642D01*
X155150929Y-75499500D01*
X155114944Y-75499500D01*
X155079995Y-75508113D01*
X155059858Y-75507226D01*
X155045952Y-75512501D01*
X155016924Y-75519655D01*
X155008918Y-75520626D01*
X154984722Y-75531595D01*
X154949781Y-75540207D01*
X154949774Y-75540210D01*
X154917901Y-75556938D01*
X154898133Y-75560897D01*
X154885884Y-75569353D01*
X154859420Y-75583243D01*
X154851874Y-75586104D01*
X154831019Y-75602537D01*
X154799152Y-75619263D01*
X154799148Y-75619266D01*
X154772200Y-75643139D01*
X154753954Y-75651714D01*
X154744087Y-75662852D01*
X154721713Y-75682674D01*
X154715078Y-75687253D01*
X154698761Y-75708199D01*
X154671817Y-75732070D01*
X154651366Y-75761698D01*
X154635704Y-75774389D01*
X154628788Y-75787567D01*
X154611809Y-75812166D01*
X154606458Y-75818205D01*
X154595630Y-75842444D01*
X154575184Y-75872065D01*
X154575182Y-75872069D01*
X154562416Y-75905729D01*
X154550245Y-75921801D01*
X154546683Y-75936254D01*
X154536084Y-75964202D01*
X154532338Y-75971339D01*
X154527624Y-75997470D01*
X154514860Y-76031126D01*
X154510521Y-76066858D01*
X154502552Y-76085372D01*
X154502552Y-76100263D01*
X154498949Y-76129936D01*
X154497016Y-76137778D01*
X154498693Y-76164271D01*
X154494355Y-76199999D01*
X154494355Y-76200000D01*
X152923115Y-76200000D01*
X152873903Y-76016337D01*
X152774035Y-75802171D01*
X152772514Y-75799998D01*
X152638494Y-75608597D01*
X152471402Y-75441506D01*
X152471396Y-75441501D01*
X152285842Y-75311575D01*
X152242217Y-75256998D01*
X152235023Y-75187500D01*
X152266546Y-75125145D01*
X152285842Y-75108425D01*
X152363043Y-75054368D01*
X152471401Y-74978495D01*
X152638495Y-74811401D01*
X152774035Y-74617830D01*
X152873903Y-74403663D01*
X152935063Y-74175408D01*
X152955659Y-73940000D01*
X152953280Y-73912814D01*
X152940924Y-73771579D01*
X152935063Y-73704592D01*
X152880243Y-73500000D01*
X154494355Y-73500000D01*
X154498693Y-73535727D01*
X154495387Y-73555609D01*
X154498949Y-73570062D01*
X154502552Y-73599735D01*
X154502552Y-73607815D01*
X154510521Y-73633142D01*
X154514859Y-73668870D01*
X154514861Y-73668878D01*
X154527623Y-73702528D01*
X154529171Y-73722624D01*
X154536082Y-73735792D01*
X154546682Y-73763742D01*
X154548613Y-73771579D01*
X154562417Y-73794271D01*
X154564316Y-73799279D01*
X154575182Y-73827931D01*
X154575184Y-73827934D01*
X154595628Y-73857553D01*
X154601938Y-73876689D01*
X154611808Y-73887830D01*
X154628789Y-73912431D01*
X154632543Y-73919584D01*
X154651367Y-73938304D01*
X154671813Y-73967925D01*
X154671814Y-73967926D01*
X154698757Y-73991796D01*
X154709466Y-74008869D01*
X154721713Y-74017323D01*
X154744088Y-74037147D01*
X154749438Y-74043186D01*
X154772204Y-74056864D01*
X154799145Y-74080732D01*
X154799151Y-74080736D01*
X154831011Y-74097457D01*
X154845499Y-74111475D01*
X154859418Y-74116754D01*
X154885888Y-74130647D01*
X154892533Y-74135234D01*
X154917906Y-74143063D01*
X154949775Y-74159790D01*
X154984714Y-74168401D01*
X155002128Y-74178540D01*
X155016911Y-74180336D01*
X155045932Y-74187490D01*
X155053496Y-74190358D01*
X155080003Y-74191887D01*
X155114941Y-74200499D01*
X155114942Y-74200500D01*
X155150937Y-74200500D01*
X155170285Y-74206181D01*
X155185049Y-74204388D01*
X155214954Y-74204388D01*
X155222950Y-74205359D01*
X155249063Y-74200500D01*
X155285058Y-74200500D01*
X155285060Y-74200499D01*
X155319994Y-74191889D01*
X155340131Y-74192774D01*
X155354064Y-74187490D01*
X155383088Y-74180335D01*
X155391113Y-74179360D01*
X155415280Y-74168403D01*
X155450225Y-74159790D01*
X155482089Y-74143065D01*
X155501855Y-74139105D01*
X155514112Y-74130645D01*
X155540582Y-74116753D01*
X155548133Y-74113888D01*
X155568985Y-74097459D01*
X155600852Y-74080734D01*
X155627792Y-74056866D01*
X155646037Y-74048290D01*
X155655907Y-74037150D01*
X155678285Y-74017324D01*
X155684928Y-74012738D01*
X155701243Y-73991795D01*
X155728183Y-73967929D01*
X155748629Y-73938306D01*
X155764290Y-73925614D01*
X155771209Y-73912432D01*
X155788192Y-73887827D01*
X155793546Y-73881783D01*
X155804372Y-73857549D01*
X155824818Y-73827930D01*
X155837580Y-73794278D01*
X155849751Y-73778203D01*
X155853314Y-73763747D01*
X155863916Y-73735791D01*
X155867664Y-73728649D01*
X155872378Y-73702522D01*
X155885140Y-73668872D01*
X155892886Y-73605072D01*
X155894229Y-73597743D01*
X155897448Y-73584686D01*
X155897448Y-73584679D01*
X155898012Y-73582392D01*
X155898020Y-73582353D01*
X155902982Y-73562217D01*
X155901307Y-73535724D01*
X155905645Y-73500000D01*
X155901307Y-73464271D01*
X155904612Y-73444391D01*
X155898005Y-73417584D01*
X155897999Y-73417551D01*
X155895859Y-73408869D01*
X155894232Y-73402266D01*
X155892885Y-73394915D01*
X155885212Y-73331722D01*
X155885140Y-73331127D01*
X155885139Y-73331126D01*
X155884355Y-73329058D01*
X155872376Y-73297474D01*
X155870828Y-73277376D01*
X155863916Y-73264207D01*
X155853314Y-73236252D01*
X155851382Y-73228415D01*
X155837580Y-73205722D01*
X155824818Y-73172070D01*
X155821860Y-73167785D01*
X155804372Y-73142449D01*
X155798059Y-73123308D01*
X155788190Y-73112168D01*
X155771209Y-73087565D01*
X155767458Y-73080418D01*
X155748631Y-73061694D01*
X155734132Y-73040690D01*
X155728183Y-73032071D01*
X155728182Y-73032070D01*
X155701241Y-73008202D01*
X155690529Y-72991126D01*
X155678285Y-72982674D01*
X155655909Y-72962850D01*
X155650563Y-72956816D01*
X155627794Y-72943134D01*
X155600856Y-72919269D01*
X155600851Y-72919265D01*
X155568981Y-72902538D01*
X155554496Y-72888522D01*
X155540579Y-72883244D01*
X155514109Y-72869351D01*
X155507471Y-72864769D01*
X155482095Y-72856937D01*
X155450225Y-72840210D01*
X155450224Y-72840209D01*
X155450223Y-72840209D01*
X155415277Y-72831596D01*
X155397850Y-72821449D01*
X155383074Y-72819655D01*
X155354050Y-72812502D01*
X155346511Y-72809643D01*
X155320002Y-72808112D01*
X155285061Y-72799500D01*
X155285056Y-72799500D01*
X155249072Y-72799500D01*
X155229734Y-72793821D01*
X155214945Y-72795617D01*
X155185060Y-72795617D01*
X155177028Y-72794642D01*
X155150929Y-72799500D01*
X155114944Y-72799500D01*
X155079995Y-72808113D01*
X155059858Y-72807226D01*
X155045952Y-72812501D01*
X155016924Y-72819655D01*
X155008918Y-72820626D01*
X154984722Y-72831595D01*
X154949781Y-72840207D01*
X154949774Y-72840210D01*
X154917901Y-72856938D01*
X154898133Y-72860897D01*
X154885884Y-72869353D01*
X154859420Y-72883243D01*
X154851874Y-72886104D01*
X154831019Y-72902537D01*
X154799152Y-72919263D01*
X154799148Y-72919266D01*
X154772200Y-72943139D01*
X154753954Y-72951714D01*
X154744087Y-72962852D01*
X154721713Y-72982674D01*
X154715078Y-72987253D01*
X154698761Y-73008199D01*
X154671817Y-73032070D01*
X154651366Y-73061698D01*
X154635704Y-73074389D01*
X154628788Y-73087567D01*
X154611809Y-73112166D01*
X154606458Y-73118205D01*
X154595630Y-73142444D01*
X154575184Y-73172065D01*
X154575182Y-73172069D01*
X154562416Y-73205729D01*
X154550245Y-73221801D01*
X154546683Y-73236254D01*
X154536084Y-73264202D01*
X154532338Y-73271339D01*
X154527624Y-73297470D01*
X154514860Y-73331126D01*
X154510521Y-73366858D01*
X154502552Y-73385372D01*
X154502552Y-73400263D01*
X154498949Y-73429936D01*
X154497016Y-73437778D01*
X154498693Y-73464271D01*
X154494355Y-73499999D01*
X154494355Y-73500000D01*
X152880243Y-73500000D01*
X152873903Y-73476337D01*
X152774035Y-73262171D01*
X152770998Y-73257834D01*
X152638496Y-73068600D01*
X152577711Y-73007815D01*
X152516179Y-72946283D01*
X152482696Y-72884963D01*
X152487680Y-72815271D01*
X152529551Y-72759337D01*
X152560529Y-72742422D01*
X152692086Y-72693354D01*
X152692093Y-72693350D01*
X152807187Y-72607190D01*
X152807190Y-72607187D01*
X152893350Y-72492093D01*
X152893354Y-72492086D01*
X152943596Y-72357379D01*
X152943598Y-72357372D01*
X152949999Y-72297844D01*
X152950000Y-72297827D01*
X152950000Y-71650000D01*
X152213347Y-71650000D01*
X152146308Y-71630315D01*
X152100553Y-71577511D01*
X152090609Y-71508353D01*
X152094369Y-71491067D01*
X152099089Y-71474991D01*
X152100000Y-71471889D01*
X152100000Y-71328111D01*
X152094368Y-71308933D01*
X152094370Y-71239064D01*
X152132145Y-71180286D01*
X152195701Y-71151262D01*
X152213347Y-71150000D01*
X152950000Y-71150000D01*
X152950000Y-70900000D01*
X154494355Y-70900000D01*
X154498693Y-70935727D01*
X154495387Y-70955609D01*
X154498949Y-70970062D01*
X154502552Y-70999735D01*
X154502552Y-71007815D01*
X154510521Y-71033142D01*
X154514859Y-71068870D01*
X154514861Y-71068878D01*
X154527623Y-71102528D01*
X154529171Y-71122624D01*
X154536082Y-71135792D01*
X154546682Y-71163742D01*
X154548613Y-71171579D01*
X154562417Y-71194271D01*
X154566739Y-71205668D01*
X154575182Y-71227931D01*
X154575184Y-71227934D01*
X154595628Y-71257553D01*
X154601938Y-71276689D01*
X154611808Y-71287830D01*
X154628789Y-71312431D01*
X154632543Y-71319584D01*
X154651367Y-71338304D01*
X154671813Y-71367925D01*
X154671814Y-71367926D01*
X154671816Y-71367928D01*
X154671817Y-71367929D01*
X154685489Y-71380041D01*
X154698757Y-71391796D01*
X154709466Y-71408869D01*
X154721713Y-71417323D01*
X154744088Y-71437147D01*
X154749438Y-71443186D01*
X154772204Y-71456864D01*
X154799145Y-71480732D01*
X154799151Y-71480736D01*
X154831011Y-71497457D01*
X154845499Y-71511475D01*
X154859418Y-71516754D01*
X154885888Y-71530647D01*
X154892533Y-71535234D01*
X154917906Y-71543063D01*
X154949775Y-71559790D01*
X154984714Y-71568401D01*
X155002128Y-71578540D01*
X155016911Y-71580336D01*
X155045932Y-71587490D01*
X155053496Y-71590358D01*
X155080003Y-71591887D01*
X155114941Y-71600499D01*
X155114942Y-71600500D01*
X155150937Y-71600500D01*
X155170285Y-71606181D01*
X155185049Y-71604388D01*
X155214954Y-71604388D01*
X155222950Y-71605359D01*
X155249063Y-71600500D01*
X155285058Y-71600500D01*
X155285060Y-71600499D01*
X155319994Y-71591889D01*
X155340131Y-71592774D01*
X155354064Y-71587490D01*
X155383088Y-71580335D01*
X155391113Y-71579360D01*
X155415280Y-71568403D01*
X155450225Y-71559790D01*
X155482089Y-71543065D01*
X155501855Y-71539105D01*
X155514112Y-71530645D01*
X155540582Y-71516753D01*
X155548133Y-71513888D01*
X155568985Y-71497459D01*
X155600852Y-71480734D01*
X155627792Y-71456866D01*
X155646037Y-71448290D01*
X155655907Y-71437150D01*
X155678285Y-71417324D01*
X155684928Y-71412738D01*
X155701243Y-71391795D01*
X155728183Y-71367929D01*
X155748629Y-71338306D01*
X155764290Y-71325614D01*
X155771209Y-71312432D01*
X155788192Y-71287827D01*
X155793546Y-71281783D01*
X155804372Y-71257549D01*
X155824818Y-71227930D01*
X155837580Y-71194278D01*
X155849751Y-71178203D01*
X155853314Y-71163747D01*
X155863916Y-71135791D01*
X155867664Y-71128649D01*
X155872378Y-71102522D01*
X155873524Y-71099500D01*
X155885140Y-71068872D01*
X155892886Y-71005072D01*
X155894229Y-70997743D01*
X155897448Y-70984686D01*
X155897448Y-70984679D01*
X155898012Y-70982392D01*
X155898020Y-70982353D01*
X155902982Y-70962217D01*
X155901307Y-70935724D01*
X155905645Y-70900000D01*
X155901307Y-70864271D01*
X155904612Y-70844391D01*
X155898005Y-70817584D01*
X155897998Y-70817546D01*
X155894232Y-70802266D01*
X155892885Y-70794921D01*
X155885140Y-70731128D01*
X155872376Y-70697474D01*
X155870828Y-70677376D01*
X155863916Y-70664207D01*
X155853314Y-70636252D01*
X155851382Y-70628415D01*
X155837580Y-70605722D01*
X155824818Y-70572070D01*
X155805674Y-70544336D01*
X155804372Y-70542449D01*
X155798059Y-70523308D01*
X155788190Y-70512168D01*
X155771209Y-70487565D01*
X155767458Y-70480418D01*
X155748631Y-70461694D01*
X155735263Y-70442328D01*
X155728183Y-70432071D01*
X155714088Y-70419584D01*
X155701241Y-70408202D01*
X155690529Y-70391126D01*
X155678285Y-70382674D01*
X155655909Y-70362850D01*
X155650563Y-70356816D01*
X155627794Y-70343134D01*
X155600856Y-70319269D01*
X155600851Y-70319265D01*
X155568981Y-70302538D01*
X155554496Y-70288522D01*
X155540579Y-70283244D01*
X155514109Y-70269351D01*
X155507471Y-70264769D01*
X155482095Y-70256937D01*
X155450225Y-70240210D01*
X155450224Y-70240209D01*
X155450223Y-70240209D01*
X155415277Y-70231596D01*
X155397850Y-70221449D01*
X155383074Y-70219655D01*
X155354050Y-70212502D01*
X155346511Y-70209643D01*
X155320002Y-70208112D01*
X155285061Y-70199500D01*
X155285056Y-70199500D01*
X155249072Y-70199500D01*
X155229734Y-70193821D01*
X155214945Y-70195617D01*
X155185060Y-70195617D01*
X155177028Y-70194642D01*
X155150929Y-70199500D01*
X155114944Y-70199500D01*
X155079995Y-70208113D01*
X155059858Y-70207226D01*
X155045952Y-70212501D01*
X155016924Y-70219655D01*
X155008918Y-70220626D01*
X154984722Y-70231595D01*
X154949781Y-70240207D01*
X154949774Y-70240210D01*
X154917901Y-70256938D01*
X154898133Y-70260897D01*
X154885884Y-70269353D01*
X154859420Y-70283243D01*
X154851874Y-70286104D01*
X154831019Y-70302537D01*
X154799152Y-70319263D01*
X154799148Y-70319266D01*
X154772200Y-70343139D01*
X154753954Y-70351714D01*
X154744087Y-70362852D01*
X154721713Y-70382674D01*
X154715078Y-70387253D01*
X154698761Y-70408199D01*
X154671817Y-70432070D01*
X154651366Y-70461698D01*
X154635704Y-70474389D01*
X154628788Y-70487567D01*
X154611809Y-70512166D01*
X154606458Y-70518205D01*
X154595630Y-70542444D01*
X154575184Y-70572065D01*
X154575182Y-70572069D01*
X154562416Y-70605729D01*
X154550245Y-70621801D01*
X154546683Y-70636254D01*
X154536084Y-70664202D01*
X154532338Y-70671339D01*
X154527624Y-70697470D01*
X154514860Y-70731126D01*
X154510521Y-70766858D01*
X154502552Y-70785372D01*
X154502552Y-70800263D01*
X154498949Y-70829936D01*
X154497016Y-70837778D01*
X154498693Y-70864271D01*
X154494355Y-70899999D01*
X154494355Y-70900000D01*
X152950000Y-70900000D01*
X152950000Y-70502172D01*
X152949999Y-70502155D01*
X152943598Y-70442627D01*
X152943596Y-70442620D01*
X152893354Y-70307913D01*
X152893350Y-70307906D01*
X152807190Y-70192812D01*
X152807187Y-70192809D01*
X152692093Y-70106649D01*
X152692086Y-70106645D01*
X152557379Y-70056403D01*
X152557372Y-70056401D01*
X152497844Y-70050000D01*
X151850000Y-70050000D01*
X151850000Y-70787698D01*
X151830315Y-70854737D01*
X151777511Y-70900492D01*
X151708355Y-70910436D01*
X151635766Y-70900000D01*
X151635763Y-70900000D01*
X151564237Y-70900000D01*
X151564233Y-70900000D01*
X151491645Y-70910436D01*
X151422487Y-70900492D01*
X151369684Y-70854736D01*
X151350000Y-70787698D01*
X151350000Y-70050000D01*
X150702155Y-70050000D01*
X150642627Y-70056401D01*
X150642620Y-70056403D01*
X150507913Y-70106645D01*
X150507906Y-70106649D01*
X150392812Y-70192809D01*
X150392809Y-70192812D01*
X150306649Y-70307906D01*
X150306645Y-70307913D01*
X150256403Y-70442620D01*
X150256401Y-70442627D01*
X150250000Y-70502155D01*
X150250000Y-71150000D01*
X150986653Y-71150000D01*
X151053692Y-71169685D01*
X151099447Y-71222489D01*
X151109391Y-71291647D01*
X151105631Y-71308933D01*
X151100000Y-71328111D01*
X151100000Y-71471889D01*
X151100911Y-71474991D01*
X151105631Y-71491067D01*
X151105630Y-71560936D01*
X151067855Y-71619714D01*
X151004299Y-71648738D01*
X150986653Y-71650000D01*
X150250000Y-71650000D01*
X150250000Y-72297844D01*
X150256401Y-72357372D01*
X150256403Y-72357379D01*
X150306645Y-72492086D01*
X150306649Y-72492093D01*
X150392809Y-72607187D01*
X150392812Y-72607190D01*
X150507906Y-72693350D01*
X150507913Y-72693354D01*
X150639470Y-72742421D01*
X150695403Y-72784292D01*
X150719821Y-72849756D01*
X150704970Y-72918029D01*
X150683819Y-72946284D01*
X150561503Y-73068600D01*
X150425965Y-73262169D01*
X150425964Y-73262171D01*
X150326098Y-73476335D01*
X150326094Y-73476344D01*
X150264938Y-73704586D01*
X150264936Y-73704596D01*
X150244341Y-73939999D01*
X150244341Y-73940000D01*
X150264936Y-74175403D01*
X150264938Y-74175413D01*
X150326094Y-74403655D01*
X150326096Y-74403659D01*
X150326097Y-74403663D01*
X150421170Y-74607547D01*
X150425965Y-74617830D01*
X150425967Y-74617834D01*
X150561501Y-74811395D01*
X150561506Y-74811402D01*
X150728597Y-74978493D01*
X150728603Y-74978498D01*
X150914158Y-75108425D01*
X150957783Y-75163002D01*
X150964977Y-75232500D01*
X150933454Y-75294855D01*
X150914158Y-75311575D01*
X150728597Y-75441505D01*
X150561505Y-75608597D01*
X150425965Y-75802169D01*
X150425964Y-75802171D01*
X150326098Y-76016335D01*
X150326094Y-76016344D01*
X150264938Y-76244586D01*
X150264936Y-76244596D01*
X150244341Y-76479999D01*
X150244341Y-76480000D01*
X150264936Y-76715403D01*
X150264938Y-76715413D01*
X150326094Y-76943655D01*
X150326096Y-76943659D01*
X150326097Y-76943663D01*
X150393802Y-77088856D01*
X150425965Y-77157830D01*
X150425967Y-77157834D01*
X150521508Y-77294280D01*
X150547721Y-77331716D01*
X150561501Y-77351395D01*
X150561506Y-77351402D01*
X150728597Y-77518493D01*
X150728603Y-77518498D01*
X150914158Y-77648425D01*
X150957783Y-77703002D01*
X150964977Y-77772500D01*
X150933454Y-77834855D01*
X150914158Y-77851575D01*
X150728597Y-77981505D01*
X150561505Y-78148597D01*
X150425965Y-78342169D01*
X150425964Y-78342171D01*
X150326098Y-78556335D01*
X150326094Y-78556344D01*
X150264938Y-78784586D01*
X150264936Y-78784596D01*
X150244341Y-79019999D01*
X150244341Y-79020000D01*
X143029590Y-79020000D01*
X141109591Y-77100000D01*
X145394540Y-77100000D01*
X145414326Y-77288256D01*
X145414327Y-77288259D01*
X145472818Y-77468277D01*
X145472821Y-77468284D01*
X145567467Y-77632216D01*
X145678506Y-77755537D01*
X145694129Y-77772888D01*
X145847265Y-77884148D01*
X145847270Y-77884151D01*
X146020192Y-77961142D01*
X146020197Y-77961144D01*
X146205354Y-78000500D01*
X146205355Y-78000500D01*
X146394644Y-78000500D01*
X146394646Y-78000500D01*
X146579803Y-77961144D01*
X146752730Y-77884151D01*
X146905871Y-77772888D01*
X147032533Y-77632216D01*
X147127179Y-77468284D01*
X147185674Y-77288256D01*
X147205460Y-77100000D01*
X147185674Y-76911744D01*
X147128944Y-76737147D01*
X147127181Y-76731722D01*
X147127180Y-76731721D01*
X147127179Y-76731716D01*
X147032533Y-76567784D01*
X146905871Y-76427112D01*
X146905870Y-76427111D01*
X146752734Y-76315851D01*
X146752729Y-76315848D01*
X146579807Y-76238857D01*
X146579802Y-76238855D01*
X146419270Y-76204734D01*
X146394646Y-76199500D01*
X146205354Y-76199500D01*
X146180730Y-76204734D01*
X146020197Y-76238855D01*
X146020192Y-76238857D01*
X145847270Y-76315848D01*
X145847265Y-76315851D01*
X145694129Y-76427111D01*
X145567466Y-76567785D01*
X145472821Y-76731715D01*
X145472818Y-76731722D01*
X145416106Y-76906265D01*
X145414326Y-76911744D01*
X145399848Y-77049500D01*
X145396150Y-77084686D01*
X145394540Y-77100000D01*
X141109591Y-77100000D01*
X139034771Y-75025180D01*
X139001286Y-74963857D01*
X139006270Y-74894165D01*
X139034768Y-74849821D01*
X139247772Y-74636818D01*
X139309097Y-74603334D01*
X139335454Y-74600500D01*
X139394644Y-74600500D01*
X139394646Y-74600500D01*
X139579803Y-74561144D01*
X139752730Y-74484151D01*
X139905871Y-74372888D01*
X140032533Y-74232216D01*
X140127179Y-74068284D01*
X140185674Y-73888256D01*
X140205460Y-73700000D01*
X140185674Y-73511744D01*
X140127179Y-73331716D01*
X140032533Y-73167784D01*
X139905871Y-73027112D01*
X139895861Y-73019839D01*
X139752734Y-72915851D01*
X139752729Y-72915848D01*
X139579807Y-72838857D01*
X139579802Y-72838855D01*
X139423344Y-72805600D01*
X139394646Y-72799500D01*
X139205354Y-72799500D01*
X139192341Y-72802266D01*
X139020197Y-72838855D01*
X139020192Y-72838857D01*
X138847270Y-72915848D01*
X138847265Y-72915851D01*
X138694129Y-73027111D01*
X138567466Y-73167785D01*
X138472821Y-73331715D01*
X138472818Y-73331722D01*
X138414327Y-73511739D01*
X138414324Y-73511753D01*
X138414168Y-73513240D01*
X138413838Y-73514041D01*
X138412976Y-73518098D01*
X138412233Y-73517940D01*
X138387576Y-73577852D01*
X138330274Y-73617830D01*
X138260455Y-73620481D01*
X138251851Y-73617971D01*
X138227797Y-73610001D01*
X138227795Y-73610000D01*
X138125010Y-73599500D01*
X137424998Y-73599500D01*
X137424980Y-73599501D01*
X137322203Y-73610000D01*
X137322200Y-73610001D01*
X137155668Y-73665185D01*
X137155663Y-73665187D01*
X137006342Y-73757289D01*
X136882289Y-73881342D01*
X136790187Y-74030663D01*
X136790185Y-74030668D01*
X136775271Y-74075677D01*
X136735001Y-74197203D01*
X136735001Y-74197204D01*
X136735000Y-74197204D01*
X136724500Y-74299983D01*
X136724500Y-75000001D01*
X131522726Y-75000001D01*
X131526650Y-74974945D01*
X131525171Y-74974465D01*
X131551262Y-74894165D01*
X131585674Y-74788256D01*
X131605460Y-74600000D01*
X131585674Y-74411744D01*
X131531112Y-74243823D01*
X131527181Y-74231722D01*
X131527180Y-74231721D01*
X131527179Y-74231716D01*
X131432533Y-74067784D01*
X131305871Y-73927112D01*
X131305870Y-73927111D01*
X131152734Y-73815851D01*
X131152729Y-73815848D01*
X130979807Y-73738857D01*
X130979802Y-73738855D01*
X130818574Y-73704586D01*
X130794646Y-73699500D01*
X130605354Y-73699500D01*
X130581426Y-73704586D01*
X130420197Y-73738855D01*
X130420192Y-73738857D01*
X130247270Y-73815848D01*
X130247265Y-73815851D01*
X130094129Y-73927111D01*
X129967466Y-74067785D01*
X129872821Y-74231715D01*
X129872818Y-74231722D01*
X129816951Y-74403664D01*
X129814326Y-74411744D01*
X129794540Y-74600000D01*
X129814326Y-74788256D01*
X129814327Y-74788259D01*
X129871375Y-74963836D01*
X129873370Y-75033677D01*
X129837290Y-75093510D01*
X129792449Y-75119860D01*
X129655666Y-75165186D01*
X129655663Y-75165187D01*
X129506342Y-75257289D01*
X129382289Y-75381342D01*
X129290187Y-75530663D01*
X129290185Y-75530668D01*
X129262349Y-75614670D01*
X129235001Y-75697203D01*
X129235001Y-75697204D01*
X129235000Y-75697204D01*
X129224500Y-75799983D01*
X129224500Y-76925500D01*
X129204815Y-76992539D01*
X129152011Y-77038294D01*
X129100500Y-77049500D01*
X127238564Y-77049500D01*
X127171525Y-77029815D01*
X127131177Y-76987500D01*
X127051252Y-76849065D01*
X126924590Y-76708393D01*
X126924589Y-76708392D01*
X126771453Y-76597132D01*
X126771448Y-76597129D01*
X126598526Y-76520138D01*
X126598521Y-76520136D01*
X126452720Y-76489146D01*
X126413365Y-76480781D01*
X126224073Y-76480781D01*
X126193624Y-76487253D01*
X126038916Y-76520136D01*
X126038911Y-76520138D01*
X125865989Y-76597129D01*
X125865984Y-76597132D01*
X125712848Y-76708392D01*
X125586185Y-76849066D01*
X125491540Y-77012996D01*
X125491537Y-77013003D01*
X125439588Y-77172888D01*
X125433045Y-77193025D01*
X125413259Y-77381281D01*
X124175091Y-77381281D01*
X124079807Y-77338857D01*
X124079802Y-77338855D01*
X123934000Y-77307865D01*
X123894646Y-77299500D01*
X123705354Y-77299500D01*
X123672897Y-77306398D01*
X123520197Y-77338855D01*
X123520192Y-77338857D01*
X123347270Y-77415848D01*
X123347265Y-77415851D01*
X123194129Y-77527111D01*
X123067466Y-77667785D01*
X122972821Y-77831715D01*
X122972818Y-77831722D01*
X122928609Y-77967785D01*
X122914326Y-78011744D01*
X122894540Y-78200000D01*
X122914326Y-78388256D01*
X122914327Y-78388259D01*
X122939972Y-78467187D01*
X122941967Y-78537028D01*
X122909722Y-78593186D01*
X122014727Y-79488181D01*
X121953404Y-79521666D01*
X121927046Y-79524500D01*
X121484180Y-79524500D01*
X121417141Y-79504815D01*
X121371386Y-79452011D01*
X121361442Y-79382853D01*
X121378641Y-79335405D01*
X121434814Y-79244334D01*
X121489999Y-79077797D01*
X121500500Y-78975009D01*
X121500499Y-78199992D01*
X121496968Y-78165429D01*
X121489999Y-78097203D01*
X121489998Y-78097200D01*
X121467950Y-78030663D01*
X121434814Y-77930666D01*
X121342712Y-77781344D01*
X121218656Y-77657288D01*
X121215819Y-77655538D01*
X121214283Y-77653830D01*
X121212989Y-77652807D01*
X121213163Y-77652585D01*
X121169096Y-77603594D01*
X121157872Y-77534632D01*
X121185713Y-77470549D01*
X121215817Y-77444462D01*
X121218656Y-77442712D01*
X121342712Y-77318656D01*
X121381440Y-77255866D01*
X121433386Y-77209143D01*
X121502348Y-77197920D01*
X121559860Y-77220644D01*
X121626872Y-77269331D01*
X121647270Y-77284151D01*
X121820192Y-77361142D01*
X121820197Y-77361144D01*
X122005354Y-77400500D01*
X122005355Y-77400500D01*
X122194644Y-77400500D01*
X122194646Y-77400500D01*
X122379803Y-77361144D01*
X122552730Y-77284151D01*
X122705871Y-77172888D01*
X122832533Y-77032216D01*
X122927179Y-76868284D01*
X122985674Y-76688256D01*
X123005460Y-76500000D01*
X122985674Y-76311744D01*
X122929149Y-76137778D01*
X122927181Y-76131722D01*
X122927180Y-76131721D01*
X122927179Y-76131716D01*
X122832533Y-75967784D01*
X122705871Y-75827112D01*
X122700784Y-75823416D01*
X122552734Y-75715851D01*
X122552729Y-75715848D01*
X122379807Y-75638857D01*
X122379802Y-75638855D01*
X122234000Y-75607865D01*
X122194646Y-75599500D01*
X122005354Y-75599500D01*
X121972897Y-75606398D01*
X121820197Y-75638855D01*
X121820192Y-75638857D01*
X121647271Y-75715848D01*
X121549214Y-75787090D01*
X121483407Y-75810569D01*
X121415353Y-75794743D01*
X121370791Y-75751868D01*
X121342712Y-75706344D01*
X121218656Y-75582288D01*
X121100879Y-75509643D01*
X121069336Y-75490187D01*
X121069331Y-75490185D01*
X121053273Y-75484864D01*
X120902797Y-75435001D01*
X120902795Y-75435000D01*
X120800016Y-75424500D01*
X120800009Y-75424500D01*
X120122953Y-75424500D01*
X120055914Y-75404815D01*
X120035272Y-75388181D01*
X119671510Y-75024420D01*
X119641260Y-74975057D01*
X119627179Y-74931716D01*
X119624521Y-74927112D01*
X119532534Y-74767785D01*
X119410016Y-74631716D01*
X119405871Y-74627112D01*
X119405870Y-74627111D01*
X119252734Y-74515851D01*
X119252729Y-74515848D01*
X119079807Y-74438857D01*
X119079802Y-74438855D01*
X118914236Y-74403664D01*
X118894646Y-74399500D01*
X118705354Y-74399500D01*
X118685764Y-74403664D01*
X118520197Y-74438855D01*
X118520192Y-74438857D01*
X118347270Y-74515848D01*
X118347265Y-74515851D01*
X118194129Y-74627111D01*
X118067466Y-74767785D01*
X117972821Y-74931715D01*
X117972818Y-74931722D01*
X117919391Y-75096155D01*
X117914326Y-75111744D01*
X117894540Y-75300000D01*
X117914326Y-75488256D01*
X117914327Y-75488259D01*
X117972818Y-75668277D01*
X117972821Y-75668284D01*
X118067467Y-75832216D01*
X118178622Y-75955666D01*
X118194129Y-75972888D01*
X118347265Y-76084148D01*
X118347270Y-76084151D01*
X118520192Y-76161142D01*
X118520197Y-76161144D01*
X118705354Y-76200500D01*
X118705355Y-76200500D01*
X118894642Y-76200500D01*
X118894646Y-76200500D01*
X118899716Y-76199422D01*
X118969379Y-76204734D01*
X119025115Y-76246868D01*
X119049224Y-76312447D01*
X119049500Y-76320711D01*
X119049500Y-76900001D01*
X119049501Y-76900011D01*
X119049948Y-76904388D01*
X119050699Y-76911740D01*
X119050818Y-76912896D01*
X119038050Y-76981589D01*
X118990170Y-77032474D01*
X118927460Y-77049500D01*
X118855354Y-77049500D01*
X118826623Y-77055607D01*
X118670197Y-77088855D01*
X118670192Y-77088857D01*
X118497270Y-77165848D01*
X118497265Y-77165851D01*
X118344129Y-77277111D01*
X118217466Y-77417785D01*
X118122821Y-77581715D01*
X118122818Y-77581722D01*
X118065775Y-77757285D01*
X118064326Y-77761744D01*
X118044540Y-77950000D01*
X118064326Y-78138256D01*
X118064327Y-78138259D01*
X118122818Y-78318277D01*
X118122821Y-78318284D01*
X118217467Y-78482216D01*
X118307803Y-78582544D01*
X118344129Y-78622888D01*
X118497265Y-78734148D01*
X118497270Y-78734151D01*
X118670192Y-78811142D01*
X118670197Y-78811144D01*
X118855354Y-78850500D01*
X118914547Y-78850500D01*
X118981586Y-78870185D01*
X119002228Y-78886819D01*
X119013651Y-78898242D01*
X119047136Y-78959565D01*
X119049328Y-78973321D01*
X119060001Y-79077797D01*
X119060001Y-79077799D01*
X119115185Y-79244331D01*
X119115187Y-79244336D01*
X119134055Y-79274926D01*
X119197246Y-79377376D01*
X119207289Y-79393657D01*
X119331343Y-79517711D01*
X119337011Y-79522193D01*
X119335315Y-79524337D01*
X119373606Y-79566901D01*
X119384833Y-79635863D01*
X119356994Y-79699947D01*
X119298928Y-79738807D01*
X119261788Y-79744500D01*
X118159304Y-79744500D01*
X118122432Y-79747401D01*
X118122426Y-79747402D01*
X117964606Y-79793254D01*
X117964603Y-79793255D01*
X117823137Y-79876917D01*
X117823129Y-79876923D01*
X117706923Y-79993129D01*
X117706917Y-79993137D01*
X117706231Y-79994298D01*
X117705456Y-79995021D01*
X117702139Y-79999298D01*
X117701448Y-79998762D01*
X117655161Y-80041980D01*
X117586419Y-80054483D01*
X117521830Y-80027836D01*
X117481901Y-79970500D01*
X117475500Y-79931175D01*
X117475500Y-73718528D01*
X117495185Y-73651489D01*
X117511819Y-73630847D01*
X118139462Y-73003204D01*
X118200785Y-72969719D01*
X118227143Y-72966885D01*
X118286335Y-72966885D01*
X118286337Y-72966885D01*
X118471494Y-72927529D01*
X118644421Y-72850536D01*
X118797562Y-72739273D01*
X118924224Y-72598601D01*
X119018870Y-72434669D01*
X119077365Y-72254641D01*
X119097151Y-72066385D01*
X119077365Y-71878129D01*
X119018870Y-71698101D01*
X118924224Y-71534169D01*
X118797562Y-71393497D01*
X118795221Y-71391796D01*
X118644425Y-71282236D01*
X118644420Y-71282233D01*
X118471498Y-71205242D01*
X118471493Y-71205240D01*
X118313125Y-71171579D01*
X118286337Y-71165885D01*
X118097045Y-71165885D01*
X118070257Y-71171579D01*
X117911888Y-71205240D01*
X117911883Y-71205242D01*
X117738961Y-71282233D01*
X117738956Y-71282236D01*
X117585820Y-71393496D01*
X117459157Y-71534170D01*
X117364512Y-71698100D01*
X117364509Y-71698107D01*
X117320935Y-71832216D01*
X117306017Y-71878129D01*
X117294874Y-71984151D01*
X117288370Y-72046034D01*
X117261785Y-72110648D01*
X117252730Y-72120753D01*
X116466208Y-72907275D01*
X116453951Y-72917096D01*
X116454134Y-72917317D01*
X116448123Y-72922289D01*
X116400772Y-72972712D01*
X116379889Y-72993595D01*
X116379877Y-72993608D01*
X116375621Y-72999093D01*
X116371837Y-73003523D01*
X116339937Y-73037494D01*
X116339936Y-73037496D01*
X116330284Y-73055052D01*
X116319610Y-73071302D01*
X116307329Y-73087137D01*
X116307324Y-73087144D01*
X116288815Y-73129914D01*
X116286245Y-73135160D01*
X116263803Y-73175982D01*
X116258822Y-73195383D01*
X116252521Y-73213786D01*
X116244562Y-73232178D01*
X116244561Y-73232181D01*
X116237271Y-73278203D01*
X116236087Y-73283922D01*
X116224501Y-73329048D01*
X116224500Y-73329058D01*
X116224500Y-73349092D01*
X116222973Y-73368489D01*
X116219840Y-73388272D01*
X116222586Y-73417323D01*
X116224225Y-73434659D01*
X116224500Y-73440497D01*
X116224500Y-76001383D01*
X116204815Y-76068422D01*
X116152011Y-76114177D01*
X116082853Y-76124121D01*
X116050064Y-76114662D01*
X115879807Y-76038857D01*
X115879802Y-76038855D01*
X115734001Y-76007865D01*
X115694646Y-75999500D01*
X115505354Y-75999500D01*
X115472897Y-76006398D01*
X115320197Y-76038855D01*
X115320192Y-76038857D01*
X115220603Y-76083198D01*
X115151353Y-76092483D01*
X115088076Y-76062855D01*
X115052462Y-76008924D01*
X115034814Y-75955666D01*
X115027656Y-75944062D01*
X115009214Y-75876672D01*
X115030134Y-75810007D01*
X115060308Y-75778645D01*
X115083634Y-75761698D01*
X115205871Y-75672888D01*
X115332533Y-75532216D01*
X115427179Y-75368284D01*
X115485674Y-75188256D01*
X115505460Y-75000000D01*
X115485674Y-74811744D01*
X115428837Y-74636818D01*
X115427181Y-74631722D01*
X115427180Y-74631721D01*
X115427179Y-74631716D01*
X115332533Y-74467784D01*
X115205871Y-74327112D01*
X115205870Y-74327111D01*
X115052734Y-74215851D01*
X115052729Y-74215848D01*
X114879807Y-74138857D01*
X114879802Y-74138855D01*
X114734001Y-74107865D01*
X114694646Y-74099500D01*
X114505354Y-74099500D01*
X114472897Y-74106398D01*
X114320197Y-74138855D01*
X114320192Y-74138857D01*
X114147270Y-74215848D01*
X114147265Y-74215851D01*
X113994129Y-74327111D01*
X113867466Y-74467785D01*
X113772821Y-74631715D01*
X113772818Y-74631722D01*
X113714439Y-74811395D01*
X113714326Y-74811744D01*
X113696800Y-74978495D01*
X113696679Y-74979649D01*
X113670094Y-75044263D01*
X113661039Y-75054368D01*
X113491208Y-75224199D01*
X113478951Y-75234020D01*
X113479134Y-75234241D01*
X113473123Y-75239213D01*
X113425772Y-75289636D01*
X113404889Y-75310519D01*
X113404877Y-75310532D01*
X113400621Y-75316017D01*
X113396837Y-75320447D01*
X113364937Y-75354418D01*
X113364936Y-75354420D01*
X113355284Y-75371976D01*
X113344610Y-75388226D01*
X113332329Y-75404061D01*
X113332324Y-75404068D01*
X113313815Y-75446839D01*
X113311244Y-75452085D01*
X113293224Y-75484864D01*
X113243678Y-75534128D01*
X113223567Y-75542833D01*
X113080666Y-75590186D01*
X113080663Y-75590187D01*
X112931342Y-75682289D01*
X112807289Y-75806342D01*
X112715187Y-75955663D01*
X112715185Y-75955668D01*
X112695079Y-76016344D01*
X112660001Y-76122203D01*
X112660001Y-76122204D01*
X112660000Y-76122204D01*
X112649500Y-76224983D01*
X112649500Y-77000001D01*
X112649501Y-77000019D01*
X112660000Y-77102796D01*
X112660001Y-77102799D01*
X112715185Y-77269331D01*
X112715187Y-77269336D01*
X112750069Y-77325888D01*
X112806750Y-77417784D01*
X112807289Y-77418657D01*
X112931346Y-77542714D01*
X112934182Y-77544463D01*
X112935717Y-77546170D01*
X112937011Y-77547193D01*
X112936836Y-77547414D01*
X112980905Y-77596411D01*
X112992126Y-77665374D01*
X112964282Y-77729456D01*
X112934182Y-77755537D01*
X112931346Y-77757285D01*
X112807289Y-77881342D01*
X112715187Y-78030663D01*
X112715185Y-78030668D01*
X112693139Y-78097200D01*
X112660001Y-78197203D01*
X112660001Y-78197204D01*
X112660000Y-78197204D01*
X112649500Y-78299983D01*
X112649500Y-79075001D01*
X112649501Y-79075019D01*
X112660000Y-79177796D01*
X112660001Y-79177799D01*
X112715185Y-79344331D01*
X112715187Y-79344336D01*
X112745608Y-79393656D01*
X112807288Y-79493656D01*
X112931344Y-79617712D01*
X112942664Y-79624694D01*
X112989390Y-79676640D01*
X113000614Y-79745603D01*
X112972772Y-79809686D01*
X112940691Y-79836966D01*
X112873138Y-79876916D01*
X112873129Y-79876923D01*
X112756923Y-79993129D01*
X112756917Y-79993137D01*
X112673255Y-80134603D01*
X112673254Y-80134606D01*
X112627402Y-80292426D01*
X112627401Y-80292432D01*
X112624500Y-80329304D01*
X112624500Y-80760696D01*
X112627401Y-80797567D01*
X112627402Y-80797573D01*
X112673254Y-80955393D01*
X112673254Y-80955394D01*
X112701041Y-81002380D01*
X112718222Y-81070104D01*
X112696062Y-81136366D01*
X112641596Y-81180129D01*
X112594308Y-81189500D01*
X112073999Y-81189500D01*
X112006960Y-81169815D01*
X111961205Y-81117011D01*
X111956068Y-81103818D01*
X111954827Y-81100000D01*
X111923109Y-81002380D01*
X111904232Y-80944282D01*
X111904229Y-80944276D01*
X111809584Y-80780345D01*
X111682922Y-80639673D01*
X111682921Y-80639672D01*
X111529785Y-80528412D01*
X111529780Y-80528409D01*
X111356858Y-80451418D01*
X111356853Y-80451416D01*
X111203609Y-80418844D01*
X111171697Y-80412061D01*
X110982405Y-80412061D01*
X110950493Y-80418844D01*
X110797248Y-80451416D01*
X110797243Y-80451418D01*
X110624321Y-80528409D01*
X110624316Y-80528412D01*
X110471180Y-80639672D01*
X110344517Y-80780346D01*
X110249872Y-80944276D01*
X110249869Y-80944283D01*
X110197880Y-81104291D01*
X110191377Y-81124305D01*
X110175900Y-81271565D01*
X110171768Y-81310881D01*
X110171591Y-81312561D01*
X98047954Y-81312561D01*
X98010842Y-81286575D01*
X97967217Y-81231998D01*
X97960023Y-81162500D01*
X97991546Y-81100145D01*
X98010842Y-81083425D01*
X98033026Y-81067891D01*
X98196401Y-80953495D01*
X98363495Y-80786401D01*
X98499035Y-80592830D01*
X98598903Y-80378663D01*
X98660063Y-80150408D01*
X98680659Y-79915000D01*
X98660063Y-79679592D01*
X98610574Y-79494894D01*
X98598905Y-79451344D01*
X98598904Y-79451343D01*
X98598903Y-79451337D01*
X98499035Y-79237171D01*
X98481526Y-79212166D01*
X98363496Y-79043600D01*
X98303139Y-78983243D01*
X98241567Y-78921671D01*
X98208084Y-78860351D01*
X98213068Y-78790659D01*
X98254939Y-78734725D01*
X98285915Y-78717810D01*
X98417331Y-78668796D01*
X98532546Y-78582546D01*
X98618796Y-78467331D01*
X98669091Y-78332483D01*
X98675500Y-78272873D01*
X98675499Y-76500000D01*
X103094540Y-76500000D01*
X103114326Y-76688256D01*
X103114327Y-76688259D01*
X103172818Y-76868277D01*
X103172821Y-76868284D01*
X103267467Y-77032216D01*
X103389533Y-77167784D01*
X103394129Y-77172888D01*
X103547265Y-77284148D01*
X103547270Y-77284151D01*
X103720192Y-77361142D01*
X103720197Y-77361144D01*
X103905354Y-77400500D01*
X103905355Y-77400500D01*
X104094644Y-77400500D01*
X104094646Y-77400500D01*
X104279803Y-77361144D01*
X104452730Y-77284151D01*
X104605871Y-77172888D01*
X104732533Y-77032216D01*
X104827179Y-76868284D01*
X104885674Y-76688256D01*
X104905460Y-76500000D01*
X104885674Y-76311744D01*
X104829149Y-76137778D01*
X104827181Y-76131722D01*
X104827180Y-76131721D01*
X104827179Y-76131716D01*
X104732533Y-75967784D01*
X104605871Y-75827112D01*
X104600784Y-75823416D01*
X104452734Y-75715851D01*
X104452729Y-75715848D01*
X104279807Y-75638857D01*
X104279802Y-75638855D01*
X104134001Y-75607865D01*
X104094646Y-75599500D01*
X103905354Y-75599500D01*
X103872897Y-75606398D01*
X103720197Y-75638855D01*
X103720192Y-75638857D01*
X103547270Y-75715848D01*
X103547265Y-75715851D01*
X103394129Y-75827111D01*
X103267466Y-75967785D01*
X103172821Y-76131715D01*
X103172818Y-76131722D01*
X103114327Y-76311740D01*
X103114326Y-76311744D01*
X103094540Y-76500000D01*
X98675499Y-76500000D01*
X98675499Y-76499061D01*
X98695184Y-76432023D01*
X98747987Y-76386268D01*
X98748897Y-76385857D01*
X98752730Y-76384151D01*
X98905871Y-76272888D01*
X99032533Y-76132216D01*
X99127179Y-75968284D01*
X99185674Y-75788256D01*
X99205460Y-75600000D01*
X99185674Y-75411744D01*
X99127928Y-75234020D01*
X99127181Y-75231722D01*
X99127180Y-75231721D01*
X99127179Y-75231716D01*
X99032533Y-75067784D01*
X98905871Y-74927112D01*
X98869243Y-74900500D01*
X98752734Y-74815851D01*
X98752729Y-74815848D01*
X98579807Y-74738857D01*
X98579802Y-74738855D01*
X98434001Y-74707865D01*
X98394646Y-74699500D01*
X98205354Y-74699500D01*
X98172897Y-74706398D01*
X98020197Y-74738855D01*
X98020192Y-74738857D01*
X97847270Y-74815848D01*
X97847265Y-74815851D01*
X97694129Y-74927111D01*
X97567466Y-75067785D01*
X97472821Y-75231715D01*
X97472818Y-75231722D01*
X97416822Y-75404061D01*
X97414326Y-75411744D01*
X97394540Y-75600000D01*
X97414326Y-75788256D01*
X97414327Y-75788259D01*
X97438346Y-75862182D01*
X97440341Y-75932023D01*
X97404261Y-75991856D01*
X97341560Y-76022684D01*
X97320415Y-76024500D01*
X96427129Y-76024500D01*
X96427123Y-76024501D01*
X96367516Y-76030908D01*
X96232671Y-76081202D01*
X96232664Y-76081206D01*
X96117455Y-76167452D01*
X96117452Y-76167455D01*
X96031206Y-76282664D01*
X96031202Y-76282671D01*
X95980908Y-76417517D01*
X95974501Y-76477116D01*
X95974500Y-76477135D01*
X95974500Y-78272870D01*
X95974501Y-78272876D01*
X95980908Y-78332483D01*
X96031202Y-78467328D01*
X96031206Y-78467335D01*
X96117452Y-78582544D01*
X96117455Y-78582547D01*
X96232664Y-78668793D01*
X96232671Y-78668797D01*
X96364081Y-78717810D01*
X96420015Y-78759681D01*
X96444432Y-78825145D01*
X96429580Y-78893418D01*
X96408430Y-78921673D01*
X96286503Y-79043600D01*
X96150965Y-79237169D01*
X96150964Y-79237171D01*
X96051098Y-79451335D01*
X96051094Y-79451344D01*
X95989938Y-79679586D01*
X95989936Y-79679596D01*
X95969341Y-79914999D01*
X95969341Y-79915000D01*
X95989936Y-80150403D01*
X95989938Y-80150413D01*
X96051094Y-80378655D01*
X96051096Y-80378659D01*
X96051097Y-80378663D01*
X96120926Y-80528412D01*
X96150965Y-80592830D01*
X96150967Y-80592834D01*
X96286501Y-80786395D01*
X96286506Y-80786402D01*
X96453597Y-80953493D01*
X96453603Y-80953498D01*
X96639158Y-81083425D01*
X96682783Y-81138002D01*
X96689977Y-81207500D01*
X96658454Y-81269855D01*
X96639158Y-81286575D01*
X96453597Y-81416505D01*
X96286505Y-81583597D01*
X96150965Y-81777169D01*
X96150964Y-81777171D01*
X96051098Y-81991335D01*
X96051094Y-81991344D01*
X95989938Y-82219586D01*
X95989936Y-82219596D01*
X95969341Y-82454999D01*
X95969341Y-82455000D01*
X94786824Y-82455000D01*
X94792886Y-82405072D01*
X94794229Y-82397743D01*
X94797448Y-82384686D01*
X94797448Y-82384679D01*
X94798012Y-82382392D01*
X94798020Y-82382353D01*
X94802982Y-82362217D01*
X94801307Y-82335724D01*
X94805645Y-82300000D01*
X94801306Y-82264272D01*
X94804612Y-82244391D01*
X94798005Y-82217584D01*
X94797999Y-82217551D01*
X94797448Y-82215314D01*
X94794232Y-82202266D01*
X94792885Y-82194915D01*
X94785140Y-82131128D01*
X94772376Y-82097474D01*
X94770828Y-82077376D01*
X94763916Y-82064207D01*
X94753314Y-82036252D01*
X94751382Y-82028415D01*
X94737580Y-82005722D01*
X94724818Y-81972070D01*
X94719937Y-81964999D01*
X94704372Y-81942449D01*
X94698059Y-81923308D01*
X94688190Y-81912168D01*
X94671209Y-81887565D01*
X94667458Y-81880418D01*
X94648631Y-81861694D01*
X94628182Y-81832070D01*
X94601241Y-81808202D01*
X94590529Y-81791126D01*
X94578285Y-81782674D01*
X94555909Y-81762850D01*
X94550563Y-81756816D01*
X94527794Y-81743134D01*
X94500856Y-81719269D01*
X94500851Y-81719265D01*
X94468981Y-81702538D01*
X94454496Y-81688522D01*
X94440579Y-81683244D01*
X94414109Y-81669351D01*
X94407471Y-81664769D01*
X94382095Y-81656937D01*
X94350225Y-81640210D01*
X94350224Y-81640209D01*
X94350223Y-81640209D01*
X94315277Y-81631596D01*
X94297850Y-81621449D01*
X94283074Y-81619655D01*
X94254050Y-81612502D01*
X94246511Y-81609643D01*
X94220002Y-81608112D01*
X94185061Y-81599500D01*
X94185056Y-81599500D01*
X94149072Y-81599500D01*
X94129734Y-81593821D01*
X94114945Y-81595617D01*
X94085060Y-81595617D01*
X94077028Y-81594642D01*
X94050929Y-81599500D01*
X94014944Y-81599500D01*
X93979995Y-81608113D01*
X93959858Y-81607226D01*
X93945952Y-81612501D01*
X93916924Y-81619655D01*
X93908918Y-81620626D01*
X93884722Y-81631595D01*
X93849781Y-81640207D01*
X93849774Y-81640210D01*
X93817901Y-81656938D01*
X93798133Y-81660897D01*
X93785884Y-81669353D01*
X93759420Y-81683243D01*
X93751874Y-81686104D01*
X93731019Y-81702537D01*
X93699152Y-81719263D01*
X93699148Y-81719266D01*
X93672200Y-81743139D01*
X93653954Y-81751714D01*
X93644087Y-81762852D01*
X93621713Y-81782674D01*
X93615078Y-81787253D01*
X93598761Y-81808199D01*
X93571817Y-81832070D01*
X93551366Y-81861698D01*
X93535704Y-81874389D01*
X93528788Y-81887567D01*
X93511809Y-81912166D01*
X93506458Y-81918205D01*
X93495630Y-81942444D01*
X93475184Y-81972065D01*
X93475182Y-81972069D01*
X93462416Y-82005729D01*
X93450245Y-82021801D01*
X93446683Y-82036254D01*
X93436084Y-82064202D01*
X93432338Y-82071339D01*
X93427624Y-82097470D01*
X93414860Y-82131126D01*
X93410521Y-82166858D01*
X93402552Y-82185372D01*
X93402552Y-82200263D01*
X93398949Y-82229936D01*
X93397015Y-82237781D01*
X93398692Y-82264268D01*
X93394355Y-82299995D01*
X93394355Y-82300003D01*
X92329104Y-82300003D01*
X92331992Y-79600003D01*
X93394355Y-79600003D01*
X93398692Y-79635730D01*
X93395386Y-79655607D01*
X93398949Y-79670062D01*
X93402552Y-79699735D01*
X93402552Y-79707815D01*
X93410521Y-79733142D01*
X93414859Y-79768870D01*
X93414861Y-79768878D01*
X93427623Y-79802528D01*
X93429171Y-79822624D01*
X93436082Y-79835792D01*
X93446682Y-79863742D01*
X93448613Y-79871579D01*
X93462417Y-79894271D01*
X93467601Y-79907940D01*
X93475182Y-79927931D01*
X93475184Y-79927934D01*
X93495628Y-79957553D01*
X93501938Y-79976689D01*
X93511808Y-79987830D01*
X93528789Y-80012431D01*
X93532543Y-80019584D01*
X93551367Y-80038304D01*
X93571813Y-80067925D01*
X93571814Y-80067926D01*
X93598757Y-80091796D01*
X93609466Y-80108869D01*
X93621713Y-80117323D01*
X93644088Y-80137147D01*
X93649438Y-80143186D01*
X93672204Y-80156864D01*
X93699145Y-80180732D01*
X93699151Y-80180736D01*
X93731011Y-80197457D01*
X93745499Y-80211475D01*
X93759418Y-80216754D01*
X93785888Y-80230647D01*
X93792533Y-80235234D01*
X93817906Y-80243063D01*
X93849775Y-80259790D01*
X93884714Y-80268401D01*
X93902128Y-80278540D01*
X93916911Y-80280336D01*
X93945932Y-80287490D01*
X93953496Y-80290358D01*
X93980003Y-80291887D01*
X94014941Y-80300499D01*
X94014942Y-80300500D01*
X94050937Y-80300500D01*
X94070285Y-80306181D01*
X94085049Y-80304388D01*
X94114954Y-80304388D01*
X94122950Y-80305359D01*
X94149063Y-80300500D01*
X94185058Y-80300500D01*
X94185060Y-80300499D01*
X94219994Y-80291889D01*
X94240131Y-80292774D01*
X94254064Y-80287490D01*
X94283088Y-80280335D01*
X94291113Y-80279360D01*
X94315280Y-80268403D01*
X94350225Y-80259790D01*
X94382089Y-80243065D01*
X94401855Y-80239105D01*
X94414112Y-80230645D01*
X94440582Y-80216753D01*
X94448133Y-80213888D01*
X94468985Y-80197459D01*
X94500852Y-80180734D01*
X94527792Y-80156866D01*
X94546037Y-80148290D01*
X94555907Y-80137150D01*
X94578285Y-80117324D01*
X94584928Y-80112738D01*
X94601243Y-80091795D01*
X94628183Y-80067929D01*
X94648629Y-80038306D01*
X94664290Y-80025614D01*
X94671209Y-80012432D01*
X94688192Y-79987827D01*
X94693546Y-79981783D01*
X94704372Y-79957549D01*
X94724818Y-79927930D01*
X94737580Y-79894278D01*
X94749751Y-79878203D01*
X94753314Y-79863747D01*
X94763916Y-79835791D01*
X94767664Y-79828649D01*
X94772378Y-79802522D01*
X94773145Y-79800500D01*
X94785140Y-79768872D01*
X94792886Y-79705072D01*
X94794229Y-79697743D01*
X94797448Y-79684686D01*
X94797448Y-79684679D01*
X94798012Y-79682392D01*
X94798020Y-79682353D01*
X94802982Y-79662217D01*
X94801307Y-79635724D01*
X94805645Y-79600000D01*
X94801306Y-79564272D01*
X94804612Y-79544391D01*
X94798005Y-79517584D01*
X94797998Y-79517546D01*
X94794232Y-79502266D01*
X94792885Y-79494921D01*
X94785158Y-79431279D01*
X94785140Y-79431127D01*
X94785139Y-79431126D01*
X94772376Y-79397474D01*
X94770828Y-79377376D01*
X94763916Y-79364207D01*
X94753314Y-79336252D01*
X94751382Y-79328415D01*
X94737580Y-79305722D01*
X94724818Y-79272070D01*
X94722611Y-79268873D01*
X94704372Y-79242449D01*
X94698059Y-79223308D01*
X94688190Y-79212168D01*
X94671209Y-79187565D01*
X94667458Y-79180418D01*
X94648631Y-79161694D01*
X94630996Y-79136146D01*
X94628183Y-79132071D01*
X94628182Y-79132070D01*
X94601241Y-79108202D01*
X94590529Y-79091126D01*
X94578285Y-79082674D01*
X94555909Y-79062850D01*
X94550563Y-79056816D01*
X94527794Y-79043134D01*
X94500856Y-79019269D01*
X94500851Y-79019265D01*
X94468981Y-79002538D01*
X94454496Y-78988522D01*
X94440579Y-78983244D01*
X94414109Y-78969351D01*
X94407471Y-78964769D01*
X94382095Y-78956937D01*
X94350225Y-78940210D01*
X94350224Y-78940209D01*
X94350223Y-78940209D01*
X94315277Y-78931596D01*
X94297850Y-78921449D01*
X94283074Y-78919655D01*
X94254050Y-78912502D01*
X94246511Y-78909643D01*
X94220002Y-78908112D01*
X94185061Y-78899500D01*
X94185056Y-78899500D01*
X94149072Y-78899500D01*
X94129734Y-78893821D01*
X94114945Y-78895617D01*
X94085060Y-78895617D01*
X94077028Y-78894642D01*
X94050929Y-78899500D01*
X94014944Y-78899500D01*
X93979995Y-78908113D01*
X93959858Y-78907226D01*
X93945952Y-78912501D01*
X93916924Y-78919655D01*
X93908918Y-78920626D01*
X93884722Y-78931595D01*
X93849781Y-78940207D01*
X93849774Y-78940210D01*
X93817901Y-78956938D01*
X93798133Y-78960897D01*
X93785884Y-78969353D01*
X93759420Y-78983243D01*
X93751874Y-78986104D01*
X93731019Y-79002537D01*
X93699152Y-79019263D01*
X93699148Y-79019266D01*
X93672200Y-79043139D01*
X93653954Y-79051714D01*
X93644087Y-79062852D01*
X93621713Y-79082674D01*
X93615078Y-79087253D01*
X93598761Y-79108199D01*
X93571817Y-79132070D01*
X93551366Y-79161698D01*
X93535704Y-79174389D01*
X93528788Y-79187567D01*
X93511809Y-79212166D01*
X93506458Y-79218205D01*
X93495630Y-79242444D01*
X93475184Y-79272065D01*
X93475182Y-79272069D01*
X93462416Y-79305729D01*
X93450245Y-79321801D01*
X93446683Y-79336254D01*
X93436084Y-79364202D01*
X93432338Y-79371339D01*
X93427624Y-79397470D01*
X93414860Y-79431126D01*
X93410521Y-79466858D01*
X93402552Y-79485372D01*
X93402552Y-79500263D01*
X93398949Y-79529936D01*
X93397015Y-79537781D01*
X93398692Y-79564268D01*
X93394355Y-79599995D01*
X93394355Y-79600003D01*
X92331992Y-79600003D01*
X92334773Y-77000003D01*
X93394355Y-77000003D01*
X93398692Y-77035730D01*
X93395386Y-77055607D01*
X93398949Y-77070062D01*
X93402552Y-77099735D01*
X93402552Y-77107815D01*
X93410521Y-77133142D01*
X93414859Y-77168870D01*
X93414861Y-77168878D01*
X93427623Y-77202528D01*
X93429171Y-77222624D01*
X93436082Y-77235792D01*
X93446682Y-77263742D01*
X93448613Y-77271579D01*
X93462417Y-77294271D01*
X93464400Y-77299500D01*
X93475182Y-77327931D01*
X93475184Y-77327934D01*
X93495628Y-77357553D01*
X93501938Y-77376689D01*
X93511808Y-77387830D01*
X93528789Y-77412431D01*
X93532543Y-77419584D01*
X93551367Y-77438304D01*
X93571813Y-77467925D01*
X93571814Y-77467926D01*
X93571816Y-77467928D01*
X93571817Y-77467929D01*
X93585489Y-77480041D01*
X93598757Y-77491796D01*
X93609466Y-77508869D01*
X93621713Y-77517323D01*
X93644088Y-77537147D01*
X93649438Y-77543186D01*
X93672204Y-77556864D01*
X93699145Y-77580732D01*
X93699151Y-77580736D01*
X93731011Y-77597457D01*
X93745499Y-77611475D01*
X93759418Y-77616754D01*
X93785888Y-77630647D01*
X93792533Y-77635234D01*
X93817906Y-77643063D01*
X93849775Y-77659790D01*
X93884714Y-77668401D01*
X93902128Y-77678540D01*
X93916911Y-77680336D01*
X93945932Y-77687490D01*
X93953496Y-77690358D01*
X93980003Y-77691887D01*
X94014941Y-77700499D01*
X94014942Y-77700500D01*
X94050937Y-77700500D01*
X94070285Y-77706181D01*
X94085049Y-77704388D01*
X94114954Y-77704388D01*
X94122950Y-77705359D01*
X94149063Y-77700500D01*
X94185058Y-77700500D01*
X94185060Y-77700499D01*
X94219994Y-77691889D01*
X94240131Y-77692774D01*
X94254064Y-77687490D01*
X94283088Y-77680335D01*
X94291113Y-77679360D01*
X94315280Y-77668403D01*
X94350225Y-77659790D01*
X94382089Y-77643065D01*
X94401855Y-77639105D01*
X94414112Y-77630645D01*
X94440582Y-77616753D01*
X94448133Y-77613888D01*
X94468985Y-77597459D01*
X94500852Y-77580734D01*
X94527792Y-77556866D01*
X94546037Y-77548290D01*
X94555907Y-77537150D01*
X94578285Y-77517324D01*
X94584928Y-77512738D01*
X94601243Y-77491795D01*
X94628183Y-77467929D01*
X94648629Y-77438306D01*
X94664290Y-77425614D01*
X94671209Y-77412432D01*
X94688192Y-77387827D01*
X94693546Y-77381783D01*
X94704372Y-77357549D01*
X94724818Y-77327930D01*
X94737580Y-77294278D01*
X94749751Y-77278203D01*
X94753314Y-77263747D01*
X94763916Y-77235791D01*
X94767664Y-77228649D01*
X94772378Y-77202522D01*
X94785140Y-77168872D01*
X94792886Y-77105072D01*
X94794229Y-77097743D01*
X94797448Y-77084686D01*
X94797448Y-77084679D01*
X94798012Y-77082392D01*
X94798020Y-77082353D01*
X94802982Y-77062217D01*
X94801307Y-77035724D01*
X94805645Y-77000000D01*
X94801306Y-76964272D01*
X94804612Y-76944391D01*
X94798005Y-76917584D01*
X94797999Y-76917551D01*
X94796567Y-76911740D01*
X94794232Y-76902266D01*
X94792885Y-76894915D01*
X94785140Y-76831128D01*
X94772376Y-76797474D01*
X94770828Y-76777376D01*
X94763916Y-76764207D01*
X94753314Y-76736252D01*
X94751382Y-76728415D01*
X94737580Y-76705722D01*
X94724818Y-76672070D01*
X94704372Y-76642449D01*
X94698059Y-76623308D01*
X94688190Y-76612168D01*
X94671209Y-76587565D01*
X94667458Y-76580418D01*
X94648631Y-76561694D01*
X94628182Y-76532070D01*
X94601241Y-76508202D01*
X94590529Y-76491126D01*
X94578285Y-76482674D01*
X94555909Y-76462850D01*
X94550563Y-76456816D01*
X94527794Y-76443134D01*
X94500856Y-76419269D01*
X94500851Y-76419265D01*
X94468981Y-76402538D01*
X94454496Y-76388522D01*
X94440579Y-76383244D01*
X94414109Y-76369351D01*
X94407471Y-76364769D01*
X94382095Y-76356937D01*
X94350225Y-76340210D01*
X94350224Y-76340209D01*
X94350223Y-76340209D01*
X94315277Y-76331596D01*
X94297850Y-76321449D01*
X94283074Y-76319655D01*
X94254050Y-76312502D01*
X94246511Y-76309643D01*
X94220002Y-76308112D01*
X94185061Y-76299500D01*
X94185056Y-76299500D01*
X94149072Y-76299500D01*
X94129734Y-76293821D01*
X94114945Y-76295617D01*
X94085060Y-76295617D01*
X94077028Y-76294642D01*
X94050929Y-76299500D01*
X94014944Y-76299500D01*
X93979995Y-76308113D01*
X93959858Y-76307226D01*
X93945952Y-76312501D01*
X93916924Y-76319655D01*
X93908918Y-76320626D01*
X93884722Y-76331595D01*
X93849781Y-76340207D01*
X93849774Y-76340210D01*
X93817901Y-76356938D01*
X93798133Y-76360897D01*
X93785884Y-76369353D01*
X93759420Y-76383243D01*
X93751874Y-76386104D01*
X93731019Y-76402537D01*
X93699152Y-76419263D01*
X93699148Y-76419266D01*
X93672200Y-76443139D01*
X93653954Y-76451714D01*
X93644087Y-76462852D01*
X93621713Y-76482674D01*
X93615078Y-76487253D01*
X93598761Y-76508199D01*
X93571817Y-76532070D01*
X93551366Y-76561698D01*
X93535704Y-76574389D01*
X93528788Y-76587567D01*
X93511809Y-76612166D01*
X93506458Y-76618205D01*
X93495630Y-76642444D01*
X93475184Y-76672065D01*
X93475182Y-76672069D01*
X93462416Y-76705729D01*
X93450245Y-76721801D01*
X93446683Y-76736254D01*
X93436084Y-76764202D01*
X93432338Y-76771339D01*
X93427624Y-76797470D01*
X93414860Y-76831126D01*
X93410521Y-76866858D01*
X93402552Y-76885372D01*
X93402552Y-76900263D01*
X93398949Y-76929936D01*
X93397015Y-76937781D01*
X93398692Y-76964268D01*
X93394355Y-76999995D01*
X93394355Y-77000003D01*
X92334773Y-77000003D01*
X92339159Y-72900003D01*
X93994355Y-72900003D01*
X93998692Y-72935730D01*
X93995386Y-72955607D01*
X93998949Y-72970062D01*
X94002552Y-72999735D01*
X94002552Y-73007815D01*
X94010521Y-73033142D01*
X94014859Y-73068870D01*
X94014861Y-73068878D01*
X94027623Y-73102528D01*
X94029171Y-73122624D01*
X94036082Y-73135792D01*
X94046682Y-73163742D01*
X94048613Y-73171579D01*
X94062417Y-73194271D01*
X94062839Y-73195383D01*
X94075182Y-73227931D01*
X94075184Y-73227934D01*
X94095628Y-73257553D01*
X94101938Y-73276689D01*
X94111808Y-73287830D01*
X94128789Y-73312431D01*
X94132543Y-73319584D01*
X94151367Y-73338304D01*
X94171813Y-73367925D01*
X94171814Y-73367926D01*
X94171816Y-73367928D01*
X94171817Y-73367929D01*
X94185489Y-73380041D01*
X94198757Y-73391796D01*
X94209466Y-73408869D01*
X94221713Y-73417323D01*
X94244088Y-73437147D01*
X94249438Y-73443186D01*
X94272204Y-73456864D01*
X94299145Y-73480732D01*
X94299151Y-73480736D01*
X94331011Y-73497457D01*
X94345499Y-73511475D01*
X94359418Y-73516754D01*
X94385888Y-73530647D01*
X94392533Y-73535234D01*
X94417906Y-73543063D01*
X94449775Y-73559790D01*
X94484714Y-73568401D01*
X94502128Y-73578540D01*
X94516911Y-73580336D01*
X94545932Y-73587490D01*
X94553496Y-73590358D01*
X94580003Y-73591887D01*
X94614941Y-73600499D01*
X94614942Y-73600500D01*
X94650937Y-73600500D01*
X94670285Y-73606181D01*
X94685049Y-73604388D01*
X94714954Y-73604388D01*
X94722950Y-73605359D01*
X94749063Y-73600500D01*
X94785058Y-73600500D01*
X94785060Y-73600499D01*
X94819994Y-73591889D01*
X94840131Y-73592774D01*
X94854064Y-73587490D01*
X94883088Y-73580335D01*
X94891113Y-73579360D01*
X94915280Y-73568403D01*
X94950225Y-73559790D01*
X94982089Y-73543065D01*
X95001855Y-73539105D01*
X95014112Y-73530645D01*
X95040582Y-73516753D01*
X95048133Y-73513888D01*
X95068985Y-73497459D01*
X95100852Y-73480734D01*
X95127792Y-73456866D01*
X95146037Y-73448290D01*
X95155907Y-73437150D01*
X95178285Y-73417324D01*
X95184928Y-73412738D01*
X95201243Y-73391795D01*
X95228183Y-73367929D01*
X95248629Y-73338306D01*
X95264290Y-73325614D01*
X95271209Y-73312432D01*
X95288192Y-73287827D01*
X95293546Y-73281783D01*
X95304372Y-73257549D01*
X95324818Y-73227930D01*
X95337580Y-73194278D01*
X95349751Y-73178203D01*
X95353314Y-73163747D01*
X95363916Y-73135791D01*
X95367664Y-73128649D01*
X95372378Y-73102522D01*
X95378050Y-73087567D01*
X95385140Y-73068872D01*
X95392886Y-73005072D01*
X95394229Y-72997743D01*
X95397448Y-72984686D01*
X95397448Y-72984679D01*
X95398012Y-72982392D01*
X95398020Y-72982353D01*
X95402982Y-72962217D01*
X95401307Y-72935724D01*
X95405645Y-72900000D01*
X95401306Y-72864272D01*
X95404612Y-72844391D01*
X95398005Y-72817584D01*
X95397999Y-72817551D01*
X95397437Y-72815271D01*
X95394232Y-72802266D01*
X95392885Y-72794915D01*
X95385140Y-72731128D01*
X95372376Y-72697474D01*
X95370828Y-72677376D01*
X95363916Y-72664207D01*
X95353314Y-72636252D01*
X95351382Y-72628415D01*
X95337580Y-72605722D01*
X95327825Y-72580000D01*
X97144341Y-72580000D01*
X97164936Y-72815403D01*
X97164938Y-72815413D01*
X97226094Y-73043655D01*
X97226096Y-73043659D01*
X97226097Y-73043663D01*
X97298765Y-73199500D01*
X97325965Y-73257830D01*
X97325967Y-73257834D01*
X97419766Y-73391792D01*
X97461505Y-73451401D01*
X97628599Y-73618495D01*
X97698444Y-73667401D01*
X97822165Y-73754032D01*
X97822167Y-73754033D01*
X97822170Y-73754035D01*
X98036337Y-73853903D01*
X98264592Y-73915063D01*
X98452918Y-73931539D01*
X98499999Y-73935659D01*
X98500000Y-73935659D01*
X98500001Y-73935659D01*
X98539234Y-73932226D01*
X98735408Y-73915063D01*
X98963663Y-73853903D01*
X99044627Y-73816148D01*
X99113702Y-73805657D01*
X99177486Y-73834176D01*
X99214961Y-73890212D01*
X99272819Y-74068280D01*
X99272821Y-74068284D01*
X99367467Y-74232216D01*
X99426585Y-74297873D01*
X99494129Y-74372888D01*
X99647265Y-74484148D01*
X99647270Y-74484151D01*
X99820192Y-74561142D01*
X99820197Y-74561144D01*
X100005354Y-74600500D01*
X100005355Y-74600500D01*
X100194644Y-74600500D01*
X100194646Y-74600500D01*
X100379803Y-74561144D01*
X100472049Y-74520072D01*
X100541297Y-74510787D01*
X100604574Y-74540415D01*
X100636161Y-74588242D01*
X100637134Y-74587789D01*
X100640184Y-74594330D01*
X100640185Y-74594332D01*
X100640186Y-74594334D01*
X100732288Y-74743656D01*
X100856344Y-74867712D01*
X101005666Y-74959814D01*
X101172203Y-75014999D01*
X101274991Y-75025500D01*
X102325008Y-75025499D01*
X102325016Y-75025498D01*
X102325019Y-75025498D01*
X102389765Y-75018884D01*
X102427797Y-75014999D01*
X102594334Y-74959814D01*
X102743656Y-74867712D01*
X102867712Y-74743656D01*
X102942809Y-74621902D01*
X102994757Y-74575179D01*
X103048348Y-74563000D01*
X103679755Y-74563000D01*
X103695370Y-74564724D01*
X103695397Y-74564439D01*
X103703161Y-74565172D01*
X103703162Y-74565171D01*
X103703167Y-74565173D01*
X103719523Y-74564658D01*
X103749192Y-74567306D01*
X103905354Y-74600500D01*
X103905355Y-74600500D01*
X104094644Y-74600500D01*
X104094646Y-74600500D01*
X104279803Y-74561144D01*
X104452730Y-74484151D01*
X104605871Y-74372888D01*
X104732533Y-74232216D01*
X104827179Y-74068284D01*
X104827342Y-74067784D01*
X104845227Y-74012738D01*
X104862733Y-73958860D01*
X104894218Y-73912814D01*
X105064698Y-73912814D01*
X105086850Y-73933145D01*
X105104612Y-74000719D01*
X105103984Y-74010139D01*
X105094540Y-74099999D01*
X105094540Y-74100000D01*
X105114326Y-74288256D01*
X105114327Y-74288259D01*
X105172818Y-74468277D01*
X105172821Y-74468284D01*
X105267467Y-74632216D01*
X105363487Y-74738857D01*
X105394129Y-74772888D01*
X105547265Y-74884148D01*
X105547270Y-74884151D01*
X105720192Y-74961142D01*
X105720197Y-74961144D01*
X105905354Y-75000500D01*
X105905355Y-75000500D01*
X106094644Y-75000500D01*
X106094646Y-75000500D01*
X106279803Y-74961144D01*
X106452730Y-74884151D01*
X106605871Y-74772888D01*
X106732533Y-74632216D01*
X106827179Y-74468284D01*
X106885674Y-74288256D01*
X106905460Y-74100000D01*
X106885674Y-73911744D01*
X106827179Y-73731716D01*
X106732533Y-73567784D01*
X106605871Y-73427112D01*
X106592757Y-73417584D01*
X106452734Y-73315851D01*
X106452729Y-73315848D01*
X106279807Y-73238857D01*
X106279802Y-73238855D01*
X106119745Y-73204835D01*
X106094646Y-73199500D01*
X105905354Y-73199500D01*
X105880255Y-73204835D01*
X105720197Y-73238855D01*
X105720192Y-73238857D01*
X105547270Y-73315848D01*
X105547265Y-73315851D01*
X105394129Y-73427111D01*
X105267466Y-73567785D01*
X105172821Y-73731715D01*
X105172818Y-73731722D01*
X105137267Y-73841138D01*
X105097829Y-73898814D01*
X105064698Y-73912814D01*
X104894218Y-73912814D01*
X104902169Y-73901186D01*
X104935300Y-73887183D01*
X104913149Y-73866853D01*
X104895387Y-73799279D01*
X104896013Y-73789878D01*
X104905460Y-73700000D01*
X104885674Y-73511744D01*
X104827179Y-73331716D01*
X104732533Y-73167784D01*
X104605871Y-73027112D01*
X104595861Y-73019839D01*
X104452734Y-72915851D01*
X104452729Y-72915848D01*
X104279807Y-72838857D01*
X104279802Y-72838855D01*
X104123344Y-72805600D01*
X104094646Y-72799500D01*
X103905354Y-72799500D01*
X103892341Y-72802266D01*
X103720197Y-72838855D01*
X103720192Y-72838857D01*
X103547270Y-72915848D01*
X103547265Y-72915851D01*
X103394129Y-73027111D01*
X103267467Y-73167783D01*
X103251533Y-73195383D01*
X103219999Y-73250000D01*
X103169434Y-73298215D01*
X103112613Y-73312000D01*
X103048348Y-73312000D01*
X102981309Y-73292315D01*
X102942809Y-73253097D01*
X102867712Y-73131344D01*
X102743656Y-73007288D01*
X102740819Y-73005538D01*
X102739283Y-73003830D01*
X102737989Y-73002807D01*
X102738163Y-73002585D01*
X102694096Y-72953594D01*
X102682872Y-72884632D01*
X102710713Y-72820549D01*
X102740817Y-72794462D01*
X102743656Y-72792712D01*
X102867712Y-72668656D01*
X102959814Y-72519334D01*
X103014999Y-72352797D01*
X103025500Y-72250009D01*
X103025499Y-71474992D01*
X103023748Y-71457855D01*
X103014999Y-71372203D01*
X103014998Y-71372200D01*
X103012232Y-71363854D01*
X102959814Y-71205666D01*
X102919223Y-71139857D01*
X102900784Y-71072467D01*
X102921707Y-71005804D01*
X102975348Y-70961034D01*
X103044679Y-70952373D01*
X103089856Y-70969222D01*
X103155666Y-71009814D01*
X103322203Y-71064999D01*
X103424991Y-71075500D01*
X104200008Y-71075499D01*
X104200016Y-71075498D01*
X104200019Y-71075498D01*
X104264873Y-71068873D01*
X104302797Y-71064999D01*
X104469334Y-71009814D01*
X104618656Y-70917712D01*
X104742712Y-70793656D01*
X104834814Y-70644334D01*
X104889999Y-70477797D01*
X104900500Y-70375009D01*
X104900499Y-69925231D01*
X104920183Y-69858194D01*
X104972987Y-69812439D01*
X105042146Y-69802495D01*
X105105702Y-69831520D01*
X105109382Y-69834840D01*
X105114214Y-69839377D01*
X105164651Y-69886741D01*
X105185530Y-69907620D01*
X105191004Y-69911866D01*
X105195442Y-69915656D01*
X105229418Y-69947562D01*
X105229422Y-69947564D01*
X105246973Y-69957213D01*
X105263231Y-69967892D01*
X105279064Y-69980174D01*
X105301015Y-69989672D01*
X105321837Y-69998683D01*
X105327081Y-70001252D01*
X105367908Y-70023697D01*
X105387312Y-70028679D01*
X105405710Y-70034978D01*
X105424105Y-70042938D01*
X105470129Y-70050226D01*
X105475832Y-70051407D01*
X105520981Y-70063000D01*
X105541016Y-70063000D01*
X105560413Y-70064526D01*
X105580196Y-70067660D01*
X105626583Y-70063275D01*
X105632422Y-70063000D01*
X105951652Y-70063000D01*
X106018691Y-70082685D01*
X106057189Y-70121901D01*
X106132288Y-70243656D01*
X106256344Y-70367712D01*
X106405666Y-70459814D01*
X106486739Y-70486679D01*
X106544183Y-70526450D01*
X106571006Y-70590966D01*
X106558691Y-70659742D01*
X106539884Y-70687356D01*
X106467466Y-70767784D01*
X106372821Y-70931715D01*
X106372818Y-70931722D01*
X106314327Y-71111740D01*
X106314326Y-71111744D01*
X106299808Y-71249878D01*
X106294593Y-71299500D01*
X106294540Y-71300000D01*
X106314326Y-71488256D01*
X106314327Y-71488259D01*
X106372818Y-71668277D01*
X106372821Y-71668284D01*
X106467467Y-71832216D01*
X106557063Y-71931722D01*
X106594129Y-71972888D01*
X106747265Y-72084148D01*
X106747270Y-72084151D01*
X106920192Y-72161142D01*
X106920197Y-72161144D01*
X107105354Y-72200500D01*
X107105355Y-72200500D01*
X107294644Y-72200500D01*
X107294646Y-72200500D01*
X107479803Y-72161144D01*
X107652730Y-72084151D01*
X107768554Y-72000000D01*
X108694540Y-72000000D01*
X108714326Y-72188256D01*
X108714327Y-72188259D01*
X108772818Y-72368277D01*
X108772821Y-72368284D01*
X108867467Y-72532216D01*
X108990319Y-72668657D01*
X108994129Y-72672888D01*
X109147265Y-72784148D01*
X109147270Y-72784151D01*
X109320192Y-72861142D01*
X109320197Y-72861144D01*
X109505354Y-72900500D01*
X109505355Y-72900500D01*
X109694644Y-72900500D01*
X109694646Y-72900500D01*
X109879803Y-72861144D01*
X110052730Y-72784151D01*
X110205871Y-72672888D01*
X110332533Y-72532216D01*
X110427179Y-72368284D01*
X110485674Y-72188256D01*
X110505460Y-72000000D01*
X110485674Y-71811744D01*
X110429183Y-71637883D01*
X110427181Y-71631722D01*
X110427180Y-71631721D01*
X110427179Y-71631716D01*
X110332533Y-71467784D01*
X110205871Y-71327112D01*
X110205870Y-71327111D01*
X110052734Y-71215851D01*
X110052729Y-71215848D01*
X109879807Y-71138857D01*
X109879802Y-71138855D01*
X109726845Y-71106344D01*
X109694646Y-71099500D01*
X109505354Y-71099500D01*
X109473155Y-71106344D01*
X109320197Y-71138855D01*
X109320192Y-71138857D01*
X109147270Y-71215848D01*
X109147265Y-71215851D01*
X108994129Y-71327111D01*
X108867466Y-71467785D01*
X108772821Y-71631715D01*
X108772818Y-71631722D01*
X108728609Y-71767785D01*
X108714326Y-71811744D01*
X108694540Y-72000000D01*
X107768554Y-72000000D01*
X107805871Y-71972888D01*
X107932533Y-71832216D01*
X108027179Y-71668284D01*
X108085674Y-71488256D01*
X108105460Y-71300000D01*
X108085674Y-71111744D01*
X108027179Y-70931716D01*
X107932533Y-70767784D01*
X107860114Y-70687355D01*
X107829885Y-70624365D01*
X107838510Y-70555030D01*
X107883251Y-70501364D01*
X107913257Y-70486680D01*
X107994334Y-70459814D01*
X108143656Y-70367712D01*
X108267712Y-70243656D01*
X108359814Y-70094334D01*
X108414999Y-69927797D01*
X108425500Y-69825009D01*
X108425499Y-69049992D01*
X108414999Y-68947203D01*
X108359814Y-68780666D01*
X108267712Y-68631344D01*
X108143656Y-68507288D01*
X108140819Y-68505538D01*
X108139283Y-68503830D01*
X108137989Y-68502807D01*
X108138163Y-68502585D01*
X108094096Y-68453594D01*
X108082872Y-68384632D01*
X108110713Y-68320549D01*
X108140817Y-68294462D01*
X108143656Y-68292712D01*
X108199549Y-68236819D01*
X108260872Y-68203334D01*
X108287230Y-68200500D01*
X108394644Y-68200500D01*
X108394646Y-68200500D01*
X108579803Y-68161144D01*
X108752730Y-68084151D01*
X108905871Y-67972888D01*
X109032533Y-67832216D01*
X109127179Y-67668284D01*
X109185674Y-67488256D01*
X109205460Y-67300000D01*
X109185674Y-67111744D01*
X109127179Y-66931716D01*
X109032533Y-66767784D01*
X108905871Y-66627112D01*
X108896944Y-66620626D01*
X108752734Y-66515851D01*
X108752729Y-66515848D01*
X108579807Y-66438857D01*
X108579802Y-66438855D01*
X108425485Y-66406055D01*
X108394646Y-66399500D01*
X108205354Y-66399500D01*
X108205352Y-66399500D01*
X108168526Y-66407327D01*
X108098859Y-66402009D01*
X108077651Y-66391575D01*
X107994340Y-66340190D01*
X107994334Y-66340186D01*
X107827797Y-66285001D01*
X107827795Y-66285000D01*
X107725016Y-66274500D01*
X107725009Y-66274500D01*
X106854198Y-66274500D01*
X106787159Y-66254815D01*
X106766517Y-66238181D01*
X106676893Y-66148557D01*
X106667070Y-66136295D01*
X106666849Y-66136479D01*
X106661876Y-66130468D01*
X106643249Y-66112976D01*
X106611454Y-66083118D01*
X106601009Y-66072673D01*
X106590565Y-66062228D01*
X106585076Y-66057970D01*
X106580651Y-66054192D01*
X106546672Y-66022283D01*
X106546670Y-66022281D01*
X106546667Y-66022280D01*
X106529119Y-66012633D01*
X106512853Y-66001949D01*
X106497023Y-65989670D01*
X106454258Y-65971163D01*
X106449012Y-65968593D01*
X106408183Y-65946148D01*
X106408182Y-65946147D01*
X106388783Y-65941167D01*
X106370371Y-65934863D01*
X106351988Y-65926907D01*
X106351982Y-65926905D01*
X106305964Y-65919617D01*
X106300242Y-65918432D01*
X106255111Y-65906845D01*
X106255109Y-65906845D01*
X106235074Y-65906845D01*
X106215676Y-65905318D01*
X106208252Y-65904142D01*
X106195895Y-65902185D01*
X106195894Y-65902185D01*
X106149506Y-65906570D01*
X106143668Y-65906845D01*
X105017267Y-65906845D01*
X104950228Y-65887160D01*
X104904473Y-65834356D01*
X104894529Y-65765198D01*
X104923554Y-65701642D01*
X104978261Y-65665139D01*
X104994334Y-65659814D01*
X105143656Y-65567712D01*
X105267712Y-65443656D01*
X105359814Y-65294334D01*
X105387595Y-65210495D01*
X105427368Y-65153051D01*
X105491884Y-65126228D01*
X105505301Y-65125500D01*
X106117257Y-65125500D01*
X106132877Y-65127224D01*
X106132904Y-65126939D01*
X106140660Y-65127671D01*
X106140667Y-65127673D01*
X106209814Y-65125500D01*
X106239350Y-65125500D01*
X106246228Y-65124630D01*
X106252041Y-65124172D01*
X106298627Y-65122709D01*
X106317869Y-65117117D01*
X106336912Y-65113174D01*
X106356792Y-65110664D01*
X106360470Y-65109207D01*
X106406116Y-65100500D01*
X106594644Y-65100500D01*
X106594646Y-65100500D01*
X106779803Y-65061144D01*
X106952730Y-64984151D01*
X107105871Y-64872888D01*
X107232533Y-64732216D01*
X107327179Y-64568284D01*
X107354343Y-64484681D01*
X107393780Y-64427006D01*
X107458138Y-64399807D01*
X107526985Y-64411721D01*
X107578461Y-64458965D01*
X107595594Y-64510036D01*
X107614326Y-64688256D01*
X107614327Y-64688259D01*
X107672818Y-64868277D01*
X107672821Y-64868284D01*
X107767467Y-65032216D01*
X107862995Y-65138310D01*
X107894129Y-65172888D01*
X108047265Y-65284148D01*
X108047270Y-65284151D01*
X108220192Y-65361142D01*
X108220197Y-65361144D01*
X108405354Y-65400500D01*
X108405355Y-65400500D01*
X108594644Y-65400500D01*
X108594646Y-65400500D01*
X108779803Y-65361144D01*
X108952730Y-65284151D01*
X109105871Y-65172888D01*
X109232533Y-65032216D01*
X109327179Y-64868284D01*
X109385674Y-64688256D01*
X109405460Y-64500000D01*
X109385674Y-64311744D01*
X109327179Y-64131716D01*
X109251133Y-64000000D01*
X120694540Y-64000000D01*
X120714326Y-64188256D01*
X120714327Y-64188259D01*
X120772818Y-64368277D01*
X120772821Y-64368284D01*
X120867467Y-64532216D01*
X120989984Y-64668284D01*
X120994129Y-64672888D01*
X121147265Y-64784148D01*
X121147270Y-64784151D01*
X121320192Y-64861142D01*
X121320197Y-64861144D01*
X121505354Y-64900500D01*
X121505355Y-64900500D01*
X121694644Y-64900500D01*
X121694646Y-64900500D01*
X121879803Y-64861144D01*
X122052730Y-64784151D01*
X122205871Y-64672888D01*
X122332533Y-64532216D01*
X122427179Y-64368284D01*
X122461811Y-64261698D01*
X122461979Y-64261182D01*
X122501417Y-64203506D01*
X122565775Y-64176308D01*
X122579910Y-64175500D01*
X125469699Y-64175500D01*
X125536738Y-64195185D01*
X125582493Y-64247989D01*
X125587403Y-64260492D01*
X125594006Y-64280418D01*
X125615185Y-64344331D01*
X125615187Y-64344336D01*
X125634055Y-64374926D01*
X125707288Y-64493656D01*
X125831344Y-64617712D01*
X125980666Y-64709814D01*
X126147203Y-64764999D01*
X126249991Y-64775500D01*
X127025008Y-64775499D01*
X127025016Y-64775498D01*
X127025019Y-64775498D01*
X127134533Y-64764311D01*
X127134743Y-64766371D01*
X127194519Y-64770844D01*
X127250315Y-64812898D01*
X127274517Y-64878442D01*
X127274805Y-64886883D01*
X127274805Y-65002489D01*
X127255120Y-65069528D01*
X127202316Y-65115283D01*
X127138208Y-65125847D01*
X127125031Y-65124501D01*
X127125012Y-65124500D01*
X127125009Y-65124500D01*
X127125003Y-65124500D01*
X126349998Y-65124500D01*
X126349980Y-65124501D01*
X126247203Y-65135000D01*
X126247200Y-65135001D01*
X126080668Y-65190185D01*
X126080663Y-65190187D01*
X125931342Y-65282289D01*
X125807289Y-65406342D01*
X125715187Y-65555663D01*
X125715185Y-65555666D01*
X125715186Y-65555666D01*
X125660001Y-65722203D01*
X125660001Y-65722204D01*
X125660000Y-65722204D01*
X125649500Y-65824983D01*
X125649500Y-66875001D01*
X125649501Y-66875019D01*
X125660000Y-66977796D01*
X125660001Y-66977799D01*
X125715185Y-67144331D01*
X125715187Y-67144336D01*
X125729079Y-67166858D01*
X125807288Y-67293656D01*
X125931344Y-67417712D01*
X126053097Y-67492809D01*
X126099821Y-67544755D01*
X126112000Y-67598347D01*
X126112000Y-67796226D01*
X126092315Y-67863265D01*
X126080150Y-67879198D01*
X126067466Y-67893284D01*
X125972821Y-68057215D01*
X125972819Y-68057219D01*
X125944799Y-68143457D01*
X125905361Y-68201132D01*
X125841002Y-68228330D01*
X125776436Y-68218419D01*
X125764940Y-68213301D01*
X125764935Y-68213299D01*
X125598061Y-68177830D01*
X125579779Y-68173944D01*
X125390487Y-68173944D01*
X125374336Y-68177377D01*
X125205330Y-68213299D01*
X125205325Y-68213301D01*
X125032403Y-68290292D01*
X125032398Y-68290295D01*
X124879262Y-68401555D01*
X124752599Y-68542229D01*
X124657954Y-68706159D01*
X124657951Y-68706166D01*
X124606030Y-68865965D01*
X124599459Y-68886188D01*
X124579673Y-69074444D01*
X124599459Y-69262700D01*
X124599460Y-69262703D01*
X124657951Y-69442721D01*
X124657954Y-69442728D01*
X124752600Y-69606660D01*
X124869287Y-69736254D01*
X124879262Y-69747332D01*
X125032398Y-69858592D01*
X125032403Y-69858595D01*
X125205325Y-69935586D01*
X125205330Y-69935588D01*
X125390487Y-69974944D01*
X125390488Y-69974944D01*
X125579775Y-69974944D01*
X125579779Y-69974944D01*
X125599720Y-69970705D01*
X125669384Y-69976020D01*
X125725118Y-70018156D01*
X125749225Y-70083735D01*
X125749500Y-70091994D01*
X125749500Y-70275000D01*
X125749501Y-70275019D01*
X125760000Y-70377796D01*
X125760001Y-70377799D01*
X125815185Y-70544331D01*
X125815187Y-70544336D01*
X125837639Y-70580736D01*
X125907288Y-70693656D01*
X126031344Y-70817712D01*
X126180666Y-70909814D01*
X126225429Y-70924647D01*
X126282873Y-70964418D01*
X126309697Y-71028933D01*
X126309746Y-71055312D01*
X126294540Y-71199999D01*
X126294540Y-71200000D01*
X126314326Y-71388256D01*
X126314327Y-71388259D01*
X126372818Y-71568277D01*
X126372821Y-71568284D01*
X126467467Y-71732216D01*
X126557063Y-71831722D01*
X126594129Y-71872888D01*
X126747265Y-71984148D01*
X126747270Y-71984151D01*
X126920192Y-72061142D01*
X126920197Y-72061144D01*
X127105354Y-72100500D01*
X127105355Y-72100500D01*
X127294644Y-72100500D01*
X127294646Y-72100500D01*
X127479803Y-72061144D01*
X127652730Y-71984151D01*
X127805871Y-71872888D01*
X127932533Y-71732216D01*
X128027179Y-71568284D01*
X128085674Y-71388256D01*
X128103321Y-71220345D01*
X128129905Y-71155732D01*
X128138952Y-71145636D01*
X128291048Y-70993540D01*
X128352369Y-70960057D01*
X128417727Y-70963515D01*
X128422203Y-70964999D01*
X128524991Y-70975500D01*
X129165819Y-70975499D01*
X129232858Y-70995183D01*
X129278613Y-71047987D01*
X129288557Y-71117146D01*
X129271358Y-71164595D01*
X129215189Y-71255659D01*
X129215185Y-71255668D01*
X129195244Y-71315848D01*
X129160001Y-71422203D01*
X129160001Y-71422204D01*
X129160000Y-71422204D01*
X129149500Y-71524983D01*
X129149499Y-71524996D01*
X129149499Y-72140575D01*
X129129814Y-72207615D01*
X129113180Y-72228256D01*
X127127728Y-74213709D01*
X127066405Y-74247194D01*
X127040047Y-74250028D01*
X126980854Y-74250028D01*
X126948397Y-74256926D01*
X126795697Y-74289383D01*
X126795692Y-74289385D01*
X126622770Y-74366376D01*
X126622765Y-74366379D01*
X126469629Y-74477639D01*
X126342966Y-74618313D01*
X126248321Y-74782243D01*
X126248318Y-74782250D01*
X126189827Y-74962268D01*
X126189826Y-74962272D01*
X126170040Y-75150528D01*
X126189826Y-75338784D01*
X126189827Y-75338787D01*
X126248318Y-75518805D01*
X126248321Y-75518812D01*
X126342967Y-75682744D01*
X126459499Y-75812166D01*
X126469629Y-75823416D01*
X126622765Y-75934676D01*
X126622770Y-75934679D01*
X126795692Y-76011670D01*
X126795697Y-76011672D01*
X126980854Y-76051028D01*
X126980855Y-76051028D01*
X127170144Y-76051028D01*
X127170146Y-76051028D01*
X127355303Y-76011672D01*
X127528230Y-75934679D01*
X127681371Y-75823416D01*
X127808033Y-75682744D01*
X127902679Y-75518812D01*
X127961174Y-75338784D01*
X127978821Y-75170873D01*
X128005405Y-75106260D01*
X128014452Y-75096164D01*
X129798800Y-73311816D01*
X129860121Y-73278333D01*
X129886470Y-73275499D01*
X130625008Y-73275499D01*
X130625016Y-73275498D01*
X130625019Y-73275498D01*
X130681302Y-73269748D01*
X130727797Y-73264999D01*
X130894334Y-73209814D01*
X131043656Y-73117712D01*
X131167712Y-72993656D01*
X131169461Y-72990819D01*
X131171169Y-72989283D01*
X131172193Y-72987989D01*
X131172414Y-72988163D01*
X131221406Y-72944096D01*
X131290368Y-72932872D01*
X131354451Y-72960713D01*
X131380537Y-72990817D01*
X131382288Y-72993656D01*
X131506344Y-73117712D01*
X131655666Y-73209814D01*
X131822203Y-73264999D01*
X131924991Y-73275500D01*
X132163811Y-73275499D01*
X132230850Y-73295183D01*
X132276605Y-73347987D01*
X132286549Y-73417146D01*
X132268771Y-73461029D01*
X132270722Y-73462156D01*
X132172827Y-73631715D01*
X132172824Y-73631722D01*
X132114333Y-73811740D01*
X132114332Y-73811744D01*
X132094546Y-74000000D01*
X132114332Y-74188256D01*
X132114333Y-74188259D01*
X132172824Y-74368277D01*
X132172827Y-74368284D01*
X132267473Y-74532216D01*
X132394134Y-74672888D01*
X132394135Y-74672888D01*
X132547271Y-74784148D01*
X132547276Y-74784151D01*
X132720198Y-74861142D01*
X132720203Y-74861144D01*
X132905360Y-74900500D01*
X132905361Y-74900500D01*
X133094650Y-74900500D01*
X133094652Y-74900500D01*
X133279809Y-74861144D01*
X133452736Y-74784151D01*
X133605877Y-74672888D01*
X133732539Y-74532216D01*
X133827185Y-74368284D01*
X133885680Y-74188256D01*
X133905466Y-74000000D01*
X133885680Y-73811744D01*
X133827185Y-73631716D01*
X133732539Y-73467784D01*
X133605877Y-73327112D01*
X133605876Y-73327111D01*
X133452740Y-73215851D01*
X133452738Y-73215850D01*
X133309988Y-73152292D01*
X133256752Y-73107041D01*
X133236431Y-73040192D01*
X133254886Y-72973917D01*
X133283005Y-72928329D01*
X133334953Y-72881605D01*
X133403915Y-72870384D01*
X133440775Y-72882762D01*
X133441334Y-72881508D01*
X133447269Y-72884150D01*
X133447270Y-72884151D01*
X133481030Y-72899182D01*
X133620192Y-72961142D01*
X133620197Y-72961144D01*
X133805354Y-73000500D01*
X133805355Y-73000500D01*
X133994644Y-73000500D01*
X133994646Y-73000500D01*
X134179803Y-72961144D01*
X134352730Y-72884151D01*
X134505871Y-72772888D01*
X134632533Y-72632216D01*
X134727179Y-72468284D01*
X134785674Y-72288256D01*
X134805460Y-72100000D01*
X134785674Y-71911744D01*
X134731112Y-71743823D01*
X134727181Y-71731722D01*
X134727180Y-71731721D01*
X134727179Y-71731716D01*
X134632533Y-71567784D01*
X134505871Y-71427112D01*
X134499116Y-71422204D01*
X134352734Y-71315851D01*
X134352729Y-71315848D01*
X134179807Y-71238857D01*
X134179802Y-71238855D01*
X134021660Y-71205242D01*
X133994646Y-71199500D01*
X133805354Y-71199500D01*
X133778340Y-71205242D01*
X133620197Y-71238855D01*
X133487218Y-71298062D01*
X133417968Y-71307346D01*
X133354692Y-71277718D01*
X133331244Y-71249878D01*
X133242712Y-71106344D01*
X133118657Y-70982289D01*
X133118656Y-70982288D01*
X133003729Y-70911401D01*
X132969336Y-70890187D01*
X132969331Y-70890185D01*
X132939702Y-70880367D01*
X132802797Y-70835001D01*
X132802795Y-70835000D01*
X132700016Y-70824500D01*
X132598498Y-70824500D01*
X132531459Y-70804815D01*
X132485704Y-70752011D01*
X132475760Y-70682853D01*
X132504785Y-70619297D01*
X132524183Y-70601235D01*
X132582546Y-70557546D01*
X132668796Y-70442331D01*
X132719091Y-70307483D01*
X132725500Y-70247873D01*
X132725500Y-70000000D01*
X134094544Y-70000000D01*
X134114330Y-70188256D01*
X134114331Y-70188259D01*
X134172822Y-70368277D01*
X134172825Y-70368284D01*
X134267471Y-70532216D01*
X134386312Y-70664202D01*
X134394133Y-70672888D01*
X134547269Y-70784148D01*
X134547274Y-70784151D01*
X134720196Y-70861142D01*
X134720201Y-70861144D01*
X134905358Y-70900500D01*
X134905359Y-70900500D01*
X135094648Y-70900500D01*
X135094650Y-70900500D01*
X135279807Y-70861144D01*
X135452734Y-70784151D01*
X135605875Y-70672888D01*
X135732537Y-70532216D01*
X135827183Y-70368284D01*
X135885678Y-70188256D01*
X135905464Y-70000000D01*
X135885678Y-69811744D01*
X135827183Y-69631716D01*
X135732537Y-69467784D01*
X135605875Y-69327112D01*
X135596948Y-69320626D01*
X135452738Y-69215851D01*
X135452733Y-69215848D01*
X135279811Y-69138857D01*
X135279806Y-69138855D01*
X135134004Y-69107865D01*
X135094650Y-69099500D01*
X134905358Y-69099500D01*
X134872901Y-69106398D01*
X134720201Y-69138855D01*
X134720196Y-69138857D01*
X134547274Y-69215848D01*
X134547269Y-69215851D01*
X134394133Y-69327111D01*
X134267470Y-69467785D01*
X134172825Y-69631715D01*
X134172822Y-69631722D01*
X134116130Y-69806204D01*
X134114330Y-69811744D01*
X134098298Y-69964278D01*
X134094545Y-69999995D01*
X134094544Y-70000000D01*
X132725500Y-70000000D01*
X132725499Y-68652128D01*
X132719214Y-68593657D01*
X132719091Y-68592516D01*
X132668797Y-68457671D01*
X132668795Y-68457668D01*
X132606394Y-68374310D01*
X132581977Y-68308845D01*
X132596829Y-68240572D01*
X132606394Y-68225689D01*
X132668796Y-68142331D01*
X132719091Y-68007483D01*
X132725500Y-67947873D01*
X132725499Y-67100000D01*
X134594540Y-67100000D01*
X134614326Y-67288256D01*
X134614327Y-67288259D01*
X134672818Y-67468277D01*
X134672821Y-67468284D01*
X134767467Y-67632216D01*
X134871396Y-67747640D01*
X134894129Y-67772888D01*
X135047265Y-67884148D01*
X135047270Y-67884151D01*
X135220192Y-67961142D01*
X135220197Y-67961144D01*
X135405354Y-68000500D01*
X135405355Y-68000500D01*
X135594644Y-68000500D01*
X135594646Y-68000500D01*
X135779803Y-67961144D01*
X135850065Y-67929860D01*
X135919313Y-67920575D01*
X135982590Y-67950203D01*
X136019804Y-68009337D01*
X136024500Y-68043140D01*
X136024500Y-69097870D01*
X136024501Y-69097876D01*
X136030908Y-69157483D01*
X136081202Y-69292328D01*
X136081206Y-69292335D01*
X136167452Y-69407544D01*
X136167455Y-69407547D01*
X136282664Y-69493793D01*
X136282671Y-69493797D01*
X136327618Y-69510561D01*
X136417517Y-69544091D01*
X136477127Y-69550500D01*
X136528538Y-69550499D01*
X136595576Y-69570182D01*
X136641331Y-69622985D01*
X136651276Y-69692144D01*
X136646469Y-69712817D01*
X136616126Y-69806204D01*
X136614326Y-69811744D01*
X136594540Y-70000000D01*
X136614326Y-70188256D01*
X136614327Y-70188259D01*
X136672818Y-70368277D01*
X136672821Y-70368284D01*
X136767467Y-70532216D01*
X136886308Y-70664202D01*
X136894129Y-70672888D01*
X137007730Y-70755424D01*
X137050396Y-70810754D01*
X137056375Y-70880367D01*
X137023769Y-70942162D01*
X137011760Y-70953005D01*
X137006343Y-70957287D01*
X136960569Y-71003062D01*
X136899246Y-71036546D01*
X136829554Y-71031561D01*
X136822453Y-71028659D01*
X136679467Y-70964996D01*
X136679462Y-70964994D01*
X136525587Y-70932288D01*
X136494306Y-70925639D01*
X136305014Y-70925639D01*
X136273733Y-70932288D01*
X136119857Y-70964994D01*
X136119852Y-70964996D01*
X135946930Y-71041987D01*
X135946925Y-71041990D01*
X135793789Y-71153250D01*
X135667126Y-71293924D01*
X135572481Y-71457854D01*
X135572478Y-71457861D01*
X135515988Y-71631722D01*
X135513986Y-71637883D01*
X135494200Y-71826139D01*
X135513986Y-72014395D01*
X135513987Y-72014398D01*
X135572478Y-72194416D01*
X135572481Y-72194423D01*
X135667127Y-72358355D01*
X135766108Y-72468284D01*
X135793789Y-72499027D01*
X135946925Y-72610287D01*
X135946930Y-72610290D01*
X136119852Y-72687281D01*
X136119857Y-72687283D01*
X136305014Y-72726639D01*
X136305015Y-72726639D01*
X136494304Y-72726639D01*
X136494306Y-72726639D01*
X136679463Y-72687283D01*
X136789435Y-72638319D01*
X136858682Y-72629034D01*
X136921959Y-72658662D01*
X136927550Y-72663918D01*
X137006344Y-72742712D01*
X137155666Y-72834814D01*
X137322203Y-72889999D01*
X137424991Y-72900500D01*
X138125008Y-72900499D01*
X138125016Y-72900498D01*
X138125019Y-72900498D01*
X138181302Y-72894748D01*
X138227797Y-72889999D01*
X138394334Y-72834814D01*
X138543656Y-72742712D01*
X138667712Y-72618656D01*
X138759814Y-72469334D01*
X138814999Y-72302797D01*
X138815285Y-72300000D01*
X140394540Y-72300000D01*
X140414326Y-72488256D01*
X140414327Y-72488259D01*
X140472818Y-72668277D01*
X140472821Y-72668284D01*
X140567467Y-72832216D01*
X140671710Y-72947989D01*
X140694129Y-72972888D01*
X140847265Y-73084148D01*
X140847270Y-73084151D01*
X141020192Y-73161142D01*
X141020197Y-73161144D01*
X141205354Y-73200500D01*
X141205355Y-73200500D01*
X141394644Y-73200500D01*
X141394646Y-73200500D01*
X141579803Y-73161144D01*
X141752730Y-73084151D01*
X141905871Y-72972888D01*
X141956618Y-72916527D01*
X142016105Y-72879879D01*
X142048768Y-72875500D01*
X142750501Y-72875500D01*
X142817540Y-72895185D01*
X142863295Y-72947989D01*
X142874501Y-72999500D01*
X142874501Y-74297876D01*
X142880908Y-74357483D01*
X142931202Y-74492328D01*
X142931206Y-74492335D01*
X143017452Y-74607544D01*
X143017455Y-74607547D01*
X143132664Y-74693793D01*
X143132671Y-74693797D01*
X143267517Y-74744091D01*
X143267516Y-74744091D01*
X143274444Y-74744835D01*
X143327127Y-74750500D01*
X145422872Y-74750499D01*
X145482483Y-74744091D01*
X145617331Y-74693796D01*
X145732546Y-74607546D01*
X145818796Y-74492331D01*
X145869091Y-74357483D01*
X145875500Y-74297873D01*
X145875500Y-72999499D01*
X145895185Y-72932461D01*
X145947989Y-72886706D01*
X145999500Y-72875500D01*
X146357434Y-72875500D01*
X146424473Y-72895185D01*
X146430319Y-72899182D01*
X146547265Y-72984148D01*
X146547270Y-72984151D01*
X146720192Y-73061142D01*
X146720197Y-73061144D01*
X146905354Y-73100500D01*
X146905355Y-73100500D01*
X147094644Y-73100500D01*
X147094646Y-73100500D01*
X147279803Y-73061144D01*
X147452730Y-72984151D01*
X147605871Y-72872888D01*
X147732533Y-72732216D01*
X147827179Y-72568284D01*
X147885674Y-72388256D01*
X147905460Y-72200000D01*
X147885674Y-72011744D01*
X147831112Y-71843823D01*
X147827181Y-71831722D01*
X147827180Y-71831721D01*
X147827179Y-71831716D01*
X147732533Y-71667784D01*
X147605871Y-71527112D01*
X147602941Y-71524983D01*
X147452734Y-71415851D01*
X147452729Y-71415848D01*
X147279807Y-71338857D01*
X147279802Y-71338855D01*
X147131559Y-71307346D01*
X147094646Y-71299500D01*
X146905354Y-71299500D01*
X146872897Y-71306398D01*
X146720197Y-71338855D01*
X146720192Y-71338857D01*
X146547270Y-71415848D01*
X146547265Y-71415851D01*
X146394135Y-71527106D01*
X146394129Y-71527111D01*
X146343382Y-71583472D01*
X146283895Y-71620121D01*
X146251232Y-71624500D01*
X145999499Y-71624500D01*
X145932460Y-71604815D01*
X145886705Y-71552011D01*
X145875499Y-71500500D01*
X145875499Y-70300000D01*
X146894540Y-70300000D01*
X146914326Y-70488256D01*
X146914327Y-70488259D01*
X146972818Y-70668277D01*
X146972821Y-70668284D01*
X147067467Y-70832216D01*
X147160664Y-70935721D01*
X147194129Y-70972888D01*
X147347265Y-71084148D01*
X147347270Y-71084151D01*
X147520192Y-71161142D01*
X147520197Y-71161144D01*
X147705354Y-71200500D01*
X147705355Y-71200500D01*
X147894644Y-71200500D01*
X147894646Y-71200500D01*
X148079803Y-71161144D01*
X148252730Y-71084151D01*
X148405871Y-70972888D01*
X148532533Y-70832216D01*
X148627179Y-70668284D01*
X148685674Y-70488256D01*
X148705460Y-70300000D01*
X148685674Y-70111744D01*
X148627179Y-69931716D01*
X148532533Y-69767784D01*
X148405871Y-69627112D01*
X148405870Y-69627111D01*
X148252734Y-69515851D01*
X148252729Y-69515848D01*
X148079807Y-69438857D01*
X148079802Y-69438855D01*
X147918169Y-69404500D01*
X147894646Y-69399500D01*
X147705354Y-69399500D01*
X147681831Y-69404500D01*
X147520197Y-69438855D01*
X147520192Y-69438857D01*
X147347270Y-69515848D01*
X147347265Y-69515851D01*
X147194129Y-69627111D01*
X147067466Y-69767785D01*
X146972821Y-69931715D01*
X146972818Y-69931722D01*
X146914327Y-70111740D01*
X146914326Y-70111744D01*
X146894540Y-70300000D01*
X145875499Y-70300000D01*
X145875499Y-70202129D01*
X145875498Y-70202123D01*
X145875497Y-70202116D01*
X145869091Y-70142517D01*
X145865594Y-70133142D01*
X145818797Y-70007671D01*
X145818793Y-70007664D01*
X145732547Y-69892455D01*
X145732544Y-69892452D01*
X145617335Y-69806206D01*
X145617328Y-69806202D01*
X145482482Y-69755908D01*
X145482483Y-69755908D01*
X145422883Y-69749501D01*
X145422881Y-69749500D01*
X145422873Y-69749500D01*
X145422865Y-69749500D01*
X145124500Y-69749500D01*
X145057461Y-69729815D01*
X145011706Y-69677011D01*
X145000500Y-69625500D01*
X145000500Y-69326452D01*
X145020185Y-69259413D01*
X145032350Y-69243480D01*
X145132533Y-69132216D01*
X145227179Y-68968284D01*
X145285674Y-68788256D01*
X145305460Y-68600000D01*
X145285674Y-68411744D01*
X145227179Y-68231716D01*
X145132533Y-68067784D01*
X145005871Y-67927112D01*
X144991614Y-67916754D01*
X144933206Y-67874318D01*
X144890540Y-67818989D01*
X144884561Y-67749375D01*
X144917166Y-67687580D01*
X144978005Y-67653223D01*
X145006091Y-67650000D01*
X145422828Y-67650000D01*
X145422844Y-67649999D01*
X145482372Y-67643598D01*
X145482379Y-67643596D01*
X145617086Y-67593354D01*
X145617093Y-67593350D01*
X145732187Y-67507190D01*
X145732190Y-67507187D01*
X145818350Y-67392093D01*
X145818354Y-67392086D01*
X145868596Y-67257379D01*
X145868598Y-67257372D01*
X145874999Y-67197844D01*
X145875000Y-67197827D01*
X145875000Y-65400000D01*
X142875000Y-65400000D01*
X142875000Y-67197844D01*
X142881401Y-67257372D01*
X142881403Y-67257379D01*
X142931645Y-67392086D01*
X142931649Y-67392093D01*
X143017809Y-67507187D01*
X143017812Y-67507190D01*
X143132906Y-67593350D01*
X143132913Y-67593354D01*
X143267620Y-67643596D01*
X143267627Y-67643598D01*
X143327155Y-67649999D01*
X143327172Y-67650000D01*
X143793909Y-67650000D01*
X143860948Y-67669685D01*
X143906703Y-67722489D01*
X143916647Y-67791647D01*
X143887622Y-67855203D01*
X143866794Y-67874318D01*
X143794129Y-67927111D01*
X143667467Y-68067784D01*
X143667466Y-68067784D01*
X143572821Y-68231715D01*
X143572818Y-68231722D01*
X143517636Y-68401556D01*
X143514326Y-68411744D01*
X143494540Y-68600000D01*
X143514326Y-68788256D01*
X143514327Y-68788259D01*
X143572818Y-68968277D01*
X143572821Y-68968284D01*
X143667466Y-69132215D01*
X143717649Y-69187948D01*
X143747880Y-69250940D01*
X143749500Y-69270921D01*
X143749500Y-69625500D01*
X143729815Y-69692539D01*
X143677011Y-69738294D01*
X143625500Y-69749500D01*
X143327130Y-69749500D01*
X143327123Y-69749501D01*
X143267516Y-69755908D01*
X143132671Y-69806202D01*
X143132664Y-69806206D01*
X143017455Y-69892452D01*
X143017452Y-69892455D01*
X142931206Y-70007664D01*
X142931202Y-70007671D01*
X142880908Y-70142517D01*
X142875200Y-70195617D01*
X142874501Y-70202123D01*
X142874500Y-70202135D01*
X142874500Y-71500500D01*
X142854815Y-71567539D01*
X142802011Y-71613294D01*
X142750500Y-71624500D01*
X141942566Y-71624500D01*
X141875527Y-71604815D01*
X141869681Y-71600818D01*
X141752734Y-71515851D01*
X141752729Y-71515848D01*
X141579807Y-71438857D01*
X141579802Y-71438855D01*
X141434000Y-71407865D01*
X141394646Y-71399500D01*
X141205354Y-71399500D01*
X141174938Y-71405965D01*
X141020197Y-71438855D01*
X141020192Y-71438857D01*
X140847270Y-71515848D01*
X140847265Y-71515851D01*
X140694129Y-71627111D01*
X140567466Y-71767785D01*
X140472821Y-71931715D01*
X140472818Y-71931722D01*
X140422928Y-72085269D01*
X140414326Y-72111744D01*
X140394540Y-72300000D01*
X138815285Y-72300000D01*
X138825500Y-72200009D01*
X138825499Y-71499992D01*
X138824587Y-71491067D01*
X138814999Y-71397203D01*
X138814998Y-71397200D01*
X138805992Y-71370021D01*
X138759814Y-71230666D01*
X138667712Y-71081344D01*
X138543656Y-70957288D01*
X138434864Y-70890185D01*
X138394336Y-70865187D01*
X138394331Y-70865185D01*
X138311622Y-70837778D01*
X138227797Y-70810001D01*
X138227795Y-70810000D01*
X138221371Y-70807872D01*
X138222112Y-70805632D01*
X138170298Y-70777562D01*
X138136611Y-70716350D01*
X138141364Y-70646642D01*
X138165538Y-70606621D01*
X138232533Y-70532216D01*
X138327179Y-70368284D01*
X138385674Y-70188256D01*
X138405460Y-70000000D01*
X138385674Y-69811744D01*
X138361145Y-69736252D01*
X138353531Y-69712817D01*
X138351536Y-69642976D01*
X138387617Y-69583143D01*
X138450318Y-69552315D01*
X138471462Y-69550499D01*
X138572871Y-69550499D01*
X138572872Y-69550499D01*
X138632483Y-69544091D01*
X138767331Y-69493796D01*
X138882546Y-69407546D01*
X138968796Y-69292331D01*
X139019091Y-69157483D01*
X139025500Y-69097873D01*
X139025500Y-67899499D01*
X139045185Y-67832461D01*
X139097989Y-67786706D01*
X139149500Y-67775500D01*
X139157434Y-67775500D01*
X139224473Y-67795185D01*
X139230319Y-67799182D01*
X139347265Y-67884148D01*
X139347270Y-67884151D01*
X139520192Y-67961142D01*
X139520197Y-67961144D01*
X139705354Y-68000500D01*
X139705355Y-68000500D01*
X139894644Y-68000500D01*
X139894646Y-68000500D01*
X140079803Y-67961144D01*
X140252730Y-67884151D01*
X140405871Y-67772888D01*
X140532533Y-67632216D01*
X140627179Y-67468284D01*
X140685674Y-67288256D01*
X140705460Y-67100000D01*
X140685674Y-66911744D01*
X140627179Y-66731716D01*
X140532533Y-66567784D01*
X140405871Y-66427112D01*
X140388149Y-66414236D01*
X140252734Y-66315851D01*
X140252729Y-66315848D01*
X140079807Y-66238857D01*
X140079802Y-66238855D01*
X139934000Y-66207865D01*
X139894646Y-66199500D01*
X139705354Y-66199500D01*
X139672897Y-66206398D01*
X139520197Y-66238855D01*
X139520192Y-66238857D01*
X139347271Y-66315848D01*
X139222384Y-66406583D01*
X139156577Y-66430062D01*
X139088523Y-66414236D01*
X139039829Y-66364130D01*
X139025499Y-66306264D01*
X139025499Y-65202129D01*
X139025498Y-65202123D01*
X139025497Y-65202116D01*
X139019091Y-65142517D01*
X139016287Y-65135000D01*
X138968797Y-65007671D01*
X138968793Y-65007664D01*
X138888195Y-64900000D01*
X142875000Y-64900000D01*
X144125000Y-64900000D01*
X144125000Y-62650000D01*
X144625000Y-62650000D01*
X144625000Y-64900000D01*
X145875000Y-64900000D01*
X145875000Y-63102172D01*
X145874999Y-63102155D01*
X145868598Y-63042627D01*
X145868596Y-63042620D01*
X145818354Y-62907913D01*
X145818350Y-62907906D01*
X145732190Y-62792812D01*
X145732187Y-62792809D01*
X145617093Y-62706649D01*
X145617086Y-62706645D01*
X145482379Y-62656403D01*
X145482372Y-62656401D01*
X145422844Y-62650000D01*
X144625000Y-62650000D01*
X144125000Y-62650000D01*
X143327155Y-62650000D01*
X143267627Y-62656401D01*
X143267620Y-62656403D01*
X143132913Y-62706645D01*
X143132906Y-62706649D01*
X143017812Y-62792809D01*
X143017809Y-62792812D01*
X142931649Y-62907906D01*
X142931645Y-62907913D01*
X142881403Y-63042620D01*
X142881401Y-63042627D01*
X142875000Y-63102155D01*
X142875000Y-64900000D01*
X138888195Y-64900000D01*
X138882547Y-64892455D01*
X138882544Y-64892452D01*
X138767335Y-64806206D01*
X138767328Y-64806202D01*
X138632482Y-64755908D01*
X138632483Y-64755908D01*
X138572883Y-64749501D01*
X138572881Y-64749500D01*
X138572873Y-64749500D01*
X138572865Y-64749500D01*
X138471462Y-64749500D01*
X138404423Y-64729815D01*
X138358668Y-64677011D01*
X138348724Y-64607853D01*
X138353531Y-64587182D01*
X138359674Y-64568275D01*
X138385674Y-64488256D01*
X138405460Y-64300000D01*
X138385674Y-64111744D01*
X138327179Y-63931716D01*
X138232533Y-63767784D01*
X138105871Y-63627112D01*
X138105870Y-63627111D01*
X137952734Y-63515851D01*
X137952729Y-63515848D01*
X137779807Y-63438857D01*
X137779802Y-63438855D01*
X137634000Y-63407865D01*
X137594646Y-63399500D01*
X137405354Y-63399500D01*
X137372897Y-63406398D01*
X137220197Y-63438855D01*
X137220192Y-63438857D01*
X137047270Y-63515848D01*
X137047265Y-63515851D01*
X136894129Y-63627111D01*
X136767466Y-63767785D01*
X136672821Y-63931715D01*
X136672818Y-63931722D01*
X136617317Y-64102538D01*
X136614326Y-64111744D01*
X136594540Y-64300000D01*
X136614326Y-64488256D01*
X136614327Y-64488259D01*
X136646469Y-64587182D01*
X136648464Y-64657023D01*
X136612384Y-64716856D01*
X136549683Y-64747684D01*
X136528540Y-64749500D01*
X136477130Y-64749500D01*
X136477123Y-64749501D01*
X136417516Y-64755908D01*
X136282671Y-64806202D01*
X136282664Y-64806206D01*
X136167455Y-64892452D01*
X136167452Y-64892455D01*
X136081206Y-65007664D01*
X136081202Y-65007671D01*
X136030908Y-65142517D01*
X136024782Y-65199500D01*
X136024501Y-65202123D01*
X136024500Y-65202135D01*
X136024500Y-66156859D01*
X136004815Y-66223898D01*
X135952011Y-66269653D01*
X135882853Y-66279597D01*
X135850064Y-66270138D01*
X135779807Y-66238857D01*
X135779802Y-66238855D01*
X135634001Y-66207865D01*
X135594646Y-66199500D01*
X135405354Y-66199500D01*
X135372897Y-66206398D01*
X135220197Y-66238855D01*
X135220192Y-66238857D01*
X135047270Y-66315848D01*
X135047265Y-66315851D01*
X134894129Y-66427111D01*
X134767466Y-66567785D01*
X134672821Y-66731715D01*
X134672818Y-66731722D01*
X134614327Y-66911740D01*
X134614326Y-66911744D01*
X134594540Y-67100000D01*
X132725499Y-67100000D01*
X132725499Y-67099884D01*
X132745183Y-67032846D01*
X132797987Y-66987091D01*
X132845605Y-66975946D01*
X132858022Y-66975556D01*
X132859816Y-66975500D01*
X132874706Y-66975500D01*
X132900486Y-66978209D01*
X133005354Y-67000500D01*
X133005355Y-67000500D01*
X133194644Y-67000500D01*
X133194646Y-67000500D01*
X133379803Y-66961144D01*
X133552730Y-66884151D01*
X133705871Y-66772888D01*
X133832533Y-66632216D01*
X133927179Y-66468284D01*
X133985674Y-66288256D01*
X134005460Y-66100000D01*
X133985674Y-65911744D01*
X133927179Y-65731716D01*
X133832533Y-65567784D01*
X133705871Y-65427112D01*
X133683300Y-65410713D01*
X133552734Y-65315851D01*
X133552729Y-65315848D01*
X133379807Y-65238857D01*
X133379802Y-65238855D01*
X133234001Y-65207865D01*
X133194646Y-65199500D01*
X133005354Y-65199500D01*
X132906786Y-65220451D01*
X132875278Y-65227148D01*
X132805611Y-65221831D01*
X132749878Y-65179693D01*
X132725773Y-65114113D01*
X132725499Y-65105887D01*
X132725499Y-64052128D01*
X132719424Y-63995617D01*
X132719091Y-63992516D01*
X132668797Y-63857671D01*
X132668793Y-63857664D01*
X132582547Y-63742455D01*
X132582544Y-63742452D01*
X132467335Y-63656206D01*
X132467328Y-63656202D01*
X132332482Y-63605908D01*
X132332483Y-63605908D01*
X132272883Y-63599501D01*
X132272881Y-63599500D01*
X132272873Y-63599500D01*
X132272864Y-63599500D01*
X130177129Y-63599500D01*
X130177123Y-63599501D01*
X130117516Y-63605908D01*
X129974359Y-63659303D01*
X129973770Y-63657726D01*
X129915653Y-63670369D01*
X129850188Y-63645952D01*
X129808317Y-63590018D01*
X129800499Y-63546685D01*
X129800499Y-63024998D01*
X129800498Y-63024981D01*
X129789999Y-62922203D01*
X129789998Y-62922200D01*
X129762595Y-62839504D01*
X129734814Y-62755666D01*
X129642712Y-62606344D01*
X129518656Y-62482288D01*
X129369334Y-62390186D01*
X129202797Y-62335001D01*
X129202795Y-62335000D01*
X129100010Y-62324500D01*
X128324998Y-62324500D01*
X128324980Y-62324501D01*
X128222203Y-62335000D01*
X128222200Y-62335001D01*
X128055668Y-62390185D01*
X128055663Y-62390187D01*
X127906342Y-62482289D01*
X127782288Y-62606343D01*
X127782282Y-62606351D01*
X127780531Y-62609190D01*
X127778823Y-62610725D01*
X127777807Y-62612011D01*
X127777587Y-62611837D01*
X127728579Y-62655910D01*
X127659615Y-62667125D01*
X127595536Y-62639275D01*
X127569459Y-62609176D01*
X127567712Y-62606344D01*
X127443656Y-62482288D01*
X127294334Y-62390186D01*
X127127797Y-62335001D01*
X127127795Y-62335000D01*
X127025010Y-62324500D01*
X126249998Y-62324500D01*
X126249980Y-62324501D01*
X126147203Y-62335000D01*
X126147200Y-62335001D01*
X125980668Y-62390185D01*
X125980663Y-62390187D01*
X125831342Y-62482289D01*
X125707289Y-62606342D01*
X125615187Y-62755663D01*
X125615185Y-62755668D01*
X125587405Y-62839504D01*
X125547632Y-62896949D01*
X125483116Y-62923772D01*
X125469699Y-62924500D01*
X122132738Y-62924500D01*
X122117121Y-62922776D01*
X122117094Y-62923062D01*
X122109332Y-62922327D01*
X122040204Y-62924500D01*
X122010650Y-62924500D01*
X122009929Y-62924590D01*
X122003757Y-62925369D01*
X121997945Y-62925826D01*
X121951373Y-62927290D01*
X121951372Y-62927290D01*
X121932129Y-62932881D01*
X121913079Y-62936825D01*
X121893211Y-62939334D01*
X121849884Y-62956488D01*
X121844358Y-62958379D01*
X121799614Y-62971379D01*
X121799610Y-62971381D01*
X121782366Y-62981579D01*
X121764905Y-62990133D01*
X121746274Y-62997510D01*
X121746262Y-62997517D01*
X121708570Y-63024902D01*
X121703687Y-63028109D01*
X121663582Y-63051828D01*
X121663579Y-63051830D01*
X121663580Y-63051830D01*
X121652224Y-63063184D01*
X121590902Y-63096667D01*
X121564547Y-63099500D01*
X121505354Y-63099500D01*
X121472897Y-63106398D01*
X121320197Y-63138855D01*
X121320192Y-63138857D01*
X121147270Y-63215848D01*
X121147265Y-63215851D01*
X120994129Y-63327111D01*
X120867466Y-63467785D01*
X120772821Y-63631715D01*
X120772818Y-63631722D01*
X120728609Y-63767785D01*
X120714326Y-63811744D01*
X120694540Y-64000000D01*
X109251133Y-64000000D01*
X109232533Y-63967784D01*
X109105871Y-63827112D01*
X109105870Y-63827111D01*
X108952734Y-63715851D01*
X108952729Y-63715848D01*
X108779807Y-63638857D01*
X108779802Y-63638855D01*
X108624798Y-63605909D01*
X108594646Y-63599500D01*
X108405354Y-63599500D01*
X108375202Y-63605909D01*
X108220197Y-63638855D01*
X108220192Y-63638857D01*
X108047270Y-63715848D01*
X108047265Y-63715851D01*
X107894129Y-63827111D01*
X107767466Y-63967785D01*
X107672821Y-64131715D01*
X107672819Y-64131719D01*
X107645656Y-64215319D01*
X107606218Y-64272994D01*
X107541859Y-64300192D01*
X107473013Y-64288277D01*
X107421537Y-64241032D01*
X107404405Y-64189964D01*
X107385674Y-64011744D01*
X107327179Y-63831716D01*
X107232533Y-63667784D01*
X107105871Y-63527112D01*
X107090369Y-63515849D01*
X106952734Y-63415851D01*
X106952729Y-63415848D01*
X106779807Y-63338857D01*
X106779802Y-63338855D01*
X106634001Y-63307865D01*
X106594646Y-63299500D01*
X106405354Y-63299500D01*
X106372897Y-63306398D01*
X106220197Y-63338855D01*
X106220192Y-63338857D01*
X106047270Y-63415848D01*
X106047265Y-63415851D01*
X105894129Y-63527111D01*
X105767465Y-63667785D01*
X105683915Y-63812500D01*
X105633348Y-63860716D01*
X105576528Y-63874500D01*
X105505301Y-63874500D01*
X105438262Y-63854815D01*
X105392507Y-63802011D01*
X105387595Y-63789504D01*
X105375634Y-63753409D01*
X105359814Y-63705666D01*
X105267712Y-63556344D01*
X105143656Y-63432288D01*
X104994334Y-63340186D01*
X104827797Y-63285001D01*
X104827795Y-63285000D01*
X104725010Y-63274500D01*
X103949998Y-63274500D01*
X103949980Y-63274501D01*
X103847203Y-63285000D01*
X103847200Y-63285001D01*
X103680668Y-63340185D01*
X103680663Y-63340187D01*
X103531342Y-63432289D01*
X103407285Y-63556346D01*
X103405537Y-63559182D01*
X103403829Y-63560717D01*
X103402807Y-63562011D01*
X103402585Y-63561836D01*
X103353589Y-63605905D01*
X103284626Y-63617126D01*
X103220544Y-63589282D01*
X103194463Y-63559182D01*
X103192714Y-63556346D01*
X103068657Y-63432289D01*
X103068656Y-63432288D01*
X102919334Y-63340186D01*
X102752797Y-63285001D01*
X102752795Y-63285000D01*
X102650010Y-63274500D01*
X101874998Y-63274500D01*
X101874980Y-63274501D01*
X101772203Y-63285000D01*
X101772200Y-63285001D01*
X101605668Y-63340185D01*
X101605663Y-63340187D01*
X101456342Y-63432289D01*
X101332289Y-63556342D01*
X101240187Y-63705663D01*
X101240185Y-63705668D01*
X101219602Y-63767784D01*
X101185001Y-63872203D01*
X101185001Y-63872204D01*
X101185000Y-63872204D01*
X101174500Y-63974983D01*
X101174500Y-64718874D01*
X101159163Y-64778609D01*
X101151304Y-64792905D01*
X101151303Y-64792907D01*
X101151303Y-64792908D01*
X101149550Y-64799735D01*
X101146322Y-64812307D01*
X101140021Y-64830710D01*
X101132062Y-64849102D01*
X101132061Y-64849105D01*
X101124771Y-64895127D01*
X101123587Y-64900846D01*
X101112001Y-64945972D01*
X101112000Y-64945982D01*
X101112000Y-64966016D01*
X101110473Y-64985415D01*
X101107340Y-65005194D01*
X101107340Y-65005195D01*
X101111725Y-65051583D01*
X101112000Y-65057421D01*
X101112000Y-66401652D01*
X101092315Y-66468691D01*
X101053098Y-66507189D01*
X101038784Y-66516019D01*
X100931342Y-66582289D01*
X100807289Y-66706342D01*
X100791635Y-66731722D01*
X100754995Y-66791126D01*
X100746069Y-66805597D01*
X100694121Y-66852321D01*
X100640530Y-66864500D01*
X99768224Y-66864500D01*
X99701185Y-66844815D01*
X99666649Y-66811623D01*
X99632499Y-66762852D01*
X99592931Y-66706342D01*
X99538496Y-66628600D01*
X99477680Y-66567784D01*
X99416179Y-66506283D01*
X99382696Y-66444963D01*
X99387680Y-66375271D01*
X99429551Y-66319337D01*
X99460529Y-66302422D01*
X99592086Y-66253354D01*
X99592093Y-66253350D01*
X99707187Y-66167190D01*
X99707190Y-66167187D01*
X99793350Y-66052093D01*
X99793354Y-66052086D01*
X99843596Y-65917379D01*
X99843598Y-65917372D01*
X99849999Y-65857844D01*
X99850000Y-65857827D01*
X99850000Y-65210000D01*
X99113347Y-65210000D01*
X99046308Y-65190315D01*
X99000553Y-65137511D01*
X98990609Y-65068353D01*
X98994369Y-65051067D01*
X98999904Y-65032216D01*
X99000000Y-65031889D01*
X99000000Y-64888111D01*
X98994368Y-64868933D01*
X98994370Y-64799064D01*
X99032145Y-64740286D01*
X99095701Y-64711262D01*
X99113347Y-64710000D01*
X99850000Y-64710000D01*
X99850000Y-64062172D01*
X99849999Y-64062155D01*
X99843598Y-64002627D01*
X99843596Y-64002620D01*
X99793354Y-63867913D01*
X99793350Y-63867906D01*
X99707190Y-63752812D01*
X99707187Y-63752809D01*
X99592093Y-63666649D01*
X99592086Y-63666645D01*
X99457379Y-63616403D01*
X99457372Y-63616401D01*
X99397844Y-63610000D01*
X98750000Y-63610000D01*
X98750000Y-64347698D01*
X98730315Y-64414737D01*
X98677511Y-64460492D01*
X98608355Y-64470436D01*
X98535766Y-64460000D01*
X98535763Y-64460000D01*
X98464237Y-64460000D01*
X98464233Y-64460000D01*
X98391645Y-64470436D01*
X98322487Y-64460492D01*
X98269684Y-64414736D01*
X98250000Y-64347698D01*
X98250000Y-63610000D01*
X97602155Y-63610000D01*
X97542627Y-63616401D01*
X97542620Y-63616403D01*
X97407913Y-63666645D01*
X97407906Y-63666649D01*
X97292812Y-63752809D01*
X97292809Y-63752812D01*
X97206649Y-63867906D01*
X97206645Y-63867913D01*
X97156403Y-64002620D01*
X97156401Y-64002627D01*
X97150000Y-64062155D01*
X97150000Y-64710000D01*
X97886653Y-64710000D01*
X97953692Y-64729685D01*
X97999447Y-64782489D01*
X98009391Y-64851647D01*
X98005631Y-64868933D01*
X98000000Y-64888111D01*
X98000000Y-65031889D01*
X98000096Y-65032216D01*
X98005631Y-65051067D01*
X98005630Y-65120936D01*
X97967855Y-65179714D01*
X97904299Y-65208738D01*
X97886653Y-65210000D01*
X97150000Y-65210000D01*
X97150000Y-65857844D01*
X97156401Y-65917372D01*
X97156403Y-65917379D01*
X97206645Y-66052086D01*
X97206649Y-66052093D01*
X97292809Y-66167187D01*
X97292812Y-66167190D01*
X97407906Y-66253350D01*
X97407913Y-66253354D01*
X97539470Y-66302421D01*
X97595403Y-66344292D01*
X97619821Y-66409756D01*
X97604970Y-66478029D01*
X97583819Y-66506284D01*
X97461503Y-66628600D01*
X97325965Y-66822169D01*
X97325964Y-66822171D01*
X97226098Y-67036335D01*
X97226094Y-67036344D01*
X97164938Y-67264586D01*
X97164936Y-67264596D01*
X97144341Y-67499999D01*
X97144341Y-67500000D01*
X97164936Y-67735403D01*
X97164938Y-67735413D01*
X97226094Y-67963655D01*
X97226096Y-67963659D01*
X97226097Y-67963663D01*
X97309879Y-68143333D01*
X97325965Y-68177830D01*
X97325967Y-68177834D01*
X97461501Y-68371395D01*
X97461506Y-68371402D01*
X97628597Y-68538493D01*
X97628603Y-68538498D01*
X97814158Y-68668425D01*
X97857783Y-68723002D01*
X97864977Y-68792500D01*
X97833454Y-68854855D01*
X97814158Y-68871575D01*
X97628597Y-69001505D01*
X97461505Y-69168597D01*
X97325965Y-69362169D01*
X97325964Y-69362171D01*
X97226098Y-69576335D01*
X97226094Y-69576344D01*
X97164938Y-69804586D01*
X97164936Y-69804596D01*
X97144341Y-70039999D01*
X97144341Y-70040000D01*
X97164936Y-70275403D01*
X97164938Y-70275413D01*
X97226094Y-70503655D01*
X97226096Y-70503659D01*
X97226097Y-70503663D01*
X97314693Y-70693657D01*
X97325965Y-70717830D01*
X97325967Y-70717834D01*
X97414584Y-70844391D01*
X97460394Y-70909815D01*
X97461501Y-70911395D01*
X97461506Y-70911402D01*
X97628597Y-71078493D01*
X97628603Y-71078498D01*
X97814158Y-71208425D01*
X97857783Y-71263002D01*
X97864977Y-71332500D01*
X97833454Y-71394855D01*
X97814158Y-71411575D01*
X97628597Y-71541505D01*
X97461505Y-71708597D01*
X97325965Y-71902169D01*
X97325964Y-71902171D01*
X97226098Y-72116335D01*
X97226094Y-72116344D01*
X97164938Y-72344586D01*
X97164936Y-72344596D01*
X97144341Y-72579999D01*
X97144341Y-72580000D01*
X95327825Y-72580000D01*
X95324818Y-72572070D01*
X95304372Y-72542449D01*
X95298059Y-72523308D01*
X95288190Y-72512168D01*
X95271209Y-72487565D01*
X95267458Y-72480418D01*
X95248631Y-72461694D01*
X95228182Y-72432070D01*
X95201241Y-72408202D01*
X95190529Y-72391126D01*
X95178285Y-72382674D01*
X95155909Y-72362850D01*
X95150563Y-72356816D01*
X95127794Y-72343134D01*
X95100856Y-72319269D01*
X95100851Y-72319265D01*
X95068981Y-72302538D01*
X95054496Y-72288522D01*
X95040579Y-72283244D01*
X95014109Y-72269351D01*
X95007471Y-72264769D01*
X94982095Y-72256937D01*
X94950225Y-72240210D01*
X94950224Y-72240209D01*
X94950223Y-72240209D01*
X94915277Y-72231596D01*
X94897850Y-72221449D01*
X94883074Y-72219655D01*
X94854050Y-72212502D01*
X94846511Y-72209643D01*
X94820002Y-72208112D01*
X94785061Y-72199500D01*
X94785056Y-72199500D01*
X94749072Y-72199500D01*
X94729734Y-72193821D01*
X94714945Y-72195617D01*
X94685060Y-72195617D01*
X94677028Y-72194642D01*
X94650929Y-72199500D01*
X94614944Y-72199500D01*
X94579995Y-72208113D01*
X94559858Y-72207226D01*
X94545952Y-72212501D01*
X94516924Y-72219655D01*
X94508918Y-72220626D01*
X94484722Y-72231595D01*
X94449781Y-72240207D01*
X94449774Y-72240210D01*
X94417901Y-72256938D01*
X94398133Y-72260897D01*
X94385884Y-72269353D01*
X94359420Y-72283243D01*
X94351874Y-72286104D01*
X94331019Y-72302537D01*
X94299152Y-72319263D01*
X94299148Y-72319266D01*
X94272200Y-72343139D01*
X94253954Y-72351714D01*
X94244087Y-72362852D01*
X94221713Y-72382674D01*
X94215078Y-72387253D01*
X94198761Y-72408199D01*
X94171817Y-72432070D01*
X94151366Y-72461698D01*
X94135704Y-72474389D01*
X94128788Y-72487567D01*
X94111809Y-72512166D01*
X94106458Y-72518205D01*
X94095630Y-72542444D01*
X94075184Y-72572065D01*
X94075182Y-72572069D01*
X94062416Y-72605729D01*
X94050245Y-72621801D01*
X94046683Y-72636254D01*
X94036084Y-72664202D01*
X94032338Y-72671339D01*
X94027624Y-72697470D01*
X94014860Y-72731126D01*
X94010521Y-72766858D01*
X94002552Y-72785372D01*
X94002552Y-72800263D01*
X93998949Y-72829936D01*
X93997015Y-72837781D01*
X93998692Y-72864268D01*
X93994355Y-72899995D01*
X93994355Y-72900003D01*
X92339159Y-72900003D01*
X92342262Y-70000003D01*
X93994355Y-70000003D01*
X93998692Y-70035730D01*
X93995386Y-70055607D01*
X93998949Y-70070062D01*
X94002552Y-70099735D01*
X94002552Y-70107815D01*
X94010521Y-70133142D01*
X94014859Y-70168870D01*
X94014861Y-70168878D01*
X94027623Y-70202528D01*
X94029171Y-70222624D01*
X94036082Y-70235792D01*
X94046682Y-70263742D01*
X94048613Y-70271579D01*
X94062417Y-70294271D01*
X94064590Y-70300000D01*
X94075182Y-70327931D01*
X94075184Y-70327934D01*
X94095628Y-70357553D01*
X94101938Y-70376689D01*
X94111808Y-70387830D01*
X94128789Y-70412431D01*
X94132543Y-70419584D01*
X94151367Y-70438304D01*
X94171813Y-70467925D01*
X94171814Y-70467926D01*
X94171816Y-70467928D01*
X94171817Y-70467929D01*
X94182956Y-70477797D01*
X94198757Y-70491796D01*
X94209466Y-70508869D01*
X94221713Y-70517323D01*
X94244088Y-70537147D01*
X94249438Y-70543186D01*
X94272204Y-70556864D01*
X94299145Y-70580732D01*
X94299151Y-70580736D01*
X94331011Y-70597457D01*
X94345499Y-70611475D01*
X94359418Y-70616754D01*
X94385888Y-70630647D01*
X94392533Y-70635234D01*
X94417906Y-70643063D01*
X94449775Y-70659790D01*
X94484714Y-70668401D01*
X94502128Y-70678540D01*
X94516911Y-70680336D01*
X94545932Y-70687490D01*
X94553496Y-70690358D01*
X94580003Y-70691887D01*
X94614941Y-70700499D01*
X94614942Y-70700500D01*
X94650937Y-70700500D01*
X94670285Y-70706181D01*
X94685049Y-70704388D01*
X94714954Y-70704388D01*
X94722950Y-70705359D01*
X94749063Y-70700500D01*
X94785058Y-70700500D01*
X94785060Y-70700499D01*
X94819994Y-70691889D01*
X94840131Y-70692774D01*
X94854064Y-70687490D01*
X94883088Y-70680335D01*
X94891113Y-70679360D01*
X94915280Y-70668403D01*
X94950225Y-70659790D01*
X94950317Y-70659742D01*
X94975276Y-70646642D01*
X94982089Y-70643065D01*
X95001855Y-70639105D01*
X95014112Y-70630645D01*
X95040582Y-70616753D01*
X95048133Y-70613888D01*
X95068985Y-70597459D01*
X95100852Y-70580734D01*
X95127792Y-70556866D01*
X95146037Y-70548290D01*
X95155907Y-70537150D01*
X95178285Y-70517324D01*
X95184928Y-70512738D01*
X95201243Y-70491795D01*
X95228183Y-70467929D01*
X95248629Y-70438306D01*
X95264290Y-70425614D01*
X95271209Y-70412432D01*
X95288192Y-70387827D01*
X95293546Y-70381783D01*
X95304372Y-70357549D01*
X95324818Y-70327930D01*
X95337580Y-70294278D01*
X95349751Y-70278203D01*
X95353314Y-70263747D01*
X95363916Y-70235791D01*
X95367664Y-70228649D01*
X95372378Y-70202522D01*
X95372527Y-70202129D01*
X95385140Y-70168872D01*
X95392886Y-70105072D01*
X95394229Y-70097743D01*
X95397448Y-70084686D01*
X95397448Y-70084679D01*
X95398012Y-70082392D01*
X95398020Y-70082353D01*
X95402982Y-70062217D01*
X95401307Y-70035724D01*
X95405645Y-70000000D01*
X95401306Y-69964272D01*
X95404612Y-69944391D01*
X95398005Y-69917584D01*
X95397999Y-69917551D01*
X95396597Y-69911862D01*
X95394232Y-69902266D01*
X95392885Y-69894915D01*
X95385140Y-69831128D01*
X95372376Y-69797474D01*
X95370828Y-69777376D01*
X95363916Y-69764207D01*
X95353314Y-69736252D01*
X95351382Y-69728415D01*
X95337580Y-69705722D01*
X95324818Y-69672070D01*
X95304372Y-69642449D01*
X95298059Y-69623308D01*
X95288190Y-69612168D01*
X95271209Y-69587565D01*
X95267458Y-69580418D01*
X95248631Y-69561694D01*
X95228182Y-69532070D01*
X95201241Y-69508202D01*
X95190529Y-69491126D01*
X95178285Y-69482674D01*
X95155909Y-69462850D01*
X95150563Y-69456816D01*
X95127794Y-69443134D01*
X95100856Y-69419269D01*
X95100851Y-69419265D01*
X95068981Y-69402538D01*
X95054496Y-69388522D01*
X95040579Y-69383244D01*
X95014109Y-69369351D01*
X95007471Y-69364769D01*
X94982095Y-69356937D01*
X94950225Y-69340210D01*
X94950224Y-69340209D01*
X94950223Y-69340209D01*
X94915277Y-69331596D01*
X94897850Y-69321449D01*
X94883074Y-69319655D01*
X94854050Y-69312502D01*
X94846511Y-69309643D01*
X94820002Y-69308112D01*
X94785061Y-69299500D01*
X94785056Y-69299500D01*
X94749072Y-69299500D01*
X94729734Y-69293821D01*
X94714945Y-69295617D01*
X94685060Y-69295617D01*
X94677028Y-69294642D01*
X94650929Y-69299500D01*
X94614944Y-69299500D01*
X94579995Y-69308113D01*
X94559858Y-69307226D01*
X94545952Y-69312501D01*
X94516924Y-69319655D01*
X94508918Y-69320626D01*
X94484722Y-69331595D01*
X94449781Y-69340207D01*
X94449774Y-69340210D01*
X94417901Y-69356938D01*
X94398133Y-69360897D01*
X94385884Y-69369353D01*
X94359420Y-69383243D01*
X94351874Y-69386104D01*
X94331019Y-69402537D01*
X94299152Y-69419263D01*
X94299148Y-69419266D01*
X94272200Y-69443139D01*
X94253954Y-69451714D01*
X94244087Y-69462852D01*
X94221713Y-69482674D01*
X94215078Y-69487253D01*
X94198761Y-69508199D01*
X94171817Y-69532070D01*
X94151366Y-69561698D01*
X94135704Y-69574389D01*
X94128788Y-69587567D01*
X94111809Y-69612166D01*
X94106458Y-69618205D01*
X94095630Y-69642444D01*
X94075184Y-69672065D01*
X94075182Y-69672069D01*
X94062416Y-69705729D01*
X94050245Y-69721801D01*
X94046683Y-69736254D01*
X94036084Y-69764202D01*
X94032338Y-69771339D01*
X94027624Y-69797470D01*
X94014860Y-69831126D01*
X94010521Y-69866858D01*
X94002552Y-69885372D01*
X94002552Y-69900263D01*
X93998949Y-69929936D01*
X93997015Y-69937781D01*
X93998692Y-69964268D01*
X93994355Y-69999995D01*
X93994355Y-70000003D01*
X92342262Y-70000003D01*
X92345150Y-67300003D01*
X93994355Y-67300003D01*
X93998692Y-67335730D01*
X93995386Y-67355607D01*
X93998949Y-67370062D01*
X94002552Y-67399735D01*
X94002552Y-67407815D01*
X94010521Y-67433142D01*
X94014859Y-67468870D01*
X94014861Y-67468878D01*
X94027623Y-67502528D01*
X94029171Y-67522624D01*
X94036082Y-67535792D01*
X94046682Y-67563742D01*
X94048613Y-67571579D01*
X94062417Y-67594271D01*
X94063396Y-67596852D01*
X94075182Y-67627931D01*
X94075184Y-67627934D01*
X94095628Y-67657553D01*
X94101938Y-67676689D01*
X94111808Y-67687830D01*
X94128789Y-67712431D01*
X94132543Y-67719584D01*
X94151367Y-67738304D01*
X94171813Y-67767925D01*
X94171814Y-67767926D01*
X94198757Y-67791796D01*
X94209466Y-67808869D01*
X94221713Y-67817323D01*
X94244088Y-67837147D01*
X94249438Y-67843186D01*
X94272204Y-67856864D01*
X94299145Y-67880732D01*
X94299151Y-67880736D01*
X94331011Y-67897457D01*
X94345499Y-67911475D01*
X94359418Y-67916754D01*
X94385888Y-67930647D01*
X94392533Y-67935234D01*
X94417906Y-67943063D01*
X94449775Y-67959790D01*
X94484714Y-67968401D01*
X94502128Y-67978540D01*
X94516911Y-67980336D01*
X94545932Y-67987490D01*
X94553496Y-67990358D01*
X94580003Y-67991887D01*
X94614941Y-68000499D01*
X94614942Y-68000500D01*
X94650937Y-68000500D01*
X94670285Y-68006181D01*
X94685049Y-68004388D01*
X94714954Y-68004388D01*
X94722950Y-68005359D01*
X94749063Y-68000500D01*
X94785058Y-68000500D01*
X94785060Y-68000499D01*
X94819994Y-67991889D01*
X94840131Y-67992774D01*
X94854064Y-67987490D01*
X94883088Y-67980335D01*
X94891113Y-67979360D01*
X94915280Y-67968403D01*
X94950225Y-67959790D01*
X94982089Y-67943065D01*
X95001855Y-67939105D01*
X95014112Y-67930645D01*
X95040582Y-67916753D01*
X95048133Y-67913888D01*
X95068985Y-67897459D01*
X95100852Y-67880734D01*
X95127792Y-67856866D01*
X95146037Y-67848290D01*
X95155907Y-67837150D01*
X95178285Y-67817324D01*
X95184928Y-67812738D01*
X95201243Y-67791795D01*
X95228183Y-67767929D01*
X95248629Y-67738306D01*
X95264290Y-67725614D01*
X95271209Y-67712432D01*
X95288192Y-67687827D01*
X95293546Y-67681783D01*
X95304372Y-67657549D01*
X95324818Y-67627930D01*
X95337580Y-67594278D01*
X95349751Y-67578203D01*
X95353314Y-67563747D01*
X95363916Y-67535791D01*
X95367664Y-67528649D01*
X95372378Y-67502522D01*
X95385140Y-67468872D01*
X95392886Y-67405072D01*
X95394229Y-67397743D01*
X95397448Y-67384686D01*
X95397448Y-67384679D01*
X95398012Y-67382392D01*
X95398020Y-67382353D01*
X95402982Y-67362217D01*
X95401307Y-67335724D01*
X95405645Y-67300000D01*
X95401306Y-67264272D01*
X95404612Y-67244391D01*
X95398005Y-67217584D01*
X95397999Y-67217551D01*
X95397448Y-67215314D01*
X95394232Y-67202266D01*
X95392885Y-67194915D01*
X95385140Y-67131128D01*
X95372376Y-67097474D01*
X95370828Y-67077376D01*
X95363916Y-67064207D01*
X95353314Y-67036252D01*
X95351382Y-67028415D01*
X95337580Y-67005722D01*
X95324818Y-66972070D01*
X95317276Y-66961144D01*
X95304372Y-66942449D01*
X95298059Y-66923308D01*
X95288190Y-66912168D01*
X95271209Y-66887565D01*
X95267458Y-66880418D01*
X95248631Y-66861694D01*
X95228182Y-66832070D01*
X95201241Y-66808202D01*
X95190529Y-66791126D01*
X95178285Y-66782674D01*
X95155909Y-66762850D01*
X95150563Y-66756816D01*
X95127794Y-66743134D01*
X95100856Y-66719269D01*
X95100851Y-66719265D01*
X95068981Y-66702538D01*
X95054496Y-66688522D01*
X95040579Y-66683244D01*
X95014109Y-66669351D01*
X95007471Y-66664769D01*
X94982095Y-66656937D01*
X94950225Y-66640210D01*
X94950224Y-66640209D01*
X94950223Y-66640209D01*
X94915277Y-66631596D01*
X94897850Y-66621449D01*
X94883074Y-66619655D01*
X94854050Y-66612502D01*
X94846511Y-66609643D01*
X94820002Y-66608112D01*
X94785061Y-66599500D01*
X94785056Y-66599500D01*
X94749072Y-66599500D01*
X94729734Y-66593821D01*
X94714945Y-66595617D01*
X94685060Y-66595617D01*
X94677028Y-66594642D01*
X94650929Y-66599500D01*
X94614944Y-66599500D01*
X94579995Y-66608113D01*
X94559858Y-66607226D01*
X94545952Y-66612501D01*
X94516924Y-66619655D01*
X94508918Y-66620626D01*
X94484722Y-66631595D01*
X94449781Y-66640207D01*
X94449774Y-66640210D01*
X94417901Y-66656938D01*
X94398133Y-66660897D01*
X94385884Y-66669353D01*
X94359420Y-66683243D01*
X94351874Y-66686104D01*
X94331019Y-66702537D01*
X94299152Y-66719263D01*
X94299148Y-66719266D01*
X94272200Y-66743139D01*
X94253954Y-66751714D01*
X94244087Y-66762852D01*
X94221713Y-66782674D01*
X94215078Y-66787253D01*
X94198761Y-66808199D01*
X94171817Y-66832070D01*
X94151366Y-66861698D01*
X94135704Y-66874389D01*
X94128788Y-66887567D01*
X94111809Y-66912166D01*
X94106458Y-66918205D01*
X94095630Y-66942444D01*
X94075184Y-66972065D01*
X94075182Y-66972069D01*
X94062416Y-67005729D01*
X94050245Y-67021801D01*
X94046683Y-67036254D01*
X94036084Y-67064202D01*
X94032338Y-67071339D01*
X94027624Y-67097470D01*
X94014860Y-67131126D01*
X94010521Y-67166858D01*
X94002552Y-67185372D01*
X94002552Y-67200263D01*
X93998949Y-67229936D01*
X93997015Y-67237781D01*
X93998692Y-67264268D01*
X93994355Y-67299995D01*
X93994355Y-67300003D01*
X92345150Y-67300003D01*
X92347931Y-64700003D01*
X93994355Y-64700003D01*
X93998692Y-64735730D01*
X93995386Y-64755607D01*
X93998949Y-64770062D01*
X94002552Y-64799735D01*
X94002552Y-64807815D01*
X94010521Y-64833142D01*
X94014859Y-64868870D01*
X94014861Y-64868878D01*
X94027623Y-64902528D01*
X94029171Y-64922624D01*
X94036082Y-64935792D01*
X94046682Y-64963742D01*
X94048613Y-64971579D01*
X94062417Y-64994271D01*
X94066560Y-65005195D01*
X94075182Y-65027931D01*
X94075184Y-65027934D01*
X94095628Y-65057553D01*
X94101938Y-65076689D01*
X94111808Y-65087830D01*
X94128789Y-65112431D01*
X94132543Y-65119584D01*
X94151367Y-65138304D01*
X94171813Y-65167925D01*
X94171814Y-65167926D01*
X94198757Y-65191796D01*
X94209466Y-65208869D01*
X94221713Y-65217323D01*
X94244088Y-65237147D01*
X94249438Y-65243186D01*
X94272204Y-65256864D01*
X94299145Y-65280732D01*
X94299151Y-65280736D01*
X94331011Y-65297457D01*
X94345499Y-65311475D01*
X94359418Y-65316754D01*
X94385888Y-65330647D01*
X94392533Y-65335234D01*
X94417906Y-65343063D01*
X94449775Y-65359790D01*
X94484714Y-65368401D01*
X94502128Y-65378540D01*
X94516911Y-65380336D01*
X94545932Y-65387490D01*
X94553496Y-65390358D01*
X94580003Y-65391887D01*
X94614941Y-65400499D01*
X94614942Y-65400500D01*
X94650937Y-65400500D01*
X94670285Y-65406181D01*
X94685049Y-65404388D01*
X94714954Y-65404388D01*
X94722950Y-65405359D01*
X94749063Y-65400500D01*
X94785058Y-65400500D01*
X94785060Y-65400499D01*
X94819994Y-65391889D01*
X94840131Y-65392774D01*
X94854064Y-65387490D01*
X94883088Y-65380335D01*
X94891113Y-65379360D01*
X94915280Y-65368403D01*
X94950225Y-65359790D01*
X94982089Y-65343065D01*
X95001855Y-65339105D01*
X95014112Y-65330645D01*
X95040582Y-65316753D01*
X95048133Y-65313888D01*
X95068985Y-65297459D01*
X95100852Y-65280734D01*
X95127792Y-65256866D01*
X95146037Y-65248290D01*
X95155907Y-65237150D01*
X95178285Y-65217324D01*
X95184928Y-65212738D01*
X95201243Y-65191795D01*
X95228183Y-65167929D01*
X95248629Y-65138306D01*
X95264290Y-65125614D01*
X95271209Y-65112432D01*
X95288192Y-65087827D01*
X95293546Y-65081783D01*
X95304372Y-65057549D01*
X95324818Y-65027930D01*
X95337580Y-64994278D01*
X95349751Y-64978203D01*
X95353314Y-64963747D01*
X95363916Y-64935791D01*
X95367664Y-64928649D01*
X95372378Y-64902522D01*
X95373145Y-64900500D01*
X95385140Y-64868872D01*
X95392886Y-64805072D01*
X95394229Y-64797743D01*
X95397448Y-64784686D01*
X95397448Y-64784679D01*
X95398012Y-64782392D01*
X95398020Y-64782353D01*
X95402982Y-64762217D01*
X95401307Y-64735724D01*
X95405645Y-64700000D01*
X95401306Y-64664272D01*
X95404612Y-64644391D01*
X95398005Y-64617584D01*
X95397998Y-64617546D01*
X95394232Y-64602266D01*
X95392885Y-64594921D01*
X95385140Y-64531128D01*
X95372376Y-64497474D01*
X95370828Y-64477376D01*
X95363916Y-64464207D01*
X95353314Y-64436252D01*
X95351382Y-64428415D01*
X95337580Y-64405722D01*
X95324818Y-64372070D01*
X95305674Y-64344336D01*
X95304372Y-64342449D01*
X95298059Y-64323308D01*
X95288190Y-64312168D01*
X95271209Y-64287565D01*
X95267458Y-64280418D01*
X95248631Y-64261694D01*
X95228182Y-64232070D01*
X95201241Y-64208202D01*
X95190529Y-64191126D01*
X95178285Y-64182674D01*
X95155909Y-64162850D01*
X95150563Y-64156816D01*
X95127794Y-64143134D01*
X95100856Y-64119269D01*
X95100851Y-64119265D01*
X95068981Y-64102538D01*
X95054496Y-64088522D01*
X95040579Y-64083244D01*
X95014109Y-64069351D01*
X95007471Y-64064769D01*
X94982095Y-64056937D01*
X94950225Y-64040210D01*
X94950224Y-64040209D01*
X94950223Y-64040209D01*
X94915277Y-64031596D01*
X94897850Y-64021449D01*
X94883074Y-64019655D01*
X94854050Y-64012502D01*
X94846511Y-64009643D01*
X94820002Y-64008112D01*
X94785061Y-63999500D01*
X94785056Y-63999500D01*
X94749072Y-63999500D01*
X94729734Y-63993821D01*
X94714945Y-63995617D01*
X94685060Y-63995617D01*
X94677028Y-63994642D01*
X94650929Y-63999500D01*
X94614944Y-63999500D01*
X94579995Y-64008113D01*
X94559858Y-64007226D01*
X94545952Y-64012501D01*
X94516924Y-64019655D01*
X94508918Y-64020626D01*
X94484722Y-64031595D01*
X94449781Y-64040207D01*
X94449774Y-64040210D01*
X94417901Y-64056938D01*
X94398133Y-64060897D01*
X94385884Y-64069353D01*
X94359420Y-64083243D01*
X94351874Y-64086104D01*
X94331019Y-64102537D01*
X94299152Y-64119263D01*
X94299148Y-64119266D01*
X94272200Y-64143139D01*
X94253954Y-64151714D01*
X94244087Y-64162852D01*
X94221713Y-64182674D01*
X94215078Y-64187253D01*
X94198761Y-64208199D01*
X94171817Y-64232070D01*
X94151366Y-64261698D01*
X94135704Y-64274389D01*
X94128788Y-64287567D01*
X94111809Y-64312166D01*
X94106458Y-64318205D01*
X94095630Y-64342444D01*
X94075184Y-64372065D01*
X94075182Y-64372069D01*
X94062416Y-64405729D01*
X94050245Y-64421801D01*
X94046683Y-64436254D01*
X94036084Y-64464202D01*
X94032338Y-64471339D01*
X94027624Y-64497470D01*
X94014860Y-64531126D01*
X94010521Y-64566858D01*
X94002552Y-64585372D01*
X94002552Y-64600263D01*
X93998949Y-64629936D01*
X93997015Y-64637781D01*
X93998692Y-64664268D01*
X93994355Y-64699995D01*
X93994355Y-64700003D01*
X92347931Y-64700003D01*
X92350487Y-62310867D01*
X92352388Y-62289374D01*
X92358048Y-62257448D01*
X92367509Y-62207423D01*
X92381575Y-62133052D01*
X92386356Y-62115201D01*
X92408814Y-62050976D01*
X92445362Y-61956989D01*
X92448651Y-61949892D01*
X92485517Y-61881979D01*
X92487263Y-61878972D01*
X92536999Y-61798722D01*
X92540636Y-61793478D01*
X92588959Y-61730995D01*
X92592134Y-61727213D01*
X92654901Y-61658300D01*
X92658354Y-61654804D01*
X92716089Y-61600850D01*
X92720946Y-61596760D01*
X92796236Y-61539752D01*
X92799059Y-61537739D01*
X92863251Y-61494702D01*
X92870003Y-61490771D01*
X92960164Y-61445634D01*
X93022030Y-61417287D01*
X93039368Y-61410862D01*
X93065078Y-61403463D01*
X93099264Y-61398628D01*
X123577310Y-61375551D01*
X148933498Y-61356353D01*
X156378817Y-61355281D01*
X156400455Y-61357182D01*
G37*
%TD.AperFunction*%
%TD*%
M02*
