M48
; DRILL file {KiCad 7.0.7} date Fri Mar  1 11:28:41 2024
; FORMAT={-:-/ absolute / inch / decimal}
; #@! TF.CreationDate,2024-03-01T11:28:41-05:00
; #@! TF.GenerationSoftware,Kicad,Pcbnew,7.0.7
; #@! TF.FileFunction,MixedPlating,1,4
FMAT,2
INCH
; #@! TA.AperFunction,Plated,PTH,ViaDrill
T1C0.0157
; #@! TA.AperFunction,Plated,PTH,ComponentDrill
T2C0.0394
%
G90
G05
T1
X3.7638Y-3.3543
X3.8701Y-2.9764
X3.8858Y-3.3386
X3.9385Y-3.31
X3.9409Y-2.9016
X4.0945Y-2.9016
X4.0945Y-3.0118
X4.1535Y-3.3228
X4.1732Y-2.9173
X4.1751Y-2.6969
X4.1929Y-2.5276
X4.2205Y-2.8071
X4.2638Y-2.6496
X4.2717Y-2.5394
X4.315Y-2.8346
X4.3506Y-3.3428
X4.3731Y-3.2013
X4.437Y-3.2756
X4.4981Y-3.1127
X4.5Y-3.3228
X4.5118Y-2.9528
X4.5496Y-3.2495
X4.5512Y-3.0276
X4.6532Y-2.8373
X4.6575Y-3.2065
X4.6772Y-2.9646
X4.6831Y-3.0689
X4.7795Y-3.1693
X4.7874Y-2.5197
X4.8071Y-3.0118
X4.874Y-3.0787
X4.937Y-3.2677
X4.9404Y-2.7195
X4.9732Y-3.0465
X4.9921Y-2.6939
X5.003Y-2.9587
X5.0079Y-2.8031
X5.1457Y-2.937
X5.1457Y-3.185
X5.1614Y-3.2756
X5.1624Y-2.8268
X5.1693Y-2.6575
X5.2323Y-3.0591
X5.2362Y-2.9134
X5.2402Y-2.6024
X5.2717Y-2.8386
X5.2913Y-3.3071
X5.315Y-2.7559
X5.3346Y-2.6417
X5.3701Y-2.8278
X5.4094Y-3.0906
X5.4094Y-3.3071
X5.4134Y-2.5315
X5.4134Y-2.7559
X5.4843Y-2.9016
X5.5039Y-2.6417
X5.5197Y-3.3071
X5.5276Y-3.1929
X5.563Y-2.8465
X5.6181Y-3.0315
X5.685Y-2.7008
X5.7598Y-3.0354
X5.7874Y-2.8425
X5.8189Y-2.7677
T2
X3.8317Y-3.0463
X3.8317Y-3.1463
X3.8317Y-3.2463
X3.878Y-2.5575
X3.878Y-2.6575
X3.878Y-2.7575
X3.878Y-2.8575
X5.9685Y-2.811
X5.9685Y-2.911
X5.9685Y-3.011
X5.9685Y-3.111
T0
M30
