%TF.GenerationSoftware,KiCad,Pcbnew,7.0.7*%
%TF.CreationDate,2024-03-01T11:29:19-05:00*%
%TF.ProjectId,Sh_mas,5368e96d-6173-42e6-9b69-6361645f7063,1.0*%
%TF.SameCoordinates,Original*%
%TF.FileFunction,Soldermask,Top*%
%TF.FilePolarity,Negative*%
%FSLAX46Y46*%
G04 Gerber Fmt 4.6, Leading zero omitted, Abs format (unit mm)*
G04 Created by KiCad (PCBNEW 7.0.7) date 2024-03-01 11:29:19*
%MOMM*%
%LPD*%
G01*
G04 APERTURE LIST*
G04 Aperture macros list*
%AMRoundRect*
0 Rectangle with rounded corners*
0 $1 Rounding radius*
0 $2 $3 $4 $5 $6 $7 $8 $9 X,Y pos of 4 corners*
0 Add a 4 corners polygon primitive as box body*
4,1,4,$2,$3,$4,$5,$6,$7,$8,$9,$2,$3,0*
0 Add four circle primitives for the rounded corners*
1,1,$1+$1,$2,$3*
1,1,$1+$1,$4,$5*
1,1,$1+$1,$6,$7*
1,1,$1+$1,$8,$9*
0 Add four rect primitives between the rounded corners*
20,1,$1+$1,$2,$3,$4,$5,0*
20,1,$1+$1,$4,$5,$6,$7,0*
20,1,$1+$1,$6,$7,$8,$9,0*
20,1,$1+$1,$8,$9,$2,$3,0*%
G04 Aperture macros list end*
%ADD10RoundRect,0.250000X0.337500X0.475000X-0.337500X0.475000X-0.337500X-0.475000X0.337500X-0.475000X0*%
%ADD11R,3.000000X2.800000*%
%ADD12RoundRect,0.250000X0.700000X-1.825000X0.700000X1.825000X-0.700000X1.825000X-0.700000X-1.825000X0*%
%ADD13R,2.000000X4.000000*%
%ADD14RoundRect,0.250000X0.475000X-0.337500X0.475000X0.337500X-0.475000X0.337500X-0.475000X-0.337500X0*%
%ADD15RoundRect,0.250000X0.300000X-0.300000X0.300000X0.300000X-0.300000X0.300000X-0.300000X-0.300000X0*%
%ADD16R,1.700000X1.700000*%
%ADD17O,1.700000X1.700000*%
%ADD18RoundRect,0.250000X-0.475000X0.337500X-0.475000X-0.337500X0.475000X-0.337500X0.475000X0.337500X0*%
%ADD19RoundRect,0.250000X-0.337500X-0.475000X0.337500X-0.475000X0.337500X0.475000X-0.337500X0.475000X0*%
%ADD20R,2.000000X1.500000*%
%ADD21R,2.000000X3.800000*%
%ADD22RoundRect,0.150000X-0.825000X-0.150000X0.825000X-0.150000X0.825000X0.150000X-0.825000X0.150000X0*%
G04 APERTURE END LIST*
D10*
%TO.C,C13*%
X104337500Y-64500000D03*
X102262500Y-64500000D03*
%TD*%
D11*
%TO.C,L1*%
X147725000Y-81050000D03*
X137425000Y-81050000D03*
%TD*%
D12*
%TO.C,C14*%
X130675000Y-84625000D03*
X130675000Y-77675000D03*
%TD*%
D13*
%TO.C,C16*%
X144375000Y-65150000D03*
X144375000Y-72250000D03*
%TD*%
D10*
%TO.C,R8*%
X123612500Y-84150000D03*
X121537500Y-84150000D03*
%TD*%
D14*
%TO.C,C12*%
X101800000Y-73937500D03*
X101800000Y-71862500D03*
%TD*%
D10*
%TO.C,R10*%
X103812500Y-67650000D03*
X101737500Y-67650000D03*
%TD*%
D15*
%TO.C,D1*%
X137775000Y-74650000D03*
X137775000Y-71850000D03*
%TD*%
D16*
%TO.C,J1*%
X98500000Y-64960000D03*
D17*
X98500000Y-67500000D03*
X98500000Y-70040000D03*
X98500000Y-72580000D03*
%TD*%
D18*
%TO.C,C10*%
X113875000Y-76612500D03*
X113875000Y-78687500D03*
%TD*%
D16*
%TO.C,J3*%
X151600000Y-71400000D03*
D17*
X151600000Y-73940000D03*
X151600000Y-76480000D03*
X151600000Y-79020000D03*
%TD*%
D10*
%TO.C,R1*%
X128712500Y-63550000D03*
X126637500Y-63550000D03*
%TD*%
%TO.C,R11*%
X103812500Y-69850000D03*
X101737500Y-69850000D03*
%TD*%
D18*
%TO.C,R12*%
X107200000Y-67362500D03*
X107200000Y-69437500D03*
%TD*%
%TO.C,C8*%
X120275000Y-76512500D03*
X120275000Y-78587500D03*
%TD*%
D19*
%TO.C,C4*%
X130237500Y-72050000D03*
X132312500Y-72050000D03*
%TD*%
D20*
%TO.C,U5*%
X131225000Y-64850000D03*
X131225000Y-67150000D03*
D21*
X137525000Y-67150000D03*
D20*
X131225000Y-69450000D03*
%TD*%
D16*
%TO.C,J4*%
X97325000Y-77375000D03*
D17*
X97325000Y-79915000D03*
X97325000Y-82455000D03*
%TD*%
D10*
%TO.C,R2*%
X128912500Y-69750000D03*
X126837500Y-69750000D03*
%TD*%
%TO.C,R9*%
X123712500Y-80750000D03*
X121637500Y-80750000D03*
%TD*%
%TO.C,C3*%
X128812500Y-66350000D03*
X126737500Y-66350000D03*
%TD*%
D22*
%TO.C,U2*%
X114100000Y-80545000D03*
X114100000Y-81815000D03*
X114100000Y-83085000D03*
X114100000Y-84355000D03*
X119050000Y-84355000D03*
X119050000Y-83085000D03*
X119050000Y-81815000D03*
X119050000Y-80545000D03*
%TD*%
M02*
