%TF.GenerationSoftware,KiCad,Pcbnew,7.0.7*%
%TF.CreationDate,2024-03-01T11:29:19-05:00*%
%TF.ProjectId,Sh_mas,5368e96d-6173-42e6-9b69-6361645f7063,1.0*%
%TF.SameCoordinates,Original*%
%TF.FileFunction,Copper,L2,Inr*%
%TF.FilePolarity,Positive*%
%FSLAX46Y46*%
G04 Gerber Fmt 4.6, Leading zero omitted, Abs format (unit mm)*
G04 Created by KiCad (PCBNEW 7.0.7) date 2024-03-01 11:29:19*
%MOMM*%
%LPD*%
G01*
G04 APERTURE LIST*
%TA.AperFunction,ComponentPad*%
%ADD10R,1.700000X1.700000*%
%TD*%
%TA.AperFunction,ComponentPad*%
%ADD11O,1.700000X1.700000*%
%TD*%
%TA.AperFunction,ViaPad*%
%ADD12C,0.800000*%
%TD*%
G04 APERTURE END LIST*
D10*
%TO.N,+12V*%
%TO.C,J1*%
X98500000Y-64960000D03*
D11*
%TO.N,Net-(J1-Pin_2)*%
X98500000Y-67500000D03*
%TO.N,Net-(J1-Pin_3)*%
X98500000Y-70040000D03*
%TO.N,GND*%
X98500000Y-72580000D03*
%TD*%
D10*
%TO.N,+12V*%
%TO.C,J3*%
X151600000Y-71400000D03*
D11*
%TO.N,Net-(J1-Pin_2)*%
X151600000Y-73940000D03*
%TO.N,Net-(J1-Pin_3)*%
X151600000Y-76480000D03*
%TO.N,GND*%
X151600000Y-79020000D03*
%TD*%
D10*
%TO.N,+5V*%
%TO.C,J4*%
X97325000Y-77375000D03*
D11*
%TO.N,Net-(J4-Pin_2)*%
X97325000Y-79915000D03*
%TO.N,GND*%
X97325000Y-82455000D03*
%TD*%
D12*
%TO.N,Net-(D1-K)*%
X139300000Y-73700000D03*
%TO.N,+5V*%
X115560099Y-82537005D03*
X147800000Y-70300000D03*
X131300000Y-67500000D03*
X140400000Y-81100000D03*
X139800000Y-67100000D03*
X134400000Y-84000000D03*
X137500000Y-70000000D03*
X114253009Y-79062995D03*
X137400000Y-78500000D03*
X140200000Y-84000000D03*
X98700000Y-84800000D03*
X135500000Y-67100000D03*
X95600000Y-85200000D03*
X137400000Y-84000000D03*
X109600000Y-72000000D03*
X137500000Y-64300000D03*
X131100000Y-83200000D03*
X115600000Y-76900000D03*
X133100000Y-66100000D03*
X108500000Y-64500000D03*
%TO.N,GND*%
X147000000Y-72200000D03*
X104000000Y-73700000D03*
X130700000Y-74600000D03*
X122100000Y-76500000D03*
X130700000Y-80900000D03*
X135000004Y-70000000D03*
X121600000Y-64000000D03*
X132900000Y-77700000D03*
X114600000Y-75000000D03*
X105500000Y-84400000D03*
X133900000Y-72100000D03*
X110506385Y-84906387D03*
X136399660Y-71826139D03*
X118800000Y-75300000D03*
X100036951Y-84075000D03*
X104000000Y-76500000D03*
X144400000Y-68600000D03*
X98300000Y-75600000D03*
X126800000Y-68425500D03*
X100100000Y-73700000D03*
X126318719Y-77381281D03*
X106048390Y-68502508D03*
X106000000Y-74100000D03*
X114300000Y-84400000D03*
X146300000Y-77100000D03*
X141300000Y-72300000D03*
X106500000Y-64200000D03*
%TO.N,+3.3V*%
X125400000Y-83000000D03*
X118950000Y-77950000D03*
X123800000Y-78200000D03*
X131125500Y-71800000D03*
X127075500Y-75150528D03*
X121400000Y-80500000D03*
X133000006Y-74000000D03*
X127200000Y-71200000D03*
X125485133Y-69074444D03*
%TO.N,+12V*%
X142700000Y-77000000D03*
%TO.N,/SCLA*%
X111077051Y-81312561D03*
%TO.N,/SDAA*%
X112700000Y-83200000D03*
%TO.N,/SCLB*%
X118191691Y-72066385D03*
%TO.N,/SDAB*%
X118300000Y-81444500D03*
%TO.N,Net-(U6-CANH)*%
X107200000Y-71300000D03*
%TO.N,Net-(U6-CANL)*%
X108300000Y-67300000D03*
%TD*%
%TA.AperFunction,Conductor*%
%TO.N,GND*%
G36*
X156574585Y-61398429D02*
G01*
X156615307Y-61405374D01*
X156638490Y-61413480D01*
X156732897Y-61450192D01*
X156739983Y-61453476D01*
X156807475Y-61490110D01*
X156810512Y-61491874D01*
X156891236Y-61541903D01*
X156896493Y-61545550D01*
X156917631Y-61561897D01*
X156958497Y-61593500D01*
X156962320Y-61596710D01*
X157031721Y-61659922D01*
X157035271Y-61663426D01*
X157088674Y-61720568D01*
X157092808Y-61725478D01*
X157150388Y-61801522D01*
X157152456Y-61804423D01*
X157194895Y-61867721D01*
X157198843Y-61874499D01*
X157244720Y-61966137D01*
X157272377Y-62026495D01*
X157278811Y-62043856D01*
X157315135Y-62170080D01*
X157320927Y-62191116D01*
X157325377Y-62224064D01*
X157319722Y-86403835D01*
X157317820Y-86425444D01*
X157312188Y-86457223D01*
X157288637Y-86581740D01*
X157283850Y-86599618D01*
X157261522Y-86663485D01*
X157224814Y-86757879D01*
X157221517Y-86764992D01*
X157184901Y-86832450D01*
X157183110Y-86835534D01*
X157133100Y-86916228D01*
X157129443Y-86921499D01*
X157081498Y-86983497D01*
X157078288Y-86987320D01*
X157015076Y-87056721D01*
X157011572Y-87060271D01*
X156954430Y-87113674D01*
X156949520Y-87117808D01*
X156873476Y-87175388D01*
X156870575Y-87177456D01*
X156807277Y-87219895D01*
X156800499Y-87223843D01*
X156708862Y-87269720D01*
X156648502Y-87297377D01*
X156631143Y-87303811D01*
X156504936Y-87340130D01*
X156483873Y-87345930D01*
X156450944Y-87350379D01*
X93271176Y-87344720D01*
X93249553Y-87342818D01*
X93217789Y-87337190D01*
X93093258Y-87313637D01*
X93075379Y-87308850D01*
X93060966Y-87303811D01*
X93011521Y-87286523D01*
X92966913Y-87269177D01*
X92917120Y-87249814D01*
X92910006Y-87246517D01*
X92842548Y-87209901D01*
X92839464Y-87208110D01*
X92758770Y-87158100D01*
X92753499Y-87154443D01*
X92691501Y-87106498D01*
X92687678Y-87103288D01*
X92618277Y-87040076D01*
X92614727Y-87036572D01*
X92603622Y-87024690D01*
X92561324Y-86979430D01*
X92557190Y-86974520D01*
X92499610Y-86898476D01*
X92497542Y-86895575D01*
X92455103Y-86832277D01*
X92451155Y-86825499D01*
X92417303Y-86757879D01*
X92405279Y-86733862D01*
X92391384Y-86703538D01*
X92377622Y-86673504D01*
X92371187Y-86656142D01*
X92369084Y-86648837D01*
X92334851Y-86529871D01*
X92329085Y-86508935D01*
X92324637Y-86475890D01*
X92326002Y-85200000D01*
X94694540Y-85200000D01*
X94714326Y-85388256D01*
X94714327Y-85388259D01*
X94772818Y-85568277D01*
X94772821Y-85568284D01*
X94867467Y-85732216D01*
X94994128Y-85872887D01*
X94994129Y-85872888D01*
X95147265Y-85984148D01*
X95147270Y-85984151D01*
X95320192Y-86061142D01*
X95320197Y-86061144D01*
X95505354Y-86100500D01*
X95505355Y-86100500D01*
X95694644Y-86100500D01*
X95694646Y-86100500D01*
X95879803Y-86061144D01*
X96052730Y-85984151D01*
X96205871Y-85872888D01*
X96332533Y-85732216D01*
X96427179Y-85568284D01*
X96485674Y-85388256D01*
X96505460Y-85200000D01*
X96485674Y-85011744D01*
X96427179Y-84831716D01*
X96408868Y-84800000D01*
X97794540Y-84800000D01*
X97814326Y-84988256D01*
X97814327Y-84988259D01*
X97872818Y-85168277D01*
X97872821Y-85168284D01*
X97967467Y-85332216D01*
X98094128Y-85472887D01*
X98094129Y-85472888D01*
X98247265Y-85584148D01*
X98247270Y-85584151D01*
X98420192Y-85661142D01*
X98420197Y-85661144D01*
X98605354Y-85700500D01*
X98605355Y-85700500D01*
X98794644Y-85700500D01*
X98794646Y-85700500D01*
X98979803Y-85661144D01*
X99152730Y-85584151D01*
X99305871Y-85472888D01*
X99432533Y-85332216D01*
X99527179Y-85168284D01*
X99585674Y-84988256D01*
X99605460Y-84800000D01*
X99585674Y-84611744D01*
X99527179Y-84431716D01*
X99432533Y-84267784D01*
X99305871Y-84127112D01*
X99269243Y-84100500D01*
X99152734Y-84015851D01*
X99152729Y-84015848D01*
X98979807Y-83938857D01*
X98979802Y-83938855D01*
X98834001Y-83907865D01*
X98794646Y-83899500D01*
X98605354Y-83899500D01*
X98572897Y-83906398D01*
X98420197Y-83938855D01*
X98420192Y-83938857D01*
X98247270Y-84015848D01*
X98247265Y-84015851D01*
X98094129Y-84127111D01*
X97967466Y-84267785D01*
X97872821Y-84431715D01*
X97872818Y-84431722D01*
X97840166Y-84532216D01*
X97814326Y-84611744D01*
X97794540Y-84800000D01*
X96408868Y-84800000D01*
X96332533Y-84667784D01*
X96205871Y-84527112D01*
X96205870Y-84527111D01*
X96052734Y-84415851D01*
X96052729Y-84415848D01*
X95879807Y-84338857D01*
X95879802Y-84338855D01*
X95734001Y-84307865D01*
X95694646Y-84299500D01*
X95505354Y-84299500D01*
X95472897Y-84306398D01*
X95320197Y-84338855D01*
X95320192Y-84338857D01*
X95147270Y-84415848D01*
X95147265Y-84415851D01*
X94994129Y-84527111D01*
X94867466Y-84667785D01*
X94772821Y-84831715D01*
X94772818Y-84831722D01*
X94714327Y-85011740D01*
X94714326Y-85011744D01*
X94694540Y-85200000D01*
X92326002Y-85200000D01*
X92327679Y-83631722D01*
X92329104Y-82300003D01*
X93394355Y-82300003D01*
X93398692Y-82335730D01*
X93395386Y-82355607D01*
X93398949Y-82370062D01*
X93402552Y-82399735D01*
X93402552Y-82407815D01*
X93410521Y-82433142D01*
X93414859Y-82468870D01*
X93414861Y-82468878D01*
X93427623Y-82502528D01*
X93429171Y-82522624D01*
X93436082Y-82535792D01*
X93446682Y-82563742D01*
X93448613Y-82571579D01*
X93462417Y-82594271D01*
X93467601Y-82607940D01*
X93475182Y-82627931D01*
X93475184Y-82627934D01*
X93495628Y-82657553D01*
X93501938Y-82676689D01*
X93511808Y-82687830D01*
X93528789Y-82712431D01*
X93532543Y-82719584D01*
X93551367Y-82738304D01*
X93571813Y-82767925D01*
X93571814Y-82767926D01*
X93598757Y-82791796D01*
X93609466Y-82808869D01*
X93621713Y-82817323D01*
X93644088Y-82837147D01*
X93649438Y-82843186D01*
X93672204Y-82856864D01*
X93699145Y-82880732D01*
X93699151Y-82880736D01*
X93731011Y-82897457D01*
X93745499Y-82911475D01*
X93759418Y-82916754D01*
X93785888Y-82930647D01*
X93792533Y-82935234D01*
X93817906Y-82943063D01*
X93849775Y-82959790D01*
X93884714Y-82968401D01*
X93902128Y-82978540D01*
X93916911Y-82980336D01*
X93945932Y-82987490D01*
X93953496Y-82990358D01*
X93980003Y-82991887D01*
X94014941Y-83000499D01*
X94014942Y-83000500D01*
X94050937Y-83000500D01*
X94070285Y-83006181D01*
X94085049Y-83004388D01*
X94114954Y-83004388D01*
X94122950Y-83005359D01*
X94149063Y-83000500D01*
X94185058Y-83000500D01*
X94185060Y-83000499D01*
X94219994Y-82991889D01*
X94240131Y-82992774D01*
X94254064Y-82987490D01*
X94283088Y-82980335D01*
X94291113Y-82979360D01*
X94315280Y-82968403D01*
X94350225Y-82959790D01*
X94382089Y-82943065D01*
X94401855Y-82939105D01*
X94414112Y-82930645D01*
X94440582Y-82916753D01*
X94448133Y-82913888D01*
X94468985Y-82897459D01*
X94500852Y-82880734D01*
X94527792Y-82856866D01*
X94546037Y-82848290D01*
X94555907Y-82837150D01*
X94578285Y-82817324D01*
X94584928Y-82812738D01*
X94601243Y-82791795D01*
X94628183Y-82767929D01*
X94648629Y-82738306D01*
X94664290Y-82725614D01*
X94671209Y-82712432D01*
X94688192Y-82687827D01*
X94693546Y-82681783D01*
X94704372Y-82657549D01*
X94724818Y-82627930D01*
X94737580Y-82594278D01*
X94749751Y-82578203D01*
X94753314Y-82563747D01*
X94763916Y-82535791D01*
X94767664Y-82528649D01*
X94772378Y-82502522D01*
X94785140Y-82468872D01*
X94792886Y-82405072D01*
X94794229Y-82397743D01*
X94797448Y-82384686D01*
X94797448Y-82384679D01*
X94798012Y-82382392D01*
X94798020Y-82382353D01*
X94802982Y-82362217D01*
X94801307Y-82335724D01*
X94805645Y-82300000D01*
X94801306Y-82264272D01*
X94804612Y-82244391D01*
X94798005Y-82217584D01*
X94797999Y-82217551D01*
X94797448Y-82215314D01*
X94794232Y-82202266D01*
X94792885Y-82194915D01*
X94785140Y-82131128D01*
X94772376Y-82097474D01*
X94770828Y-82077376D01*
X94763916Y-82064207D01*
X94753314Y-82036252D01*
X94751382Y-82028415D01*
X94737580Y-82005722D01*
X94724818Y-81972070D01*
X94717276Y-81961144D01*
X94704372Y-81942449D01*
X94698059Y-81923308D01*
X94688190Y-81912168D01*
X94671209Y-81887565D01*
X94667458Y-81880418D01*
X94648631Y-81861694D01*
X94628182Y-81832070D01*
X94601241Y-81808202D01*
X94590529Y-81791126D01*
X94578285Y-81782674D01*
X94555909Y-81762850D01*
X94550563Y-81756816D01*
X94527794Y-81743134D01*
X94500856Y-81719269D01*
X94500851Y-81719265D01*
X94468981Y-81702538D01*
X94454496Y-81688522D01*
X94440579Y-81683244D01*
X94414109Y-81669351D01*
X94407471Y-81664769D01*
X94382095Y-81656937D01*
X94350225Y-81640210D01*
X94350224Y-81640209D01*
X94350223Y-81640209D01*
X94315277Y-81631596D01*
X94297850Y-81621449D01*
X94283074Y-81619655D01*
X94254050Y-81612502D01*
X94246511Y-81609643D01*
X94220002Y-81608112D01*
X94185061Y-81599500D01*
X94185056Y-81599500D01*
X94149072Y-81599500D01*
X94129734Y-81593821D01*
X94114945Y-81595617D01*
X94085060Y-81595617D01*
X94077028Y-81594642D01*
X94050929Y-81599500D01*
X94014944Y-81599500D01*
X93979995Y-81608113D01*
X93959858Y-81607226D01*
X93945952Y-81612501D01*
X93916924Y-81619655D01*
X93908918Y-81620626D01*
X93884722Y-81631595D01*
X93849781Y-81640207D01*
X93849774Y-81640210D01*
X93817901Y-81656938D01*
X93798133Y-81660897D01*
X93785884Y-81669353D01*
X93759420Y-81683243D01*
X93751874Y-81686104D01*
X93731019Y-81702537D01*
X93699152Y-81719263D01*
X93699148Y-81719266D01*
X93672200Y-81743139D01*
X93653954Y-81751714D01*
X93644087Y-81762852D01*
X93621713Y-81782674D01*
X93615078Y-81787253D01*
X93598761Y-81808199D01*
X93571817Y-81832070D01*
X93551366Y-81861698D01*
X93535704Y-81874389D01*
X93528788Y-81887567D01*
X93511809Y-81912166D01*
X93506458Y-81918205D01*
X93495630Y-81942444D01*
X93475184Y-81972065D01*
X93475182Y-81972069D01*
X93462416Y-82005729D01*
X93450245Y-82021801D01*
X93446683Y-82036254D01*
X93436084Y-82064202D01*
X93432338Y-82071339D01*
X93427624Y-82097470D01*
X93414860Y-82131126D01*
X93410521Y-82166858D01*
X93402552Y-82185372D01*
X93402552Y-82200263D01*
X93398949Y-82229936D01*
X93397015Y-82237781D01*
X93398692Y-82264268D01*
X93394355Y-82299995D01*
X93394355Y-82300003D01*
X92329104Y-82300003D01*
X92331992Y-79600003D01*
X93394355Y-79600003D01*
X93398692Y-79635730D01*
X93395386Y-79655607D01*
X93398949Y-79670062D01*
X93402552Y-79699735D01*
X93402552Y-79707815D01*
X93410521Y-79733142D01*
X93414859Y-79768870D01*
X93414861Y-79768878D01*
X93427623Y-79802528D01*
X93429171Y-79822624D01*
X93436082Y-79835792D01*
X93446682Y-79863742D01*
X93448613Y-79871579D01*
X93462417Y-79894271D01*
X93467601Y-79907940D01*
X93475182Y-79927931D01*
X93475184Y-79927934D01*
X93495628Y-79957553D01*
X93501938Y-79976689D01*
X93511808Y-79987830D01*
X93528789Y-80012431D01*
X93532543Y-80019584D01*
X93551367Y-80038304D01*
X93571813Y-80067925D01*
X93571814Y-80067926D01*
X93598757Y-80091796D01*
X93609466Y-80108869D01*
X93621713Y-80117323D01*
X93644088Y-80137147D01*
X93649438Y-80143186D01*
X93672204Y-80156864D01*
X93699145Y-80180732D01*
X93699151Y-80180736D01*
X93731011Y-80197457D01*
X93745499Y-80211475D01*
X93759418Y-80216754D01*
X93785888Y-80230647D01*
X93792533Y-80235234D01*
X93817906Y-80243063D01*
X93849775Y-80259790D01*
X93884714Y-80268401D01*
X93902128Y-80278540D01*
X93916911Y-80280336D01*
X93945932Y-80287490D01*
X93953496Y-80290358D01*
X93980003Y-80291887D01*
X94014941Y-80300499D01*
X94014942Y-80300500D01*
X94050937Y-80300500D01*
X94070285Y-80306181D01*
X94085049Y-80304388D01*
X94114954Y-80304388D01*
X94122950Y-80305359D01*
X94149063Y-80300500D01*
X94185058Y-80300500D01*
X94185060Y-80300499D01*
X94219994Y-80291889D01*
X94240131Y-80292774D01*
X94254064Y-80287490D01*
X94283088Y-80280335D01*
X94291113Y-80279360D01*
X94315280Y-80268403D01*
X94350225Y-80259790D01*
X94382089Y-80243065D01*
X94401855Y-80239105D01*
X94414112Y-80230645D01*
X94440582Y-80216753D01*
X94448133Y-80213888D01*
X94468985Y-80197459D01*
X94500852Y-80180734D01*
X94527792Y-80156866D01*
X94546037Y-80148290D01*
X94555907Y-80137150D01*
X94578285Y-80117324D01*
X94584928Y-80112738D01*
X94601243Y-80091795D01*
X94628183Y-80067929D01*
X94648629Y-80038306D01*
X94664290Y-80025614D01*
X94671209Y-80012432D01*
X94688192Y-79987827D01*
X94693546Y-79981783D01*
X94704372Y-79957549D01*
X94724818Y-79927930D01*
X94729722Y-79915000D01*
X95969341Y-79915000D01*
X95989936Y-80150403D01*
X95989938Y-80150413D01*
X96051094Y-80378655D01*
X96051096Y-80378659D01*
X96051097Y-80378663D01*
X96120926Y-80528412D01*
X96150965Y-80592830D01*
X96150967Y-80592834D01*
X96286501Y-80786395D01*
X96286506Y-80786402D01*
X96453597Y-80953493D01*
X96453603Y-80953498D01*
X96639594Y-81083730D01*
X96683219Y-81138307D01*
X96690413Y-81207805D01*
X96658890Y-81270160D01*
X96639595Y-81286880D01*
X96453922Y-81416890D01*
X96453920Y-81416891D01*
X96286891Y-81583920D01*
X96286886Y-81583926D01*
X96151400Y-81777420D01*
X96151399Y-81777422D01*
X96051570Y-81991507D01*
X96051567Y-81991513D01*
X95994364Y-82204999D01*
X95994364Y-82205000D01*
X96711653Y-82205000D01*
X96778692Y-82224685D01*
X96824447Y-82277489D01*
X96834391Y-82346647D01*
X96830631Y-82363933D01*
X96825223Y-82382353D01*
X96825000Y-82383111D01*
X96825000Y-82526889D01*
X96825517Y-82528649D01*
X96830631Y-82546067D01*
X96830630Y-82615936D01*
X96792855Y-82674714D01*
X96729299Y-82703738D01*
X96711653Y-82705000D01*
X95994364Y-82705000D01*
X96051567Y-82918486D01*
X96051570Y-82918492D01*
X96151399Y-83132578D01*
X96286894Y-83326082D01*
X96453917Y-83493105D01*
X96647421Y-83628600D01*
X96861507Y-83728429D01*
X96861516Y-83728433D01*
X97075000Y-83785634D01*
X97075000Y-83067301D01*
X97094685Y-83000262D01*
X97147489Y-82954507D01*
X97216647Y-82944563D01*
X97289237Y-82955000D01*
X97289238Y-82955000D01*
X97360762Y-82955000D01*
X97360763Y-82955000D01*
X97433353Y-82944563D01*
X97502512Y-82954507D01*
X97555315Y-83000262D01*
X97575000Y-83067301D01*
X97575000Y-83785633D01*
X97788483Y-83728433D01*
X97788492Y-83728429D01*
X98002578Y-83628600D01*
X98196082Y-83493105D01*
X98363105Y-83326082D01*
X98451390Y-83200000D01*
X111794540Y-83200000D01*
X111814326Y-83388256D01*
X111814327Y-83388259D01*
X111872818Y-83568277D01*
X111872821Y-83568284D01*
X111967467Y-83732216D01*
X112015565Y-83785634D01*
X112094129Y-83872888D01*
X112247265Y-83984148D01*
X112247270Y-83984151D01*
X112420192Y-84061142D01*
X112420197Y-84061144D01*
X112605354Y-84100500D01*
X112605355Y-84100500D01*
X112794644Y-84100500D01*
X112794646Y-84100500D01*
X112979803Y-84061144D01*
X113152730Y-83984151D01*
X113305871Y-83872888D01*
X113432533Y-83732216D01*
X113527179Y-83568284D01*
X113585674Y-83388256D01*
X113605460Y-83200000D01*
X113585674Y-83011744D01*
X113527179Y-82831716D01*
X113432533Y-82667784D01*
X113314779Y-82537005D01*
X114654639Y-82537005D01*
X114674425Y-82725261D01*
X114674426Y-82725264D01*
X114732917Y-82905282D01*
X114732920Y-82905289D01*
X114827566Y-83069221D01*
X114890265Y-83138855D01*
X114954228Y-83209893D01*
X115107364Y-83321153D01*
X115107369Y-83321156D01*
X115280291Y-83398147D01*
X115280296Y-83398149D01*
X115465453Y-83437505D01*
X115465454Y-83437505D01*
X115654743Y-83437505D01*
X115654745Y-83437505D01*
X115839902Y-83398149D01*
X116012829Y-83321156D01*
X116165970Y-83209893D01*
X116292632Y-83069221D01*
X116332597Y-83000000D01*
X124494540Y-83000000D01*
X124514326Y-83188256D01*
X124514327Y-83188259D01*
X124572818Y-83368277D01*
X124572821Y-83368284D01*
X124667467Y-83532216D01*
X124757063Y-83631722D01*
X124794129Y-83672888D01*
X124947265Y-83784148D01*
X124947270Y-83784151D01*
X125120192Y-83861142D01*
X125120197Y-83861144D01*
X125305354Y-83900500D01*
X125305355Y-83900500D01*
X125494644Y-83900500D01*
X125494646Y-83900500D01*
X125679803Y-83861144D01*
X125852730Y-83784151D01*
X126005871Y-83672888D01*
X126132533Y-83532216D01*
X126227179Y-83368284D01*
X126281858Y-83200000D01*
X130194540Y-83200000D01*
X130214326Y-83388256D01*
X130214327Y-83388259D01*
X130272818Y-83568277D01*
X130272821Y-83568284D01*
X130367467Y-83732216D01*
X130415565Y-83785634D01*
X130494129Y-83872888D01*
X130647265Y-83984148D01*
X130647270Y-83984151D01*
X130820192Y-84061142D01*
X130820197Y-84061144D01*
X131005354Y-84100500D01*
X131005355Y-84100500D01*
X131194644Y-84100500D01*
X131194646Y-84100500D01*
X131379803Y-84061144D01*
X131517133Y-84000000D01*
X133494540Y-84000000D01*
X133514326Y-84188256D01*
X133514327Y-84188259D01*
X133572818Y-84368277D01*
X133572821Y-84368284D01*
X133667467Y-84532216D01*
X133739071Y-84611740D01*
X133794129Y-84672888D01*
X133947265Y-84784148D01*
X133947270Y-84784151D01*
X134120192Y-84861142D01*
X134120197Y-84861144D01*
X134305354Y-84900500D01*
X134305355Y-84900500D01*
X134494644Y-84900500D01*
X134494646Y-84900500D01*
X134679803Y-84861144D01*
X134852730Y-84784151D01*
X135005871Y-84672888D01*
X135132533Y-84532216D01*
X135227179Y-84368284D01*
X135285674Y-84188256D01*
X135305460Y-84000000D01*
X136494540Y-84000000D01*
X136514326Y-84188256D01*
X136514327Y-84188259D01*
X136572818Y-84368277D01*
X136572821Y-84368284D01*
X136667467Y-84532216D01*
X136739071Y-84611740D01*
X136794129Y-84672888D01*
X136947265Y-84784148D01*
X136947270Y-84784151D01*
X137120192Y-84861142D01*
X137120197Y-84861144D01*
X137305354Y-84900500D01*
X137305355Y-84900500D01*
X137494644Y-84900500D01*
X137494646Y-84900500D01*
X137679803Y-84861144D01*
X137852730Y-84784151D01*
X138005871Y-84672888D01*
X138132533Y-84532216D01*
X138227179Y-84368284D01*
X138285674Y-84188256D01*
X138305460Y-84000000D01*
X139294540Y-84000000D01*
X139314326Y-84188256D01*
X139314327Y-84188259D01*
X139372818Y-84368277D01*
X139372821Y-84368284D01*
X139467467Y-84532216D01*
X139539071Y-84611740D01*
X139594129Y-84672888D01*
X139747265Y-84784148D01*
X139747270Y-84784151D01*
X139920192Y-84861142D01*
X139920197Y-84861144D01*
X140105354Y-84900500D01*
X140105355Y-84900500D01*
X140294644Y-84900500D01*
X140294646Y-84900500D01*
X140479803Y-84861144D01*
X140652730Y-84784151D01*
X140805871Y-84672888D01*
X140932533Y-84532216D01*
X141027179Y-84368284D01*
X141085674Y-84188256D01*
X141105460Y-84000000D01*
X141085674Y-83811744D01*
X141027179Y-83631716D01*
X140932533Y-83467784D01*
X140805871Y-83327112D01*
X140805870Y-83327111D01*
X140652734Y-83215851D01*
X140652729Y-83215848D01*
X140479807Y-83138857D01*
X140479802Y-83138855D01*
X140334001Y-83107865D01*
X140294646Y-83099500D01*
X140105354Y-83099500D01*
X140072897Y-83106398D01*
X139920197Y-83138855D01*
X139920192Y-83138857D01*
X139747270Y-83215848D01*
X139747265Y-83215851D01*
X139594129Y-83327111D01*
X139467466Y-83467785D01*
X139372821Y-83631715D01*
X139372818Y-83631722D01*
X139314327Y-83811740D01*
X139314326Y-83811744D01*
X139294540Y-84000000D01*
X138305460Y-84000000D01*
X138285674Y-83811744D01*
X138227179Y-83631716D01*
X138132533Y-83467784D01*
X138005871Y-83327112D01*
X138005870Y-83327111D01*
X137852734Y-83215851D01*
X137852729Y-83215848D01*
X137679807Y-83138857D01*
X137679802Y-83138855D01*
X137534000Y-83107865D01*
X137494646Y-83099500D01*
X137305354Y-83099500D01*
X137272897Y-83106398D01*
X137120197Y-83138855D01*
X137120192Y-83138857D01*
X136947270Y-83215848D01*
X136947265Y-83215851D01*
X136794129Y-83327111D01*
X136667466Y-83467785D01*
X136572821Y-83631715D01*
X136572818Y-83631722D01*
X136514327Y-83811740D01*
X136514326Y-83811744D01*
X136494540Y-84000000D01*
X135305460Y-84000000D01*
X135285674Y-83811744D01*
X135227179Y-83631716D01*
X135132533Y-83467784D01*
X135005871Y-83327112D01*
X135005870Y-83327111D01*
X134852734Y-83215851D01*
X134852729Y-83215848D01*
X134679807Y-83138857D01*
X134679802Y-83138855D01*
X134534001Y-83107865D01*
X134494646Y-83099500D01*
X134305354Y-83099500D01*
X134272897Y-83106398D01*
X134120197Y-83138855D01*
X134120192Y-83138857D01*
X133947270Y-83215848D01*
X133947265Y-83215851D01*
X133794129Y-83327111D01*
X133667466Y-83467785D01*
X133572821Y-83631715D01*
X133572818Y-83631722D01*
X133514327Y-83811740D01*
X133514326Y-83811744D01*
X133494540Y-84000000D01*
X131517133Y-84000000D01*
X131552730Y-83984151D01*
X131705871Y-83872888D01*
X131832533Y-83732216D01*
X131927179Y-83568284D01*
X131985674Y-83388256D01*
X132005460Y-83200000D01*
X131985674Y-83011744D01*
X131927179Y-82831716D01*
X131832533Y-82667784D01*
X131705871Y-82527112D01*
X131672026Y-82502522D01*
X131552734Y-82415851D01*
X131552729Y-82415848D01*
X131379807Y-82338857D01*
X131379802Y-82338855D01*
X131197012Y-82300003D01*
X131194646Y-82299500D01*
X131005354Y-82299500D01*
X131002988Y-82300003D01*
X130820197Y-82338855D01*
X130820192Y-82338857D01*
X130647270Y-82415848D01*
X130647265Y-82415851D01*
X130494129Y-82527111D01*
X130367466Y-82667785D01*
X130272821Y-82831715D01*
X130272818Y-82831722D01*
X130214327Y-83011740D01*
X130214326Y-83011744D01*
X130194540Y-83200000D01*
X126281858Y-83200000D01*
X126285674Y-83188256D01*
X126305460Y-83000000D01*
X126285674Y-82811744D01*
X126227179Y-82631716D01*
X126132533Y-82467784D01*
X126005871Y-82327112D01*
X125976323Y-82305644D01*
X125852734Y-82215851D01*
X125852729Y-82215848D01*
X125679807Y-82138857D01*
X125679802Y-82138855D01*
X125534000Y-82107865D01*
X125494646Y-82099500D01*
X125305354Y-82099500D01*
X125272897Y-82106398D01*
X125120197Y-82138855D01*
X125120192Y-82138857D01*
X124947270Y-82215848D01*
X124947265Y-82215851D01*
X124794129Y-82327111D01*
X124667466Y-82467785D01*
X124572821Y-82631715D01*
X124572818Y-82631722D01*
X124515260Y-82808869D01*
X124514326Y-82811744D01*
X124503289Y-82916754D01*
X124495129Y-82994400D01*
X124494540Y-83000000D01*
X116332597Y-83000000D01*
X116387278Y-82905289D01*
X116445773Y-82725261D01*
X116465559Y-82537005D01*
X116445773Y-82348749D01*
X116387278Y-82168721D01*
X116292632Y-82004789D01*
X116165970Y-81864117D01*
X116139348Y-81844775D01*
X116012833Y-81752856D01*
X116012828Y-81752853D01*
X115839906Y-81675862D01*
X115839901Y-81675860D01*
X115694099Y-81644870D01*
X115654745Y-81636505D01*
X115465453Y-81636505D01*
X115432996Y-81643403D01*
X115280296Y-81675860D01*
X115280291Y-81675862D01*
X115107369Y-81752853D01*
X115107364Y-81752856D01*
X114954228Y-81864116D01*
X114827565Y-82004790D01*
X114732920Y-82168720D01*
X114732917Y-82168727D01*
X114677639Y-82338856D01*
X114674425Y-82348749D01*
X114654639Y-82537005D01*
X113314779Y-82537005D01*
X113305871Y-82527112D01*
X113272026Y-82502522D01*
X113152734Y-82415851D01*
X113152729Y-82415848D01*
X112979807Y-82338857D01*
X112979802Y-82338855D01*
X112797012Y-82300003D01*
X112794646Y-82299500D01*
X112605354Y-82299500D01*
X112602988Y-82300003D01*
X112420197Y-82338855D01*
X112420192Y-82338857D01*
X112247270Y-82415848D01*
X112247265Y-82415851D01*
X112094129Y-82527111D01*
X111967466Y-82667785D01*
X111872821Y-82831715D01*
X111872818Y-82831722D01*
X111814327Y-83011740D01*
X111814326Y-83011744D01*
X111794540Y-83200000D01*
X98451390Y-83200000D01*
X98498600Y-83132578D01*
X98598429Y-82918492D01*
X98598432Y-82918486D01*
X98655636Y-82705000D01*
X97938347Y-82705000D01*
X97871308Y-82685315D01*
X97825553Y-82632511D01*
X97815609Y-82563353D01*
X97819369Y-82546067D01*
X97824483Y-82528649D01*
X97825000Y-82526889D01*
X97825000Y-82383111D01*
X97824777Y-82382353D01*
X97819369Y-82363933D01*
X97819370Y-82294064D01*
X97857145Y-82235286D01*
X97920701Y-82206262D01*
X97938347Y-82205000D01*
X98655636Y-82205000D01*
X98655635Y-82204999D01*
X98598432Y-81991513D01*
X98598429Y-81991507D01*
X98498600Y-81777422D01*
X98498599Y-81777420D01*
X98363113Y-81583926D01*
X98363108Y-81583920D01*
X98196078Y-81416890D01*
X98047082Y-81312561D01*
X110171591Y-81312561D01*
X110191377Y-81500817D01*
X110191378Y-81500820D01*
X110249869Y-81680838D01*
X110249872Y-81680845D01*
X110344518Y-81844777D01*
X110461705Y-81974926D01*
X110471180Y-81985449D01*
X110624316Y-82096709D01*
X110624321Y-82096712D01*
X110797243Y-82173703D01*
X110797248Y-82173705D01*
X110982405Y-82213061D01*
X110982406Y-82213061D01*
X111171695Y-82213061D01*
X111171697Y-82213061D01*
X111356854Y-82173705D01*
X111529781Y-82096712D01*
X111682922Y-81985449D01*
X111809584Y-81844777D01*
X111904230Y-81680845D01*
X111962725Y-81500817D01*
X111968644Y-81444500D01*
X117394540Y-81444500D01*
X117414326Y-81632756D01*
X117414327Y-81632759D01*
X117472818Y-81812777D01*
X117472821Y-81812784D01*
X117567467Y-81976716D01*
X117675512Y-82096712D01*
X117694129Y-82117388D01*
X117847265Y-82228648D01*
X117847270Y-82228651D01*
X118020192Y-82305642D01*
X118020197Y-82305644D01*
X118205354Y-82345000D01*
X118205355Y-82345000D01*
X118394644Y-82345000D01*
X118394646Y-82345000D01*
X118579803Y-82305644D01*
X118752730Y-82228651D01*
X118905871Y-82117388D01*
X119032533Y-81976716D01*
X119127179Y-81812784D01*
X119185674Y-81632756D01*
X119205460Y-81444500D01*
X119185674Y-81256244D01*
X119127179Y-81076216D01*
X119032533Y-80912284D01*
X118905871Y-80771612D01*
X118905870Y-80771611D01*
X118752734Y-80660351D01*
X118752729Y-80660348D01*
X118579807Y-80583357D01*
X118579802Y-80583355D01*
X118434001Y-80552365D01*
X118394646Y-80544000D01*
X118205354Y-80544000D01*
X118172897Y-80550898D01*
X118020197Y-80583355D01*
X118020192Y-80583357D01*
X117847270Y-80660348D01*
X117847265Y-80660351D01*
X117694129Y-80771611D01*
X117567466Y-80912285D01*
X117472821Y-81076215D01*
X117472818Y-81076222D01*
X117422105Y-81232302D01*
X117414326Y-81256244D01*
X117394540Y-81444500D01*
X111968644Y-81444500D01*
X111982511Y-81312561D01*
X111962725Y-81124305D01*
X111904230Y-80944277D01*
X111809584Y-80780345D01*
X111682922Y-80639673D01*
X111682921Y-80639672D01*
X111529785Y-80528412D01*
X111529780Y-80528409D01*
X111465973Y-80500000D01*
X120494540Y-80500000D01*
X120514326Y-80688256D01*
X120514327Y-80688259D01*
X120572818Y-80868277D01*
X120572821Y-80868284D01*
X120667467Y-81032216D01*
X120750381Y-81124301D01*
X120794129Y-81172888D01*
X120947265Y-81284148D01*
X120947270Y-81284151D01*
X121120192Y-81361142D01*
X121120197Y-81361144D01*
X121305354Y-81400500D01*
X121305355Y-81400500D01*
X121494644Y-81400500D01*
X121494646Y-81400500D01*
X121679803Y-81361144D01*
X121852730Y-81284151D01*
X122005871Y-81172888D01*
X122071500Y-81100000D01*
X139494540Y-81100000D01*
X139514326Y-81288256D01*
X139514327Y-81288259D01*
X139572818Y-81468277D01*
X139572821Y-81468284D01*
X139667467Y-81632216D01*
X139745850Y-81719269D01*
X139794129Y-81772888D01*
X139947265Y-81884148D01*
X139947270Y-81884151D01*
X140120192Y-81961142D01*
X140120197Y-81961144D01*
X140305354Y-82000500D01*
X140305355Y-82000500D01*
X140494644Y-82000500D01*
X140494646Y-82000500D01*
X140679803Y-81961144D01*
X140852730Y-81884151D01*
X141005871Y-81772888D01*
X141132533Y-81632216D01*
X141227179Y-81468284D01*
X141285674Y-81288256D01*
X141305460Y-81100000D01*
X141285674Y-80911744D01*
X141227179Y-80731716D01*
X141132533Y-80567784D01*
X141005871Y-80427112D01*
X140985155Y-80412061D01*
X140852734Y-80315851D01*
X140852729Y-80315848D01*
X140679807Y-80238857D01*
X140679802Y-80238855D01*
X140534001Y-80207865D01*
X140494646Y-80199500D01*
X140305354Y-80199500D01*
X140272897Y-80206398D01*
X140120197Y-80238855D01*
X140120192Y-80238857D01*
X139947270Y-80315848D01*
X139947265Y-80315851D01*
X139794129Y-80427111D01*
X139667466Y-80567785D01*
X139572821Y-80731715D01*
X139572818Y-80731722D01*
X139555052Y-80786402D01*
X139514326Y-80911744D01*
X139494540Y-81100000D01*
X122071500Y-81100000D01*
X122132533Y-81032216D01*
X122227179Y-80868284D01*
X122285674Y-80688256D01*
X122305460Y-80500000D01*
X122285674Y-80311744D01*
X122227179Y-80131716D01*
X122132533Y-79967784D01*
X122005871Y-79827112D01*
X121977062Y-79806181D01*
X121852734Y-79715851D01*
X121852729Y-79715848D01*
X121679807Y-79638857D01*
X121679802Y-79638855D01*
X121497012Y-79600003D01*
X121494646Y-79599500D01*
X121305354Y-79599500D01*
X121302988Y-79600003D01*
X121120197Y-79638855D01*
X121120192Y-79638857D01*
X120947270Y-79715848D01*
X120947265Y-79715851D01*
X120794129Y-79827111D01*
X120667466Y-79967785D01*
X120572821Y-80131715D01*
X120572818Y-80131722D01*
X120514327Y-80311740D01*
X120514326Y-80311744D01*
X120494540Y-80500000D01*
X111465973Y-80500000D01*
X111356858Y-80451418D01*
X111356853Y-80451416D01*
X111211052Y-80420426D01*
X111171697Y-80412061D01*
X110982405Y-80412061D01*
X110949948Y-80418959D01*
X110797248Y-80451416D01*
X110797243Y-80451418D01*
X110624321Y-80528409D01*
X110624316Y-80528412D01*
X110471180Y-80639672D01*
X110344517Y-80780346D01*
X110249872Y-80944276D01*
X110249869Y-80944283D01*
X110202837Y-81089035D01*
X110191377Y-81124305D01*
X110171591Y-81312561D01*
X98047082Y-81312561D01*
X98010405Y-81286879D01*
X97966780Y-81232302D01*
X97959588Y-81162804D01*
X97991110Y-81100449D01*
X98010406Y-81083730D01*
X98021137Y-81076216D01*
X98196401Y-80953495D01*
X98363495Y-80786401D01*
X98499035Y-80592830D01*
X98598903Y-80378663D01*
X98660063Y-80150408D01*
X98680659Y-79915000D01*
X98660063Y-79679592D01*
X98600569Y-79457553D01*
X98598905Y-79451344D01*
X98598904Y-79451343D01*
X98598903Y-79451337D01*
X98499035Y-79237171D01*
X98481526Y-79212166D01*
X98377076Y-79062995D01*
X113347549Y-79062995D01*
X113367335Y-79251251D01*
X113367336Y-79251254D01*
X113425827Y-79431272D01*
X113425830Y-79431279D01*
X113520476Y-79595211D01*
X113644670Y-79733142D01*
X113647138Y-79735883D01*
X113800274Y-79847143D01*
X113800279Y-79847146D01*
X113973201Y-79924137D01*
X113973206Y-79924139D01*
X114158363Y-79963495D01*
X114158364Y-79963495D01*
X114347653Y-79963495D01*
X114347655Y-79963495D01*
X114532812Y-79924139D01*
X114705739Y-79847146D01*
X114858880Y-79735883D01*
X114985542Y-79595211D01*
X115080188Y-79431279D01*
X115138683Y-79251251D01*
X115158469Y-79062995D01*
X115138683Y-78874739D01*
X115080188Y-78694711D01*
X114985542Y-78530779D01*
X114858880Y-78390107D01*
X114858879Y-78390106D01*
X114705743Y-78278846D01*
X114705738Y-78278843D01*
X114532816Y-78201852D01*
X114532811Y-78201850D01*
X114387010Y-78170860D01*
X114347655Y-78162495D01*
X114158363Y-78162495D01*
X114125906Y-78169393D01*
X113973206Y-78201850D01*
X113973201Y-78201852D01*
X113800279Y-78278843D01*
X113800274Y-78278846D01*
X113647138Y-78390106D01*
X113520475Y-78530780D01*
X113425830Y-78694710D01*
X113425827Y-78694717D01*
X113367936Y-78872888D01*
X113367335Y-78874739D01*
X113351024Y-79029936D01*
X113347744Y-79061144D01*
X113347549Y-79062995D01*
X98377076Y-79062995D01*
X98363496Y-79043600D01*
X98303139Y-78983243D01*
X98241567Y-78921671D01*
X98208084Y-78860351D01*
X98213068Y-78790659D01*
X98254939Y-78734725D01*
X98285915Y-78717810D01*
X98417331Y-78668796D01*
X98532546Y-78582546D01*
X98618796Y-78467331D01*
X98669091Y-78332483D01*
X98675500Y-78272873D01*
X98675500Y-77950000D01*
X118044540Y-77950000D01*
X118064326Y-78138256D01*
X118064327Y-78138259D01*
X118122818Y-78318277D01*
X118122821Y-78318284D01*
X118217467Y-78482216D01*
X118307803Y-78582544D01*
X118344129Y-78622888D01*
X118497265Y-78734148D01*
X118497270Y-78734151D01*
X118670192Y-78811142D01*
X118670197Y-78811144D01*
X118855354Y-78850500D01*
X118855355Y-78850500D01*
X119044644Y-78850500D01*
X119044646Y-78850500D01*
X119229803Y-78811144D01*
X119402730Y-78734151D01*
X119555871Y-78622888D01*
X119682533Y-78482216D01*
X119777179Y-78318284D01*
X119815612Y-78200000D01*
X122894540Y-78200000D01*
X122914326Y-78388256D01*
X122914327Y-78388259D01*
X122972818Y-78568277D01*
X122972821Y-78568284D01*
X123067467Y-78732216D01*
X123148130Y-78821801D01*
X123194129Y-78872888D01*
X123347265Y-78984148D01*
X123347270Y-78984151D01*
X123520192Y-79061142D01*
X123520197Y-79061144D01*
X123705354Y-79100500D01*
X123705355Y-79100500D01*
X123894644Y-79100500D01*
X123894646Y-79100500D01*
X124079803Y-79061144D01*
X124252730Y-78984151D01*
X124405871Y-78872888D01*
X124532533Y-78732216D01*
X124627179Y-78568284D01*
X124649366Y-78500000D01*
X136494540Y-78500000D01*
X136514326Y-78688256D01*
X136514327Y-78688259D01*
X136571494Y-78864202D01*
X136572821Y-78868284D01*
X136667467Y-79032216D01*
X136784521Y-79162217D01*
X136794129Y-79172888D01*
X136947265Y-79284148D01*
X136947270Y-79284151D01*
X137120192Y-79361142D01*
X137120197Y-79361144D01*
X137305354Y-79400500D01*
X137305355Y-79400500D01*
X137494644Y-79400500D01*
X137494646Y-79400500D01*
X137679803Y-79361144D01*
X137852730Y-79284151D01*
X138005871Y-79172888D01*
X138132533Y-79032216D01*
X138227179Y-78868284D01*
X138228506Y-78864202D01*
X138252401Y-78790659D01*
X138285674Y-78688256D01*
X138305460Y-78500000D01*
X138285674Y-78311744D01*
X138227179Y-78131716D01*
X138132533Y-77967784D01*
X138005871Y-77827112D01*
X137964841Y-77797302D01*
X137852734Y-77715851D01*
X137852729Y-77715848D01*
X137679807Y-77638857D01*
X137679802Y-77638855D01*
X137534000Y-77607865D01*
X137494646Y-77599500D01*
X137305354Y-77599500D01*
X137272897Y-77606398D01*
X137120197Y-77638855D01*
X137120192Y-77638857D01*
X136947270Y-77715848D01*
X136947265Y-77715851D01*
X136794129Y-77827111D01*
X136667466Y-77967785D01*
X136572821Y-78131715D01*
X136572818Y-78131722D01*
X136525015Y-78278846D01*
X136514326Y-78311744D01*
X136494540Y-78500000D01*
X124649366Y-78500000D01*
X124685674Y-78388256D01*
X124705460Y-78200000D01*
X124685674Y-78011744D01*
X124627179Y-77831716D01*
X124532533Y-77667784D01*
X124405871Y-77527112D01*
X124380762Y-77508869D01*
X124252734Y-77415851D01*
X124252729Y-77415848D01*
X124079807Y-77338857D01*
X124079802Y-77338855D01*
X123934000Y-77307865D01*
X123894646Y-77299500D01*
X123705354Y-77299500D01*
X123672897Y-77306398D01*
X123520197Y-77338855D01*
X123520192Y-77338857D01*
X123347270Y-77415848D01*
X123347265Y-77415851D01*
X123194129Y-77527111D01*
X123067466Y-77667785D01*
X122972821Y-77831715D01*
X122972818Y-77831722D01*
X122914327Y-78011740D01*
X122914326Y-78011744D01*
X122894540Y-78200000D01*
X119815612Y-78200000D01*
X119835674Y-78138256D01*
X119855460Y-77950000D01*
X119835674Y-77761744D01*
X119777179Y-77581716D01*
X119682533Y-77417784D01*
X119555871Y-77277112D01*
X119555870Y-77277111D01*
X119402734Y-77165851D01*
X119402729Y-77165848D01*
X119229807Y-77088857D01*
X119229802Y-77088855D01*
X119073377Y-77055607D01*
X119044646Y-77049500D01*
X118855354Y-77049500D01*
X118826623Y-77055607D01*
X118670197Y-77088855D01*
X118670192Y-77088857D01*
X118497270Y-77165848D01*
X118497265Y-77165851D01*
X118344129Y-77277111D01*
X118217466Y-77417785D01*
X118122821Y-77581715D01*
X118122818Y-77581722D01*
X118064521Y-77761144D01*
X118064326Y-77761744D01*
X118044540Y-77950000D01*
X98675500Y-77950000D01*
X98675499Y-76900000D01*
X114694540Y-76900000D01*
X114714326Y-77088256D01*
X114714327Y-77088259D01*
X114772818Y-77268277D01*
X114772821Y-77268284D01*
X114867467Y-77432216D01*
X114945153Y-77518495D01*
X114994129Y-77572888D01*
X115147265Y-77684148D01*
X115147270Y-77684151D01*
X115320192Y-77761142D01*
X115320197Y-77761144D01*
X115505354Y-77800500D01*
X115505355Y-77800500D01*
X115694644Y-77800500D01*
X115694646Y-77800500D01*
X115879803Y-77761144D01*
X116052730Y-77684151D01*
X116205871Y-77572888D01*
X116332533Y-77432216D01*
X116427179Y-77268284D01*
X116485674Y-77088256D01*
X116494950Y-77000000D01*
X141794540Y-77000000D01*
X141814326Y-77188256D01*
X141814327Y-77188259D01*
X141872818Y-77368277D01*
X141872821Y-77368284D01*
X141967467Y-77532216D01*
X142087431Y-77665449D01*
X142094129Y-77672888D01*
X142247265Y-77784148D01*
X142247270Y-77784151D01*
X142420192Y-77861142D01*
X142420197Y-77861144D01*
X142605354Y-77900500D01*
X142605355Y-77900500D01*
X142794644Y-77900500D01*
X142794646Y-77900500D01*
X142979803Y-77861144D01*
X143152730Y-77784151D01*
X143305871Y-77672888D01*
X143432533Y-77532216D01*
X143527179Y-77368284D01*
X143585674Y-77188256D01*
X143605460Y-77000000D01*
X143585674Y-76811744D01*
X143527179Y-76631716D01*
X143439586Y-76480000D01*
X150244341Y-76480000D01*
X150264936Y-76715403D01*
X150264938Y-76715413D01*
X150326094Y-76943655D01*
X150326096Y-76943659D01*
X150326097Y-76943663D01*
X150393802Y-77088856D01*
X150425965Y-77157830D01*
X150425967Y-77157834D01*
X150561501Y-77351395D01*
X150561506Y-77351402D01*
X150728597Y-77518493D01*
X150728603Y-77518498D01*
X150783400Y-77556867D01*
X150895319Y-77635234D01*
X150914594Y-77648730D01*
X150958219Y-77703307D01*
X150965413Y-77772805D01*
X150933890Y-77835160D01*
X150914595Y-77851880D01*
X150728922Y-77981890D01*
X150728920Y-77981891D01*
X150561891Y-78148920D01*
X150561886Y-78148926D01*
X150426400Y-78342420D01*
X150426399Y-78342422D01*
X150326570Y-78556507D01*
X150326567Y-78556513D01*
X150269364Y-78769999D01*
X150269364Y-78770000D01*
X150986653Y-78770000D01*
X151053692Y-78789685D01*
X151099447Y-78842489D01*
X151109391Y-78911647D01*
X151105631Y-78928933D01*
X151104849Y-78931596D01*
X151100000Y-78948111D01*
X151100000Y-79091889D01*
X151103856Y-79105022D01*
X151105631Y-79111067D01*
X151105630Y-79180936D01*
X151067855Y-79239714D01*
X151004299Y-79268738D01*
X150986653Y-79270000D01*
X150269364Y-79270000D01*
X150326567Y-79483486D01*
X150326570Y-79483492D01*
X150426399Y-79697578D01*
X150561894Y-79891082D01*
X150728917Y-80058105D01*
X150922421Y-80193600D01*
X151136507Y-80293429D01*
X151136516Y-80293433D01*
X151350000Y-80350634D01*
X151350000Y-79632301D01*
X151369685Y-79565262D01*
X151422489Y-79519507D01*
X151491647Y-79509563D01*
X151564237Y-79520000D01*
X151564238Y-79520000D01*
X151635762Y-79520000D01*
X151635763Y-79520000D01*
X151708353Y-79509563D01*
X151777512Y-79519507D01*
X151830315Y-79565262D01*
X151850000Y-79632301D01*
X151850000Y-80350633D01*
X152063483Y-80293433D01*
X152063492Y-80293429D01*
X152277578Y-80193600D01*
X152471082Y-80058105D01*
X152638105Y-79891082D01*
X152773600Y-79697578D01*
X152873429Y-79483492D01*
X152873432Y-79483486D01*
X152930636Y-79270000D01*
X152213347Y-79270000D01*
X152146308Y-79250315D01*
X152100553Y-79197511D01*
X152090609Y-79128353D01*
X152094369Y-79111067D01*
X152096143Y-79105022D01*
X152097618Y-79100000D01*
X154494355Y-79100000D01*
X154498693Y-79135727D01*
X154495387Y-79155609D01*
X154498949Y-79170062D01*
X154502552Y-79199735D01*
X154502552Y-79207815D01*
X154510521Y-79233142D01*
X154514859Y-79268870D01*
X154514861Y-79268878D01*
X154527623Y-79302528D01*
X154529171Y-79322624D01*
X154536082Y-79335792D01*
X154546682Y-79363742D01*
X154548613Y-79371579D01*
X154562417Y-79394271D01*
X154563630Y-79397470D01*
X154575182Y-79427931D01*
X154575184Y-79427934D01*
X154595628Y-79457553D01*
X154601938Y-79476689D01*
X154611808Y-79487830D01*
X154628789Y-79512431D01*
X154632543Y-79519584D01*
X154651367Y-79538304D01*
X154671813Y-79567925D01*
X154671814Y-79567926D01*
X154698757Y-79591796D01*
X154709466Y-79608869D01*
X154721713Y-79617323D01*
X154744088Y-79637147D01*
X154749438Y-79643186D01*
X154772204Y-79656864D01*
X154799145Y-79680732D01*
X154799151Y-79680736D01*
X154831011Y-79697457D01*
X154845499Y-79711475D01*
X154859418Y-79716754D01*
X154885888Y-79730647D01*
X154892533Y-79735234D01*
X154917906Y-79743063D01*
X154949775Y-79759790D01*
X154984714Y-79768401D01*
X155002128Y-79778540D01*
X155016911Y-79780336D01*
X155045932Y-79787490D01*
X155053496Y-79790358D01*
X155080003Y-79791887D01*
X155114941Y-79800499D01*
X155114942Y-79800500D01*
X155150937Y-79800500D01*
X155170285Y-79806181D01*
X155185049Y-79804388D01*
X155214954Y-79804388D01*
X155222950Y-79805359D01*
X155249063Y-79800500D01*
X155285058Y-79800500D01*
X155285060Y-79800499D01*
X155319994Y-79791889D01*
X155340131Y-79792774D01*
X155354064Y-79787490D01*
X155383088Y-79780335D01*
X155391113Y-79779360D01*
X155415280Y-79768403D01*
X155450225Y-79759790D01*
X155482089Y-79743065D01*
X155501855Y-79739105D01*
X155514112Y-79730645D01*
X155540582Y-79716753D01*
X155548133Y-79713888D01*
X155568985Y-79697459D01*
X155600852Y-79680734D01*
X155627792Y-79656866D01*
X155646037Y-79648290D01*
X155655907Y-79637150D01*
X155678285Y-79617324D01*
X155684928Y-79612738D01*
X155701243Y-79591795D01*
X155728183Y-79567929D01*
X155748629Y-79538306D01*
X155764290Y-79525614D01*
X155771209Y-79512432D01*
X155788192Y-79487827D01*
X155793546Y-79481783D01*
X155804372Y-79457549D01*
X155824818Y-79427930D01*
X155837580Y-79394278D01*
X155849751Y-79378203D01*
X155853314Y-79363747D01*
X155863916Y-79335791D01*
X155867664Y-79328649D01*
X155872378Y-79302522D01*
X155885140Y-79268872D01*
X155892886Y-79205072D01*
X155894229Y-79197743D01*
X155897448Y-79184686D01*
X155897448Y-79184679D01*
X155898012Y-79182392D01*
X155898020Y-79182353D01*
X155902982Y-79162217D01*
X155901307Y-79135724D01*
X155905645Y-79100000D01*
X155901307Y-79064271D01*
X155904612Y-79044391D01*
X155898005Y-79017584D01*
X155897999Y-79017551D01*
X155897448Y-79015314D01*
X155894232Y-79002266D01*
X155892885Y-78994915D01*
X155885140Y-78931128D01*
X155872376Y-78897474D01*
X155870828Y-78877376D01*
X155863916Y-78864207D01*
X155853314Y-78836252D01*
X155851382Y-78828415D01*
X155837580Y-78805722D01*
X155824818Y-78772070D01*
X155824260Y-78771262D01*
X155804372Y-78742449D01*
X155798059Y-78723308D01*
X155788190Y-78712168D01*
X155771209Y-78687565D01*
X155767458Y-78680418D01*
X155748631Y-78661694D01*
X155728182Y-78632070D01*
X155701241Y-78608202D01*
X155690529Y-78591126D01*
X155678285Y-78582674D01*
X155655909Y-78562850D01*
X155650563Y-78556816D01*
X155627794Y-78543134D01*
X155600856Y-78519269D01*
X155600851Y-78519265D01*
X155568981Y-78502538D01*
X155554496Y-78488522D01*
X155540579Y-78483244D01*
X155514109Y-78469351D01*
X155507471Y-78464769D01*
X155482095Y-78456937D01*
X155450225Y-78440210D01*
X155450224Y-78440209D01*
X155450223Y-78440209D01*
X155415277Y-78431596D01*
X155397850Y-78421449D01*
X155383074Y-78419655D01*
X155354050Y-78412502D01*
X155346511Y-78409643D01*
X155320002Y-78408112D01*
X155285061Y-78399500D01*
X155285056Y-78399500D01*
X155249072Y-78399500D01*
X155229734Y-78393821D01*
X155214945Y-78395617D01*
X155185060Y-78395617D01*
X155177028Y-78394642D01*
X155150929Y-78399500D01*
X155114944Y-78399500D01*
X155079995Y-78408113D01*
X155059858Y-78407226D01*
X155045952Y-78412501D01*
X155016924Y-78419655D01*
X155008918Y-78420626D01*
X154984722Y-78431595D01*
X154949781Y-78440207D01*
X154949774Y-78440210D01*
X154917901Y-78456938D01*
X154898133Y-78460897D01*
X154885884Y-78469353D01*
X154859420Y-78483243D01*
X154851874Y-78486104D01*
X154831019Y-78502537D01*
X154799152Y-78519263D01*
X154799148Y-78519266D01*
X154772200Y-78543139D01*
X154753954Y-78551714D01*
X154744087Y-78562852D01*
X154721713Y-78582674D01*
X154715078Y-78587253D01*
X154698761Y-78608199D01*
X154671817Y-78632070D01*
X154651366Y-78661698D01*
X154635704Y-78674389D01*
X154628788Y-78687567D01*
X154611809Y-78712166D01*
X154606458Y-78718205D01*
X154595630Y-78742444D01*
X154575184Y-78772065D01*
X154575182Y-78772069D01*
X154562416Y-78805729D01*
X154550245Y-78821801D01*
X154546683Y-78836254D01*
X154536084Y-78864202D01*
X154532338Y-78871339D01*
X154527624Y-78897470D01*
X154514860Y-78931126D01*
X154510521Y-78966858D01*
X154502552Y-78985372D01*
X154502552Y-79000263D01*
X154498949Y-79029936D01*
X154497016Y-79037778D01*
X154498693Y-79064271D01*
X154494355Y-79099999D01*
X154494355Y-79100000D01*
X152097618Y-79100000D01*
X152100000Y-79091889D01*
X152100000Y-78948111D01*
X152095151Y-78931596D01*
X152094369Y-78928933D01*
X152094370Y-78859064D01*
X152132145Y-78800286D01*
X152195701Y-78771262D01*
X152213347Y-78770000D01*
X152930636Y-78770000D01*
X152930635Y-78769999D01*
X152873432Y-78556513D01*
X152873429Y-78556507D01*
X152773600Y-78342422D01*
X152773599Y-78342420D01*
X152638113Y-78148926D01*
X152638108Y-78148920D01*
X152471078Y-77981890D01*
X152285405Y-77851879D01*
X152241780Y-77797302D01*
X152234588Y-77727804D01*
X152266110Y-77665449D01*
X152285406Y-77648730D01*
X152299506Y-77638857D01*
X152471401Y-77518495D01*
X152638495Y-77351401D01*
X152774035Y-77157830D01*
X152873903Y-76943663D01*
X152935063Y-76715408D01*
X152955659Y-76480000D01*
X152935063Y-76244592D01*
X152923115Y-76200000D01*
X154494355Y-76200000D01*
X154498693Y-76235727D01*
X154495387Y-76255609D01*
X154498949Y-76270062D01*
X154502552Y-76299735D01*
X154502552Y-76307815D01*
X154510521Y-76333142D01*
X154514859Y-76368870D01*
X154514861Y-76368878D01*
X154527623Y-76402528D01*
X154529171Y-76422624D01*
X154536082Y-76435792D01*
X154546682Y-76463742D01*
X154548613Y-76471579D01*
X154562417Y-76494271D01*
X154567601Y-76507940D01*
X154575182Y-76527931D01*
X154575184Y-76527934D01*
X154595628Y-76557553D01*
X154601938Y-76576689D01*
X154611808Y-76587830D01*
X154628789Y-76612431D01*
X154632543Y-76619584D01*
X154651367Y-76638304D01*
X154671813Y-76667925D01*
X154671814Y-76667926D01*
X154698757Y-76691796D01*
X154709466Y-76708869D01*
X154721713Y-76717323D01*
X154744088Y-76737147D01*
X154749438Y-76743186D01*
X154772204Y-76756864D01*
X154799145Y-76780732D01*
X154799151Y-76780736D01*
X154831011Y-76797457D01*
X154845499Y-76811475D01*
X154859418Y-76816754D01*
X154885888Y-76830647D01*
X154892533Y-76835234D01*
X154917906Y-76843063D01*
X154949775Y-76859790D01*
X154984714Y-76868401D01*
X155002128Y-76878540D01*
X155016911Y-76880336D01*
X155045932Y-76887490D01*
X155053496Y-76890358D01*
X155080003Y-76891887D01*
X155114941Y-76900499D01*
X155114942Y-76900500D01*
X155150937Y-76900500D01*
X155170285Y-76906181D01*
X155185049Y-76904388D01*
X155214954Y-76904388D01*
X155222950Y-76905359D01*
X155249063Y-76900500D01*
X155285058Y-76900500D01*
X155285060Y-76900499D01*
X155319994Y-76891889D01*
X155340131Y-76892774D01*
X155354064Y-76887490D01*
X155383088Y-76880335D01*
X155391113Y-76879360D01*
X155415280Y-76868403D01*
X155450225Y-76859790D01*
X155482089Y-76843065D01*
X155501855Y-76839105D01*
X155514112Y-76830645D01*
X155540582Y-76816753D01*
X155548133Y-76813888D01*
X155568985Y-76797459D01*
X155600852Y-76780734D01*
X155627792Y-76756866D01*
X155646037Y-76748290D01*
X155655907Y-76737150D01*
X155678285Y-76717324D01*
X155684928Y-76712738D01*
X155701243Y-76691795D01*
X155728183Y-76667929D01*
X155748629Y-76638306D01*
X155764290Y-76625614D01*
X155771209Y-76612432D01*
X155788192Y-76587827D01*
X155793546Y-76581783D01*
X155804372Y-76557549D01*
X155824818Y-76527930D01*
X155837580Y-76494278D01*
X155849751Y-76478203D01*
X155853314Y-76463747D01*
X155863916Y-76435791D01*
X155867664Y-76428649D01*
X155872378Y-76402522D01*
X155885140Y-76368872D01*
X155892886Y-76305072D01*
X155894229Y-76297743D01*
X155897448Y-76284686D01*
X155897448Y-76284679D01*
X155898012Y-76282392D01*
X155898020Y-76282353D01*
X155902982Y-76262217D01*
X155901307Y-76235724D01*
X155905645Y-76200000D01*
X155901307Y-76164271D01*
X155904612Y-76144391D01*
X155898005Y-76117584D01*
X155897999Y-76117551D01*
X155897448Y-76115314D01*
X155894232Y-76102266D01*
X155892885Y-76094915D01*
X155885140Y-76031128D01*
X155872376Y-75997474D01*
X155870828Y-75977376D01*
X155863916Y-75964207D01*
X155853314Y-75936252D01*
X155851382Y-75928415D01*
X155837580Y-75905722D01*
X155824818Y-75872070D01*
X155804372Y-75842449D01*
X155798059Y-75823308D01*
X155788190Y-75812168D01*
X155771209Y-75787565D01*
X155767458Y-75780418D01*
X155748631Y-75761694D01*
X155728182Y-75732070D01*
X155701241Y-75708202D01*
X155690529Y-75691126D01*
X155678285Y-75682674D01*
X155655909Y-75662850D01*
X155650563Y-75656816D01*
X155627794Y-75643134D01*
X155600856Y-75619269D01*
X155600851Y-75619265D01*
X155568981Y-75602538D01*
X155554496Y-75588522D01*
X155540579Y-75583244D01*
X155514109Y-75569351D01*
X155507471Y-75564769D01*
X155482095Y-75556937D01*
X155450225Y-75540210D01*
X155450224Y-75540209D01*
X155450223Y-75540209D01*
X155415277Y-75531596D01*
X155397850Y-75521449D01*
X155383074Y-75519655D01*
X155354050Y-75512502D01*
X155346511Y-75509643D01*
X155320002Y-75508112D01*
X155285061Y-75499500D01*
X155285056Y-75499500D01*
X155249072Y-75499500D01*
X155229734Y-75493821D01*
X155214945Y-75495617D01*
X155185060Y-75495617D01*
X155177028Y-75494642D01*
X155150929Y-75499500D01*
X155114944Y-75499500D01*
X155079995Y-75508113D01*
X155059858Y-75507226D01*
X155045952Y-75512501D01*
X155016924Y-75519655D01*
X155008918Y-75520626D01*
X154984722Y-75531595D01*
X154949781Y-75540207D01*
X154949774Y-75540210D01*
X154917901Y-75556938D01*
X154898133Y-75560897D01*
X154885884Y-75569353D01*
X154859420Y-75583243D01*
X154851874Y-75586104D01*
X154831019Y-75602537D01*
X154799152Y-75619263D01*
X154799148Y-75619266D01*
X154772200Y-75643139D01*
X154753954Y-75651714D01*
X154744087Y-75662852D01*
X154721713Y-75682674D01*
X154715078Y-75687253D01*
X154698761Y-75708199D01*
X154671817Y-75732070D01*
X154651366Y-75761698D01*
X154635704Y-75774389D01*
X154628788Y-75787567D01*
X154611809Y-75812166D01*
X154606458Y-75818205D01*
X154595630Y-75842444D01*
X154575184Y-75872065D01*
X154575182Y-75872069D01*
X154562416Y-75905729D01*
X154550245Y-75921801D01*
X154546683Y-75936254D01*
X154536084Y-75964202D01*
X154532338Y-75971339D01*
X154527624Y-75997470D01*
X154514860Y-76031126D01*
X154510521Y-76066858D01*
X154502552Y-76085372D01*
X154502552Y-76100263D01*
X154498949Y-76129936D01*
X154497016Y-76137778D01*
X154498693Y-76164271D01*
X154494355Y-76199999D01*
X154494355Y-76200000D01*
X152923115Y-76200000D01*
X152873903Y-76016337D01*
X152774035Y-75802171D01*
X152763810Y-75787567D01*
X152638494Y-75608597D01*
X152471402Y-75441506D01*
X152471396Y-75441501D01*
X152285842Y-75311575D01*
X152242217Y-75256998D01*
X152235023Y-75187500D01*
X152266546Y-75125145D01*
X152285842Y-75108425D01*
X152308026Y-75092891D01*
X152471401Y-74978495D01*
X152638495Y-74811401D01*
X152774035Y-74617830D01*
X152873903Y-74403663D01*
X152935063Y-74175408D01*
X152955659Y-73940000D01*
X152935063Y-73704592D01*
X152880243Y-73500000D01*
X154494355Y-73500000D01*
X154498693Y-73535727D01*
X154495387Y-73555609D01*
X154498949Y-73570062D01*
X154502552Y-73599735D01*
X154502552Y-73607815D01*
X154510521Y-73633142D01*
X154514859Y-73668870D01*
X154514861Y-73668878D01*
X154527623Y-73702528D01*
X154529171Y-73722624D01*
X154536082Y-73735792D01*
X154546682Y-73763742D01*
X154548613Y-73771579D01*
X154562417Y-73794271D01*
X154567601Y-73807940D01*
X154575182Y-73827931D01*
X154575184Y-73827934D01*
X154595628Y-73857553D01*
X154601938Y-73876689D01*
X154611808Y-73887830D01*
X154628789Y-73912431D01*
X154632543Y-73919584D01*
X154651367Y-73938304D01*
X154671813Y-73967925D01*
X154671814Y-73967926D01*
X154698757Y-73991796D01*
X154709466Y-74008869D01*
X154721713Y-74017323D01*
X154744088Y-74037147D01*
X154749438Y-74043186D01*
X154772204Y-74056864D01*
X154799145Y-74080732D01*
X154799151Y-74080736D01*
X154831011Y-74097457D01*
X154845499Y-74111475D01*
X154859418Y-74116754D01*
X154885888Y-74130647D01*
X154892533Y-74135234D01*
X154917906Y-74143063D01*
X154949775Y-74159790D01*
X154984714Y-74168401D01*
X155002128Y-74178540D01*
X155016911Y-74180336D01*
X155045932Y-74187490D01*
X155053496Y-74190358D01*
X155080003Y-74191887D01*
X155114941Y-74200499D01*
X155114942Y-74200500D01*
X155150937Y-74200500D01*
X155170285Y-74206181D01*
X155185049Y-74204388D01*
X155214954Y-74204388D01*
X155222950Y-74205359D01*
X155249063Y-74200500D01*
X155285058Y-74200500D01*
X155285060Y-74200499D01*
X155319994Y-74191889D01*
X155340131Y-74192774D01*
X155354064Y-74187490D01*
X155383088Y-74180335D01*
X155391113Y-74179360D01*
X155415280Y-74168403D01*
X155450225Y-74159790D01*
X155482089Y-74143065D01*
X155501855Y-74139105D01*
X155514112Y-74130645D01*
X155540582Y-74116753D01*
X155548133Y-74113888D01*
X155568985Y-74097459D01*
X155600852Y-74080734D01*
X155627792Y-74056866D01*
X155646037Y-74048290D01*
X155655907Y-74037150D01*
X155678285Y-74017324D01*
X155684928Y-74012738D01*
X155701243Y-73991795D01*
X155728183Y-73967929D01*
X155748629Y-73938306D01*
X155764290Y-73925614D01*
X155771209Y-73912432D01*
X155788192Y-73887827D01*
X155793546Y-73881783D01*
X155804372Y-73857549D01*
X155824818Y-73827930D01*
X155837580Y-73794278D01*
X155849751Y-73778203D01*
X155853314Y-73763747D01*
X155863916Y-73735791D01*
X155867664Y-73728649D01*
X155872378Y-73702522D01*
X155885140Y-73668872D01*
X155892886Y-73605072D01*
X155894229Y-73597743D01*
X155897448Y-73584686D01*
X155897448Y-73584679D01*
X155898012Y-73582392D01*
X155898020Y-73582353D01*
X155902982Y-73562217D01*
X155901307Y-73535724D01*
X155905645Y-73500000D01*
X155901307Y-73464271D01*
X155904612Y-73444391D01*
X155898005Y-73417584D01*
X155897999Y-73417551D01*
X155895859Y-73408869D01*
X155894232Y-73402266D01*
X155892885Y-73394915D01*
X155885212Y-73331722D01*
X155885140Y-73331127D01*
X155885139Y-73331126D01*
X155883617Y-73327112D01*
X155872376Y-73297474D01*
X155870828Y-73277376D01*
X155863916Y-73264207D01*
X155853314Y-73236252D01*
X155851382Y-73228415D01*
X155837580Y-73205722D01*
X155824818Y-73172070D01*
X155821860Y-73167785D01*
X155804372Y-73142449D01*
X155798059Y-73123308D01*
X155788190Y-73112168D01*
X155771209Y-73087565D01*
X155767458Y-73080418D01*
X155748631Y-73061694D01*
X155728182Y-73032070D01*
X155701241Y-73008202D01*
X155690529Y-72991126D01*
X155678285Y-72982674D01*
X155655909Y-72962850D01*
X155650563Y-72956816D01*
X155627794Y-72943134D01*
X155600856Y-72919269D01*
X155600851Y-72919265D01*
X155568981Y-72902538D01*
X155554496Y-72888522D01*
X155540579Y-72883244D01*
X155514109Y-72869351D01*
X155507471Y-72864769D01*
X155482095Y-72856937D01*
X155450225Y-72840210D01*
X155450224Y-72840209D01*
X155450223Y-72840209D01*
X155415277Y-72831596D01*
X155397850Y-72821449D01*
X155383074Y-72819655D01*
X155354050Y-72812502D01*
X155346511Y-72809643D01*
X155320002Y-72808112D01*
X155285061Y-72799500D01*
X155285056Y-72799500D01*
X155249072Y-72799500D01*
X155229734Y-72793821D01*
X155214945Y-72795617D01*
X155185060Y-72795617D01*
X155177028Y-72794642D01*
X155150929Y-72799500D01*
X155114944Y-72799500D01*
X155079995Y-72808113D01*
X155059858Y-72807226D01*
X155045952Y-72812501D01*
X155016924Y-72819655D01*
X155008918Y-72820626D01*
X154984722Y-72831595D01*
X154949781Y-72840207D01*
X154949774Y-72840210D01*
X154917901Y-72856938D01*
X154898133Y-72860897D01*
X154885884Y-72869353D01*
X154859420Y-72883243D01*
X154851874Y-72886104D01*
X154831019Y-72902537D01*
X154799152Y-72919263D01*
X154799148Y-72919266D01*
X154772200Y-72943139D01*
X154753954Y-72951714D01*
X154744087Y-72962852D01*
X154721713Y-72982674D01*
X154715078Y-72987253D01*
X154698761Y-73008199D01*
X154671817Y-73032070D01*
X154651366Y-73061698D01*
X154635704Y-73074389D01*
X154628788Y-73087567D01*
X154611809Y-73112166D01*
X154606458Y-73118205D01*
X154595630Y-73142444D01*
X154575184Y-73172065D01*
X154575182Y-73172069D01*
X154562416Y-73205729D01*
X154550245Y-73221801D01*
X154546683Y-73236254D01*
X154536084Y-73264202D01*
X154532338Y-73271339D01*
X154527624Y-73297470D01*
X154514860Y-73331126D01*
X154510521Y-73366858D01*
X154502552Y-73385372D01*
X154502552Y-73400263D01*
X154498949Y-73429936D01*
X154497016Y-73437778D01*
X154498693Y-73464271D01*
X154494355Y-73499999D01*
X154494355Y-73500000D01*
X152880243Y-73500000D01*
X152873903Y-73476337D01*
X152774035Y-73262171D01*
X152770801Y-73257553D01*
X152638496Y-73068600D01*
X152577711Y-73007815D01*
X152516567Y-72946671D01*
X152483084Y-72885351D01*
X152488068Y-72815659D01*
X152529939Y-72759725D01*
X152560915Y-72742810D01*
X152692331Y-72693796D01*
X152807546Y-72607546D01*
X152893796Y-72492331D01*
X152944091Y-72357483D01*
X152950500Y-72297873D01*
X152950499Y-70900000D01*
X154494355Y-70900000D01*
X154498693Y-70935727D01*
X154495387Y-70955609D01*
X154498949Y-70970062D01*
X154502552Y-70999735D01*
X154502552Y-71007815D01*
X154510521Y-71033142D01*
X154514859Y-71068870D01*
X154514861Y-71068878D01*
X154527623Y-71102528D01*
X154529171Y-71122624D01*
X154536082Y-71135792D01*
X154546682Y-71163742D01*
X154548613Y-71171579D01*
X154562417Y-71194271D01*
X154564590Y-71200000D01*
X154575182Y-71227931D01*
X154575184Y-71227934D01*
X154595628Y-71257553D01*
X154601938Y-71276689D01*
X154611808Y-71287830D01*
X154628789Y-71312431D01*
X154632543Y-71319584D01*
X154651367Y-71338304D01*
X154671813Y-71367925D01*
X154671814Y-71367926D01*
X154698757Y-71391796D01*
X154709466Y-71408869D01*
X154721713Y-71417323D01*
X154744088Y-71437147D01*
X154749438Y-71443186D01*
X154772204Y-71456864D01*
X154799145Y-71480732D01*
X154799151Y-71480736D01*
X154831011Y-71497457D01*
X154845499Y-71511475D01*
X154859418Y-71516754D01*
X154885888Y-71530647D01*
X154892533Y-71535234D01*
X154917906Y-71543063D01*
X154949775Y-71559790D01*
X154984714Y-71568401D01*
X155002128Y-71578540D01*
X155016911Y-71580336D01*
X155045932Y-71587490D01*
X155053496Y-71590358D01*
X155080003Y-71591887D01*
X155114941Y-71600499D01*
X155114942Y-71600500D01*
X155150937Y-71600500D01*
X155170285Y-71606181D01*
X155185049Y-71604388D01*
X155214954Y-71604388D01*
X155222950Y-71605359D01*
X155249063Y-71600500D01*
X155285058Y-71600500D01*
X155285060Y-71600499D01*
X155319994Y-71591889D01*
X155340131Y-71592774D01*
X155354064Y-71587490D01*
X155383088Y-71580335D01*
X155391113Y-71579360D01*
X155415280Y-71568403D01*
X155450225Y-71559790D01*
X155482089Y-71543065D01*
X155501855Y-71539105D01*
X155514112Y-71530645D01*
X155540582Y-71516753D01*
X155548133Y-71513888D01*
X155568985Y-71497459D01*
X155600852Y-71480734D01*
X155627792Y-71456866D01*
X155646037Y-71448290D01*
X155655907Y-71437150D01*
X155678285Y-71417324D01*
X155684928Y-71412738D01*
X155701243Y-71391795D01*
X155728183Y-71367929D01*
X155748629Y-71338306D01*
X155764290Y-71325614D01*
X155771209Y-71312432D01*
X155788192Y-71287827D01*
X155793546Y-71281783D01*
X155804372Y-71257549D01*
X155824818Y-71227930D01*
X155837580Y-71194278D01*
X155849751Y-71178203D01*
X155853314Y-71163747D01*
X155863916Y-71135791D01*
X155867664Y-71128649D01*
X155872378Y-71102522D01*
X155873524Y-71099500D01*
X155885140Y-71068872D01*
X155892886Y-71005072D01*
X155894229Y-70997743D01*
X155897448Y-70984686D01*
X155897448Y-70984679D01*
X155898012Y-70982392D01*
X155898020Y-70982353D01*
X155902982Y-70962217D01*
X155901307Y-70935724D01*
X155905645Y-70900000D01*
X155901307Y-70864271D01*
X155904612Y-70844391D01*
X155898005Y-70817584D01*
X155897999Y-70817551D01*
X155897448Y-70815314D01*
X155894232Y-70802266D01*
X155892885Y-70794915D01*
X155885140Y-70731128D01*
X155872376Y-70697474D01*
X155870828Y-70677376D01*
X155863916Y-70664207D01*
X155853314Y-70636252D01*
X155851382Y-70628415D01*
X155837580Y-70605722D01*
X155824818Y-70572070D01*
X155804372Y-70542449D01*
X155798059Y-70523308D01*
X155788190Y-70512168D01*
X155771209Y-70487565D01*
X155767458Y-70480418D01*
X155748631Y-70461694D01*
X155732866Y-70438855D01*
X155728183Y-70432071D01*
X155714088Y-70419584D01*
X155701241Y-70408202D01*
X155690529Y-70391126D01*
X155678285Y-70382674D01*
X155655909Y-70362850D01*
X155650563Y-70356816D01*
X155627794Y-70343134D01*
X155600856Y-70319269D01*
X155600851Y-70319265D01*
X155568981Y-70302538D01*
X155554496Y-70288522D01*
X155540579Y-70283244D01*
X155514109Y-70269351D01*
X155507471Y-70264769D01*
X155482095Y-70256937D01*
X155450225Y-70240210D01*
X155450224Y-70240209D01*
X155450223Y-70240209D01*
X155415277Y-70231596D01*
X155397850Y-70221449D01*
X155383074Y-70219655D01*
X155354050Y-70212502D01*
X155346511Y-70209643D01*
X155320002Y-70208112D01*
X155285061Y-70199500D01*
X155285056Y-70199500D01*
X155249072Y-70199500D01*
X155229734Y-70193821D01*
X155214945Y-70195617D01*
X155185060Y-70195617D01*
X155177028Y-70194642D01*
X155150929Y-70199500D01*
X155114944Y-70199500D01*
X155079995Y-70208113D01*
X155059858Y-70207226D01*
X155045952Y-70212501D01*
X155016924Y-70219655D01*
X155008918Y-70220626D01*
X154984722Y-70231595D01*
X154949781Y-70240207D01*
X154949774Y-70240210D01*
X154917901Y-70256938D01*
X154898133Y-70260897D01*
X154885884Y-70269353D01*
X154859420Y-70283243D01*
X154851874Y-70286104D01*
X154831019Y-70302537D01*
X154799152Y-70319263D01*
X154799148Y-70319266D01*
X154772200Y-70343139D01*
X154753954Y-70351714D01*
X154744087Y-70362852D01*
X154721713Y-70382674D01*
X154715078Y-70387253D01*
X154698761Y-70408199D01*
X154671817Y-70432070D01*
X154651366Y-70461698D01*
X154635704Y-70474389D01*
X154628788Y-70487567D01*
X154611809Y-70512166D01*
X154606458Y-70518205D01*
X154595630Y-70542444D01*
X154575184Y-70572065D01*
X154575182Y-70572069D01*
X154562416Y-70605729D01*
X154550245Y-70621801D01*
X154546683Y-70636254D01*
X154536084Y-70664202D01*
X154532338Y-70671339D01*
X154527624Y-70697470D01*
X154514860Y-70731126D01*
X154510521Y-70766858D01*
X154502552Y-70785372D01*
X154502552Y-70800263D01*
X154498949Y-70829936D01*
X154497016Y-70837778D01*
X154498693Y-70864271D01*
X154494355Y-70899999D01*
X154494355Y-70900000D01*
X152950499Y-70900000D01*
X152950499Y-70502128D01*
X152944091Y-70442517D01*
X152942725Y-70438855D01*
X152893797Y-70307671D01*
X152893793Y-70307664D01*
X152807547Y-70192455D01*
X152807544Y-70192452D01*
X152692335Y-70106206D01*
X152692328Y-70106202D01*
X152557482Y-70055908D01*
X152557483Y-70055908D01*
X152497883Y-70049501D01*
X152497881Y-70049500D01*
X152497873Y-70049500D01*
X152497864Y-70049500D01*
X150702129Y-70049500D01*
X150702123Y-70049501D01*
X150642516Y-70055908D01*
X150507671Y-70106202D01*
X150507664Y-70106206D01*
X150392455Y-70192452D01*
X150392452Y-70192455D01*
X150306206Y-70307664D01*
X150306202Y-70307671D01*
X150255908Y-70442517D01*
X150249501Y-70502116D01*
X150249501Y-70502123D01*
X150249500Y-70502135D01*
X150249500Y-72297870D01*
X150249501Y-72297876D01*
X150255908Y-72357483D01*
X150306202Y-72492328D01*
X150306206Y-72492335D01*
X150392452Y-72607544D01*
X150392455Y-72607547D01*
X150507664Y-72693793D01*
X150507671Y-72693797D01*
X150639081Y-72742810D01*
X150695015Y-72784681D01*
X150719432Y-72850145D01*
X150704580Y-72918418D01*
X150683430Y-72946673D01*
X150561503Y-73068600D01*
X150425965Y-73262169D01*
X150425964Y-73262171D01*
X150326098Y-73476335D01*
X150326094Y-73476344D01*
X150264938Y-73704586D01*
X150264936Y-73704596D01*
X150244341Y-73939999D01*
X150244341Y-73940000D01*
X150264936Y-74175403D01*
X150264938Y-74175413D01*
X150326094Y-74403655D01*
X150326096Y-74403659D01*
X150326097Y-74403663D01*
X150399531Y-74561142D01*
X150425965Y-74617830D01*
X150425967Y-74617834D01*
X150561501Y-74811395D01*
X150561506Y-74811402D01*
X150728597Y-74978493D01*
X150728603Y-74978498D01*
X150914158Y-75108425D01*
X150957783Y-75163002D01*
X150964977Y-75232500D01*
X150933454Y-75294855D01*
X150914158Y-75311575D01*
X150728597Y-75441505D01*
X150561505Y-75608597D01*
X150425965Y-75802169D01*
X150425964Y-75802171D01*
X150326098Y-76016335D01*
X150326094Y-76016344D01*
X150264938Y-76244586D01*
X150264936Y-76244596D01*
X150244341Y-76479999D01*
X150244341Y-76480000D01*
X143439586Y-76480000D01*
X143432533Y-76467784D01*
X143305871Y-76327112D01*
X143296944Y-76320626D01*
X143152734Y-76215851D01*
X143152729Y-76215848D01*
X142979807Y-76138857D01*
X142979802Y-76138855D01*
X142834001Y-76107865D01*
X142794646Y-76099500D01*
X142605354Y-76099500D01*
X142592341Y-76102266D01*
X142420197Y-76138855D01*
X142420192Y-76138857D01*
X142247270Y-76215848D01*
X142247265Y-76215851D01*
X142094129Y-76327111D01*
X141967466Y-76467785D01*
X141872821Y-76631715D01*
X141872818Y-76631722D01*
X141824401Y-76780736D01*
X141814326Y-76811744D01*
X141794540Y-77000000D01*
X116494950Y-77000000D01*
X116505460Y-76900000D01*
X116485674Y-76711744D01*
X116427179Y-76531716D01*
X116332533Y-76367784D01*
X116205871Y-76227112D01*
X116190369Y-76215849D01*
X116052734Y-76115851D01*
X116052729Y-76115848D01*
X115879807Y-76038857D01*
X115879802Y-76038855D01*
X115734001Y-76007865D01*
X115694646Y-75999500D01*
X115505354Y-75999500D01*
X115472897Y-76006398D01*
X115320197Y-76038855D01*
X115320192Y-76038857D01*
X115147270Y-76115848D01*
X115147265Y-76115851D01*
X114994129Y-76227111D01*
X114867466Y-76367785D01*
X114772821Y-76531715D01*
X114772818Y-76531722D01*
X114716283Y-76705720D01*
X114714326Y-76711744D01*
X114694540Y-76900000D01*
X98675499Y-76900000D01*
X98675499Y-76477128D01*
X98669091Y-76417517D01*
X98663504Y-76402538D01*
X98618797Y-76282671D01*
X98618793Y-76282664D01*
X98532547Y-76167455D01*
X98532544Y-76167452D01*
X98417335Y-76081206D01*
X98417328Y-76081202D01*
X98282482Y-76030908D01*
X98282483Y-76030908D01*
X98222883Y-76024501D01*
X98222881Y-76024500D01*
X98222873Y-76024500D01*
X98222864Y-76024500D01*
X96427129Y-76024500D01*
X96427123Y-76024501D01*
X96367516Y-76030908D01*
X96232671Y-76081202D01*
X96232664Y-76081206D01*
X96117455Y-76167452D01*
X96117452Y-76167455D01*
X96031206Y-76282664D01*
X96031202Y-76282671D01*
X95980908Y-76417517D01*
X95975504Y-76467785D01*
X95974501Y-76477123D01*
X95974500Y-76477135D01*
X95974500Y-78272870D01*
X95974501Y-78272876D01*
X95980908Y-78332483D01*
X96031202Y-78467328D01*
X96031206Y-78467335D01*
X96117452Y-78582544D01*
X96117455Y-78582547D01*
X96232664Y-78668793D01*
X96232671Y-78668797D01*
X96364081Y-78717810D01*
X96420015Y-78759681D01*
X96444432Y-78825145D01*
X96429580Y-78893418D01*
X96408430Y-78921673D01*
X96286503Y-79043600D01*
X96150965Y-79237169D01*
X96150964Y-79237171D01*
X96051098Y-79451335D01*
X96051094Y-79451344D01*
X95989938Y-79679586D01*
X95989936Y-79679596D01*
X95969341Y-79914999D01*
X95969341Y-79915000D01*
X94729722Y-79915000D01*
X94737580Y-79894278D01*
X94749751Y-79878203D01*
X94753314Y-79863747D01*
X94763916Y-79835791D01*
X94767664Y-79828649D01*
X94772378Y-79802522D01*
X94773145Y-79800500D01*
X94785140Y-79768872D01*
X94792886Y-79705072D01*
X94794229Y-79697743D01*
X94797448Y-79684686D01*
X94797448Y-79684679D01*
X94798012Y-79682392D01*
X94798020Y-79682353D01*
X94802982Y-79662217D01*
X94801307Y-79635724D01*
X94805645Y-79600000D01*
X94801306Y-79564272D01*
X94804612Y-79544391D01*
X94798005Y-79517584D01*
X94797999Y-79517551D01*
X94797448Y-79515314D01*
X94794232Y-79502266D01*
X94792885Y-79494915D01*
X94785158Y-79431279D01*
X94785140Y-79431127D01*
X94785139Y-79431126D01*
X94772376Y-79397474D01*
X94770828Y-79377376D01*
X94763916Y-79364207D01*
X94753314Y-79336252D01*
X94751382Y-79328415D01*
X94737580Y-79305722D01*
X94724818Y-79272070D01*
X94723389Y-79270000D01*
X94704372Y-79242449D01*
X94698059Y-79223308D01*
X94688190Y-79212168D01*
X94671209Y-79187565D01*
X94667458Y-79180418D01*
X94648631Y-79161694D01*
X94630996Y-79136146D01*
X94628183Y-79132071D01*
X94623986Y-79128353D01*
X94601241Y-79108202D01*
X94590529Y-79091126D01*
X94578285Y-79082674D01*
X94555909Y-79062850D01*
X94550563Y-79056816D01*
X94527794Y-79043134D01*
X94500856Y-79019269D01*
X94500851Y-79019265D01*
X94468981Y-79002538D01*
X94454496Y-78988522D01*
X94440579Y-78983244D01*
X94414109Y-78969351D01*
X94407471Y-78964769D01*
X94382095Y-78956937D01*
X94350225Y-78940210D01*
X94350224Y-78940209D01*
X94350223Y-78940209D01*
X94315277Y-78931596D01*
X94297850Y-78921449D01*
X94283074Y-78919655D01*
X94254050Y-78912502D01*
X94246511Y-78909643D01*
X94220002Y-78908112D01*
X94185061Y-78899500D01*
X94185056Y-78899500D01*
X94149072Y-78899500D01*
X94129734Y-78893821D01*
X94114945Y-78895617D01*
X94085060Y-78895617D01*
X94077028Y-78894642D01*
X94050929Y-78899500D01*
X94014944Y-78899500D01*
X93979995Y-78908113D01*
X93959858Y-78907226D01*
X93945952Y-78912501D01*
X93916924Y-78919655D01*
X93908918Y-78920626D01*
X93884722Y-78931595D01*
X93849781Y-78940207D01*
X93849774Y-78940210D01*
X93817901Y-78956938D01*
X93798133Y-78960897D01*
X93785884Y-78969353D01*
X93759420Y-78983243D01*
X93751874Y-78986104D01*
X93731019Y-79002537D01*
X93699152Y-79019263D01*
X93699148Y-79019266D01*
X93672200Y-79043139D01*
X93653954Y-79051714D01*
X93644087Y-79062852D01*
X93621713Y-79082674D01*
X93615078Y-79087253D01*
X93598761Y-79108199D01*
X93571817Y-79132070D01*
X93551366Y-79161698D01*
X93535704Y-79174389D01*
X93528788Y-79187567D01*
X93511809Y-79212166D01*
X93506458Y-79218205D01*
X93495630Y-79242444D01*
X93475184Y-79272065D01*
X93475182Y-79272069D01*
X93462416Y-79305729D01*
X93450245Y-79321801D01*
X93446683Y-79336254D01*
X93436084Y-79364202D01*
X93432338Y-79371339D01*
X93427624Y-79397470D01*
X93414860Y-79431126D01*
X93410521Y-79466858D01*
X93402552Y-79485372D01*
X93402552Y-79500263D01*
X93398949Y-79529936D01*
X93397015Y-79537781D01*
X93398692Y-79564268D01*
X93394355Y-79599995D01*
X93394355Y-79600003D01*
X92331992Y-79600003D01*
X92334773Y-77000003D01*
X93394355Y-77000003D01*
X93398692Y-77035730D01*
X93395386Y-77055607D01*
X93398949Y-77070062D01*
X93402552Y-77099735D01*
X93402552Y-77107815D01*
X93410521Y-77133142D01*
X93414859Y-77168870D01*
X93414861Y-77168878D01*
X93427623Y-77202528D01*
X93429171Y-77222624D01*
X93436082Y-77235792D01*
X93446682Y-77263742D01*
X93448613Y-77271579D01*
X93462417Y-77294271D01*
X93464400Y-77299500D01*
X93475182Y-77327931D01*
X93475184Y-77327934D01*
X93495628Y-77357553D01*
X93501938Y-77376689D01*
X93511808Y-77387830D01*
X93528789Y-77412431D01*
X93532543Y-77419584D01*
X93551367Y-77438304D01*
X93571813Y-77467925D01*
X93571814Y-77467926D01*
X93598757Y-77491796D01*
X93609466Y-77508869D01*
X93621713Y-77517323D01*
X93644088Y-77537147D01*
X93649438Y-77543186D01*
X93672204Y-77556864D01*
X93699145Y-77580732D01*
X93699151Y-77580736D01*
X93731011Y-77597457D01*
X93745499Y-77611475D01*
X93759418Y-77616754D01*
X93785888Y-77630647D01*
X93792533Y-77635234D01*
X93817906Y-77643063D01*
X93849775Y-77659790D01*
X93884714Y-77668401D01*
X93902128Y-77678540D01*
X93916911Y-77680336D01*
X93945932Y-77687490D01*
X93953496Y-77690358D01*
X93980003Y-77691887D01*
X94014941Y-77700499D01*
X94014942Y-77700500D01*
X94050937Y-77700500D01*
X94070285Y-77706181D01*
X94085049Y-77704388D01*
X94114954Y-77704388D01*
X94122950Y-77705359D01*
X94149063Y-77700500D01*
X94185058Y-77700500D01*
X94185060Y-77700499D01*
X94219994Y-77691889D01*
X94240131Y-77692774D01*
X94254064Y-77687490D01*
X94283088Y-77680335D01*
X94291113Y-77679360D01*
X94315280Y-77668403D01*
X94350225Y-77659790D01*
X94382089Y-77643065D01*
X94401855Y-77639105D01*
X94414112Y-77630645D01*
X94440582Y-77616753D01*
X94448133Y-77613888D01*
X94468985Y-77597459D01*
X94500852Y-77580734D01*
X94527792Y-77556866D01*
X94546037Y-77548290D01*
X94555907Y-77537150D01*
X94578285Y-77517324D01*
X94584928Y-77512738D01*
X94601243Y-77491795D01*
X94628183Y-77467929D01*
X94648629Y-77438306D01*
X94664290Y-77425614D01*
X94671209Y-77412432D01*
X94688192Y-77387827D01*
X94693546Y-77381783D01*
X94704372Y-77357549D01*
X94724818Y-77327930D01*
X94737580Y-77294278D01*
X94749751Y-77278203D01*
X94753314Y-77263747D01*
X94763916Y-77235791D01*
X94767664Y-77228649D01*
X94772378Y-77202522D01*
X94785140Y-77168872D01*
X94792886Y-77105072D01*
X94794229Y-77097743D01*
X94797448Y-77084686D01*
X94797448Y-77084679D01*
X94798012Y-77082392D01*
X94798020Y-77082353D01*
X94802982Y-77062217D01*
X94801307Y-77035724D01*
X94805645Y-77000000D01*
X94801306Y-76964272D01*
X94804612Y-76944391D01*
X94798005Y-76917584D01*
X94797999Y-76917551D01*
X94797448Y-76915314D01*
X94794232Y-76902266D01*
X94792885Y-76894915D01*
X94785140Y-76831128D01*
X94772376Y-76797474D01*
X94770828Y-76777376D01*
X94763916Y-76764207D01*
X94753314Y-76736252D01*
X94751382Y-76728415D01*
X94737580Y-76705722D01*
X94724818Y-76672070D01*
X94704372Y-76642449D01*
X94698059Y-76623308D01*
X94688190Y-76612168D01*
X94671209Y-76587565D01*
X94667458Y-76580418D01*
X94648631Y-76561694D01*
X94628182Y-76532070D01*
X94601241Y-76508202D01*
X94590529Y-76491126D01*
X94578285Y-76482674D01*
X94555909Y-76462850D01*
X94550563Y-76456816D01*
X94527794Y-76443134D01*
X94500856Y-76419269D01*
X94500851Y-76419265D01*
X94468981Y-76402538D01*
X94454496Y-76388522D01*
X94440579Y-76383244D01*
X94414109Y-76369351D01*
X94407471Y-76364769D01*
X94382095Y-76356937D01*
X94350225Y-76340210D01*
X94350224Y-76340209D01*
X94350223Y-76340209D01*
X94315277Y-76331596D01*
X94297850Y-76321449D01*
X94283074Y-76319655D01*
X94254050Y-76312502D01*
X94246511Y-76309643D01*
X94220002Y-76308112D01*
X94185061Y-76299500D01*
X94185056Y-76299500D01*
X94149072Y-76299500D01*
X94129734Y-76293821D01*
X94114945Y-76295617D01*
X94085060Y-76295617D01*
X94077028Y-76294642D01*
X94050929Y-76299500D01*
X94014944Y-76299500D01*
X93979995Y-76308113D01*
X93959858Y-76307226D01*
X93945952Y-76312501D01*
X93916924Y-76319655D01*
X93908918Y-76320626D01*
X93884722Y-76331595D01*
X93849781Y-76340207D01*
X93849774Y-76340210D01*
X93817901Y-76356938D01*
X93798133Y-76360897D01*
X93785884Y-76369353D01*
X93759420Y-76383243D01*
X93751874Y-76386104D01*
X93731019Y-76402537D01*
X93699152Y-76419263D01*
X93699148Y-76419266D01*
X93672200Y-76443139D01*
X93653954Y-76451714D01*
X93644087Y-76462852D01*
X93621713Y-76482674D01*
X93615078Y-76487253D01*
X93598761Y-76508199D01*
X93571817Y-76532070D01*
X93551366Y-76561698D01*
X93535704Y-76574389D01*
X93528788Y-76587567D01*
X93511809Y-76612166D01*
X93506458Y-76618205D01*
X93495630Y-76642444D01*
X93475184Y-76672065D01*
X93475182Y-76672069D01*
X93462416Y-76705729D01*
X93450245Y-76721801D01*
X93446683Y-76736254D01*
X93436084Y-76764202D01*
X93432338Y-76771339D01*
X93427624Y-76797470D01*
X93414860Y-76831126D01*
X93410521Y-76866858D01*
X93402552Y-76885372D01*
X93402552Y-76900263D01*
X93398949Y-76929936D01*
X93397015Y-76937781D01*
X93398692Y-76964268D01*
X93394355Y-76999995D01*
X93394355Y-77000003D01*
X92334773Y-77000003D01*
X92336751Y-75150528D01*
X126170040Y-75150528D01*
X126189826Y-75338784D01*
X126189827Y-75338787D01*
X126248318Y-75518805D01*
X126248321Y-75518812D01*
X126342967Y-75682744D01*
X126450498Y-75802169D01*
X126469629Y-75823416D01*
X126622765Y-75934676D01*
X126622770Y-75934679D01*
X126795692Y-76011670D01*
X126795697Y-76011672D01*
X126980854Y-76051028D01*
X126980855Y-76051028D01*
X127170144Y-76051028D01*
X127170146Y-76051028D01*
X127355303Y-76011672D01*
X127528230Y-75934679D01*
X127681371Y-75823416D01*
X127808033Y-75682744D01*
X127902679Y-75518812D01*
X127961174Y-75338784D01*
X127980960Y-75150528D01*
X127961174Y-74962272D01*
X127902679Y-74782244D01*
X127808033Y-74618312D01*
X127681371Y-74477640D01*
X127681370Y-74477639D01*
X127528234Y-74366379D01*
X127528229Y-74366376D01*
X127355307Y-74289385D01*
X127355302Y-74289383D01*
X127209501Y-74258393D01*
X127170146Y-74250028D01*
X126980854Y-74250028D01*
X126948397Y-74256926D01*
X126795697Y-74289383D01*
X126795692Y-74289385D01*
X126622770Y-74366376D01*
X126622765Y-74366379D01*
X126469629Y-74477639D01*
X126342966Y-74618313D01*
X126248321Y-74782243D01*
X126248318Y-74782250D01*
X126209897Y-74900500D01*
X126189826Y-74962272D01*
X126170040Y-75150528D01*
X92336751Y-75150528D01*
X92337982Y-74000000D01*
X132094546Y-74000000D01*
X132114332Y-74188256D01*
X132114333Y-74188259D01*
X132172824Y-74368277D01*
X132172827Y-74368284D01*
X132267473Y-74532216D01*
X132394134Y-74672888D01*
X132394135Y-74672888D01*
X132547271Y-74784148D01*
X132547276Y-74784151D01*
X132720198Y-74861142D01*
X132720203Y-74861144D01*
X132905360Y-74900500D01*
X132905361Y-74900500D01*
X133094650Y-74900500D01*
X133094652Y-74900500D01*
X133279809Y-74861144D01*
X133452736Y-74784151D01*
X133605877Y-74672888D01*
X133732539Y-74532216D01*
X133827185Y-74368284D01*
X133885680Y-74188256D01*
X133905466Y-74000000D01*
X133885680Y-73811744D01*
X133849372Y-73700000D01*
X138394540Y-73700000D01*
X138414326Y-73888256D01*
X138414327Y-73888259D01*
X138472818Y-74068277D01*
X138472821Y-74068284D01*
X138567467Y-74232216D01*
X138688266Y-74366376D01*
X138694129Y-74372888D01*
X138847265Y-74484148D01*
X138847270Y-74484151D01*
X139020192Y-74561142D01*
X139020197Y-74561144D01*
X139205354Y-74600500D01*
X139205355Y-74600500D01*
X139394644Y-74600500D01*
X139394646Y-74600500D01*
X139579803Y-74561144D01*
X139752730Y-74484151D01*
X139905871Y-74372888D01*
X140032533Y-74232216D01*
X140127179Y-74068284D01*
X140185674Y-73888256D01*
X140205460Y-73700000D01*
X140185674Y-73511744D01*
X140127179Y-73331716D01*
X140032533Y-73167784D01*
X139905871Y-73027112D01*
X139879844Y-73008202D01*
X139752734Y-72915851D01*
X139752729Y-72915848D01*
X139579807Y-72838857D01*
X139579802Y-72838855D01*
X139423344Y-72805600D01*
X139394646Y-72799500D01*
X139205354Y-72799500D01*
X139192341Y-72802266D01*
X139020197Y-72838855D01*
X139020192Y-72838857D01*
X138847270Y-72915848D01*
X138847265Y-72915851D01*
X138694129Y-73027111D01*
X138567466Y-73167785D01*
X138472821Y-73331715D01*
X138472818Y-73331722D01*
X138414413Y-73511475D01*
X138414326Y-73511744D01*
X138394540Y-73700000D01*
X133849372Y-73700000D01*
X133827185Y-73631716D01*
X133732539Y-73467784D01*
X133605877Y-73327112D01*
X133605876Y-73327111D01*
X133452740Y-73215851D01*
X133452735Y-73215848D01*
X133279813Y-73138857D01*
X133279808Y-73138855D01*
X133134006Y-73107865D01*
X133094652Y-73099500D01*
X132905360Y-73099500D01*
X132872903Y-73106398D01*
X132720203Y-73138855D01*
X132720198Y-73138857D01*
X132547276Y-73215848D01*
X132547271Y-73215851D01*
X132394135Y-73327111D01*
X132267472Y-73467785D01*
X132172827Y-73631715D01*
X132172824Y-73631722D01*
X132120006Y-73794280D01*
X132114332Y-73811744D01*
X132094546Y-74000000D01*
X92337982Y-74000000D01*
X92339159Y-72900003D01*
X93994355Y-72900003D01*
X93998692Y-72935730D01*
X93995386Y-72955607D01*
X93998949Y-72970062D01*
X94002552Y-72999735D01*
X94002552Y-73007815D01*
X94010521Y-73033142D01*
X94014859Y-73068870D01*
X94014861Y-73068878D01*
X94027623Y-73102528D01*
X94029171Y-73122624D01*
X94036082Y-73135792D01*
X94046682Y-73163742D01*
X94048613Y-73171579D01*
X94062417Y-73194271D01*
X94066759Y-73205720D01*
X94075182Y-73227931D01*
X94075184Y-73227934D01*
X94095628Y-73257553D01*
X94101938Y-73276689D01*
X94111808Y-73287830D01*
X94128789Y-73312431D01*
X94132543Y-73319584D01*
X94151367Y-73338304D01*
X94171813Y-73367925D01*
X94171814Y-73367926D01*
X94198757Y-73391796D01*
X94209466Y-73408869D01*
X94221713Y-73417323D01*
X94244088Y-73437147D01*
X94249438Y-73443186D01*
X94272204Y-73456864D01*
X94299145Y-73480732D01*
X94299151Y-73480736D01*
X94331011Y-73497457D01*
X94345499Y-73511475D01*
X94359418Y-73516754D01*
X94385888Y-73530647D01*
X94392533Y-73535234D01*
X94417906Y-73543063D01*
X94449775Y-73559790D01*
X94484714Y-73568401D01*
X94502128Y-73578540D01*
X94516911Y-73580336D01*
X94545932Y-73587490D01*
X94553496Y-73590358D01*
X94580003Y-73591887D01*
X94614941Y-73600499D01*
X94614942Y-73600500D01*
X94650937Y-73600500D01*
X94670285Y-73606181D01*
X94685049Y-73604388D01*
X94714954Y-73604388D01*
X94722950Y-73605359D01*
X94749063Y-73600500D01*
X94785058Y-73600500D01*
X94785060Y-73600499D01*
X94819994Y-73591889D01*
X94840131Y-73592774D01*
X94854064Y-73587490D01*
X94883088Y-73580335D01*
X94891113Y-73579360D01*
X94915280Y-73568403D01*
X94950225Y-73559790D01*
X94982089Y-73543065D01*
X95001855Y-73539105D01*
X95014112Y-73530645D01*
X95040582Y-73516753D01*
X95048133Y-73513888D01*
X95068985Y-73497459D01*
X95100852Y-73480734D01*
X95127792Y-73456866D01*
X95146037Y-73448290D01*
X95155907Y-73437150D01*
X95178285Y-73417324D01*
X95184928Y-73412738D01*
X95201243Y-73391795D01*
X95228183Y-73367929D01*
X95248629Y-73338306D01*
X95264290Y-73325614D01*
X95271209Y-73312432D01*
X95288192Y-73287827D01*
X95293546Y-73281783D01*
X95304372Y-73257549D01*
X95324818Y-73227930D01*
X95337580Y-73194278D01*
X95349751Y-73178203D01*
X95353314Y-73163747D01*
X95363916Y-73135791D01*
X95367664Y-73128649D01*
X95372378Y-73102522D01*
X95378050Y-73087567D01*
X95385140Y-73068872D01*
X95392886Y-73005072D01*
X95394229Y-72997743D01*
X95397448Y-72984686D01*
X95397448Y-72984679D01*
X95398012Y-72982392D01*
X95398020Y-72982353D01*
X95402982Y-72962217D01*
X95401307Y-72935724D01*
X95405645Y-72900000D01*
X95401306Y-72864272D01*
X95404612Y-72844391D01*
X95398005Y-72817584D01*
X95397999Y-72817551D01*
X95397448Y-72815314D01*
X95394232Y-72802266D01*
X95392885Y-72794915D01*
X95385140Y-72731128D01*
X95372376Y-72697474D01*
X95370828Y-72677376D01*
X95363916Y-72664207D01*
X95353314Y-72636252D01*
X95351382Y-72628415D01*
X95337580Y-72605722D01*
X95324818Y-72572070D01*
X95304372Y-72542449D01*
X95298059Y-72523308D01*
X95288190Y-72512168D01*
X95271209Y-72487565D01*
X95267458Y-72480418D01*
X95248631Y-72461694D01*
X95228182Y-72432070D01*
X95201241Y-72408202D01*
X95190529Y-72391126D01*
X95178285Y-72382674D01*
X95155909Y-72362850D01*
X95150563Y-72356816D01*
X95127794Y-72343134D01*
X95100856Y-72319269D01*
X95100851Y-72319265D01*
X95068981Y-72302538D01*
X95054496Y-72288522D01*
X95040579Y-72283244D01*
X95014109Y-72269351D01*
X95007471Y-72264769D01*
X94982095Y-72256937D01*
X94950225Y-72240210D01*
X94950224Y-72240209D01*
X94950223Y-72240209D01*
X94915277Y-72231596D01*
X94897850Y-72221449D01*
X94883074Y-72219655D01*
X94854050Y-72212502D01*
X94846511Y-72209643D01*
X94820002Y-72208112D01*
X94785061Y-72199500D01*
X94785056Y-72199500D01*
X94749072Y-72199500D01*
X94729734Y-72193821D01*
X94714945Y-72195617D01*
X94685060Y-72195617D01*
X94677028Y-72194642D01*
X94650929Y-72199500D01*
X94614944Y-72199500D01*
X94579995Y-72208113D01*
X94559858Y-72207226D01*
X94545952Y-72212501D01*
X94516924Y-72219655D01*
X94508918Y-72220626D01*
X94484722Y-72231595D01*
X94449781Y-72240207D01*
X94449774Y-72240210D01*
X94417901Y-72256938D01*
X94398133Y-72260897D01*
X94385884Y-72269353D01*
X94359420Y-72283243D01*
X94351874Y-72286104D01*
X94331019Y-72302537D01*
X94299152Y-72319263D01*
X94299148Y-72319266D01*
X94272200Y-72343139D01*
X94253954Y-72351714D01*
X94244087Y-72362852D01*
X94221713Y-72382674D01*
X94215078Y-72387253D01*
X94198761Y-72408199D01*
X94171817Y-72432070D01*
X94151366Y-72461698D01*
X94135704Y-72474389D01*
X94128788Y-72487567D01*
X94111809Y-72512166D01*
X94106458Y-72518205D01*
X94095630Y-72542444D01*
X94075184Y-72572065D01*
X94075182Y-72572069D01*
X94062416Y-72605729D01*
X94050245Y-72621801D01*
X94046683Y-72636254D01*
X94036084Y-72664202D01*
X94032338Y-72671339D01*
X94027624Y-72697470D01*
X94014860Y-72731126D01*
X94010521Y-72766858D01*
X94002552Y-72785372D01*
X94002552Y-72800263D01*
X93998949Y-72829936D01*
X93997015Y-72837781D01*
X93998692Y-72864268D01*
X93994355Y-72899995D01*
X93994355Y-72900003D01*
X92339159Y-72900003D01*
X92342262Y-70000003D01*
X93994355Y-70000003D01*
X93998692Y-70035730D01*
X93995386Y-70055607D01*
X93998949Y-70070062D01*
X94002552Y-70099735D01*
X94002552Y-70107815D01*
X94010521Y-70133142D01*
X94014859Y-70168870D01*
X94014861Y-70168878D01*
X94027623Y-70202528D01*
X94029171Y-70222624D01*
X94036082Y-70235792D01*
X94046682Y-70263742D01*
X94048613Y-70271579D01*
X94062417Y-70294271D01*
X94064400Y-70299500D01*
X94075182Y-70327931D01*
X94075184Y-70327934D01*
X94095628Y-70357553D01*
X94101938Y-70376689D01*
X94111808Y-70387830D01*
X94128789Y-70412431D01*
X94132543Y-70419584D01*
X94151367Y-70438304D01*
X94171813Y-70467925D01*
X94171814Y-70467926D01*
X94198757Y-70491796D01*
X94209466Y-70508869D01*
X94221713Y-70517323D01*
X94244088Y-70537147D01*
X94249438Y-70543186D01*
X94272204Y-70556864D01*
X94299145Y-70580732D01*
X94299151Y-70580736D01*
X94331011Y-70597457D01*
X94345499Y-70611475D01*
X94359418Y-70616754D01*
X94385888Y-70630647D01*
X94392533Y-70635234D01*
X94417906Y-70643063D01*
X94449775Y-70659790D01*
X94484714Y-70668401D01*
X94502128Y-70678540D01*
X94516911Y-70680336D01*
X94545932Y-70687490D01*
X94553496Y-70690358D01*
X94580003Y-70691887D01*
X94614941Y-70700499D01*
X94614942Y-70700500D01*
X94650937Y-70700500D01*
X94670285Y-70706181D01*
X94685049Y-70704388D01*
X94714954Y-70704388D01*
X94722950Y-70705359D01*
X94749063Y-70700500D01*
X94785058Y-70700500D01*
X94785060Y-70700499D01*
X94819994Y-70691889D01*
X94840131Y-70692774D01*
X94854064Y-70687490D01*
X94883088Y-70680335D01*
X94891113Y-70679360D01*
X94915280Y-70668403D01*
X94950225Y-70659790D01*
X94982089Y-70643065D01*
X95001855Y-70639105D01*
X95014112Y-70630645D01*
X95040582Y-70616753D01*
X95048133Y-70613888D01*
X95068985Y-70597459D01*
X95100852Y-70580734D01*
X95127792Y-70556866D01*
X95146037Y-70548290D01*
X95155907Y-70537150D01*
X95178285Y-70517324D01*
X95184928Y-70512738D01*
X95201243Y-70491795D01*
X95228183Y-70467929D01*
X95248629Y-70438306D01*
X95264290Y-70425614D01*
X95271209Y-70412432D01*
X95288192Y-70387827D01*
X95293546Y-70381783D01*
X95304372Y-70357549D01*
X95324818Y-70327930D01*
X95337580Y-70294278D01*
X95349751Y-70278203D01*
X95353314Y-70263747D01*
X95363916Y-70235791D01*
X95367664Y-70228649D01*
X95372378Y-70202522D01*
X95374997Y-70195617D01*
X95385140Y-70168872D01*
X95392886Y-70105072D01*
X95394229Y-70097743D01*
X95397448Y-70084686D01*
X95397448Y-70084679D01*
X95398012Y-70082392D01*
X95398020Y-70082353D01*
X95402982Y-70062217D01*
X95401577Y-70040000D01*
X97144341Y-70040000D01*
X97164936Y-70275403D01*
X97164938Y-70275413D01*
X97226094Y-70503655D01*
X97226096Y-70503659D01*
X97226097Y-70503663D01*
X97314281Y-70692774D01*
X97325965Y-70717830D01*
X97325967Y-70717834D01*
X97461501Y-70911395D01*
X97461506Y-70911402D01*
X97628597Y-71078493D01*
X97628603Y-71078498D01*
X97676078Y-71111740D01*
X97809612Y-71205242D01*
X97814594Y-71208730D01*
X97858219Y-71263307D01*
X97865413Y-71332805D01*
X97833890Y-71395160D01*
X97814595Y-71411880D01*
X97628922Y-71541890D01*
X97628920Y-71541891D01*
X97461891Y-71708920D01*
X97461886Y-71708926D01*
X97326400Y-71902420D01*
X97326399Y-71902422D01*
X97226570Y-72116507D01*
X97226567Y-72116513D01*
X97169364Y-72329999D01*
X97169364Y-72330000D01*
X97886653Y-72330000D01*
X97953692Y-72349685D01*
X97999447Y-72402489D01*
X98009391Y-72471647D01*
X98005631Y-72488933D01*
X98000000Y-72508111D01*
X98000000Y-72651889D01*
X98003615Y-72664202D01*
X98005631Y-72671067D01*
X98005630Y-72740936D01*
X97967855Y-72799714D01*
X97904299Y-72828738D01*
X97886653Y-72830000D01*
X97169364Y-72830000D01*
X97226567Y-73043486D01*
X97226570Y-73043492D01*
X97326399Y-73257578D01*
X97461894Y-73451082D01*
X97628917Y-73618105D01*
X97822421Y-73753600D01*
X98036507Y-73853429D01*
X98036516Y-73853433D01*
X98250000Y-73910634D01*
X98250000Y-73192301D01*
X98269685Y-73125262D01*
X98322489Y-73079507D01*
X98391647Y-73069563D01*
X98464237Y-73080000D01*
X98464238Y-73080000D01*
X98535762Y-73080000D01*
X98535763Y-73080000D01*
X98608353Y-73069563D01*
X98677512Y-73079507D01*
X98730315Y-73125262D01*
X98750000Y-73192301D01*
X98750000Y-73910633D01*
X98963483Y-73853433D01*
X98963492Y-73853429D01*
X99177578Y-73753600D01*
X99371082Y-73618105D01*
X99538105Y-73451082D01*
X99673600Y-73257578D01*
X99773429Y-73043492D01*
X99773432Y-73043486D01*
X99830636Y-72830000D01*
X99113347Y-72830000D01*
X99046308Y-72810315D01*
X99000553Y-72757511D01*
X98990609Y-72688353D01*
X98994369Y-72671067D01*
X98996385Y-72664202D01*
X99000000Y-72651889D01*
X99000000Y-72508111D01*
X98994368Y-72488933D01*
X98994370Y-72419064D01*
X99032145Y-72360286D01*
X99095701Y-72331262D01*
X99113347Y-72330000D01*
X99830636Y-72330000D01*
X99830635Y-72329999D01*
X99773432Y-72116513D01*
X99773429Y-72116507D01*
X99673600Y-71902422D01*
X99673599Y-71902420D01*
X99538113Y-71708926D01*
X99538108Y-71708920D01*
X99371078Y-71541890D01*
X99185405Y-71411879D01*
X99141780Y-71357302D01*
X99135850Y-71300000D01*
X106294540Y-71300000D01*
X106314326Y-71488256D01*
X106314327Y-71488259D01*
X106372818Y-71668277D01*
X106372821Y-71668284D01*
X106467467Y-71832216D01*
X106530681Y-71902422D01*
X106594129Y-71972888D01*
X106747265Y-72084148D01*
X106747270Y-72084151D01*
X106920192Y-72161142D01*
X106920197Y-72161144D01*
X107105354Y-72200500D01*
X107105355Y-72200500D01*
X107294644Y-72200500D01*
X107294646Y-72200500D01*
X107479803Y-72161144D01*
X107652730Y-72084151D01*
X107768554Y-72000000D01*
X108694540Y-72000000D01*
X108714326Y-72188256D01*
X108714327Y-72188259D01*
X108772818Y-72368277D01*
X108772821Y-72368284D01*
X108867467Y-72532216D01*
X108975221Y-72651889D01*
X108994129Y-72672888D01*
X109147265Y-72784148D01*
X109147270Y-72784151D01*
X109320192Y-72861142D01*
X109320197Y-72861144D01*
X109505354Y-72900500D01*
X109505355Y-72900500D01*
X109694644Y-72900500D01*
X109694646Y-72900500D01*
X109879803Y-72861144D01*
X110052730Y-72784151D01*
X110205871Y-72672888D01*
X110332533Y-72532216D01*
X110427179Y-72368284D01*
X110485674Y-72188256D01*
X110498483Y-72066385D01*
X117286231Y-72066385D01*
X117306017Y-72254641D01*
X117306018Y-72254644D01*
X117364509Y-72434662D01*
X117364512Y-72434669D01*
X117459158Y-72598601D01*
X117548185Y-72697475D01*
X117585820Y-72739273D01*
X117738956Y-72850533D01*
X117738961Y-72850536D01*
X117911883Y-72927527D01*
X117911888Y-72927529D01*
X118097045Y-72966885D01*
X118097046Y-72966885D01*
X118286335Y-72966885D01*
X118286337Y-72966885D01*
X118471494Y-72927529D01*
X118644421Y-72850536D01*
X118797562Y-72739273D01*
X118924224Y-72598601D01*
X119018870Y-72434669D01*
X119077365Y-72254641D01*
X119097151Y-72066385D01*
X119077365Y-71878129D01*
X119018870Y-71698101D01*
X118924224Y-71534169D01*
X118797562Y-71393497D01*
X118795221Y-71391796D01*
X118644425Y-71282236D01*
X118644420Y-71282233D01*
X118471498Y-71205242D01*
X118471493Y-71205240D01*
X118446840Y-71200000D01*
X126294540Y-71200000D01*
X126314326Y-71388256D01*
X126314327Y-71388259D01*
X126372818Y-71568277D01*
X126372821Y-71568284D01*
X126467467Y-71732216D01*
X126539071Y-71811740D01*
X126594129Y-71872888D01*
X126747265Y-71984148D01*
X126747270Y-71984151D01*
X126920192Y-72061142D01*
X126920197Y-72061144D01*
X127105354Y-72100500D01*
X127105355Y-72100500D01*
X127294644Y-72100500D01*
X127294646Y-72100500D01*
X127479803Y-72061144D01*
X127652730Y-71984151D01*
X127805871Y-71872888D01*
X127871500Y-71800000D01*
X130220040Y-71800000D01*
X130239826Y-71988256D01*
X130239827Y-71988259D01*
X130298318Y-72168277D01*
X130298321Y-72168284D01*
X130392967Y-72332216D01*
X130518512Y-72471647D01*
X130519629Y-72472888D01*
X130672765Y-72584148D01*
X130672770Y-72584151D01*
X130845692Y-72661142D01*
X130845697Y-72661144D01*
X131030854Y-72700500D01*
X131030855Y-72700500D01*
X131220144Y-72700500D01*
X131220146Y-72700500D01*
X131405303Y-72661144D01*
X131578230Y-72584151D01*
X131731371Y-72472888D01*
X131858033Y-72332216D01*
X131952679Y-72168284D01*
X132011174Y-71988256D01*
X132030960Y-71800000D01*
X132011174Y-71611744D01*
X131952679Y-71431716D01*
X131858033Y-71267784D01*
X131731371Y-71127112D01*
X131710219Y-71111744D01*
X131578234Y-71015851D01*
X131578229Y-71015848D01*
X131405307Y-70938857D01*
X131405302Y-70938855D01*
X131259500Y-70907865D01*
X131220146Y-70899500D01*
X131030854Y-70899500D01*
X130998397Y-70906398D01*
X130845697Y-70938855D01*
X130845692Y-70938857D01*
X130672770Y-71015848D01*
X130672765Y-71015851D01*
X130519629Y-71127111D01*
X130392966Y-71267785D01*
X130298321Y-71431715D01*
X130298318Y-71431722D01*
X130239827Y-71611740D01*
X130239826Y-71611744D01*
X130220040Y-71800000D01*
X127871500Y-71800000D01*
X127932533Y-71732216D01*
X128027179Y-71568284D01*
X128085674Y-71388256D01*
X128105460Y-71200000D01*
X128085674Y-71011744D01*
X128029149Y-70837778D01*
X128027181Y-70831722D01*
X128027180Y-70831721D01*
X128027179Y-70831716D01*
X127932533Y-70667784D01*
X127805871Y-70527112D01*
X127805870Y-70527111D01*
X127652734Y-70415851D01*
X127652729Y-70415848D01*
X127479807Y-70338857D01*
X127479802Y-70338855D01*
X127333055Y-70307664D01*
X127294646Y-70299500D01*
X127105354Y-70299500D01*
X127072897Y-70306398D01*
X126920197Y-70338855D01*
X126920192Y-70338857D01*
X126747270Y-70415848D01*
X126747265Y-70415851D01*
X126594129Y-70527111D01*
X126467466Y-70667785D01*
X126372821Y-70831715D01*
X126372818Y-70831722D01*
X126314327Y-71011740D01*
X126314326Y-71011744D01*
X126294540Y-71200000D01*
X118446840Y-71200000D01*
X118313125Y-71171579D01*
X118286337Y-71165885D01*
X118097045Y-71165885D01*
X118070257Y-71171579D01*
X117911888Y-71205240D01*
X117911883Y-71205242D01*
X117738961Y-71282233D01*
X117738956Y-71282236D01*
X117585820Y-71393496D01*
X117459157Y-71534170D01*
X117364512Y-71698100D01*
X117364509Y-71698107D01*
X117320935Y-71832216D01*
X117306017Y-71878129D01*
X117286231Y-72066385D01*
X110498483Y-72066385D01*
X110505460Y-72000000D01*
X110485674Y-71811744D01*
X110427179Y-71631716D01*
X110332533Y-71467784D01*
X110205871Y-71327112D01*
X110205870Y-71327111D01*
X110052734Y-71215851D01*
X110052729Y-71215848D01*
X109879807Y-71138857D01*
X109879802Y-71138855D01*
X109734001Y-71107865D01*
X109694646Y-71099500D01*
X109505354Y-71099500D01*
X109472897Y-71106398D01*
X109320197Y-71138855D01*
X109320192Y-71138857D01*
X109147270Y-71215848D01*
X109147265Y-71215851D01*
X108994129Y-71327111D01*
X108867466Y-71467785D01*
X108772821Y-71631715D01*
X108772818Y-71631722D01*
X108740166Y-71732216D01*
X108714326Y-71811744D01*
X108694540Y-72000000D01*
X107768554Y-72000000D01*
X107805871Y-71972888D01*
X107932533Y-71832216D01*
X108027179Y-71668284D01*
X108085674Y-71488256D01*
X108105460Y-71300000D01*
X108085674Y-71111744D01*
X108027179Y-70931716D01*
X107932533Y-70767784D01*
X107805871Y-70627112D01*
X107798561Y-70621801D01*
X107652734Y-70515851D01*
X107652729Y-70515848D01*
X107479807Y-70438857D01*
X107479802Y-70438855D01*
X107334000Y-70407865D01*
X107294646Y-70399500D01*
X107105354Y-70399500D01*
X107072897Y-70406398D01*
X106920197Y-70438855D01*
X106920192Y-70438857D01*
X106747270Y-70515848D01*
X106747265Y-70515851D01*
X106594129Y-70627111D01*
X106467466Y-70767785D01*
X106372821Y-70931715D01*
X106372818Y-70931722D01*
X106318304Y-71099500D01*
X106314326Y-71111744D01*
X106294540Y-71300000D01*
X99135850Y-71300000D01*
X99134588Y-71287804D01*
X99166110Y-71225449D01*
X99185406Y-71208730D01*
X99371401Y-71078495D01*
X99538495Y-70911401D01*
X99674035Y-70717830D01*
X99773903Y-70503663D01*
X99835063Y-70275408D01*
X99855659Y-70040000D01*
X99852159Y-70000000D01*
X136594540Y-70000000D01*
X136614326Y-70188256D01*
X136614327Y-70188259D01*
X136672818Y-70368277D01*
X136672821Y-70368284D01*
X136767467Y-70532216D01*
X136886308Y-70664202D01*
X136894129Y-70672888D01*
X137047265Y-70784148D01*
X137047270Y-70784151D01*
X137220192Y-70861142D01*
X137220197Y-70861144D01*
X137405354Y-70900500D01*
X137405355Y-70900500D01*
X137594644Y-70900500D01*
X137594646Y-70900500D01*
X137779803Y-70861144D01*
X137952730Y-70784151D01*
X138105871Y-70672888D01*
X138232533Y-70532216D01*
X138327179Y-70368284D01*
X138349366Y-70300000D01*
X146894540Y-70300000D01*
X146914326Y-70488256D01*
X146914327Y-70488259D01*
X146972818Y-70668277D01*
X146972821Y-70668284D01*
X147067467Y-70832216D01*
X147163487Y-70938857D01*
X147194129Y-70972888D01*
X147347265Y-71084148D01*
X147347270Y-71084151D01*
X147520192Y-71161142D01*
X147520197Y-71161144D01*
X147705354Y-71200500D01*
X147705355Y-71200500D01*
X147894644Y-71200500D01*
X147894646Y-71200500D01*
X148079803Y-71161144D01*
X148252730Y-71084151D01*
X148405871Y-70972888D01*
X148532533Y-70832216D01*
X148627179Y-70668284D01*
X148685674Y-70488256D01*
X148705460Y-70300000D01*
X148685674Y-70111744D01*
X148627179Y-69931716D01*
X148532533Y-69767784D01*
X148405871Y-69627112D01*
X148405870Y-69627111D01*
X148252734Y-69515851D01*
X148252729Y-69515848D01*
X148079807Y-69438857D01*
X148079802Y-69438855D01*
X147934000Y-69407865D01*
X147894646Y-69399500D01*
X147705354Y-69399500D01*
X147672897Y-69406398D01*
X147520197Y-69438855D01*
X147520192Y-69438857D01*
X147347270Y-69515848D01*
X147347265Y-69515851D01*
X147194129Y-69627111D01*
X147067466Y-69767785D01*
X146972821Y-69931715D01*
X146972818Y-69931722D01*
X146914327Y-70111740D01*
X146914326Y-70111744D01*
X146894540Y-70300000D01*
X138349366Y-70300000D01*
X138385674Y-70188256D01*
X138405460Y-70000000D01*
X138385674Y-69811744D01*
X138327179Y-69631716D01*
X138232533Y-69467784D01*
X138105871Y-69327112D01*
X138096944Y-69320626D01*
X137952734Y-69215851D01*
X137952729Y-69215848D01*
X137779807Y-69138857D01*
X137779802Y-69138855D01*
X137634001Y-69107865D01*
X137594646Y-69099500D01*
X137405354Y-69099500D01*
X137372897Y-69106398D01*
X137220197Y-69138855D01*
X137220192Y-69138857D01*
X137047270Y-69215848D01*
X137047265Y-69215851D01*
X136894129Y-69327111D01*
X136767466Y-69467785D01*
X136672821Y-69631715D01*
X136672818Y-69631722D01*
X136614327Y-69811740D01*
X136614326Y-69811744D01*
X136594540Y-70000000D01*
X99852159Y-70000000D01*
X99835063Y-69804592D01*
X99776912Y-69587567D01*
X99773905Y-69576344D01*
X99773904Y-69576343D01*
X99773903Y-69576337D01*
X99674035Y-69362171D01*
X99670370Y-69356936D01*
X99538494Y-69168597D01*
X99444340Y-69074444D01*
X124579673Y-69074444D01*
X124599459Y-69262700D01*
X124599460Y-69262703D01*
X124657951Y-69442721D01*
X124657954Y-69442728D01*
X124752600Y-69606660D01*
X124869287Y-69736254D01*
X124879262Y-69747332D01*
X125032398Y-69858592D01*
X125032403Y-69858595D01*
X125205325Y-69935586D01*
X125205330Y-69935588D01*
X125390487Y-69974944D01*
X125390488Y-69974944D01*
X125579777Y-69974944D01*
X125579779Y-69974944D01*
X125764936Y-69935588D01*
X125937863Y-69858595D01*
X126091004Y-69747332D01*
X126217666Y-69606660D01*
X126312312Y-69442728D01*
X126370807Y-69262700D01*
X126390593Y-69074444D01*
X126370807Y-68886188D01*
X126312312Y-68706160D01*
X126217666Y-68542228D01*
X126091004Y-68401556D01*
X126089551Y-68400500D01*
X125937867Y-68290295D01*
X125937862Y-68290292D01*
X125764940Y-68213301D01*
X125764935Y-68213299D01*
X125598061Y-68177830D01*
X125579779Y-68173944D01*
X125390487Y-68173944D01*
X125372205Y-68177830D01*
X125205330Y-68213299D01*
X125205325Y-68213301D01*
X125032403Y-68290292D01*
X125032398Y-68290295D01*
X124879262Y-68401555D01*
X124752599Y-68542229D01*
X124657954Y-68706159D01*
X124657951Y-68706166D01*
X124606030Y-68865965D01*
X124599459Y-68886188D01*
X124579673Y-69074444D01*
X99444340Y-69074444D01*
X99371402Y-69001506D01*
X99371396Y-69001501D01*
X99185842Y-68871575D01*
X99142217Y-68816998D01*
X99135023Y-68747500D01*
X99166546Y-68685145D01*
X99185842Y-68668425D01*
X99366068Y-68542229D01*
X99371401Y-68538495D01*
X99538495Y-68371401D01*
X99674035Y-68177830D01*
X99773903Y-67963663D01*
X99835063Y-67735408D01*
X99855659Y-67500000D01*
X99838161Y-67300000D01*
X107394540Y-67300000D01*
X107414326Y-67488256D01*
X107414327Y-67488259D01*
X107472818Y-67668277D01*
X107472821Y-67668284D01*
X107567467Y-67832216D01*
X107683553Y-67961142D01*
X107694129Y-67972888D01*
X107847265Y-68084148D01*
X107847270Y-68084151D01*
X108020192Y-68161142D01*
X108020197Y-68161144D01*
X108205354Y-68200500D01*
X108205355Y-68200500D01*
X108394644Y-68200500D01*
X108394646Y-68200500D01*
X108579803Y-68161144D01*
X108752730Y-68084151D01*
X108905871Y-67972888D01*
X109032533Y-67832216D01*
X109127179Y-67668284D01*
X109181858Y-67500000D01*
X130394540Y-67500000D01*
X130414326Y-67688256D01*
X130414327Y-67688259D01*
X130472818Y-67868277D01*
X130472821Y-67868284D01*
X130567467Y-68032216D01*
X130614227Y-68084148D01*
X130694129Y-68172888D01*
X130847265Y-68284148D01*
X130847270Y-68284151D01*
X131020192Y-68361142D01*
X131020197Y-68361144D01*
X131205354Y-68400500D01*
X131205355Y-68400500D01*
X131394644Y-68400500D01*
X131394646Y-68400500D01*
X131579803Y-68361144D01*
X131752730Y-68284151D01*
X131905871Y-68172888D01*
X132032533Y-68032216D01*
X132127179Y-67868284D01*
X132185674Y-67688256D01*
X132205460Y-67500000D01*
X132185674Y-67311744D01*
X132127179Y-67131716D01*
X132108868Y-67100000D01*
X134594540Y-67100000D01*
X134614326Y-67288256D01*
X134614327Y-67288259D01*
X134672818Y-67468277D01*
X134672821Y-67468284D01*
X134767467Y-67632216D01*
X134862995Y-67738310D01*
X134894129Y-67772888D01*
X135047265Y-67884148D01*
X135047270Y-67884151D01*
X135220192Y-67961142D01*
X135220197Y-67961144D01*
X135405354Y-68000500D01*
X135405355Y-68000500D01*
X135594644Y-68000500D01*
X135594646Y-68000500D01*
X135779803Y-67961144D01*
X135952730Y-67884151D01*
X136105871Y-67772888D01*
X136232533Y-67632216D01*
X136327179Y-67468284D01*
X136385674Y-67288256D01*
X136405460Y-67100000D01*
X138894540Y-67100000D01*
X138914326Y-67288256D01*
X138914327Y-67288259D01*
X138972818Y-67468277D01*
X138972821Y-67468284D01*
X139067467Y-67632216D01*
X139162995Y-67738310D01*
X139194129Y-67772888D01*
X139347265Y-67884148D01*
X139347270Y-67884151D01*
X139520192Y-67961142D01*
X139520197Y-67961144D01*
X139705354Y-68000500D01*
X139705355Y-68000500D01*
X139894644Y-68000500D01*
X139894646Y-68000500D01*
X140079803Y-67961144D01*
X140252730Y-67884151D01*
X140405871Y-67772888D01*
X140532533Y-67632216D01*
X140627179Y-67468284D01*
X140685674Y-67288256D01*
X140705460Y-67100000D01*
X140685674Y-66911744D01*
X140627179Y-66731716D01*
X140532533Y-66567784D01*
X140405871Y-66427112D01*
X140382518Y-66410145D01*
X140252734Y-66315851D01*
X140252729Y-66315848D01*
X140079807Y-66238857D01*
X140079802Y-66238855D01*
X139934000Y-66207865D01*
X139894646Y-66199500D01*
X139705354Y-66199500D01*
X139672897Y-66206398D01*
X139520197Y-66238855D01*
X139520192Y-66238857D01*
X139347270Y-66315848D01*
X139347265Y-66315851D01*
X139194129Y-66427111D01*
X139067466Y-66567785D01*
X138972821Y-66731715D01*
X138972818Y-66731722D01*
X138914327Y-66911740D01*
X138914326Y-66911744D01*
X138894540Y-67100000D01*
X136405460Y-67100000D01*
X136385674Y-66911744D01*
X136327179Y-66731716D01*
X136232533Y-66567784D01*
X136105871Y-66427112D01*
X136082518Y-66410145D01*
X135952734Y-66315851D01*
X135952729Y-66315848D01*
X135779807Y-66238857D01*
X135779802Y-66238855D01*
X135634001Y-66207865D01*
X135594646Y-66199500D01*
X135405354Y-66199500D01*
X135372897Y-66206398D01*
X135220197Y-66238855D01*
X135220192Y-66238857D01*
X135047270Y-66315848D01*
X135047265Y-66315851D01*
X134894129Y-66427111D01*
X134767466Y-66567785D01*
X134672821Y-66731715D01*
X134672818Y-66731722D01*
X134614327Y-66911740D01*
X134614326Y-66911744D01*
X134594540Y-67100000D01*
X132108868Y-67100000D01*
X132032533Y-66967784D01*
X131905871Y-66827112D01*
X131905870Y-66827111D01*
X131752734Y-66715851D01*
X131752729Y-66715848D01*
X131579807Y-66638857D01*
X131579802Y-66638855D01*
X131423344Y-66605600D01*
X131394646Y-66599500D01*
X131205354Y-66599500D01*
X131176656Y-66605600D01*
X131020197Y-66638855D01*
X131020192Y-66638857D01*
X130847270Y-66715848D01*
X130847265Y-66715851D01*
X130694129Y-66827111D01*
X130567466Y-66967785D01*
X130472821Y-67131715D01*
X130472818Y-67131722D01*
X130418141Y-67300003D01*
X130414326Y-67311744D01*
X130394540Y-67500000D01*
X109181858Y-67500000D01*
X109185674Y-67488256D01*
X109205460Y-67300000D01*
X109185674Y-67111744D01*
X109127179Y-66931716D01*
X109032533Y-66767784D01*
X108905871Y-66627112D01*
X108896944Y-66620626D01*
X108752734Y-66515851D01*
X108752729Y-66515848D01*
X108579807Y-66438857D01*
X108579802Y-66438855D01*
X108434001Y-66407865D01*
X108394646Y-66399500D01*
X108205354Y-66399500D01*
X108172897Y-66406398D01*
X108020197Y-66438855D01*
X108020192Y-66438857D01*
X107847270Y-66515848D01*
X107847265Y-66515851D01*
X107694129Y-66627111D01*
X107567466Y-66767785D01*
X107472821Y-66931715D01*
X107472818Y-66931722D01*
X107418964Y-67097470D01*
X107414326Y-67111744D01*
X107394540Y-67300000D01*
X99838161Y-67300000D01*
X99835063Y-67264592D01*
X99773903Y-67036337D01*
X99674035Y-66822171D01*
X99652297Y-66791126D01*
X99538496Y-66628600D01*
X99477680Y-66567784D01*
X99416567Y-66506671D01*
X99383084Y-66445351D01*
X99388068Y-66375659D01*
X99429939Y-66319725D01*
X99460915Y-66302810D01*
X99592331Y-66253796D01*
X99707546Y-66167546D01*
X99758111Y-66100000D01*
X132194540Y-66100000D01*
X132214326Y-66288256D01*
X132214327Y-66288259D01*
X132272818Y-66468277D01*
X132272821Y-66468284D01*
X132367467Y-66632216D01*
X132457063Y-66731722D01*
X132494129Y-66772888D01*
X132647265Y-66884148D01*
X132647270Y-66884151D01*
X132820192Y-66961142D01*
X132820197Y-66961144D01*
X133005354Y-67000500D01*
X133005355Y-67000500D01*
X133194644Y-67000500D01*
X133194646Y-67000500D01*
X133379803Y-66961144D01*
X133552730Y-66884151D01*
X133705871Y-66772888D01*
X133832533Y-66632216D01*
X133927179Y-66468284D01*
X133985674Y-66288256D01*
X134005460Y-66100000D01*
X133985674Y-65911744D01*
X133927179Y-65731716D01*
X133832533Y-65567784D01*
X133705871Y-65427112D01*
X133677062Y-65406181D01*
X133552734Y-65315851D01*
X133552729Y-65315848D01*
X133379807Y-65238857D01*
X133379802Y-65238855D01*
X133234001Y-65207865D01*
X133194646Y-65199500D01*
X133005354Y-65199500D01*
X132972897Y-65206398D01*
X132820197Y-65238855D01*
X132820192Y-65238857D01*
X132647270Y-65315848D01*
X132647265Y-65315851D01*
X132494129Y-65427111D01*
X132367466Y-65567785D01*
X132272821Y-65731715D01*
X132272818Y-65731722D01*
X132214327Y-65911740D01*
X132214326Y-65911744D01*
X132194540Y-66100000D01*
X99758111Y-66100000D01*
X99793796Y-66052331D01*
X99844091Y-65917483D01*
X99850500Y-65857873D01*
X99850499Y-64500000D01*
X107594540Y-64500000D01*
X107614326Y-64688256D01*
X107614327Y-64688259D01*
X107672818Y-64868277D01*
X107672821Y-64868284D01*
X107767467Y-65032216D01*
X107862995Y-65138310D01*
X107894129Y-65172888D01*
X108047265Y-65284148D01*
X108047270Y-65284151D01*
X108220192Y-65361142D01*
X108220197Y-65361144D01*
X108405354Y-65400500D01*
X108405355Y-65400500D01*
X108594644Y-65400500D01*
X108594646Y-65400500D01*
X108779803Y-65361144D01*
X108952730Y-65284151D01*
X109105871Y-65172888D01*
X109232533Y-65032216D01*
X109327179Y-64868284D01*
X109385674Y-64688256D01*
X109405460Y-64500000D01*
X109385674Y-64311744D01*
X109381858Y-64300000D01*
X136594540Y-64300000D01*
X136614326Y-64488256D01*
X136614327Y-64488259D01*
X136672818Y-64668277D01*
X136672821Y-64668284D01*
X136767467Y-64832216D01*
X136848871Y-64922624D01*
X136894129Y-64972888D01*
X137047265Y-65084148D01*
X137047270Y-65084151D01*
X137220192Y-65161142D01*
X137220197Y-65161144D01*
X137405354Y-65200500D01*
X137405355Y-65200500D01*
X137594644Y-65200500D01*
X137594646Y-65200500D01*
X137779803Y-65161144D01*
X137952730Y-65084151D01*
X138105871Y-64972888D01*
X138232533Y-64832216D01*
X138327179Y-64668284D01*
X138385674Y-64488256D01*
X138405460Y-64300000D01*
X138385674Y-64111744D01*
X138327179Y-63931716D01*
X138232533Y-63767784D01*
X138105871Y-63627112D01*
X138105870Y-63627111D01*
X137952734Y-63515851D01*
X137952729Y-63515848D01*
X137779807Y-63438857D01*
X137779802Y-63438855D01*
X137634000Y-63407865D01*
X137594646Y-63399500D01*
X137405354Y-63399500D01*
X137372897Y-63406398D01*
X137220197Y-63438855D01*
X137220192Y-63438857D01*
X137047270Y-63515848D01*
X137047265Y-63515851D01*
X136894129Y-63627111D01*
X136767466Y-63767785D01*
X136672821Y-63931715D01*
X136672818Y-63931722D01*
X136617317Y-64102538D01*
X136614326Y-64111744D01*
X136594540Y-64300000D01*
X109381858Y-64300000D01*
X109327179Y-64131716D01*
X109232533Y-63967784D01*
X109105871Y-63827112D01*
X109105870Y-63827111D01*
X108952734Y-63715851D01*
X108952729Y-63715848D01*
X108779807Y-63638857D01*
X108779802Y-63638855D01*
X108634000Y-63607865D01*
X108594646Y-63599500D01*
X108405354Y-63599500D01*
X108372897Y-63606398D01*
X108220197Y-63638855D01*
X108220192Y-63638857D01*
X108047270Y-63715848D01*
X108047265Y-63715851D01*
X107894129Y-63827111D01*
X107767466Y-63967785D01*
X107672821Y-64131715D01*
X107672818Y-64131722D01*
X107618142Y-64299999D01*
X107614326Y-64311744D01*
X107594540Y-64500000D01*
X99850499Y-64500000D01*
X99850499Y-64062128D01*
X99844091Y-64002517D01*
X99841517Y-63995617D01*
X99793797Y-63867671D01*
X99793793Y-63867664D01*
X99707547Y-63752455D01*
X99707544Y-63752452D01*
X99592335Y-63666206D01*
X99592328Y-63666202D01*
X99457482Y-63615908D01*
X99457483Y-63615908D01*
X99397883Y-63609501D01*
X99397881Y-63609500D01*
X99397873Y-63609500D01*
X99397864Y-63609500D01*
X97602129Y-63609500D01*
X97602123Y-63609501D01*
X97542516Y-63615908D01*
X97407671Y-63666202D01*
X97407664Y-63666206D01*
X97292455Y-63752452D01*
X97292452Y-63752455D01*
X97206206Y-63867664D01*
X97206202Y-63867671D01*
X97155908Y-64002517D01*
X97150058Y-64056936D01*
X97149501Y-64062123D01*
X97149500Y-64062135D01*
X97149500Y-65857870D01*
X97149501Y-65857876D01*
X97155908Y-65917483D01*
X97206202Y-66052328D01*
X97206206Y-66052335D01*
X97292452Y-66167544D01*
X97292455Y-66167547D01*
X97407664Y-66253793D01*
X97407671Y-66253797D01*
X97539081Y-66302810D01*
X97595015Y-66344681D01*
X97619432Y-66410145D01*
X97604580Y-66478418D01*
X97583430Y-66506673D01*
X97461503Y-66628600D01*
X97325965Y-66822169D01*
X97325964Y-66822171D01*
X97226098Y-67036335D01*
X97226094Y-67036344D01*
X97164938Y-67264586D01*
X97164936Y-67264596D01*
X97144341Y-67499999D01*
X97144341Y-67500000D01*
X97164936Y-67735403D01*
X97164938Y-67735413D01*
X97226094Y-67963655D01*
X97226096Y-67963659D01*
X97226097Y-67963663D01*
X97245924Y-68006181D01*
X97325965Y-68177830D01*
X97325967Y-68177834D01*
X97461501Y-68371395D01*
X97461506Y-68371402D01*
X97628597Y-68538493D01*
X97628603Y-68538498D01*
X97814158Y-68668425D01*
X97857783Y-68723002D01*
X97864977Y-68792500D01*
X97833454Y-68854855D01*
X97814158Y-68871575D01*
X97628597Y-69001505D01*
X97461505Y-69168597D01*
X97325965Y-69362169D01*
X97325964Y-69362171D01*
X97226098Y-69576335D01*
X97226094Y-69576344D01*
X97164938Y-69804586D01*
X97164936Y-69804596D01*
X97144341Y-70039999D01*
X97144341Y-70040000D01*
X95401577Y-70040000D01*
X95401307Y-70035724D01*
X95405645Y-70000000D01*
X95401306Y-69964272D01*
X95404612Y-69944391D01*
X95398005Y-69917584D01*
X95397999Y-69917551D01*
X95397448Y-69915314D01*
X95394232Y-69902266D01*
X95392885Y-69894915D01*
X95385140Y-69831128D01*
X95372376Y-69797474D01*
X95370828Y-69777376D01*
X95363916Y-69764207D01*
X95353314Y-69736252D01*
X95351382Y-69728415D01*
X95337580Y-69705722D01*
X95324818Y-69672070D01*
X95304372Y-69642449D01*
X95298059Y-69623308D01*
X95288190Y-69612168D01*
X95271209Y-69587565D01*
X95267458Y-69580418D01*
X95248631Y-69561694D01*
X95228182Y-69532070D01*
X95201241Y-69508202D01*
X95190529Y-69491126D01*
X95178285Y-69482674D01*
X95155909Y-69462850D01*
X95150563Y-69456816D01*
X95127794Y-69443134D01*
X95100856Y-69419269D01*
X95100851Y-69419265D01*
X95068981Y-69402538D01*
X95054496Y-69388522D01*
X95040579Y-69383244D01*
X95014109Y-69369351D01*
X95007471Y-69364769D01*
X94982095Y-69356937D01*
X94950225Y-69340210D01*
X94950224Y-69340209D01*
X94950223Y-69340209D01*
X94915277Y-69331596D01*
X94897850Y-69321449D01*
X94883074Y-69319655D01*
X94854050Y-69312502D01*
X94846511Y-69309643D01*
X94820002Y-69308112D01*
X94785061Y-69299500D01*
X94785056Y-69299500D01*
X94749072Y-69299500D01*
X94729734Y-69293821D01*
X94714945Y-69295617D01*
X94685060Y-69295617D01*
X94677028Y-69294642D01*
X94650929Y-69299500D01*
X94614944Y-69299500D01*
X94579995Y-69308113D01*
X94559858Y-69307226D01*
X94545952Y-69312501D01*
X94516924Y-69319655D01*
X94508918Y-69320626D01*
X94484722Y-69331595D01*
X94449781Y-69340207D01*
X94449774Y-69340210D01*
X94417901Y-69356938D01*
X94398133Y-69360897D01*
X94385884Y-69369353D01*
X94359420Y-69383243D01*
X94351874Y-69386104D01*
X94331019Y-69402537D01*
X94299152Y-69419263D01*
X94299148Y-69419266D01*
X94272200Y-69443139D01*
X94253954Y-69451714D01*
X94244087Y-69462852D01*
X94221713Y-69482674D01*
X94215078Y-69487253D01*
X94198761Y-69508199D01*
X94171817Y-69532070D01*
X94151366Y-69561698D01*
X94135704Y-69574389D01*
X94128788Y-69587567D01*
X94111809Y-69612166D01*
X94106458Y-69618205D01*
X94095630Y-69642444D01*
X94075184Y-69672065D01*
X94075182Y-69672069D01*
X94062416Y-69705729D01*
X94050245Y-69721801D01*
X94046683Y-69736254D01*
X94036084Y-69764202D01*
X94032338Y-69771339D01*
X94027624Y-69797470D01*
X94014860Y-69831126D01*
X94010521Y-69866858D01*
X94002552Y-69885372D01*
X94002552Y-69900263D01*
X93998949Y-69929936D01*
X93997015Y-69937781D01*
X93998692Y-69964268D01*
X93994355Y-69999995D01*
X93994355Y-70000003D01*
X92342262Y-70000003D01*
X92345150Y-67300003D01*
X93994355Y-67300003D01*
X93998692Y-67335730D01*
X93995386Y-67355607D01*
X93998949Y-67370062D01*
X94002552Y-67399735D01*
X94002552Y-67407815D01*
X94010521Y-67433142D01*
X94014859Y-67468870D01*
X94014861Y-67468878D01*
X94027623Y-67502528D01*
X94029171Y-67522624D01*
X94036082Y-67535792D01*
X94046682Y-67563742D01*
X94048613Y-67571579D01*
X94062417Y-67594271D01*
X94067601Y-67607940D01*
X94075182Y-67627931D01*
X94075184Y-67627934D01*
X94095628Y-67657553D01*
X94101938Y-67676689D01*
X94111808Y-67687830D01*
X94128789Y-67712431D01*
X94132543Y-67719584D01*
X94151367Y-67738304D01*
X94171813Y-67767925D01*
X94171814Y-67767926D01*
X94198757Y-67791796D01*
X94209466Y-67808869D01*
X94221713Y-67817323D01*
X94244088Y-67837147D01*
X94249438Y-67843186D01*
X94272204Y-67856864D01*
X94299145Y-67880732D01*
X94299151Y-67880736D01*
X94331011Y-67897457D01*
X94345499Y-67911475D01*
X94359418Y-67916754D01*
X94385888Y-67930647D01*
X94392533Y-67935234D01*
X94417906Y-67943063D01*
X94449775Y-67959790D01*
X94484714Y-67968401D01*
X94502128Y-67978540D01*
X94516911Y-67980336D01*
X94545932Y-67987490D01*
X94553496Y-67990358D01*
X94580003Y-67991887D01*
X94614941Y-68000499D01*
X94614942Y-68000500D01*
X94650937Y-68000500D01*
X94670285Y-68006181D01*
X94685049Y-68004388D01*
X94714954Y-68004388D01*
X94722950Y-68005359D01*
X94749063Y-68000500D01*
X94785058Y-68000500D01*
X94785060Y-68000499D01*
X94819994Y-67991889D01*
X94840131Y-67992774D01*
X94854064Y-67987490D01*
X94883088Y-67980335D01*
X94891113Y-67979360D01*
X94915280Y-67968403D01*
X94950225Y-67959790D01*
X94982089Y-67943065D01*
X95001855Y-67939105D01*
X95014112Y-67930645D01*
X95040582Y-67916753D01*
X95048133Y-67913888D01*
X95068985Y-67897459D01*
X95100852Y-67880734D01*
X95127792Y-67856866D01*
X95146037Y-67848290D01*
X95155907Y-67837150D01*
X95178285Y-67817324D01*
X95184928Y-67812738D01*
X95201243Y-67791795D01*
X95228183Y-67767929D01*
X95248629Y-67738306D01*
X95264290Y-67725614D01*
X95271209Y-67712432D01*
X95288192Y-67687827D01*
X95293546Y-67681783D01*
X95304372Y-67657549D01*
X95324818Y-67627930D01*
X95337580Y-67594278D01*
X95349751Y-67578203D01*
X95353314Y-67563747D01*
X95363916Y-67535791D01*
X95367664Y-67528649D01*
X95372378Y-67502522D01*
X95385140Y-67468872D01*
X95392886Y-67405072D01*
X95394229Y-67397743D01*
X95397448Y-67384686D01*
X95397448Y-67384679D01*
X95398012Y-67382392D01*
X95398020Y-67382353D01*
X95402982Y-67362217D01*
X95401307Y-67335724D01*
X95405645Y-67300000D01*
X95401306Y-67264272D01*
X95404612Y-67244391D01*
X95398005Y-67217584D01*
X95397999Y-67217551D01*
X95397448Y-67215314D01*
X95394232Y-67202266D01*
X95392885Y-67194915D01*
X95385212Y-67131722D01*
X95385140Y-67131127D01*
X95385139Y-67131126D01*
X95372376Y-67097474D01*
X95370828Y-67077376D01*
X95363916Y-67064207D01*
X95353314Y-67036252D01*
X95351382Y-67028415D01*
X95337580Y-67005722D01*
X95324818Y-66972070D01*
X95321860Y-66967785D01*
X95304372Y-66942449D01*
X95298059Y-66923308D01*
X95288190Y-66912168D01*
X95271209Y-66887565D01*
X95267458Y-66880418D01*
X95248631Y-66861694D01*
X95228182Y-66832070D01*
X95201241Y-66808202D01*
X95190529Y-66791126D01*
X95178285Y-66782674D01*
X95155909Y-66762850D01*
X95150563Y-66756816D01*
X95127794Y-66743134D01*
X95100856Y-66719269D01*
X95100851Y-66719265D01*
X95068981Y-66702538D01*
X95054496Y-66688522D01*
X95040579Y-66683244D01*
X95014109Y-66669351D01*
X95007471Y-66664769D01*
X94982095Y-66656937D01*
X94950225Y-66640210D01*
X94950224Y-66640209D01*
X94950223Y-66640209D01*
X94915277Y-66631596D01*
X94897850Y-66621449D01*
X94883074Y-66619655D01*
X94854050Y-66612502D01*
X94846511Y-66609643D01*
X94820002Y-66608112D01*
X94785061Y-66599500D01*
X94785056Y-66599500D01*
X94749072Y-66599500D01*
X94729734Y-66593821D01*
X94714945Y-66595617D01*
X94685060Y-66595617D01*
X94677028Y-66594642D01*
X94650929Y-66599500D01*
X94614944Y-66599500D01*
X94579995Y-66608113D01*
X94559858Y-66607226D01*
X94545952Y-66612501D01*
X94516924Y-66619655D01*
X94508918Y-66620626D01*
X94484722Y-66631595D01*
X94449781Y-66640207D01*
X94449774Y-66640210D01*
X94417901Y-66656938D01*
X94398133Y-66660897D01*
X94385884Y-66669353D01*
X94359420Y-66683243D01*
X94351874Y-66686104D01*
X94331019Y-66702537D01*
X94299152Y-66719263D01*
X94299148Y-66719266D01*
X94272200Y-66743139D01*
X94253954Y-66751714D01*
X94244087Y-66762852D01*
X94221713Y-66782674D01*
X94215078Y-66787253D01*
X94198761Y-66808199D01*
X94171817Y-66832070D01*
X94151366Y-66861698D01*
X94135704Y-66874389D01*
X94128788Y-66887567D01*
X94111809Y-66912166D01*
X94106458Y-66918205D01*
X94095630Y-66942444D01*
X94075184Y-66972065D01*
X94075182Y-66972069D01*
X94062416Y-67005729D01*
X94050245Y-67021801D01*
X94046683Y-67036254D01*
X94036084Y-67064202D01*
X94032338Y-67071339D01*
X94027624Y-67097470D01*
X94014860Y-67131126D01*
X94010521Y-67166858D01*
X94002552Y-67185372D01*
X94002552Y-67200263D01*
X93998949Y-67229936D01*
X93997015Y-67237781D01*
X93998692Y-67264268D01*
X93994355Y-67299995D01*
X93994355Y-67300003D01*
X92345150Y-67300003D01*
X92347931Y-64700003D01*
X93994355Y-64700003D01*
X93998692Y-64735730D01*
X93995386Y-64755607D01*
X93998949Y-64770062D01*
X94002552Y-64799735D01*
X94002552Y-64807815D01*
X94010521Y-64833142D01*
X94014859Y-64868870D01*
X94014861Y-64868878D01*
X94027623Y-64902528D01*
X94029171Y-64922624D01*
X94036082Y-64935792D01*
X94046682Y-64963742D01*
X94048613Y-64971579D01*
X94062417Y-64994271D01*
X94067601Y-65007940D01*
X94075182Y-65027931D01*
X94075184Y-65027934D01*
X94095628Y-65057553D01*
X94101938Y-65076689D01*
X94111808Y-65087830D01*
X94128789Y-65112431D01*
X94132543Y-65119584D01*
X94151367Y-65138304D01*
X94171813Y-65167925D01*
X94171814Y-65167926D01*
X94198757Y-65191796D01*
X94209466Y-65208869D01*
X94221713Y-65217323D01*
X94244088Y-65237147D01*
X94249438Y-65243186D01*
X94272204Y-65256864D01*
X94299145Y-65280732D01*
X94299151Y-65280736D01*
X94331011Y-65297457D01*
X94345499Y-65311475D01*
X94359418Y-65316754D01*
X94385888Y-65330647D01*
X94392533Y-65335234D01*
X94417906Y-65343063D01*
X94449775Y-65359790D01*
X94484714Y-65368401D01*
X94502128Y-65378540D01*
X94516911Y-65380336D01*
X94545932Y-65387490D01*
X94553496Y-65390358D01*
X94580003Y-65391887D01*
X94614941Y-65400499D01*
X94614942Y-65400500D01*
X94650937Y-65400500D01*
X94670285Y-65406181D01*
X94685049Y-65404388D01*
X94714954Y-65404388D01*
X94722950Y-65405359D01*
X94749063Y-65400500D01*
X94785058Y-65400500D01*
X94785060Y-65400499D01*
X94819994Y-65391889D01*
X94840131Y-65392774D01*
X94854064Y-65387490D01*
X94883088Y-65380335D01*
X94891113Y-65379360D01*
X94915280Y-65368403D01*
X94950225Y-65359790D01*
X94982089Y-65343065D01*
X95001855Y-65339105D01*
X95014112Y-65330645D01*
X95040582Y-65316753D01*
X95048133Y-65313888D01*
X95068985Y-65297459D01*
X95100852Y-65280734D01*
X95127792Y-65256866D01*
X95146037Y-65248290D01*
X95155907Y-65237150D01*
X95178285Y-65217324D01*
X95184928Y-65212738D01*
X95201243Y-65191795D01*
X95228183Y-65167929D01*
X95248629Y-65138306D01*
X95264290Y-65125614D01*
X95271209Y-65112432D01*
X95288192Y-65087827D01*
X95293546Y-65081783D01*
X95304372Y-65057549D01*
X95324818Y-65027930D01*
X95337580Y-64994278D01*
X95349751Y-64978203D01*
X95353314Y-64963747D01*
X95363916Y-64935791D01*
X95367664Y-64928649D01*
X95372378Y-64902522D01*
X95385140Y-64868872D01*
X95392886Y-64805072D01*
X95394229Y-64797743D01*
X95397448Y-64784686D01*
X95397448Y-64784679D01*
X95398012Y-64782392D01*
X95398020Y-64782353D01*
X95402982Y-64762217D01*
X95401307Y-64735724D01*
X95405645Y-64700000D01*
X95401306Y-64664272D01*
X95404612Y-64644391D01*
X95398005Y-64617584D01*
X95397999Y-64617551D01*
X95397448Y-64615314D01*
X95394232Y-64602266D01*
X95392885Y-64594915D01*
X95385140Y-64531128D01*
X95372376Y-64497474D01*
X95370828Y-64477376D01*
X95363916Y-64464207D01*
X95353314Y-64436252D01*
X95351382Y-64428415D01*
X95337580Y-64405722D01*
X95324818Y-64372070D01*
X95304372Y-64342449D01*
X95298059Y-64323308D01*
X95288190Y-64312168D01*
X95271209Y-64287565D01*
X95267458Y-64280418D01*
X95248631Y-64261694D01*
X95228182Y-64232070D01*
X95201241Y-64208202D01*
X95190529Y-64191126D01*
X95178285Y-64182674D01*
X95155909Y-64162850D01*
X95150563Y-64156816D01*
X95127794Y-64143134D01*
X95100856Y-64119269D01*
X95100851Y-64119265D01*
X95068981Y-64102538D01*
X95054496Y-64088522D01*
X95040579Y-64083244D01*
X95014109Y-64069351D01*
X95007471Y-64064769D01*
X94982095Y-64056937D01*
X94950225Y-64040210D01*
X94950224Y-64040209D01*
X94950223Y-64040209D01*
X94915277Y-64031596D01*
X94897850Y-64021449D01*
X94883074Y-64019655D01*
X94854050Y-64012502D01*
X94846511Y-64009643D01*
X94820002Y-64008112D01*
X94785061Y-63999500D01*
X94785056Y-63999500D01*
X94749072Y-63999500D01*
X94729734Y-63993821D01*
X94714945Y-63995617D01*
X94685060Y-63995617D01*
X94677028Y-63994642D01*
X94650929Y-63999500D01*
X94614944Y-63999500D01*
X94579995Y-64008113D01*
X94559858Y-64007226D01*
X94545952Y-64012501D01*
X94516924Y-64019655D01*
X94508918Y-64020626D01*
X94484722Y-64031595D01*
X94449781Y-64040207D01*
X94449774Y-64040210D01*
X94417901Y-64056938D01*
X94398133Y-64060897D01*
X94385884Y-64069353D01*
X94359420Y-64083243D01*
X94351874Y-64086104D01*
X94331019Y-64102537D01*
X94299152Y-64119263D01*
X94299148Y-64119266D01*
X94272200Y-64143139D01*
X94253954Y-64151714D01*
X94244087Y-64162852D01*
X94221713Y-64182674D01*
X94215078Y-64187253D01*
X94198761Y-64208199D01*
X94171817Y-64232070D01*
X94151366Y-64261698D01*
X94135704Y-64274389D01*
X94128788Y-64287567D01*
X94111809Y-64312166D01*
X94106458Y-64318205D01*
X94095630Y-64342444D01*
X94075184Y-64372065D01*
X94075182Y-64372069D01*
X94062416Y-64405729D01*
X94050245Y-64421801D01*
X94046683Y-64436254D01*
X94036084Y-64464202D01*
X94032338Y-64471339D01*
X94027624Y-64497470D01*
X94014860Y-64531126D01*
X94010521Y-64566858D01*
X94002552Y-64585372D01*
X94002552Y-64600263D01*
X93998949Y-64629936D01*
X93997015Y-64637781D01*
X93998692Y-64664268D01*
X93994355Y-64699995D01*
X93994355Y-64700003D01*
X92347931Y-64700003D01*
X92350487Y-62310867D01*
X92352388Y-62289374D01*
X92358048Y-62257448D01*
X92367509Y-62207423D01*
X92381575Y-62133052D01*
X92386356Y-62115201D01*
X92408814Y-62050976D01*
X92445362Y-61956989D01*
X92448651Y-61949892D01*
X92485517Y-61881979D01*
X92487263Y-61878972D01*
X92536999Y-61798722D01*
X92540636Y-61793478D01*
X92588959Y-61730995D01*
X92592134Y-61727213D01*
X92654901Y-61658300D01*
X92658354Y-61654804D01*
X92716089Y-61600850D01*
X92720946Y-61596760D01*
X92796236Y-61539752D01*
X92799059Y-61537739D01*
X92863251Y-61494702D01*
X92870003Y-61490771D01*
X92960190Y-61445623D01*
X93022036Y-61417284D01*
X93039347Y-61410868D01*
X93160918Y-61375882D01*
X93186561Y-61368822D01*
X93219453Y-61364373D01*
X130803108Y-61358963D01*
X156574585Y-61398429D01*
G37*
%TD.AperFunction*%
%TD*%
M02*
