%TF.GenerationSoftware,KiCad,Pcbnew,7.0.7*%
%TF.CreationDate,2024-03-01T11:29:19-05:00*%
%TF.ProjectId,Sh_mas,5368e96d-6173-42e6-9b69-6361645f7063,1.0*%
%TF.SameCoordinates,Original*%
%TF.FileFunction,Copper,L3,Inr*%
%TF.FilePolarity,Positive*%
%FSLAX46Y46*%
G04 Gerber Fmt 4.6, Leading zero omitted, Abs format (unit mm)*
G04 Created by KiCad (PCBNEW 7.0.7) date 2024-03-01 11:29:19*
%MOMM*%
%LPD*%
G01*
G04 APERTURE LIST*
%TA.AperFunction,ComponentPad*%
%ADD10R,1.700000X1.700000*%
%TD*%
%TA.AperFunction,ComponentPad*%
%ADD11O,1.700000X1.700000*%
%TD*%
%TA.AperFunction,ViaPad*%
%ADD12C,0.800000*%
%TD*%
%TA.AperFunction,Conductor*%
%ADD13C,0.250000*%
%TD*%
G04 APERTURE END LIST*
D10*
%TO.N,+12V*%
%TO.C,J1*%
X98500000Y-64960000D03*
D11*
%TO.N,Net-(J1-Pin_2)*%
X98500000Y-67500000D03*
%TO.N,Net-(J1-Pin_3)*%
X98500000Y-70040000D03*
%TO.N,GND*%
X98500000Y-72580000D03*
%TD*%
D10*
%TO.N,+12V*%
%TO.C,J3*%
X151600000Y-71400000D03*
D11*
%TO.N,Net-(J1-Pin_2)*%
X151600000Y-73940000D03*
%TO.N,Net-(J1-Pin_3)*%
X151600000Y-76480000D03*
%TO.N,GND*%
X151600000Y-79020000D03*
%TD*%
D10*
%TO.N,+5V*%
%TO.C,J4*%
X97325000Y-77375000D03*
D11*
%TO.N,Net-(J4-Pin_2)*%
X97325000Y-79915000D03*
%TO.N,GND*%
X97325000Y-82455000D03*
%TD*%
D12*
%TO.N,Net-(D1-K)*%
X139300000Y-73700000D03*
%TO.N,+5V*%
X115560099Y-82537005D03*
X147800000Y-70300000D03*
X131300000Y-67500000D03*
X140400000Y-81100000D03*
X139800000Y-67100000D03*
X134400000Y-84000000D03*
X137500000Y-70000000D03*
X114253009Y-79062995D03*
X137400000Y-78500000D03*
X140200000Y-84000000D03*
X98700000Y-84800000D03*
X135500000Y-67100000D03*
X95600000Y-85200000D03*
X137400000Y-84000000D03*
X109600000Y-72000000D03*
X137500000Y-64300000D03*
X131100000Y-83200000D03*
X115600000Y-76900000D03*
X133100000Y-66100000D03*
X108500000Y-64500000D03*
%TO.N,GND*%
X147000000Y-72200000D03*
X104000000Y-73700000D03*
X130700000Y-74600000D03*
X122100000Y-76500000D03*
X130700000Y-80900000D03*
X135000004Y-70000000D03*
X121600000Y-64000000D03*
X132900000Y-77700000D03*
X114600000Y-75000000D03*
X105500000Y-84400000D03*
X133900000Y-72100000D03*
X110506385Y-84906387D03*
X136399660Y-71826139D03*
X118800000Y-75300000D03*
X100036951Y-84075000D03*
X104000000Y-76500000D03*
X144400000Y-68600000D03*
X98300000Y-75600000D03*
X126800000Y-68425500D03*
X100100000Y-73700000D03*
X126318719Y-77381281D03*
X106048390Y-68502508D03*
X106000000Y-74100000D03*
X114300000Y-84400000D03*
X146300000Y-77100000D03*
X141300000Y-72300000D03*
X106500000Y-64200000D03*
%TO.N,+3.3V*%
X125400000Y-83000000D03*
X118950000Y-77950000D03*
X123800000Y-78200000D03*
X131125500Y-71800000D03*
X127075500Y-75150528D03*
X121400000Y-80500000D03*
X133000006Y-74000000D03*
X127200000Y-71200000D03*
X125485133Y-69074444D03*
%TO.N,+12V*%
X142700000Y-77000000D03*
%TO.N,/SCLA*%
X111077051Y-81312561D03*
%TO.N,/SDAA*%
X112700000Y-83200000D03*
%TO.N,/SCLB*%
X118191691Y-72066385D03*
%TO.N,/SDAB*%
X118300000Y-81444500D03*
%TO.N,Net-(U6-CANH)*%
X107200000Y-71300000D03*
%TO.N,Net-(U6-CANL)*%
X108300000Y-67300000D03*
%TD*%
D13*
%TO.N,Net-(J4-Pin_2)*%
X97325000Y-79915000D02*
X97515000Y-79915000D01*
%TD*%
%TA.AperFunction,Conductor*%
%TO.N,+5V*%
G36*
X116000000Y-68300000D02*
G01*
X116000000Y-85179001D01*
X115980315Y-85246040D01*
X115927511Y-85291795D01*
X115879038Y-85302964D01*
X114942213Y-85325925D01*
X114874712Y-85307889D01*
X114827677Y-85256222D01*
X114816042Y-85187328D01*
X114843501Y-85123080D01*
X114866284Y-85101649D01*
X114905871Y-85072888D01*
X115032533Y-84932216D01*
X115127179Y-84768284D01*
X115185674Y-84588256D01*
X115205460Y-84400000D01*
X115185674Y-84211744D01*
X115127179Y-84031716D01*
X115032533Y-83867784D01*
X114905871Y-83727112D01*
X114893752Y-83718307D01*
X114752734Y-83615851D01*
X114752729Y-83615848D01*
X114579807Y-83538857D01*
X114579802Y-83538855D01*
X114434001Y-83507865D01*
X114394646Y-83499500D01*
X114205354Y-83499500D01*
X114172897Y-83506398D01*
X114020197Y-83538855D01*
X114020192Y-83538857D01*
X113847270Y-83615848D01*
X113847265Y-83615851D01*
X113716782Y-83710653D01*
X113650976Y-83734133D01*
X113582922Y-83718307D01*
X113534227Y-83668201D01*
X113520352Y-83599723D01*
X113525966Y-83572017D01*
X113535464Y-83542785D01*
X113585674Y-83388256D01*
X113605460Y-83200000D01*
X113585674Y-83011744D01*
X113527179Y-82831716D01*
X113432533Y-82667784D01*
X113305871Y-82527112D01*
X113305870Y-82527111D01*
X113152734Y-82415851D01*
X113152729Y-82415848D01*
X112979807Y-82338857D01*
X112979802Y-82338855D01*
X112834000Y-82307865D01*
X112794646Y-82299500D01*
X112605354Y-82299500D01*
X112572897Y-82306398D01*
X112420197Y-82338855D01*
X112420192Y-82338857D01*
X112247270Y-82415848D01*
X112247265Y-82415851D01*
X112094129Y-82527111D01*
X111967466Y-82667785D01*
X111872821Y-82831715D01*
X111872818Y-82831722D01*
X111814327Y-83011740D01*
X111814326Y-83011744D01*
X111794540Y-83200000D01*
X111814326Y-83388256D01*
X111814327Y-83388259D01*
X111872818Y-83568277D01*
X111872821Y-83568284D01*
X111967467Y-83732216D01*
X112019551Y-83790061D01*
X112094129Y-83872888D01*
X112247265Y-83984148D01*
X112247270Y-83984151D01*
X112420192Y-84061142D01*
X112420197Y-84061144D01*
X112605354Y-84100500D01*
X112605355Y-84100500D01*
X112794644Y-84100500D01*
X112794646Y-84100500D01*
X112979803Y-84061144D01*
X113152730Y-83984151D01*
X113283220Y-83889344D01*
X113349022Y-83865866D01*
X113417076Y-83881691D01*
X113465771Y-83931797D01*
X113479647Y-84000275D01*
X113474033Y-84027982D01*
X113443408Y-84122238D01*
X113414326Y-84211744D01*
X113394540Y-84400000D01*
X113414326Y-84588256D01*
X113414327Y-84588259D01*
X113472818Y-84768277D01*
X113472821Y-84768284D01*
X113567467Y-84932216D01*
X113694127Y-85072886D01*
X113694129Y-85072888D01*
X113775426Y-85131954D01*
X113818092Y-85187284D01*
X113824071Y-85256897D01*
X113791465Y-85318692D01*
X113730626Y-85353050D01*
X113705579Y-85356235D01*
X111462899Y-85411202D01*
X111395398Y-85393166D01*
X111348363Y-85341499D01*
X111336728Y-85272605D01*
X111341927Y-85248930D01*
X111392059Y-85094643D01*
X111411845Y-84906387D01*
X111392059Y-84718131D01*
X111333564Y-84538103D01*
X111238918Y-84374171D01*
X111112256Y-84233499D01*
X111082313Y-84211744D01*
X110959119Y-84122238D01*
X110959114Y-84122235D01*
X110786192Y-84045244D01*
X110786187Y-84045242D01*
X110640385Y-84014252D01*
X110601031Y-84005887D01*
X110411739Y-84005887D01*
X110379282Y-84012785D01*
X110226582Y-84045242D01*
X110226577Y-84045244D01*
X110053655Y-84122235D01*
X110053650Y-84122238D01*
X109900514Y-84233498D01*
X109773851Y-84374172D01*
X109679206Y-84538102D01*
X109679203Y-84538109D01*
X109620712Y-84718127D01*
X109620711Y-84718131D01*
X109600925Y-84906387D01*
X109620711Y-85094643D01*
X109620712Y-85094646D01*
X109679203Y-85274664D01*
X109681847Y-85280601D01*
X109679825Y-85281501D01*
X109693880Y-85339482D01*
X109671016Y-85405505D01*
X109616087Y-85448685D01*
X109573060Y-85457522D01*
X95727038Y-85796886D01*
X95659537Y-85778850D01*
X95612502Y-85727183D01*
X95600000Y-85672923D01*
X95600000Y-84075000D01*
X99131491Y-84075000D01*
X99151277Y-84263256D01*
X99151278Y-84263259D01*
X99209769Y-84443277D01*
X99209772Y-84443284D01*
X99304418Y-84607216D01*
X99404283Y-84718127D01*
X99431080Y-84747888D01*
X99584216Y-84859148D01*
X99584221Y-84859151D01*
X99757143Y-84936142D01*
X99757148Y-84936144D01*
X99942305Y-84975500D01*
X99942306Y-84975500D01*
X100131595Y-84975500D01*
X100131597Y-84975500D01*
X100316754Y-84936144D01*
X100489681Y-84859151D01*
X100642822Y-84747888D01*
X100769484Y-84607216D01*
X100864130Y-84443284D01*
X100878194Y-84400000D01*
X104594540Y-84400000D01*
X104614326Y-84588256D01*
X104614327Y-84588259D01*
X104672818Y-84768277D01*
X104672821Y-84768284D01*
X104767467Y-84932216D01*
X104894127Y-85072886D01*
X104894129Y-85072888D01*
X105047265Y-85184148D01*
X105047270Y-85184151D01*
X105220192Y-85261142D01*
X105220197Y-85261144D01*
X105405354Y-85300500D01*
X105405355Y-85300500D01*
X105594644Y-85300500D01*
X105594646Y-85300500D01*
X105779803Y-85261144D01*
X105952730Y-85184151D01*
X106105871Y-85072888D01*
X106232533Y-84932216D01*
X106327179Y-84768284D01*
X106385674Y-84588256D01*
X106405460Y-84400000D01*
X106385674Y-84211744D01*
X106327179Y-84031716D01*
X106232533Y-83867784D01*
X106105871Y-83727112D01*
X106093752Y-83718307D01*
X105952734Y-83615851D01*
X105952729Y-83615848D01*
X105779807Y-83538857D01*
X105779802Y-83538855D01*
X105634001Y-83507865D01*
X105594646Y-83499500D01*
X105405354Y-83499500D01*
X105372897Y-83506398D01*
X105220197Y-83538855D01*
X105220192Y-83538857D01*
X105047270Y-83615848D01*
X105047265Y-83615851D01*
X104894129Y-83727111D01*
X104767466Y-83867785D01*
X104672821Y-84031715D01*
X104672818Y-84031722D01*
X104643408Y-84122238D01*
X104614326Y-84211744D01*
X104594540Y-84400000D01*
X100878194Y-84400000D01*
X100922625Y-84263256D01*
X100942411Y-84075000D01*
X100922625Y-83886744D01*
X100864130Y-83706716D01*
X100769484Y-83542784D01*
X100642822Y-83402112D01*
X100623751Y-83388256D01*
X100489685Y-83290851D01*
X100489680Y-83290848D01*
X100316758Y-83213857D01*
X100316753Y-83213855D01*
X100170952Y-83182865D01*
X100131597Y-83174500D01*
X99942305Y-83174500D01*
X99909848Y-83181398D01*
X99757148Y-83213855D01*
X99757143Y-83213857D01*
X99584221Y-83290848D01*
X99584216Y-83290851D01*
X99431080Y-83402111D01*
X99304417Y-83542785D01*
X99209772Y-83706715D01*
X99209769Y-83706722D01*
X99157437Y-83867785D01*
X99151277Y-83886744D01*
X99131491Y-84075000D01*
X95600000Y-84075000D01*
X95600000Y-74924000D01*
X95619685Y-74856961D01*
X95672489Y-74811206D01*
X95724000Y-74800000D01*
X97530073Y-74800000D01*
X97597112Y-74819685D01*
X97642867Y-74872489D01*
X97652811Y-74941647D01*
X97623786Y-75005203D01*
X97622292Y-75006893D01*
X97567467Y-75067784D01*
X97567465Y-75067785D01*
X97567464Y-75067788D01*
X97472821Y-75231715D01*
X97472818Y-75231722D01*
X97428449Y-75368277D01*
X97414326Y-75411744D01*
X97394540Y-75600000D01*
X97414326Y-75788256D01*
X97414327Y-75788259D01*
X97472818Y-75968277D01*
X97472821Y-75968284D01*
X97558387Y-76116489D01*
X97575000Y-76178489D01*
X97575000Y-76762698D01*
X97555315Y-76829737D01*
X97502511Y-76875492D01*
X97433355Y-76885436D01*
X97360766Y-76875000D01*
X97360763Y-76875000D01*
X97289237Y-76875000D01*
X97289233Y-76875000D01*
X97216645Y-76885436D01*
X97147487Y-76875492D01*
X97094684Y-76829736D01*
X97075000Y-76762698D01*
X97075000Y-76025000D01*
X96427155Y-76025000D01*
X96367627Y-76031401D01*
X96367620Y-76031403D01*
X96232913Y-76081645D01*
X96232906Y-76081649D01*
X96117812Y-76167809D01*
X96117809Y-76167812D01*
X96031649Y-76282906D01*
X96031645Y-76282913D01*
X95981403Y-76417620D01*
X95981401Y-76417627D01*
X95975000Y-76477155D01*
X95975000Y-76477172D01*
X95974999Y-77124999D01*
X95975000Y-77125000D01*
X96711653Y-77125000D01*
X96778692Y-77144685D01*
X96824447Y-77197489D01*
X96834391Y-77266647D01*
X96830631Y-77283933D01*
X96825000Y-77303111D01*
X96825000Y-77446888D01*
X96830631Y-77466067D01*
X96830630Y-77535936D01*
X96792855Y-77594714D01*
X96729299Y-77623738D01*
X96711653Y-77625000D01*
X95975000Y-77625000D01*
X95975000Y-78272844D01*
X95981401Y-78332372D01*
X95981403Y-78332379D01*
X96031645Y-78467086D01*
X96031649Y-78467093D01*
X96117809Y-78582187D01*
X96117812Y-78582190D01*
X96232906Y-78668350D01*
X96232913Y-78668354D01*
X96364470Y-78717421D01*
X96420403Y-78759292D01*
X96444821Y-78824756D01*
X96429970Y-78893029D01*
X96408819Y-78921284D01*
X96286503Y-79043600D01*
X96150965Y-79237169D01*
X96150964Y-79237171D01*
X96051098Y-79451335D01*
X96051094Y-79451344D01*
X95989938Y-79679586D01*
X95989936Y-79679596D01*
X95969341Y-79914999D01*
X95969341Y-79915000D01*
X95989936Y-80150403D01*
X95989938Y-80150413D01*
X96051094Y-80378655D01*
X96051096Y-80378659D01*
X96051097Y-80378663D01*
X96120926Y-80528412D01*
X96150965Y-80592830D01*
X96150967Y-80592834D01*
X96286501Y-80786395D01*
X96286506Y-80786402D01*
X96453597Y-80953493D01*
X96453603Y-80953498D01*
X96639158Y-81083425D01*
X96682783Y-81138002D01*
X96689977Y-81207500D01*
X96658454Y-81269855D01*
X96639158Y-81286575D01*
X96453597Y-81416505D01*
X96286505Y-81583597D01*
X96150965Y-81777169D01*
X96150964Y-81777171D01*
X96051098Y-81991335D01*
X96051094Y-81991344D01*
X95989938Y-82219586D01*
X95989936Y-82219596D01*
X95969341Y-82454999D01*
X95969341Y-82455000D01*
X95989936Y-82690403D01*
X95989938Y-82690413D01*
X96051094Y-82918655D01*
X96051096Y-82918659D01*
X96051097Y-82918663D01*
X96094500Y-83011740D01*
X96150965Y-83132830D01*
X96150967Y-83132834D01*
X96259281Y-83287521D01*
X96286505Y-83326401D01*
X96453599Y-83493495D01*
X96550384Y-83561264D01*
X96647165Y-83629032D01*
X96647167Y-83629033D01*
X96647170Y-83629035D01*
X96861337Y-83728903D01*
X97089592Y-83790063D01*
X97277918Y-83806539D01*
X97324999Y-83810659D01*
X97325000Y-83810659D01*
X97325001Y-83810659D01*
X97364234Y-83807226D01*
X97560408Y-83790063D01*
X97788663Y-83728903D01*
X98002830Y-83629035D01*
X98196401Y-83493495D01*
X98363495Y-83326401D01*
X98499035Y-83132830D01*
X98598903Y-82918663D01*
X98660063Y-82690408D01*
X98680659Y-82455000D01*
X98660063Y-82219592D01*
X98598903Y-81991337D01*
X98499035Y-81777171D01*
X98431583Y-81680838D01*
X98363494Y-81583597D01*
X98196402Y-81416506D01*
X98196396Y-81416501D01*
X98047954Y-81312561D01*
X110171591Y-81312561D01*
X110191377Y-81500817D01*
X110191378Y-81500820D01*
X110249869Y-81680838D01*
X110249872Y-81680845D01*
X110344518Y-81844777D01*
X110471179Y-81985449D01*
X110471180Y-81985449D01*
X110624316Y-82096709D01*
X110624321Y-82096712D01*
X110797243Y-82173703D01*
X110797248Y-82173705D01*
X110982405Y-82213061D01*
X110982406Y-82213061D01*
X111171695Y-82213061D01*
X111171697Y-82213061D01*
X111356854Y-82173705D01*
X111529781Y-82096712D01*
X111682922Y-81985449D01*
X111809584Y-81844777D01*
X111904230Y-81680845D01*
X111962725Y-81500817D01*
X111982511Y-81312561D01*
X111962725Y-81124305D01*
X111904230Y-80944277D01*
X111809584Y-80780345D01*
X111682922Y-80639673D01*
X111682921Y-80639672D01*
X111529785Y-80528412D01*
X111529780Y-80528409D01*
X111356858Y-80451418D01*
X111356853Y-80451416D01*
X111211052Y-80420426D01*
X111171697Y-80412061D01*
X110982405Y-80412061D01*
X110949948Y-80418959D01*
X110797248Y-80451416D01*
X110797243Y-80451418D01*
X110624321Y-80528409D01*
X110624316Y-80528412D01*
X110471180Y-80639672D01*
X110344517Y-80780346D01*
X110249872Y-80944276D01*
X110249869Y-80944283D01*
X110202837Y-81089035D01*
X110191377Y-81124305D01*
X110171591Y-81312561D01*
X98047954Y-81312561D01*
X98010842Y-81286575D01*
X97967217Y-81231998D01*
X97960023Y-81162500D01*
X97991546Y-81100145D01*
X98010842Y-81083425D01*
X98033026Y-81067891D01*
X98196401Y-80953495D01*
X98363495Y-80786401D01*
X98499035Y-80592830D01*
X98598903Y-80378663D01*
X98660063Y-80150408D01*
X98680659Y-79915000D01*
X98660063Y-79679592D01*
X98598903Y-79451337D01*
X98499035Y-79237171D01*
X98363495Y-79043599D01*
X98241179Y-78921283D01*
X98207696Y-78859963D01*
X98212680Y-78790271D01*
X98254551Y-78734337D01*
X98285529Y-78717422D01*
X98417086Y-78668354D01*
X98417093Y-78668350D01*
X98532187Y-78582190D01*
X98532190Y-78582187D01*
X98618350Y-78467093D01*
X98618354Y-78467086D01*
X98668596Y-78332379D01*
X98668598Y-78332372D01*
X98674999Y-78272844D01*
X98675000Y-78272827D01*
X98675000Y-77625000D01*
X97938347Y-77625000D01*
X97871308Y-77605315D01*
X97825553Y-77552511D01*
X97815609Y-77483353D01*
X97819369Y-77466067D01*
X97825000Y-77446888D01*
X97825000Y-77303111D01*
X97819369Y-77283933D01*
X97819370Y-77214064D01*
X97857145Y-77155286D01*
X97920701Y-77126262D01*
X97938347Y-77125000D01*
X98675000Y-77125000D01*
X98675000Y-76500000D01*
X103094540Y-76500000D01*
X103114326Y-76688256D01*
X103114327Y-76688259D01*
X103172818Y-76868277D01*
X103172821Y-76868284D01*
X103267467Y-77032216D01*
X103352147Y-77126262D01*
X103394129Y-77172888D01*
X103547265Y-77284148D01*
X103547270Y-77284151D01*
X103720192Y-77361142D01*
X103720197Y-77361144D01*
X103905354Y-77400500D01*
X103905355Y-77400500D01*
X104094644Y-77400500D01*
X104094646Y-77400500D01*
X104279803Y-77361144D01*
X104452730Y-77284151D01*
X104605871Y-77172888D01*
X104732533Y-77032216D01*
X104827179Y-76868284D01*
X104885674Y-76688256D01*
X104905460Y-76500000D01*
X104885674Y-76311744D01*
X104831112Y-76143823D01*
X104827181Y-76131722D01*
X104827180Y-76131721D01*
X104827179Y-76131716D01*
X104732533Y-75967784D01*
X104605871Y-75827112D01*
X104605870Y-75827111D01*
X104452734Y-75715851D01*
X104452729Y-75715848D01*
X104279807Y-75638857D01*
X104279802Y-75638855D01*
X104134001Y-75607865D01*
X104094646Y-75599500D01*
X103905354Y-75599500D01*
X103872897Y-75606398D01*
X103720197Y-75638855D01*
X103720192Y-75638857D01*
X103547270Y-75715848D01*
X103547265Y-75715851D01*
X103394129Y-75827111D01*
X103267466Y-75967785D01*
X103172821Y-76131715D01*
X103172818Y-76131722D01*
X103114327Y-76311740D01*
X103114326Y-76311744D01*
X103094540Y-76500000D01*
X98675000Y-76500000D01*
X98675000Y-76499285D01*
X98694685Y-76432246D01*
X98747489Y-76386491D01*
X98748462Y-76386051D01*
X98752730Y-76384151D01*
X98905871Y-76272888D01*
X99032533Y-76132216D01*
X99127179Y-75968284D01*
X99185674Y-75788256D01*
X99205460Y-75600000D01*
X99185674Y-75411744D01*
X99127179Y-75231716D01*
X99032533Y-75067784D01*
X98977775Y-75006969D01*
X98947547Y-74943981D01*
X98956172Y-74874646D01*
X99000913Y-74820980D01*
X99067566Y-74800022D01*
X99069927Y-74800000D01*
X102900000Y-74800000D01*
X102900000Y-74011533D01*
X102919685Y-73944494D01*
X102972489Y-73898739D01*
X103041647Y-73888795D01*
X103105203Y-73917820D01*
X103141931Y-73973215D01*
X103172818Y-74068278D01*
X103172821Y-74068284D01*
X103267467Y-74232216D01*
X103352911Y-74327111D01*
X103394129Y-74372888D01*
X103547265Y-74484148D01*
X103547270Y-74484151D01*
X103720192Y-74561142D01*
X103720197Y-74561144D01*
X103905354Y-74600500D01*
X103905355Y-74600500D01*
X104094644Y-74600500D01*
X104094646Y-74600500D01*
X104279803Y-74561144D01*
X104452730Y-74484151D01*
X104605871Y-74372888D01*
X104732533Y-74232216D01*
X104827179Y-74068284D01*
X104862733Y-73958860D01*
X104894218Y-73912814D01*
X105064698Y-73912814D01*
X105086850Y-73933145D01*
X105104612Y-74000719D01*
X105103984Y-74010139D01*
X105094540Y-74099999D01*
X105094540Y-74100000D01*
X105114326Y-74288256D01*
X105114327Y-74288259D01*
X105172818Y-74468277D01*
X105172821Y-74468284D01*
X105267467Y-74632216D01*
X105394129Y-74772887D01*
X105394129Y-74772888D01*
X105547265Y-74884148D01*
X105547270Y-74884151D01*
X105720192Y-74961142D01*
X105720197Y-74961144D01*
X105905354Y-75000500D01*
X105905355Y-75000500D01*
X106094644Y-75000500D01*
X106094646Y-75000500D01*
X106096998Y-75000000D01*
X113694540Y-75000000D01*
X113714326Y-75188256D01*
X113714327Y-75188259D01*
X113772818Y-75368277D01*
X113772821Y-75368284D01*
X113867467Y-75532216D01*
X113963487Y-75638857D01*
X113994129Y-75672888D01*
X114147265Y-75784148D01*
X114147270Y-75784151D01*
X114320192Y-75861142D01*
X114320197Y-75861144D01*
X114505354Y-75900500D01*
X114505355Y-75900500D01*
X114694644Y-75900500D01*
X114694646Y-75900500D01*
X114879803Y-75861144D01*
X115052730Y-75784151D01*
X115205871Y-75672888D01*
X115332533Y-75532216D01*
X115427179Y-75368284D01*
X115485674Y-75188256D01*
X115505460Y-75000000D01*
X115485674Y-74811744D01*
X115431112Y-74643823D01*
X115427181Y-74631722D01*
X115427180Y-74631721D01*
X115427179Y-74631716D01*
X115332533Y-74467784D01*
X115205871Y-74327112D01*
X115205870Y-74327111D01*
X115052734Y-74215851D01*
X115052729Y-74215848D01*
X114879807Y-74138857D01*
X114879802Y-74138855D01*
X114734001Y-74107865D01*
X114694646Y-74099500D01*
X114505354Y-74099500D01*
X114472897Y-74106398D01*
X114320197Y-74138855D01*
X114320192Y-74138857D01*
X114147270Y-74215848D01*
X114147265Y-74215851D01*
X113994129Y-74327111D01*
X113867466Y-74467785D01*
X113772821Y-74631715D01*
X113772818Y-74631722D01*
X113714501Y-74811206D01*
X113714326Y-74811744D01*
X113694540Y-75000000D01*
X106096998Y-75000000D01*
X106279803Y-74961144D01*
X106452730Y-74884151D01*
X106605871Y-74772888D01*
X106732533Y-74632216D01*
X106827179Y-74468284D01*
X106885674Y-74288256D01*
X106905460Y-74100000D01*
X106885674Y-73911744D01*
X106827179Y-73731716D01*
X106732533Y-73567784D01*
X106605871Y-73427112D01*
X106605420Y-73426784D01*
X106452734Y-73315851D01*
X106452729Y-73315848D01*
X106279807Y-73238857D01*
X106279802Y-73238855D01*
X106134001Y-73207865D01*
X106094646Y-73199500D01*
X105905354Y-73199500D01*
X105872897Y-73206398D01*
X105720197Y-73238855D01*
X105720192Y-73238857D01*
X105547270Y-73315848D01*
X105547265Y-73315851D01*
X105394129Y-73427111D01*
X105267466Y-73567785D01*
X105172821Y-73731715D01*
X105172818Y-73731722D01*
X105137267Y-73841138D01*
X105097829Y-73898814D01*
X105064698Y-73912814D01*
X104894218Y-73912814D01*
X104902169Y-73901186D01*
X104935300Y-73887183D01*
X104913149Y-73866853D01*
X104895387Y-73799279D01*
X104896013Y-73789878D01*
X104905460Y-73700000D01*
X104885674Y-73511744D01*
X104827179Y-73331716D01*
X104732533Y-73167784D01*
X104605871Y-73027112D01*
X104605870Y-73027111D01*
X104452734Y-72915851D01*
X104452729Y-72915848D01*
X104279807Y-72838857D01*
X104279802Y-72838855D01*
X104134000Y-72807865D01*
X104094646Y-72799500D01*
X103905354Y-72799500D01*
X103872897Y-72806398D01*
X103720197Y-72838855D01*
X103720192Y-72838857D01*
X103547270Y-72915848D01*
X103547265Y-72915851D01*
X103394129Y-73027111D01*
X103267466Y-73167785D01*
X103172821Y-73331715D01*
X103172818Y-73331722D01*
X103141931Y-73426784D01*
X103102493Y-73484460D01*
X103038135Y-73511658D01*
X102969288Y-73499743D01*
X102917813Y-73452499D01*
X102900000Y-73388466D01*
X102900000Y-71300000D01*
X106294540Y-71300000D01*
X106314326Y-71488256D01*
X106314327Y-71488259D01*
X106372818Y-71668277D01*
X106372821Y-71668284D01*
X106467467Y-71832216D01*
X106530455Y-71902171D01*
X106594129Y-71972888D01*
X106747265Y-72084148D01*
X106747270Y-72084151D01*
X106920192Y-72161142D01*
X106920197Y-72161144D01*
X107105354Y-72200500D01*
X107105355Y-72200500D01*
X107294644Y-72200500D01*
X107294646Y-72200500D01*
X107479803Y-72161144D01*
X107652730Y-72084151D01*
X107805871Y-71972888D01*
X107932533Y-71832216D01*
X108027179Y-71668284D01*
X108085674Y-71488256D01*
X108105460Y-71300000D01*
X108085674Y-71111744D01*
X108027179Y-70931716D01*
X107932533Y-70767784D01*
X107805871Y-70627112D01*
X107805870Y-70627111D01*
X107652734Y-70515851D01*
X107652729Y-70515848D01*
X107479807Y-70438857D01*
X107479802Y-70438855D01*
X107334000Y-70407865D01*
X107294646Y-70399500D01*
X107105354Y-70399500D01*
X107072897Y-70406398D01*
X106920197Y-70438855D01*
X106920192Y-70438857D01*
X106747270Y-70515848D01*
X106747265Y-70515851D01*
X106594129Y-70627111D01*
X106467466Y-70767785D01*
X106372821Y-70931715D01*
X106372818Y-70931722D01*
X106325129Y-71078495D01*
X106314326Y-71111744D01*
X106294540Y-71300000D01*
X102900000Y-71300000D01*
X102900000Y-68800000D01*
X101824000Y-68800000D01*
X101756961Y-68780315D01*
X101711206Y-68727511D01*
X101700000Y-68676000D01*
X101700000Y-68502508D01*
X105142930Y-68502508D01*
X105162716Y-68690764D01*
X105162717Y-68690767D01*
X105221208Y-68870785D01*
X105221211Y-68870792D01*
X105315857Y-69034724D01*
X105436399Y-69168599D01*
X105442519Y-69175396D01*
X105595655Y-69286656D01*
X105595660Y-69286659D01*
X105768582Y-69363650D01*
X105768587Y-69363652D01*
X105953744Y-69403008D01*
X105953745Y-69403008D01*
X106143034Y-69403008D01*
X106143036Y-69403008D01*
X106328193Y-69363652D01*
X106501120Y-69286659D01*
X106654261Y-69175396D01*
X106780923Y-69034724D01*
X106875569Y-68870792D01*
X106934064Y-68690764D01*
X106953850Y-68502508D01*
X106934064Y-68314252D01*
X106875569Y-68134224D01*
X106780923Y-67970292D01*
X106654261Y-67829620D01*
X106654260Y-67829619D01*
X106501124Y-67718359D01*
X106501119Y-67718356D01*
X106328197Y-67641365D01*
X106328192Y-67641363D01*
X106182391Y-67610373D01*
X106143036Y-67602008D01*
X105953744Y-67602008D01*
X105921287Y-67608906D01*
X105768587Y-67641363D01*
X105768582Y-67641365D01*
X105595660Y-67718356D01*
X105595655Y-67718359D01*
X105442519Y-67829619D01*
X105315856Y-67970293D01*
X105221211Y-68134223D01*
X105221208Y-68134230D01*
X105162717Y-68314248D01*
X105162716Y-68314252D01*
X105142930Y-68502508D01*
X101700000Y-68502508D01*
X101700000Y-67300000D01*
X107394540Y-67300000D01*
X107414326Y-67488256D01*
X107414327Y-67488259D01*
X107472818Y-67668277D01*
X107472821Y-67668284D01*
X107567467Y-67832216D01*
X107685823Y-67963663D01*
X107694129Y-67972888D01*
X107847265Y-68084148D01*
X107847270Y-68084151D01*
X108020192Y-68161142D01*
X108020197Y-68161144D01*
X108205354Y-68200500D01*
X108205355Y-68200500D01*
X108394644Y-68200500D01*
X108394646Y-68200500D01*
X108579803Y-68161144D01*
X108752730Y-68084151D01*
X108905871Y-67972888D01*
X109032533Y-67832216D01*
X109127179Y-67668284D01*
X109185674Y-67488256D01*
X109205460Y-67300000D01*
X109185674Y-67111744D01*
X109127179Y-66931716D01*
X109032533Y-66767784D01*
X108905871Y-66627112D01*
X108905870Y-66627111D01*
X108752734Y-66515851D01*
X108752729Y-66515848D01*
X108579807Y-66438857D01*
X108579802Y-66438855D01*
X108434001Y-66407865D01*
X108394646Y-66399500D01*
X108205354Y-66399500D01*
X108172897Y-66406398D01*
X108020197Y-66438855D01*
X108020192Y-66438857D01*
X107847270Y-66515848D01*
X107847265Y-66515851D01*
X107694129Y-66627111D01*
X107567466Y-66767785D01*
X107472821Y-66931715D01*
X107472818Y-66931722D01*
X107438827Y-67036337D01*
X107414326Y-67111744D01*
X107394540Y-67300000D01*
X101700000Y-67300000D01*
X101700000Y-64200000D01*
X105594540Y-64200000D01*
X105614326Y-64388256D01*
X105614327Y-64388259D01*
X105672818Y-64568277D01*
X105672821Y-64568284D01*
X105767467Y-64732216D01*
X105890513Y-64868872D01*
X105894129Y-64872888D01*
X106047265Y-64984148D01*
X106047270Y-64984151D01*
X106220192Y-65061142D01*
X106220197Y-65061144D01*
X106405354Y-65100500D01*
X106405355Y-65100500D01*
X106594644Y-65100500D01*
X106594646Y-65100500D01*
X106779803Y-65061144D01*
X106952730Y-64984151D01*
X107105871Y-64872888D01*
X107232533Y-64732216D01*
X107327179Y-64568284D01*
X107385674Y-64388256D01*
X107405460Y-64200000D01*
X107385674Y-64011744D01*
X107327179Y-63831716D01*
X107232533Y-63667784D01*
X107105871Y-63527112D01*
X107105870Y-63527111D01*
X106952734Y-63415851D01*
X106952729Y-63415848D01*
X106779807Y-63338857D01*
X106779802Y-63338855D01*
X106634001Y-63307865D01*
X106594646Y-63299500D01*
X106405354Y-63299500D01*
X106372897Y-63306398D01*
X106220197Y-63338855D01*
X106220192Y-63338857D01*
X106047270Y-63415848D01*
X106047265Y-63415851D01*
X105894129Y-63527111D01*
X105767466Y-63667785D01*
X105672821Y-63831715D01*
X105672818Y-63831722D01*
X105618304Y-63999500D01*
X105614326Y-64011744D01*
X105594540Y-64200000D01*
X101700000Y-64200000D01*
X101700000Y-63124000D01*
X101719685Y-63056961D01*
X101772489Y-63011206D01*
X101824000Y-63000000D01*
X116000000Y-63000000D01*
X116000000Y-68300000D01*
G37*
%TD.AperFunction*%
%TD*%
%TA.AperFunction,Conductor*%
%TO.N,+3.3V*%
G36*
X125837579Y-68319685D02*
G01*
X125883334Y-68372489D01*
X125893469Y-68419078D01*
X125893861Y-68419037D01*
X125894235Y-68422600D01*
X125894540Y-68424000D01*
X125894540Y-68425497D01*
X125894540Y-68425500D01*
X125914326Y-68613756D01*
X125914327Y-68613759D01*
X125972818Y-68793777D01*
X125972821Y-68793784D01*
X126067467Y-68957716D01*
X126181167Y-69083992D01*
X126194129Y-69098388D01*
X126347265Y-69209648D01*
X126347270Y-69209651D01*
X126520192Y-69286642D01*
X126520197Y-69286644D01*
X126705354Y-69326000D01*
X126705355Y-69326000D01*
X126894644Y-69326000D01*
X126894646Y-69326000D01*
X127079803Y-69286644D01*
X127252730Y-69209651D01*
X127405871Y-69098388D01*
X127532533Y-68957716D01*
X127627179Y-68793784D01*
X127685674Y-68613756D01*
X127705460Y-68425500D01*
X127705460Y-68425497D01*
X127705460Y-68424000D01*
X127705705Y-68423165D01*
X127706139Y-68419037D01*
X127706894Y-68419116D01*
X127725145Y-68356961D01*
X127777949Y-68311206D01*
X127829460Y-68300000D01*
X130856510Y-68300000D01*
X130906946Y-68310721D01*
X131020192Y-68361142D01*
X131020197Y-68361144D01*
X131205354Y-68400500D01*
X131205355Y-68400500D01*
X131394644Y-68400500D01*
X131394646Y-68400500D01*
X131579803Y-68361144D01*
X131637777Y-68335331D01*
X131693054Y-68310721D01*
X131743490Y-68300000D01*
X134976000Y-68300000D01*
X135043039Y-68319685D01*
X135088794Y-68372489D01*
X135100000Y-68424000D01*
X135100000Y-68975500D01*
X135080315Y-69042539D01*
X135027511Y-69088294D01*
X134976000Y-69099500D01*
X134905358Y-69099500D01*
X134872901Y-69106398D01*
X134720201Y-69138855D01*
X134720196Y-69138857D01*
X134547274Y-69215848D01*
X134547269Y-69215851D01*
X134394133Y-69327111D01*
X134267470Y-69467785D01*
X134172825Y-69631715D01*
X134172822Y-69631722D01*
X134121218Y-69790545D01*
X134114330Y-69811744D01*
X134094544Y-70000000D01*
X134114330Y-70188256D01*
X134114331Y-70188259D01*
X134172822Y-70368277D01*
X134172825Y-70368284D01*
X134267471Y-70532216D01*
X134394133Y-70672888D01*
X134547269Y-70784148D01*
X134547274Y-70784151D01*
X134720196Y-70861142D01*
X134720201Y-70861144D01*
X134905358Y-70900500D01*
X134905359Y-70900500D01*
X134976000Y-70900500D01*
X135043039Y-70920185D01*
X135088794Y-70972989D01*
X135100000Y-71024500D01*
X135100000Y-81776000D01*
X135080315Y-81843039D01*
X135027511Y-81888794D01*
X134976000Y-81900000D01*
X131237272Y-81900000D01*
X131170233Y-81880315D01*
X131124478Y-81827511D01*
X131114534Y-81758353D01*
X131143559Y-81694797D01*
X131164387Y-81675682D01*
X131223469Y-81632756D01*
X131305871Y-81572888D01*
X131432533Y-81432216D01*
X131527179Y-81268284D01*
X131585674Y-81088256D01*
X131605460Y-80900000D01*
X131585674Y-80711744D01*
X131527179Y-80531716D01*
X131432533Y-80367784D01*
X131305871Y-80227112D01*
X131305870Y-80227111D01*
X131152734Y-80115851D01*
X131152729Y-80115848D01*
X130979807Y-80038857D01*
X130979802Y-80038855D01*
X130834001Y-80007865D01*
X130794646Y-79999500D01*
X130605354Y-79999500D01*
X130572897Y-80006398D01*
X130420197Y-80038855D01*
X130420192Y-80038857D01*
X130247270Y-80115848D01*
X130247265Y-80115851D01*
X130094129Y-80227111D01*
X129967466Y-80367785D01*
X129872821Y-80531715D01*
X129872818Y-80531722D01*
X129825673Y-80676821D01*
X129814326Y-80711744D01*
X129794540Y-80900000D01*
X129814326Y-81088256D01*
X129814327Y-81088259D01*
X129872818Y-81268277D01*
X129872821Y-81268284D01*
X129967467Y-81432216D01*
X130069933Y-81546016D01*
X130094129Y-81572888D01*
X130235613Y-81675682D01*
X130278279Y-81731012D01*
X130284258Y-81800625D01*
X130251652Y-81862420D01*
X130190814Y-81896777D01*
X130162728Y-81900000D01*
X129100000Y-81900000D01*
X129100000Y-84526845D01*
X129080315Y-84593884D01*
X129027511Y-84639639D01*
X128976339Y-84650845D01*
X116629839Y-84684579D01*
X116562746Y-84665077D01*
X116516847Y-84612398D01*
X116505500Y-84560579D01*
X116505500Y-81444500D01*
X117394540Y-81444500D01*
X117414326Y-81632756D01*
X117414327Y-81632759D01*
X117472818Y-81812777D01*
X117472821Y-81812784D01*
X117567467Y-81976716D01*
X117686169Y-82108548D01*
X117694129Y-82117388D01*
X117847265Y-82228648D01*
X117847270Y-82228651D01*
X118020192Y-82305642D01*
X118020197Y-82305644D01*
X118205354Y-82345000D01*
X118205355Y-82345000D01*
X118394644Y-82345000D01*
X118394646Y-82345000D01*
X118579803Y-82305644D01*
X118752730Y-82228651D01*
X118905871Y-82117388D01*
X119032533Y-81976716D01*
X119127179Y-81812784D01*
X119185674Y-81632756D01*
X119205460Y-81444500D01*
X119185674Y-81256244D01*
X119127179Y-81076216D01*
X119032533Y-80912284D01*
X118905871Y-80771612D01*
X118905870Y-80771611D01*
X118752734Y-80660351D01*
X118752729Y-80660348D01*
X118579807Y-80583357D01*
X118579802Y-80583355D01*
X118434001Y-80552365D01*
X118394646Y-80544000D01*
X118205354Y-80544000D01*
X118172897Y-80550898D01*
X118020197Y-80583355D01*
X118020192Y-80583357D01*
X117847270Y-80660348D01*
X117847265Y-80660351D01*
X117694129Y-80771611D01*
X117567466Y-80912285D01*
X117472821Y-81076215D01*
X117472818Y-81076222D01*
X117414327Y-81256240D01*
X117414326Y-81256244D01*
X117394540Y-81444500D01*
X116505500Y-81444500D01*
X116505500Y-76500000D01*
X121194540Y-76500000D01*
X121214326Y-76688256D01*
X121214327Y-76688259D01*
X121272818Y-76868277D01*
X121272821Y-76868284D01*
X121367467Y-77032216D01*
X121480590Y-77157851D01*
X121494129Y-77172888D01*
X121647265Y-77284148D01*
X121647270Y-77284151D01*
X121820192Y-77361142D01*
X121820197Y-77361144D01*
X122005354Y-77400500D01*
X122005355Y-77400500D01*
X122194644Y-77400500D01*
X122194646Y-77400500D01*
X122285065Y-77381281D01*
X125413259Y-77381281D01*
X125433045Y-77569537D01*
X125433046Y-77569540D01*
X125491537Y-77749558D01*
X125491540Y-77749565D01*
X125586186Y-77913497D01*
X125691597Y-78030567D01*
X125712848Y-78054169D01*
X125865984Y-78165429D01*
X125865989Y-78165432D01*
X126038911Y-78242423D01*
X126038916Y-78242425D01*
X126224073Y-78281781D01*
X126224074Y-78281781D01*
X126413363Y-78281781D01*
X126413365Y-78281781D01*
X126598522Y-78242425D01*
X126771449Y-78165432D01*
X126924590Y-78054169D01*
X127051252Y-77913497D01*
X127145898Y-77749565D01*
X127162003Y-77700000D01*
X131994540Y-77700000D01*
X132014326Y-77888256D01*
X132014327Y-77888259D01*
X132072818Y-78068277D01*
X132072821Y-78068284D01*
X132167467Y-78232216D01*
X132291725Y-78370218D01*
X132294129Y-78372888D01*
X132447265Y-78484148D01*
X132447270Y-78484151D01*
X132620192Y-78561142D01*
X132620197Y-78561144D01*
X132805354Y-78600500D01*
X132805355Y-78600500D01*
X132994644Y-78600500D01*
X132994646Y-78600500D01*
X133179803Y-78561144D01*
X133352730Y-78484151D01*
X133505871Y-78372888D01*
X133632533Y-78232216D01*
X133727179Y-78068284D01*
X133785674Y-77888256D01*
X133805460Y-77700000D01*
X133785674Y-77511744D01*
X133727179Y-77331716D01*
X133632533Y-77167784D01*
X133505871Y-77027112D01*
X133486452Y-77013003D01*
X133352734Y-76915851D01*
X133352729Y-76915848D01*
X133179807Y-76838857D01*
X133179802Y-76838855D01*
X133034001Y-76807865D01*
X132994646Y-76799500D01*
X132805354Y-76799500D01*
X132772897Y-76806398D01*
X132620197Y-76838855D01*
X132620192Y-76838857D01*
X132447270Y-76915848D01*
X132447265Y-76915851D01*
X132294129Y-77027111D01*
X132167466Y-77167785D01*
X132072821Y-77331715D01*
X132072818Y-77331722D01*
X132018424Y-77499132D01*
X132014326Y-77511744D01*
X132002480Y-77624455D01*
X131996815Y-77678359D01*
X131994540Y-77700000D01*
X127162003Y-77700000D01*
X127204393Y-77569537D01*
X127224179Y-77381281D01*
X127204393Y-77193025D01*
X127145898Y-77012997D01*
X127051252Y-76849065D01*
X126924590Y-76708393D01*
X126896874Y-76688256D01*
X126771453Y-76597132D01*
X126771448Y-76597129D01*
X126598526Y-76520138D01*
X126598521Y-76520136D01*
X126452720Y-76489146D01*
X126413365Y-76480781D01*
X126224073Y-76480781D01*
X126191616Y-76487679D01*
X126038916Y-76520136D01*
X126038911Y-76520138D01*
X125865989Y-76597129D01*
X125865984Y-76597132D01*
X125712848Y-76708392D01*
X125586185Y-76849066D01*
X125491540Y-77012996D01*
X125491537Y-77013003D01*
X125434075Y-77189855D01*
X125433045Y-77193025D01*
X125413259Y-77381281D01*
X122285065Y-77381281D01*
X122379803Y-77361144D01*
X122552730Y-77284151D01*
X122705871Y-77172888D01*
X122832533Y-77032216D01*
X122927179Y-76868284D01*
X122985674Y-76688256D01*
X123005460Y-76500000D01*
X122985674Y-76311744D01*
X122927179Y-76131716D01*
X122832533Y-75967784D01*
X122705871Y-75827112D01*
X122696139Y-75820041D01*
X122552734Y-75715851D01*
X122552729Y-75715848D01*
X122379807Y-75638857D01*
X122379802Y-75638855D01*
X122234000Y-75607865D01*
X122194646Y-75599500D01*
X122005354Y-75599500D01*
X121972897Y-75606398D01*
X121820197Y-75638855D01*
X121820192Y-75638857D01*
X121647270Y-75715848D01*
X121647265Y-75715851D01*
X121494129Y-75827111D01*
X121367466Y-75967785D01*
X121272821Y-76131715D01*
X121272818Y-76131722D01*
X121217549Y-76301825D01*
X121214326Y-76311744D01*
X121194540Y-76500000D01*
X116505500Y-76500000D01*
X116505500Y-75300000D01*
X117894540Y-75300000D01*
X117914326Y-75488256D01*
X117914327Y-75488259D01*
X117972818Y-75668277D01*
X117972821Y-75668284D01*
X118067467Y-75832216D01*
X118183902Y-75961530D01*
X118194129Y-75972888D01*
X118347265Y-76084148D01*
X118347270Y-76084151D01*
X118520192Y-76161142D01*
X118520197Y-76161144D01*
X118705354Y-76200500D01*
X118705355Y-76200500D01*
X118894644Y-76200500D01*
X118894646Y-76200500D01*
X119079803Y-76161144D01*
X119252730Y-76084151D01*
X119405871Y-75972888D01*
X119532533Y-75832216D01*
X119627179Y-75668284D01*
X119685674Y-75488256D01*
X119705460Y-75300000D01*
X119685674Y-75111744D01*
X119627179Y-74931716D01*
X119532533Y-74767784D01*
X119405871Y-74627112D01*
X119405870Y-74627111D01*
X119368555Y-74600000D01*
X129794540Y-74600000D01*
X129814326Y-74788256D01*
X129814327Y-74788259D01*
X129872818Y-74968277D01*
X129872821Y-74968284D01*
X129967467Y-75132216D01*
X130042182Y-75215195D01*
X130094129Y-75272888D01*
X130247265Y-75384148D01*
X130247270Y-75384151D01*
X130420192Y-75461142D01*
X130420197Y-75461144D01*
X130605354Y-75500500D01*
X130605355Y-75500500D01*
X130794644Y-75500500D01*
X130794646Y-75500500D01*
X130979803Y-75461144D01*
X131152730Y-75384151D01*
X131305871Y-75272888D01*
X131432533Y-75132216D01*
X131527179Y-74968284D01*
X131585674Y-74788256D01*
X131605460Y-74600000D01*
X131585674Y-74411744D01*
X131527179Y-74231716D01*
X131432533Y-74067784D01*
X131305871Y-73927112D01*
X131222929Y-73866851D01*
X131152734Y-73815851D01*
X131152729Y-73815848D01*
X130979807Y-73738857D01*
X130979802Y-73738855D01*
X130834001Y-73707865D01*
X130794646Y-73699500D01*
X130605354Y-73699500D01*
X130572897Y-73706398D01*
X130420197Y-73738855D01*
X130420192Y-73738857D01*
X130247270Y-73815848D01*
X130247265Y-73815851D01*
X130094129Y-73927111D01*
X129967466Y-74067785D01*
X129872821Y-74231715D01*
X129872818Y-74231722D01*
X129818304Y-74399500D01*
X129814326Y-74411744D01*
X129794540Y-74600000D01*
X119368555Y-74600000D01*
X119252734Y-74515851D01*
X119252729Y-74515848D01*
X119079807Y-74438857D01*
X119079802Y-74438855D01*
X118934001Y-74407865D01*
X118894646Y-74399500D01*
X118705354Y-74399500D01*
X118672897Y-74406398D01*
X118520197Y-74438855D01*
X118520192Y-74438857D01*
X118347270Y-74515848D01*
X118347265Y-74515851D01*
X118194129Y-74627111D01*
X118067466Y-74767785D01*
X117972821Y-74931715D01*
X117972818Y-74931722D01*
X117914327Y-75111740D01*
X117914326Y-75111744D01*
X117894540Y-75300000D01*
X116505500Y-75300000D01*
X116505500Y-72066385D01*
X117286231Y-72066385D01*
X117306017Y-72254641D01*
X117306018Y-72254644D01*
X117364509Y-72434662D01*
X117364512Y-72434669D01*
X117459158Y-72598601D01*
X117566307Y-72717602D01*
X117585820Y-72739273D01*
X117738956Y-72850533D01*
X117738961Y-72850536D01*
X117911883Y-72927527D01*
X117911888Y-72927529D01*
X118097045Y-72966885D01*
X118097046Y-72966885D01*
X118286335Y-72966885D01*
X118286337Y-72966885D01*
X118471494Y-72927529D01*
X118644421Y-72850536D01*
X118797562Y-72739273D01*
X118924224Y-72598601D01*
X119018870Y-72434669D01*
X119077365Y-72254641D01*
X119093618Y-72100000D01*
X132994540Y-72100000D01*
X133014326Y-72288256D01*
X133014327Y-72288259D01*
X133072818Y-72468277D01*
X133072821Y-72468284D01*
X133167467Y-72632216D01*
X133244349Y-72717602D01*
X133294129Y-72772888D01*
X133447265Y-72884148D01*
X133447270Y-72884151D01*
X133620192Y-72961142D01*
X133620197Y-72961144D01*
X133805354Y-73000500D01*
X133805355Y-73000500D01*
X133994644Y-73000500D01*
X133994646Y-73000500D01*
X134179803Y-72961144D01*
X134352730Y-72884151D01*
X134505871Y-72772888D01*
X134632533Y-72632216D01*
X134727179Y-72468284D01*
X134785674Y-72288256D01*
X134805460Y-72100000D01*
X134785674Y-71911744D01*
X134727179Y-71731716D01*
X134632533Y-71567784D01*
X134505871Y-71427112D01*
X134505870Y-71427111D01*
X134352734Y-71315851D01*
X134352729Y-71315848D01*
X134179807Y-71238857D01*
X134179802Y-71238855D01*
X134021660Y-71205242D01*
X133994646Y-71199500D01*
X133805354Y-71199500D01*
X133778340Y-71205242D01*
X133620197Y-71238855D01*
X133620192Y-71238857D01*
X133447270Y-71315848D01*
X133447265Y-71315851D01*
X133294129Y-71427111D01*
X133167466Y-71567785D01*
X133072821Y-71731715D01*
X133072818Y-71731722D01*
X133025248Y-71878129D01*
X133014326Y-71911744D01*
X132994540Y-72100000D01*
X119093618Y-72100000D01*
X119097151Y-72066385D01*
X119077365Y-71878129D01*
X119018870Y-71698101D01*
X118924224Y-71534169D01*
X118797562Y-71393497D01*
X118782532Y-71382577D01*
X118644425Y-71282236D01*
X118644420Y-71282233D01*
X118471498Y-71205242D01*
X118471493Y-71205240D01*
X118325692Y-71174250D01*
X118286337Y-71165885D01*
X118097045Y-71165885D01*
X118064588Y-71172783D01*
X117911888Y-71205240D01*
X117911883Y-71205242D01*
X117738961Y-71282233D01*
X117738956Y-71282236D01*
X117585820Y-71393496D01*
X117459157Y-71534170D01*
X117364512Y-71698100D01*
X117364509Y-71698107D01*
X117323166Y-71825350D01*
X117306017Y-71878129D01*
X117286231Y-72066385D01*
X116505500Y-72066385D01*
X116505500Y-68424000D01*
X116525185Y-68356961D01*
X116577989Y-68311206D01*
X116629500Y-68300000D01*
X125770540Y-68300000D01*
X125837579Y-68319685D01*
G37*
%TD.AperFunction*%
%TD*%
%TA.AperFunction,Conductor*%
%TO.N,Net-(J1-Pin_2)*%
G36*
X156400455Y-61357182D02*
G01*
X156432254Y-61362817D01*
X156556749Y-61386363D01*
X156574612Y-61391146D01*
X156638478Y-61413476D01*
X156732896Y-61450191D01*
X156739985Y-61453478D01*
X156807461Y-61490103D01*
X156810525Y-61491882D01*
X156891236Y-61541903D01*
X156896493Y-61545550D01*
X156917631Y-61561897D01*
X156958497Y-61593500D01*
X156962320Y-61596710D01*
X157031721Y-61659922D01*
X157035271Y-61663426D01*
X157088674Y-61720568D01*
X157092808Y-61725478D01*
X157150388Y-61801522D01*
X157152456Y-61804423D01*
X157194895Y-61867721D01*
X157198843Y-61874499D01*
X157244720Y-61966137D01*
X157272377Y-62026495D01*
X157278811Y-62043856D01*
X157315135Y-62170080D01*
X157320927Y-62191116D01*
X157325377Y-62224064D01*
X157324654Y-65315849D01*
X157322330Y-75256692D01*
X157322325Y-75276029D01*
X157302625Y-75343064D01*
X157249810Y-75388806D01*
X157198325Y-75400000D01*
X152451223Y-75400000D01*
X152384184Y-75380315D01*
X152380112Y-75377584D01*
X152285405Y-75311269D01*
X152241780Y-75256692D01*
X152234588Y-75187193D01*
X152266110Y-75124838D01*
X152285405Y-75108119D01*
X152471082Y-74978105D01*
X152638105Y-74811082D01*
X152773600Y-74617578D01*
X152873429Y-74403492D01*
X152873432Y-74403486D01*
X152930636Y-74190000D01*
X152213347Y-74190000D01*
X152146308Y-74170315D01*
X152100553Y-74117511D01*
X152090609Y-74048353D01*
X152094369Y-74031067D01*
X152098404Y-74017323D01*
X152100000Y-74011889D01*
X152100000Y-73868111D01*
X152094368Y-73848933D01*
X152094370Y-73779064D01*
X152132145Y-73720286D01*
X152195701Y-73691262D01*
X152213347Y-73690000D01*
X152930636Y-73690000D01*
X152930635Y-73689999D01*
X152879725Y-73500000D01*
X154494355Y-73500000D01*
X154498693Y-73535727D01*
X154495387Y-73555609D01*
X154498949Y-73570062D01*
X154502552Y-73599735D01*
X154502552Y-73607815D01*
X154510521Y-73633142D01*
X154514859Y-73668870D01*
X154514861Y-73668878D01*
X154527623Y-73702528D01*
X154529171Y-73722624D01*
X154536082Y-73735792D01*
X154546682Y-73763742D01*
X154548613Y-73771579D01*
X154562417Y-73794271D01*
X154565376Y-73802074D01*
X154575182Y-73827931D01*
X154575184Y-73827934D01*
X154595628Y-73857553D01*
X154601938Y-73876689D01*
X154611808Y-73887830D01*
X154628789Y-73912431D01*
X154632543Y-73919584D01*
X154651367Y-73938304D01*
X154671813Y-73967925D01*
X154671814Y-73967926D01*
X154698757Y-73991796D01*
X154709466Y-74008869D01*
X154721713Y-74017323D01*
X154744088Y-74037147D01*
X154749438Y-74043186D01*
X154772204Y-74056864D01*
X154799145Y-74080732D01*
X154799151Y-74080736D01*
X154831011Y-74097457D01*
X154845499Y-74111475D01*
X154859418Y-74116754D01*
X154885888Y-74130647D01*
X154892533Y-74135234D01*
X154917906Y-74143063D01*
X154949775Y-74159790D01*
X154984714Y-74168401D01*
X155002128Y-74178540D01*
X155016911Y-74180336D01*
X155045932Y-74187490D01*
X155053496Y-74190358D01*
X155080003Y-74191887D01*
X155114941Y-74200499D01*
X155114942Y-74200500D01*
X155150937Y-74200500D01*
X155170285Y-74206181D01*
X155185049Y-74204388D01*
X155214954Y-74204388D01*
X155222950Y-74205359D01*
X155249063Y-74200500D01*
X155285058Y-74200500D01*
X155285060Y-74200499D01*
X155319994Y-74191889D01*
X155340131Y-74192774D01*
X155354064Y-74187490D01*
X155383088Y-74180335D01*
X155391113Y-74179360D01*
X155415280Y-74168403D01*
X155450225Y-74159790D01*
X155482089Y-74143065D01*
X155501855Y-74139105D01*
X155514112Y-74130645D01*
X155540582Y-74116753D01*
X155548133Y-74113888D01*
X155568985Y-74097459D01*
X155600852Y-74080734D01*
X155627792Y-74056866D01*
X155646037Y-74048290D01*
X155655907Y-74037150D01*
X155678285Y-74017324D01*
X155684928Y-74012738D01*
X155701243Y-73991795D01*
X155728183Y-73967929D01*
X155748629Y-73938306D01*
X155764290Y-73925614D01*
X155771209Y-73912432D01*
X155788192Y-73887827D01*
X155793546Y-73881783D01*
X155804372Y-73857549D01*
X155824818Y-73827930D01*
X155837580Y-73794278D01*
X155849751Y-73778203D01*
X155853314Y-73763747D01*
X155863916Y-73735791D01*
X155867664Y-73728649D01*
X155872378Y-73702522D01*
X155872401Y-73702462D01*
X155885140Y-73668872D01*
X155892886Y-73605072D01*
X155894229Y-73597743D01*
X155897448Y-73584686D01*
X155897448Y-73584679D01*
X155898012Y-73582392D01*
X155898020Y-73582353D01*
X155902982Y-73562217D01*
X155901307Y-73535724D01*
X155905645Y-73500000D01*
X155901307Y-73464271D01*
X155904612Y-73444391D01*
X155898005Y-73417584D01*
X155897999Y-73417551D01*
X155897448Y-73415314D01*
X155894232Y-73402266D01*
X155892885Y-73394915D01*
X155885319Y-73332599D01*
X155885140Y-73331127D01*
X155885139Y-73331126D01*
X155872377Y-73297475D01*
X155870828Y-73277376D01*
X155863916Y-73264207D01*
X155853314Y-73236252D01*
X155851382Y-73228415D01*
X155837580Y-73205722D01*
X155824818Y-73172070D01*
X155817276Y-73161144D01*
X155804372Y-73142449D01*
X155798059Y-73123308D01*
X155788190Y-73112168D01*
X155771209Y-73087565D01*
X155767458Y-73080418D01*
X155748631Y-73061694D01*
X155728182Y-73032070D01*
X155701241Y-73008202D01*
X155690529Y-72991126D01*
X155678285Y-72982674D01*
X155655909Y-72962850D01*
X155650563Y-72956816D01*
X155627794Y-72943134D01*
X155600856Y-72919269D01*
X155600851Y-72919265D01*
X155568981Y-72902538D01*
X155554496Y-72888522D01*
X155540579Y-72883244D01*
X155514109Y-72869351D01*
X155507471Y-72864769D01*
X155482095Y-72856937D01*
X155450225Y-72840210D01*
X155450224Y-72840209D01*
X155450223Y-72840209D01*
X155415277Y-72831596D01*
X155397850Y-72821449D01*
X155383074Y-72819655D01*
X155354050Y-72812502D01*
X155346511Y-72809643D01*
X155320002Y-72808112D01*
X155285061Y-72799500D01*
X155285056Y-72799500D01*
X155249072Y-72799500D01*
X155229734Y-72793821D01*
X155214945Y-72795617D01*
X155185060Y-72795617D01*
X155177028Y-72794642D01*
X155150929Y-72799500D01*
X155114944Y-72799500D01*
X155079995Y-72808113D01*
X155059858Y-72807226D01*
X155045952Y-72812501D01*
X155016924Y-72819655D01*
X155008918Y-72820626D01*
X154984722Y-72831595D01*
X154949781Y-72840207D01*
X154949774Y-72840210D01*
X154917901Y-72856938D01*
X154898133Y-72860897D01*
X154885884Y-72869353D01*
X154859420Y-72883243D01*
X154851874Y-72886104D01*
X154831019Y-72902537D01*
X154799152Y-72919263D01*
X154799148Y-72919266D01*
X154772200Y-72943139D01*
X154753954Y-72951714D01*
X154744087Y-72962852D01*
X154721713Y-72982674D01*
X154715078Y-72987253D01*
X154698761Y-73008199D01*
X154671817Y-73032070D01*
X154651366Y-73061698D01*
X154635704Y-73074389D01*
X154628788Y-73087567D01*
X154611809Y-73112166D01*
X154606458Y-73118205D01*
X154595630Y-73142444D01*
X154575184Y-73172065D01*
X154575182Y-73172069D01*
X154562416Y-73205729D01*
X154550245Y-73221801D01*
X154546683Y-73236254D01*
X154536084Y-73264202D01*
X154532338Y-73271339D01*
X154527624Y-73297470D01*
X154514860Y-73331126D01*
X154510521Y-73366858D01*
X154502552Y-73385372D01*
X154502552Y-73400263D01*
X154498949Y-73429936D01*
X154497016Y-73437778D01*
X154498693Y-73464271D01*
X154494355Y-73499999D01*
X154494355Y-73500000D01*
X152879725Y-73500000D01*
X152873432Y-73476513D01*
X152873429Y-73476507D01*
X152773600Y-73262422D01*
X152773599Y-73262420D01*
X152638113Y-73068926D01*
X152638108Y-73068920D01*
X152516053Y-72946865D01*
X152482568Y-72885542D01*
X152487552Y-72815850D01*
X152529424Y-72759917D01*
X152560400Y-72743002D01*
X152692331Y-72693796D01*
X152807546Y-72607546D01*
X152893796Y-72492331D01*
X152944091Y-72357483D01*
X152950500Y-72297873D01*
X152950499Y-70900000D01*
X154494355Y-70900000D01*
X154498693Y-70935727D01*
X154495387Y-70955609D01*
X154498949Y-70970062D01*
X154502552Y-70999735D01*
X154502552Y-71007815D01*
X154510521Y-71033142D01*
X154514859Y-71068870D01*
X154514861Y-71068878D01*
X154527623Y-71102528D01*
X154529171Y-71122624D01*
X154536082Y-71135792D01*
X154546682Y-71163742D01*
X154548613Y-71171579D01*
X154562417Y-71194271D01*
X154564400Y-71199500D01*
X154575182Y-71227931D01*
X154575184Y-71227934D01*
X154595628Y-71257553D01*
X154601938Y-71276689D01*
X154611808Y-71287830D01*
X154628789Y-71312431D01*
X154632543Y-71319584D01*
X154651367Y-71338304D01*
X154671813Y-71367925D01*
X154671814Y-71367926D01*
X154698757Y-71391796D01*
X154709466Y-71408869D01*
X154721713Y-71417323D01*
X154744088Y-71437147D01*
X154749438Y-71443186D01*
X154772204Y-71456864D01*
X154799145Y-71480732D01*
X154799151Y-71480736D01*
X154831011Y-71497457D01*
X154845499Y-71511475D01*
X154859418Y-71516754D01*
X154885888Y-71530647D01*
X154892533Y-71535234D01*
X154917906Y-71543063D01*
X154949775Y-71559790D01*
X154984714Y-71568401D01*
X155002128Y-71578540D01*
X155016911Y-71580336D01*
X155045932Y-71587490D01*
X155053496Y-71590358D01*
X155080003Y-71591887D01*
X155114941Y-71600499D01*
X155114942Y-71600500D01*
X155150937Y-71600500D01*
X155170285Y-71606181D01*
X155185049Y-71604388D01*
X155214954Y-71604388D01*
X155222950Y-71605359D01*
X155249063Y-71600500D01*
X155285058Y-71600500D01*
X155285060Y-71600499D01*
X155319994Y-71591889D01*
X155340131Y-71592774D01*
X155354064Y-71587490D01*
X155383088Y-71580335D01*
X155391113Y-71579360D01*
X155415280Y-71568403D01*
X155450225Y-71559790D01*
X155482089Y-71543065D01*
X155501855Y-71539105D01*
X155514112Y-71530645D01*
X155540582Y-71516753D01*
X155548133Y-71513888D01*
X155568985Y-71497459D01*
X155600852Y-71480734D01*
X155627792Y-71456866D01*
X155646037Y-71448290D01*
X155655907Y-71437150D01*
X155678285Y-71417324D01*
X155684928Y-71412738D01*
X155701243Y-71391795D01*
X155728183Y-71367929D01*
X155748629Y-71338306D01*
X155764290Y-71325614D01*
X155771209Y-71312432D01*
X155788192Y-71287827D01*
X155793546Y-71281783D01*
X155804372Y-71257549D01*
X155824818Y-71227930D01*
X155837580Y-71194278D01*
X155849751Y-71178203D01*
X155853314Y-71163747D01*
X155863916Y-71135791D01*
X155867664Y-71128649D01*
X155872378Y-71102522D01*
X155885140Y-71068872D01*
X155892886Y-71005072D01*
X155894229Y-70997743D01*
X155897448Y-70984686D01*
X155897448Y-70984679D01*
X155898012Y-70982392D01*
X155898020Y-70982353D01*
X155902982Y-70962217D01*
X155901307Y-70935724D01*
X155905645Y-70900000D01*
X155901307Y-70864271D01*
X155904612Y-70844391D01*
X155898005Y-70817584D01*
X155897999Y-70817551D01*
X155897448Y-70815314D01*
X155894232Y-70802266D01*
X155892885Y-70794915D01*
X155885140Y-70731128D01*
X155872376Y-70697474D01*
X155870828Y-70677376D01*
X155863916Y-70664207D01*
X155853314Y-70636252D01*
X155851382Y-70628415D01*
X155837580Y-70605722D01*
X155824818Y-70572070D01*
X155804372Y-70542449D01*
X155798059Y-70523308D01*
X155788190Y-70512168D01*
X155771209Y-70487565D01*
X155767458Y-70480418D01*
X155748631Y-70461694D01*
X155728182Y-70432070D01*
X155701241Y-70408202D01*
X155690529Y-70391126D01*
X155678285Y-70382674D01*
X155655909Y-70362850D01*
X155650563Y-70356816D01*
X155627794Y-70343134D01*
X155600856Y-70319269D01*
X155600851Y-70319265D01*
X155568981Y-70302538D01*
X155554496Y-70288522D01*
X155540579Y-70283244D01*
X155514109Y-70269351D01*
X155507471Y-70264769D01*
X155482095Y-70256937D01*
X155450225Y-70240210D01*
X155450224Y-70240209D01*
X155450223Y-70240209D01*
X155415277Y-70231596D01*
X155397850Y-70221449D01*
X155383074Y-70219655D01*
X155354050Y-70212502D01*
X155346511Y-70209643D01*
X155320002Y-70208112D01*
X155285061Y-70199500D01*
X155285056Y-70199500D01*
X155249072Y-70199500D01*
X155229734Y-70193821D01*
X155214945Y-70195617D01*
X155185060Y-70195617D01*
X155177028Y-70194642D01*
X155150929Y-70199500D01*
X155114944Y-70199500D01*
X155079995Y-70208113D01*
X155059858Y-70207226D01*
X155045952Y-70212501D01*
X155016924Y-70219655D01*
X155008918Y-70220626D01*
X154984722Y-70231595D01*
X154949781Y-70240207D01*
X154949774Y-70240210D01*
X154917901Y-70256938D01*
X154898133Y-70260897D01*
X154885884Y-70269353D01*
X154859420Y-70283243D01*
X154851874Y-70286104D01*
X154831019Y-70302537D01*
X154799152Y-70319263D01*
X154799148Y-70319266D01*
X154772200Y-70343139D01*
X154753954Y-70351714D01*
X154744087Y-70362852D01*
X154721713Y-70382674D01*
X154715078Y-70387253D01*
X154698761Y-70408199D01*
X154671817Y-70432070D01*
X154651366Y-70461698D01*
X154635704Y-70474389D01*
X154628788Y-70487567D01*
X154611809Y-70512166D01*
X154606458Y-70518205D01*
X154595630Y-70542444D01*
X154575184Y-70572065D01*
X154575182Y-70572069D01*
X154562416Y-70605729D01*
X154550245Y-70621801D01*
X154546683Y-70636254D01*
X154536084Y-70664202D01*
X154532338Y-70671339D01*
X154527624Y-70697470D01*
X154514860Y-70731126D01*
X154510521Y-70766858D01*
X154502552Y-70785372D01*
X154502552Y-70800263D01*
X154498949Y-70829936D01*
X154497016Y-70837778D01*
X154498693Y-70864271D01*
X154494355Y-70899999D01*
X154494355Y-70900000D01*
X152950499Y-70900000D01*
X152950499Y-70502128D01*
X152944091Y-70442517D01*
X152934144Y-70415849D01*
X152893797Y-70307671D01*
X152893793Y-70307664D01*
X152807547Y-70192455D01*
X152807544Y-70192452D01*
X152692335Y-70106206D01*
X152692328Y-70106202D01*
X152557482Y-70055908D01*
X152557483Y-70055908D01*
X152497883Y-70049501D01*
X152497881Y-70049500D01*
X152497873Y-70049500D01*
X152497864Y-70049500D01*
X150702129Y-70049500D01*
X150702123Y-70049501D01*
X150642516Y-70055908D01*
X150507671Y-70106202D01*
X150507664Y-70106206D01*
X150392455Y-70192452D01*
X150392452Y-70192455D01*
X150306206Y-70307664D01*
X150306202Y-70307671D01*
X150255908Y-70442517D01*
X150251065Y-70487567D01*
X150249501Y-70502123D01*
X150249500Y-70502135D01*
X150249500Y-72297870D01*
X150249501Y-72297876D01*
X150255908Y-72357483D01*
X150306202Y-72492328D01*
X150306206Y-72492335D01*
X150392452Y-72607544D01*
X150392455Y-72607547D01*
X150507664Y-72693793D01*
X150507671Y-72693797D01*
X150507674Y-72693798D01*
X150639598Y-72743002D01*
X150695531Y-72784873D01*
X150719949Y-72850337D01*
X150705098Y-72918610D01*
X150683947Y-72946865D01*
X150561886Y-73068926D01*
X150426400Y-73262420D01*
X150426399Y-73262422D01*
X150326570Y-73476507D01*
X150326567Y-73476513D01*
X150269364Y-73689999D01*
X150269364Y-73690000D01*
X150986653Y-73690000D01*
X151053692Y-73709685D01*
X151099447Y-73762489D01*
X151109391Y-73831647D01*
X151105631Y-73848933D01*
X151100000Y-73868111D01*
X151100000Y-74011889D01*
X151101596Y-74017323D01*
X151105631Y-74031067D01*
X151105630Y-74100936D01*
X151067855Y-74159714D01*
X151004299Y-74188738D01*
X150986653Y-74190000D01*
X150269364Y-74190000D01*
X150326567Y-74403486D01*
X150326570Y-74403492D01*
X150426399Y-74617578D01*
X150561894Y-74811082D01*
X150728917Y-74978105D01*
X150914595Y-75108119D01*
X150958219Y-75162696D01*
X150965412Y-75232195D01*
X150933890Y-75294549D01*
X150914595Y-75311268D01*
X150819902Y-75377574D01*
X150753696Y-75399902D01*
X150748778Y-75400000D01*
X149724000Y-75400000D01*
X149656961Y-75380315D01*
X149611206Y-75327511D01*
X149600000Y-75276000D01*
X149600000Y-62800000D01*
X116613969Y-62996345D01*
X116546814Y-62977060D01*
X116500745Y-62924529D01*
X116494254Y-62907283D01*
X116459819Y-62790008D01*
X116382031Y-62668968D01*
X116336112Y-62629179D01*
X116273299Y-62574750D01*
X116273297Y-62574748D01*
X116273294Y-62574746D01*
X116273290Y-62574744D01*
X116142419Y-62514976D01*
X116142414Y-62514975D01*
X116000000Y-62494500D01*
X101824000Y-62494500D01*
X101823991Y-62494500D01*
X101823990Y-62494501D01*
X101716549Y-62506052D01*
X101716537Y-62506054D01*
X101665027Y-62517260D01*
X101562502Y-62551383D01*
X101562496Y-62551386D01*
X101441462Y-62629171D01*
X101441451Y-62629179D01*
X101388659Y-62674923D01*
X101294433Y-62783664D01*
X101294430Y-62783668D01*
X101234664Y-62914534D01*
X101214978Y-62981575D01*
X101214976Y-62981580D01*
X101194500Y-63124001D01*
X101194500Y-68676000D01*
X101174815Y-68743039D01*
X101122011Y-68788794D01*
X101070500Y-68800000D01*
X99390338Y-68800000D01*
X99323299Y-68780315D01*
X99277544Y-68727511D01*
X99267600Y-68658353D01*
X99296625Y-68594797D01*
X99319214Y-68574426D01*
X99371078Y-68538109D01*
X99538105Y-68371082D01*
X99673600Y-68177578D01*
X99773429Y-67963492D01*
X99773432Y-67963486D01*
X99830636Y-67750000D01*
X99113347Y-67750000D01*
X99046308Y-67730315D01*
X99000553Y-67677511D01*
X98990609Y-67608353D01*
X98994369Y-67591067D01*
X99000000Y-67571888D01*
X99000000Y-67428111D01*
X98994369Y-67408933D01*
X98994370Y-67339064D01*
X99032145Y-67280286D01*
X99095701Y-67251262D01*
X99113347Y-67250000D01*
X99830636Y-67250000D01*
X99830635Y-67249999D01*
X99773432Y-67036513D01*
X99773429Y-67036507D01*
X99673600Y-66822422D01*
X99673599Y-66822420D01*
X99538113Y-66628926D01*
X99538108Y-66628920D01*
X99416053Y-66506865D01*
X99382568Y-66445542D01*
X99387552Y-66375850D01*
X99429424Y-66319917D01*
X99460400Y-66303002D01*
X99592331Y-66253796D01*
X99707546Y-66167546D01*
X99793796Y-66052331D01*
X99844091Y-65917483D01*
X99850500Y-65857873D01*
X99850499Y-64062128D01*
X99844091Y-64002517D01*
X99843152Y-64000000D01*
X99793797Y-63867671D01*
X99793793Y-63867664D01*
X99707547Y-63752455D01*
X99707544Y-63752452D01*
X99592335Y-63666206D01*
X99592328Y-63666202D01*
X99457482Y-63615908D01*
X99457483Y-63615908D01*
X99397883Y-63609501D01*
X99397881Y-63609500D01*
X99397873Y-63609500D01*
X99397864Y-63609500D01*
X97602129Y-63609500D01*
X97602123Y-63609501D01*
X97542516Y-63615908D01*
X97407671Y-63666202D01*
X97407664Y-63666206D01*
X97292455Y-63752452D01*
X97292452Y-63752455D01*
X97206206Y-63867664D01*
X97206202Y-63867671D01*
X97155908Y-64002517D01*
X97150058Y-64056936D01*
X97149501Y-64062123D01*
X97149500Y-64062135D01*
X97149500Y-65857870D01*
X97149501Y-65857876D01*
X97155908Y-65917483D01*
X97206202Y-66052328D01*
X97206206Y-66052335D01*
X97292452Y-66167544D01*
X97292455Y-66167547D01*
X97407664Y-66253793D01*
X97407671Y-66253797D01*
X97407674Y-66253798D01*
X97539598Y-66303002D01*
X97595531Y-66344873D01*
X97619949Y-66410337D01*
X97605098Y-66478610D01*
X97583947Y-66506865D01*
X97461886Y-66628926D01*
X97326400Y-66822420D01*
X97326399Y-66822422D01*
X97226570Y-67036507D01*
X97226567Y-67036513D01*
X97169364Y-67249999D01*
X97169364Y-67250000D01*
X97886653Y-67250000D01*
X97953692Y-67269685D01*
X97999447Y-67322489D01*
X98009391Y-67391647D01*
X98005631Y-67408933D01*
X98000000Y-67428111D01*
X98000000Y-67571888D01*
X98005631Y-67591067D01*
X98005630Y-67660936D01*
X97967855Y-67719714D01*
X97904299Y-67748738D01*
X97886653Y-67750000D01*
X97169364Y-67750000D01*
X97226567Y-67963486D01*
X97226570Y-67963492D01*
X97326399Y-68177578D01*
X97461894Y-68371082D01*
X97628921Y-68538109D01*
X97680786Y-68574426D01*
X97724411Y-68629003D01*
X97731603Y-68698502D01*
X97700080Y-68760856D01*
X97639850Y-68796269D01*
X97609662Y-68800000D01*
X92467679Y-68800000D01*
X92400640Y-68780315D01*
X92354885Y-68727511D01*
X92343679Y-68675867D01*
X92345151Y-67300003D01*
X93994355Y-67300003D01*
X93998692Y-67335730D01*
X93995386Y-67355607D01*
X93998949Y-67370062D01*
X94002552Y-67399735D01*
X94002552Y-67407815D01*
X94010521Y-67433142D01*
X94014859Y-67468870D01*
X94014861Y-67468878D01*
X94027623Y-67502528D01*
X94029171Y-67522624D01*
X94036082Y-67535792D01*
X94046682Y-67563742D01*
X94048613Y-67571579D01*
X94062417Y-67594271D01*
X94067601Y-67607940D01*
X94075182Y-67627931D01*
X94075184Y-67627934D01*
X94095628Y-67657553D01*
X94101938Y-67676689D01*
X94111808Y-67687830D01*
X94128789Y-67712431D01*
X94132543Y-67719584D01*
X94151367Y-67738304D01*
X94171813Y-67767925D01*
X94171814Y-67767926D01*
X94198757Y-67791796D01*
X94209466Y-67808869D01*
X94221713Y-67817323D01*
X94244088Y-67837147D01*
X94249438Y-67843186D01*
X94272204Y-67856864D01*
X94299145Y-67880732D01*
X94299151Y-67880736D01*
X94331011Y-67897457D01*
X94345499Y-67911475D01*
X94359418Y-67916754D01*
X94385888Y-67930647D01*
X94392533Y-67935234D01*
X94417906Y-67943063D01*
X94449775Y-67959790D01*
X94484714Y-67968401D01*
X94502128Y-67978540D01*
X94516911Y-67980336D01*
X94545932Y-67987490D01*
X94553496Y-67990358D01*
X94580003Y-67991887D01*
X94614941Y-68000499D01*
X94614942Y-68000500D01*
X94650937Y-68000500D01*
X94670285Y-68006181D01*
X94685049Y-68004388D01*
X94714954Y-68004388D01*
X94722950Y-68005359D01*
X94749063Y-68000500D01*
X94785058Y-68000500D01*
X94785060Y-68000499D01*
X94819994Y-67991889D01*
X94840131Y-67992774D01*
X94854064Y-67987490D01*
X94883088Y-67980335D01*
X94891113Y-67979360D01*
X94915280Y-67968403D01*
X94950225Y-67959790D01*
X94982089Y-67943065D01*
X95001855Y-67939105D01*
X95014112Y-67930645D01*
X95040582Y-67916753D01*
X95048133Y-67913888D01*
X95068985Y-67897459D01*
X95100852Y-67880734D01*
X95127792Y-67856866D01*
X95146037Y-67848290D01*
X95155907Y-67837150D01*
X95178285Y-67817324D01*
X95184928Y-67812738D01*
X95201243Y-67791795D01*
X95228183Y-67767929D01*
X95248629Y-67738306D01*
X95264290Y-67725614D01*
X95271209Y-67712432D01*
X95288192Y-67687827D01*
X95293546Y-67681783D01*
X95304372Y-67657549D01*
X95324818Y-67627930D01*
X95337580Y-67594278D01*
X95349751Y-67578203D01*
X95353314Y-67563747D01*
X95363916Y-67535791D01*
X95367664Y-67528649D01*
X95372378Y-67502522D01*
X95385140Y-67468872D01*
X95392886Y-67405072D01*
X95394229Y-67397743D01*
X95397448Y-67384686D01*
X95397448Y-67384679D01*
X95398012Y-67382392D01*
X95398020Y-67382353D01*
X95402982Y-67362217D01*
X95401307Y-67335724D01*
X95405645Y-67300000D01*
X95401306Y-67264272D01*
X95404612Y-67244391D01*
X95398005Y-67217584D01*
X95397999Y-67217551D01*
X95397448Y-67215314D01*
X95394232Y-67202266D01*
X95392885Y-67194915D01*
X95385319Y-67132599D01*
X95385140Y-67131127D01*
X95385139Y-67131126D01*
X95372377Y-67097475D01*
X95370828Y-67077376D01*
X95363916Y-67064207D01*
X95353314Y-67036252D01*
X95351382Y-67028415D01*
X95337580Y-67005722D01*
X95324818Y-66972070D01*
X95317276Y-66961144D01*
X95304372Y-66942449D01*
X95298059Y-66923308D01*
X95288190Y-66912168D01*
X95271209Y-66887565D01*
X95267458Y-66880418D01*
X95248631Y-66861694D01*
X95228182Y-66832070D01*
X95201241Y-66808202D01*
X95190529Y-66791126D01*
X95178285Y-66782674D01*
X95155909Y-66762850D01*
X95150563Y-66756816D01*
X95127794Y-66743134D01*
X95100856Y-66719269D01*
X95100851Y-66719265D01*
X95068981Y-66702538D01*
X95054496Y-66688522D01*
X95040579Y-66683244D01*
X95014109Y-66669351D01*
X95007471Y-66664769D01*
X94982095Y-66656937D01*
X94950225Y-66640210D01*
X94950224Y-66640209D01*
X94950223Y-66640209D01*
X94915277Y-66631596D01*
X94897850Y-66621449D01*
X94883074Y-66619655D01*
X94854050Y-66612502D01*
X94846511Y-66609643D01*
X94820002Y-66608112D01*
X94785061Y-66599500D01*
X94785056Y-66599500D01*
X94749072Y-66599500D01*
X94729734Y-66593821D01*
X94714945Y-66595617D01*
X94685060Y-66595617D01*
X94677028Y-66594642D01*
X94650929Y-66599500D01*
X94614944Y-66599500D01*
X94579995Y-66608113D01*
X94559858Y-66607226D01*
X94545952Y-66612501D01*
X94516924Y-66619655D01*
X94508918Y-66620626D01*
X94484722Y-66631595D01*
X94449781Y-66640207D01*
X94449774Y-66640210D01*
X94417901Y-66656938D01*
X94398133Y-66660897D01*
X94385884Y-66669353D01*
X94359420Y-66683243D01*
X94351874Y-66686104D01*
X94331019Y-66702537D01*
X94299152Y-66719263D01*
X94299148Y-66719266D01*
X94272200Y-66743139D01*
X94253954Y-66751714D01*
X94244087Y-66762852D01*
X94221713Y-66782674D01*
X94215078Y-66787253D01*
X94198761Y-66808199D01*
X94171817Y-66832070D01*
X94151366Y-66861698D01*
X94135704Y-66874389D01*
X94128788Y-66887567D01*
X94111809Y-66912166D01*
X94106458Y-66918205D01*
X94095630Y-66942444D01*
X94075184Y-66972065D01*
X94075182Y-66972069D01*
X94062416Y-67005729D01*
X94050245Y-67021801D01*
X94046683Y-67036254D01*
X94036084Y-67064202D01*
X94032338Y-67071339D01*
X94027624Y-67097470D01*
X94014860Y-67131126D01*
X94010521Y-67166858D01*
X94002552Y-67185372D01*
X94002552Y-67200263D01*
X93998949Y-67229936D01*
X93997015Y-67237781D01*
X93998692Y-67264268D01*
X93994355Y-67299995D01*
X93994355Y-67300003D01*
X92345151Y-67300003D01*
X92347189Y-65394400D01*
X92347344Y-65249135D01*
X92354666Y-64700003D01*
X93994355Y-64700003D01*
X93998692Y-64735730D01*
X93995386Y-64755607D01*
X93998949Y-64770062D01*
X94002552Y-64799735D01*
X94002552Y-64807815D01*
X94010521Y-64833142D01*
X94014859Y-64868870D01*
X94014861Y-64868878D01*
X94027623Y-64902528D01*
X94029171Y-64922624D01*
X94036082Y-64935792D01*
X94046682Y-64963742D01*
X94048613Y-64971579D01*
X94062417Y-64994271D01*
X94067601Y-65007940D01*
X94075182Y-65027931D01*
X94075184Y-65027934D01*
X94095628Y-65057553D01*
X94101938Y-65076689D01*
X94111808Y-65087830D01*
X94128789Y-65112431D01*
X94132543Y-65119584D01*
X94151367Y-65138304D01*
X94171813Y-65167925D01*
X94171814Y-65167926D01*
X94198757Y-65191796D01*
X94209466Y-65208869D01*
X94221713Y-65217323D01*
X94244088Y-65237147D01*
X94249438Y-65243186D01*
X94272204Y-65256864D01*
X94299145Y-65280732D01*
X94299151Y-65280736D01*
X94331011Y-65297457D01*
X94345499Y-65311475D01*
X94359418Y-65316754D01*
X94385888Y-65330647D01*
X94392533Y-65335234D01*
X94417906Y-65343063D01*
X94449775Y-65359790D01*
X94484714Y-65368401D01*
X94502128Y-65378540D01*
X94516911Y-65380336D01*
X94545932Y-65387490D01*
X94553496Y-65390358D01*
X94580003Y-65391887D01*
X94614941Y-65400499D01*
X94614942Y-65400500D01*
X94650937Y-65400500D01*
X94670285Y-65406181D01*
X94685049Y-65404388D01*
X94714954Y-65404388D01*
X94722950Y-65405359D01*
X94749063Y-65400500D01*
X94785058Y-65400500D01*
X94785060Y-65400499D01*
X94819994Y-65391889D01*
X94840131Y-65392774D01*
X94854064Y-65387490D01*
X94883088Y-65380335D01*
X94891113Y-65379360D01*
X94915280Y-65368403D01*
X94950225Y-65359790D01*
X94982089Y-65343065D01*
X95001855Y-65339105D01*
X95014112Y-65330645D01*
X95040582Y-65316753D01*
X95048133Y-65313888D01*
X95068985Y-65297459D01*
X95100852Y-65280734D01*
X95127792Y-65256866D01*
X95146037Y-65248290D01*
X95155907Y-65237150D01*
X95178285Y-65217324D01*
X95184928Y-65212738D01*
X95201243Y-65191795D01*
X95228183Y-65167929D01*
X95248629Y-65138306D01*
X95264290Y-65125614D01*
X95271209Y-65112432D01*
X95288192Y-65087827D01*
X95293546Y-65081783D01*
X95304372Y-65057549D01*
X95324818Y-65027930D01*
X95337580Y-64994278D01*
X95349751Y-64978203D01*
X95353314Y-64963747D01*
X95363916Y-64935791D01*
X95367664Y-64928649D01*
X95372378Y-64902522D01*
X95373145Y-64900500D01*
X95385140Y-64868872D01*
X95392886Y-64805072D01*
X95394229Y-64797743D01*
X95397448Y-64784686D01*
X95397448Y-64784679D01*
X95398012Y-64782392D01*
X95398020Y-64782353D01*
X95402982Y-64762217D01*
X95401307Y-64735724D01*
X95405645Y-64700000D01*
X95401306Y-64664272D01*
X95404612Y-64644391D01*
X95398005Y-64617584D01*
X95397999Y-64617551D01*
X95397448Y-64615314D01*
X95394232Y-64602266D01*
X95392885Y-64594915D01*
X95385140Y-64531128D01*
X95372376Y-64497474D01*
X95370828Y-64477376D01*
X95363916Y-64464207D01*
X95353314Y-64436252D01*
X95351382Y-64428415D01*
X95337580Y-64405722D01*
X95324818Y-64372070D01*
X95304372Y-64342449D01*
X95298059Y-64323308D01*
X95288190Y-64312168D01*
X95271209Y-64287565D01*
X95267458Y-64280418D01*
X95248631Y-64261694D01*
X95228182Y-64232070D01*
X95201241Y-64208202D01*
X95190529Y-64191126D01*
X95178285Y-64182674D01*
X95155909Y-64162850D01*
X95150563Y-64156816D01*
X95127794Y-64143134D01*
X95100856Y-64119269D01*
X95100851Y-64119265D01*
X95068981Y-64102538D01*
X95054496Y-64088522D01*
X95040579Y-64083244D01*
X95014109Y-64069351D01*
X95007471Y-64064769D01*
X94982095Y-64056937D01*
X94950225Y-64040210D01*
X94950224Y-64040209D01*
X94950223Y-64040209D01*
X94915277Y-64031596D01*
X94897850Y-64021449D01*
X94883074Y-64019655D01*
X94854050Y-64012502D01*
X94846511Y-64009643D01*
X94820002Y-64008112D01*
X94785061Y-63999500D01*
X94785056Y-63999500D01*
X94749072Y-63999500D01*
X94729734Y-63993821D01*
X94714945Y-63995617D01*
X94685060Y-63995617D01*
X94677028Y-63994642D01*
X94650929Y-63999500D01*
X94614944Y-63999500D01*
X94579995Y-64008113D01*
X94559858Y-64007226D01*
X94545952Y-64012501D01*
X94516924Y-64019655D01*
X94508918Y-64020626D01*
X94484722Y-64031595D01*
X94449781Y-64040207D01*
X94449774Y-64040210D01*
X94417901Y-64056938D01*
X94398133Y-64060897D01*
X94385884Y-64069353D01*
X94359420Y-64083243D01*
X94351874Y-64086104D01*
X94331019Y-64102537D01*
X94299152Y-64119263D01*
X94299148Y-64119266D01*
X94272200Y-64143139D01*
X94253954Y-64151714D01*
X94244087Y-64162852D01*
X94221713Y-64182674D01*
X94215078Y-64187253D01*
X94198761Y-64208199D01*
X94171817Y-64232070D01*
X94151366Y-64261698D01*
X94135704Y-64274389D01*
X94128788Y-64287567D01*
X94111809Y-64312166D01*
X94106458Y-64318205D01*
X94095630Y-64342444D01*
X94075184Y-64372065D01*
X94075182Y-64372069D01*
X94062416Y-64405729D01*
X94050245Y-64421801D01*
X94046683Y-64436254D01*
X94036084Y-64464202D01*
X94032338Y-64471339D01*
X94027624Y-64497470D01*
X94014860Y-64531126D01*
X94010521Y-64566858D01*
X94002552Y-64585372D01*
X94002552Y-64600263D01*
X93998949Y-64629936D01*
X93997015Y-64637781D01*
X93998692Y-64664268D01*
X93994355Y-64699995D01*
X93994355Y-64700003D01*
X92354666Y-64700003D01*
X92388970Y-62127152D01*
X92395908Y-62087884D01*
X92403518Y-62066118D01*
X92408820Y-62050960D01*
X92421273Y-62018933D01*
X92445371Y-61956963D01*
X92448643Y-61949907D01*
X92485512Y-61881988D01*
X92487253Y-61878989D01*
X92536999Y-61798722D01*
X92540636Y-61793478D01*
X92588959Y-61730995D01*
X92592134Y-61727213D01*
X92654901Y-61658300D01*
X92658354Y-61654804D01*
X92716089Y-61600850D01*
X92720946Y-61596760D01*
X92796236Y-61539752D01*
X92799059Y-61537739D01*
X92863251Y-61494702D01*
X92870003Y-61490771D01*
X92960190Y-61445623D01*
X93022036Y-61417284D01*
X93039347Y-61410868D01*
X93160918Y-61375882D01*
X93186561Y-61368822D01*
X93219453Y-61364373D01*
X156378817Y-61355281D01*
X156400455Y-61357182D01*
G37*
%TD.AperFunction*%
%TD*%
%TA.AperFunction,Conductor*%
%TO.N,+5V*%
G36*
X116016004Y-63072489D02*
G01*
X116019262Y-63080320D01*
X116027645Y-63102592D01*
X116042188Y-63137262D01*
X116042189Y-63137264D01*
X116120686Y-63257823D01*
X116120688Y-63257826D01*
X116120690Y-63257829D01*
X116120692Y-63257831D01*
X116166761Y-63310362D01*
X116276056Y-63403933D01*
X116276057Y-63403933D01*
X116276058Y-63403934D01*
X116407283Y-63462921D01*
X116407296Y-63462926D01*
X116459163Y-63477820D01*
X116474443Y-63482208D01*
X116616978Y-63501836D01*
X120651417Y-63477820D01*
X120718570Y-63497105D01*
X120764639Y-63549636D01*
X120774994Y-63618734D01*
X120770084Y-63640136D01*
X120714327Y-63811740D01*
X120714326Y-63811744D01*
X120694540Y-64000000D01*
X120714326Y-64188256D01*
X120714327Y-64188259D01*
X120772818Y-64368277D01*
X120772821Y-64368284D01*
X120867467Y-64532216D01*
X120943636Y-64616810D01*
X120994129Y-64672888D01*
X121147265Y-64784148D01*
X121147270Y-64784151D01*
X121320192Y-64861142D01*
X121320197Y-64861144D01*
X121505354Y-64900500D01*
X121505355Y-64900500D01*
X121694644Y-64900500D01*
X121694646Y-64900500D01*
X121879803Y-64861144D01*
X122052730Y-64784151D01*
X122205871Y-64672888D01*
X122332533Y-64532216D01*
X122427179Y-64368284D01*
X122485674Y-64188256D01*
X122505460Y-64000000D01*
X122485674Y-63811744D01*
X122427179Y-63631716D01*
X122426256Y-63628874D01*
X122424261Y-63559033D01*
X122460341Y-63499200D01*
X122523042Y-63468372D01*
X122543441Y-63466558D01*
X148969763Y-63309259D01*
X149036917Y-63328544D01*
X149082986Y-63381075D01*
X149094500Y-63433256D01*
X149094500Y-70555000D01*
X149094500Y-75276000D01*
X149094501Y-75276009D01*
X149106052Y-75383450D01*
X149106054Y-75383462D01*
X149117260Y-75434972D01*
X149151383Y-75537497D01*
X149151386Y-75537503D01*
X149180433Y-75582700D01*
X149200118Y-75649740D01*
X149188912Y-75701252D01*
X149134664Y-75820034D01*
X149114978Y-75887075D01*
X149114976Y-75887080D01*
X149094500Y-76029501D01*
X149094500Y-84472216D01*
X149074815Y-84539255D01*
X149022011Y-84585010D01*
X148970839Y-84596216D01*
X129729838Y-84648787D01*
X129662745Y-84629285D01*
X129616846Y-84576606D01*
X129605500Y-84524791D01*
X129605500Y-82529499D01*
X129625185Y-82462460D01*
X129677989Y-82416706D01*
X129729500Y-82405500D01*
X130177174Y-82405500D01*
X130205998Y-82403852D01*
X130206003Y-82403851D01*
X130206010Y-82403851D01*
X130218679Y-82402396D01*
X130248443Y-82398982D01*
X130248441Y-82398982D01*
X130277532Y-82393947D01*
X130305309Y-82389140D01*
X130439386Y-82336939D01*
X130500224Y-82302582D01*
X130614162Y-82214723D01*
X130614162Y-82214721D01*
X130621185Y-82209307D01*
X130622019Y-82210388D01*
X130674775Y-82180594D01*
X130744531Y-82184581D01*
X130783935Y-82209508D01*
X130784856Y-82208447D01*
X130788199Y-82211344D01*
X130788202Y-82211347D01*
X130896936Y-82305567D01*
X130896939Y-82305568D01*
X130896940Y-82305569D01*
X131024935Y-82364024D01*
X131027813Y-82365338D01*
X131072629Y-82378497D01*
X131094847Y-82385022D01*
X131094852Y-82385023D01*
X131094856Y-82385024D01*
X131237272Y-82405500D01*
X131237275Y-82405500D01*
X134975990Y-82405500D01*
X134976000Y-82405500D01*
X135083456Y-82393947D01*
X135134967Y-82382741D01*
X135169197Y-82371347D01*
X135237497Y-82348616D01*
X135237501Y-82348613D01*
X135237504Y-82348613D01*
X135358543Y-82270825D01*
X135411347Y-82225070D01*
X135505567Y-82116336D01*
X135565338Y-81985459D01*
X135585023Y-81918420D01*
X135585024Y-81918416D01*
X135605500Y-81776000D01*
X135605500Y-77000000D01*
X141794540Y-77000000D01*
X141814326Y-77188256D01*
X141814327Y-77188259D01*
X141872818Y-77368277D01*
X141872821Y-77368284D01*
X141967467Y-77532216D01*
X142057506Y-77632214D01*
X142094129Y-77672888D01*
X142247265Y-77784148D01*
X142247270Y-77784151D01*
X142420192Y-77861142D01*
X142420197Y-77861144D01*
X142605354Y-77900500D01*
X142605355Y-77900500D01*
X142794644Y-77900500D01*
X142794646Y-77900500D01*
X142979803Y-77861144D01*
X143152730Y-77784151D01*
X143305871Y-77672888D01*
X143432533Y-77532216D01*
X143527179Y-77368284D01*
X143585674Y-77188256D01*
X143594950Y-77100000D01*
X145394540Y-77100000D01*
X145414326Y-77288256D01*
X145414327Y-77288259D01*
X145472818Y-77468277D01*
X145472821Y-77468284D01*
X145567467Y-77632216D01*
X145646648Y-77720155D01*
X145694129Y-77772888D01*
X145847265Y-77884148D01*
X145847270Y-77884151D01*
X146020192Y-77961142D01*
X146020197Y-77961144D01*
X146205354Y-78000500D01*
X146205355Y-78000500D01*
X146394644Y-78000500D01*
X146394646Y-78000500D01*
X146579803Y-77961144D01*
X146752730Y-77884151D01*
X146905871Y-77772888D01*
X147032533Y-77632216D01*
X147127179Y-77468284D01*
X147185674Y-77288256D01*
X147205460Y-77100000D01*
X147185674Y-76911744D01*
X147127179Y-76731716D01*
X147032533Y-76567784D01*
X146905871Y-76427112D01*
X146863528Y-76396348D01*
X146752734Y-76315851D01*
X146752729Y-76315848D01*
X146579807Y-76238857D01*
X146579802Y-76238855D01*
X146434000Y-76207865D01*
X146394646Y-76199500D01*
X146205354Y-76199500D01*
X146172897Y-76206398D01*
X146020197Y-76238855D01*
X146020192Y-76238857D01*
X145847270Y-76315848D01*
X145847265Y-76315851D01*
X145694129Y-76427111D01*
X145567466Y-76567785D01*
X145472821Y-76731715D01*
X145472818Y-76731722D01*
X145418733Y-76898181D01*
X145414326Y-76911744D01*
X145394540Y-77100000D01*
X143594950Y-77100000D01*
X143605460Y-77000000D01*
X143585674Y-76811744D01*
X143527179Y-76631716D01*
X143432533Y-76467784D01*
X143305871Y-76327112D01*
X143305870Y-76327111D01*
X143152734Y-76215851D01*
X143152729Y-76215848D01*
X142979807Y-76138857D01*
X142979802Y-76138855D01*
X142822436Y-76105407D01*
X142794646Y-76099500D01*
X142605354Y-76099500D01*
X142577564Y-76105407D01*
X142420197Y-76138855D01*
X142420192Y-76138857D01*
X142247270Y-76215848D01*
X142247265Y-76215851D01*
X142094129Y-76327111D01*
X141967466Y-76467785D01*
X141872821Y-76631715D01*
X141872818Y-76631722D01*
X141817779Y-76801117D01*
X141814326Y-76811744D01*
X141794540Y-77000000D01*
X135605500Y-77000000D01*
X135605500Y-73700000D01*
X138394540Y-73700000D01*
X138414326Y-73888256D01*
X138414327Y-73888259D01*
X138472818Y-74068277D01*
X138472821Y-74068284D01*
X138567467Y-74232216D01*
X138694128Y-74372887D01*
X138694129Y-74372888D01*
X138847265Y-74484148D01*
X138847270Y-74484151D01*
X139020192Y-74561142D01*
X139020197Y-74561144D01*
X139205354Y-74600500D01*
X139205355Y-74600500D01*
X139394644Y-74600500D01*
X139394646Y-74600500D01*
X139579803Y-74561144D01*
X139752730Y-74484151D01*
X139905871Y-74372888D01*
X140032533Y-74232216D01*
X140127179Y-74068284D01*
X140185674Y-73888256D01*
X140205460Y-73700000D01*
X140185674Y-73511744D01*
X140127179Y-73331716D01*
X140032533Y-73167784D01*
X139905871Y-73027112D01*
X139904418Y-73026056D01*
X139752734Y-72915851D01*
X139752729Y-72915848D01*
X139579807Y-72838857D01*
X139579802Y-72838855D01*
X139434001Y-72807865D01*
X139394646Y-72799500D01*
X139205354Y-72799500D01*
X139172897Y-72806398D01*
X139020197Y-72838855D01*
X139020192Y-72838857D01*
X138847270Y-72915848D01*
X138847265Y-72915851D01*
X138694129Y-73027111D01*
X138567466Y-73167785D01*
X138472821Y-73331715D01*
X138472818Y-73331722D01*
X138414327Y-73511740D01*
X138414326Y-73511744D01*
X138394540Y-73700000D01*
X135605500Y-73700000D01*
X135605500Y-72605590D01*
X135625185Y-72538551D01*
X135677989Y-72492796D01*
X135747147Y-72482852D01*
X135802382Y-72505270D01*
X135946926Y-72610287D01*
X135946930Y-72610290D01*
X136119852Y-72687281D01*
X136119857Y-72687283D01*
X136305014Y-72726639D01*
X136305015Y-72726639D01*
X136494304Y-72726639D01*
X136494306Y-72726639D01*
X136679463Y-72687283D01*
X136852390Y-72610290D01*
X137005531Y-72499027D01*
X137132193Y-72358355D01*
X137165884Y-72300000D01*
X140394540Y-72300000D01*
X140414326Y-72488256D01*
X140414327Y-72488259D01*
X140472818Y-72668277D01*
X140472821Y-72668284D01*
X140567467Y-72832216D01*
X140680527Y-72957781D01*
X140694129Y-72972888D01*
X140847265Y-73084148D01*
X140847270Y-73084151D01*
X141020192Y-73161142D01*
X141020197Y-73161144D01*
X141205354Y-73200500D01*
X141205355Y-73200500D01*
X141394644Y-73200500D01*
X141394646Y-73200500D01*
X141579803Y-73161144D01*
X141752730Y-73084151D01*
X141905871Y-72972888D01*
X142032533Y-72832216D01*
X142127179Y-72668284D01*
X142185674Y-72488256D01*
X142205460Y-72300000D01*
X142194950Y-72200000D01*
X146094540Y-72200000D01*
X146114326Y-72388256D01*
X146114327Y-72388259D01*
X146172818Y-72568277D01*
X146172821Y-72568284D01*
X146267467Y-72732216D01*
X146363487Y-72838857D01*
X146394129Y-72872888D01*
X146547265Y-72984148D01*
X146547270Y-72984151D01*
X146720192Y-73061142D01*
X146720197Y-73061144D01*
X146905354Y-73100500D01*
X146905355Y-73100500D01*
X147094644Y-73100500D01*
X147094646Y-73100500D01*
X147279803Y-73061144D01*
X147452730Y-72984151D01*
X147605871Y-72872888D01*
X147732533Y-72732216D01*
X147827179Y-72568284D01*
X147885674Y-72388256D01*
X147905460Y-72200000D01*
X147885674Y-72011744D01*
X147827179Y-71831716D01*
X147732533Y-71667784D01*
X147605871Y-71527112D01*
X147590369Y-71515849D01*
X147452734Y-71415851D01*
X147452729Y-71415848D01*
X147279807Y-71338857D01*
X147279802Y-71338855D01*
X147134000Y-71307865D01*
X147094646Y-71299500D01*
X146905354Y-71299500D01*
X146872897Y-71306398D01*
X146720197Y-71338855D01*
X146720192Y-71338857D01*
X146547270Y-71415848D01*
X146547265Y-71415851D01*
X146394129Y-71527111D01*
X146267466Y-71667785D01*
X146172821Y-71831715D01*
X146172818Y-71831722D01*
X146114327Y-72011740D01*
X146114326Y-72011744D01*
X146094540Y-72200000D01*
X142194950Y-72200000D01*
X142185674Y-72111744D01*
X142127179Y-71931716D01*
X142032533Y-71767784D01*
X141905871Y-71627112D01*
X141899675Y-71622610D01*
X141752734Y-71515851D01*
X141752729Y-71515848D01*
X141579807Y-71438857D01*
X141579802Y-71438855D01*
X141434000Y-71407865D01*
X141394646Y-71399500D01*
X141205354Y-71399500D01*
X141172897Y-71406398D01*
X141020197Y-71438855D01*
X141020192Y-71438857D01*
X140847270Y-71515848D01*
X140847265Y-71515851D01*
X140694129Y-71627111D01*
X140567466Y-71767785D01*
X140472821Y-71931715D01*
X140472818Y-71931722D01*
X140414327Y-72111740D01*
X140414326Y-72111744D01*
X140394540Y-72300000D01*
X137165884Y-72300000D01*
X137226839Y-72194423D01*
X137285334Y-72014395D01*
X137305120Y-71826139D01*
X137285334Y-71637883D01*
X137226839Y-71457855D01*
X137132193Y-71293923D01*
X137005531Y-71153251D01*
X137005530Y-71153250D01*
X136852394Y-71041990D01*
X136852389Y-71041987D01*
X136679467Y-70964996D01*
X136679462Y-70964994D01*
X136518949Y-70930877D01*
X136494306Y-70925639D01*
X136305014Y-70925639D01*
X136280371Y-70930877D01*
X136119857Y-70964994D01*
X136119852Y-70964996D01*
X135946930Y-71041987D01*
X135946925Y-71041990D01*
X135802385Y-71147005D01*
X135736579Y-71170485D01*
X135668525Y-71154659D01*
X135619830Y-71104553D01*
X135605500Y-71046687D01*
X135605500Y-71024510D01*
X135605500Y-71024500D01*
X135593947Y-70917044D01*
X135582741Y-70865533D01*
X135564278Y-70810061D01*
X135561784Y-70740236D01*
X135597436Y-70680147D01*
X135601851Y-70676511D01*
X135605869Y-70672891D01*
X135605875Y-70672888D01*
X135732537Y-70532216D01*
X135827183Y-70368284D01*
X135885678Y-70188256D01*
X135905464Y-70000000D01*
X135885678Y-69811744D01*
X135827183Y-69631716D01*
X135732537Y-69467784D01*
X135682926Y-69412686D01*
X135605880Y-69327116D01*
X135601051Y-69322769D01*
X135602460Y-69321203D01*
X135565810Y-69273654D01*
X135559846Y-69204039D01*
X135565193Y-69185347D01*
X135565336Y-69184963D01*
X135565338Y-69184959D01*
X135585023Y-69117920D01*
X135585024Y-69117916D01*
X135605500Y-68975500D01*
X135605500Y-68600000D01*
X143494540Y-68600000D01*
X143514326Y-68788256D01*
X143514327Y-68788259D01*
X143572818Y-68968277D01*
X143572821Y-68968284D01*
X143667467Y-69132216D01*
X143787331Y-69265338D01*
X143794129Y-69272888D01*
X143947265Y-69384148D01*
X143947270Y-69384151D01*
X144120192Y-69461142D01*
X144120197Y-69461144D01*
X144305354Y-69500500D01*
X144305355Y-69500500D01*
X144494644Y-69500500D01*
X144494646Y-69500500D01*
X144679803Y-69461144D01*
X144852730Y-69384151D01*
X145005871Y-69272888D01*
X145132533Y-69132216D01*
X145227179Y-68968284D01*
X145285674Y-68788256D01*
X145305460Y-68600000D01*
X145285674Y-68411744D01*
X145227179Y-68231716D01*
X145132533Y-68067784D01*
X145005871Y-67927112D01*
X145005870Y-67927111D01*
X144852734Y-67815851D01*
X144852729Y-67815848D01*
X144679807Y-67738857D01*
X144679802Y-67738855D01*
X144534001Y-67707865D01*
X144494646Y-67699500D01*
X144305354Y-67699500D01*
X144272897Y-67706398D01*
X144120197Y-67738855D01*
X144120192Y-67738857D01*
X143947270Y-67815848D01*
X143947265Y-67815851D01*
X143794129Y-67927111D01*
X143667466Y-68067785D01*
X143572821Y-68231715D01*
X143572818Y-68231722D01*
X143523079Y-68384805D01*
X143514326Y-68411744D01*
X143494540Y-68600000D01*
X135605500Y-68600000D01*
X135605500Y-68424000D01*
X135593947Y-68316544D01*
X135582741Y-68265033D01*
X135571652Y-68231715D01*
X135548616Y-68162502D01*
X135548613Y-68162496D01*
X135487745Y-68067785D01*
X135470825Y-68041457D01*
X135442305Y-68008543D01*
X135425076Y-67988659D01*
X135425072Y-67988656D01*
X135425070Y-67988653D01*
X135316336Y-67894433D01*
X135316333Y-67894431D01*
X135316331Y-67894430D01*
X135185465Y-67834664D01*
X135185460Y-67834662D01*
X135185459Y-67834662D01*
X135162858Y-67828025D01*
X135118425Y-67814978D01*
X135118419Y-67814976D01*
X135032966Y-67802690D01*
X134976000Y-67794500D01*
X131743490Y-67794500D01*
X131638386Y-67805547D01*
X131638381Y-67805547D01*
X131638381Y-67805548D01*
X131587951Y-67816267D01*
X131487449Y-67848922D01*
X131487439Y-67848926D01*
X131434636Y-67872435D01*
X131409986Y-67880445D01*
X131377732Y-67887301D01*
X131354262Y-67892290D01*
X131328482Y-67895000D01*
X131271518Y-67895000D01*
X131245736Y-67892290D01*
X131231568Y-67889278D01*
X131190014Y-67880445D01*
X131165363Y-67872435D01*
X131112560Y-67848926D01*
X131112550Y-67848922D01*
X131012047Y-67816267D01*
X131012049Y-67816267D01*
X130963994Y-67806053D01*
X130961614Y-67805547D01*
X130856510Y-67794500D01*
X127829460Y-67794500D01*
X127829451Y-67794500D01*
X127829450Y-67794501D01*
X127722009Y-67806052D01*
X127721997Y-67806054D01*
X127670492Y-67817259D01*
X127588677Y-67844489D01*
X127518852Y-67846982D01*
X127458763Y-67811329D01*
X127457369Y-67809806D01*
X127405870Y-67752611D01*
X127252734Y-67641351D01*
X127252729Y-67641348D01*
X127079807Y-67564357D01*
X127079802Y-67564355D01*
X126934001Y-67533365D01*
X126894646Y-67525000D01*
X126705354Y-67525000D01*
X126672897Y-67531898D01*
X126520197Y-67564355D01*
X126520192Y-67564357D01*
X126347270Y-67641348D01*
X126347265Y-67641351D01*
X126194135Y-67752606D01*
X126194127Y-67752613D01*
X126140269Y-67812427D01*
X126080782Y-67849074D01*
X126010925Y-67847743D01*
X125996610Y-67842247D01*
X125980008Y-67834665D01*
X125980001Y-67834663D01*
X125979999Y-67834662D01*
X125950989Y-67826143D01*
X125912965Y-67814978D01*
X125912959Y-67814976D01*
X125827506Y-67802690D01*
X125770540Y-67794500D01*
X116629500Y-67794500D01*
X116629491Y-67794500D01*
X116629490Y-67794501D01*
X116522049Y-67806052D01*
X116522037Y-67806054D01*
X116470527Y-67817260D01*
X116368002Y-67851383D01*
X116367996Y-67851386D01*
X116246962Y-67929171D01*
X116246951Y-67929179D01*
X116194159Y-67974923D01*
X116099933Y-68083664D01*
X116099930Y-68083668D01*
X116040162Y-68214539D01*
X116030247Y-68248304D01*
X116000000Y-68299281D01*
X116000000Y-63054019D01*
X116016004Y-63072489D01*
G37*
%TD.AperFunction*%
%TD*%
%TA.AperFunction,Conductor*%
%TO.N,Net-(J1-Pin_3)*%
G36*
X94167640Y-69325185D02*
G01*
X94213395Y-69377989D01*
X94223339Y-69447147D01*
X94194314Y-69510703D01*
X94182830Y-69522314D01*
X94171817Y-69532070D01*
X94151366Y-69561698D01*
X94135704Y-69574389D01*
X94128788Y-69587567D01*
X94111809Y-69612166D01*
X94106458Y-69618205D01*
X94095630Y-69642444D01*
X94075184Y-69672065D01*
X94075182Y-69672069D01*
X94062416Y-69705729D01*
X94050245Y-69721801D01*
X94046683Y-69736254D01*
X94036084Y-69764202D01*
X94032338Y-69771339D01*
X94027624Y-69797470D01*
X94014860Y-69831126D01*
X94010521Y-69866858D01*
X94002552Y-69885372D01*
X94002552Y-69900263D01*
X93998949Y-69929936D01*
X93997015Y-69937781D01*
X93998692Y-69964268D01*
X93994355Y-69999995D01*
X93994355Y-70000003D01*
X93998692Y-70035730D01*
X93995386Y-70055607D01*
X93998949Y-70070062D01*
X94002552Y-70099735D01*
X94002552Y-70107815D01*
X94010521Y-70133142D01*
X94014859Y-70168870D01*
X94014861Y-70168878D01*
X94027623Y-70202528D01*
X94029171Y-70222624D01*
X94036082Y-70235792D01*
X94046682Y-70263742D01*
X94048613Y-70271579D01*
X94062417Y-70294271D01*
X94064400Y-70299500D01*
X94075182Y-70327931D01*
X94075184Y-70327934D01*
X94095628Y-70357553D01*
X94101938Y-70376689D01*
X94111808Y-70387830D01*
X94128789Y-70412431D01*
X94132543Y-70419584D01*
X94151367Y-70438304D01*
X94171813Y-70467925D01*
X94171814Y-70467926D01*
X94198757Y-70491796D01*
X94209466Y-70508869D01*
X94221713Y-70517323D01*
X94244088Y-70537147D01*
X94249438Y-70543186D01*
X94272204Y-70556864D01*
X94299145Y-70580732D01*
X94299151Y-70580736D01*
X94331011Y-70597457D01*
X94345499Y-70611475D01*
X94359418Y-70616754D01*
X94385888Y-70630647D01*
X94392533Y-70635234D01*
X94417906Y-70643063D01*
X94449775Y-70659790D01*
X94484714Y-70668401D01*
X94502128Y-70678540D01*
X94516911Y-70680336D01*
X94545932Y-70687490D01*
X94553496Y-70690358D01*
X94580003Y-70691887D01*
X94614941Y-70700499D01*
X94614942Y-70700500D01*
X94650937Y-70700500D01*
X94670285Y-70706181D01*
X94685049Y-70704388D01*
X94714954Y-70704388D01*
X94722950Y-70705359D01*
X94749063Y-70700500D01*
X94785058Y-70700500D01*
X94785060Y-70700499D01*
X94819994Y-70691889D01*
X94840131Y-70692774D01*
X94854064Y-70687490D01*
X94883088Y-70680335D01*
X94891113Y-70679360D01*
X94915280Y-70668403D01*
X94950225Y-70659790D01*
X94982089Y-70643065D01*
X95001855Y-70639105D01*
X95014112Y-70630645D01*
X95040582Y-70616753D01*
X95048133Y-70613888D01*
X95068985Y-70597459D01*
X95100852Y-70580734D01*
X95127792Y-70556866D01*
X95146037Y-70548290D01*
X95155907Y-70537150D01*
X95178285Y-70517324D01*
X95184928Y-70512738D01*
X95201243Y-70491795D01*
X95228183Y-70467929D01*
X95248629Y-70438306D01*
X95264290Y-70425614D01*
X95271209Y-70412432D01*
X95288192Y-70387827D01*
X95293546Y-70381783D01*
X95304372Y-70357549D01*
X95324818Y-70327930D01*
X95337580Y-70294278D01*
X95349751Y-70278203D01*
X95353314Y-70263747D01*
X95363916Y-70235791D01*
X95367664Y-70228649D01*
X95372378Y-70202522D01*
X95385140Y-70168872D01*
X95392886Y-70105072D01*
X95394229Y-70097743D01*
X95397448Y-70084686D01*
X95397448Y-70084679D01*
X95398012Y-70082392D01*
X95398020Y-70082353D01*
X95402982Y-70062217D01*
X95401307Y-70035724D01*
X95405645Y-70000000D01*
X95401306Y-69964272D01*
X95404612Y-69944391D01*
X95398005Y-69917584D01*
X95397999Y-69917551D01*
X95397448Y-69915314D01*
X95394232Y-69902266D01*
X95392885Y-69894915D01*
X95385140Y-69831128D01*
X95372376Y-69797474D01*
X95370828Y-69777376D01*
X95363916Y-69764207D01*
X95353314Y-69736252D01*
X95351382Y-69728415D01*
X95337580Y-69705722D01*
X95324818Y-69672070D01*
X95304372Y-69642449D01*
X95298059Y-69623308D01*
X95288190Y-69612168D01*
X95271209Y-69587565D01*
X95267458Y-69580418D01*
X95248631Y-69561694D01*
X95228183Y-69532070D01*
X95217172Y-69522316D01*
X95180045Y-69463127D01*
X95180811Y-69393262D01*
X95219228Y-69334902D01*
X95283099Y-69306576D01*
X95299398Y-69305500D01*
X97158302Y-69305500D01*
X97225341Y-69325185D01*
X97271096Y-69377989D01*
X97281040Y-69447147D01*
X97270684Y-69481905D01*
X97226570Y-69576507D01*
X97226567Y-69576513D01*
X97169364Y-69789999D01*
X97169364Y-69790000D01*
X97886653Y-69790000D01*
X97953692Y-69809685D01*
X97999447Y-69862489D01*
X98009391Y-69931647D01*
X98005631Y-69948933D01*
X98000000Y-69968111D01*
X98000000Y-70111888D01*
X98005631Y-70131067D01*
X98005630Y-70200936D01*
X97967855Y-70259714D01*
X97904299Y-70288738D01*
X97886653Y-70290000D01*
X97169364Y-70290000D01*
X97226567Y-70503486D01*
X97226570Y-70503492D01*
X97326399Y-70717578D01*
X97461894Y-70911082D01*
X97628917Y-71078105D01*
X97814595Y-71208119D01*
X97858219Y-71262696D01*
X97865412Y-71332195D01*
X97833890Y-71394549D01*
X97814595Y-71411269D01*
X97628594Y-71541508D01*
X97461505Y-71708597D01*
X97325965Y-71902169D01*
X97325964Y-71902171D01*
X97226098Y-72116335D01*
X97226094Y-72116344D01*
X97164938Y-72344586D01*
X97164936Y-72344596D01*
X97144341Y-72579999D01*
X97144341Y-72580000D01*
X97164936Y-72815403D01*
X97164938Y-72815413D01*
X97226094Y-73043655D01*
X97226096Y-73043659D01*
X97226097Y-73043663D01*
X97288834Y-73178203D01*
X97325965Y-73257830D01*
X97325967Y-73257834D01*
X97412426Y-73381309D01*
X97461505Y-73451401D01*
X97628599Y-73618495D01*
X97715490Y-73679337D01*
X97822165Y-73754032D01*
X97822167Y-73754033D01*
X97822170Y-73754035D01*
X98036337Y-73853903D01*
X98264592Y-73915063D01*
X98452918Y-73931539D01*
X98499999Y-73935659D01*
X98500000Y-73935659D01*
X98500001Y-73935659D01*
X98539234Y-73932226D01*
X98735408Y-73915063D01*
X98963663Y-73853903D01*
X99044627Y-73816148D01*
X99113702Y-73805657D01*
X99177486Y-73834176D01*
X99214961Y-73890212D01*
X99272819Y-74068280D01*
X99272821Y-74068284D01*
X99291129Y-74099995D01*
X99296040Y-74108500D01*
X99312513Y-74176400D01*
X99289660Y-74242427D01*
X99234739Y-74285618D01*
X99188653Y-74294500D01*
X99067570Y-74294500D01*
X99064428Y-74294529D01*
X99062856Y-74294544D01*
X99062781Y-74294545D01*
X99057944Y-74294613D01*
X99057940Y-74294613D01*
X99057938Y-74294614D01*
X98933228Y-74314976D01*
X98915932Y-74317800D01*
X98849291Y-74338754D01*
X98849279Y-74338759D01*
X98719569Y-74401008D01*
X98719568Y-74401008D01*
X98612646Y-74497283D01*
X98567905Y-74550949D01*
X98512345Y-74641133D01*
X98460421Y-74687884D01*
X98401144Y-74698145D01*
X98401144Y-74699500D01*
X98198856Y-74699500D01*
X98198856Y-74697716D01*
X98138684Y-74686702D01*
X98090157Y-74643000D01*
X98024902Y-74541462D01*
X98024893Y-74541451D01*
X97979149Y-74488659D01*
X97979145Y-74488656D01*
X97979143Y-74488653D01*
X97870409Y-74394433D01*
X97870406Y-74394431D01*
X97870404Y-74394430D01*
X97739538Y-74334664D01*
X97739533Y-74334662D01*
X97739532Y-74334662D01*
X97716931Y-74328025D01*
X97672498Y-74314978D01*
X97672492Y-74314976D01*
X97587039Y-74302690D01*
X97530073Y-74294500D01*
X95724000Y-74294500D01*
X95723991Y-74294500D01*
X95723990Y-74294501D01*
X95616549Y-74306052D01*
X95616537Y-74306054D01*
X95565027Y-74317260D01*
X95462502Y-74351383D01*
X95462496Y-74351386D01*
X95341462Y-74429171D01*
X95341451Y-74429179D01*
X95288659Y-74474923D01*
X95194433Y-74583664D01*
X95194430Y-74583668D01*
X95134664Y-74714534D01*
X95114978Y-74781575D01*
X95114976Y-74781580D01*
X95094500Y-74924001D01*
X95094500Y-84391006D01*
X95074815Y-84458045D01*
X95043387Y-84491323D01*
X94994128Y-84527112D01*
X94994123Y-84527116D01*
X94867466Y-84667785D01*
X94772821Y-84831715D01*
X94772818Y-84831722D01*
X94714327Y-85011740D01*
X94714326Y-85011744D01*
X94694540Y-85200000D01*
X94714326Y-85388256D01*
X94714327Y-85388259D01*
X94772818Y-85568277D01*
X94772821Y-85568284D01*
X94867467Y-85732216D01*
X94969999Y-85846089D01*
X94994129Y-85872888D01*
X95147265Y-85984148D01*
X95147267Y-85984149D01*
X95147270Y-85984151D01*
X95164977Y-85992034D01*
X95217180Y-86035736D01*
X95238693Y-86067472D01*
X95238696Y-86067476D01*
X95285731Y-86119143D01*
X95396744Y-86210672D01*
X95529047Y-86267217D01*
X95585094Y-86282192D01*
X95591800Y-86284690D01*
X95677359Y-86294857D01*
X95739424Y-86302234D01*
X109585446Y-85962870D01*
X109674758Y-85952686D01*
X109717785Y-85943849D01*
X109803874Y-85918010D01*
X109928492Y-85846093D01*
X109981543Y-85804389D01*
X109982425Y-85803749D01*
X109983419Y-85802915D01*
X109983420Y-85802913D01*
X109983424Y-85802911D01*
X110019271Y-85765328D01*
X110079785Y-85730405D01*
X110149575Y-85733741D01*
X110159434Y-85737634D01*
X110226582Y-85767531D01*
X110411739Y-85806887D01*
X110411740Y-85806887D01*
X110601029Y-85806887D01*
X110601031Y-85806887D01*
X110786188Y-85767531D01*
X110895776Y-85718738D01*
X110965022Y-85709453D01*
X111025090Y-85736343D01*
X111132605Y-85824988D01*
X111264908Y-85881533D01*
X111320955Y-85896508D01*
X111327661Y-85899006D01*
X111413220Y-85909173D01*
X111475285Y-85916550D01*
X113730851Y-85861267D01*
X113756554Y-85859324D01*
X113756553Y-85859324D01*
X113775032Y-85856973D01*
X113794388Y-85854512D01*
X113794388Y-85854513D01*
X113804192Y-85852754D01*
X113845124Y-85845412D01*
X113979200Y-85793210D01*
X114040039Y-85758852D01*
X114153975Y-85670995D01*
X114231404Y-85564421D01*
X114286730Y-85521758D01*
X114356343Y-85515777D01*
X114418139Y-85548382D01*
X114434357Y-85567728D01*
X114453871Y-85596515D01*
X114500906Y-85648182D01*
X114611919Y-85739711D01*
X114744222Y-85796256D01*
X114800269Y-85811231D01*
X114806975Y-85813729D01*
X114892534Y-85823896D01*
X114954599Y-85831273D01*
X115891424Y-85808312D01*
X115992540Y-85795557D01*
X116041013Y-85784388D01*
X116137504Y-85751614D01*
X116156028Y-85739709D01*
X116258537Y-85673830D01*
X116258537Y-85673829D01*
X116258543Y-85673826D01*
X116311347Y-85628071D01*
X116405567Y-85519337D01*
X116465338Y-85388460D01*
X116485023Y-85321421D01*
X116485024Y-85321417D01*
X116488608Y-85296487D01*
X116517632Y-85232932D01*
X116576409Y-85195156D01*
X116611000Y-85190133D01*
X149600000Y-85100000D01*
X149600000Y-76029500D01*
X149619685Y-75962461D01*
X149672489Y-75916706D01*
X149724000Y-75905500D01*
X150194714Y-75905500D01*
X150261753Y-75925185D01*
X150307508Y-75977989D01*
X150317452Y-76047147D01*
X150314489Y-76061594D01*
X150269364Y-76229999D01*
X150269364Y-76230000D01*
X150986653Y-76230000D01*
X151053692Y-76249685D01*
X151099447Y-76302489D01*
X151109391Y-76371647D01*
X151105631Y-76388933D01*
X151100000Y-76408111D01*
X151100000Y-76551888D01*
X151105631Y-76571067D01*
X151105630Y-76640936D01*
X151067855Y-76699714D01*
X151004299Y-76728738D01*
X150986653Y-76730000D01*
X150269364Y-76730000D01*
X150326567Y-76943486D01*
X150326570Y-76943492D01*
X150426399Y-77157578D01*
X150561894Y-77351082D01*
X150728917Y-77518105D01*
X150914595Y-77648119D01*
X150958219Y-77702696D01*
X150965412Y-77772195D01*
X150933890Y-77834549D01*
X150914595Y-77851269D01*
X150728594Y-77981508D01*
X150561505Y-78148597D01*
X150425965Y-78342169D01*
X150425964Y-78342171D01*
X150326098Y-78556335D01*
X150326094Y-78556344D01*
X150264938Y-78784586D01*
X150264936Y-78784596D01*
X150244341Y-79019999D01*
X150244341Y-79020000D01*
X150264936Y-79255403D01*
X150264938Y-79255413D01*
X150326094Y-79483655D01*
X150326096Y-79483659D01*
X150326097Y-79483663D01*
X150398465Y-79638856D01*
X150425965Y-79697830D01*
X150425967Y-79697834D01*
X150522566Y-79835791D01*
X150561505Y-79891401D01*
X150728599Y-80058495D01*
X150825384Y-80126264D01*
X150922165Y-80194032D01*
X150922167Y-80194033D01*
X150922170Y-80194035D01*
X151136337Y-80293903D01*
X151136343Y-80293904D01*
X151136344Y-80293905D01*
X151175468Y-80304388D01*
X151364592Y-80355063D01*
X151552918Y-80371539D01*
X151599999Y-80375659D01*
X151600000Y-80375659D01*
X151600001Y-80375659D01*
X151639234Y-80372226D01*
X151835408Y-80355063D01*
X152063663Y-80293903D01*
X152277830Y-80194035D01*
X152471401Y-80058495D01*
X152638495Y-79891401D01*
X152774035Y-79697830D01*
X152873903Y-79483663D01*
X152935063Y-79255408D01*
X152948660Y-79100000D01*
X154494355Y-79100000D01*
X154498693Y-79135727D01*
X154495387Y-79155609D01*
X154498949Y-79170062D01*
X154502552Y-79199735D01*
X154502552Y-79207815D01*
X154510521Y-79233142D01*
X154514859Y-79268870D01*
X154514861Y-79268878D01*
X154527623Y-79302528D01*
X154529171Y-79322624D01*
X154536082Y-79335792D01*
X154546682Y-79363742D01*
X154548613Y-79371579D01*
X154562417Y-79394271D01*
X154563630Y-79397470D01*
X154575182Y-79427931D01*
X154575184Y-79427934D01*
X154595628Y-79457553D01*
X154601938Y-79476689D01*
X154611808Y-79487830D01*
X154628789Y-79512431D01*
X154632543Y-79519584D01*
X154651367Y-79538304D01*
X154671813Y-79567925D01*
X154671814Y-79567926D01*
X154698757Y-79591796D01*
X154709466Y-79608869D01*
X154721713Y-79617323D01*
X154744088Y-79637147D01*
X154749438Y-79643186D01*
X154772204Y-79656864D01*
X154799145Y-79680732D01*
X154799151Y-79680736D01*
X154831011Y-79697457D01*
X154845499Y-79711475D01*
X154859418Y-79716754D01*
X154885888Y-79730647D01*
X154892533Y-79735234D01*
X154917906Y-79743063D01*
X154949775Y-79759790D01*
X154984714Y-79768401D01*
X155002128Y-79778540D01*
X155016911Y-79780336D01*
X155045932Y-79787490D01*
X155053496Y-79790358D01*
X155080003Y-79791887D01*
X155114941Y-79800499D01*
X155114942Y-79800500D01*
X155150937Y-79800500D01*
X155170285Y-79806181D01*
X155185049Y-79804388D01*
X155214954Y-79804388D01*
X155222950Y-79805359D01*
X155249063Y-79800500D01*
X155285058Y-79800500D01*
X155285060Y-79800499D01*
X155319994Y-79791889D01*
X155340131Y-79792774D01*
X155354064Y-79787490D01*
X155383088Y-79780335D01*
X155391113Y-79779360D01*
X155415280Y-79768403D01*
X155450225Y-79759790D01*
X155482089Y-79743065D01*
X155501855Y-79739105D01*
X155514112Y-79730645D01*
X155540582Y-79716753D01*
X155548133Y-79713888D01*
X155568985Y-79697459D01*
X155600852Y-79680734D01*
X155627792Y-79656866D01*
X155646037Y-79648290D01*
X155655907Y-79637150D01*
X155678285Y-79617324D01*
X155684928Y-79612738D01*
X155701243Y-79591795D01*
X155728183Y-79567929D01*
X155748629Y-79538306D01*
X155764290Y-79525614D01*
X155771209Y-79512432D01*
X155788192Y-79487827D01*
X155793546Y-79481783D01*
X155804372Y-79457549D01*
X155824818Y-79427930D01*
X155837580Y-79394278D01*
X155849751Y-79378203D01*
X155853314Y-79363747D01*
X155863916Y-79335791D01*
X155867664Y-79328649D01*
X155872378Y-79302522D01*
X155885140Y-79268872D01*
X155892886Y-79205072D01*
X155894229Y-79197743D01*
X155897448Y-79184686D01*
X155897448Y-79184679D01*
X155898012Y-79182392D01*
X155898020Y-79182353D01*
X155902982Y-79162217D01*
X155901307Y-79135724D01*
X155905645Y-79100000D01*
X155901307Y-79064271D01*
X155904612Y-79044391D01*
X155898005Y-79017584D01*
X155897999Y-79017551D01*
X155897448Y-79015314D01*
X155894232Y-79002266D01*
X155892885Y-78994915D01*
X155885140Y-78931128D01*
X155872376Y-78897474D01*
X155870828Y-78877376D01*
X155863916Y-78864207D01*
X155853314Y-78836252D01*
X155851382Y-78828415D01*
X155837580Y-78805722D01*
X155824818Y-78772070D01*
X155804372Y-78742449D01*
X155798059Y-78723308D01*
X155788190Y-78712168D01*
X155771209Y-78687565D01*
X155767458Y-78680418D01*
X155748631Y-78661694D01*
X155728182Y-78632070D01*
X155701241Y-78608202D01*
X155690529Y-78591126D01*
X155678285Y-78582674D01*
X155655909Y-78562850D01*
X155650563Y-78556816D01*
X155627794Y-78543134D01*
X155600856Y-78519269D01*
X155600851Y-78519265D01*
X155568981Y-78502538D01*
X155554496Y-78488522D01*
X155540579Y-78483244D01*
X155514109Y-78469351D01*
X155507471Y-78464769D01*
X155482095Y-78456937D01*
X155450225Y-78440210D01*
X155450224Y-78440209D01*
X155450223Y-78440209D01*
X155415277Y-78431596D01*
X155397850Y-78421449D01*
X155383074Y-78419655D01*
X155354050Y-78412502D01*
X155346511Y-78409643D01*
X155320002Y-78408112D01*
X155285061Y-78399500D01*
X155285056Y-78399500D01*
X155249072Y-78399500D01*
X155229734Y-78393821D01*
X155214945Y-78395617D01*
X155185060Y-78395617D01*
X155177028Y-78394642D01*
X155150929Y-78399500D01*
X155114944Y-78399500D01*
X155079995Y-78408113D01*
X155059858Y-78407226D01*
X155045952Y-78412501D01*
X155016924Y-78419655D01*
X155008918Y-78420626D01*
X154984722Y-78431595D01*
X154949781Y-78440207D01*
X154949774Y-78440210D01*
X154917901Y-78456938D01*
X154898133Y-78460897D01*
X154885884Y-78469353D01*
X154859420Y-78483243D01*
X154851874Y-78486104D01*
X154831019Y-78502537D01*
X154799152Y-78519263D01*
X154799148Y-78519266D01*
X154772200Y-78543139D01*
X154753954Y-78551714D01*
X154744087Y-78562852D01*
X154721713Y-78582674D01*
X154715078Y-78587253D01*
X154698761Y-78608199D01*
X154671817Y-78632070D01*
X154651366Y-78661698D01*
X154635704Y-78674389D01*
X154628788Y-78687567D01*
X154611809Y-78712166D01*
X154606458Y-78718205D01*
X154595630Y-78742444D01*
X154575184Y-78772065D01*
X154575182Y-78772069D01*
X154562416Y-78805729D01*
X154550245Y-78821801D01*
X154546683Y-78836254D01*
X154536084Y-78864202D01*
X154532338Y-78871339D01*
X154527624Y-78897470D01*
X154514860Y-78931126D01*
X154510521Y-78966858D01*
X154502552Y-78985372D01*
X154502552Y-79000263D01*
X154498949Y-79029936D01*
X154497016Y-79037778D01*
X154498693Y-79064271D01*
X154494355Y-79099999D01*
X154494355Y-79100000D01*
X152948660Y-79100000D01*
X152955659Y-79020000D01*
X152935063Y-78784592D01*
X152873903Y-78556337D01*
X152774035Y-78342171D01*
X152757310Y-78318284D01*
X152638494Y-78148597D01*
X152471402Y-77981506D01*
X152471401Y-77981505D01*
X152285405Y-77851269D01*
X152241781Y-77796692D01*
X152234588Y-77727193D01*
X152266110Y-77664839D01*
X152285405Y-77648119D01*
X152471082Y-77518105D01*
X152638105Y-77351082D01*
X152773600Y-77157578D01*
X152873429Y-76943492D01*
X152873432Y-76943486D01*
X152930636Y-76730000D01*
X152213347Y-76730000D01*
X152146308Y-76710315D01*
X152100553Y-76657511D01*
X152090609Y-76588353D01*
X152094369Y-76571067D01*
X152100000Y-76551888D01*
X152100000Y-76408111D01*
X152094369Y-76388933D01*
X152094370Y-76319064D01*
X152132145Y-76260286D01*
X152195701Y-76231262D01*
X152213347Y-76230000D01*
X152930636Y-76230000D01*
X152930635Y-76229999D01*
X152885511Y-76061594D01*
X152887174Y-75991744D01*
X152926336Y-75933881D01*
X152990564Y-75906377D01*
X153005286Y-75905500D01*
X154390147Y-75905500D01*
X154457186Y-75925185D01*
X154502941Y-75977989D01*
X154513242Y-76044452D01*
X154510520Y-76066861D01*
X154502552Y-76085371D01*
X154502552Y-76100259D01*
X154498949Y-76129932D01*
X154497016Y-76137772D01*
X154498693Y-76164271D01*
X154494355Y-76199999D01*
X154494355Y-76200000D01*
X154498693Y-76235727D01*
X154495387Y-76255609D01*
X154498949Y-76270062D01*
X154502552Y-76299735D01*
X154502552Y-76307815D01*
X154510521Y-76333142D01*
X154514859Y-76368870D01*
X154514861Y-76368878D01*
X154527623Y-76402528D01*
X154529171Y-76422624D01*
X154536082Y-76435792D01*
X154546682Y-76463742D01*
X154548613Y-76471579D01*
X154562417Y-76494271D01*
X154564590Y-76500000D01*
X154575182Y-76527931D01*
X154575184Y-76527934D01*
X154595628Y-76557553D01*
X154601938Y-76576689D01*
X154611808Y-76587830D01*
X154628789Y-76612431D01*
X154632543Y-76619584D01*
X154651367Y-76638304D01*
X154671813Y-76667925D01*
X154671814Y-76667926D01*
X154698757Y-76691796D01*
X154709466Y-76708869D01*
X154721713Y-76717323D01*
X154744088Y-76737147D01*
X154749438Y-76743186D01*
X154772204Y-76756864D01*
X154799145Y-76780732D01*
X154799151Y-76780736D01*
X154831011Y-76797457D01*
X154845499Y-76811475D01*
X154859418Y-76816754D01*
X154885888Y-76830647D01*
X154892533Y-76835234D01*
X154917906Y-76843063D01*
X154949775Y-76859790D01*
X154984714Y-76868401D01*
X155002128Y-76878540D01*
X155016911Y-76880336D01*
X155045932Y-76887490D01*
X155053496Y-76890358D01*
X155080003Y-76891887D01*
X155114941Y-76900499D01*
X155114942Y-76900500D01*
X155150937Y-76900500D01*
X155170285Y-76906181D01*
X155185049Y-76904388D01*
X155214954Y-76904388D01*
X155222950Y-76905359D01*
X155249063Y-76900500D01*
X155285058Y-76900500D01*
X155285060Y-76900499D01*
X155319994Y-76891889D01*
X155340131Y-76892774D01*
X155354064Y-76887490D01*
X155383088Y-76880335D01*
X155391113Y-76879360D01*
X155415280Y-76868403D01*
X155450225Y-76859790D01*
X155482089Y-76843065D01*
X155501855Y-76839105D01*
X155514112Y-76830645D01*
X155540582Y-76816753D01*
X155548133Y-76813888D01*
X155568985Y-76797459D01*
X155600852Y-76780734D01*
X155627792Y-76756866D01*
X155646037Y-76748290D01*
X155655907Y-76737150D01*
X155678285Y-76717324D01*
X155684928Y-76712738D01*
X155701243Y-76691795D01*
X155728183Y-76667929D01*
X155748629Y-76638306D01*
X155764290Y-76625614D01*
X155771209Y-76612432D01*
X155788192Y-76587827D01*
X155793546Y-76581783D01*
X155804372Y-76557549D01*
X155824818Y-76527930D01*
X155837580Y-76494278D01*
X155849751Y-76478203D01*
X155853314Y-76463747D01*
X155863916Y-76435791D01*
X155867664Y-76428649D01*
X155872378Y-76402522D01*
X155885140Y-76368872D01*
X155892886Y-76305072D01*
X155894229Y-76297743D01*
X155897448Y-76284686D01*
X155897448Y-76284679D01*
X155898012Y-76282392D01*
X155898020Y-76282353D01*
X155902982Y-76262217D01*
X155901307Y-76235724D01*
X155905645Y-76200000D01*
X155901307Y-76164271D01*
X155904612Y-76144391D01*
X155899019Y-76121699D01*
X155899014Y-76121668D01*
X155897448Y-76115314D01*
X155894232Y-76102266D01*
X155892884Y-76094912D01*
X155886756Y-76044444D01*
X155898218Y-75975521D01*
X155945123Y-75923736D01*
X156009853Y-75905500D01*
X157198148Y-75905500D01*
X157265187Y-75925185D01*
X157310942Y-75977989D01*
X157322148Y-76029529D01*
X157319722Y-86403835D01*
X157317820Y-86425444D01*
X157312188Y-86457223D01*
X157288637Y-86581740D01*
X157283850Y-86599618D01*
X157261522Y-86663485D01*
X157224814Y-86757879D01*
X157221517Y-86764992D01*
X157184901Y-86832450D01*
X157183110Y-86835534D01*
X157133100Y-86916228D01*
X157129443Y-86921499D01*
X157081498Y-86983497D01*
X157078288Y-86987320D01*
X157015076Y-87056721D01*
X157011572Y-87060271D01*
X156954430Y-87113674D01*
X156949520Y-87117808D01*
X156873476Y-87175388D01*
X156870576Y-87177456D01*
X156807278Y-87219895D01*
X156800500Y-87223843D01*
X156708863Y-87269720D01*
X156667382Y-87288728D01*
X156615725Y-87300000D01*
X93071119Y-87300000D01*
X93030195Y-87293052D01*
X93011515Y-87286521D01*
X92917114Y-87249811D01*
X92910000Y-87246514D01*
X92842548Y-87209901D01*
X92839464Y-87208110D01*
X92758770Y-87158100D01*
X92753499Y-87154443D01*
X92691501Y-87106498D01*
X92687678Y-87103288D01*
X92618277Y-87040076D01*
X92614727Y-87036572D01*
X92603622Y-87024690D01*
X92561324Y-86979430D01*
X92557190Y-86974520D01*
X92499610Y-86898476D01*
X92497542Y-86895575D01*
X92455103Y-86832277D01*
X92451155Y-86825499D01*
X92417303Y-86757879D01*
X92405279Y-86733862D01*
X92391384Y-86703538D01*
X92377622Y-86673504D01*
X92371187Y-86656142D01*
X92369084Y-86648837D01*
X92334851Y-86529871D01*
X92329085Y-86508935D01*
X92324637Y-86475890D01*
X92325139Y-86006434D01*
X92329103Y-82300003D01*
X93394355Y-82300003D01*
X93398692Y-82335730D01*
X93395386Y-82355607D01*
X93398949Y-82370062D01*
X93402552Y-82399735D01*
X93402552Y-82407815D01*
X93410521Y-82433142D01*
X93414859Y-82468870D01*
X93414861Y-82468878D01*
X93427623Y-82502528D01*
X93429171Y-82522624D01*
X93436082Y-82535792D01*
X93446682Y-82563742D01*
X93448613Y-82571579D01*
X93462417Y-82594271D01*
X93467601Y-82607940D01*
X93475182Y-82627931D01*
X93475184Y-82627934D01*
X93495628Y-82657553D01*
X93501938Y-82676689D01*
X93511808Y-82687830D01*
X93528789Y-82712431D01*
X93532543Y-82719584D01*
X93551367Y-82738304D01*
X93571813Y-82767925D01*
X93571814Y-82767926D01*
X93598757Y-82791796D01*
X93609466Y-82808869D01*
X93621713Y-82817323D01*
X93644088Y-82837147D01*
X93649438Y-82843186D01*
X93672204Y-82856864D01*
X93699145Y-82880732D01*
X93699151Y-82880736D01*
X93731011Y-82897457D01*
X93745499Y-82911475D01*
X93759418Y-82916754D01*
X93785888Y-82930647D01*
X93792533Y-82935234D01*
X93817906Y-82943063D01*
X93849775Y-82959790D01*
X93884714Y-82968401D01*
X93902128Y-82978540D01*
X93916911Y-82980336D01*
X93945932Y-82987490D01*
X93953496Y-82990358D01*
X93980003Y-82991887D01*
X94014941Y-83000499D01*
X94014942Y-83000500D01*
X94050937Y-83000500D01*
X94070285Y-83006181D01*
X94085049Y-83004388D01*
X94114954Y-83004388D01*
X94122950Y-83005359D01*
X94149063Y-83000500D01*
X94185058Y-83000500D01*
X94185060Y-83000499D01*
X94219994Y-82991889D01*
X94240131Y-82992774D01*
X94254064Y-82987490D01*
X94283088Y-82980335D01*
X94291113Y-82979360D01*
X94315280Y-82968403D01*
X94350225Y-82959790D01*
X94382089Y-82943065D01*
X94401855Y-82939105D01*
X94414112Y-82930645D01*
X94440582Y-82916753D01*
X94448133Y-82913888D01*
X94468985Y-82897459D01*
X94500852Y-82880734D01*
X94527792Y-82856866D01*
X94546037Y-82848290D01*
X94555907Y-82837150D01*
X94578285Y-82817324D01*
X94584928Y-82812738D01*
X94601243Y-82791795D01*
X94628183Y-82767929D01*
X94648629Y-82738306D01*
X94664290Y-82725614D01*
X94671209Y-82712432D01*
X94688192Y-82687827D01*
X94693546Y-82681783D01*
X94704372Y-82657549D01*
X94724818Y-82627930D01*
X94737580Y-82594278D01*
X94749751Y-82578203D01*
X94753314Y-82563747D01*
X94763916Y-82535791D01*
X94767664Y-82528649D01*
X94772378Y-82502522D01*
X94785140Y-82468872D01*
X94792886Y-82405072D01*
X94794229Y-82397743D01*
X94797448Y-82384686D01*
X94797448Y-82384679D01*
X94798012Y-82382392D01*
X94798020Y-82382353D01*
X94802982Y-82362217D01*
X94801307Y-82335724D01*
X94805645Y-82300000D01*
X94801306Y-82264272D01*
X94804612Y-82244391D01*
X94798005Y-82217584D01*
X94797999Y-82217551D01*
X94797448Y-82215314D01*
X94794232Y-82202266D01*
X94792885Y-82194915D01*
X94785140Y-82131128D01*
X94772376Y-82097474D01*
X94770828Y-82077376D01*
X94763916Y-82064207D01*
X94753314Y-82036252D01*
X94751382Y-82028415D01*
X94737580Y-82005722D01*
X94724818Y-81972070D01*
X94717276Y-81961144D01*
X94704372Y-81942449D01*
X94698059Y-81923308D01*
X94688190Y-81912168D01*
X94671209Y-81887565D01*
X94667458Y-81880418D01*
X94648631Y-81861694D01*
X94628182Y-81832070D01*
X94601241Y-81808202D01*
X94590529Y-81791126D01*
X94578285Y-81782674D01*
X94555909Y-81762850D01*
X94550563Y-81756816D01*
X94527794Y-81743134D01*
X94500856Y-81719269D01*
X94500851Y-81719265D01*
X94468981Y-81702538D01*
X94454496Y-81688522D01*
X94440579Y-81683244D01*
X94414109Y-81669351D01*
X94407471Y-81664769D01*
X94382095Y-81656937D01*
X94350225Y-81640210D01*
X94350224Y-81640209D01*
X94350223Y-81640209D01*
X94315277Y-81631596D01*
X94297850Y-81621449D01*
X94283074Y-81619655D01*
X94254050Y-81612502D01*
X94246511Y-81609643D01*
X94220002Y-81608112D01*
X94185061Y-81599500D01*
X94185056Y-81599500D01*
X94149072Y-81599500D01*
X94129734Y-81593821D01*
X94114945Y-81595617D01*
X94085060Y-81595617D01*
X94077028Y-81594642D01*
X94050929Y-81599500D01*
X94014944Y-81599500D01*
X93979995Y-81608113D01*
X93959858Y-81607226D01*
X93945952Y-81612501D01*
X93916924Y-81619655D01*
X93908918Y-81620626D01*
X93884722Y-81631595D01*
X93849781Y-81640207D01*
X93849774Y-81640210D01*
X93817901Y-81656938D01*
X93798133Y-81660897D01*
X93785884Y-81669353D01*
X93759420Y-81683243D01*
X93751874Y-81686104D01*
X93731019Y-81702537D01*
X93699152Y-81719263D01*
X93699148Y-81719266D01*
X93672200Y-81743139D01*
X93653954Y-81751714D01*
X93644087Y-81762852D01*
X93621713Y-81782674D01*
X93615078Y-81787253D01*
X93598761Y-81808199D01*
X93571817Y-81832070D01*
X93551366Y-81861698D01*
X93535704Y-81874389D01*
X93528788Y-81887567D01*
X93511809Y-81912166D01*
X93506458Y-81918205D01*
X93495630Y-81942444D01*
X93475184Y-81972065D01*
X93475182Y-81972069D01*
X93462416Y-82005729D01*
X93450245Y-82021801D01*
X93446683Y-82036254D01*
X93436084Y-82064202D01*
X93432338Y-82071339D01*
X93427624Y-82097470D01*
X93414860Y-82131126D01*
X93410521Y-82166858D01*
X93402552Y-82185372D01*
X93402552Y-82200263D01*
X93398949Y-82229936D01*
X93397015Y-82237781D01*
X93398692Y-82264268D01*
X93394355Y-82299995D01*
X93394355Y-82300003D01*
X92329103Y-82300003D01*
X92329616Y-81820809D01*
X92329870Y-81774118D01*
X92341622Y-79600003D01*
X93394355Y-79600003D01*
X93398692Y-79635730D01*
X93395386Y-79655607D01*
X93398949Y-79670062D01*
X93402552Y-79699735D01*
X93402552Y-79707815D01*
X93410521Y-79733142D01*
X93414859Y-79768870D01*
X93414861Y-79768878D01*
X93427623Y-79802528D01*
X93429171Y-79822624D01*
X93436082Y-79835792D01*
X93446682Y-79863742D01*
X93448613Y-79871579D01*
X93462417Y-79894271D01*
X93467601Y-79907940D01*
X93475182Y-79927931D01*
X93475184Y-79927934D01*
X93495628Y-79957553D01*
X93501938Y-79976689D01*
X93511808Y-79987830D01*
X93528789Y-80012431D01*
X93532543Y-80019584D01*
X93551367Y-80038304D01*
X93571813Y-80067925D01*
X93571814Y-80067926D01*
X93598757Y-80091796D01*
X93609466Y-80108869D01*
X93621713Y-80117323D01*
X93644088Y-80137147D01*
X93649438Y-80143186D01*
X93672204Y-80156864D01*
X93699145Y-80180732D01*
X93699151Y-80180736D01*
X93731011Y-80197457D01*
X93745499Y-80211475D01*
X93759418Y-80216754D01*
X93785888Y-80230647D01*
X93792533Y-80235234D01*
X93817906Y-80243063D01*
X93849775Y-80259790D01*
X93884714Y-80268401D01*
X93902128Y-80278540D01*
X93916911Y-80280336D01*
X93945932Y-80287490D01*
X93953496Y-80290358D01*
X93980003Y-80291887D01*
X94014941Y-80300499D01*
X94014942Y-80300500D01*
X94050937Y-80300500D01*
X94070285Y-80306181D01*
X94085049Y-80304388D01*
X94114954Y-80304388D01*
X94122950Y-80305359D01*
X94149063Y-80300500D01*
X94185058Y-80300500D01*
X94185060Y-80300499D01*
X94219994Y-80291889D01*
X94240131Y-80292774D01*
X94254064Y-80287490D01*
X94283088Y-80280335D01*
X94291113Y-80279360D01*
X94315280Y-80268403D01*
X94350225Y-80259790D01*
X94382089Y-80243065D01*
X94401855Y-80239105D01*
X94414112Y-80230645D01*
X94440582Y-80216753D01*
X94448133Y-80213888D01*
X94468985Y-80197459D01*
X94500852Y-80180734D01*
X94527792Y-80156866D01*
X94546037Y-80148290D01*
X94555907Y-80137150D01*
X94578285Y-80117324D01*
X94584928Y-80112738D01*
X94601243Y-80091795D01*
X94628183Y-80067929D01*
X94648629Y-80038306D01*
X94664290Y-80025614D01*
X94671209Y-80012432D01*
X94688192Y-79987827D01*
X94693546Y-79981783D01*
X94704372Y-79957549D01*
X94724818Y-79927930D01*
X94737580Y-79894278D01*
X94749751Y-79878203D01*
X94753314Y-79863747D01*
X94763916Y-79835791D01*
X94767664Y-79828649D01*
X94772378Y-79802522D01*
X94773145Y-79800500D01*
X94785140Y-79768872D01*
X94792886Y-79705072D01*
X94794229Y-79697743D01*
X94797448Y-79684686D01*
X94797448Y-79684679D01*
X94798012Y-79682392D01*
X94798020Y-79682353D01*
X94802982Y-79662217D01*
X94801307Y-79635724D01*
X94805645Y-79600000D01*
X94801306Y-79564272D01*
X94804612Y-79544391D01*
X94798005Y-79517584D01*
X94797999Y-79517551D01*
X94797448Y-79515314D01*
X94794232Y-79502266D01*
X94792885Y-79494915D01*
X94785140Y-79431128D01*
X94772376Y-79397474D01*
X94770828Y-79377376D01*
X94763916Y-79364207D01*
X94753314Y-79336252D01*
X94751382Y-79328415D01*
X94737580Y-79305722D01*
X94724818Y-79272070D01*
X94722611Y-79268873D01*
X94704372Y-79242449D01*
X94698059Y-79223308D01*
X94688190Y-79212168D01*
X94671209Y-79187565D01*
X94667458Y-79180418D01*
X94648631Y-79161694D01*
X94630996Y-79136146D01*
X94628183Y-79132071D01*
X94628182Y-79132070D01*
X94601241Y-79108202D01*
X94590529Y-79091126D01*
X94578285Y-79082674D01*
X94555909Y-79062850D01*
X94550563Y-79056816D01*
X94527794Y-79043134D01*
X94500856Y-79019269D01*
X94500851Y-79019265D01*
X94468981Y-79002538D01*
X94454496Y-78988522D01*
X94440579Y-78983244D01*
X94414109Y-78969351D01*
X94407471Y-78964769D01*
X94382095Y-78956937D01*
X94350225Y-78940210D01*
X94350224Y-78940209D01*
X94350223Y-78940209D01*
X94315277Y-78931596D01*
X94297850Y-78921449D01*
X94283074Y-78919655D01*
X94254050Y-78912502D01*
X94246511Y-78909643D01*
X94220002Y-78908112D01*
X94185061Y-78899500D01*
X94185056Y-78899500D01*
X94149072Y-78899500D01*
X94129734Y-78893821D01*
X94114945Y-78895617D01*
X94085060Y-78895617D01*
X94077028Y-78894642D01*
X94050929Y-78899500D01*
X94014944Y-78899500D01*
X93979995Y-78908113D01*
X93959858Y-78907226D01*
X93945952Y-78912501D01*
X93916924Y-78919655D01*
X93908918Y-78920626D01*
X93884722Y-78931595D01*
X93849781Y-78940207D01*
X93849774Y-78940210D01*
X93817901Y-78956938D01*
X93798133Y-78960897D01*
X93785884Y-78969353D01*
X93759420Y-78983243D01*
X93751874Y-78986104D01*
X93731019Y-79002537D01*
X93699152Y-79019263D01*
X93699148Y-79019266D01*
X93672200Y-79043139D01*
X93653954Y-79051714D01*
X93644087Y-79062852D01*
X93621713Y-79082674D01*
X93615078Y-79087253D01*
X93598761Y-79108199D01*
X93571817Y-79132070D01*
X93551366Y-79161698D01*
X93535704Y-79174389D01*
X93528788Y-79187567D01*
X93511809Y-79212166D01*
X93506458Y-79218205D01*
X93495630Y-79242444D01*
X93475184Y-79272065D01*
X93475182Y-79272069D01*
X93462416Y-79305729D01*
X93450245Y-79321801D01*
X93446683Y-79336254D01*
X93436084Y-79364202D01*
X93432338Y-79371339D01*
X93427624Y-79397470D01*
X93414860Y-79431126D01*
X93410521Y-79466858D01*
X93402552Y-79485372D01*
X93402552Y-79500263D01*
X93398949Y-79529936D01*
X93397015Y-79537781D01*
X93398692Y-79564268D01*
X93394355Y-79599995D01*
X93394355Y-79600003D01*
X92341622Y-79600003D01*
X92355676Y-77000003D01*
X93394355Y-77000003D01*
X93398692Y-77035730D01*
X93395386Y-77055607D01*
X93398949Y-77070062D01*
X93402552Y-77099735D01*
X93402552Y-77107815D01*
X93410521Y-77133142D01*
X93414859Y-77168870D01*
X93414861Y-77168878D01*
X93427623Y-77202528D01*
X93429171Y-77222624D01*
X93436082Y-77235792D01*
X93446682Y-77263742D01*
X93448613Y-77271579D01*
X93462417Y-77294271D01*
X93464400Y-77299500D01*
X93475182Y-77327931D01*
X93475184Y-77327934D01*
X93495628Y-77357553D01*
X93501938Y-77376689D01*
X93511808Y-77387830D01*
X93528789Y-77412431D01*
X93532543Y-77419584D01*
X93551367Y-77438304D01*
X93571813Y-77467925D01*
X93571814Y-77467926D01*
X93598757Y-77491796D01*
X93609466Y-77508869D01*
X93621713Y-77517323D01*
X93644088Y-77537147D01*
X93649438Y-77543186D01*
X93672204Y-77556864D01*
X93699145Y-77580732D01*
X93699151Y-77580736D01*
X93731011Y-77597457D01*
X93745499Y-77611475D01*
X93759418Y-77616754D01*
X93785888Y-77630647D01*
X93792533Y-77635234D01*
X93817906Y-77643063D01*
X93849775Y-77659790D01*
X93884714Y-77668401D01*
X93902128Y-77678540D01*
X93916911Y-77680336D01*
X93945932Y-77687490D01*
X93953496Y-77690358D01*
X93980003Y-77691887D01*
X94014941Y-77700499D01*
X94014942Y-77700500D01*
X94050937Y-77700500D01*
X94070285Y-77706181D01*
X94085049Y-77704388D01*
X94114954Y-77704388D01*
X94122950Y-77705359D01*
X94149063Y-77700500D01*
X94185058Y-77700500D01*
X94185060Y-77700499D01*
X94219994Y-77691889D01*
X94240131Y-77692774D01*
X94254064Y-77687490D01*
X94283088Y-77680335D01*
X94291113Y-77679360D01*
X94315280Y-77668403D01*
X94350225Y-77659790D01*
X94382089Y-77643065D01*
X94401855Y-77639105D01*
X94414112Y-77630645D01*
X94440582Y-77616753D01*
X94448133Y-77613888D01*
X94468985Y-77597459D01*
X94500852Y-77580734D01*
X94527792Y-77556866D01*
X94546037Y-77548290D01*
X94555907Y-77537150D01*
X94578285Y-77517324D01*
X94584928Y-77512738D01*
X94601243Y-77491795D01*
X94628183Y-77467929D01*
X94648629Y-77438306D01*
X94664290Y-77425614D01*
X94671209Y-77412432D01*
X94688192Y-77387827D01*
X94693546Y-77381783D01*
X94704372Y-77357549D01*
X94724818Y-77327930D01*
X94737580Y-77294278D01*
X94749751Y-77278203D01*
X94753314Y-77263747D01*
X94763916Y-77235791D01*
X94767664Y-77228649D01*
X94772378Y-77202522D01*
X94775980Y-77193025D01*
X94785140Y-77168872D01*
X94792886Y-77105072D01*
X94794229Y-77097743D01*
X94797448Y-77084686D01*
X94797448Y-77084679D01*
X94798012Y-77082392D01*
X94798020Y-77082353D01*
X94802982Y-77062217D01*
X94801307Y-77035724D01*
X94805645Y-77000000D01*
X94801306Y-76964272D01*
X94804612Y-76944391D01*
X94798005Y-76917584D01*
X94797999Y-76917551D01*
X94797448Y-76915314D01*
X94794232Y-76902266D01*
X94792885Y-76894915D01*
X94785140Y-76831128D01*
X94772376Y-76797474D01*
X94770828Y-76777376D01*
X94763916Y-76764207D01*
X94753314Y-76736252D01*
X94751382Y-76728415D01*
X94737580Y-76705722D01*
X94724818Y-76672070D01*
X94704372Y-76642449D01*
X94698059Y-76623308D01*
X94688190Y-76612168D01*
X94671209Y-76587565D01*
X94667458Y-76580418D01*
X94648631Y-76561694D01*
X94628182Y-76532070D01*
X94601241Y-76508202D01*
X94590529Y-76491126D01*
X94578285Y-76482674D01*
X94555909Y-76462850D01*
X94550563Y-76456816D01*
X94527794Y-76443134D01*
X94500856Y-76419269D01*
X94500851Y-76419265D01*
X94468981Y-76402538D01*
X94454496Y-76388522D01*
X94440579Y-76383244D01*
X94414109Y-76369351D01*
X94407471Y-76364769D01*
X94382095Y-76356937D01*
X94350225Y-76340210D01*
X94350224Y-76340209D01*
X94350223Y-76340209D01*
X94315277Y-76331596D01*
X94297850Y-76321449D01*
X94283074Y-76319655D01*
X94254050Y-76312502D01*
X94246511Y-76309643D01*
X94220002Y-76308112D01*
X94185061Y-76299500D01*
X94185056Y-76299500D01*
X94149072Y-76299500D01*
X94129734Y-76293821D01*
X94114945Y-76295617D01*
X94085060Y-76295617D01*
X94077028Y-76294642D01*
X94050929Y-76299500D01*
X94014944Y-76299500D01*
X93979995Y-76308113D01*
X93959858Y-76307226D01*
X93945952Y-76312501D01*
X93916924Y-76319655D01*
X93908918Y-76320626D01*
X93884722Y-76331595D01*
X93849781Y-76340207D01*
X93849774Y-76340210D01*
X93817901Y-76356938D01*
X93798133Y-76360897D01*
X93785884Y-76369353D01*
X93759420Y-76383243D01*
X93751874Y-76386104D01*
X93731019Y-76402537D01*
X93699152Y-76419263D01*
X93699148Y-76419266D01*
X93672200Y-76443139D01*
X93653954Y-76451714D01*
X93644087Y-76462852D01*
X93621713Y-76482674D01*
X93615078Y-76487253D01*
X93598761Y-76508199D01*
X93571817Y-76532070D01*
X93551366Y-76561698D01*
X93535704Y-76574389D01*
X93528788Y-76587567D01*
X93511809Y-76612166D01*
X93506458Y-76618205D01*
X93495630Y-76642444D01*
X93475184Y-76672065D01*
X93475182Y-76672069D01*
X93462416Y-76705729D01*
X93450245Y-76721801D01*
X93446683Y-76736254D01*
X93436084Y-76764202D01*
X93432338Y-76771339D01*
X93427624Y-76797470D01*
X93414860Y-76831126D01*
X93410521Y-76866858D01*
X93402552Y-76885372D01*
X93402552Y-76900263D01*
X93398949Y-76929936D01*
X93397015Y-76937781D01*
X93398692Y-76964268D01*
X93394355Y-76999995D01*
X93394355Y-77000003D01*
X92355676Y-77000003D01*
X92377837Y-72900003D01*
X93994355Y-72900003D01*
X93998692Y-72935730D01*
X93995386Y-72955607D01*
X93998949Y-72970062D01*
X94002552Y-72999735D01*
X94002552Y-73007815D01*
X94010521Y-73033142D01*
X94014859Y-73068870D01*
X94014861Y-73068878D01*
X94027623Y-73102528D01*
X94029171Y-73122624D01*
X94036082Y-73135792D01*
X94046682Y-73163742D01*
X94048613Y-73171579D01*
X94062417Y-73194271D01*
X94064779Y-73200500D01*
X94075182Y-73227931D01*
X94075184Y-73227934D01*
X94095628Y-73257553D01*
X94101938Y-73276689D01*
X94111808Y-73287830D01*
X94128789Y-73312431D01*
X94132543Y-73319584D01*
X94151367Y-73338304D01*
X94171813Y-73367925D01*
X94171814Y-73367926D01*
X94198757Y-73391796D01*
X94209466Y-73408869D01*
X94221713Y-73417323D01*
X94244088Y-73437147D01*
X94249438Y-73443186D01*
X94272204Y-73456864D01*
X94299145Y-73480732D01*
X94299151Y-73480736D01*
X94331011Y-73497457D01*
X94345499Y-73511475D01*
X94359418Y-73516754D01*
X94385888Y-73530647D01*
X94392533Y-73535234D01*
X94417906Y-73543063D01*
X94449775Y-73559790D01*
X94484714Y-73568401D01*
X94502128Y-73578540D01*
X94516911Y-73580336D01*
X94545932Y-73587490D01*
X94553496Y-73590358D01*
X94580003Y-73591887D01*
X94614941Y-73600499D01*
X94614942Y-73600500D01*
X94650937Y-73600500D01*
X94670285Y-73606181D01*
X94685049Y-73604388D01*
X94714954Y-73604388D01*
X94722950Y-73605359D01*
X94749063Y-73600500D01*
X94785058Y-73600500D01*
X94785060Y-73600499D01*
X94819994Y-73591889D01*
X94840131Y-73592774D01*
X94854064Y-73587490D01*
X94883088Y-73580335D01*
X94891113Y-73579360D01*
X94915280Y-73568403D01*
X94950225Y-73559790D01*
X94982089Y-73543065D01*
X95001855Y-73539105D01*
X95014112Y-73530645D01*
X95040582Y-73516753D01*
X95048133Y-73513888D01*
X95068985Y-73497459D01*
X95100852Y-73480734D01*
X95127792Y-73456866D01*
X95146037Y-73448290D01*
X95155907Y-73437150D01*
X95178285Y-73417324D01*
X95184928Y-73412738D01*
X95201243Y-73391795D01*
X95228183Y-73367929D01*
X95248629Y-73338306D01*
X95264290Y-73325614D01*
X95271209Y-73312432D01*
X95288192Y-73287827D01*
X95293546Y-73281783D01*
X95304372Y-73257549D01*
X95324818Y-73227930D01*
X95337580Y-73194278D01*
X95349751Y-73178203D01*
X95353314Y-73163747D01*
X95363916Y-73135791D01*
X95367664Y-73128649D01*
X95372378Y-73102522D01*
X95373524Y-73099500D01*
X95385140Y-73068872D01*
X95392886Y-73005072D01*
X95394229Y-72997743D01*
X95397448Y-72984686D01*
X95397448Y-72984679D01*
X95398012Y-72982392D01*
X95398020Y-72982353D01*
X95402982Y-72962217D01*
X95401307Y-72935724D01*
X95405645Y-72900000D01*
X95401306Y-72864272D01*
X95404612Y-72844391D01*
X95398005Y-72817584D01*
X95397999Y-72817551D01*
X95397448Y-72815314D01*
X95394232Y-72802266D01*
X95392885Y-72794915D01*
X95385140Y-72731128D01*
X95372376Y-72697474D01*
X95370828Y-72677376D01*
X95363916Y-72664207D01*
X95353314Y-72636252D01*
X95351382Y-72628415D01*
X95337580Y-72605722D01*
X95324818Y-72572070D01*
X95304372Y-72542449D01*
X95298059Y-72523308D01*
X95288190Y-72512168D01*
X95271209Y-72487565D01*
X95267458Y-72480418D01*
X95248631Y-72461694D01*
X95228182Y-72432070D01*
X95201241Y-72408202D01*
X95190529Y-72391126D01*
X95178285Y-72382674D01*
X95155909Y-72362850D01*
X95150563Y-72356816D01*
X95127794Y-72343134D01*
X95100856Y-72319269D01*
X95100851Y-72319265D01*
X95068981Y-72302538D01*
X95054496Y-72288522D01*
X95040579Y-72283244D01*
X95014109Y-72269351D01*
X95007471Y-72264769D01*
X94982095Y-72256937D01*
X94950225Y-72240210D01*
X94950224Y-72240209D01*
X94950223Y-72240209D01*
X94915277Y-72231596D01*
X94897850Y-72221449D01*
X94883074Y-72219655D01*
X94854050Y-72212502D01*
X94846511Y-72209643D01*
X94820002Y-72208112D01*
X94785061Y-72199500D01*
X94785056Y-72199500D01*
X94749072Y-72199500D01*
X94729734Y-72193821D01*
X94714945Y-72195617D01*
X94685060Y-72195617D01*
X94677028Y-72194642D01*
X94650929Y-72199500D01*
X94614944Y-72199500D01*
X94579995Y-72208113D01*
X94559858Y-72207226D01*
X94545952Y-72212501D01*
X94516924Y-72219655D01*
X94508918Y-72220626D01*
X94484722Y-72231595D01*
X94449781Y-72240207D01*
X94449774Y-72240210D01*
X94417901Y-72256938D01*
X94398133Y-72260897D01*
X94385884Y-72269353D01*
X94359420Y-72283243D01*
X94351874Y-72286104D01*
X94331019Y-72302537D01*
X94299152Y-72319263D01*
X94299148Y-72319266D01*
X94272200Y-72343139D01*
X94253954Y-72351714D01*
X94244087Y-72362852D01*
X94221713Y-72382674D01*
X94215078Y-72387253D01*
X94198761Y-72408199D01*
X94171817Y-72432070D01*
X94151366Y-72461698D01*
X94135704Y-72474389D01*
X94128788Y-72487567D01*
X94111809Y-72512166D01*
X94106458Y-72518205D01*
X94095630Y-72542444D01*
X94075184Y-72572065D01*
X94075182Y-72572069D01*
X94062416Y-72605729D01*
X94050245Y-72621801D01*
X94046683Y-72636254D01*
X94036084Y-72664202D01*
X94032338Y-72671339D01*
X94027624Y-72697470D01*
X94014860Y-72731126D01*
X94010521Y-72766858D01*
X94002552Y-72785372D01*
X94002552Y-72800263D01*
X93998949Y-72829936D01*
X93997015Y-72837781D01*
X93998692Y-72864268D01*
X93994355Y-72899995D01*
X93994355Y-72900003D01*
X92377837Y-72900003D01*
X92396600Y-69428830D01*
X92416647Y-69361898D01*
X92469698Y-69316429D01*
X92520599Y-69305500D01*
X94100601Y-69305500D01*
X94167640Y-69325185D01*
G37*
%TD.AperFunction*%
%TA.AperFunction,Conductor*%
G36*
X101495751Y-69211088D02*
G01*
X101614534Y-69265335D01*
X101614541Y-69265338D01*
X101659357Y-69278497D01*
X101681575Y-69285022D01*
X101681580Y-69285023D01*
X101681584Y-69285024D01*
X101824000Y-69305500D01*
X102270500Y-69305500D01*
X102337539Y-69325185D01*
X102383294Y-69377989D01*
X102394500Y-69429499D01*
X102394500Y-71299998D01*
X102394500Y-73388466D01*
X102395826Y-73398181D01*
X102412992Y-73523941D01*
X102412993Y-73523944D01*
X102430806Y-73587977D01*
X102430810Y-73587986D01*
X102458370Y-73651925D01*
X102466830Y-73721281D01*
X102457292Y-73752519D01*
X102434665Y-73802064D01*
X102414978Y-73869108D01*
X102414976Y-73869113D01*
X102394500Y-74011534D01*
X102394500Y-74170500D01*
X102374815Y-74237539D01*
X102322011Y-74283294D01*
X102270500Y-74294500D01*
X101011347Y-74294500D01*
X100944308Y-74274815D01*
X100898553Y-74222011D01*
X100888609Y-74152853D01*
X100903960Y-74108500D01*
X100927179Y-74068284D01*
X100985674Y-73888256D01*
X101005460Y-73700000D01*
X100985674Y-73511744D01*
X100927179Y-73331716D01*
X100832533Y-73167784D01*
X100705871Y-73027112D01*
X100679311Y-73007815D01*
X100552734Y-72915851D01*
X100552729Y-72915848D01*
X100379807Y-72838857D01*
X100379802Y-72838855D01*
X100234001Y-72807865D01*
X100194646Y-72799500D01*
X100005354Y-72799500D01*
X100005349Y-72799500D01*
X99997158Y-72801241D01*
X99927492Y-72795920D01*
X99871761Y-72753778D01*
X99847662Y-72688196D01*
X99847858Y-72669154D01*
X99855659Y-72580000D01*
X99835063Y-72344592D01*
X99773903Y-72116337D01*
X99674035Y-71902171D01*
X99602495Y-71800000D01*
X99538494Y-71708597D01*
X99371402Y-71541506D01*
X99371401Y-71541505D01*
X99185405Y-71411269D01*
X99141781Y-71356692D01*
X99134588Y-71287193D01*
X99166110Y-71224839D01*
X99185405Y-71208119D01*
X99371082Y-71078105D01*
X99538105Y-70911082D01*
X99673600Y-70717578D01*
X99773429Y-70503492D01*
X99773432Y-70503486D01*
X99830636Y-70290000D01*
X99113347Y-70290000D01*
X99046308Y-70270315D01*
X99000553Y-70217511D01*
X98990609Y-70148353D01*
X98994369Y-70131067D01*
X99000000Y-70111888D01*
X99000000Y-69968111D01*
X98994369Y-69948933D01*
X98994370Y-69879064D01*
X99032145Y-69820286D01*
X99095701Y-69791262D01*
X99113347Y-69790000D01*
X99830636Y-69790000D01*
X99830635Y-69789999D01*
X99773432Y-69576513D01*
X99773429Y-69576507D01*
X99729316Y-69481905D01*
X99718824Y-69412827D01*
X99747344Y-69349043D01*
X99805820Y-69310804D01*
X99841698Y-69305500D01*
X101070490Y-69305500D01*
X101070500Y-69305500D01*
X101177956Y-69293947D01*
X101229467Y-69282741D01*
X101332004Y-69248613D01*
X101377198Y-69219567D01*
X101444236Y-69199882D01*
X101495751Y-69211088D01*
G37*
%TD.AperFunction*%
%TD*%
M02*
